<svg version="1.1" id="Layer_1" xmlns="http://www.w3.org/2000/svg" xmlns:xlink="http://www.w3.org/1999/xlink" x="0px" y="0px"
	 width="100%" viewBox="0 0 150 150" enable-background="new 0 0 150 150" xml:space="preserve">
<path fill="#FEFEFE" opacity="0.000000" stroke="none" 
	d="
M94.000000,151.000000 
	C63.833332,151.000000 34.166409,150.944778 4.500401,151.084976 
	C1.515966,151.099091 0.909312,150.482834 0.916707,147.499786 
	C1.034885,99.833420 1.034886,52.166580 0.916707,4.500206 
	C0.909312,1.517179 1.517179,0.909312 4.500206,0.916708 
	C52.166580,1.034884 99.833420,1.034884 147.499786,0.916708 
	C150.482834,0.909312 151.090683,1.517179 151.083298,4.500206 
	C150.965118,52.166580 150.965118,99.833420 151.083298,147.499786 
	C151.090698,150.482834 150.486771,151.117249 147.499130,151.087296 
	C129.834229,150.910217 112.166664,151.000000 94.000000,151.000000 
z"/>
<path fill="#C2C2C4" opacity="1.000000" stroke="none" 
	d="
M67.358246,103.223236 
	C64.997704,100.177292 62.686123,98.298347 58.864254,97.507782 
	C55.195015,96.748779 52.834461,92.964355 51.128765,89.652832 
	C49.409142,86.314262 47.094055,84.664726 43.262821,84.200439 
	C42.457050,83.059616 42.766010,82.184563 43.128452,81.003799 
	C44.056656,79.189064 45.909729,78.602005 46.661903,76.659187 
	C46.860779,76.181862 46.943810,75.992195 47.175369,75.528870 
	C47.447891,75.088455 47.571884,74.921677 47.917931,74.537514 
	C48.446980,74.037178 48.749214,73.749222 49.269402,73.222778 
	C49.663223,72.852264 49.834560,72.715469 50.314201,72.451843 
	C51.071526,72.240372 51.521629,72.240051 52.298653,72.430923 
	C53.246880,72.978447 53.547867,73.581329 53.568779,74.666336 
	C51.577721,79.683464 51.577721,79.683464 58.912430,84.306046 
	C59.783386,84.976700 60.192108,85.565857 60.475945,86.634811 
	C60.413517,87.484787 60.207279,87.914864 59.576450,88.479553 
	C57.870632,89.263939 55.161724,89.746750 58.361977,91.455200 
	C61.597858,93.182671 64.680016,95.005997 67.520630,97.847656 
	C68.296959,98.888115 68.819305,99.678329 69.427246,100.839783 
	C69.644440,101.667450 69.614532,102.150398 69.282745,102.933502 
	C68.622818,103.455887 68.148598,103.524582 67.358246,103.223236 
z"/>
<path fill="#D0CBC5" opacity="1.000000" stroke="none" 
	d="
M79.153976,125.662285 
	C76.921577,125.840469 74.958435,125.837662 72.575264,125.815300 
	C71.211327,125.124657 71.046379,124.155952 71.208649,122.730835 
	C72.204834,120.449432 74.125374,119.826950 76.121155,118.761337 
	C79.237625,119.276588 80.575562,117.573212 81.788239,115.130524 
	C82.031769,114.616524 82.134995,114.413216 82.424316,113.921616 
	C82.906677,113.281807 83.238655,112.968056 83.906929,112.526451 
	C84.635307,112.207039 85.072922,112.091927 85.855438,111.992981 
	C87.297447,111.954254 88.353149,112.158867 89.555023,112.930634 
	C89.920639,113.265114 90.044746,113.413521 90.267052,113.820053 
	C89.926033,115.724243 91.111099,114.184601 91.611511,114.685486 
	C93.462265,116.301071 93.181343,118.253387 93.203850,120.488937 
	C92.989944,122.103058 92.548279,123.212021 91.152443,124.118942 
	C89.165352,123.747360 87.372406,125.151062 85.541786,123.686462 
	C84.740044,122.521996 84.108177,121.810814 82.933372,123.296188 
	C81.974716,124.783020 80.539406,124.857262 79.153976,125.662285 
z"/>
<path fill="#546885" opacity="1.000000" stroke="none" 
	d="
M39.778385,70.187515 
	C45.917171,65.953629 50.720181,60.195763 57.389904,57.015579 
	C58.727470,56.377811 60.103573,55.820862 62.023346,55.498116 
	C63.135818,58.124104 61.548279,59.221252 59.628780,60.481705 
	C56.441425,62.156315 54.552788,64.812927 51.870789,67.064102 
	C51.410961,67.382515 51.218334,67.494751 50.721184,67.737129 
	C49.806862,68.087090 49.183399,68.269165 48.306480,68.678474 
	C46.407600,69.568016 45.435490,71.020134 43.963879,72.420265 
	C42.991455,72.838867 42.301296,72.856552 41.272354,72.536621 
	C40.353333,71.905716 39.999104,71.280937 39.778385,70.187515 
z"/>
<path fill="#4A75B3" opacity="1.000000" stroke="none" 
	d="
M106.589279,32.804573 
	C108.404091,31.918205 109.898476,32.162769 111.930656,32.858604 
	C112.708786,33.213089 112.949448,33.297424 113.499672,33.606438 
	C114.984528,36.212566 117.733475,36.157253 119.801117,37.756073 
	C121.236008,38.758812 121.647705,40.003918 121.988419,41.613438 
	C120.889229,44.474262 118.695717,44.169064 116.211044,43.968842 
	C114.417824,43.380882 113.645195,42.084354 112.303238,40.942909 
	C111.672470,40.693665 111.877068,39.581135 110.864807,40.425518 
	C109.912933,40.903713 109.212349,40.981014 108.128677,40.863003 
	C107.533379,40.695259 107.302818,40.596962 106.775993,40.261780 
	C104.919350,37.732647 104.205391,35.414745 106.589279,32.804573 
z"/>
<path fill="#C19F82" opacity="1.000000" stroke="none" 
	d="
M114.678917,55.762772 
	C115.022346,60.358166 115.054871,64.721413 115.067497,69.550095 
	C115.018021,70.453049 114.982079,70.890053 114.896042,71.652542 
	C114.802322,72.685593 114.751282,73.392532 114.601227,74.440689 
	C114.263863,75.418823 113.949379,76.017220 113.435318,76.894012 
	C112.886131,77.910660 112.488052,78.624374 111.980896,79.624405 
	C111.207512,81.000710 109.855194,80.847603 108.689842,81.741768 
	C107.448807,82.662163 106.479454,83.363892 104.985733,83.882492 
	C103.348282,84.159401 102.130241,84.051636 100.850342,82.927338 
	C100.582275,82.399124 100.529037,82.166779 100.530060,81.587067 
	C101.712784,79.403503 104.249359,79.751228 105.607979,77.776566 
	C105.894531,77.057686 106.071457,76.648567 106.424652,75.942375 
	C106.863480,75.266365 107.169830,74.920807 107.760406,74.364273 
	C111.819969,69.115761 112.111946,63.439999 111.210388,57.160271 
	C111.375130,56.563488 111.479103,56.333992 111.858925,55.840424 
	C112.872498,55.234497 113.616905,55.219223 114.678917,55.762772 
z"/>
<path fill="#3C6094" opacity="1.000000" stroke="none" 
	d="
M62.216255,55.156784 
	C66.329529,50.728088 71.418648,47.549622 76.711716,44.062920 
	C77.399902,43.548653 77.851097,43.321362 78.712845,43.108105 
	C82.180641,42.735054 84.456566,44.394360 86.925537,46.475250 
	C87.223000,47.027210 87.277794,47.278416 87.186020,47.886055 
	C86.434875,48.746170 85.718246,48.986160 84.591370,49.178185 
	C82.034790,49.261932 79.932167,49.718025 77.554665,50.636429 
	C76.976051,50.826706 76.741203,50.894054 76.147812,51.039856 
	C72.899246,51.358021 70.394615,52.634933 67.909714,53.997128 
	C66.337440,54.859035 64.865906,56.114174 62.543236,55.385330 
	C62.238129,55.177807 62.228546,55.146271 62.216255,55.156784 
z"/>
<path fill="#A97655" opacity="1.000000" stroke="none" 
	d="
M115.101303,55.767181 
	C114.251312,56.009972 113.512802,56.025024 112.404938,56.028465 
	C110.268524,53.557022 108.673416,50.849319 104.677979,51.099991 
	C103.128479,50.838329 101.889168,50.536255 100.649261,51.859314 
	C100.081429,52.370106 99.699677,52.575928 98.958282,52.777905 
	C98.412758,52.831944 98.192673,52.827900 97.649078,52.760490 
	C96.910713,52.556606 96.507278,52.388882 95.830612,52.034157 
	C95.364174,51.756630 95.184532,51.633896 94.771301,51.282829 
	C94.003464,50.349144 93.663422,49.551563 93.372330,48.379082 
	C93.332657,47.828358 93.343491,47.605312 93.435593,47.054672 
	C93.764259,46.081066 94.110222,45.490482 94.769562,44.683456 
	C95.590904,43.984306 96.227409,43.651134 97.262215,43.295044 
	C102.672661,44.526741 107.130722,47.343857 112.389557,49.175232 
	C114.004333,50.634357 115.830025,51.529812 115.536575,54.174286 
	C115.398872,54.891373 115.305824,55.215408 115.101303,55.767181 
z"/>
<path fill="#D8D7D4" opacity="1.000000" stroke="none" 
	d="
M58.951679,116.305038 
	C58.996708,115.087036 59.302143,114.390404 60.414803,113.924934 
	C64.216400,113.186127 65.704231,110.586258 66.804443,107.218567 
	C66.965508,106.424164 67.127922,105.990196 67.514709,105.264923 
	C68.122589,104.343346 68.770164,104.028595 69.736771,103.534912 
	C70.776901,103.127884 71.508202,103.094131 72.606339,103.325195 
	C73.398842,103.679764 73.789589,103.980820 74.329231,104.658173 
	C74.812775,105.652359 74.878372,106.361923 74.669846,107.419373 
	C74.152046,108.731392 72.991096,109.241158 72.859047,110.726593 
	C72.880806,111.676620 72.884148,112.313309 72.738922,113.264793 
	C72.574440,113.776871 72.483391,113.972687 72.195374,114.424103 
	C71.076050,115.552727 70.178421,116.467453 68.504929,116.559097 
	C67.354752,116.352364 66.735550,116.730576 65.971573,117.576576 
	C63.294090,118.477577 60.421074,121.836266 58.951679,116.305038 
z"/>
<path fill="#5C5366" opacity="1.000000" stroke="none" 
	d="
M87.312950,46.639793 
	C84.189919,46.790543 82.439407,43.726593 79.033340,43.818130 
	C78.488182,43.238842 78.570938,42.764874 79.267563,42.329208 
	C79.645905,42.326477 79.876518,42.355434 79.956024,42.270676 
	C81.080170,40.590363 82.616661,39.721298 84.744469,39.220184 
	C87.046440,38.307327 89.010529,37.400856 91.331970,36.423573 
	C93.667549,36.913441 95.216423,38.215466 97.104889,39.636909 
	C97.526215,40.388466 97.606628,40.866932 97.438629,41.698120 
	C94.709778,44.638725 90.623787,41.694599 87.999603,44.816360 
	C87.836807,45.564934 87.699821,45.980808 87.312950,46.639793 
z"/>
<path fill="#7A7073" opacity="1.000000" stroke="none" 
	d="
M114.770470,42.918289 
	C117.199509,42.812099 119.323792,43.370998 121.629585,42.116585 
	C124.717392,43.160381 127.845718,43.692120 130.200287,46.488186 
	C126.598244,48.418087 122.501526,45.789974 119.186523,48.661011 
	C117.377602,50.260807 116.408417,48.751656 114.940948,47.947617 
	C113.862122,47.177891 113.103279,46.585098 112.591644,45.328880 
	C112.666611,43.843964 113.407761,43.275066 114.770470,42.918289 
z"/>
<path fill="#AAA7AA" opacity="1.000000" stroke="none" 
	d="
M88.178551,97.404808 
	C87.449448,97.721024 87.034760,97.806419 86.304413,97.934341 
	C85.185974,98.750954 84.213097,99.116722 82.716019,99.179123 
	C78.680000,98.701057 75.971649,96.965652 74.508881,93.071198 
	C74.412010,92.201767 74.497803,91.721260 74.950562,91.006897 
	C75.406090,90.656960 75.618690,90.565346 76.169708,90.449211 
	C77.135956,90.497559 77.751518,90.796173 78.723877,90.487366 
	C80.978073,90.876930 82.740891,92.059204 85.193954,91.707878 
	C86.791924,91.704216 88.026932,91.764297 89.546448,92.390854 
	C91.450066,94.725899 89.718025,95.873245 88.178551,97.404808 
z"/>
<path fill="#E9E5E2" opacity="1.000000" stroke="none" 
	d="
M104.243797,119.803650 
	C105.711830,119.862732 106.939835,119.767410 107.863930,120.571465 
	C108.570091,121.185883 109.477127,122.067589 109.501518,122.854980 
	C109.541840,124.156265 108.102264,123.860359 107.209167,124.106544 
	C102.430199,125.423836 97.617340,126.443787 92.147751,125.754684 
	C91.128494,123.557930 92.889603,122.715446 94.254128,121.319595 
	C96.700096,119.398651 99.216408,121.774651 101.676025,120.318024 
	C102.560097,119.730766 103.207474,119.497780 104.243797,119.803650 
z"/>
<path fill="#4B5E83" opacity="1.000000" stroke="none" 
	d="
M97.342606,40.274170 
	C94.975105,39.665268 93.131599,38.959267 91.838951,36.712448 
	C94.807747,34.027760 98.655060,33.958439 102.601112,33.002701 
	C104.646255,34.858788 104.905098,36.804798 103.301353,39.200829 
	C101.363739,40.480625 99.653778,41.203239 97.342606,40.274170 
z"/>
<path fill="#272636" opacity="1.000000" stroke="none" 
	d="
M28.660892,73.060349 
	C32.129147,72.130898 35.365326,71.798431 38.595146,70.206085 
	C39.891445,70.782516 40.023556,72.034706 41.190639,72.868561 
	C41.597656,73.530624 41.658703,73.977913 41.545238,74.782486 
	C41.009804,76.022964 40.315777,76.690796 39.174217,77.420746 
	C38.354656,77.716171 37.861027,77.776024 36.987495,77.739075 
	C33.520218,76.415047 30.231558,78.743202 26.936401,76.877640 
	C26.559465,75.117828 27.225630,74.064224 28.660892,73.060349 
z"/>
<path fill="#C9C3BF" opacity="1.000000" stroke="none" 
	d="
M92.289871,121.174652 
	C91.558022,119.099030 93.015358,116.776344 90.405563,115.049644 
	C89.975121,114.905350 89.984261,114.447754 89.988876,114.218948 
	C89.845268,112.656105 89.754349,111.330597 90.871490,109.882263 
	C91.704071,109.490814 92.224800,109.513893 93.108795,109.837769 
	C95.848351,110.331161 97.194344,111.569962 97.047470,114.451271 
	C97.505745,115.338745 97.425560,115.943222 97.162094,116.845772 
	C96.975861,117.315727 96.891388,117.498009 96.663315,117.941315 
	C96.320274,118.541855 96.120888,118.881393 95.775665,119.477142 
	C95.511230,119.891525 95.392685,120.049736 95.044647,120.398262 
	C94.642204,120.688492 94.469261,120.788422 94.019295,121.005951 
	C93.356827,121.249916 92.960808,121.312042 92.289871,121.174652 
z"/>
<path fill="#4A759F" opacity="1.000000" stroke="none" 
	d="
M26.802109,75.775253 
	C30.188131,78.001892 33.478680,74.840263 36.898056,76.582474 
	C35.926277,79.870171 32.234459,79.374840 29.395454,81.564728 
	C26.367918,81.203865 24.556665,82.558182 22.187737,82.867889 
	C21.651796,83.049210 21.465689,83.195084 20.999374,83.128830 
	C20.118971,79.988159 22.551935,79.694489 24.266815,79.301277 
	C26.719687,78.738838 24.470057,77.873489 24.638512,76.849785 
	C25.064516,75.774582 25.682507,75.505577 26.802109,75.775253 
z"/>
<path fill="#C9C3BF" opacity="1.000000" stroke="none" 
	d="
M58.660278,116.118080 
	C60.494473,119.494568 62.987762,117.764679 65.648468,117.035820 
	C67.443222,119.990166 64.114067,121.312622 63.436401,123.942520 
	C61.805733,124.902954 60.712002,124.142220 59.298195,123.249664 
	C55.849174,121.038277 55.449295,118.823410 58.660278,116.118080 
z"/>
<path fill="#AAA7AA" opacity="1.000000" stroke="none" 
	d="
M43.718330,80.657097 
	C43.770947,81.742500 43.521786,82.544044 43.145393,83.637695 
	C38.574696,84.217400 34.156815,84.158241 29.407673,82.878571 
	C28.882889,82.648911 28.773666,82.497070 28.760433,82.081589 
	C28.856422,81.817947 28.903933,81.828720 28.911097,81.852005 
	C29.943148,81.075386 31.244429,80.908737 32.748039,80.244080 
	C34.128975,79.863846 35.165848,79.781723 36.600716,79.700546 
	C37.528332,79.666840 38.060753,79.661446 38.998726,79.660187 
	C40.786060,79.646622 42.148045,79.748444 43.718330,80.657097 
z"/>
<path fill="#D0CBC5" opacity="1.000000" stroke="none" 
	d="
M102.152130,121.136307 
	C101.029129,121.973915 100.723686,125.531799 98.955856,122.285011 
	C97.901138,120.347916 96.763000,121.975037 95.327957,121.968826 
	C94.843422,121.855446 94.699402,121.717690 94.491318,121.287834 
	C94.479698,120.803421 94.532135,120.611122 94.800468,120.212021 
	C95.016373,120.005203 94.999535,119.998383 95.001839,120.006996 
	C95.439362,119.584320 95.507690,118.999229 95.838287,118.221924 
	C96.015991,117.994255 95.995979,117.997559 95.998474,118.007393 
	C96.580582,117.468552 97.046524,116.825905 97.725212,115.970627 
	C98.126297,115.694687 98.317459,115.633698 98.796806,115.659500 
	C99.797142,115.830467 100.509293,115.914665 101.578201,116.034698 
	C102.562263,116.689026 102.897697,117.432030 102.859634,118.737366 
	C102.682365,119.695930 102.504608,120.224831 102.152130,121.136307 
z"/>
<path fill="#9EA3AE" opacity="1.000000" stroke="none" 
	d="
M16.275360,84.136116 
	C13.060683,86.775558 9.455296,87.107307 5.106414,86.817291 
	C6.596944,85.073868 6.115758,82.623718 8.962488,82.326424 
	C11.055879,83.574043 12.867470,81.808983 14.989629,82.556686 
	C15.710479,82.986443 16.019224,83.349998 16.275360,84.136116 
z"/>
<path fill="#D0CBC5" opacity="1.000000" stroke="none" 
	d="
M63.000710,124.068771 
	C61.971951,120.797928 65.280800,119.900787 65.958832,117.354294 
	C66.067047,116.131897 65.770462,115.074272 66.681084,114.548103 
	C67.355850,114.158203 67.709579,114.808815 67.959732,115.720383 
	C69.571289,117.914398 67.503845,120.380890 69.137360,122.586845 
	C69.358063,124.051857 68.665665,124.570908 67.346092,124.886803 
	C66.248077,124.910576 65.501396,124.917755 64.382111,124.898834 
	C63.617123,124.826340 63.295700,124.646912 63.000710,124.068771 
z"/>
<path fill="#C0BBBC" opacity="1.000000" stroke="none" 
	d="
M67.612793,106.887466 
	C66.921844,110.611603 66.373146,114.614937 60.953880,114.111588 
	C61.029243,111.442482 62.442207,109.689041 64.414047,107.974358 
	C65.565147,107.453697 66.239250,106.672646 67.612793,106.887466 
z"/>
<path fill="#C4C2C2" opacity="1.000000" stroke="none" 
	d="
M88.185913,97.726631 
	C87.562241,95.804199 89.381706,95.062599 89.963074,93.322357 
	C92.217285,91.099098 94.674957,91.465401 97.570366,92.419746 
	C98.117867,92.947449 98.266228,93.223984 98.247345,93.940536 
	C97.836746,95.693382 96.831909,95.958252 95.411316,96.136902 
	C93.772743,97.523468 91.897423,96.858063 90.111000,97.648384 
	C89.396385,97.810532 88.952034,97.814087 88.185913,97.726631 
z"/>
<path fill="#B1B0B1" opacity="1.000000" stroke="none" 
	d="
M98.433662,94.272934 
	C98.054581,94.139786 98.029053,93.899017 97.963501,93.297295 
	C96.755058,90.436607 99.023933,89.891953 100.320992,88.915871 
	C101.750793,87.839912 103.025543,86.552452 104.986130,85.564796 
	C106.209618,85.402199 106.918633,85.641319 107.307129,86.816360 
	C105.039948,90.272873 102.865639,93.377724 98.433662,94.272934 
z"/>
<path fill="#E9E5E2" opacity="1.000000" stroke="none" 
	d="
M79.326843,125.896111 
	C79.003464,124.144012 80.544235,124.134560 81.805267,123.301979 
	C82.980232,122.176048 84.059647,121.933517 85.636383,122.761673 
	C87.047806,125.561913 88.946289,121.067894 90.064613,123.780273 
	C90.414719,124.350220 90.552452,124.705956 90.437546,125.392288 
	C86.803337,125.761108 83.286148,125.855034 79.326843,125.896111 
z"/>
<path fill="#9C938F" opacity="1.000000" stroke="none" 
	d="
M114.700790,47.073692 
	C116.599342,46.776371 116.994759,48.635536 118.640709,48.945709 
	C119.027390,51.299629 117.519028,52.750881 115.781570,54.401451 
	C115.216225,52.626492 113.469879,51.865986 112.160484,50.303017 
	C112.509254,48.797741 113.381561,47.916664 114.700790,47.073692 
z"/>
<path fill="#244B75" opacity="1.000000" stroke="none" 
	d="
M24.621937,77.061264 
	C25.579437,77.761459 26.483540,78.095474 27.619631,78.515198 
	C25.896101,80.853256 22.823292,80.061287 21.026604,82.178772 
	C21.014950,83.158020 20.730524,83.481041 19.653805,83.437317 
	C18.480894,83.199181 17.720535,82.951523 16.837784,82.135452 
	C16.606472,81.542023 16.603035,81.276276 16.677223,80.619507 
	C16.754848,80.228485 16.834723,80.040253 16.932384,80.010010 
	C18.096966,79.293304 19.441990,79.398598 20.806608,78.622559 
	C21.331005,78.387634 21.571987,78.282944 22.201035,78.109467 
	C22.613098,76.656845 23.431406,76.441467 24.621937,77.061264 
z"/>
<path fill="#39588F" opacity="1.000000" stroke="none" 
	d="
M103.016060,39.380863 
	C103.560745,37.241184 103.305794,35.486526 103.006699,33.390491 
	C104.091026,32.835819 105.180702,32.622303 106.590866,32.502609 
	C106.090530,34.806156 105.746040,37.014027 106.973419,39.573654 
	C105.593864,42.239754 104.283981,41.940563 103.016060,39.380863 
z"/>
<path fill="#7A7073" opacity="1.000000" stroke="none" 
	d="
M24.880627,77.107834 
	C24.121649,77.599480 23.567959,77.771507 22.801683,77.992111 
	C20.871447,72.219574 26.150795,74.078003 28.747353,72.803207 
	C28.539934,73.802490 28.052645,74.683327 27.345505,75.761040 
	C26.445744,76.234688 25.765831,76.511459 24.880627,77.107834 
z"/>
<path fill="#C9C3BF" opacity="1.000000" stroke="none" 
	d="
M107.484741,86.992065 
	C106.730003,86.833450 106.210114,86.455521 105.359421,86.050209 
	C104.611336,85.945412 104.258850,85.747879 103.821960,85.170914 
	C103.639534,84.208557 103.980705,83.738625 104.771126,83.196571 
	C105.843147,82.411705 106.674995,81.816658 107.797852,81.120209 
	C108.954330,80.333626 109.668831,80.545334 110.232758,81.818794 
	C109.365364,83.757858 108.542473,85.265305 107.484741,86.992065 
z"/>
<path fill="#6792D3" opacity="1.000000" stroke="none" 
	d="
M119.961555,37.653343 
	C118.772270,37.782124 117.397598,37.193363 116.237335,37.478146 
	C112.737183,38.337254 113.775208,36.077461 113.843170,34.108963 
	C116.733002,33.437729 117.907173,36.072601 119.961555,37.653343 
z"/>
<path fill="#6E5E5D" opacity="1.000000" stroke="none" 
	d="
M85.729706,102.677994 
	C87.678841,103.443466 87.747597,105.247726 88.877426,106.663101 
	C89.465012,107.725090 89.132957,108.363464 88.376122,109.211624 
	C87.631905,109.642792 87.157837,109.761307 86.300995,109.740265 
	C85.225555,109.454353 84.708015,108.985191 84.214912,108.009323 
	C83.881828,107.026573 83.756447,106.349525 83.580673,105.335312 
	C83.547272,104.537376 83.652824,104.098991 84.302055,103.191299 
	C84.984245,102.647430 85.203194,102.591446 85.729706,102.677994 
z"/>
<path fill="#31384C" opacity="1.000000" stroke="none" 
	d="
M16.362995,80.284691 
	C16.816235,80.532646 16.877621,80.836815 17.002914,81.602020 
	C16.733870,82.594009 16.241331,82.890526 15.354532,83.095108 
	C13.130853,82.996994 11.157458,85.664589 9.263039,82.725983 
	C11.504098,81.695503 13.737620,81.018196 16.362995,80.284691 
z"/>
<path fill="#E9E5E2" opacity="1.000000" stroke="none" 
	d="
M67.238159,125.203926 
	C67.548378,124.413635 68.101997,123.923874 68.765472,123.175491 
	C68.829659,122.665504 68.783974,122.414131 68.992722,121.874977 
	C69.976662,121.226990 70.719498,121.205917 71.765846,121.751572 
	C72.061989,123.019196 72.066978,124.034889 72.113609,125.423157 
	C70.581657,125.950287 68.996727,126.286942 67.238159,125.203926 
z"/>
<path fill="#E9EFF0" opacity="1.000000" stroke="none" 
	d="
M84.847153,38.902878 
	C83.625992,40.193508 82.169640,41.173222 80.374405,42.169426 
	C79.698097,38.615768 80.910179,37.018715 84.847153,38.902878 
z"/>
<path fill="#E9E5E2" opacity="1.000000" stroke="none" 
	d="
M86.032654,102.417480 
	C86.037262,102.820526 85.580383,102.942398 85.345360,102.916687 
	C82.775429,102.494011 82.050453,100.722542 81.632660,98.382179 
	C82.841194,97.994629 83.986099,97.968025 85.559883,97.959137 
	C86.001854,99.322723 86.014954,100.668579 86.032654,102.417480 
z"/>
<path fill="#B1B0B1" opacity="1.000000" stroke="none" 
	d="
M90.547348,125.700256 
	C90.254509,125.312630 90.188484,124.958076 90.121201,124.331238 
	C91.067589,123.514549 91.759048,122.774635 91.988983,121.342987 
	C92.495064,120.755295 92.966095,120.480377 93.685440,120.090652 
	C94.194763,120.165092 94.437263,120.375679 94.814117,120.794075 
	C94.969116,121.149376 94.971252,121.318199 94.980423,121.740112 
	C93.672409,122.736031 92.616486,123.735527 91.802124,125.374878 
	C91.385002,125.730705 91.081482,125.755417 90.547348,125.700256 
z"/>
<path fill="#9C938F" opacity="1.000000" stroke="none" 
	d="
M88.171173,109.254715 
	C88.251381,108.465073 88.532333,107.968414 88.928650,107.208908 
	C90.947929,106.848991 91.820038,108.397293 93.245804,109.707764 
	C92.922836,109.999336 92.366592,110.017853 91.394905,110.040306 
	C89.977386,110.576645 89.165489,110.110291 88.171173,109.254715 
z"/>
<path fill="#E9E5E2" opacity="1.000000" stroke="none" 
	d="
M90.242119,97.867233 
	C90.522598,94.919891 93.098099,97.191681 94.769211,96.150986 
	C94.383644,98.741684 92.295067,97.776573 90.242119,97.867233 
z"/>
<path fill="#E9E5E2" opacity="1.000000" stroke="none" 
	d="
M62.625977,123.804176 
	C63.231606,123.999405 63.497143,124.214272 63.886101,124.650940 
	C61.893009,126.430580 60.437630,125.288071 59.050789,123.333359 
	C60.097282,123.272171 61.191582,123.547989 62.625977,123.804176 
z"/>
<path fill="#C2C2C4" opacity="1.000000" stroke="none" 
	d="
M67.956314,106.706619 
	C67.098434,107.331688 66.259102,107.627129 65.074707,107.896103 
	C64.997566,106.864243 64.954964,105.709808 66.370346,105.054192 
	C66.912971,104.853363 67.141968,104.702957 67.694855,104.805504 
	C68.004128,105.497963 67.989502,105.937477 67.956314,106.706619 
z"/>
<path fill="#4A759F" opacity="1.000000" stroke="none" 
	d="
M15.219933,83.420807 
	C15.523256,82.815468 15.980736,82.472771 16.752520,82.096565 
	C17.582186,82.151413 18.097546,82.239761 18.811935,82.501701 
	C19.183020,82.882080 19.355078,83.088882 19.219799,83.557159 
	C18.912462,83.818642 18.854595,83.875587 18.815201,83.865784 
	C18.679453,84.019348 18.583101,84.182724 18.267134,84.165230 
	C17.657192,84.098663 17.266867,84.212967 16.583721,84.413361 
	C15.985299,84.227448 15.679694,83.955444 15.219933,83.420807 
z"/>
<path fill="#D0CBC5" opacity="1.000000" stroke="none" 
	d="
M110.482117,82.126678 
	C109.701935,81.856583 109.215614,81.462753 108.409073,81.043869 
	C108.828796,79.833557 110.075539,80.087921 111.524734,79.921074 
	C111.979507,80.855858 111.662315,81.578453 110.482117,82.126678 
z"/>
<path fill="#E9E5E2" opacity="1.000000" stroke="none" 
	d="
M102.319748,119.013306 
	C101.993088,118.003319 101.981743,117.357872 101.952682,116.391472 
	C103.216797,115.976738 103.933304,116.551346 104.043045,118.168106 
	C103.849785,119.216408 103.379204,119.514069 102.319748,119.013306 
z"/>
<path fill="#4A759F" opacity="1.000000" stroke="none" 
	d="
M20.777386,78.423019 
	C20.581141,80.326530 19.018639,79.922417 17.374985,80.029236 
	C18.174948,79.437752 19.319847,78.895729 20.777386,78.423019 
z"/>
<path fill="#847D7D" opacity="1.000000" stroke="none" 
	d="
M68.343689,104.962082 
	C67.797836,105.026543 67.576920,104.994637 67.019997,104.983246 
	C66.759193,104.557045 66.834404,104.110313 66.986656,103.332855 
	C67.591545,102.972137 68.119408,102.942162 69.043549,102.937363 
	C69.439842,102.962532 69.861885,103.080582 69.924591,103.290535 
	C69.547745,103.955559 69.108185,104.410629 68.343689,104.962082 
z"/>
<path fill="#4B5765" opacity="1.000000" stroke="none" 
	d="
M41.145153,72.921692 
	C39.629547,72.986305 38.967930,72.217117 38.942524,70.532684 
	C38.952774,70.188705 39.278484,69.854485 39.511230,69.838364 
	C40.149506,70.393944 40.555027,70.965630 41.015236,71.897980 
	C41.148991,72.412231 41.228062,72.565826 41.145153,72.921692 
z"/>
<path fill="#A29A9B" opacity="1.000000" stroke="none" 
	d="
M98.250275,115.664116 
	C98.046600,116.870804 97.715965,117.671501 96.340706,117.991348 
	C96.279045,117.166298 96.557121,116.315376 96.937820,115.134087 
	C97.209175,114.819923 97.377907,114.836128 97.792130,114.918571 
	C98.139656,115.128723 98.241684,115.272629 98.250275,115.664116 
z"/>
<path fill="#E9EFF0" opacity="1.000000" stroke="none" 
	d="
M79.283714,42.246513 
	C79.411568,42.635773 79.177223,42.945072 78.792206,43.504154 
	C78.272934,43.803116 77.904335,43.852295 77.258499,43.870995 
	C77.156097,42.735535 77.720024,42.081543 79.283714,42.246513 
z"/>
<path fill="#D0CBC5" opacity="1.000000" stroke="none" 
	d="
M113.573074,77.072113 
	C113.039650,76.328735 113.218956,75.597794 114.240112,74.918243 
	C114.951706,75.699707 114.685974,76.406036 113.573074,77.072113 
z"/>
<path fill="#D0CBC5" opacity="1.000000" stroke="none" 
	d="
M115.086151,71.855438 
	C114.181015,71.496689 114.067940,70.930664 114.821945,70.141876 
	C115.728035,70.494514 115.891060,71.055275 115.086151,71.855438 
z"/>
<path fill="#A29A9B" opacity="1.000000" stroke="none" 
	d="
M101.974655,119.130127 
	C102.463493,118.655121 102.922562,118.661469 103.714859,118.577377 
	C104.150581,118.731651 104.253067,118.976372 104.450523,119.607468 
	C103.908051,120.367088 103.270599,120.740341 102.322952,121.322189 
	C101.990135,120.891006 101.967514,120.251244 101.974655,119.130127 
z"/>
<path fill="#9EA3AE" opacity="1.000000" stroke="none" 
	d="
M19.236973,83.884949 
	C18.927933,83.628525 18.943405,83.438400 18.984919,82.961784 
	C19.436707,82.660942 19.862450,82.646599 20.602852,82.562286 
	C21.069616,82.564232 21.221724,82.636147 21.605867,82.805695 
	C21.285357,83.700706 20.474852,83.937706 19.236973,83.884949 
z"/>
<path fill="#6792D3" opacity="1.000000" stroke="none" 
	d="
M112.512329,32.990654 
	C112.468132,33.128757 112.286606,33.056114 112.247025,33.033012 
	C112.207451,33.009907 112.294502,32.735729 112.294502,32.735729 
	C112.294502,32.735729 112.556534,32.852554 112.512329,32.990654 
z"/>
<path fill="#E9E5E2" opacity="0.000000" stroke="none" 
	d="
M98.393387,115.895538 
	C98.156853,115.911690 98.010468,115.459473 98.024048,115.222137 
	C98.330399,115.059647 98.584122,115.203377 98.941895,115.581131 
	C99.084999,115.746269 98.629913,115.879395 98.393387,115.895538 
z"/>
<path fill="#90B2D6" opacity="1.000000" stroke="none" 
	d="
M28.787254,81.754822 
	C28.856422,81.817947 28.946295,82.307106 28.969200,82.553932 
	C28.744299,82.586372 28.496492,82.371979 28.389957,81.918304 
	C28.531231,81.679024 28.718088,81.691696 28.787254,81.754822 
z"/>
<path fill="#9EA3AE" opacity="0.000000" stroke="none" 
	d="
M18.113300,84.122490 
	C18.047520,83.984367 18.394693,83.820221 18.585251,83.838104 
	C18.775806,83.855980 18.603798,84.242271 18.603798,84.242271 
	C18.603798,84.242271 18.179083,84.260612 18.113300,84.122490 
z"/>
<path fill="#A4A4A9" opacity="1.000000" stroke="none" 
	d="
M67.464188,99.287430 
	C64.383728,96.277687 61.436886,93.830070 57.551189,92.577927 
	C56.084454,92.105293 54.269081,90.748680 54.548477,89.091743 
	C54.874786,87.156624 56.987370,88.243103 58.724251,88.074829 
	C60.326946,89.063690 61.607773,89.854233 63.478817,90.200691 
	C65.264938,91.001244 66.356026,92.230644 68.021423,93.259354 
	C68.685310,93.772659 69.026764,94.113457 69.558762,94.782700 
	C70.387733,96.215820 70.835312,97.376953 70.219040,99.003799 
	C69.289841,99.725044 68.556084,99.745567 67.464188,99.287430 
z"/>
<path fill="#C3B19C" opacity="1.000000" stroke="none" 
	d="
M60.539650,87.500153 
	C59.899246,86.706734 59.568527,86.141602 59.094429,85.281754 
	C58.435158,84.362625 58.213940,83.650543 58.444931,82.481392 
	C58.749870,81.932167 58.923141,81.744667 59.433010,81.378326 
	C60.486362,80.954514 61.228477,80.871735 62.342667,80.858017 
	C64.099586,80.934517 65.453842,81.504753 67.235397,81.144196 
	C68.334724,80.990204 69.073296,81.014893 70.168381,81.309647 
	C73.205513,84.245552 71.631020,86.118446 68.809784,87.996109 
	C67.466682,88.628006 66.427856,88.476616 65.008133,88.361504 
	C63.341732,88.287743 62.059105,88.230980 60.539650,87.500153 
z"/>
<path fill="#CBD1DD" opacity="0.000000" stroke="none" 
	d="
M44.227272,80.686508 
	C42.619366,80.933517 41.218620,80.926086 39.398609,80.903893 
	C38.111835,79.895485 37.944256,78.801765 38.755882,77.235153 
	C39.568592,76.516609 40.134937,76.166161 40.902771,75.659409 
	C41.205673,74.580818 41.885258,74.292763 43.025314,74.054512 
	C43.654087,74.027153 43.905483,74.041145 44.525799,74.127701 
	C45.852425,74.487885 46.764587,74.862953 47.757153,75.831955 
	C47.802525,78.359749 46.661415,79.843781 44.227272,80.686508 
z"/>
<path fill="#BAA997" opacity="1.000000" stroke="none" 
	d="
M60.214417,81.550087 
	C59.938313,81.942764 59.715633,81.982109 59.158806,82.079712 
	C53.290440,83.246422 54.175255,78.578697 53.077812,75.322220 
	C52.920822,74.382515 52.735569,73.840729 52.309151,73.131561 
	C51.499714,71.792480 52.493752,71.405624 53.436668,70.667534 
	C53.957695,70.408073 54.176529,70.322350 54.742157,70.157791 
	C56.064804,69.966568 57.004570,70.068565 58.146797,70.792999 
	C59.510460,74.336174 57.811684,78.145760 60.214417,81.550087 
z"/>
<path fill="#D0CBC5" opacity="1.000000" stroke="none" 
	d="
M52.786774,75.093781 
	C55.706329,76.643349 54.123486,81.310394 58.473873,82.090607 
	C58.875977,82.848938 58.927299,83.559898 58.964836,84.628952 
	C55.601223,84.887070 53.395531,82.325951 51.037476,80.626976 
	C49.288986,79.367188 51.008934,76.854446 52.786774,75.093781 
z"/>
<path fill="#1C376A" opacity="1.000000" stroke="none" 
	d="
M44.235680,75.022705 
	C43.346542,75.416199 42.598610,75.521500 41.477470,75.564949 
	C41.071568,74.973373 41.038872,74.443657 40.994675,73.518951 
	C40.983173,73.123962 41.043682,72.690094 41.056801,72.474365 
	C41.813213,72.186264 42.556499,72.113892 43.673370,72.017159 
	C45.762486,70.441589 47.697056,69.634689 50.405704,70.411613 
	C51.513233,71.370193 51.119164,72.019836 50.414017,73.027847 
	C50.286278,73.406395 50.100502,73.736145 49.959091,73.861908 
	C49.716663,74.150436 49.615643,74.313217 49.228081,74.497864 
	C48.790039,74.616119 48.638535,74.712517 48.250969,74.938667 
	C47.834206,75.191383 47.653503,75.314354 47.156174,75.357330 
	C46.029358,75.047867 45.291817,74.488785 44.235680,75.022705 
z"/>
<path fill="#847D7D" opacity="1.000000" stroke="none" 
	d="
M60.070534,87.444878 
	C61.537464,87.201118 62.844955,87.130379 64.550636,87.066177 
	C66.061119,88.353027 65.840935,89.557343 64.374687,90.899590 
	C62.236313,90.643341 59.533321,92.271515 59.104065,88.498611 
	C59.413296,87.998749 59.676739,87.831184 60.070534,87.444878 
z"/>
<path fill="#31272D" opacity="1.000000" stroke="none" 
	d="
M70.352966,103.526764 
	C70.134430,103.227585 70.067894,103.025208 69.613762,102.927948 
	C69.431168,102.516808 69.422493,102.071075 69.328583,101.301178 
	C69.281479,100.501175 69.478531,100.099731 70.124329,99.609070 
	C71.385750,99.110397 72.263260,99.229019 73.276970,100.137253 
	C73.675606,100.846619 73.786552,101.296654 73.770599,102.112770 
	C73.634811,102.671448 73.541458,102.884071 73.181549,103.320923 
	C72.182869,103.547775 71.450752,103.550407 70.352966,103.526764 
z"/>
<path fill="#847D7D" opacity="1.000000" stroke="none" 
	d="
M69.627548,99.099579 
	C69.887123,99.747383 69.785210,100.144310 69.463326,100.759117 
	C68.592361,100.548347 67.941368,100.119682 67.208611,99.399872 
	C67.839912,99.022049 68.552986,98.935371 69.627548,99.099579 
z"/>
<path fill="#4B5E83" opacity="1.000000" stroke="none" 
	d="
M50.586773,73.349350 
	C50.450794,72.789124 50.615314,72.171852 50.914101,71.257584 
	C51.753979,70.324448 52.558956,70.249702 53.754723,70.813095 
	C53.503651,71.551590 52.926281,72.016289 52.208443,72.722595 
	C51.674408,73.073570 51.280842,73.182945 50.586773,73.349350 
z"/>
<path fill="#9EA3AE" opacity="1.000000" stroke="none" 
	d="
M46.684929,74.655327 
	C47.136093,74.761047 47.601788,74.839439 47.808350,74.953926 
	C48.020424,75.240486 48.025940,75.412552 48.018776,75.843475 
	C47.175030,75.997414 46.343956,75.892502 45.232849,75.645935 
	C45.082935,74.787758 45.509949,74.469566 46.684929,74.655327 
z"/>
<path fill="#4068A3" opacity="1.000000" stroke="none" 
	d="
M49.150826,74.597649 
	C49.046066,74.285355 49.218525,74.123283 49.638306,74.010590 
	C49.851162,74.340851 49.698635,74.570152 49.150826,74.597649 
z"/>
<path fill="#E0DDD9" opacity="1.000000" stroke="none" 
	d="
M72.360580,121.867584 
	C71.301430,122.004776 70.545860,122.006050 69.413406,122.008881 
	C68.135780,118.950935 70.579437,117.009293 71.767914,114.288651 
	C72.011284,114.010521 72.000000,114.000000 72.005859,114.005394 
	C72.768654,113.312355 73.317909,112.456100 74.014206,111.320015 
	C74.505020,110.497856 74.846992,109.952431 75.413544,109.147888 
	C75.809166,108.739555 75.993126,108.598442 76.501190,108.317940 
	C77.291817,108.055733 77.766563,107.986191 78.619164,107.972427 
	C80.705986,108.235336 81.771049,109.099632 81.742859,111.324722 
	C80.382263,114.058464 79.540894,116.687439 77.316498,118.849686 
	C75.896645,120.462372 74.280167,121.096642 72.360580,121.867584 
z"/>
<path fill="#C9C3BF" opacity="1.000000" stroke="none" 
	d="
M80.994553,112.308914 
	C81.121613,110.261604 80.761269,108.951088 78.314392,108.878662 
	C77.618599,108.468254 77.410309,108.041397 77.306252,107.204552 
	C77.540016,105.845032 78.150185,105.145088 79.347809,104.535606 
	C79.904495,104.419655 80.131775,104.413307 80.684547,104.490082 
	C82.082153,105.278175 83.207405,105.892159 84.560745,106.728455 
	C85.048637,107.642426 85.305191,108.339645 85.818466,109.314903 
	C86.887863,110.444077 86.918053,111.398369 86.195625,112.707054 
	C85.514801,112.996513 85.086098,112.997566 84.335846,112.998276 
	C83.800293,113.234512 83.567375,113.450729 83.160408,113.827698 
	C83.005257,114.008812 83.002335,114.001503 83.006607,114.007675 
	C81.756142,114.429344 81.403336,113.526344 80.994553,112.308914 
z"/>
<path fill="#BBB7B4" opacity="1.000000" stroke="none" 
	d="
M80.662086,112.126770 
	C81.479485,112.538490 81.997307,113.116226 82.763000,113.853897 
	C82.349854,117.172661 81.904465,120.557274 77.103752,119.249969 
	C78.318962,116.859787 78.208626,114.001060 80.662086,112.126770 
z"/>
<path fill="#D8D7D4" opacity="1.000000" stroke="none" 
	d="
M86.299393,113.003365 
	C85.983376,112.084427 86.023239,111.173409 86.069153,109.927658 
	C86.508209,109.484100 86.941231,109.375259 87.672333,109.114075 
	C88.793388,109.198921 89.616356,109.436111 90.709396,109.858765 
	C90.833565,111.209595 90.687668,112.374954 90.267632,113.765228 
	C88.880760,113.663857 87.768021,113.337570 86.299393,113.003365 
z"/>
<path fill="#C0BBBC" opacity="1.000000" stroke="none" 
	d="
M85.992661,122.666031 
	C84.933502,123.026924 83.868866,123.036018 82.405045,123.047371 
	C82.126953,121.212105 83.362404,120.448730 84.949783,120.418953 
	C86.032410,120.398636 85.887123,121.533806 85.992661,122.666031 
z"/>
<path fill="#BBB7B4" opacity="1.000000" stroke="none" 
	d="
M90.062950,115.003296 
	C89.951599,114.974686 89.905090,115.971565 89.824059,114.987198 
	C89.975121,114.905350 90.025253,114.979317 90.062950,115.003296 
z"/>
<path fill="#BBB7B4" opacity="1.000000" stroke="none" 
	d="
M83.228699,113.902992 
	C83.100548,113.678253 83.287979,113.412750 83.790939,113.105118 
	C83.910629,113.323242 83.723236,113.589653 83.228699,113.902992 
z"/>
<path fill="#1E68B2" opacity="1.000000" stroke="none" 
	d="
M62.156776,55.513435 
	C66.910027,54.299259 70.154686,49.881935 75.600540,49.949623 
	C77.648079,53.395218 74.237450,53.804924 72.665558,55.425514 
	C74.943390,56.095516 77.339478,55.340034 79.815964,56.471180 
	C81.278496,57.947979 82.313896,59.306763 82.460831,61.458740 
	C80.973511,63.517963 78.432022,63.285965 76.719559,65.166702 
	C75.414253,65.983223 74.224953,66.124336 72.826950,66.722672 
	C72.082077,67.096611 71.641266,67.282562 70.831245,67.514145 
	C69.978516,67.562843 69.513062,67.440453 68.821045,66.945152 
	C67.318001,63.986137 64.818153,64.450706 62.534256,64.213631 
	C60.405441,63.992664 57.904633,63.963409 58.766289,60.313354 
	C60.051983,58.663780 62.181698,58.082146 62.156776,55.513435 
z"/>
<path fill="#2873B1" opacity="1.000000" stroke="none" 
	d="
M54.061394,71.062531 
	C53.322296,71.040054 52.563568,70.993202 51.426605,70.953461 
	C48.974682,71.304947 46.900997,71.649315 44.437134,71.993240 
	C44.055389,69.896629 45.411530,68.857178 47.436729,68.038651 
	C48.327549,67.613350 48.990608,67.528198 49.913818,67.199539 
	C50.201546,67.037605 50.523617,67.029793 50.684689,67.027618 
	C54.917515,65.399651 58.779026,62.075863 63.603344,65.866608 
	C63.743793,66.552467 63.752262,66.833916 63.656891,67.522583 
	C61.359638,71.469887 57.767593,70.250412 54.318798,70.823265 
	C54.014511,71.092613 54.041763,71.038170 54.061394,71.062531 
z"/>
<path fill="#14518B" opacity="1.000000" stroke="none" 
	d="
M63.151329,67.225121 
	C62.276340,63.841629 60.052513,65.068748 58.305954,65.450294 
	C56.095551,65.933151 54.050247,67.121735 51.269882,67.024536 
	C53.044930,64.400414 55.103706,61.625011 58.642761,60.049210 
	C59.436012,65.342369 63.485695,62.349796 65.894119,62.876503 
	C67.945923,63.325218 70.670341,62.492329 68.971634,66.895729 
	C68.728073,67.765419 68.600838,67.944496 68.209824,68.322250 
	C67.742416,68.604988 67.538788,68.689064 67.011978,68.842766 
	C66.025391,68.980515 65.371765,68.925362 64.426086,68.626343 
	C63.773071,68.226288 63.514637,67.887550 63.151329,67.225121 
z"/>
<path fill="#14518B" opacity="1.000000" stroke="none" 
	d="
M49.854939,67.031174 
	C49.621391,67.357506 49.041241,67.677414 48.112244,67.994217 
	C48.345043,67.668991 48.926689,67.346870 49.854939,67.031174 
z"/>
<path fill="#767084" opacity="1.000000" stroke="none" 
	d="
M102.599426,39.001541 
	C104.035172,39.694630 104.650452,41.638023 106.731705,40.074245 
	C107.223969,39.958332 107.438324,39.985249 107.972382,40.065063 
	C108.689598,42.534962 110.138054,43.939499 112.736214,44.706749 
	C113.548347,45.459301 114.113358,45.979630 114.840500,46.744160 
	C114.332069,48.053963 114.082520,49.463238 112.313751,49.938030 
	C107.142433,48.256813 102.196022,46.749580 97.433136,43.917519 
	C96.717743,43.539795 96.548302,43.117531 96.753059,42.327320 
	C96.967751,41.589901 96.985168,41.149418 97.005936,40.379333 
	C98.745132,39.703819 100.480965,39.357910 102.599426,39.001541 
z"/>
<path fill="#31272D" opacity="1.000000" stroke="none" 
	d="
M113.156906,44.697800 
	C110.625496,44.419468 106.094315,46.459152 108.198395,40.456924 
	C108.986954,40.006729 109.681831,39.895500 110.723785,39.712173 
	C111.070869,39.640079 111.497665,39.626476 111.704262,39.680382 
	C113.211243,40.220543 114.517403,40.699841 115.039917,42.570225 
	C114.536003,43.416203 113.933243,43.936417 113.156906,44.697800 
z"/>
<path fill="#767084" opacity="1.000000" stroke="none" 
	d="
M111.843140,39.609627 
	C111.910858,39.734283 111.480125,39.779724 111.275497,39.709900 
	C111.266365,39.352997 111.501221,39.301292 111.843140,39.609627 
z"/>
<path fill="#C89160" opacity="1.000000" stroke="none" 
	d="
M101.323860,80.449707 
	C101.058426,80.934082 101.036469,81.123184 101.000366,81.597488 
	C100.288536,82.388512 99.629997,82.098625 98.670044,81.598862 
	C93.291458,78.866394 88.227577,76.481651 82.398712,79.297951 
	C80.330696,80.297134 78.604622,78.807930 76.531540,77.846321 
	C75.304535,77.005226 74.886658,75.940140 74.055130,74.784760 
	C73.801010,74.310539 73.721741,74.109993 73.651634,73.588547 
	C73.862411,72.882133 74.175774,72.675308 74.600044,72.551323 
	C75.238487,72.364754 74.431870,72.835320 75.022606,72.526749 
	C75.152679,72.458809 75.037071,72.472534 74.302238,72.370270 
	C73.836510,72.129150 73.684044,71.970261 73.405685,71.500641 
	C73.203552,70.736229 73.208443,70.282463 73.400177,69.496918 
	C73.674805,68.982063 73.827438,68.798912 74.296692,68.442902 
	C75.571198,67.948250 76.525864,67.991211 77.803490,68.462936 
	C78.686714,69.114182 79.067261,69.722290 79.471069,70.721931 
	C79.919418,71.949196 78.982170,73.074524 80.003960,73.806267 
	C80.414871,74.100533 81.060616,73.930351 81.273193,73.462372 
	C81.580315,72.786232 80.935089,72.287735 80.606087,71.391891 
	C80.571869,70.614197 80.718956,70.202576 81.250679,69.632225 
	C82.581749,68.776253 84.069328,68.969810 85.071754,67.509201 
	C85.430061,67.087654 85.587029,66.927223 86.040939,66.598145 
	C88.765976,66.150902 90.993828,67.310387 93.516724,67.152725 
	C96.912338,66.940521 98.404808,69.919945 97.278419,72.519547 
	C95.813866,75.899597 97.895493,75.570976 100.057549,76.122238 
	C100.615921,76.370285 100.827942,76.498802 101.278351,76.917892 
	C101.973251,78.182899 101.990387,79.164886 101.323860,80.449707 
z"/>
<path fill="#BB7640" opacity="1.000000" stroke="none" 
	d="
M103.849037,50.315651 
	C107.769470,49.996983 111.574371,50.015873 112.021652,55.626648 
	C112.035583,56.016853 112.039993,56.025524 112.040955,56.034088 
	C111.707283,62.327019 108.083939,67.666077 106.969475,73.724983 
	C106.944366,73.861519 107.076851,74.027046 107.236259,74.505562 
	C107.361328,75.059082 107.385956,75.286087 107.258484,75.819969 
	C107.102226,76.548065 107.098068,76.969292 107.077103,77.706017 
	C105.132530,79.253036 103.386749,78.500481 101.337265,77.272636 
	C101.013245,77.018951 100.995125,77.002831 100.985825,76.995041 
	C97.624016,74.145981 96.768784,67.686623 99.741745,65.166061 
	C101.808327,65.355507 102.659943,64.218529 103.623169,62.680683 
	C105.775826,60.774090 105.786591,58.458153 106.014038,55.875595 
	C106.698669,53.246700 104.061279,52.477901 103.849037,50.315651 
z"/>
<path fill="#D0BEA9" opacity="1.000000" stroke="none" 
	d="
M98.627853,80.886429 
	C99.493240,81.194115 99.983948,81.441406 100.730438,81.785698 
	C101.746223,83.245430 103.075684,82.904884 104.638847,82.993057 
	C104.746048,83.485680 104.480782,83.964592 104.102158,84.693665 
	C100.671700,85.983170 97.289246,86.432755 93.888161,85.557297 
	C92.174149,85.116112 90.633865,85.418961 88.712555,85.997009 
	C86.160080,86.390564 83.843430,85.447510 81.369827,86.725632 
	C80.348732,86.995354 79.650078,87.010422 78.600113,86.906143 
	C76.313988,86.194374 74.739571,86.999359 73.218712,88.082565 
	C71.880508,89.035660 70.562637,90.083313 68.416573,89.479416 
	C67.968323,89.122635 67.837563,88.924789 67.815498,88.388229 
	C67.817787,85.725761 72.642128,85.722549 70.283524,82.234131 
	C69.814316,80.413177 71.030594,80.375130 72.456963,80.133270 
	C76.675827,81.027229 80.423187,79.906563 84.195374,79.644737 
	C88.960815,79.313965 93.708733,78.718391 98.627853,80.886429 
z"/>
<path fill="#C18555" opacity="1.000000" stroke="none" 
	d="
M107.285324,74.967491 
	C104.797752,74.731262 105.033966,73.509483 105.549911,71.839828 
	C107.092316,66.848389 111.706230,62.653988 109.625908,56.664619 
	C109.618713,56.643913 110.709526,56.241837 111.664719,56.030266 
	C114.153191,61.969826 112.162392,67.629684 110.940147,73.346596 
	C110.685257,74.538849 109.905083,74.911102 108.472000,75.091507 
	C107.909050,75.070763 107.735336,75.007637 107.285324,74.967491 
z"/>
<path fill="#AD7A54" opacity="1.000000" stroke="none" 
	d="
M101.013672,77.395187 
	C102.860870,76.806305 104.589592,77.283524 106.674858,77.974930 
	C106.316238,80.819847 103.812088,80.394943 101.444992,80.816864 
	C101.058281,79.753799 101.036186,78.762611 101.013672,77.395187 
z"/>
<path fill="#AD7A54" opacity="1.000000" stroke="none" 
	d="
M107.022156,75.275528 
	C107.226891,74.607986 107.462601,74.295319 107.990295,74.948593 
	C107.953369,75.429512 107.762054,75.677315 107.307602,76.002075 
	C107.082672,75.938087 107.058968,75.749336 107.022156,75.275528 
z"/>
<path fill="#105DAE" opacity="1.000000" stroke="none" 
	d="
M80.404953,57.174355 
	C77.102943,57.025589 74.152931,57.007416 71.203323,56.962681 
	C70.353058,56.949787 69.478828,56.749817 69.312660,55.779076 
	C69.086761,54.459324 70.039207,54.073723 71.098572,54.062771 
	C73.497475,54.037964 75.179710,53.063698 75.957588,50.326080 
	C75.993835,49.952034 76.490158,49.935917 76.738434,49.933685 
	C79.235359,50.593353 80.691040,52.572098 83.068192,53.690796 
	C83.523857,54.385307 83.601486,54.852863 83.457443,55.687328 
	C82.681458,56.872578 81.787750,57.224049 80.404953,57.174355 
z"/>
<path fill="#527CC0" opacity="1.000000" stroke="none" 
	d="
M83.847672,48.321617 
	C84.900078,48.029938 85.701408,48.015938 86.898720,47.939888 
	C87.475723,47.750820 87.656754,47.623798 88.167816,47.444016 
	C88.721214,47.413742 88.944572,47.436234 89.495041,47.544678 
	C91.356140,48.161613 92.855560,48.740200 93.694763,50.708168 
	C93.856010,51.526253 93.847832,52.004280 93.694244,52.837471 
	C93.331795,53.889923 92.940247,54.513054 92.152710,55.301426 
	C90.937904,55.987011 89.978088,56.049030 88.661430,55.674057 
	C87.174812,54.306400 87.327766,52.001347 84.827911,51.431519 
	C83.798241,50.505249 83.349533,49.675186 83.847672,48.321617 
z"/>
<path fill="#276BB6" opacity="1.000000" stroke="none" 
	d="
M83.701019,48.022850 
	C84.328369,48.821075 84.558006,49.598213 84.909836,50.662632 
	C85.692604,52.424850 84.636322,53.087986 83.339684,53.885536 
	C80.181602,54.358734 78.779877,52.375954 77.131310,50.248161 
	C78.855095,48.511944 80.995071,47.981457 83.701019,48.022850 
z"/>
<path fill="#865430" opacity="1.000000" stroke="none" 
	d="
M88.161331,47.778450 
	C87.898880,47.941090 87.598068,47.870369 87.446381,47.874104 
	C87.294693,47.877838 87.190842,47.389027 87.146355,47.142235 
	C87.091202,46.471821 87.080536,46.048206 87.066055,45.305885 
	C89.284096,41.181774 91.958023,42.173981 94.876556,44.623867 
	C94.843643,45.550133 94.669579,46.116688 94.243439,46.851570 
	C93.107002,47.951237 91.970390,47.551235 90.604080,47.639900 
	C89.665070,47.722607 89.050049,47.500038 88.161331,47.778450 
z"/>
<path fill="#A3591E" opacity="1.000000" stroke="none" 
	d="
M103.620163,49.861420 
	C104.228035,52.233196 108.197220,51.629562 107.245377,54.813251 
	C105.908638,56.198536 104.654427,57.042244 102.544647,56.701271 
	C100.651451,55.821255 99.869240,54.536041 99.671005,52.503189 
	C99.985252,49.931793 100.513443,48.149555 103.620163,49.861420 
z"/>
<path fill="#86584F" opacity="1.000000" stroke="none" 
	d="
M95.326050,44.964035 
	C92.602821,43.894596 90.203110,41.713303 87.395660,44.934761 
	C85.529678,42.706257 87.242279,42.217407 88.861252,42.089794 
	C91.249146,41.901577 93.661705,42.026245 96.507050,42.024017 
	C96.976021,42.444504 97.001694,42.858624 97.045769,43.581894 
	C96.587578,44.242195 96.110992,44.593346 95.326050,44.964035 
z"/>
<path fill="#767084" opacity="1.000000" stroke="none" 
	d="
M99.427109,52.094398 
	C100.431534,53.223698 101.134308,54.330173 102.012329,55.712658 
	C102.780426,56.875034 102.866753,57.782513 102.025108,58.949047 
	C101.273605,59.288296 100.817535,59.242130 100.111244,58.795532 
	C99.375099,58.074123 99.045876,57.479790 98.571762,56.589436 
	C98.126038,55.717922 97.872398,55.119446 97.527298,54.210213 
	C97.368225,53.472691 97.395477,53.049217 97.718277,52.378132 
	C98.316650,52.105755 98.721054,52.088665 99.427109,52.094398 
z"/>
<path fill="#1F60AD" opacity="1.000000" stroke="none" 
	d="
M97.706619,52.038528 
	C97.951904,52.547668 97.991562,52.972488 98.048607,53.717804 
	C96.413666,55.341637 94.918678,54.777821 93.236122,53.299561 
	C93.000587,52.514912 93.000053,52.081791 93.013626,51.324120 
	C93.413033,50.605972 93.879166,50.441654 94.778671,50.669060 
	C95.131218,50.831501 95.524185,50.957062 95.724892,51.004627 
	C96.105865,51.196415 96.286133,51.340633 96.776779,51.638382 
	C97.087173,51.791912 97.500984,51.954208 97.706619,52.038528 
z"/>
<path fill="#767084" opacity="1.000000" stroke="none" 
	d="
M95.080521,50.527367 
	C94.664612,50.886150 94.197998,50.940796 93.379562,50.997505 
	C92.409462,49.159592 90.578125,49.157722 88.943527,48.242413 
	C88.910706,47.868111 89.132378,47.723518 89.745132,47.510330 
	C91.198257,47.029087 92.224892,47.492603 93.596542,47.790321 
	C94.293861,48.749325 94.661842,49.486279 95.080521,50.527367 
z"/>
<path fill="#86584F" opacity="1.000000" stroke="none" 
	d="
M93.953033,47.764965 
	C92.839752,47.968899 91.753624,47.925430 90.268570,47.558784 
	C90.869164,45.380020 92.152176,46.844860 93.654854,46.980537 
	C93.991364,47.019905 93.980179,47.517559 93.953033,47.764965 
z"/>
<path fill="#767084" opacity="1.000000" stroke="none" 
	d="
M96.954971,51.586685 
	C96.728058,51.852974 96.425499,51.749191 96.052551,51.266380 
	C96.274681,51.025810 96.573738,51.135567 96.954971,51.586685 
z"/>
<path fill="#6E5E5D" opacity="1.000000" stroke="none" 
	d="
M80.222000,104.731064 
	C79.460129,105.398026 78.867134,105.922798 78.128853,106.706024 
	C77.525093,107.567749 77.180649,108.274918 76.246071,108.830551 
	C76.033463,109.022987 75.933716,108.980782 75.890244,108.948502 
	C74.918556,109.623062 74.190872,109.317711 73.551826,108.014175 
	C73.715889,106.918190 73.899658,106.273514 74.176567,105.306824 
	C74.464989,104.217361 74.959587,103.627502 75.629425,102.818893 
	C76.267838,102.255905 76.760841,101.970268 77.388290,101.403580 
	C78.107651,99.845474 76.912483,99.478905 75.977112,98.612228 
	C74.810188,97.452202 73.841614,96.565338 72.600891,95.468086 
	C71.596596,94.123543 71.503296,93.043312 72.710693,91.758530 
	C73.460915,91.362152 73.938034,91.298447 74.761414,91.483673 
	C75.845222,94.901665 78.091270,96.775497 81.360718,98.015182 
	C82.746231,99.441826 83.796173,100.862411 84.978226,102.586990 
	C85.110336,102.890984 84.985748,103.001389 84.922379,103.055344 
	C84.146370,103.551598 83.392723,103.887527 82.252983,104.011292 
	C81.604385,103.990410 81.255608,103.953499 80.737747,104.045906 
	C80.567665,104.184258 80.390884,104.588867 80.222000,104.731064 
z"/>
<path fill="#BBB7B4" opacity="1.000000" stroke="none" 
	d="
M71.679062,114.045547 
	C72.267815,116.890335 70.317642,118.951324 69.161575,121.681900 
	C69.036522,122.010429 68.961876,122.465416 68.918610,122.691147 
	C65.284012,121.384636 67.495361,118.947678 67.961395,116.412979 
	C69.572235,116.162010 70.020584,114.370895 71.679062,114.045547 
z"/>
<path fill="#847D7D" opacity="1.000000" stroke="none" 
	d="
M73.271805,107.742294 
	C74.071808,107.989616 74.611488,108.416359 75.498970,108.879662 
	C75.766289,109.534050 75.685806,110.151878 75.346405,110.958984 
	C74.339050,111.639122 73.538353,111.909958 72.225327,111.580803 
	C70.081345,109.534958 72.068611,108.905746 73.271805,107.742294 
z"/>
<path fill="#BBB7B4" opacity="1.000000" stroke="none" 
	d="
M71.856285,111.748825 
	C72.634384,111.314087 73.449112,111.198296 74.675659,111.115372 
	C74.923080,112.634842 74.212563,113.664505 72.350594,114.012527 
	C71.972115,113.363121 71.932510,112.715446 71.856285,111.748825 
z"/>
<path fill="#847D7D" opacity="1.000000" stroke="none" 
	d="
M75.717392,102.827606 
	C75.911888,103.904625 75.755524,104.645370 74.559052,104.962479 
	C73.896301,104.723282 73.522888,104.461746 73.032242,103.872673 
	C72.914993,103.545135 72.743027,103.200226 72.807922,103.018784 
	C73.265434,102.584000 73.689255,102.401581 74.488892,102.293625 
	C75.054741,102.392754 75.271507,102.478203 75.717392,102.827606 
z"/>
<path fill="#D8D7D4" opacity="1.000000" stroke="none" 
	d="
M87.764214,85.262146 
	C93.073105,82.902046 98.167221,85.326820 103.611641,84.915543 
	C104.255814,85.151985 104.522835,85.360130 104.909241,85.795555 
	C103.699753,89.209633 99.966621,89.719093 97.996254,92.604462 
	C95.581848,92.951607 93.240211,92.966873 90.458252,92.985046 
	C88.629784,92.985077 87.241638,92.982208 85.437561,92.973587 
	C84.076042,91.979340 82.450409,91.550758 82.471855,89.457642 
	C83.530060,86.999969 85.724052,86.530876 87.764214,85.262146 
z"/>
<path fill="#C9C3BF" opacity="1.000000" stroke="none" 
	d="
M75.188293,91.434410 
	C74.640503,91.786667 74.187225,91.936668 73.391579,92.187546 
	C71.983749,92.578659 70.953827,93.088356 69.399750,92.674133 
	C67.993690,91.856857 67.415047,90.965149 67.804283,89.340927 
	C70.051888,89.291794 71.308823,88.023514 72.748489,86.894913 
	C74.091537,85.842064 75.536316,84.466026 77.783554,85.742767 
	C78.649635,87.827682 77.338318,88.946045 76.242157,90.456924 
	C75.713760,90.813904 75.477997,90.996910 75.188293,91.434410 
z"/>
<path fill="#C4C2C2" opacity="1.000000" stroke="none" 
	d="
M76.210777,90.759476 
	C75.766685,88.990929 76.693802,87.782898 77.850449,86.310013 
	C78.747269,86.007629 79.497894,86.005180 80.623756,86.004707 
	C81.865837,86.681854 82.945251,87.156059 83.120239,88.687569 
	C82.847412,90.564507 84.585892,91.034653 84.969749,92.642395 
	C82.659958,93.278679 80.496925,92.928284 78.420860,91.018028 
	C77.864174,91.086273 77.666618,91.229355 77.179398,91.148918 
	C76.889732,90.925400 76.431435,90.835808 76.210777,90.759476 
z"/>
<path fill="#A29A9B" opacity="1.000000" stroke="none" 
	d="
M77.002075,91.108475 
	C77.084892,90.921806 77.280052,90.918221 77.768463,90.928909 
	C77.840202,91.315605 77.633904,91.729408 77.002075,91.108475 
z"/>
<path fill="#90B2D6" opacity="1.000000" stroke="none" 
	d="
M38.712723,76.786331 
	C38.983658,77.941986 38.965069,79.016914 38.962910,80.490494 
	C38.556797,80.909645 38.134258,80.930161 37.393982,80.955780 
	C37.076248,80.960899 36.693386,80.639336 36.496033,80.486359 
	C35.962582,80.184418 35.616829,80.177277 34.979469,80.347610 
	C34.278755,80.470612 33.872856,80.556290 33.230293,80.895111 
	C32.076611,82.200760 30.832918,81.958252 29.283081,81.912453 
	C30.351080,78.472572 33.923386,78.591385 36.910110,77.004623 
	C37.629391,76.764221 38.026295,76.734917 38.712723,76.786331 
z"/>
<path fill="#A29A9B" opacity="1.000000" stroke="none" 
	d="
M95.746643,118.143806 
	C95.859505,118.570145 95.703026,119.146042 95.275345,119.868774 
	C95.161858,119.441528 95.319572,118.867439 95.746643,118.143806 
z"/>
<path fill="#A29A9B" opacity="1.000000" stroke="none" 
	d="
M94.999817,120.737762 
	C94.636459,120.883392 94.370125,120.695312 94.050858,120.196075 
	C94.114632,119.964012 94.295525,119.952187 94.746399,119.972778 
	C95.016373,120.005203 95.032646,120.494957 94.999817,120.737762 
z"/>
<path fill="#C2C2C4" opacity="1.000000" stroke="none" 
	d="
M36.718460,79.812897 
	C37.042244,80.038460 37.068066,80.499779 37.072159,80.730339 
	C35.984436,80.988274 34.892628,81.015656 33.393574,81.077560 
	C33.434586,80.752602 33.882839,80.393127 34.635948,80.015358 
	C35.359772,79.627533 35.844460,79.491180 36.718460,79.812897 
z"/>
<path fill="#5C5366" opacity="1.000000" stroke="none" 
	d="
M80.648712,103.252930 
	C81.981430,103.053391 83.031555,103.045113 84.470337,103.073059 
	C84.625565,103.582146 84.392128,104.055008 84.059509,104.775970 
	C83.339302,105.629517 82.599884,105.772514 81.423325,105.401077 
	C80.905518,105.149033 80.739815,105.079330 80.313614,104.941437 
	C80.053116,104.873253 80.052193,104.461433 80.051636,104.255524 
	C80.156090,103.847809 80.261101,103.645996 80.648712,103.252930 
z"/>
<path fill="#E0DDD9" opacity="1.000000" stroke="none" 
	d="
M81.132828,105.547974 
	C81.791344,105.143822 82.511475,105.068909 83.595978,105.009041 
	C84.234673,105.485641 84.509003,105.947197 84.787712,106.676971 
	C83.535675,106.781898 81.983543,107.614754 81.132828,105.547974 
z"/>
<path fill="#A29A9B" opacity="1.000000" stroke="none" 
	d="
M72.622612,94.767929 
	C74.120689,95.599777 75.527512,95.836395 75.979141,97.638023 
	C76.146927,98.136787 76.289505,98.312325 76.427597,98.828934 
	C76.240135,99.843788 75.907448,100.437447 75.185776,101.177650 
	C74.465904,101.521988 74.017937,101.537590 73.328110,101.167892 
	C72.270172,100.500237 71.451263,100.077545 70.310684,99.502655 
	C69.989029,99.350464 70.044067,99.040138 70.010117,98.884186 
	C69.666656,97.724365 69.357162,96.720505 69.013245,95.395264 
	C69.925713,94.039948 71.040436,94.042267 72.622612,94.767929 
z"/>
<path fill="#9C938F" opacity="1.000000" stroke="none" 
	d="
M67.991745,88.750137 
	C68.278656,89.756721 68.532448,90.530914 68.909615,91.590950 
	C69.530800,92.668365 69.124130,93.246101 68.234459,93.920654 
	C66.207413,93.972824 65.245316,92.819962 64.151886,91.368042 
	C64.330742,89.980659 64.653427,88.873657 64.962463,87.419685 
	C65.750458,87.303848 66.552086,87.534966 67.638954,87.907806 
	C67.924187,88.049515 67.958633,88.517738 67.991745,88.750137 
z"/>
<path fill="#847D7D" opacity="1.000000" stroke="none" 
	d="
M68.023605,94.266098 
	C68.197174,93.518028 68.505768,92.986168 68.923676,92.165543 
	C70.110703,91.939377 71.188423,92.001968 72.657669,92.176483 
	C72.605026,92.996315 72.197098,93.707802 72.918457,94.755852 
	C71.934059,95.000214 70.859299,95.010849 69.381683,95.047684 
	C68.705429,94.876701 68.432030,94.679504 68.023605,94.266098 
z"/>
<path fill="#C19163" opacity="1.000000" stroke="none" 
	d="
M73.265587,80.719604 
	C72.139595,81.148300 71.282448,81.316643 70.220047,81.743973 
	C69.261971,81.987091 68.509148,81.971237 67.380142,81.946457 
	C65.897331,81.777657 65.141556,81.122124 64.426682,79.849792 
	C63.948322,76.961853 65.614395,75.135689 66.815216,72.764931 
	C69.076332,71.500000 71.092949,70.756241 73.671143,71.763947 
	C74.001137,72.004219 74.000000,72.000000 73.997894,71.999390 
	C74.171913,72.161789 74.348022,72.324799 74.264183,72.736816 
	C74.003601,73.155182 74.002960,73.324539 74.001358,73.747948 
	C74.199303,74.947197 74.262672,75.903641 74.236298,77.233963 
	C74.184105,78.598236 74.037506,79.572403 73.265587,80.719604 
z"/>
<path fill="#AD7242" opacity="1.000000" stroke="none" 
	d="
M60.467911,81.882355 
	C56.440514,79.251717 57.007160,75.673218 58.023773,71.607239 
	C59.493828,69.904114 61.084270,69.312073 63.219784,70.649887 
	C64.720306,73.394821 64.018204,75.859207 63.465714,78.686195 
	C63.374741,79.770973 63.307545,80.490326 62.826508,81.466187 
	C62.011780,81.796768 61.393303,81.829018 60.467911,81.882355 
z"/>
<path fill="#C7A37D" opacity="1.000000" stroke="none" 
	d="
M62.987579,81.850548 
	C62.470505,81.333221 62.310757,80.901924 62.080654,80.245720 
	C62.699791,79.395203 63.487202,79.254951 64.704315,79.794289 
	C65.619362,80.506035 66.191795,80.969917 66.884094,81.685669 
	C65.783806,83.731750 64.564606,81.885086 62.987579,81.850548 
z"/>
<path fill="#4068A3" opacity="1.000000" stroke="none" 
	d="
M46.885094,74.575653 
	C46.643799,74.907837 46.151505,75.054626 45.306015,75.352859 
	C44.952816,75.504295 44.509663,75.470108 44.302071,75.390503 
	C44.600239,74.063957 45.530621,73.988365 46.885094,74.575653 
z"/>
<path fill="#4B5765" opacity="1.000000" stroke="none" 
	d="
M63.111546,71.101517 
	C61.456257,69.904381 60.093655,71.102737 58.341030,71.139526 
	C56.956909,71.195030 55.885994,71.173904 54.414795,71.122696 
	C56.338638,69.105339 59.754391,70.234131 62.383057,68.068588 
	C62.913708,67.773003 63.146305,67.674171 63.715858,67.749023 
	C64.861961,67.966873 65.671120,68.011040 66.876526,68.140327 
	C67.073593,69.829819 65.723793,70.398636 64.288933,71.306808 
	C63.735359,71.423424 63.504951,71.414986 63.111546,71.101517 
z"/>
<path fill="#5C5366" opacity="1.000000" stroke="none" 
	d="
M73.070206,101.244446 
	C73.463860,100.906204 73.838638,100.889473 74.494667,100.858749 
	C75.232536,101.140327 75.459259,101.560089 75.305710,102.451408 
	C74.648018,102.850113 74.140831,102.901382 73.253235,102.894997 
	C72.932320,102.413544 72.991829,101.989754 73.070206,101.244446 
z"/>
<path fill="#BBB7B4" opacity="1.000000" stroke="none" 
	d="
M76.352509,109.003059 
	C76.499405,108.417206 76.965355,107.811432 77.707428,107.085068 
	C77.979378,107.382515 77.975182,107.800545 77.955109,108.528549 
	C77.516670,108.886719 77.094116,108.934929 76.352509,109.003059 
z"/>
<path fill="#4068A3" opacity="1.000000" stroke="none" 
	d="
M80.048691,57.418564 
	C80.830460,56.729641 81.608116,56.405418 82.703148,56.053375 
	C83.780548,55.246464 84.716599,54.998737 86.130798,55.197510 
	C86.703545,55.388203 86.918327,55.495174 87.385071,55.849842 
	C88.844223,56.622360 87.678177,58.848679 89.906258,58.738056 
	C90.421432,58.640865 90.642517,58.658024 91.156342,58.857719 
	C91.935577,59.600567 92.231583,60.251831 92.346100,61.359062 
	C91.484978,63.792515 89.667664,64.068474 87.398628,64.263741 
	C85.382744,64.231110 83.771370,64.160690 82.302841,62.584641 
	C82.270866,60.359177 79.761467,59.714115 80.048691,57.418564 
z"/>
<path fill="#31384C" opacity="1.000000" stroke="none" 
	d="
M81.700958,62.222500 
	C83.607643,62.537666 85.118675,62.835426 87.021538,63.195599 
	C87.910980,64.594582 87.375458,65.613838 86.122406,66.715843 
	C85.828125,66.928581 85.688110,67.142578 85.752838,67.252853 
	C85.674515,68.806313 84.539772,68.785103 83.126419,68.923126 
	C80.515274,68.598656 78.132072,69.148499 75.864609,67.422440 
	C75.421280,66.641724 75.374954,66.141731 75.653114,65.284966 
	C76.900139,62.524918 78.801170,61.761276 81.700958,62.222500 
z"/>
<path fill="#4B5765" opacity="1.000000" stroke="none" 
	d="
M75.484512,64.953018 
	C75.862335,65.407318 75.899529,65.872299 75.938690,66.687027 
	C75.637794,67.704323 75.022629,68.053551 74.211967,68.696999 
	C73.947327,68.920746 73.940369,68.962646 73.956970,68.975891 
	C72.493599,69.754608 71.089088,69.199516 69.362305,68.547470 
	C68.913017,68.141541 68.780312,67.931885 68.822815,67.393845 
	C68.998016,67.065475 69.012886,67.005013 69.003433,66.974701 
	C69.410378,66.940613 69.826775,66.936836 70.555496,66.927368 
	C71.177551,66.774658 71.442574,66.568802 71.838280,66.122147 
	C72.838745,64.915436 74.023468,65.043747 75.484512,64.953018 
z"/>
<path fill="#244B75" opacity="1.000000" stroke="none" 
	d="
M71.771225,66.038307 
	C71.801033,66.213654 71.594749,66.495514 71.128143,66.849533 
	C71.090248,66.662727 71.312691,66.403778 71.771225,66.038307 
z"/>
<path fill="#244B75" opacity="1.000000" stroke="none" 
	d="
M63.914665,67.714890 
	C63.824448,67.932808 63.596085,67.942909 63.024422,67.912415 
	C62.681114,67.871826 62.839233,67.436417 62.887402,67.209763 
	C63.215885,67.157761 63.496201,67.332420 63.914665,67.714890 
z"/>
<path fill="#C19F82" opacity="1.000000" stroke="none" 
	d="
M68.795517,67.806046 
	C70.464272,68.330818 72.015213,67.699326 73.642960,68.841415 
	C73.981308,69.742874 73.989052,70.496620 73.998962,71.627289 
	C71.924934,72.339188 69.848724,72.674164 67.371933,73.023491 
	C65.493507,73.410599 64.843346,72.337372 63.995758,71.065941 
	C64.869118,70.044792 65.860794,69.360039 67.062637,68.450363 
	C67.272789,68.225449 67.646355,68.170418 67.816467,68.088531 
	C68.168434,67.865196 68.350288,67.723763 68.795517,67.806046 
z"/>
<path fill="#244B75" opacity="1.000000" stroke="none" 
	d="
M69.039948,67.788925 
	C68.879601,68.055283 68.700310,68.080795 68.253799,68.056473 
	C68.082870,67.684151 68.270241,67.428421 68.773346,67.152466 
	C68.998016,67.065475 69.020996,67.548096 69.039948,67.788925 
z"/>
<path fill="#AD7A54" opacity="1.000000" stroke="none" 
	d="
M86.162811,66.957008 
	C86.260025,65.905739 86.691925,64.882904 87.268600,63.559040 
	C88.925690,62.957726 90.643623,63.186634 91.773911,61.284805 
	C94.099396,59.344414 96.732063,58.682938 99.592422,57.806381 
	C100.252434,58.043015 100.525520,58.231491 100.907562,58.667477 
	C101.174370,59.065422 101.305962,59.253899 101.397705,59.782463 
	C99.438469,61.898373 101.429115,63.673428 101.163315,65.713043 
	C100.000076,66.042625 98.957596,65.884193 98.297546,66.869797 
	C102.245438,69.245087 97.904160,73.691460 100.822906,76.674759 
	C98.336021,77.084839 95.756088,76.934242 93.154968,75.002068 
	C94.714722,73.620415 97.843269,73.369743 96.227234,70.017616 
	C94.797173,67.051247 92.729424,67.682487 90.936424,68.638542 
	C88.504074,69.935509 88.458641,66.108963 86.162811,66.957008 
z"/>
<path fill="#C7A37D" opacity="1.000000" stroke="none" 
	d="
M73.266258,81.269569 
	C73.003479,79.935448 73.010223,78.890953 73.012833,77.454422 
	C73.652679,76.435532 74.412163,76.278801 75.614807,76.725403 
	C79.322273,78.239845 82.540108,77.932922 86.041985,76.985252 
	C90.690002,75.727409 94.792114,78.297440 98.933197,80.590187 
	C98.352661,82.038139 96.855865,83.043648 96.191971,82.563751 
	C90.027977,78.108086 83.692787,81.749741 77.449799,81.885422 
	C76.148109,81.913696 74.840607,81.674904 73.266258,81.269569 
z"/>
<path fill="#C18555" opacity="1.000000" stroke="none" 
	d="
M80.686874,70.788979 
	C81.513878,72.349106 84.471176,71.756355 83.656685,73.834915 
	C82.918716,75.718155 80.306511,75.846443 78.993889,75.541740 
	C75.460915,74.721626 78.610573,73.013512 78.957191,71.332039 
	C79.401863,70.653748 79.862122,70.506317 80.686874,70.788979 
z"/>
<path fill="#AD7A54" opacity="1.000000" stroke="none" 
	d="
M74.351166,68.951645 
	C74.144127,68.120026 74.407928,67.373238 75.646729,67.105728 
	C77.790306,68.378944 79.743340,67.152077 81.887161,67.478867 
	C82.230881,67.958252 82.329849,68.224976 82.214363,68.861008 
	C80.927040,69.635498 79.855080,70.051659 78.346771,69.268265 
	C76.912209,69.014633 75.833611,68.998589 74.351166,68.951645 
z"/>
<path fill="#BB8551" opacity="1.000000" stroke="none" 
	d="
M75.967636,76.595573 
	C75.224747,76.972023 74.486275,77.000893 73.378250,77.046074 
	C73.162430,76.182152 73.316154,75.301918 73.735146,74.211838 
	C75.434502,74.068680 76.036110,74.866158 75.967636,76.595573 
z"/>
<path fill="#C7A37D" opacity="1.000000" stroke="none" 
	d="
M81.733673,69.243652 
	C82.009178,68.771545 82.031151,68.555969 82.092522,68.015961 
	C83.114632,67.602837 84.097351,67.514145 85.448822,67.394287 
	C86.153534,69.760788 84.653076,70.066566 82.413437,69.993881 
	C81.830917,69.829170 81.655533,69.664680 81.733673,69.243652 
z"/>
<path fill="#C19163" opacity="1.000000" stroke="none" 
	d="
M81.587921,68.990288 
	C81.992416,69.154861 81.997620,69.322617 82.004562,69.742012 
	C81.678505,70.099846 81.413132,70.292160 81.098328,70.793587 
	C80.546501,71.012764 80.106537,71.008957 79.336563,71.004501 
	C78.684464,70.542267 78.362381,70.080681 78.015556,69.324875 
	C79.056755,69.018265 80.122696,69.005867 81.587921,68.990288 
z"/>
<path fill="#C19F82" opacity="1.000000" stroke="none" 
	d="
M74.254654,72.971756 
	C74.004242,72.985817 74.002815,72.492287 73.999306,72.245529 
	C74.429962,72.161606 74.864128,72.324440 75.298286,72.487274 
	C75.033882,72.644089 74.769470,72.800896 74.254654,72.971756 
z"/>
<path fill="#AE622A" opacity="1.000000" stroke="none" 
	d="
M101.013527,60.334435 
	C100.976059,59.803795 100.988083,59.618843 101.021439,59.155418 
	C101.892387,58.359821 101.992119,57.505733 102.119278,56.310974 
	C103.556511,55.683750 104.925453,55.378830 106.652122,55.040039 
	C106.357231,57.666073 108.681496,61.171692 104.382629,62.959129 
	C102.081367,63.417583 101.773888,61.795052 101.013527,60.334435 
z"/>
<path fill="#BE732E" opacity="1.000000" stroke="none" 
	d="
M100.649185,60.130070 
	C102.301315,60.410870 102.756172,61.665977 103.742935,62.837307 
	C103.502502,64.456253 103.867340,66.562172 101.160263,66.214378 
	C101.294685,64.015533 94.796646,62.811504 100.649185,60.130070 
z"/>
<path fill="#C9C3BF" opacity="1.000000" stroke="none" 
	d="
M83.316170,88.865723 
	C82.359406,88.210876 81.715828,87.421059 81.035629,86.318970 
	C82.679977,83.124161 85.167374,85.288498 87.642708,85.017776 
	C87.701569,87.621254 85.124588,87.534081 83.316170,88.865723 
z"/>
<path fill="#1F60AD" opacity="1.000000" stroke="none" 
	d="
M87.241287,55.997383 
	C85.919304,56.057987 84.864777,56.041588 83.415390,56.025375 
	C83.013832,55.569077 83.007133,55.112595 82.997795,54.313400 
	C83.588547,53.150658 84.181938,52.330627 84.903687,51.230255 
	C86.987228,51.252201 90.182510,50.339581 88.253326,54.692345 
	C88.025490,55.398891 87.807541,55.689014 87.241287,55.997383 
z"/>
<path fill="#2276C8" opacity="1.000000" stroke="none" 
	d="
M92.752563,53.124268 
	C94.437981,53.305473 95.874847,53.662918 97.688850,54.029327 
	C98.401611,54.493263 98.737236,54.948223 99.111801,55.696266 
	C98.096321,58.233219 96.144852,58.188057 93.721161,57.831715 
	C92.515961,57.311718 92.023338,56.666031 91.839157,55.401726 
	C92.098450,54.425701 92.301231,53.863102 92.752563,53.124268 
z"/>
<path fill="#6792D3" opacity="1.000000" stroke="none" 
	d="
M91.520500,54.994511 
	C92.188965,55.493633 92.482254,55.998966 92.895477,56.769623 
	C93.791527,58.434143 93.268974,59.161880 91.426346,59.174133 
	C90.885773,58.935295 90.712891,58.919525 90.280304,58.884987 
	C89.048523,58.581287 88.440781,57.685635 87.288330,57.145012 
	C87.082954,56.931206 87.041321,56.500351 87.007584,56.287369 
	C87.200432,55.801662 87.427025,55.528938 87.901138,55.148041 
	C89.147545,55.026821 90.146431,55.013771 91.520500,54.994511 
z"/>
<path fill="#3C6094" opacity="1.000000" stroke="none" 
	d="
M89.590775,47.212833 
	C89.869637,47.235607 89.864250,47.532196 89.857597,47.678665 
	C89.658226,47.854660 89.465508,47.884186 88.980904,47.963211 
	C88.689026,48.012707 88.292580,48.004829 88.095734,47.972958 
	C88.369888,47.690746 88.840897,47.440403 89.590775,47.212833 
z"/>
<path fill="#527CC0" opacity="1.000000" stroke="none" 
	d="
M91.054581,59.243317 
	C91.942650,58.898357 92.726639,58.701092 92.970795,57.346992 
	C94.831032,56.904560 96.724617,57.331078 98.781021,56.134453 
	C99.410851,56.441971 99.670944,56.894600 99.942062,57.619904 
	C97.764603,59.483234 95.665649,61.284313 92.281662,60.975445 
	C91.609116,60.486046 91.329811,60.010807 91.054581,59.243317 
z"/>
<path fill="#C0BBBC" opacity="1.000000" stroke="none" 
	d="
M75.883888,99.480759 
	C75.955605,98.942528 75.978874,98.747200 76.003250,98.256561 
	C77.925980,98.560585 80.427353,98.719093 78.641518,101.825569 
	C76.881569,101.878380 76.208748,101.040382 75.883888,99.480759 
z"/>
<path fill="#31272D" opacity="1.000000" stroke="none" 
	d="
M75.660172,99.215637 
	C76.617767,99.844711 77.303192,100.551567 78.144508,101.515724 
	C77.749870,102.176720 77.199348,102.580429 76.297653,103.037842 
	C75.946495,103.091553 75.557999,102.924911 75.356598,102.861877 
	C75.082672,102.362801 75.010139,101.926758 74.856766,101.167740 
	C74.979950,100.327644 75.183983,99.810532 75.660172,99.215637 
z"/>
<path fill="#847D7D" opacity="1.000000" stroke="none" 
	d="
M80.700653,103.039505 
	C80.820343,103.346840 80.653244,103.594093 80.240547,103.926514 
	C79.282944,103.337135 79.663483,103.090805 80.700653,103.039505 
z"/>
<path fill="#CBD1DD" opacity="1.000000" stroke="none" 
	d="
M36.902077,79.795044 
	C36.575661,80.026833 36.109077,80.015198 35.291649,80.000320 
	C35.407043,79.272980 35.976669,78.971565 36.902077,79.795044 
z"/>
<path fill="#BB8551" opacity="1.000000" stroke="none" 
	d="
M63.644756,70.739967 
	C65.086716,70.891922 65.850037,71.652634 66.707184,72.839851 
	C67.877983,75.599617 65.160606,77.036240 65.040558,79.659714 
	C64.287170,80.042671 63.527416,80.043198 62.388981,80.032265 
	C62.079323,77.213264 63.530125,74.565987 62.962791,71.241379 
	C62.948551,70.796486 63.412083,70.750397 63.644756,70.739967 
z"/>
<path fill="#527CC0" opacity="1.000000" stroke="none" 
	d="
M87.180695,57.254517 
	C88.162163,57.054104 89.408737,56.808327 89.963364,58.539528 
	C89.583618,59.692860 89.146645,60.519501 88.541588,61.664101 
	C88.014832,59.960072 87.646629,58.768951 87.180695,57.254517 
z"/>
</svg>