<svg version="1.1" id="Layer_1" xmlns="http://www.w3.org/2000/svg" xmlns:xlink="http://www.w3.org/1999/xlink" x="0px" y="0px"
	 width="100%" viewBox="0 0 121 121" enable-background="new 0 0 121 121" xml:space="preserve">
<path fill="#FEFDFD" opacity="0.000000" stroke="none" 
	d="
M67.000000,122.000000 
	C44.666668,122.000000 22.833334,122.000000 1.000000,122.000000 
	C1.000000,81.666664 1.000000,41.333332 1.000000,1.000000 
	C41.333332,1.000000 81.666664,1.000000 122.000000,1.000000 
	C122.000000,41.333332 122.000000,81.666664 122.000000,122.000000 
	C103.833336,122.000000 85.666664,122.000000 67.000000,122.000000 
M46.698399,25.487221 
	C45.786175,24.997377 44.873947,24.507534 43.389214,23.791998 
	C42.581478,22.886366 41.773743,21.980734 40.890656,20.331629 
	C39.104546,19.629419 37.318439,18.927208 34.755219,18.187378 
	C24.826107,16.073479 18.020844,16.184206 10.862354,28.678116 
	C10.392426,29.740057 9.922497,30.801998 9.109570,32.526157 
	C9.131733,34.014229 9.153895,35.502296 8.994637,37.727177 
	C8.381107,39.323315 7.767579,40.919453 7.135070,42.564964 
	C8.381398,42.987072 9.694211,43.431694 11.660473,44.224571 
	C12.730828,47.157253 13.801183,50.089939 14.241631,53.403896 
	C14.992846,56.287613 15.744063,59.171329 16.685774,62.698959 
	C17.099031,63.156143 17.512289,63.613323 17.834118,64.102859 
	C17.834118,64.102859 17.794128,64.191223 17.730679,64.920761 
	C21.832279,69.618004 25.933880,74.315247 30.154512,79.643791 
	C31.386713,80.444473 32.618912,81.245155 33.859055,82.726913 
	C30.924822,84.834221 27.990589,86.941528 24.276297,89.024620 
	C21.683868,89.491974 19.091440,89.959328 16.848722,90.363632 
	C16.705647,92.653542 16.180828,94.629875 16.573538,96.403000 
	C17.058216,98.591354 18.305981,100.610703 20.018652,102.872902 
	C21.362753,102.813538 22.706854,102.754173 24.882221,102.827972 
	C34.943142,101.947365 45.004066,101.066757 55.753632,100.245010 
	C56.190212,100.107353 56.626797,99.969696 57.953106,99.942154 
	C65.151398,99.369438 72.349693,98.796730 80.423439,98.607498 
	C82.321381,98.659470 84.219322,98.711433 86.696503,98.823326 
	C87.078445,98.767006 87.460381,98.710686 88.571335,98.716125 
	C92.104744,95.178192 90.899460,91.689789 89.041252,87.715187 
	C87.088684,83.538742 83.816322,85.486809 80.339539,85.021790 
	C79.891808,85.027138 79.444084,85.032494 78.198853,84.891312 
	C75.801819,84.638405 73.404778,84.385506 70.209229,83.970222 
	C69.134209,84.054092 68.059189,84.137962 66.323959,84.104439 
	C65.853477,83.716599 65.383003,83.328758 65.483009,82.593048 
	C68.903053,78.940796 72.323097,75.288544 76.271988,71.300201 
	C77.434952,69.881004 78.597916,68.461807 80.022308,66.391083 
	C80.379425,65.280685 80.736549,64.170280 81.821640,63.057915 
	C82.548302,63.036350 83.274971,63.014782 84.689110,63.415413 
	C91.720154,64.537155 98.721664,66.135796 105.795052,66.573906 
	C109.191429,66.784264 113.573753,68.601570 117.281296,63.841064 
	C107.385376,62.132256 98.310623,60.565243 89.142380,58.290291 
	C86.085754,55.864536 83.029121,53.438778 79.784691,50.365589 
	C75.852730,47.594490 71.920761,44.823391 67.788589,41.441414 
	C66.510765,40.381256 65.232941,39.321098 63.449200,38.018559 
	C63.085445,37.934971 62.721695,37.851383 62.297554,37.067337 
	C60.530113,35.716129 58.762669,34.364922 56.555515,32.490391 
	C55.043339,32.075352 53.531162,31.660309 51.830143,30.573761 
	C50.153671,29.096678 48.477200,27.619596 46.698399,25.487221 
z"/>
<path fill="#191816" opacity="1.000000" stroke="none" 
	d="
M14.871538,53.022621 
	C13.801183,50.089939 12.730828,47.157253 11.343222,43.677261 
	C11.936457,41.440235 12.846942,39.750511 13.757427,38.060791 
	C12.230304,37.703983 10.703181,37.347176 9.176059,36.990368 
	C9.153895,35.502296 9.131733,34.014229 9.675561,32.208641 
	C13.809494,29.450565 17.336170,26.945940 20.968954,24.606050 
	C22.155060,23.842075 23.605482,23.474089 24.955961,22.982525 
	C28.317814,21.758839 31.691711,20.568233 35.190819,19.289728 
	C35.320866,19.215109 35.561432,19.036087 35.791786,19.233170 
	C36.344963,19.668089 36.667786,19.905928 36.984226,20.519135 
	C36.684853,22.347948 36.391865,23.801394 35.959648,25.543566 
	C34.335876,26.611925 32.851334,27.391556 31.006062,28.010347 
	C28.356071,27.151827 26.066811,26.454147 23.382166,25.635971 
	C23.664043,28.507959 23.836241,30.262444 23.669300,32.026302 
	C22.448511,32.290348 21.566860,32.545017 20.644978,32.811310 
	C21.544794,34.016006 22.248154,34.957684 22.778214,36.128548 
	C22.050846,36.499557 21.496775,36.641373 20.778450,36.558929 
	C20.048784,36.830559 19.483374,37.326450 18.911446,37.907070 
	C18.904926,37.991798 19.043991,38.089504 18.660305,38.033291 
	C17.181313,38.288689 16.086008,38.600296 14.990704,38.911903 
	C15.045743,39.191536 15.100782,39.471172 15.155822,39.750805 
	C16.416132,39.878513 17.676443,40.006218 19.119087,40.474159 
	C22.465092,40.952419 25.628761,41.090439 28.829233,41.439285 
	C28.866035,41.650112 28.982033,42.062176 29.045410,42.402725 
	C30.704885,44.055622 32.253429,47.102261 34.319695,42.732231 
	C35.098019,42.633575 35.558014,42.680122 36.013241,43.182377 
	C36.048641,44.549152 36.088806,45.460220 36.042542,46.709446 
	C33.564373,48.288422 31.172626,49.529236 28.562626,50.781029 
	C28.344368,50.792011 27.998369,51.059052 27.603035,51.005272 
	C26.150928,51.014385 25.094154,51.077274 23.707010,51.058952 
	C22.925804,51.014339 22.474972,51.050934 22.011875,50.702286 
	C20.767817,49.345619 19.361212,47.396038 18.335773,47.579300 
	C14.716556,48.226109 16.755306,50.915211 16.647129,52.996330 
	C15.822070,53.060970 15.346804,53.041798 14.871538,53.022621 
z"/>
<path fill="#8A7F70" opacity="1.000000" stroke="none" 
	d="
M33.851112,82.045837 
	C32.618912,81.245155 31.386713,80.444473 30.537781,79.320831 
	C34.946041,79.672951 38.971031,80.348022 43.224480,81.293457 
	C44.616196,81.688492 45.779461,81.813171 47.310577,81.997032 
	C53.245136,85.095802 53.834629,84.808434 56.312050,78.022507 
	C58.797237,79.003075 60.895390,79.997314 62.993248,81.244827 
	C62.992794,81.666954 62.992641,81.835808 62.622002,82.008713 
	C56.889194,83.306755 58.311710,85.910233 61.877052,88.985512 
	C59.974190,88.985512 58.996201,88.985512 57.850929,88.796524 
	C56.845924,88.727577 56.008202,88.847610 54.775558,88.918808 
	C50.899574,88.721321 47.416878,88.489349 43.940048,88.557312 
	C43.604893,88.563866 43.306137,90.432480 43.011921,91.480988 
	C43.033360,91.525284 43.064785,91.618553 42.779774,91.451927 
	C40.684265,89.560631 38.873768,87.835960 37.052002,85.771713 
	C38.123020,82.282486 36.269718,81.897926 33.851112,82.045837 
z"/>
<path fill="#93918E" opacity="1.000000" stroke="none" 
	d="
M89.235863,58.998230 
	C98.310623,60.565243 107.385376,62.132256 117.281296,63.841064 
	C113.573753,68.601570 109.191429,66.784264 105.795052,66.573906 
	C98.721664,66.135796 91.720154,64.537155 84.299522,62.875183 
	C83.272781,61.221828 82.635635,60.108700 82.446259,58.936836 
	C85.007973,58.918144 87.121918,58.958187 89.235863,58.998230 
z"/>
<path fill="#BCB1A9" opacity="1.000000" stroke="none" 
	d="
M71.007744,84.132607 
	C73.404778,84.385506 75.801819,84.638405 78.603806,85.305573 
	C79.363602,86.322113 79.718452,86.924393 80.073296,87.526665 
	C80.384918,86.714981 80.696541,85.903305 81.008163,85.091621 
	C83.816322,85.486809 87.088684,83.538742 89.041252,87.715187 
	C90.899460,91.689789 92.104744,95.178192 88.253632,98.350220 
	C88.359169,95.933746 90.135483,93.354393 85.976501,92.764755 
	C85.506340,92.126144 85.078255,91.800919 84.650177,91.475693 
	C84.420601,92.033241 84.191025,92.590790 83.639877,93.006912 
	C82.209358,92.559563 81.100410,92.253632 79.949509,91.585403 
	C77.570137,86.319603 74.359795,90.902557 70.551620,90.489449 
	C70.708733,88.299820 70.858238,86.216209 71.007744,84.132607 
M83.473503,87.374481 
	C83.527733,87.162857 83.581970,86.951241 83.636208,86.739616 
	C83.502792,86.875633 83.369377,87.011650 83.473503,87.374481 
z"/>
<path fill="#A8A296" opacity="1.000000" stroke="none" 
	d="
M42.996025,81.023094 
	C38.971031,80.348022 34.946041,79.672951 30.478264,79.005180 
	C25.933880,74.315247 21.832279,69.618004 18.120163,64.499741 
	C18.990211,64.062599 19.470774,64.046494 19.996124,64.323547 
	C20.355429,65.087845 20.669947,65.558983 21.043449,66.368912 
	C22.054810,67.146873 23.007187,67.586029 24.212957,68.038666 
	C24.635019,68.065117 24.803688,68.078102 25.014824,68.445801 
	C26.918360,70.204544 28.643730,71.858017 30.669195,72.959824 
	C34.689697,75.146873 38.875610,77.029839 42.994999,79.369110 
	C42.996567,80.140854 42.996296,80.581978 42.996025,81.023094 
z"/>
<path fill="#211E19" opacity="1.000000" stroke="none" 
	d="
M89.189117,58.644260 
	C87.121918,58.958187 85.007973,58.918144 82.105003,58.847694 
	C80.622025,58.700405 79.928070,58.583523 79.106918,58.296280 
	C78.979721,58.125919 78.586487,57.964134 78.496468,57.672348 
	C76.610283,56.239159 74.814110,55.097752 72.906364,53.668839 
	C72.204842,53.250980 71.614891,53.120625 70.941391,52.681984 
	C70.196617,51.618305 69.535400,50.862915 69.023651,49.782722 
	C70.777367,49.314758 72.435135,48.850838 73.972687,49.107388 
	C76.021568,49.449253 77.976944,50.351494 79.972488,51.013023 
	C83.029121,53.438778 86.085754,55.864536 89.189117,58.644260 
z"/>
<path fill="#766B61" opacity="1.000000" stroke="none" 
	d="
M55.064987,100.186150 
	C45.004066,101.066757 34.943142,101.947365 24.539165,102.439476 
	C26.131777,101.051369 28.067442,100.051765 30.250511,99.041756 
	C30.497915,99.031349 30.991871,98.994873 31.350815,98.999039 
	C32.797504,98.722321 33.885250,98.441422 35.362061,98.153656 
	C36.530418,98.112183 37.309704,98.077591 38.418846,98.063126 
	C41.500683,97.384377 44.252663,96.685501 47.324837,96.023560 
	C48.430389,96.386093 49.215744,96.711685 50.047535,97.366447 
	C51.750973,98.525795 53.407978,99.355972 55.064987,100.186150 
z"/>
<path fill="#726C67" opacity="1.000000" stroke="none" 
	d="
M33.855083,82.386375 
	C36.269718,81.897926 38.123020,82.282486 36.893864,85.972679 
	C36.173355,86.489853 35.112335,86.374512 35.096867,86.456482 
	C34.624435,88.959778 34.254707,91.482468 33.573990,93.969345 
	C32.544258,94.596939 31.809555,95.257317 31.044731,96.166351 
	C31.009783,96.581917 31.004957,96.748825 30.755991,96.949234 
	C30.511848,96.982735 30.019152,96.969925 29.950722,96.624359 
	C28.896091,95.845192 27.909891,95.411583 26.922199,94.627312 
	C26.299259,92.534042 25.677809,90.791443 25.056356,89.048828 
	C27.990589,86.941528 30.924822,84.834221 33.855083,82.386375 
z"/>
<path fill="#908072" opacity="1.000000" stroke="none" 
	d="
M55.409309,100.215576 
	C53.407978,99.355972 51.750973,98.525795 50.190487,97.035782 
	C51.914833,93.906517 53.542660,91.437080 55.170479,88.967644 
	C56.008202,88.847610 56.845924,88.727577 57.850033,89.148361 
	C58.658768,90.146492 59.329926,91.022713 59.937946,90.980896 
	C61.618454,90.865318 63.272598,90.366379 65.217163,90.216232 
	C65.622482,91.304726 65.747787,92.195992 65.682648,93.064133 
	C65.492203,93.040993 65.108009,93.042107 64.842873,93.028320 
	C64.400986,93.005280 64.224228,92.996010 63.672127,92.973076 
	C61.889709,93.343529 60.482643,93.727646 58.813103,94.078949 
	C58.296299,94.245987 58.041969,94.445839 57.787643,94.645683 
	C58.166283,94.784691 58.544918,94.923698 58.958252,95.031548 
	C58.992947,95.000381 58.934223,95.072060 58.937836,95.392044 
	C58.960907,96.138786 58.980366,96.565529 58.832619,97.244835 
	C58.131401,98.275604 57.597389,99.053825 57.063381,99.832039 
	C56.626797,99.969696 56.190212,100.107353 55.409309,100.215576 
z"/>
<path fill="#595857" opacity="1.000000" stroke="none" 
	d="
M79.878586,50.689308 
	C77.976944,50.351494 76.021568,49.449253 73.972687,49.107388 
	C72.435135,48.850838 70.777367,49.314758 68.769279,49.732071 
	C68.200447,49.954357 68.035454,49.902493 67.727516,49.554390 
	C66.100311,49.126915 64.616058,48.995678 62.792656,48.870968 
	C62.001965,48.880840 61.550419,48.884190 61.068268,48.478451 
	C60.758739,45.696533 60.961411,43.893467 64.157906,43.850365 
	C65.442719,43.833046 66.712288,42.685455 67.988800,42.052292 
	C71.920761,44.823391 75.852730,47.594490 79.878586,50.689308 
z"/>
<path fill="#908374" opacity="1.000000" stroke="none" 
	d="
M86.018578,93.078133 
	C90.135483,93.354393 88.359169,95.933746 87.889130,98.319336 
	C87.460381,98.710686 87.078445,98.767006 86.283836,98.435394 
	C83.882629,97.699860 81.894081,97.352272 79.486336,96.999100 
	C76.043213,96.282089 73.019295,95.570648 69.970749,94.628456 
	C69.946121,94.397713 69.986542,93.933662 70.309113,93.981888 
	C71.879585,93.738693 73.124855,93.435356 74.376022,93.158646 
	C76.245659,92.745148 78.119438,92.350418 79.991455,91.947701 
	C81.100410,92.253632 82.209358,92.559563 83.983307,93.041824 
	C85.105057,93.171471 85.561821,93.124802 86.018578,93.078133 
z"/>
<path fill="#222221" opacity="1.000000" stroke="none" 
	d="
M35.060772,19.364347 
	C31.691711,20.568233 28.317814,21.758839 24.955961,22.982525 
	C23.605482,23.474089 22.155060,23.842075 20.968954,24.606050 
	C17.336170,26.945940 13.809494,29.450565 9.847061,31.877533 
	C9.922497,30.801998 10.392426,29.740057 11.371532,28.340237 
	C13.327745,27.391352 15.437942,27.192348 16.114803,26.102863 
	C20.704262,18.715630 27.490591,18.059978 35.060772,19.364347 
z"/>
<path fill="#8B7D70" opacity="1.000000" stroke="none" 
	d="
M26.923691,94.977974 
	C27.909891,95.411583 28.896091,95.845192 29.757484,96.764671 
	C29.756155,97.851082 29.879631,98.451622 30.003109,99.052162 
	C28.067442,100.051765 26.131777,101.051369 24.123533,102.372894 
	C22.706854,102.754173 21.362753,102.813538 19.606289,102.404846 
	C18.949665,100.172646 18.705400,98.408493 18.338072,95.755508 
	C21.221561,95.494377 24.072626,95.236176 26.923691,94.977974 
z"/>
<path fill="#333332" opacity="1.000000" stroke="none" 
	d="
M35.190819,19.289728 
	C27.490591,18.059978 20.704262,18.715630 16.114803,26.102863 
	C15.437942,27.192348 13.327745,27.391352 11.505578,28.007896 
	C18.020844,16.184206 24.826107,16.073479 35.161858,18.408531 
	C35.568493,18.629683 35.561432,19.036087 35.561432,19.036087 
	C35.561432,19.036087 35.320866,19.215109 35.190819,19.289728 
z"/>
<path fill="#C3BCB6" opacity="1.000000" stroke="none" 
	d="
M26.922199,94.627312 
	C24.072626,95.236176 21.221561,95.494377 18.338072,95.755508 
	C18.705400,98.408493 18.949665,100.172646 19.208965,102.319939 
	C18.305981,100.610703 17.058216,98.591354 16.573538,96.403000 
	C16.180828,94.629875 16.705647,92.653542 16.848722,90.363632 
	C19.091440,89.959328 21.683868,89.491974 24.666328,89.036728 
	C25.677809,90.791443 26.299259,92.534042 26.922199,94.627312 
z"/>
<path fill="#5B4D40" opacity="1.000000" stroke="none" 
	d="
M69.995377,94.859200 
	C73.019295,95.570648 76.043213,96.282089 79.451843,97.208969 
	C79.707024,97.678909 79.610840,97.945442 79.547989,98.224014 
	C72.349693,98.796730 65.151398,99.369438 57.508244,99.887100 
	C57.597389,99.053825 58.131401,98.275604 59.108963,97.239998 
	C60.053902,96.814270 60.555290,96.645935 61.421432,96.402084 
	C62.520031,96.200577 63.253876,96.074593 64.178391,96.224121 
	C65.235680,96.661789 66.102287,96.823959 67.294830,96.950714 
	C68.080055,96.271828 68.539352,95.628357 69.243652,94.920296 
	C69.657555,94.856880 69.826469,94.858040 69.995377,94.859200 
z"/>
<path fill="#C0B6AF" opacity="1.000000" stroke="none" 
	d="
M79.949509,91.585403 
	C78.119438,92.350418 76.245659,92.745148 74.376022,93.158646 
	C73.124855,93.435356 71.879585,93.738693 70.312729,93.594856 
	C68.990578,90.180344 67.987373,87.201080 66.984169,84.221825 
	C68.059189,84.137962 69.134209,84.054092 70.608490,84.051414 
	C70.858238,86.216209 70.708733,88.299820 70.551620,90.489449 
	C74.359795,90.902557 77.570137,86.319603 79.949509,91.585403 
z"/>
<path fill="#8A8985" opacity="1.000000" stroke="none" 
	d="
M67.888695,41.746849 
	C66.712288,42.685455 65.442719,43.833046 64.157906,43.850365 
	C60.961411,43.893467 60.758739,45.696533 60.770004,48.560661 
	C60.299847,49.087986 60.097355,49.124012 59.616329,48.961014 
	C58.263187,46.821842 57.188580,44.881699 56.498871,42.945042 
	C60.000065,42.531242 63.341415,42.453461 63.955112,38.260941 
	C65.232941,39.321098 66.510765,40.381256 67.888695,41.746849 
z"/>
<path fill="#ADADA9" opacity="1.000000" stroke="none" 
	d="
M19.951336,64.030380 
	C19.470774,64.046494 18.990211,64.062599 18.151888,64.134964 
	C17.794128,64.191223 17.834118,64.102859 17.865356,63.740696 
	C17.429489,62.937370 16.962383,62.496208 16.495277,62.055046 
	C15.744063,59.171329 14.992846,56.287613 14.556583,53.213257 
	C15.346804,53.041798 15.822070,53.060970 17.001196,53.006325 
	C19.144749,52.317509 20.584442,51.702518 22.024137,51.087524 
	C22.474972,51.050934 22.925804,51.014339 23.620428,51.384178 
	C21.585560,53.182152 19.306904,54.573696 16.969238,55.817322 
	C16.808851,55.624355 16.707472,55.579311 16.606094,55.534264 
	C16.725397,55.699368 16.844700,55.864475 16.985619,56.377407 
	C17.987350,58.500088 18.967464,60.274937 19.954735,62.379063 
	C19.958372,63.149017 19.954855,63.589699 19.951336,64.030380 
z"/>
<path fill="#8E7D67" opacity="1.000000" stroke="none" 
	d="
M62.992485,82.004654 
	C62.992641,81.835808 62.992794,81.666954 63.308220,81.107346 
	C65.416908,78.475052 67.210320,76.233513 69.322777,73.950981 
	C70.089455,73.274261 70.537102,72.638535 70.991760,72.000786 
	C70.998779,71.998764 71.002892,71.984741 71.347687,71.956406 
	C72.793808,71.617592 73.895134,71.307114 75.170166,71.171684 
	C75.343872,71.346733 75.743134,71.636284 75.743134,71.636292 
	C72.323097,75.288544 68.903053,78.940796 64.955948,82.753174 
	C64.428894,82.913300 63.947563,82.968933 63.736969,82.865746 
	C63.268215,82.566429 63.090252,82.313797 62.992485,82.004654 
z"/>
<path fill="#BCB1A9" opacity="1.000000" stroke="none" 
	d="
M63.947563,82.968933 
	C63.947563,82.968933 64.428894,82.913300 64.670708,82.927109 
	C65.383003,83.328758 65.853477,83.716599 66.654068,84.163132 
	C67.987373,87.201080 68.990578,90.180344 69.990158,93.546631 
	C69.986542,93.933662 69.946121,94.397713 69.970749,94.628456 
	C69.826469,94.858040 69.657555,94.856880 68.908928,94.847717 
	C67.893623,94.710655 67.458038,94.581581 67.038651,94.292419 
	C67.054840,94.132324 66.996887,93.815788 66.877510,93.638107 
	C66.562378,93.240700 66.325089,93.083748 66.017670,93.040024 
	C65.989067,93.090492 65.873100,93.087265 65.873100,93.087265 
	C65.747787,92.195992 65.622482,91.304726 65.083275,89.845840 
	C64.428772,87.175133 64.188171,85.072037 63.947563,82.968933 
z"/>
<path fill="#8C8982" opacity="1.000000" stroke="none" 
	d="
M52.018986,31.245266 
	C53.531162,31.660309 55.043339,32.075352 56.775185,33.144547 
	C56.330173,36.228001 55.665485,38.657299 54.641525,41.065781 
	C53.564129,41.003120 52.846001,40.961281 52.093765,40.535900 
	C52.079624,37.793190 52.099598,35.434017 52.130295,32.768105 
	C52.100346,32.055992 52.059666,31.650629 52.018986,31.245266 
z"/>
<path fill="#8A8985" opacity="1.000000" stroke="none" 
	d="
M55.000801,41.086597 
	C55.665485,38.657299 56.330173,36.228001 56.995041,33.406208 
	C58.762669,34.364922 60.530113,35.716129 61.943970,37.495590 
	C59.643494,38.970261 57.696598,40.016670 55.564156,41.079987 
	C55.378609,41.096893 55.000801,41.086597 55.000801,41.086597 
z"/>
<path fill="#222221" opacity="1.000000" stroke="none" 
	d="
M9.085348,37.358772 
	C10.703181,37.347176 12.230304,37.703983 13.757427,38.060791 
	C12.846942,39.750511 11.936457,41.440235 11.016497,43.503136 
	C9.694211,43.431694 8.381398,42.987072 7.135070,42.564964 
	C7.767579,40.919453 8.381107,39.323315 9.085348,37.358772 
z"/>
<path fill="#998F80" opacity="1.000000" stroke="none" 
	d="
M78.586487,57.964134 
	C78.586487,57.964134 78.979721,58.125919 79.055084,58.681435 
	C79.784859,60.511261 80.439262,61.785572 81.093674,63.059879 
	C80.736549,64.170280 80.379425,65.280685 79.598541,66.715027 
	C78.783676,67.025070 78.392578,67.011169 77.895203,66.740089 
	C77.527206,65.993729 77.265488,65.504555 76.969208,64.661819 
	C77.485252,62.193562 78.035866,60.078846 78.586487,57.964134 
z"/>
<path fill="#78756E" opacity="1.000000" stroke="none" 
	d="
M55.749706,41.063080 
	C57.696598,40.016670 59.643494,38.970261 61.974167,37.845821 
	C62.721695,37.851383 63.085445,37.934971 63.702156,38.139748 
	C63.341415,42.453461 60.000065,42.531242 56.423187,42.634953 
	C55.891636,41.901947 55.820671,41.482513 55.749706,41.063080 
z"/>
<path fill="#222221" opacity="1.000000" stroke="none" 
	d="
M36.098873,25.254837 
	C36.391865,23.801394 36.684853,22.347948 37.336784,20.439339 
	C38.785816,20.347815 39.875912,20.711458 40.966007,21.075102 
	C41.773743,21.980734 42.581478,22.886366 43.588005,24.216711 
	C43.185314,24.857685 42.583824,25.073944 41.563221,25.245417 
	C39.462360,25.218699 37.780617,25.236767 36.098873,25.254837 
z"/>
<path fill="#BDB8B2" opacity="1.000000" stroke="none" 
	d="
M51.924564,30.909513 
	C52.059666,31.650629 52.100346,32.055992 51.801189,32.751499 
	C51.027107,33.049557 50.592857,33.057472 50.087479,32.723228 
	C48.333649,30.592609 46.650948,28.804157 45.125370,26.791225 
	C45.788574,26.425333 46.294651,26.283922 46.800732,26.142513 
	C48.477200,27.619596 50.153671,29.096678 51.924564,30.909513 
z"/>
<path fill="#8E7D67" opacity="1.000000" stroke="none" 
	d="
M78.001480,66.997276 
	C78.392578,67.011169 78.783676,67.025070 79.467827,67.040787 
	C78.597916,68.461807 77.434952,69.881004 76.007561,71.468246 
	C75.743134,71.636284 75.343872,71.346733 75.172096,70.800682 
	C75.009750,69.512489 75.019180,68.770340 75.344223,67.995178 
	C76.440376,67.640526 77.220932,67.318901 78.001480,66.997276 
z"/>
<path fill="#85837D" opacity="1.000000" stroke="none" 
	d="
M81.457657,63.058899 
	C80.439262,61.785572 79.784859,60.511261 79.182281,58.851791 
	C79.928070,58.583523 80.622025,58.700405 81.657227,58.906433 
	C82.635635,60.108700 83.272781,61.221828 83.955780,62.664085 
	C83.274971,63.014782 82.548302,63.036350 81.457657,63.058899 
z"/>
<path fill="#BCB1A9" opacity="1.000000" stroke="none" 
	d="
M79.985718,98.415756 
	C79.610840,97.945442 79.707024,97.678909 79.871048,97.214539 
	C81.894081,97.352272 83.882629,97.699860 85.994217,98.405426 
	C84.219322,98.711433 82.321381,98.659470 79.985718,98.415756 
z"/>
<path fill="#D6D5D3" opacity="1.000000" stroke="none" 
	d="
M46.749565,25.814867 
	C46.294651,26.283922 45.788574,26.425333 44.793465,26.787052 
	C43.530403,26.434977 42.756371,25.862591 41.982338,25.290207 
	C42.583824,25.073944 43.185314,24.857685 43.874260,24.329556 
	C44.873947,24.507534 45.786175,24.997377 46.749565,25.814867 
z"/>
<path fill="#E3E4E4" opacity="1.000000" stroke="none" 
	d="
M40.928329,20.703365 
	C39.875912,20.711458 38.785816,20.347815 37.343163,20.063969 
	C36.667786,19.905928 36.344963,19.668089 35.791786,19.233170 
	C35.561432,19.036087 35.568493,18.629683 35.550411,18.427341 
	C37.318439,18.927208 39.104546,19.629419 40.928329,20.703365 
z"/>
<path fill="#C0B6AF" opacity="1.000000" stroke="none" 
	d="
M80.673851,85.056702 
	C80.696541,85.903305 80.384918,86.714981 80.073296,87.526665 
	C79.718452,86.924393 79.363602,86.322113 79.002556,85.378845 
	C79.444084,85.032494 79.891808,85.027138 80.673851,85.056702 
z"/>
<path fill="#A8A296" opacity="1.000000" stroke="none" 
	d="
M16.590527,62.377003 
	C16.962383,62.496208 17.429489,62.937370 17.911072,63.724518 
	C17.512289,63.613323 17.099031,63.156143 16.590527,62.377003 
z"/>
<path fill="#E3E4E4" opacity="1.000000" stroke="none" 
	d="
M41.563221,25.245419 
	C42.756371,25.862591 43.530403,26.434977 44.636341,27.011536 
	C46.650948,28.804157 48.333649,30.592609 49.994247,32.939102 
	C49.972145,33.497143 49.845047,33.949760 49.493824,33.968048 
	C48.078659,35.384602 47.014717,36.782871 45.577621,38.187958 
	C43.801334,38.552078 42.398212,38.909386 40.657257,39.235573 
	C36.477097,39.879120 32.634762,40.553787 28.792431,41.228458 
	C25.628761,41.090439 22.465092,40.952419 19.135303,40.133335 
	C18.994122,38.998016 19.019058,38.543762 19.043991,38.089504 
	C19.043991,38.089504 18.904926,37.991798 19.256084,37.970055 
	C20.052395,37.559937 20.497549,37.171562 20.942703,36.783188 
	C21.496775,36.641373 22.050846,36.499557 23.101711,36.101391 
	C24.694345,34.547031 25.790182,33.249023 27.172569,31.783848 
	C28.761675,30.468182 30.064232,29.319685 31.366789,28.171188 
	C32.851334,27.391556 34.335876,26.611925 35.959648,25.543566 
	C37.780617,25.236767 39.462360,25.218699 41.563221,25.245419 
z"/>
<path fill="#D6D5CD" opacity="1.000000" stroke="none" 
	d="
M17.028246,55.965240 
	C19.306904,54.573696 21.585560,53.182152 23.950800,51.465385 
	C25.094154,51.077274 26.150928,51.014385 27.601036,51.407001 
	C27.961376,53.991039 27.692045,56.290558 30.998379,56.333145 
	C31.312946,57.315960 31.622059,57.972687 31.931173,58.629417 
	C32.221104,58.432716 32.511036,58.236015 32.800964,58.039310 
	C32.202827,57.357941 31.604687,56.676567 31.111225,55.739849 
	C31.480154,55.000996 31.744402,54.517490 32.255737,54.018929 
	C32.502823,54.003876 32.998051,54.005821 33.142540,54.329895 
	C34.858837,58.103748 36.430649,61.553528 37.715534,65.296616 
	C33.966400,65.709183 30.504194,65.828445 26.987263,65.585449 
	C25.723648,61.701416 22.839390,61.867294 19.947578,62.049789 
	C18.967464,60.274937 17.987350,58.500088 17.002865,56.362499 
	C16.998495,55.999763 17.028246,55.965240 17.028246,55.965240 
z"/>
<path fill="#9B9892" opacity="1.000000" stroke="none" 
	d="
M28.780882,50.770050 
	C31.172626,49.529236 33.564373,48.288422 36.393547,46.640450 
	C37.704475,45.142067 38.577969,44.050842 39.609787,42.753414 
	C40.171959,42.012310 40.575809,41.477409 41.312996,40.965527 
	C45.481693,42.738991 42.069656,44.942928 41.648762,46.947556 
	C39.528843,48.311832 37.778690,49.665112 35.795441,51.072483 
	C35.562351,51.126575 35.093948,51.224697 34.663105,51.145565 
	C32.784634,51.146553 31.337006,51.226673 29.595325,51.207565 
	C29.127808,50.995579 28.954346,50.882816 28.780882,50.770050 
z"/>
<path fill="#222221" opacity="1.000000" stroke="none" 
	d="
M31.006062,28.010347 
	C30.064232,29.319685 28.761675,30.468182 26.812618,31.771284 
	C25.446892,31.956234 24.727665,31.986580 24.008436,32.016926 
	C23.836241,30.262444 23.664043,28.507959 23.382166,25.635971 
	C26.066811,26.454147 28.356071,27.151827 31.006062,28.010347 
z"/>
<path fill="#96938E" opacity="1.000000" stroke="none" 
	d="
M40.979656,40.942509 
	C40.575809,41.477409 40.171959,42.012310 39.181923,42.664768 
	C37.736492,42.763775 36.877247,42.745220 36.018005,42.726665 
	C35.558014,42.680122 35.098019,42.633575 33.947014,42.735222 
	C31.831343,42.609665 30.406687,42.335922 28.982033,42.062176 
	C28.982033,42.062176 28.866035,41.650112 28.829233,41.439285 
	C32.634762,40.553787 36.477097,39.879120 40.657478,39.514038 
	C40.990242,40.196587 40.984951,40.569550 40.979656,40.942509 
z"/>
<path fill="#1B1A1A" opacity="1.000000" stroke="none" 
	d="
M22.011875,50.702286 
	C20.584442,51.702518 19.144749,52.317509 17.350988,52.922508 
	C16.755306,50.915211 14.716556,48.226109 18.335773,47.579300 
	C19.361212,47.396038 20.767817,49.345619 22.011875,50.702286 
z"/>
<path fill="#3F3F3C" opacity="1.000000" stroke="none" 
	d="
M23.669300,32.026302 
	C24.727665,31.986580 25.446892,31.956234 26.526070,31.938454 
	C25.790182,33.249023 24.694345,34.547031 23.275009,35.872200 
	C22.248154,34.957684 21.544794,34.016006 20.644978,32.811310 
	C21.566860,32.545017 22.448511,32.290348 23.669300,32.026302 
z"/>
<path fill="#D1D0CA" opacity="1.000000" stroke="none" 
	d="
M28.562626,50.781029 
	C28.954346,50.882816 29.127808,50.995579 29.639137,51.527992 
	C30.654221,52.643089 31.331436,53.338539 32.008652,54.033985 
	C31.744402,54.517490 31.480154,55.000996 31.107864,55.742332 
	C30.999823,56.000164 30.992924,56.007057 30.992924,56.007057 
	C27.692045,56.290558 27.961376,53.991039 27.996370,51.460777 
	C27.998369,51.059052 28.344368,50.792011 28.562626,50.781029 
z"/>
<path fill="#1B1A1A" opacity="1.000000" stroke="none" 
	d="
M29.045410,42.402725 
	C30.406687,42.335922 31.831343,42.609665 33.628677,42.880424 
	C32.253429,47.102261 30.704885,44.055622 29.045410,42.402725 
z"/>
<path fill="#CCCCCC" opacity="1.000000" stroke="none" 
	d="
M18.660305,38.033291 
	C19.019058,38.543762 18.994122,38.998016 18.952971,39.793098 
	C17.676443,40.006218 16.416132,39.878513 15.155822,39.750805 
	C15.100782,39.471172 15.045743,39.191536 14.990704,38.911903 
	C16.086008,38.600296 17.181313,38.288689 18.660305,38.033291 
z"/>
<path fill="#1B1A1A" opacity="1.000000" stroke="none" 
	d="
M36.013241,43.182377 
	C36.877247,42.745220 37.736492,42.763775 39.023598,42.870975 
	C38.577969,44.050842 37.704475,45.142067 36.479977,46.302284 
	C36.088806,45.460220 36.048641,44.549152 36.013241,43.182377 
z"/>
<path fill="#3F3F3C" opacity="1.000000" stroke="none" 
	d="
M20.778450,36.558929 
	C20.497549,37.171562 20.052395,37.559937 19.262602,37.885326 
	C19.483374,37.326450 20.048784,36.830559 20.778450,36.558929 
z"/>
<path fill="#9E8765" opacity="1.000000" stroke="none" 
	d="
M69.003738,73.991974 
	C67.210320,76.233513 65.416908,78.475052 63.308517,80.854065 
	C60.895390,79.997314 58.797237,79.003075 55.954277,78.006500 
	C53.820312,77.669090 52.431145,77.334000 51.058746,76.704330 
	C51.386105,75.942329 51.696690,75.474930 52.325695,74.964111 
	C53.066280,73.731422 53.488449,72.542152 53.822762,71.600372 
	C57.303612,72.529305 60.766346,73.453407 64.574051,74.469566 
	C64.143959,67.354668 64.143959,67.354668 67.013351,65.770294 
	C69.452827,66.680809 71.226410,67.342789 72.953232,68.332756 
	C72.271935,69.768745 71.637413,70.876740 71.002892,71.984741 
	C71.002892,71.984741 70.998779,71.998764 70.673996,72.042427 
	C69.900726,72.721382 69.452232,73.356682 69.003738,73.991974 
z"/>
<path fill="#C2BAB1" opacity="1.000000" stroke="none" 
	d="
M33.869019,94.002136 
	C34.254707,91.482468 34.624435,88.959778 35.096867,86.456482 
	C35.112335,86.374512 36.173355,86.489853 36.905128,86.312256 
	C38.873768,87.835960 40.684265,89.560631 42.799507,91.785889 
	C43.126572,92.505592 43.148888,92.724709 42.913208,93.066101 
	C42.449081,93.498848 42.242950,93.809326 41.875061,94.355423 
	C41.175457,94.767540 40.637615,94.944038 39.727753,95.072952 
	C37.526833,94.684288 35.697926,94.343216 33.869019,94.002136 
z"/>
<path fill="#BCB3AB" opacity="1.000000" stroke="none" 
	d="
M54.775562,88.918808 
	C53.542660,91.437080 51.914833,93.906517 50.144054,96.706619 
	C49.215744,96.711685 48.430389,96.386093 47.239868,95.693314 
	C45.553299,94.029648 44.271889,92.733170 42.990482,91.436699 
	C43.306137,90.432480 43.604893,88.563866 43.940048,88.557312 
	C47.416878,88.489349 50.899574,88.721321 54.775562,88.918808 
z"/>
<path fill="#A19379" opacity="1.000000" stroke="none" 
	d="
M51.041981,76.998917 
	C52.431145,77.334000 53.820312,77.669090 55.567245,78.020172 
	C53.834629,84.808434 53.245136,85.095802 47.350822,81.687668 
	C47.352077,80.553764 47.680935,79.788406 48.285614,78.891876 
	C49.388290,78.173454 50.215134,77.586182 51.041981,76.998917 
z"/>
<path fill="#B7A990" opacity="1.000000" stroke="none" 
	d="
M48.009789,79.023041 
	C47.680935,79.788406 47.352077,80.553764 46.982971,81.628494 
	C45.779461,81.813171 44.616196,81.688492 43.224480,81.293457 
	C42.996296,80.581978 42.996567,80.140854 43.270885,79.130577 
	C44.039196,76.389000 44.533459,74.216583 45.321693,72.009644 
	C46.077671,71.649269 46.539673,71.323410 47.365211,71.067749 
	C47.822422,73.766304 47.916107,76.394676 48.009789,79.023041 
z"/>
<path fill="#8B8077" opacity="1.000000" stroke="none" 
	d="
M63.736969,82.865746 
	C64.188171,85.072037 64.428772,87.175133 64.803268,89.648621 
	C63.272598,90.366379 61.618454,90.865318 59.937946,90.980896 
	C59.329926,91.022713 58.658768,90.146492 58.017315,89.337341 
	C58.996201,88.985512 59.974190,88.985512 61.877052,88.985512 
	C58.311710,85.910233 56.889194,83.306755 62.622002,82.008713 
	C63.090252,82.313797 63.268215,82.566429 63.736969,82.865746 
z"/>
<path fill="#867869" opacity="1.000000" stroke="none" 
	d="
M43.011921,91.480988 
	C44.271889,92.733170 45.553299,94.029648 46.919674,95.656380 
	C44.252663,96.685501 41.500683,97.384377 38.536758,97.776833 
	C38.916462,96.687126 39.508118,95.903831 40.099770,95.120537 
	C40.637615,94.944038 41.175457,94.767540 42.119194,94.322426 
	C42.740459,93.683815 42.955833,93.313828 43.171207,92.943832 
	C43.148888,92.724709 43.126572,92.505592 43.084518,91.952515 
	C43.064785,91.618553 43.033360,91.525284 43.011921,91.480988 
z"/>
<path fill="#C0B6AF" opacity="1.000000" stroke="none" 
	d="
M85.976501,92.764755 
	C85.561821,93.124802 85.105057,93.171471 84.304871,93.183243 
	C84.191025,92.590790 84.420601,92.033241 84.650177,91.475693 
	C85.078255,91.800919 85.506340,92.126144 85.976501,92.764755 
z"/>
<path fill="#C0B6AF" opacity="1.000000" stroke="none" 
	d="
M83.354736,87.261078 
	C83.369377,87.011650 83.502792,86.875633 83.636208,86.739616 
	C83.581970,86.951241 83.527733,87.162857 83.354736,87.261078 
z"/>
<path fill="#BDB7AB" opacity="1.000000" stroke="none" 
	d="
M45.027718,72.044167 
	C44.533459,74.216583 44.039196,76.389000 43.269051,78.799942 
	C38.875610,77.029839 34.689697,75.146873 30.669195,72.959824 
	C28.643730,71.858017 26.918360,70.204544 25.179703,68.182304 
	C25.870737,67.363365 26.439360,67.162643 27.359013,67.008125 
	C30.910938,68.969505 34.111835,70.884682 37.703228,73.033508 
	C39.181347,70.967178 40.597057,68.988098 42.332474,67.033081 
	C43.434647,67.705978 44.217121,68.354820 45.000084,69.383240 
	C45.009621,70.523270 45.018669,71.283714 45.027718,72.044167 
z"/>
<path fill="#C8C5BC" opacity="1.000000" stroke="none" 
	d="
M27.007982,66.961922 
	C26.439360,67.162643 25.870737,67.363365 25.137236,67.827591 
	C24.803688,68.078102 24.635019,68.065117 24.172150,67.692047 
	C22.913456,66.898010 21.948961,66.464066 20.984467,66.030113 
	C20.669947,65.558983 20.355429,65.087845 19.996124,64.323547 
	C19.954855,63.589699 19.958372,63.149017 19.954735,62.379063 
	C22.839390,61.867294 25.723648,61.701416 26.973913,65.839165 
	C27.012852,66.624069 27.010418,66.792999 27.007982,66.961922 
z"/>
<path fill="#ADADA9" opacity="1.000000" stroke="none" 
	d="
M21.043449,66.368912 
	C21.948961,66.464066 22.913456,66.898010 23.918755,67.678574 
	C23.007187,67.586029 22.054810,67.146873 21.043449,66.368912 
z"/>
<path fill="#C2AE8D" opacity="1.000000" stroke="none" 
	d="
M71.024948,52.990269 
	C71.614891,53.120625 72.204842,53.250980 72.883568,54.039711 
	C72.312988,56.455425 71.653633,58.212772 70.600128,59.966904 
	C67.146286,59.315971 64.086586,58.668255 60.592255,58.013504 
	C57.106709,59.003593 54.055794,60.000725 51.004990,60.665451 
	C51.005817,59.889858 51.006546,59.446659 51.331184,58.957405 
	C51.769646,57.937515 51.884197,56.963692 52.223454,55.726799 
	C54.848995,55.191696 57.945297,56.762451 59.373344,53.022453 
	C61.606655,53.316368 63.490288,53.778477 65.370819,53.766178 
	C67.257141,53.753845 69.140366,53.268379 71.024948,52.990269 
z"/>
<path fill="#B1A086" opacity="1.000000" stroke="none" 
	d="
M70.941391,52.681984 
	C69.140366,53.268379 67.257141,53.753845 65.370819,53.766178 
	C63.490288,53.778477 61.606655,53.316368 59.226913,52.791153 
	C59.117916,51.400047 59.506390,50.280045 59.894867,49.160042 
	C60.097355,49.124012 60.299847,49.087986 60.800606,48.969746 
	C61.550419,48.884190 62.001965,48.880840 63.128632,48.995869 
	C65.159325,49.359703 66.514900,49.605164 67.870468,49.850624 
	C68.035454,49.902493 68.200447,49.954357 68.619812,50.056873 
	C69.535400,50.862915 70.196617,51.618305 70.941391,52.681984 
z"/>
<path fill="#B1A086" opacity="1.000000" stroke="none" 
	d="
M70.994278,59.970119 
	C71.653633,58.212772 72.312988,56.455425 72.995148,54.327213 
	C74.814110,55.097752 76.610283,56.239159 78.496468,57.672348 
	C78.035866,60.078846 77.485252,62.193562 76.717590,64.657448 
	C76.332855,65.003792 76.165154,65.000954 75.854446,64.701302 
	C74.139053,62.926365 72.566666,61.448242 70.994278,59.970119 
z"/>
<path fill="#A69B8E" opacity="1.000000" stroke="none" 
	d="
M39.727757,95.072952 
	C39.508118,95.903831 38.916462,96.687126 38.206902,97.756706 
	C37.309704,98.077591 36.530418,98.112183 35.200466,97.861572 
	C33.458153,97.023476 32.266506,96.470589 31.074854,95.917694 
	C31.809555,95.257317 32.544258,94.596939 33.573990,93.969345 
	C35.697926,94.343216 37.526833,94.684288 39.727757,95.072952 
z"/>
<path fill="#8B7D70" opacity="1.000000" stroke="none" 
	d="
M31.044731,96.166351 
	C32.266506,96.470589 33.458153,97.023476 34.811398,97.868439 
	C33.885250,98.441422 32.797504,98.722321 31.359955,98.653084 
	C31.006809,97.840546 31.003471,97.378136 31.000134,96.915726 
	C31.004957,96.748825 31.009783,96.581917 31.044731,96.166351 
z"/>
<path fill="#A69B8E" opacity="1.000000" stroke="none" 
	d="
M30.755991,96.949234 
	C31.003471,97.378136 31.006809,97.840546 31.001009,98.648911 
	C30.991871,98.994873 30.497915,99.031349 30.250511,99.041756 
	C29.879631,98.451622 29.756155,97.851082 29.825916,97.110229 
	C30.019152,96.969925 30.511848,96.982735 30.755991,96.949234 
z"/>
<path fill="#D2C4B3" opacity="1.000000" stroke="none" 
	d="
M63.987720,95.948608 
	C63.253876,96.074593 62.520031,96.200577 61.309795,96.058380 
	C60.200344,95.550812 59.567284,95.311432 58.934223,95.072060 
	C58.934223,95.072060 58.992947,95.000381 58.999401,94.793991 
	C59.005856,94.587593 59.075577,94.111755 59.075577,94.111755 
	C60.482643,93.727646 61.889709,93.343529 63.639534,93.343269 
	C63.984100,94.467613 63.985909,95.208115 63.987720,95.948608 
z"/>
<path fill="#8C7F72" opacity="1.000000" stroke="none" 
	d="
M64.178391,96.224121 
	C63.985909,95.208115 63.984100,94.467613 64.014885,93.356926 
	C64.224228,92.996010 64.400986,93.005280 64.944092,93.288422 
	C65.652466,93.691833 65.994492,93.821365 66.501526,93.916718 
	C66.666534,93.882530 66.996887,93.815788 66.996887,93.815788 
	C66.996887,93.815788 67.054840,94.132324 67.018990,94.715782 
	C66.978394,95.861534 66.973648,96.423828 66.968903,96.986122 
	C66.102287,96.823959 65.235680,96.661789 64.178391,96.224121 
z"/>
<path fill="#B6A595" opacity="1.000000" stroke="none" 
	d="
M58.937836,95.392044 
	C59.567284,95.311432 60.200344,95.550812 60.945045,96.133896 
	C60.555290,96.645935 60.053902,96.814270 59.276169,96.987442 
	C58.980366,96.565529 58.960907,96.138786 58.937836,95.392044 
z"/>
<path fill="#B6A595" opacity="1.000000" stroke="none" 
	d="
M58.813103,94.078949 
	C59.075577,94.111755 59.005856,94.587593 58.964706,94.825150 
	C58.544918,94.923698 58.166283,94.784691 57.787643,94.645683 
	C58.041969,94.445839 58.296299,94.245987 58.813103,94.078949 
z"/>
<path fill="#5F5448" opacity="1.000000" stroke="none" 
	d="
M66.336517,93.950897 
	C65.994492,93.821365 65.652466,93.691833 65.209229,93.302200 
	C65.108009,93.042107 65.492203,93.040993 65.682648,93.064133 
	C65.873100,93.087265 65.989067,93.090492 66.053589,93.291412 
	C66.190918,93.645180 66.263718,93.798042 66.336517,93.950897 
z"/>
<path fill="#25211D" opacity="1.000000" stroke="none" 
	d="
M67.727516,49.554390 
	C66.514900,49.605164 65.159325,49.359703 63.467781,48.989342 
	C64.616058,48.995678 66.100311,49.126915 67.727516,49.554390 
z"/>
<path fill="#5F5448" opacity="1.000000" stroke="none" 
	d="
M67.294830,96.950714 
	C66.973648,96.423828 66.978394,95.861534 67.002800,94.875870 
	C67.458038,94.581581 67.893623,94.710655 68.663925,94.912308 
	C68.539352,95.628357 68.080055,96.271828 67.294830,96.950714 
z"/>
<path fill="#C1B399" opacity="1.000000" stroke="none" 
	d="
M59.616333,48.961014 
	C59.506390,50.280045 59.117916,51.400047 58.875874,52.751350 
	C57.945297,56.762451 54.848995,55.191696 51.990311,55.872780 
	C51.357395,57.189037 51.182331,58.096252 51.007271,59.003464 
	C51.006546,59.446659 51.005817,59.889858 50.757759,60.668983 
	C50.510429,61.004917 50.016052,61.005787 49.742805,60.772644 
	C49.977856,58.356655 50.486156,56.173817 50.962555,53.697224 
	C50.608673,52.714401 49.853294,51.570118 50.028542,51.403267 
	C53.767994,47.842869 49.748806,47.951958 48.000481,46.591858 
	C47.680927,44.090122 47.363228,41.998123 47.235313,39.798988 
	C47.660965,39.509682 47.838463,39.281994 48.295204,39.050499 
	C49.797832,39.701298 50.962856,40.310368 52.127876,40.919441 
	C52.846001,40.961281 53.564129,41.003120 54.641525,41.065781 
	C55.000801,41.086597 55.378609,41.096893 55.564156,41.079987 
	C55.820671,41.482513 55.891636,41.901947 56.038288,42.631466 
	C57.188580,44.881699 58.263187,46.821842 59.616333,48.961014 
z"/>
<path fill="#D6D5CD" opacity="1.000000" stroke="none" 
	d="
M16.981249,56.014671 
	C16.844700,55.864475 16.725397,55.699368 16.606094,55.534264 
	C16.707472,55.579311 16.808851,55.624355 16.969238,55.817322 
	C17.028246,55.965240 16.998495,55.999763 16.981249,56.014671 
z"/>
<path fill="#98856D" opacity="1.000000" stroke="none" 
	d="
M71.347687,71.956406 
	C71.637413,70.876740 72.271935,69.768745 73.286507,68.330719 
	C74.110939,68.000359 74.555313,68.000031 75.005516,68.005455 
	C75.011337,68.011215 75.028610,68.028198 75.028610,68.028198 
	C75.019180,68.770340 75.009750,69.512489 74.998390,70.625633 
	C73.895134,71.307114 72.793808,71.617592 71.347687,71.956406 
z"/>
<path fill="#98856D" opacity="1.000000" stroke="none" 
	d="
M69.322769,73.950981 
	C69.452232,73.356682 69.900726,72.721382 70.666977,72.044449 
	C70.537102,72.638535 70.089455,73.274261 69.322769,73.950981 
z"/>
<path fill="#C0B6AF" opacity="1.000000" stroke="none" 
	d="
M66.501526,93.916718 
	C66.263718,93.798042 66.190918,93.645180 66.082199,93.240944 
	C66.325089,93.083748 66.562378,93.240700 66.877510,93.638107 
	C66.996887,93.815788 66.666534,93.882530 66.501526,93.916718 
z"/>
<path fill="#B4A997" opacity="1.000000" stroke="none" 
	d="
M52.093765,40.535900 
	C50.962856,40.310368 49.797832,39.701298 48.351372,38.701038 
	C48.661636,36.856487 49.253342,35.403126 49.845047,33.949760 
	C49.845047,33.949760 49.972145,33.497143 50.065376,33.281265 
	C50.592857,33.057472 51.027107,33.049557 51.790466,33.058243 
	C52.099598,35.434017 52.079624,37.793190 52.093765,40.535900 
z"/>
<path fill="#98856D" opacity="1.000000" stroke="none" 
	d="
M75.997444,64.998116 
	C76.165154,65.000954 76.332855,65.003792 76.752159,65.011002 
	C77.265488,65.504555 77.527206,65.993729 77.895203,66.740089 
	C77.220932,67.318901 76.440376,67.640526 75.344223,67.995178 
	C75.028610,68.028198 75.011337,68.011215 75.006165,67.667618 
	C75.333145,66.548721 75.665298,65.773415 75.997444,64.998116 
z"/>
<path fill="#A29783" opacity="1.000000" stroke="none" 
	d="
M47.045525,39.906128 
	C47.363228,41.998123 47.680927,44.090122 47.623878,46.634453 
	C45.526417,47.374081 43.803699,47.661373 42.069584,47.695381 
	C42.044964,47.273582 42.031742,47.105072 42.018524,46.936562 
	C42.069656,44.942928 45.481693,42.738991 41.312996,40.965527 
	C40.984951,40.569550 40.990242,40.196587 40.995308,39.545158 
	C42.398212,38.909386 43.801334,38.552078 45.613167,38.455620 
	C46.363087,39.113022 46.704308,39.509575 47.045525,39.906128 
z"/>
<path fill="#D6D5D3" opacity="1.000000" stroke="none" 
	d="
M47.235313,39.798988 
	C46.704308,39.509575 46.363087,39.113022 45.986324,38.448807 
	C47.014717,36.782871 48.078659,35.384602 49.493824,33.968048 
	C49.253342,35.403126 48.661636,36.856487 48.013763,38.659317 
	C47.838463,39.281994 47.660965,39.509682 47.235313,39.798988 
z"/>
<path fill="#CBC8BE" opacity="1.000000" stroke="none" 
	d="
M27.359013,67.008125 
	C27.010418,66.792999 27.012852,66.624069 27.028637,66.201416 
	C30.504194,65.828445 33.966400,65.709183 38.005447,65.152771 
	C39.726654,63.478123 40.871021,62.240616 42.283493,61.237381 
	C42.371990,63.317440 42.192375,65.163231 42.012764,67.009018 
	C40.597057,68.988098 39.181347,70.967178 37.703228,73.033508 
	C34.111835,70.884682 30.910938,68.969505 27.359013,67.008125 
z"/>
<path fill="#D1D0CA" opacity="1.000000" stroke="none" 
	d="
M42.015388,61.003113 
	C40.871021,62.240616 39.726654,63.478123 38.292374,64.859467 
	C36.430649,61.553528 34.858837,58.103748 33.476952,54.280155 
	C34.142570,53.012463 34.618259,52.118580 35.093948,51.224697 
	C35.093948,51.224697 35.562351,51.126575 36.142105,51.073315 
	C38.134701,51.686157 39.547543,52.352257 40.976486,53.346367 
	C40.998005,54.112740 41.003426,54.551094 40.978699,55.305473 
	C41.606304,56.430927 42.264057,57.240360 42.802601,58.338867 
	C42.460724,59.419666 42.238060,60.211388 42.015388,61.003113 
z"/>
<path fill="#BEBEBA" opacity="1.000000" stroke="none" 
	d="
M34.663105,51.145565 
	C34.618259,52.118580 34.142570,53.012463 33.332466,53.956085 
	C32.998051,54.005821 32.502823,54.003876 32.255737,54.018929 
	C31.331436,53.338539 30.654221,52.643089 29.933191,51.627216 
	C31.337006,51.226673 32.784634,51.146553 34.663105,51.145565 
z"/>
<path fill="#D1D0CA" opacity="1.000000" stroke="none" 
	d="
M31.003185,55.997681 
	C31.604687,56.676567 32.202827,57.357941 32.800964,58.039310 
	C32.511036,58.236015 32.221104,58.432716 31.931173,58.629417 
	C31.622059,57.972687 31.312946,57.315960 30.998379,56.333145 
	C30.992924,56.007057 30.999823,56.000164 31.003185,55.997681 
z"/>
<path fill="#BEBEBA" opacity="1.000000" stroke="none" 
	d="
M40.960384,53.018356 
	C39.547543,52.352257 38.134701,51.686157 36.375198,51.019222 
	C37.778690,49.665112 39.528843,48.311832 41.648762,46.947556 
	C42.031742,47.105072 42.044964,47.273582 42.036819,48.077454 
	C42.012962,49.476746 42.010468,50.240673 41.979053,51.305389 
	C41.620220,52.076900 41.290302,52.547630 40.960384,53.018356 
z"/>
<path fill="#AE9875" opacity="1.000000" stroke="none" 
	d="
M75.854446,64.701302 
	C75.665298,65.773415 75.333145,66.548721 75.000343,67.661858 
	C74.555313,68.000031 74.110939,68.000359 73.333282,68.002731 
	C71.226410,67.342789 69.452827,66.680809 67.013351,65.770294 
	C64.143959,67.354668 64.143959,67.354668 64.574051,74.469566 
	C60.766346,73.453407 57.303612,72.529305 53.822762,71.600372 
	C53.488449,72.542152 53.066280,73.731422 52.312916,74.581169 
	C48.692894,69.334328 55.510849,67.304306 54.723904,63.242714 
	C56.892662,63.021843 58.669487,62.840885 60.700611,62.634033 
	C60.821011,60.931583 60.923950,59.476063 61.026890,58.020542 
	C64.086586,58.668255 67.146286,59.315971 70.600128,59.966904 
	C72.566666,61.448242 74.139053,62.926365 75.854446,64.701302 
z"/>
<path fill="#B9A88B" opacity="1.000000" stroke="none" 
	d="
M60.592255,58.013504 
	C60.923950,59.476063 60.821011,60.931583 60.700611,62.634033 
	C58.669487,62.840885 56.892662,63.021843 54.723904,63.242714 
	C55.510849,67.304306 48.692894,69.334328 51.994495,74.624588 
	C51.696690,75.474930 51.386105,75.942329 51.058746,76.704330 
	C50.215134,77.586182 49.388290,78.173454 48.285618,78.891876 
	C47.916107,76.394676 47.822422,73.766304 47.367165,70.735397 
	C47.018223,69.889847 47.030857,69.446823 47.357224,68.959000 
	C48.113708,68.280983 48.556458,67.647766 49.297325,66.879593 
	C53.940193,65.139839 49.612148,62.899410 50.016052,61.005787 
	C50.016052,61.005787 50.510429,61.004917 50.757656,61.001385 
	C54.055794,60.000725 57.106709,59.003593 60.592255,58.013504 
z"/>
<path fill="#BCB3AB" opacity="1.000000" stroke="none" 
	d="
M42.913208,93.066101 
	C42.955833,93.313828 42.740459,93.683815 42.280952,94.086807 
	C42.242950,93.809326 42.449081,93.498848 42.913208,93.066101 
z"/>
<path fill="#C1B7A5" opacity="1.000000" stroke="none" 
	d="
M47.043488,69.003807 
	C47.030857,69.446823 47.018223,69.889847 47.003635,70.665207 
	C46.539673,71.323410 46.077671,71.649269 45.321693,72.009644 
	C45.018669,71.283714 45.009621,70.523270 45.257744,69.276451 
	C46.003372,68.523140 46.491829,68.256195 46.995464,68.242996 
	C47.021591,68.665771 47.032539,68.834793 47.043488,69.003807 
z"/>
<path fill="#C3BEB1" opacity="1.000000" stroke="none" 
	d="
M46.980289,67.989250 
	C46.491829,68.256195 46.003372,68.523140 45.257252,68.896873 
	C44.217121,68.354820 43.434647,67.705978 42.332466,67.033081 
	C42.192375,65.163231 42.371990,63.317440 42.283497,61.237381 
	C42.238060,60.211388 42.460724,59.419666 43.036755,58.220695 
	C43.596146,57.539749 43.802170,57.266048 44.364872,57.000252 
	C48.017437,59.759567 47.162109,63.457439 46.994427,67.245415 
	C46.989769,67.493362 46.980289,67.989250 46.980289,67.989250 
z"/>
<path fill="#B9A88B" opacity="1.000000" stroke="none" 
	d="
M51.331184,58.957405 
	C51.182331,58.096252 51.357395,57.189037 51.765602,56.135845 
	C51.884197,56.963692 51.769646,57.937515 51.331184,58.957405 
z"/>
<path fill="#C1B7A5" opacity="1.000000" stroke="none" 
	d="
M46.999084,66.997467 
	C47.162109,63.457439 48.017437,59.759567 44.308884,56.657211 
	C42.933762,55.867329 41.971302,55.428391 41.008842,54.989452 
	C41.003426,54.551094 40.998005,54.112740 40.976486,53.346367 
	C41.290302,52.547630 41.620220,52.076900 42.365593,51.301464 
	C45.518852,51.994827 48.256657,52.992901 50.994461,53.990974 
	C50.486156,56.173817 49.977856,58.356655 49.742805,60.772644 
	C49.612148,62.899410 53.940193,65.139839 48.964020,66.874817 
	C47.888088,67.002495 47.443588,66.999985 46.999084,66.997467 
z"/>
<path fill="#B4A997" opacity="1.000000" stroke="none" 
	d="
M50.962555,53.697220 
	C48.256657,52.992901 45.518852,51.994827 42.394508,51.000679 
	C42.010468,50.240673 42.012962,49.476746 42.048225,48.330742 
	C43.803699,47.661373 45.526417,47.374081 47.625732,47.044189 
	C49.748806,47.951958 53.767994,47.842869 50.028542,51.403267 
	C49.853294,51.570118 50.608673,52.714401 50.962555,53.697220 
z"/>
<path fill="#BEBEBA" opacity="1.000000" stroke="none" 
	d="
M40.978695,55.305473 
	C41.971302,55.428391 42.933762,55.867329 43.952209,56.649303 
	C43.802170,57.266048 43.596146,57.539749 43.155968,57.931625 
	C42.264057,57.240360 41.606304,56.430927 40.978695,55.305473 
z"/>
<path fill="#B7A990" opacity="1.000000" stroke="none" 
	d="
M46.994427,67.245415 
	C47.443588,66.999985 47.888088,67.002495 48.665897,67.009781 
	C48.556458,67.647766 48.113708,68.280983 47.357224,68.959000 
	C47.032539,68.834793 47.021591,68.665771 46.995464,68.242996 
	C46.980289,67.989250 46.989769,67.493362 46.994427,67.245415 
z"/>
</svg>