<svg version="1.1" id="Layer_1" xmlns="http://www.w3.org/2000/svg" xmlns:xlink="http://www.w3.org/1999/xlink" x="0px" y="0px"
	 width="100%" viewBox="0 0 165 165" enable-background="new 0 0 165 165" xml:space="preserve">
<path fill="#FFFFFF" opacity="0.000000" stroke="none" 
	d="
M1.388077,37.293926 
	C1.000000,26.015799 1.072360,15.030743 0.942753,4.048069 
	C0.914735,1.673872 1.319877,0.922444 3.944123,0.927262 
	C56.867825,1.024436 109.791946,1.056336 162.715210,0.875120 
	C166.300003,0.862846 166.031647,2.303782 166.028580,4.705621 
	C165.986252,37.824596 166.000000,70.943649 166.000000,104.531342 
	C160.291061,107.749603 154.339264,106.747421 148.490555,105.862717 
	C145.908279,105.472107 145.753632,102.849098 145.536758,100.669312 
	C144.630554,91.561493 144.632935,91.609367 135.586060,91.535721 
	C131.954376,91.506157 128.271851,92.021439 124.309326,90.607635 
	C121.379028,86.234718 122.671669,81.659431 122.504616,77.280838 
	C122.257149,70.794716 122.219193,70.597954 115.783493,70.547791 
	C109.167091,70.496216 102.550117,70.616318 95.477509,70.478752 
	C88.460510,70.199043 87.698219,69.431305 87.468140,62.857464 
	C87.213371,55.578144 87.213387,55.574306 79.763885,55.549995 
	C75.283508,55.535370 70.802345,55.603077 66.322830,55.526424 
	C59.522900,55.410069 58.467113,54.329235 58.516670,47.702068 
	C58.525352,46.541111 58.604137,45.380665 58.597759,43.799671 
	C58.601051,42.345734 58.649139,41.309105 58.353928,39.963142 
	C57.971573,39.257832 57.623783,38.967995 56.837162,38.673416 
	C48.505325,38.427605 40.546352,38.563503 32.124054,38.417656 
	C23.942192,38.282318 16.229589,38.719246 8.513708,38.577061 
	C6.231017,38.534992 3.893551,38.788288 1.388077,37.293926 
z"/>
<path fill="#FFFFFF" opacity="0.000000" stroke="none" 
	d="
M165.616882,123.710159 
	C166.000000,136.815491 165.905563,149.632217 166.073608,162.445511 
	C166.110596,165.266357 165.707275,166.103821 162.563019,166.095810 
	C109.969917,165.961563 57.376324,165.971954 4.783072,166.072479 
	C1.756233,166.078262 0.898291,165.509079 0.911559,162.292999 
	C1.053695,127.841568 1.000000,93.389336 1.000000,58.468658 
	C4.846749,55.525909 9.038015,56.286140 13.098766,56.976456 
	C16.282192,57.517632 16.403837,60.392796 16.466795,62.905846 
	C16.667065,70.900078 16.441114,78.899063 16.600288,86.892944 
	C16.644089,89.092590 15.919949,91.643860 18.756834,93.351280 
	C20.856815,93.436142 22.513592,93.464180 24.166700,93.675476 
	C26.668652,93.995262 28.024588,95.404175 28.296923,97.885368 
	C28.605991,100.701233 28.644993,103.519249 28.241529,106.328400 
	C27.918638,108.576538 26.576813,109.731033 24.363657,110.258705 
	C17.580379,111.875984 17.592560,111.927071 17.441616,119.170181 
	C17.543659,122.601303 17.439241,125.600456 17.460945,128.599335 
	C17.509874,135.360611 17.505861,135.360641 24.954021,135.563278 
	C30.665754,135.386093 35.936314,135.415329 41.681824,135.521973 
	C52.445068,135.309860 62.734161,135.417984 73.502914,135.498352 
	C85.463234,135.240555 96.946136,135.453079 108.426857,135.469406 
	C112.539001,135.475266 114.434486,134.261627 114.529503,129.815048 
	C114.664070,123.517334 115.821732,122.533119 121.952499,122.466492 
	C134.767700,122.327232 147.584671,122.388763 160.400848,122.444717 
	C162.065430,122.451981 163.739838,122.517418 165.616882,123.710159 
z"/>
<path fill="#F0F7F5" opacity="0.000000" stroke="none" 
	d="
M166.000000,123.531731 
	C150.886398,123.999336 135.771255,124.115486 120.660278,123.916245 
	C116.860764,123.866158 115.851936,125.113701 115.915359,128.770813 
	C116.057953,136.993958 115.876953,136.998169 107.819397,136.998367 
	C96.857887,136.998657 85.896370,136.997086 74.466042,136.992462 
	C72.690239,134.548904 74.619820,133.759674 76.178726,132.920578 
	C77.925819,131.980194 79.865196,131.416351 81.818504,130.101257 
	C82.673584,129.514954 83.278191,129.190186 84.211777,128.771378 
	C84.740303,128.599167 84.957481,128.552475 85.505478,128.518738 
	C86.256058,128.641647 86.664139,128.784393 87.343231,129.100998 
	C88.353996,129.621582 88.986168,130.135193 89.804665,130.877045 
	C90.282829,131.340591 90.546173,131.613052 91.007233,132.069214 
	C91.527878,132.463562 91.842285,132.426575 92.381729,132.044525 
	C94.177071,130.769363 95.819122,131.365921 97.766800,131.681183 
	C98.302406,131.747040 98.518288,131.772675 99.060577,131.840851 
	C99.824776,131.951660 100.259613,132.035355 101.019188,132.203751 
	C103.468147,132.906250 104.916580,132.180298 105.558769,130.065445 
	C106.081924,128.342560 104.705933,128.227753 103.255630,127.854980 
	C101.977463,127.556259 101.042473,127.331268 99.704704,127.180115 
	C97.114479,126.375549 94.559273,126.636047 92.467865,124.546783 
	C91.445282,122.174644 91.798241,119.958786 91.159569,117.488380 
	C90.531151,114.559601 90.989853,112.144936 92.110207,109.401329 
	C92.614128,108.527092 92.999153,108.098755 93.827126,107.498932 
	C94.750290,107.034447 95.317200,106.871307 96.345917,106.727882 
	C102.395828,106.540916 108.005188,106.660217 114.047897,106.597862 
	C117.637245,106.832649 120.622032,105.389557 124.197891,105.645309 
	C125.718872,105.640930 126.817169,105.697594 128.300888,105.941734 
	C136.286728,107.503258 143.460449,110.369812 151.120789,112.879120 
	C153.397476,113.900581 155.009644,115.464760 157.522400,115.849182 
	C156.000473,114.160576 154.210205,113.494034 152.027863,112.825470 
	C146.505890,110.425064 142.020386,106.715828 136.205627,104.909279 
	C134.789108,103.299652 133.715073,101.846138 132.063080,100.476791 
	C131.523315,99.448158 131.897903,98.523888 131.083618,97.596237 
	C128.637527,95.607834 125.388062,95.820099 123.332153,93.158707 
	C123.045067,92.033073 123.134140,91.286667 123.735703,90.285233 
	C130.291656,90.000778 136.585037,90.095810 142.873444,89.960358 
	C145.701874,89.899429 146.976135,90.594612 147.075089,93.790771 
	C147.422348,105.005936 147.547180,105.002098 158.606155,105.002190 
	C160.758453,105.002205 162.910767,105.001869 165.531525,105.000854 
	C166.000000,111.021156 166.000000,117.042305 166.000000,123.531731 
z"/>
<path fill="#E1F0EC" opacity="0.000000" stroke="none" 
	d="
M19.233452,94.688843 
	C16.022406,95.389946 14.893016,94.225510 14.945755,91.117973 
	C15.105996,81.676064 14.856848,72.226280 15.076793,62.786777 
	C15.161008,59.172489 14.220374,57.557838 10.376914,57.946323 
	C7.588665,58.228149 4.748851,57.999805 1.466015,57.999474 
	C1.000000,51.312355 1.000000,44.624710 1.000000,37.468533 
	C11.020184,36.999504 21.040367,36.999004 31.529022,37.004082 
	C32.098122,37.243073 32.198746,37.476494 32.093437,38.029701 
	C29.256313,39.974312 25.963270,38.654488 23.006773,40.413979 
	C20.214725,41.240353 18.250225,42.627918 16.590271,45.002441 
	C14.538290,46.452370 12.323553,46.846230 10.248592,48.239033 
	C9.824075,48.526897 9.657882,48.641888 9.245817,48.928555 
	C8.842747,49.205696 8.685549,49.311157 8.311475,49.560089 
	C8.094600,49.703556 7.771794,50.027218 7.771794,50.027218 
	C7.771794,50.027218 7.893126,50.469452 8.139786,50.585892 
	C11.478572,51.884228 14.775648,52.515381 17.976540,54.376602 
	C20.465796,57.141102 22.666235,59.699242 24.723454,62.842163 
	C26.332880,66.159027 27.039743,69.335205 27.279222,73.003723 
	C27.334761,74.358543 27.307690,75.347954 27.721067,76.662354 
	C27.868206,77.274170 27.917492,77.522690 28.000999,78.152725 
	C28.036531,79.314453 27.879648,80.059158 27.298969,81.059769 
	C22.721777,82.942497 20.994705,86.417427 20.361601,90.665031 
	C20.171385,91.941223 20.238728,93.271538 19.233452,94.688843 
z"/>
<path fill="#EDF5F4" opacity="0.000000" stroke="none" 
	d="
M123.998901,89.531128 
	C123.993324,90.787987 123.986359,91.576286 123.965424,92.758499 
	C123.632126,93.448280 123.252808,93.607529 122.505852,93.626175 
	C121.780464,93.510063 121.375137,93.400101 120.671616,93.192352 
	C119.963608,92.999916 119.560448,92.881432 118.855606,92.660416 
	C116.941711,91.965836 115.294418,91.475037 113.371086,90.763824 
	C112.675049,90.403053 112.320587,90.128830 111.778137,89.553802 
	C111.444145,89.097931 111.328117,88.903549 111.064575,88.405457 
	C110.188164,86.052650 108.570618,84.953056 106.360962,83.997498 
	C101.876411,81.652779 97.640450,79.561584 94.251717,75.618256 
	C93.610146,73.352684 93.475456,71.473503 94.745712,69.349228 
	C103.260796,69.014381 111.528107,69.128036 119.788765,68.943497 
	C123.025887,68.871185 124.185326,69.936531 124.053719,73.196686 
	C123.840546,78.477463 123.997078,83.773163 123.998901,89.531128 
z"/>
<path fill="#EAF4F1" opacity="0.000000" stroke="none" 
	d="
M94.558395,69.014191 
	C94.997299,71.074547 94.998451,73.129082 94.998741,75.624939 
	C94.813477,76.169273 94.629074,76.272278 94.127380,76.387238 
	C92.970230,76.266602 92.166809,76.000648 91.069916,75.606590 
	C89.844452,74.961723 88.998199,74.305252 87.780609,73.630814 
	C85.528282,72.042671 83.096359,71.496147 80.819817,69.937935 
	C78.518814,68.370117 76.518288,66.949791 73.982376,65.756760 
	C69.618721,62.767624 64.985420,60.921097 60.581516,58.015434 
	C60.133484,57.699524 59.964989,57.561054 59.583336,57.182381 
	C59.243084,56.770737 59.115993,56.599289 58.625717,55.908112 
	C57.915916,54.936928 57.637634,54.386467 56.625496,54.530746 
	C55.893814,54.603184 55.484894,54.505032 54.865120,54.075199 
	C54.570164,53.605598 54.504314,53.385067 54.417210,52.815689 
	C54.443428,48.091522 55.262798,44.070499 59.688797,41.783653 
	C60.059505,53.996368 60.059505,53.996635 71.864258,54.001148 
	C76.346481,54.002861 80.832726,54.118427 85.309456,53.962029 
	C88.141701,53.863083 89.226250,54.975956 89.024384,57.749607 
	C88.880180,59.731178 89.199219,61.756866 88.955460,63.718616 
	C88.451118,67.777466 89.884293,69.698265 94.558395,69.014191 
z"/>
<path fill="#E6F2EC" opacity="0.000000" stroke="none" 
	d="
M59.986244,41.596680 
	C56.737022,44.854847 55.976669,48.806591 54.926483,52.944885 
	C51.922272,52.855644 51.477875,49.694126 48.898773,48.757504 
	C46.678310,47.523525 44.867149,46.256054 42.779457,44.804405 
	C40.598576,42.740559 38.513691,41.147423 35.544975,40.347488 
	C34.057339,39.964912 32.929806,39.617416 32.104736,38.217216 
	C32.005600,37.872772 32.001881,37.441097 31.999687,37.225376 
	C40.686066,37.009190 49.374638,37.008720 58.531883,37.012291 
	C59.164410,37.180183 59.328266,37.344040 59.737808,37.753769 
	C59.986332,39.065456 59.989170,40.131275 59.986244,41.596680 
z"/>
<path fill="#EAF4F1" opacity="0.000000" stroke="none" 
	d="
M59.883232,37.779343 
	C59.667309,37.898174 59.411118,37.713497 59.107735,37.230972 
	C59.326797,37.102913 59.587605,37.283817 59.883232,37.779343 
z"/>
<path fill="#E5F1ED" opacity="0.000000" stroke="none" 
	d="
M19.446590,94.980789 
	C18.787014,91.018234 19.265749,87.392059 21.377211,83.744522 
	C22.730532,81.406654 24.042864,80.810173 26.721615,80.968918 
	C27.963009,80.826927 28.387251,81.327583 28.831474,82.276123 
	C29.283220,83.712799 28.879560,85.045891 30.132187,86.143181 
	C30.564768,86.386147 30.743799,86.478188 31.170803,86.750458 
	C32.134750,87.686539 32.675903,88.589981 33.665180,89.540314 
	C37.871078,93.800072 41.792561,97.886688 46.624851,101.502136 
	C49.045856,105.903580 54.065239,104.984932 57.327724,107.848877 
	C57.779961,109.287292 57.416435,110.214722 56.411793,111.305702 
	C51.717850,113.932343 46.539864,113.652473 41.702908,115.891968 
	C39.668186,116.947807 37.873451,117.292313 35.597141,117.129150 
	C33.493801,116.762909 31.798649,116.318901 29.708157,116.007843 
	C26.038925,115.711884 21.926678,112.946075 20.314690,119.042892 
	C19.125853,120.237366 18.013710,120.752380 16.332138,120.220795 
	C16.011518,119.003319 15.999687,118.009293 15.997073,117.015244 
	C15.977098,109.419266 15.973695,109.286194 23.350948,109.066566 
	C26.184675,108.982208 27.280048,107.977768 27.016727,105.238838 
	C26.922037,104.253929 27.008591,103.252121 27.002367,102.258095 
	C26.951109,94.072289 27.733114,95.096718 19.446590,94.980789 
z"/>
<path fill="#EBF5F3" opacity="0.000000" stroke="none" 
	d="
M83.098221,129.457870 
	C82.592300,132.890091 79.526604,132.280182 77.769562,133.509720 
	C76.507118,134.393158 74.464546,134.182419 74.040306,136.629440 
	C63.643131,136.990753 53.289043,136.992874 42.466156,136.990112 
	C41.023605,135.953476 40.824322,134.702988 41.037685,132.976212 
	C41.301514,131.864304 41.636002,131.195099 42.290871,130.293213 
	C46.108162,129.264679 49.723499,128.570496 52.370689,125.138245 
	C53.322418,124.259834 54.196453,124.077484 55.449097,124.050095 
	C55.994755,124.100655 56.209415,124.137566 56.734142,124.261932 
	C57.831333,124.623154 58.622749,124.877914 59.779095,124.891373 
	C60.299503,124.881081 60.508358,124.875496 61.032104,124.861160 
	C61.557835,124.847519 61.768677,124.842636 62.296730,124.833466 
	C64.097076,124.849152 65.580299,124.862305 67.377777,124.894730 
	C67.899597,124.922020 68.107025,124.940605 68.619652,125.010818 
	C69.122169,125.115044 69.319481,125.167641 69.801498,125.323730 
	C70.455200,125.580132 70.827782,125.723755 71.491425,125.934906 
	C72.169746,126.106926 72.558624,126.209160 73.244614,126.390541 
	C74.156311,126.612022 74.774239,126.729774 75.743301,126.756927 
	C77.740791,126.792107 79.410393,126.687210 81.401627,127.205498 
	C82.460480,127.719170 82.904854,128.311737 83.098221,129.457870 
z"/>
<path fill="#E5F2EF" opacity="0.000000" stroke="none" 
	d="
M16.011698,120.465714 
	C17.222624,119.655785 18.426167,119.314209 20.004433,118.915955 
	C22.744963,118.823105 24.615536,120.599838 27.312233,120.668991 
	C29.634319,120.810944 31.617020,120.634560 33.936485,121.119423 
	C34.523788,121.366600 34.744408,121.499367 35.190186,121.947319 
	C35.560425,122.766518 35.556274,123.268867 35.172798,124.070755 
	C32.235004,125.257042 30.013721,126.322617 30.008989,129.906540 
	C30.005093,132.858612 27.777056,134.801514 25.253605,136.728638 
	C16.001417,137.030441 16.001190,137.030441 16.001234,127.823776 
	C16.001245,125.527206 16.003235,123.230644 16.011698,120.465714 
z"/>
<path fill="#E8F3F1" opacity="0.000000" stroke="none" 
	d="
M25.465481,136.988724 
	C26.645645,133.268127 29.732811,130.315781 29.369732,125.535233 
	C29.181093,123.051506 32.548225,124.414612 34.732506,123.950974 
	C35.380741,123.854736 35.584492,123.778923 36.081795,123.847168 
	C37.174427,124.741173 37.721722,125.692970 38.615326,126.789856 
	C39.735992,128.564621 41.501625,129.461945 41.967804,131.664154 
	C41.999424,133.384842 41.999306,134.770096 41.998272,136.570282 
	C36.642658,136.988724 31.287956,136.992233 25.465481,136.988724 
z"/>
<path fill="#BEA430" opacity="1.000000" stroke="none" 
	d="
M96.100189,107.781631 
	C95.459450,108.100754 95.080086,108.217415 94.409180,108.394730 
	C92.473503,107.652390 91.337517,108.657471 89.889481,109.759689 
	C87.841728,110.993843 85.907051,111.258186 83.520363,111.192657 
	C81.151466,110.943840 79.791451,109.809975 78.573380,107.838852 
	C77.882568,106.577339 77.512032,105.607346 77.253143,104.196182 
	C77.384674,101.628372 78.887680,101.514587 80.926949,101.661888 
	C90.189293,102.759399 90.651962,102.432625 93.979156,92.674942 
	C95.896263,91.685287 97.458954,91.744873 99.229507,93.051346 
	C100.019180,97.231308 102.988808,100.474274 102.179153,104.926758 
	C100.613762,106.288673 98.846184,106.057846 97.115105,106.934486 
	C96.688774,107.283798 96.525169,107.431488 96.100189,107.781631 
z"/>
<path fill="#655F4B" opacity="1.000000" stroke="none" 
	d="
M152.205566,114.273666 
	C144.601410,111.979988 137.326172,109.023094 129.327698,107.113174 
	C128.695557,106.160233 128.988205,105.545967 129.697357,104.740326 
	C131.419891,103.763657 133.050018,103.946304 134.921936,103.622437 
	C135.472519,103.581467 135.693100,103.573364 136.242523,103.526764 
	C141.563156,106.127380 146.554977,108.766502 151.805267,111.623070 
	C152.412918,112.458382 152.546158,113.119743 152.205566,114.273666 
z"/>
<path fill="#463F2D" opacity="1.000000" stroke="none" 
	d="
M118.741035,91.843994 
	C119.553566,91.993904 119.982071,92.032028 120.706512,92.205902 
	C121.207726,92.421829 121.412987,92.501999 121.916191,92.725327 
	C122.597122,92.950951 122.980110,93.033417 123.657280,93.134155 
	C126.549919,94.250435 129.148376,95.348450 132.039490,96.655563 
	C132.531281,98.760704 130.612976,98.921104 129.468658,100.174614 
	C128.914368,100.456352 128.674896,100.537453 128.053162,100.650490 
	C122.211647,98.350990 116.019455,98.477898 110.655563,95.234238 
	C112.260262,91.501717 115.963539,93.251671 118.741035,91.843994 
z"/>
<path fill="#834E26" opacity="1.000000" stroke="none" 
	d="
M98.398956,132.571716 
	C96.277885,133.663086 94.264442,130.582672 92.257561,133.182877 
	C91.939362,133.388504 91.489792,133.372269 91.265869,133.351105 
	C90.749992,133.120728 90.458046,132.911484 90.045319,132.461441 
	C89.810875,132.007523 89.697197,131.794403 89.617744,131.220230 
	C93.224976,125.187973 93.435776,125.107964 99.589439,127.384933 
	C100.944893,128.608078 100.646431,129.769043 100.023987,131.261230 
	C99.544090,131.956543 99.180305,132.264328 98.398956,132.571716 
z"/>
<path fill="#B26B3A" opacity="1.000000" stroke="none" 
	d="
M100.054710,127.796661 
	C96.174866,126.922676 92.679024,126.118378 90.517982,130.807678 
	C89.194077,130.281235 88.644310,129.438660 88.468315,127.940552 
	C89.011818,125.554665 88.961014,123.012383 92.511002,123.792572 
	C94.600731,125.816589 97.163353,124.987808 99.559586,126.024323 
	C100.356377,126.485146 100.489281,126.958694 100.054710,127.796661 
z"/>
<path fill="#DCD6CD" opacity="0.000000" stroke="none" 
	d="
M102.872284,127.081528 
	C104.704521,127.385612 107.739616,126.023552 107.346169,128.578735 
	C106.947334,131.168915 106.391487,135.345825 101.266418,133.498535 
	C100.007843,130.899002 101.098877,129.048676 102.872284,127.081528 
z"/>
<path fill="#CA8B52" opacity="1.000000" stroke="none" 
	d="
M92.885422,123.634232 
	C89.926735,123.459007 90.140755,125.797935 89.372421,127.685120 
	C88.919876,127.752625 88.714096,127.579788 88.317833,127.051422 
	C87.617516,125.142311 87.728584,123.534050 87.707718,121.540741 
	C87.826408,119.286674 88.217308,117.499733 89.314011,115.519058 
	C91.001007,114.246376 91.285172,115.295662 91.779175,116.685310 
	C93.030930,118.963554 92.653641,121.145470 92.885422,123.634232 
z"/>
<path fill="#B37941" opacity="1.000000" stroke="none" 
	d="
M88.529175,120.621132 
	C88.924255,122.504448 88.953285,124.341812 88.959114,126.637680 
	C87.987823,128.160599 86.565567,128.233200 85.195648,129.073715 
	C84.753227,130.021378 84.212059,130.043472 83.341766,129.897476 
	C82.792152,129.354401 82.522995,128.867081 82.133110,128.125031 
	C81.357025,127.560982 80.786362,127.180008 80.889023,126.042244 
	C82.189949,124.900276 83.423340,125.183884 84.721718,125.189903 
	C85.835640,125.195068 84.207756,124.729340 84.532242,124.002533 
	C84.992012,121.766449 86.375832,120.931107 88.529175,120.621132 
z"/>
<path fill="#8C805E" opacity="1.000000" stroke="none" 
	d="
M152.185150,114.930099 
	C151.975891,114.082260 152.004089,113.441788 152.048004,112.320915 
	C155.119843,112.384071 157.453613,113.973000 159.073105,116.650101 
	C156.414032,117.955338 154.493179,116.220375 152.185150,114.930099 
z"/>
<path fill="#A09866" opacity="1.000000" stroke="none" 
	d="
M96.321060,108.039200 
	C95.855034,107.816483 95.871239,107.648865 95.920609,107.230850 
	C97.166672,105.770226 98.782463,106.131302 100.606445,105.788803 
	C105.437660,105.522392 109.901810,105.272522 114.703110,105.518646 
	C115.357140,106.145607 115.490974,106.626755 115.227219,107.487595 
	C108.947510,107.907608 102.875404,108.000961 96.321060,108.039200 
z"/>
<path fill="#B7B097" opacity="1.000000" stroke="none" 
	d="
M102.949799,126.670181 
	C102.556602,128.769394 101.880852,130.656723 101.089890,132.910553 
	C100.509224,133.229385 100.043755,133.181732 99.242676,133.031158 
	C98.811760,132.770096 98.716469,132.611954 98.758224,132.213135 
	C99.221405,130.897736 99.547523,129.823029 99.825821,128.413895 
	C99.846649,127.640213 99.915306,127.200951 99.958328,126.427452 
	C100.844208,126.214912 101.755722,126.336601 102.949799,126.670181 
z"/>
<path fill="#B37941" opacity="1.000000" stroke="none" 
	d="
M92.065758,116.590149 
	C91.574730,116.446648 91.141716,115.899605 90.528931,115.148605 
	C88.742432,114.024155 88.883881,112.546204 89.272705,110.633759 
	C90.261597,109.401985 90.997139,108.426430 92.749222,108.798203 
	C92.794914,111.402824 92.459343,113.794716 92.065758,116.590149 
z"/>
<path fill="#463F2D" opacity="1.000000" stroke="none" 
	d="
M129.888000,104.741203 
	C129.711792,105.536362 129.463562,105.982552 129.118103,106.666809 
	C127.995354,106.882042 126.969849,106.859200 125.562424,106.781525 
	C124.984894,106.604301 124.789291,106.481895 124.361412,106.100525 
	C123.403328,104.444008 123.987717,103.634399 125.676697,103.090370 
	C126.737572,102.940933 127.442734,103.000778 128.476715,103.282471 
	C129.225784,103.653259 129.560318,103.982727 129.888000,104.741203 
z"/>
<path fill="#8C805E" opacity="1.000000" stroke="none" 
	d="
M124.850624,105.950218 
	C125.182686,106.260895 125.301781,106.494835 125.241135,106.610764 
	C122.069435,107.124878 118.958366,107.523056 115.433464,107.867744 
	C115.009979,107.405617 115.000328,106.996986 114.989372,106.281715 
	C115.867546,104.963448 117.075768,104.795761 118.760727,104.653603 
	C121.086098,104.427277 122.852493,104.771431 124.850624,105.950218 
z"/>
<path fill="#655F4B" opacity="1.000000" stroke="none" 
	d="
M131.769882,99.722488 
	C133.913528,100.333672 135.178772,101.496704 136.395660,103.218414 
	C136.571350,103.488266 136.224091,103.801071 136.041183,103.946518 
	C132.867645,105.115395 131.321289,103.759392 130.712952,100.543411 
	C130.967880,99.980301 131.173660,99.812775 131.769882,99.722488 
z"/>
<path fill="#773F15" opacity="1.000000" stroke="none" 
	d="
M85.278702,129.269684 
	C85.347534,127.569183 86.546234,126.987167 88.571976,127.071915 
	C88.935921,127.096169 89.012634,127.515198 89.069138,127.720337 
	C89.430016,128.690201 89.734383,129.454926 90.111496,130.519379 
	C90.135330,131.051636 90.086418,131.284180 89.981026,131.868683 
	C88.434296,131.897278 88.229645,130.424133 87.116104,129.277527 
	C86.654190,129.212769 86.531860,129.330627 86.246475,129.252701 
	C85.903694,129.100922 85.723976,129.144958 85.278702,129.269684 
z"/>
<path fill="#B7B097" opacity="1.000000" stroke="none" 
	d="
M132.319824,99.563385 
	C131.967499,99.830856 131.774673,99.861984 131.295410,99.954681 
	C130.585678,100.400932 130.095245,100.529427 129.210022,100.171844 
	C128.706589,97.567383 130.799606,98.139435 132.163422,97.204987 
	C134.513474,97.558029 134.062866,98.408684 132.319824,99.563385 
z"/>
<path fill="#CDAC77" opacity="1.000000" stroke="none" 
	d="
M93.336693,109.007126 
	C92.328270,109.249107 91.526047,109.487282 90.458984,109.904190 
	C90.030647,109.952705 89.867149,109.822487 89.828568,109.404709 
	C90.438538,106.456505 91.917229,106.554680 93.951965,108.096039 
	C94.022995,108.739670 93.831413,108.922310 93.336693,109.007126 
z"/>
<path fill="#EBF5F3" opacity="0.000000" stroke="none" 
	d="
M91.126755,133.450195 
	C91.041939,133.329956 91.496353,133.273926 91.717857,133.331207 
	C91.939362,133.388504 91.610077,133.657410 91.610077,133.657410 
	C91.610077,133.657410 91.211578,133.570435 91.126755,133.450195 
z"/>
<path fill="#B37941" opacity="1.000000" stroke="none" 
	d="
M86.183868,129.149536 
	C86.217834,128.903656 86.381714,128.859131 86.675774,129.009094 
	C86.776512,129.094894 86.555717,129.253235 86.555717,129.253235 
	C86.555717,129.253235 86.284325,129.242188 86.183868,129.149536 
z"/>
<path fill="#B26B3A" opacity="1.000000" stroke="none" 
	d="
M98.711121,132.026123 
	C98.895294,131.972458 98.967239,132.449661 98.937149,132.688950 
	C98.907059,132.928238 98.447456,132.882339 98.248062,132.767487 
	C98.115570,132.384369 98.274994,132.193436 98.711121,132.026123 
z"/>
<path fill="#251D0D" opacity="1.000000" stroke="none" 
	d="
M15.554150,45.133358 
	C16.612535,42.083481 18.655346,40.627342 21.547512,39.625237 
	C24.461586,39.835037 27.237640,38.365749 29.808830,40.697617 
	C30.109247,41.131794 30.184961,41.330006 30.191055,41.832825 
	C29.872915,42.443119 29.602726,42.727737 29.111744,43.164825 
	C28.680689,43.585526 28.518084,43.868298 28.463997,44.431816 
	C28.642086,44.977646 28.846567,45.248253 29.304020,45.692348 
	C30.516399,46.879337 30.978546,48.032066 30.462175,49.754272 
	C30.128115,50.225094 29.948671,50.380573 29.441813,50.685013 
	C28.647640,50.963085 28.172276,51.042133 27.324997,51.081985 
	C26.477253,51.043114 26.000502,50.964027 25.191078,50.725426 
	C23.238125,49.523548 21.438810,49.117184 19.150278,49.113358 
	C18.533447,49.028980 18.286163,48.978245 17.677917,48.794914 
	C16.086416,47.969341 15.297848,47.010628 15.554150,45.133358 
z"/>
<path fill="#BEA430" opacity="1.000000" stroke="none" 
	d="
M18.810757,48.836494 
	C21.052492,47.855789 23.039808,46.993484 24.880196,49.542400 
	C21.881414,53.147247 24.334911,56.457809 24.977171,60.116806 
	C25.038437,61.269665 24.873482,62.011578 24.203732,62.973320 
	C21.916264,60.793968 19.918442,58.343460 17.783947,55.583530 
	C17.683090,54.659634 17.686357,54.043221 17.781330,53.120304 
	C17.833353,52.389347 17.863028,51.969055 17.916466,51.225075 
	C18.018246,50.240414 18.199326,49.612823 18.810757,48.836494 
z"/>
<path fill="#D37D2D" opacity="1.000000" stroke="none" 
	d="
M18.820391,48.412495 
	C19.056215,49.232857 19.038864,49.832779 19.010258,50.737518 
	C18.500528,51.456036 18.164146,51.915859 18.777580,52.807308 
	C18.741703,53.653069 18.488537,54.275646 17.941322,55.086163 
	C14.211751,54.108395 10.776229,52.942688 7.080103,51.521774 
	C6.622894,50.788948 6.666646,50.344082 7.313832,49.762207 
	C10.850971,49.270668 13.951827,48.060459 17.578934,48.157604 
	C18.129709,48.097561 18.348463,48.144810 18.820391,48.412495 
z"/>
<path fill="#463F2D" opacity="1.000000" stroke="none" 
	d="
M30.412479,42.294315 
	C27.947945,39.475040 24.882524,40.623577 22.054369,39.848976 
	C24.829576,38.083740 27.982864,37.977512 31.581972,37.939186 
	C32.891190,38.381870 33.609966,39.267490 35.104828,39.071201 
	C36.598465,41.641941 33.879517,41.284248 32.589733,42.412392 
	C31.728266,42.646255 31.227453,42.633377 30.412479,42.294315 
z"/>
<path fill="#E89F54" opacity="1.000000" stroke="none" 
	d="
M17.651524,47.834938 
	C15.009695,49.417477 12.230453,51.356915 8.382309,49.960976 
	C7.834107,49.758747 7.652771,49.599319 7.657480,49.129150 
	C7.843525,48.818409 7.920150,48.847942 7.902937,48.885216 
	C8.221620,48.824997 8.477884,48.625301 8.813091,48.131844 
	C10.709123,46.379814 12.895034,45.692928 15.344242,44.803883 
	C16.257101,45.714245 16.824596,46.666901 17.651524,47.834938 
z"/>
<path fill="#C9B033" opacity="1.000000" stroke="none" 
	d="
M23.978188,63.613266 
	C23.956686,62.416943 23.999287,61.589413 24.066120,60.349148 
	C28.234760,59.137455 28.576654,62.223656 28.768845,64.905434 
	C28.928801,67.137451 28.284800,69.413681 28.121948,72.081146 
	C27.978773,72.725204 27.897169,72.976814 27.605495,73.563812 
	C27.172207,74.038475 26.948988,74.177765 26.359966,74.168900 
	C26.187759,70.510361 25.257347,67.218536 23.978188,63.613266 
z"/>
<path fill="#C9B033" opacity="1.000000" stroke="none" 
	d="
M28.225702,82.912361 
	C27.965950,82.100403 27.799734,81.625374 27.385481,81.053421 
	C27.098127,80.215096 27.058811,79.473701 27.082361,78.365578 
	C28.062035,77.194290 28.773062,77.667618 29.612350,78.649467 
	C30.131376,79.671486 30.324970,80.504562 31.243942,81.256348 
	C32.044838,81.800316 32.582699,82.171806 33.301506,82.869926 
	C33.614132,83.362762 33.706577,83.582840 33.864357,84.160805 
	C33.961987,85.278694 33.805679,85.995140 33.172440,86.937531 
	C32.450401,87.469315 31.961197,87.552536 31.115936,87.265594 
	C30.789305,87.068207 30.413752,87.005753 30.228050,86.963913 
	C28.644218,86.084282 28.724871,84.552719 28.225702,82.912361 
z"/>
<path fill="#CCB02B" opacity="1.000000" stroke="none" 
	d="
M29.354759,80.236801 
	C28.940910,79.168175 28.766165,78.365288 27.454433,78.050293 
	C27.078362,77.812057 27.011494,77.625259 26.814182,77.170944 
	C26.506765,76.259392 26.516273,75.601166 26.594019,74.618240 
	C26.653442,74.294228 26.860500,74.134911 26.960415,74.050766 
	C27.672379,73.431168 28.383478,73.222694 29.552816,73.454971 
	C30.111887,73.760681 30.305996,73.933571 30.709213,74.436493 
	C31.444933,75.972748 31.842415,77.207550 31.660988,78.930664 
	C31.169609,80.069672 30.559778,80.473305 29.354759,80.236801 
z"/>
<path fill="#B29D6D" opacity="1.000000" stroke="none" 
	d="
M7.539202,48.827621 
	C7.879002,49.000950 7.914477,49.183491 7.982698,49.642105 
	C7.709355,50.184113 7.403267,50.450047 6.958339,50.991280 
	C6.391199,50.910049 5.588675,50.531647 5.607989,50.201294 
	C5.656940,49.363998 6.430584,48.993290 7.539202,48.827621 
z"/>
<path fill="#E5F1ED" opacity="0.000000" stroke="none" 
	d="
M26.487457,74.228661 
	C26.691402,74.947433 26.729361,75.600639 26.725529,76.578644 
	C26.456051,76.149101 26.228361,75.394760 25.997417,74.330574 
	C25.994164,74.020729 26.321474,74.163094 26.487457,74.228661 
z"/>
<path fill="#B29D6D" opacity="1.000000" stroke="none" 
	d="
M8.718993,48.017471 
	C8.777189,48.218639 8.582714,48.497009 8.136982,48.848934 
	C8.079257,48.646553 8.272789,48.370613 8.718993,48.017471 
z"/>
<path fill="#1E1B10" opacity="1.000000" stroke="none" 
	d="
M118.916473,91.658752 
	C117.253754,94.865990 114.009514,93.544983 111.233002,94.728119 
	C110.573090,95.464211 110.075180,95.759453 109.054138,95.970428 
	C105.575798,95.243469 102.226440,96.049530 99.252045,93.848297 
	C97.671623,93.223793 96.212997,93.014214 94.387283,92.872757 
	C92.951515,94.036591 91.674454,93.555199 90.064041,93.385689 
	C88.668755,93.308884 87.662956,93.163986 86.282082,92.930664 
	C82.566559,91.578316 78.816925,91.749992 75.349228,89.687347 
	C74.494476,86.213280 77.294266,85.245438 79.134415,84.852592 
	C84.935516,83.614166 89.094215,79.983955 93.711914,76.294594 
	C94.079811,76.237724 94.556877,76.248489 94.777374,76.157379 
	C98.777878,78.293335 102.557877,80.520401 106.646584,82.907059 
	C107.095695,83.249763 107.236107,83.432884 107.234978,83.930511 
	C106.039955,85.178436 104.690163,85.428230 103.088898,85.935265 
	C102.159103,86.223122 101.532166,86.371201 100.813347,86.943100 
	C100.614418,87.114021 100.404022,87.509712 100.404022,87.509712 
	C100.404022,87.509712 100.736191,87.817192 101.000237,87.847305 
	C101.631187,87.908783 101.997345,87.947296 102.648895,88.025528 
	C103.690285,88.156235 104.447289,88.278809 105.437271,87.762520 
	C105.890099,87.528008 106.076408,87.437950 106.562233,87.248337 
	C107.931503,86.908913 108.998940,86.920036 110.365448,87.295227 
	C110.835381,87.542892 111.003944,87.673714 111.297462,88.095009 
	C111.524651,89.078407 111.941071,89.466629 112.915703,89.650803 
	C115.279610,89.494865 117.003441,90.396423 118.916473,91.658752 
z"/>
<path fill="#85826D" opacity="1.000000" stroke="none" 
	d="
M106.942093,84.878448 
	C107.098381,84.350838 107.046532,84.096916 106.974991,83.454819 
	C109.196030,83.761047 110.912804,85.132744 112.193359,87.439453 
	C112.041328,87.991570 111.864861,88.204155 111.280045,88.345955 
	C109.445038,88.161804 108.018379,88.048439 106.207207,87.737656 
	C105.348328,86.447281 106.132217,85.834473 106.942093,84.878448 
z"/>
<path fill="#85826D" opacity="1.000000" stroke="none" 
	d="
M113.239014,89.490341 
	C112.527405,90.103470 111.849808,90.087303 111.067108,89.269493 
	C111.223351,88.816895 111.502289,88.708298 112.188484,88.788727 
	C112.916061,88.868980 113.136337,88.972755 113.239014,89.490341 
z"/>
<path fill="#463F2D" opacity="1.000000" stroke="none" 
	d="
M112.594688,88.648613 
	C112.321152,88.952545 112.046547,88.927338 111.358170,88.913811 
	C110.944405,88.925499 110.890358,88.600983 110.881027,88.438080 
	C111.094536,88.188698 111.317360,88.102226 111.878998,87.897369 
	C112.343079,87.959145 112.468353,88.139305 112.594688,88.648613 
z"/>
<path fill="#655F4B" opacity="1.000000" stroke="none" 
	d="
M122.056236,92.687759 
	C122.214134,92.868477 121.737129,92.903664 121.737129,92.903664 
	C121.737129,92.903664 121.295975,92.718925 121.149216,92.530289 
	C121.337357,92.200294 121.635979,92.255417 122.056236,92.687759 
z"/>
<path fill="#F8D63C" opacity="1.000000" stroke="none" 
	d="
M29.946121,42.199245 
	C30.518669,42.080688 30.942085,42.074070 31.685736,42.040623 
	C34.742329,47.099545 37.513634,47.135281 42.938141,43.716774 
	C45.060928,44.964985 46.866325,46.102707 48.880951,47.480751 
	C50.707882,49.905743 50.415115,53.641624 54.550339,54.140888 
	C55.319336,54.245663 55.763592,54.255398 56.541496,54.289253 
	C57.496811,54.191616 58.030560,54.452366 58.732399,54.947685 
	C58.897980,55.193157 58.945831,55.108288 58.898170,55.098221 
	C59.161854,55.231049 59.428085,55.433319 59.813957,55.888222 
	C59.978741,56.081448 60.047424,56.457657 60.089386,56.644211 
	C60.535416,59.392559 63.443611,61.348824 61.626236,64.579010 
	C57.122284,66.062195 52.756447,64.902985 48.178024,65.880959 
	C45.072952,66.185104 42.481304,66.620613 41.376755,70.137360 
	C37.257439,72.278458 34.064171,71.693199 32.172523,68.805176 
	C30.656385,66.490456 32.218513,61.568089 35.807930,58.475067 
	C39.390377,59.710270 41.922337,58.221539 44.319542,56.367165 
	C45.022377,55.823479 45.339344,54.719242 44.576950,54.232471 
	C42.148884,52.682186 39.355335,52.422874 36.539577,52.604881 
	C35.562321,52.668049 34.661674,53.199833 33.318802,53.397667 
	C32.442120,53.369587 31.946804,53.262749 31.100567,52.937302 
	C29.742105,52.126064 29.211271,51.277431 29.594318,49.642307 
	C29.932398,47.943405 29.575626,46.901951 28.168072,46.066654 
	C27.743824,45.805191 27.608158,45.625988 27.294849,45.160240 
	C27.352695,44.439381 27.588186,44.005074 27.960440,43.363789 
	C28.246302,42.785942 28.499760,42.506435 29.133741,42.319710 
	C29.424757,42.334122 29.796989,42.311184 29.946121,42.199245 
z"/>
<path fill="#18170D" opacity="1.000000" stroke="none" 
	d="
M87.614975,72.818138 
	C89.046844,73.155365 90.122276,73.324341 90.998344,74.622696 
	C90.951180,80.225113 86.272102,81.560478 82.762123,83.261147 
	C78.499641,85.326416 74.021980,87.093193 69.199188,88.956955 
	C63.130444,88.829948 57.604321,88.088234 52.763298,84.020988 
	C51.965828,81.679314 52.749928,80.538048 54.812538,80.347145 
	C56.842480,80.159264 58.513851,79.236679 60.355301,77.820526 
	C61.244724,77.297516 61.895905,77.135010 62.889473,77.056503 
	C64.374710,77.232735 65.055504,76.555420 65.845337,75.427368 
	C67.018013,74.334946 68.152100,74.067223 69.759933,74.152710 
	C74.828751,75.509232 79.072685,73.594620 83.789749,72.236977 
	C85.248802,72.018547 86.296577,72.107750 87.614975,72.818138 
z"/>
<path fill="#E3CE55" opacity="1.000000" stroke="none" 
	d="
M87.807709,72.742661 
	C86.880592,73.106987 85.821770,73.156738 84.362045,73.252792 
	C79.514717,73.486908 75.343254,75.740196 70.410065,75.090622 
	C68.811531,74.931602 67.690384,75.204453 66.355186,76.071442 
	C65.519875,76.594742 65.022209,76.998505 64.052864,77.102486 
	C63.062393,77.373032 62.389286,77.640984 61.361763,77.992508 
	C58.201393,80.109474 55.140961,78.445366 51.833786,78.724121 
	C51.201805,78.786774 50.947350,78.806732 50.307964,78.822617 
	C48.632828,78.687996 47.390862,78.332069 45.768944,77.883156 
	C42.830601,76.317787 41.285614,74.437256 42.867805,71.048935 
	C45.799961,69.209557 49.683857,72.067268 52.068970,68.161606 
	C55.394932,65.965042 58.687588,67.029243 61.539524,67.901070 
	C66.463127,69.406197 71.242905,69.935608 76.239502,68.759705 
	C77.558601,68.449265 78.883438,68.901619 80.613693,69.012466 
	C83.239609,70.160149 85.457802,71.294128 87.807709,72.742661 
z"/>
<path fill="#FCE55D" opacity="1.000000" stroke="none" 
	d="
M80.850159,68.738045 
	C74.959679,70.249832 69.167885,72.423149 62.673382,69.511459 
	C60.028828,68.325829 56.182396,67.137657 52.388161,68.867905 
	C49.528774,70.449127 48.638435,68.116112 47.030922,66.654060 
	C46.753174,66.113091 46.685631,65.876137 46.810020,65.323318 
	C51.574600,63.008259 56.391338,64.421722 61.540688,63.999378 
	C65.929779,62.817001 69.702972,64.514435 73.881561,64.769539 
	C76.708893,65.463646 78.603226,67.123634 80.850159,68.738045 
z"/>
<path fill="#B7B097" opacity="1.000000" stroke="none" 
	d="
M69.333336,88.850433 
	C72.279739,86.321175 75.482887,84.652122 79.189308,83.567986 
	C83.805367,82.217781 87.863678,79.454880 91.093933,75.252243 
	C92.023125,75.159615 92.858749,75.427299 93.887085,75.966354 
	C91.643913,80.541946 87.729141,83.220345 83.277138,84.696541 
	C80.451218,85.633560 77.958969,87.027557 75.109467,88.538681 
	C73.217865,90.631561 71.384819,90.385582 69.333336,88.850433 
z"/>
<path fill="#F9E258" opacity="1.000000" stroke="none" 
	d="
M74.000221,64.646225 
	C70.334694,65.342735 66.385231,66.763664 62.389942,64.000275 
	C62.539749,61.400581 57.805054,60.548763 59.984344,57.143105 
	C64.686966,59.341164 69.242584,61.851562 74.000221,64.646225 
z"/>
<path fill="#E8CD3C" opacity="1.000000" stroke="none" 
	d="
M54.832417,53.952145 
	C48.594051,56.820019 49.792515,51.687206 49.061825,48.147560 
	C52.006149,48.186241 52.567108,50.947578 54.332840,52.965393 
	C54.673035,53.303963 54.731396,53.486160 54.832417,53.952145 
z"/>
<path fill="#E6F2EC" opacity="0.000000" stroke="none" 
	d="
M58.838295,54.912640 
	C58.353954,55.039383 57.809929,54.885612 57.070526,54.522606 
	C57.762962,52.906818 58.256035,53.857559 58.838295,54.912640 
z"/>
<path fill="#E6F2EC" opacity="0.000000" stroke="none" 
	d="
M59.868076,55.839615 
	C59.662273,55.921432 59.345806,55.761421 58.939922,55.344780 
	C59.152805,55.258034 59.455109,55.427910 59.868076,55.839615 
z"/>
<path fill="#F8DC48" opacity="1.000000" stroke="none" 
	d="
M43.062832,43.543106 
	C41.277527,46.208424 39.645943,48.280643 35.601589,47.243935 
	C32.626202,46.481236 31.699863,45.580360 32.005615,42.433975 
	C32.445889,40.417713 34.085339,40.332550 35.282410,39.277523 
	C38.434772,39.502602 40.694519,41.306549 43.062832,43.543106 
z"/>
<path fill="#AB9229" opacity="1.000000" stroke="none" 
	d="
M57.096367,108.288025 
	C53.083508,106.728561 48.448097,106.995934 46.268513,102.142548 
	C45.905445,101.457077 45.945744,101.101364 46.505882,100.644669 
	C46.961033,100.477333 47.155544,100.450096 47.639328,100.450180 
	C48.526257,100.588608 49.097950,100.450546 49.986099,100.245514 
	C52.613506,100.149651 54.352261,101.513618 56.151524,102.648544 
	C58.651554,104.225487 61.067406,104.406548 63.851334,102.478798 
	C65.492294,102.126907 66.651558,102.559578 68.124542,103.278809 
	C70.041328,105.273758 73.470512,105.367271 73.155746,109.057068 
	C71.599648,110.299530 70.106598,110.265434 68.245850,109.994759 
	C66.674202,109.599991 65.796432,108.307747 64.018456,108.666443 
	C61.992073,108.512894 60.303513,108.808594 58.282398,108.847809 
	C57.763748,108.677711 57.569748,108.571999 57.096367,108.288025 
z"/>
<path fill="#B2A18D" opacity="1.000000" stroke="none" 
	d="
M27.287588,121.643875 
	C24.706720,121.723915 22.734772,120.647598 20.657875,119.020164 
	C18.727661,115.509621 19.729008,113.863983 23.499264,114.059723 
	C25.134066,114.144592 26.764305,114.317398 28.700378,114.698471 
	C31.680954,117.831818 27.429829,119.097572 27.287588,121.643875 
z"/>
<path fill="#B26B3A" opacity="1.000000" stroke="none" 
	d="
M34.661919,116.518990 
	C36.734055,115.628876 38.716206,116.446091 40.758396,115.185440 
	C43.149029,114.063393 45.032364,114.106941 46.950485,116.067665 
	C47.301010,116.588577 47.411602,116.814392 47.584114,117.404922 
	C47.617516,118.008858 47.588997,118.248085 47.409752,118.808617 
	C44.995396,121.156609 42.160412,121.490623 39.040550,121.988968 
	C38.565094,122.280174 38.369438,122.391991 37.853142,122.622940 
	C36.841164,122.897034 36.162624,122.871773 35.190212,122.445068 
	C34.878685,122.292267 34.839561,122.155426 34.903137,122.123459 
	C33.716728,120.471962 33.510208,118.729942 34.661919,116.518990 
z"/>
<path fill="#BEA430" opacity="1.000000" stroke="none" 
	d="
M48.222652,100.650536 
	C47.485092,101.093040 46.954540,101.246567 46.254524,101.623032 
	C40.917892,99.131371 37.244308,94.683022 33.263477,90.122650 
	C34.252342,88.999039 35.230507,88.939102 36.594536,89.014122 
	C37.932350,89.227570 38.851452,89.573372 40.112251,90.050278 
	C40.653164,90.332016 40.857380,90.466064 41.298065,90.878143 
	C42.294167,93.679451 43.460312,95.850136 45.961723,97.142754 
	C47.206364,97.785927 48.561428,98.562698 48.222652,100.650536 
z"/>
<path fill="#834E26" opacity="1.000000" stroke="none" 
	d="
M34.617157,116.007164 
	C34.991741,117.863907 35.012852,119.554581 35.000336,121.668373 
	C32.625839,122.065262 30.284964,122.039024 27.508730,121.963348 
	C26.001213,119.246277 27.642595,117.425613 29.034061,115.241470 
	C30.762836,115.212372 32.703609,114.407372 34.617157,116.007164 
z"/>
<path fill="#C18850" opacity="1.000000" stroke="none" 
	d="
M47.605434,117.139511 
	C45.495720,116.243050 44.102665,114.521553 41.504585,115.067871 
	C45.460930,112.499756 50.557541,112.608025 55.564892,110.995369 
	C58.623795,110.206329 58.786327,111.500931 57.806847,113.839630 
	C54.522900,115.676544 51.262100,116.491318 47.605434,117.139511 
z"/>
<path fill="#B29D6D" opacity="1.000000" stroke="none" 
	d="
M57.181850,114.259010 
	C57.362675,112.907661 58.668015,111.744186 56.262207,111.010315 
	C56.256172,110.214417 56.553066,109.471375 56.833473,108.419052 
	C57.005157,108.087875 57.193329,108.065979 57.664711,108.020859 
	C59.363045,109.153992 61.019215,108.007431 62.853912,108.501236 
	C63.435284,108.558266 63.669197,108.588806 64.226898,108.775734 
	C64.720215,109.107063 64.889740,109.282005 65.235550,110.165146 
	C63.099976,115.662888 61.830853,116.248833 57.181850,114.259010 
z"/>
<path fill="#E1F0EC" opacity="0.000000" stroke="none" 
	d="
M28.096907,82.992615 
	C28.730171,83.801254 29.328176,85.027077 29.984264,86.587486 
	C26.021057,87.646744 28.846834,84.510094 28.096907,82.992615 
z"/>
<path fill="#BEA430" opacity="1.000000" stroke="none" 
	d="
M30.857813,87.378662 
	C31.278708,87.046867 31.768108,87.025520 32.859818,87.240341 
	C33.749969,88.122650 33.760242,88.770294 33.264282,89.681702 
	C33.055866,89.943848 32.973869,90.021637 32.932156,90.060028 
	C32.235737,89.295311 31.581028,88.492210 30.857813,87.378662 
z"/>
<path fill="#E8F3F1" opacity="0.000000" stroke="none" 
	d="
M52.830006,124.712608 
	C53.356682,128.249634 48.246990,128.269867 48.847366,131.787796 
	C48.853786,131.825394 46.650925,132.262436 46.399982,131.155075 
	C45.892357,128.915054 44.284733,130.981064 43.256996,130.093857 
	C40.973660,130.086258 41.356705,128.735367 41.706787,127.216164 
	C42.732029,126.122841 43.816341,125.937599 45.170429,125.674942 
	C45.796589,125.596985 46.140930,125.573853 46.446014,125.325859 
	C46.404911,124.728836 46.484013,124.391388 46.801872,123.845627 
	C47.153358,123.528870 47.322624,123.432312 47.776161,123.246803 
	C48.259686,123.127457 48.458942,123.097061 48.963600,123.058212 
	C49.680923,123.076118 50.087288,123.139328 50.787216,123.328888 
	C51.667278,123.677490 52.192947,124.017021 52.830006,124.712608 
z"/>
<path fill="#B37941" opacity="1.000000" stroke="none" 
	d="
M62.376835,125.694626 
	C61.855301,125.906776 61.676380,125.955391 61.225235,125.947083 
	C60.011314,124.894409 59.466743,123.755310 59.874912,122.011337 
	C64.642441,119.601524 69.112747,121.793953 73.992050,122.104019 
	C74.829330,122.454094 75.188393,122.800156 75.499039,123.636383 
	C75.519112,124.251343 75.471619,124.496048 75.207520,125.040825 
	C74.782211,125.466385 74.573494,125.591873 74.019562,125.823547 
	C72.507095,126.024597 71.331017,125.946487 69.841110,126.225777 
	C69.515015,126.342758 69.378242,126.396759 69.308548,126.373329 
	C67.251488,124.597893 64.887917,125.841171 62.376835,125.694626 
z"/>
<path fill="#87552A" opacity="1.000000" stroke="none" 
	d="
M69.565170,126.373428 
	C70.432289,125.048210 71.793282,124.963226 73.606712,124.995285 
	C74.180580,125.128052 74.343880,125.257912 74.765015,125.210434 
	C75.022865,125.033089 75.011871,125.001526 75.023216,125.017166 
	C75.588722,124.467415 76.269646,124.203217 77.429214,124.220337 
	C78.798866,124.491730 79.713013,124.891243 80.692261,125.878738 
	C81.178337,126.611763 81.471901,127.021355 81.888924,127.650620 
	C79.973915,127.919891 77.935440,127.969482 75.460175,128.005066 
	C74.619537,127.573189 74.087044,127.490471 73.292160,127.335251 
	C72.584641,127.145470 72.133018,127.045151 71.345505,126.854568 
	C70.703690,126.638542 70.428253,126.464531 69.956848,126.335304 
	C69.730385,126.428329 69.615326,126.404106 69.565170,126.373428 
z"/>
<path fill="#E5F2EF" opacity="0.000000" stroke="none" 
	d="
M43.240089,126.450104 
	C42.161606,127.455147 41.755730,128.337524 42.741241,129.789017 
	C42.832222,130.556091 42.661686,131.111267 42.245346,131.833008 
	C40.950535,130.306961 38.532330,129.847214 38.033451,127.290131 
	C38.552624,125.523376 39.718796,125.126396 41.488209,125.154816 
	C42.376568,125.378334 42.795540,125.666969 43.240089,126.450104 
z"/>
<path fill="#87552A" opacity="1.000000" stroke="none" 
	d="
M60.222618,121.698746 
	C60.348198,123.097366 60.680119,124.155678 60.982529,125.552078 
	C60.953014,125.890167 60.464302,125.983223 60.215927,125.996765 
	C59.314308,125.230972 58.379807,125.586159 57.270012,125.315109 
	C56.964787,125.213005 57.050140,125.078758 57.042107,124.999626 
	C56.885155,124.784164 56.736229,124.647842 56.486076,124.223389 
	C56.176170,122.895775 55.453732,121.999046 55.651497,120.537338 
	C57.774536,118.765823 59.554119,118.248306 60.222618,121.698746 
z"/>
<path fill="#967546" opacity="1.000000" stroke="none" 
	d="
M56.643944,123.748383 
	C56.853062,123.986229 56.928684,124.456268 56.981380,124.688385 
	C55.958668,124.915886 54.883259,124.911278 53.404396,124.941910 
	C52.486317,124.725235 51.971691,124.473328 51.244244,124.030670 
	C50.920132,123.658714 50.808842,123.477516 50.850716,123.016136 
	C51.192375,122.636818 51.380863,122.537682 51.884621,122.389557 
	C52.411247,122.357521 52.622593,122.374458 53.141693,122.464462 
	C54.053707,122.709946 54.655064,122.892860 55.569447,123.129517 
	C56.060066,123.315926 56.247444,123.413231 56.643944,123.748383 
z"/>
<path fill="#967546" opacity="1.000000" stroke="none" 
	d="
M62.476494,125.900681 
	C64.233261,124.445221 66.475487,124.753365 68.986176,126.019981 
	C67.132156,126.214333 65.025459,126.078766 62.476494,125.900681 
z"/>
<path fill="#E8F3F1" opacity="0.000000" stroke="none" 
	d="
M57.203423,125.428650 
	C57.826435,125.308823 58.688087,125.404633 59.758644,125.755379 
	C59.125717,125.888306 58.283890,125.766296 57.203423,125.428650 
z"/>
<path fill="#E1F0EC" opacity="0.000000" stroke="none" 
	d="
M73.226433,127.448448 
	C73.595047,127.328766 74.153824,127.411743 74.867989,127.742889 
	C74.487778,127.877739 73.952194,127.764420 73.226433,127.448448 
z"/>
<path fill="#967546" opacity="1.000000" stroke="none" 
	d="
M69.895927,126.605408 
	C70.046913,126.413231 70.363449,126.398132 70.844795,126.573669 
	C71.009613,126.764297 70.537575,126.881256 70.537575,126.881256 
	C70.537575,126.881256 70.061470,126.782478 69.895927,126.605408 
z"/>
<path fill="#C89C6A" opacity="1.000000" stroke="none" 
	d="
M34.927170,122.565834 
	C35.713894,122.256607 36.549099,122.220955 37.786621,122.312698 
	C38.557636,123.804283 37.918613,124.389275 36.271069,124.289963 
	C35.919743,124.113808 35.551109,124.008781 35.364052,123.969666 
	C35.109882,123.566826 35.042770,123.203117 34.927170,122.565834 
z"/>
<path fill="#D9CFB2" opacity="1.000000" stroke="none" 
	d="
M35.950737,124.426857 
	C36.714054,123.940140 37.627281,123.992973 38.095581,122.730301 
	C38.188931,122.440102 38.228054,122.180710 38.115669,122.113083 
	C39.272175,121.005302 40.589443,121.069527 42.223331,122.193604 
	C42.902546,123.326363 42.942986,124.163147 42.455872,125.386612 
	C41.047653,126.059464 39.864960,126.366562 38.341877,126.811745 
	C37.015053,126.499413 36.154335,125.934113 35.950737,124.426857 
z"/>
<path fill="#E5F2EF" opacity="0.000000" stroke="none" 
	d="
M34.607262,127.045547 
	C34.202736,127.790482 33.793884,127.796288 33.431389,127.268829 
	C33.355366,127.158203 33.357437,126.901192 33.435814,126.792938 
	C33.811272,126.274391 34.219921,126.293442 34.607262,127.045547 
z"/>
<path fill="#E9F2EC" opacity="0.000000" stroke="none" 
	d="
M56.583717,113.982773 
	C60.825195,115.768211 63.111187,113.888680 64.916801,110.298874 
	C65.356194,109.659523 65.747429,109.467293 66.527184,109.497253 
	C67.256142,109.764595 67.661148,109.953438 68.350235,110.326599 
	C69.728737,111.397774 70.921364,111.900948 72.678589,111.380424 
	C73.434509,111.203506 73.871399,111.141914 74.638489,111.114288 
	C76.053833,111.236710 77.090454,111.104805 78.339714,110.349503 
	C80.041313,109.672646 81.390884,110.867538 83.111252,110.198380 
	C85.490280,110.446045 87.356529,109.774910 89.587051,109.104187 
	C89.957748,109.286949 89.962006,109.456764 90.080200,109.854744 
	C90.210541,111.435745 90.226952,112.788582 90.296265,114.543022 
	C89.887688,116.611778 89.426208,118.278923 88.929977,120.306580 
	C87.703590,121.585152 86.511940,122.503235 85.139633,123.684479 
	C84.217323,124.841377 83.209106,124.950943 81.766449,124.860397 
	C79.923134,124.451042 78.642876,123.564194 76.765625,123.240295 
	C73.109314,121.695168 69.577332,121.048149 65.765907,119.950165 
	C60.770603,118.698509 56.164501,117.669571 51.384048,118.964912 
	C50.108063,119.310661 48.781555,119.184547 47.353477,118.070679 
	C47.087673,117.752640 47.216072,117.405792 47.223015,117.220978 
	C49.859955,114.965752 52.983162,114.363220 56.583717,113.982773 
z"/>
<path fill="#C3B585" opacity="1.000000" stroke="none" 
	d="
M99.083923,93.879517 
	C102.188896,93.808548 105.247543,94.183716 108.671616,94.746887 
	C105.973022,100.435356 107.235634,102.538536 113.728554,102.745117 
	C115.375397,102.797508 117.044815,102.676453 118.890099,103.626678 
	C119.411507,104.297302 119.485878,104.773186 119.203903,105.570396 
	C117.915443,105.897629 116.851303,105.926514 115.387619,105.965240 
	C110.575310,106.412888 106.180504,107.639191 101.429985,106.139648 
	C100.977348,105.862717 100.821495,105.723099 100.817581,105.308823 
	C102.577980,103.703697 101.836540,102.486008 100.812439,101.251762 
	C99.133362,99.228149 98.670639,96.880081 99.083923,93.879517 
z"/>
<path fill="#E1C537" opacity="1.000000" stroke="none" 
	d="
M89.728561,92.369980 
	C91.090027,92.286667 92.237701,92.458832 93.702782,92.785934 
	C93.975594,102.309669 91.456169,104.387474 81.411568,102.997276 
	C80.659798,102.610786 80.486038,102.162315 80.560852,101.292664 
	C81.378357,99.893745 82.443008,99.276497 83.795135,98.467888 
	C87.677605,98.094643 88.688568,95.447914 89.728561,92.369980 
z"/>
<path fill="#D7C131" opacity="1.000000" stroke="none" 
	d="
M80.776329,100.736465 
	C80.994652,101.456978 80.998177,101.894653 81.004593,102.660370 
	C80.067352,103.441635 78.805481,101.652275 78.027390,103.692581 
	C77.490547,104.562546 76.822403,104.777748 75.717346,104.727234 
	C73.164406,102.462456 70.790115,104.781136 68.242142,104.220383 
	C66.872757,103.732361 65.778175,103.437508 64.342735,103.115555 
	C63.858662,102.909790 63.715443,102.731125 63.509781,102.215172 
	C63.493877,101.654526 63.540424,101.431168 63.790459,100.933136 
	C64.373184,100.417374 64.778091,100.235229 65.534569,100.079254 
	C66.269501,100.016113 66.684822,100.015129 67.388214,100.016167 
	C68.513245,99.842705 68.931305,99.223099 69.472603,98.282532 
	C69.827179,97.899788 70.001724,97.775032 70.497215,97.588989 
	C71.482246,97.544998 72.135674,97.664536 73.132553,97.756500 
	C74.157402,97.821213 74.840179,97.899147 75.864563,98.070435 
	C77.774979,98.694916 79.202705,99.509422 80.776329,100.736465 
z"/>
<path fill="#9B8B2F" opacity="1.000000" stroke="none" 
	d="
M83.079956,110.062927 
	C82.026154,111.090858 80.334839,110.596489 78.400558,110.983513 
	C77.361740,111.576935 76.633713,111.750282 75.438751,111.412689 
	C74.643326,110.948273 74.374916,110.506927 74.234543,109.579712 
	C74.275909,108.927269 74.337112,108.670601 74.604889,108.076538 
	C75.880661,106.877579 77.099922,106.510048 78.816269,106.799332 
	C80.318802,108.026482 80.717499,109.955696 83.079956,110.062927 
z"/>
<path fill="#84751B" opacity="1.000000" stroke="none" 
	d="
M79.114944,106.648682 
	C77.983368,107.335167 76.801094,107.700485 75.248169,108.104385 
	C73.892929,107.015953 73.841827,105.746704 74.589417,103.987335 
	C75.652893,103.687836 76.433975,103.799789 77.608505,103.942314 
	C78.356049,104.757759 78.710144,105.542641 79.114944,106.648682 
z"/>
<path fill="#9B8B2F" opacity="1.000000" stroke="none" 
	d="
M100.575211,105.027550 
	C100.969513,105.034180 101.042297,105.519363 101.087746,105.760849 
	C99.928627,107.444664 98.274796,106.964737 96.350761,107.003868 
	C96.367973,104.181160 98.559059,105.215034 100.575211,105.027550 
z"/>
<path fill="#B2A18D" opacity="1.000000" stroke="none" 
	d="
M128.902435,99.972076 
	C129.355087,99.962471 129.827835,99.983131 130.654770,100.010010 
	C131.559799,102.225769 132.878082,103.641937 135.516693,104.069145 
	C134.431793,105.900017 132.428314,104.513885 130.362610,105.051056 
	C129.675293,104.983597 129.408569,104.842888 129.059113,104.465103 
	C128.216690,103.177544 127.901566,102.034096 128.735779,100.383247 
	C128.995087,99.998581 128.922531,100.002350 128.902435,99.972076 
z"/>
<path fill="#D9CFB2" opacity="1.000000" stroke="none" 
	d="
M128.610107,100.010063 
	C128.998947,101.134705 129.002808,102.270828 128.982513,103.834564 
	C128.248642,104.080284 127.538918,103.898407 126.476761,103.616898 
	C123.910263,102.698967 121.787331,103.246964 119.347549,104.017067 
	C117.053894,104.054024 114.953644,103.557144 113.146141,104.077385 
	C108.119019,105.524292 106.476166,101.604973 105.021996,98.643173 
	C103.731537,96.014824 107.349503,96.560265 108.826279,95.211990 
	C109.471809,94.918152 109.906586,94.901428 110.662254,94.952728 
	C114.336365,96.677765 118.203133,95.882210 121.612617,97.235001 
	C123.835403,98.116943 126.022217,99.089554 128.610107,100.010063 
z"/>
<path fill="#C89C6A" opacity="1.000000" stroke="none" 
	d="
M80.995689,123.781647 
	C82.375885,123.965897 83.313560,123.973015 84.605110,123.963898 
	C86.016472,127.971573 82.604019,125.143227 81.272568,126.150803 
	C79.984550,126.026009 79.084320,125.849838 77.963699,125.399574 
	C77.881691,123.143806 79.303841,123.533783 80.995689,123.781647 
z"/>
<path fill="#B2A18D" opacity="1.000000" stroke="none" 
	d="
M119.014381,104.383957 
	C120.712242,100.476448 123.318512,101.985542 125.969040,103.195175 
	C125.490585,104.056175 123.412926,103.862595 125.132782,105.915535 
	C123.407906,106.162987 121.633118,106.065071 119.418961,105.917953 
	C118.989128,105.472893 118.998672,105.077049 119.014381,104.383957 
z"/>
<path fill="#EFCD34" opacity="1.000000" stroke="none" 
	d="
M37.223423,58.706703 
	C32.340904,60.289299 32.951260,64.897606 32.957661,67.718758 
	C32.962032,69.648697 36.874542,71.969849 40.633713,70.035538 
	C42.617107,72.314850 42.367348,74.683083 40.589363,76.624268 
	C38.149929,79.287621 35.526859,77.281876 32.589111,76.367241 
	C31.627481,76.111046 31.123161,75.861115 30.328140,75.264999 
	C29.995430,75.003532 29.976860,74.519226 29.971903,74.276947 
	C28.930447,72.840866 28.485561,71.372177 28.791965,69.905029 
	C30.086166,63.708004 28.471760,57.967972 26.357666,51.897087 
	C26.844450,50.630447 27.667807,50.552834 28.686354,50.085121 
	C28.911669,49.751179 29.196642,49.392838 29.410763,49.314529 
	C29.972326,50.210518 29.993135,51.382854 31.585167,51.917202 
	C32.081993,52.133102 32.194519,52.267345 32.373848,52.654671 
	C32.699551,53.593933 33.287228,53.459541 34.147110,53.452370 
	C36.742104,54.342121 38.146599,55.759083 37.223423,58.706703 
z"/>
<path fill="#E2BF2F" opacity="1.000000" stroke="none" 
	d="
M27.261528,50.878777 
	C27.053646,54.419518 29.984037,56.471046 30.310444,60.054535 
	C30.717791,64.526649 29.682356,68.792465 29.979221,73.591469 
	C29.239901,74.019554 28.512854,74.004448 27.423069,73.977982 
	C27.193398,71.197342 26.713490,68.438972 27.575201,65.650780 
	C28.341524,63.171227 27.174833,61.205067 24.439823,60.001831 
	C23.050444,57.768333 22.251472,55.568546 21.944757,53.123363 
	C21.639183,50.687275 23.261084,50.785923 24.866425,50.165390 
	C25.461779,49.961994 25.888994,50.028919 26.632553,50.168312 
	C27.141588,50.375874 27.334274,50.510975 27.261528,50.878777 
z"/>
<path fill="#BEA430" opacity="1.000000" stroke="none" 
	d="
M27.306881,51.042992 
	C26.996096,51.111481 26.959406,50.676796 26.954153,50.458786 
	C27.378614,50.103497 27.808331,49.966221 28.574856,49.790062 
	C28.480335,50.158955 28.049002,50.566730 27.306881,51.042992 
z"/>
<path fill="#463F2D" opacity="1.000000" stroke="none" 
	d="
M29.131222,42.320976 
	C29.165390,42.584454 28.906025,42.834789 28.371931,43.120972 
	C28.344030,42.873821 28.590858,42.590824 29.131222,42.320976 
z"/>
<path fill="#463F2D" opacity="1.000000" stroke="none" 
	d="
M27.108759,45.130615 
	C27.382496,45.044048 27.580040,45.272877 27.794662,45.772285 
	C27.619764,45.785446 27.360041,45.586494 27.108759,45.130615 
z"/>
<path fill="#E89F54" opacity="1.000000" stroke="none" 
	d="
M18.997889,52.698715 
	C18.042057,52.861107 16.919401,52.896526 16.764914,51.610889 
	C16.749989,51.486675 17.809048,51.233410 18.684280,51.041191 
	C18.999640,51.483871 19.000275,51.925404 18.997889,52.698715 
z"/>
<path fill="#E0C332" opacity="1.000000" stroke="none" 
	d="
M31.841427,75.268951 
	C32.799873,75.096725 33.676037,75.016991 34.385242,75.323532 
	C39.948963,77.728363 40.644329,77.273354 41.000301,70.408569 
	C40.520927,66.046616 42.398277,64.540451 46.589649,65.008148 
	C46.998909,65.175079 46.995865,65.342705 46.991203,65.761810 
	C47.748779,68.382164 46.170250,69.489227 44.247173,70.776901 
	C41.904636,73.430504 43.446518,75.042328 45.538521,76.766579 
	C46.940773,77.840462 47.840446,78.910004 48.471016,80.593575 
	C48.514061,81.176033 48.484497,81.410576 48.277542,81.951607 
	C46.526974,83.604576 44.591351,82.413330 42.551613,83.040398 
	C46.508980,86.736137 49.232952,91.474876 54.899715,93.368439 
	C58.205570,95.782791 62.208836,96.693390 64.088425,100.647644 
	C63.999226,101.162910 63.999203,101.330742 63.999046,101.750320 
	C59.678562,103.413437 56.332153,100.639786 52.345272,99.148468 
	C51.195957,98.192688 50.438660,97.299301 48.918587,96.949608 
	C45.799812,95.633583 43.117283,94.277847 41.220772,91.293358 
	C40.961933,91.062103 40.470577,91.039764 40.224968,91.027115 
	C39.218872,90.255295 38.682003,89.215729 37.148003,88.958580 
	C35.946941,88.692223 35.155846,88.302872 34.183968,87.570526 
	C33.310139,86.454262 34.487595,85.248886 33.223000,84.210373 
	C33.001984,83.992577 33.000549,83.497726 32.996552,83.250336 
	C32.572739,82.558144 31.997364,82.489792 31.222374,82.185455 
	C30.115082,81.913193 29.328531,81.682419 29.063175,80.346283 
	C29.572411,79.851608 30.123280,79.670830 30.841141,79.245590 
	C32.343868,78.063843 31.563929,76.714729 31.841427,75.268951 
z"/>
<path fill="#CCB02B" opacity="1.000000" stroke="none" 
	d="
M33.000710,84.368256 
	C33.872505,84.095253 34.978786,83.721390 35.466026,84.718330 
	C35.932404,85.672600 34.796665,85.910988 34.194786,86.728676 
	C33.854809,87.120262 33.686741,87.248238 33.260803,87.192070 
	C33.002934,87.007935 32.999996,87.000893 32.995964,86.998947 
	C32.994431,86.245979 32.996933,85.494965 33.000710,84.368256 
z"/>
<path fill="#CCB02B" opacity="1.000000" stroke="none" 
	d="
M31.165977,82.251175 
	C31.555277,82.173134 32.111629,82.339111 32.830269,82.754013 
	C32.439377,82.833687 31.886206,82.664436 31.165977,82.251175 
z"/>
<path fill="#E2BF2F" opacity="1.000000" stroke="none" 
	d="
M31.666805,74.996376 
	C32.395512,76.343285 34.080162,77.798759 31.338425,78.953522 
	C30.690590,77.898933 30.373047,76.796761 30.025467,75.349060 
	C30.441139,75.000771 30.886847,74.998001 31.666805,74.996376 
z"/>
<path fill="#E8CD3C" opacity="1.000000" stroke="none" 
	d="
M47.746307,82.357895 
	C47.982075,81.874268 47.989841,81.700676 47.999153,81.266434 
	C49.958076,80.246834 51.253220,81.340660 52.681229,82.917953 
	C57.461201,86.634941 63.082142,86.984596 68.756241,88.453117 
	C70.769539,89.388802 72.485786,88.812363 74.507248,88.843201 
	C78.407822,90.221153 82.195099,90.480133 86.258453,91.325287 
	C86.526337,92.358643 85.939812,92.875160 84.954544,93.527069 
	C81.301277,95.226105 77.527313,92.237801 74.051155,94.972061 
	C72.925873,95.897530 72.230835,96.760872 71.267876,97.818069 
	C70.994171,98.006584 70.496628,98.004906 70.247856,98.004440 
	C69.636856,98.344955 69.204987,98.535355 68.352829,98.547638 
	C67.541687,98.314949 67.113441,98.091866 66.416443,97.615799 
	C63.084354,94.803131 59.093052,94.897324 55.232376,93.519135 
	C51.324265,90.562950 47.080345,88.233078 47.746307,82.357895 
z"/>
<path fill="#EFDB69" opacity="1.000000" stroke="none" 
	d="
M83.719070,93.286850 
	C84.631454,92.608894 85.296585,92.244766 86.293388,91.685486 
	C87.519608,91.612167 88.414154,91.734001 89.625534,91.985168 
	C90.099899,95.794975 90.266785,99.482338 84.427483,99.055344 
	C81.365982,97.488350 82.327789,95.553627 83.719070,93.286850 
z"/>
<path fill="#B7B097" opacity="1.000000" stroke="none" 
	d="
M106.807167,84.418816 
	C108.334099,86.208855 106.083961,86.113708 105.879311,87.299484 
	C105.822701,87.540230 105.841553,87.758018 105.901054,87.849701 
	C105.345490,88.568710 104.607712,88.731438 103.381943,88.414490 
	C101.901962,87.772560 101.396873,86.914764 101.784424,85.356125 
	C103.491737,84.738754 104.862022,83.830467 106.807167,84.418816 
z"/>
<path fill="#85826D" opacity="1.000000" stroke="none" 
	d="
M101.675171,85.016022 
	C102.249779,85.724014 102.488914,86.427513 102.867950,87.382111 
	C103.210869,87.870392 103.413887,88.107574 103.188843,88.534706 
	C102.393539,88.754303 102.026299,88.783958 101.384232,88.784920 
	C100.572067,88.466736 100.153725,88.062042 99.817307,87.215309 
	C99.994965,86.057549 100.252975,85.188522 101.675171,85.016022 
z"/>
<path fill="#463F2D" opacity="1.000000" stroke="none" 
	d="
M103.057861,88.897476 
	C102.810829,88.545052 102.860878,88.365471 102.959396,87.909546 
	C103.756500,87.651680 104.505135,87.670151 105.607162,87.815002 
	C105.888977,90.157089 104.752388,89.914734 103.057861,88.897476 
z"/>
<path fill="#655F4B" opacity="1.000000" stroke="none" 
	d="
M99.460793,86.952217 
	C100.157951,87.336807 100.576851,87.745293 101.052582,88.455002 
	C99.934486,88.739403 98.292892,89.227730 99.460793,86.952217 
z"/>
<path fill="#FEE04A" opacity="1.000000" stroke="none" 
	d="
M37.041153,59.332047 
	C37.161938,56.501392 36.097301,54.848022 33.353954,53.539009 
	C37.161835,49.116009 41.405369,52.073582 45.591446,52.921139 
	C46.666580,53.138821 47.018032,54.252750 46.889168,55.335262 
	C46.588890,57.857746 39.869427,60.826023 37.041153,59.332047 
z"/>
<path fill="#FEE04A" opacity="1.000000" stroke="none" 
	d="
M32.250885,53.190487 
	C31.997553,52.832592 31.994307,52.665791 31.980263,52.248924 
	C32.303669,52.090313 32.574028,52.275143 32.889915,52.777130 
	C32.999290,53.000916 33.000000,53.000000 33.000458,52.999542 
	C32.834267,53.126583 32.667618,53.254086 32.250885,53.190487 
z"/>
<path fill="#383118" opacity="1.000000" stroke="none" 
	d="
M52.941914,82.881721 
	C51.472710,82.531548 50.068966,81.836136 48.332962,81.073257 
	C47.424797,79.793312 45.613255,79.374245 45.833290,77.292374 
	C46.966587,76.978233 48.109180,77.016457 49.524387,77.265320 
	C50.103218,77.677811 49.877937,78.510651 50.770233,77.922089 
	C54.024544,76.556053 57.101711,78.347511 60.609165,77.933777 
	C59.790680,82.163506 55.467136,80.678612 52.941914,82.881721 
z"/>
<path fill="#383118" opacity="1.000000" stroke="none" 
	d="
M70.313934,75.403481 
	C74.344353,74.011078 78.709770,73.278290 83.558167,73.174873 
	C79.667259,75.012596 75.368317,76.697746 70.313934,75.403481 
z"/>
<path fill="#383118" opacity="1.000000" stroke="none" 
	d="
M63.841133,77.441238 
	C64.078674,76.327225 64.728439,76.064392 65.783234,76.143524 
	C65.720543,78.747490 65.548714,78.872963 63.841133,77.441238 
z"/>
<path fill="#F8D63C" opacity="1.000000" stroke="none" 
	d="
M44.277397,71.123856 
	C44.102749,69.041756 46.251705,68.359825 46.853584,66.315102 
	C49.177940,65.893402 49.301983,68.846870 51.693001,68.984169 
	C51.051617,74.760925 46.910210,69.964149 44.277397,71.123856 
z"/>
<path fill="#18170D" opacity="1.000000" stroke="none" 
	d="
M50.642334,77.544708 
	C50.806637,78.118393 50.705547,78.572510 50.604462,79.026634 
	C50.377758,78.719505 50.151051,78.412376 49.860672,77.790604 
	C49.990314,77.459023 50.183628,77.442085 50.642334,77.544708 
z"/>
<path fill="#CCB02B" opacity="1.000000" stroke="none" 
	d="
M51.781540,97.785751 
	C55.748833,99.306572 59.500061,100.611931 63.625103,101.959671 
	C63.999882,102.182808 64.000839,102.363548 64.001831,102.816376 
	C61.639622,106.645569 58.740067,105.481956 55.893349,103.922127 
	C53.885506,102.821945 52.226948,101.021339 49.336582,100.985794 
	C48.806671,101.102554 48.655846,101.220184 48.279655,101.160248 
	C48.054291,100.982681 48.025890,100.972404 48.020767,100.955963 
	C47.833015,98.650307 45.677418,98.536743 44.287796,97.610092 
	C42.205418,96.221504 40.347504,94.767014 40.970379,91.454895 
	C43.429001,92.608833 45.896069,94.155556 48.671921,95.859756 
	C49.638271,96.874474 50.758106,96.962357 51.781540,97.785751 
z"/>
<path fill="#CCB02B" opacity="1.000000" stroke="none" 
	d="
M74.742882,103.329834 
	C74.859512,104.794670 74.847206,106.013466 74.856209,107.687614 
	C74.877510,108.142967 74.896591,108.420776 74.925560,108.556969 
	C74.727318,109.271706 74.312271,109.485344 73.409531,109.068619 
	C72.471268,106.286072 69.094917,106.936752 68.122482,104.326950 
	C69.469048,103.897377 70.804420,103.330437 71.808891,102.225311 
	C73.434227,100.437103 73.874176,102.173279 74.742882,103.329834 
z"/>
<path fill="#84751B" opacity="1.000000" stroke="none" 
	d="
M72.674301,108.874268 
	C73.521873,108.809929 73.934082,108.816719 74.650414,108.758331 
	C74.960922,109.154892 74.967316,109.616615 74.897858,110.659653 
	C74.417511,111.408241 74.013016,111.575531 73.296722,111.846375 
	C71.510132,111.988235 70.026070,112.103264 68.337685,111.209869 
	C67.738564,110.861244 67.476372,110.675354 67.106476,110.243309 
	C66.844994,109.849304 66.727760,109.649910 66.803932,109.162476 
	C68.744537,108.898094 70.491737,108.921753 72.674301,108.874268 
z"/>
<path fill="#9B8B2F" opacity="1.000000" stroke="none" 
	d="
M66.950790,108.566025 
	C66.991249,109.070160 66.985176,109.265900 66.970657,109.755173 
	C66.530205,109.984360 66.098198,109.920013 65.343338,109.913010 
	C65.020500,109.970360 64.938583,109.724663 64.860931,109.621033 
	C64.783272,109.517395 64.334015,109.339447 64.148315,109.184891 
	C63.962612,109.030334 63.991219,109.040268 63.974293,109.045502 
	C63.797729,108.853989 63.638092,108.657257 63.741791,108.186508 
	C65.120926,106.772339 66.119537,106.616585 66.950790,108.566025 
z"/>
<path fill="#84751B" opacity="1.000000" stroke="none" 
	d="
M63.668541,107.904770 
	C64.004906,108.102493 64.004692,108.292480 63.980919,108.766602 
	C62.110600,109.154648 60.261608,109.283218 58.218918,108.277092 
	C59.746975,108.198250 61.521660,107.094475 63.668541,107.904770 
z"/>
<path fill="#BEA430" opacity="1.000000" stroke="none" 
	d="
M48.124657,101.152718 
	C48.054291,100.982681 48.506386,100.984467 48.731941,100.984695 
	C48.806221,101.329735 48.668270,101.704620 48.124657,101.152718 
z"/>
<path fill="#87552A" opacity="1.000000" stroke="none" 
	d="
M47.063908,118.061630 
	C53.209797,117.646637 59.376308,116.549301 65.730392,118.779999 
	C64.255096,120.675255 62.227871,120.144661 60.102188,119.780151 
	C58.168076,119.448502 55.929840,118.562813 54.515366,121.352699 
	C54.325031,122.129906 54.046432,122.484985 53.342514,122.882294 
	C52.567402,122.993393 52.126850,122.994156 51.356300,122.975159 
	C50.496010,122.973465 49.967747,123.011292 49.187790,123.175529 
	C48.739990,123.298111 48.550964,123.363068 48.062469,123.413551 
	C47.542122,123.384338 47.321236,123.369614 46.861336,123.121986 
	C46.547207,122.678581 46.472095,122.468071 46.375534,121.921936 
	C46.408840,120.911301 46.568073,120.261993 46.907360,119.313217 
	C47.000927,118.781975 47.020535,118.576302 47.063908,118.061630 
z"/>
<path fill="#773F15" opacity="1.000000" stroke="none" 
	d="
M46.620659,118.990494 
	C48.241741,119.742050 47.709351,120.661850 47.102608,121.863274 
	C46.845615,122.311516 46.706272,122.474129 46.414227,122.922241 
	C46.084454,123.333481 45.907383,123.459229 45.421799,123.693832 
	C44.228275,123.962181 43.371685,123.930740 42.367748,123.182663 
	C41.306587,121.491310 39.943626,122.161064 38.380814,122.076080 
	C38.923084,120.969612 38.748348,118.073296 41.571655,120.375313 
	C43.225254,121.723602 44.329624,118.357056 46.620659,118.990494 
z"/>
<path fill="#C9B033" opacity="1.000000" stroke="none" 
	d="
M33.003609,87.375175 
	C33.172836,87.005577 33.342743,87.003227 33.767761,86.996582 
	C34.819279,87.248665 35.615681,87.505043 36.704666,87.888275 
	C37.375099,88.397636 37.526241,88.855064 37.221375,89.688660 
	C35.941826,89.985985 34.891605,89.982048 33.448624,89.960983 
	C33.038673,89.210037 33.021481,88.476227 33.003609,87.375175 
z"/>
<path fill="#CCB02B" opacity="1.000000" stroke="none" 
	d="
M37.285629,90.118683 
	C36.993900,89.550995 36.995758,89.112061 36.997433,88.344124 
	C38.605324,87.953735 40.036533,88.126328 39.979065,90.641624 
	C39.179310,90.758789 38.379261,90.503113 37.285629,90.118683 
z"/>
<path fill="#84751B" opacity="1.000000" stroke="none" 
	d="
M64.016991,109.222328 
	C64.191277,109.045181 64.395134,109.124031 64.678726,109.392136 
	C64.783272,109.517395 64.403854,109.628601 64.403854,109.628601 
	C64.403854,109.628601 64.071373,109.414322 64.016991,109.222328 
z"/>
<path fill="#967546" opacity="1.000000" stroke="none" 
	d="
M42.069946,123.288322 
	C43.151646,123.001648 44.153271,123.064384 45.531540,123.116241 
	C46.308231,123.165405 46.653126,123.339287 47.076653,123.879013 
	C47.166759,124.554802 47.131012,124.962196 47.036537,125.676743 
	C45.977676,126.256676 44.977547,126.529457 43.664303,126.811378 
	C43.124996,126.559151 42.898804,126.297775 42.451477,125.894379 
	C42.150188,125.047485 42.070030,124.342613 42.069946,123.288322 
z"/>
<path fill="#A06B36" opacity="1.000000" stroke="none" 
	d="
M49.235512,123.452759 
	C49.269878,122.300728 49.790237,121.847946 50.885262,122.754608 
	C51.026302,122.955399 51.012409,123.397789 51.021919,123.618851 
	C50.534950,123.784065 50.038479,123.728218 49.235512,123.452759 
z"/>
<path fill="#773F15" opacity="1.000000" stroke="none" 
	d="
M47.386688,123.993324 
	C46.876209,123.956970 46.549915,123.766525 46.065903,123.340714 
	C45.908180,123.105354 45.978088,123.029938 46.015732,122.994919 
	C46.237698,122.843575 46.422012,122.727257 46.848267,122.830811 
	C47.245358,123.117378 47.395424,123.194023 47.651711,123.339844 
	C47.763004,123.399071 47.570869,123.839233 47.386688,123.993324 
z"/>
<path fill="#EBF5F3" opacity="1.000000" stroke="none" 
	d="
M46.991711,125.988892 
	C47.107105,126.123970 47.230690,126.270035 47.354275,126.416092 
	C47.267967,126.365074 47.181660,126.314056 47.036583,126.123474 
	C46.977810,125.983902 46.999897,125.999886 46.991711,125.988892 
z"/>
<path fill="#A15623" opacity="1.000000" stroke="none" 
	d="
M54.309097,122.234047 
	C53.986629,120.741356 53.244610,119.985077 52.096615,118.986984 
	C56.436695,118.986984 60.776772,118.986984 65.587280,118.987106 
	C69.793533,118.779785 72.747368,121.205246 76.564255,122.064957 
	C77.051147,123.128319 76.442192,123.398079 75.294151,123.259880 
	C70.264664,122.722733 65.557213,122.374718 60.433022,122.032883 
	C59.208885,119.254440 57.859154,119.312798 56.091469,121.647522 
	C55.637394,122.343941 55.170525,122.485275 54.309097,122.234047 
z"/>
<path fill="#B26B3A" opacity="1.000000" stroke="none" 
	d="
M74.980927,123.397263 
	C75.514740,122.911263 76.057373,122.751770 76.770844,122.363281 
	C78.275719,122.563789 79.609749,122.993309 81.190994,123.690796 
	C80.396400,124.156670 79.354607,124.354568 78.028061,124.838974 
	C77.067482,125.095146 76.391647,125.064804 75.375191,125.033630 
	C75.019623,124.596458 75.004684,124.160110 74.980927,123.397263 
z"/>
<path fill="#B26B3A" opacity="1.000000" stroke="none" 
	d="
M74.771629,125.019836 
	C74.744522,125.133949 74.466179,125.234802 74.102554,125.166931 
	C74.184982,125.000992 74.352684,125.003784 74.771629,125.019836 
z"/>
<path fill="#B37941" opacity="1.000000" stroke="none" 
	d="
M53.768864,122.152283 
	C54.435860,122.040802 54.894398,122.032761 55.697193,122.009941 
	C56.927193,122.214622 58.197540,122.133636 57.110474,123.839691 
	C56.853062,123.986229 56.503658,123.989525 56.329140,123.997681 
	C55.403683,123.323761 54.436275,123.554482 53.284210,123.192757 
	C53.006084,122.994431 53.000149,122.999817 53.004051,122.996223 
	C53.116283,122.690125 53.300434,122.444496 53.768864,122.152283 
z"/>
<path fill="#87552A" opacity="1.000000" stroke="none" 
	d="
M53.213898,123.270035 
	C53.898060,123.159828 54.790039,123.325226 55.918320,123.748230 
	C55.243652,123.852432 54.332684,123.699036 53.213898,123.270035 
z"/>
<path fill="#A09866" opacity="1.000000" stroke="none" 
	d="
M68.166382,111.310081 
	C69.499657,111.161438 70.961998,111.327309 72.704628,111.721558 
	C71.275864,113.944489 69.790848,112.709808 68.166382,111.310081 
z"/>
<path fill="#A09866" opacity="1.000000" stroke="none" 
	d="
M75.068268,111.491188 
	C74.821999,111.240952 74.823486,110.993950 74.871475,110.878777 
	C75.691597,110.835953 76.463730,110.908302 77.621681,111.008369 
	C77.475899,112.668777 76.750343,113.560936 75.068268,111.491188 
z"/>
<path fill="#F2DA51" opacity="1.000000" stroke="none" 
	d="
M83.551819,92.976250 
	C84.506538,94.810646 82.464844,96.547150 83.885658,98.737808 
	C83.530777,100.081604 82.788773,100.779724 81.310486,100.985046 
	C79.213150,101.250694 77.843170,100.439941 76.295708,99.136635 
	C75.164848,98.059906 74.224571,97.281067 72.997742,96.350594 
	C72.717514,95.918434 72.657730,95.714455 72.798538,95.262665 
	C73.729515,92.057968 75.964272,91.693245 78.331734,92.312698 
	C79.940643,92.733665 81.496674,93.025269 83.551819,92.976250 
z"/>
<path fill="#E3CB35" opacity="1.000000" stroke="none" 
	d="
M54.809105,93.252960 
	C59.183296,93.112816 63.306534,93.417488 66.836266,96.678581 
	C66.967781,98.172134 67.264198,99.399269 66.233612,100.727783 
	C65.554214,100.997322 65.109955,100.997093 64.332474,100.995972 
	C61.550732,98.170410 57.984516,96.924110 55.054474,94.355621 
	C54.870392,93.841812 54.742157,93.672943 54.809105,93.252960 
z"/>
<path fill="#EFDB69" opacity="1.000000" stroke="none" 
	d="
M72.770996,96.339264 
	C74.603966,95.959480 76.044891,96.096230 75.986908,98.604568 
	C75.255440,98.962639 74.521194,98.952873 73.420059,98.924881 
	C72.423279,98.266174 72.281937,97.510185 72.770996,96.339264 
z"/>
<path fill="#E3CB35" opacity="1.000000" stroke="none" 
	d="
M67.754395,98.332596 
	C68.447525,97.997772 68.890839,97.998726 69.666626,98.001823 
	C69.579506,99.210251 71.067810,101.285774 68.206909,101.238754 
	C67.400658,100.315041 67.232452,99.538116 67.754395,98.332596 
z"/>
<path fill="#E0C332" opacity="1.000000" stroke="none" 
	d="
M67.895180,97.777992 
	C68.002457,98.748070 68.000702,99.499329 67.997696,100.626205 
	C67.552483,101.001312 67.108513,101.000801 66.331512,100.998917 
	C66.151314,99.818199 66.304161,98.638832 66.729836,97.227783 
	C67.325058,97.098595 67.586220,97.286285 67.895180,97.777992 
z"/>
<path fill="#E3CE55" opacity="1.000000" stroke="none" 
	d="
M73.012680,95.764778 
	C73.019707,96.738922 73.020241,97.463135 73.036972,98.546989 
	C72.482185,98.771118 71.911201,98.635597 71.167191,98.253326 
	C71.086029,96.884323 70.778038,95.580261 72.654518,95.063782 
	C73.001488,95.181503 73.003838,95.348175 73.012680,95.764778 
z"/>
<path fill="#F8D63C" opacity="1.000000" stroke="none" 
	d="
M31.779772,53.153702 
	C32.167484,52.999786 32.334167,53.000183 32.750881,52.999832 
	C33.001102,53.165951 33.001293,53.332821 33.001236,53.750000 
	C32.652515,54.556099 32.179008,54.976021 31.580677,54.472057 
	C31.385220,54.307423 31.555651,53.708382 31.779772,53.153702 
z"/>
<path fill="#EFCD34" opacity="1.000000" stroke="none" 
	d="
M54.858002,92.701080 
	C55.003170,93.169930 55.002056,93.338020 54.999783,93.758400 
	C50.959019,94.203438 48.793571,91.252213 46.327763,88.821030 
	C45.618813,88.122025 44.624149,87.446259 44.387020,86.586952 
	C43.761040,84.318497 38.906929,84.667686 40.661304,81.756622 
	C42.019482,79.502983 44.894951,82.540459 47.568924,82.030304 
	C47.851013,87.040489 52.249756,89.090172 54.858002,92.701080 
z"/>
<path fill="#D7C131" opacity="1.000000" stroke="none" 
	d="
M51.945168,97.655479 
	C50.866470,97.935455 49.578815,98.219475 49.038719,96.360207 
	C50.118290,96.072029 51.412300,95.774399 51.945168,97.655479 
z"/>
<path fill="#A06B36" opacity="1.000000" stroke="none" 
	d="
M47.052376,122.826576 
	C46.917614,123.030060 46.745018,123.009453 46.312904,122.974373 
	C46.141361,122.668518 46.312691,122.439529 46.776161,122.210907 
	C46.984959,122.148895 47.014534,122.602478 47.052376,122.826576 
z"/>
</svg>