<svg version="1.1" id="Layer_1" xmlns="http://www.w3.org/2000/svg" xmlns:xlink="http://www.w3.org/1999/xlink" x="0px" y="0px"
	 width="100%" viewBox="0 0 129 129" enable-background="new 0 0 129 129" xml:space="preserve">
<path fill="#FDFDFD" opacity="0.000000" stroke="none" 
	d="
M68.000000,130.000000 
	C45.354832,130.000000 23.209661,130.000000 1.032247,130.000000 
	C1.032247,87.063217 1.032247,44.126411 1.032247,1.094801 
	C43.894909,1.094801 86.790100,1.094801 129.842651,1.094801 
	C129.842651,43.999546 129.842651,86.999718 129.842651,130.000000 
	C109.460205,130.000000 88.980103,130.000000 68.000000,130.000000 
M50.418629,111.786514 
	C51.947891,111.786514 53.477150,111.786514 54.409035,111.786514 
	C53.690582,110.683708 52.890957,109.456306 52.535206,108.078545 
	C52.872841,107.966904 53.056656,107.733910 53.688858,107.320984 
	C54.084019,107.382874 54.479183,107.444771 54.874844,108.229523 
	C57.358650,111.942734 61.121738,112.178062 65.688171,111.943687 
	C66.112885,111.912582 66.537598,111.881485 67.655190,111.973442 
	C68.113113,111.321121 68.571037,110.668800 69.823669,110.039207 
	C75.213264,111.904053 80.600739,113.544922 86.617538,110.235352 
	C90.171448,110.880257 93.725357,111.525169 97.279266,112.170082 
	C97.452408,111.358025 97.625557,110.545975 97.798706,109.733917 
	C93.165207,108.571449 88.531715,107.408989 83.369064,105.929375 
	C82.650162,105.621300 81.931259,105.313217 81.072235,104.267250 
	C81.075081,103.523758 81.077927,102.780266 81.575500,101.900536 
	C81.740051,101.612770 81.904610,101.325012 82.698463,100.775047 
	C85.119576,99.046921 87.946968,97.676254 89.860405,95.501472 
	C92.330658,92.693832 96.849236,90.990692 96.620140,85.657593 
	C98.714226,82.724136 101.301376,80.017067 102.778297,76.800255 
	C104.648323,72.727226 105.615410,68.239639 107.674026,63.742558 
	C108.688583,59.943008 109.703140,56.143463 110.697914,51.973995 
	C110.683922,51.693413 110.549057,51.494499 110.459221,50.553478 
	C110.341286,50.010906 110.223343,49.468330 110.117302,48.180065 
	C108.851379,45.995312 107.585464,43.810555 106.178688,40.951885 
	C105.153961,38.952465 104.129234,36.953049 103.040955,34.143803 
	C102.647614,31.425817 102.254265,28.707834 102.326813,25.513147 
	C101.844215,24.349913 101.361618,23.186678 101.358147,21.393946 
	C100.412697,17.232277 99.467247,13.070607 98.255211,8.214371 
	C91.628479,1.813100 82.037590,3.145777 78.172859,11.272676 
	C76.269150,15.275859 75.127571,19.641472 73.126282,24.267441 
	C70.700706,27.781752 68.275124,31.296062 65.362823,35.267612 
	C63.554432,36.423882 61.746040,37.580151 59.199814,38.745167 
	C54.646610,41.280678 50.121998,43.840668 49.102554,50.136684 
	C48.354668,51.318092 47.606777,52.499500 46.241619,54.029499 
	C43.835411,58.020493 41.429207,62.011486 38.727997,66.521584 
	C38.479717,67.014824 38.231434,67.508072 37.574432,68.630417 
	C37.272270,70.042145 36.970104,71.453880 36.067638,73.210350 
	C36.008438,74.122841 35.949238,75.035324 35.206409,76.145378 
	C31.120592,83.045113 27.034775,89.944847 22.299433,96.915382 
	C21.878584,97.008728 21.457735,97.102081 20.341860,97.296188 
	C16.299086,100.630318 10.399833,102.021278 8.031096,109.089043 
	C11.440555,108.090767 13.713452,107.425278 16.029867,107.453705 
	C16.017172,108.973930 16.004475,110.494164 15.859914,111.831276 
	C15.859914,111.831276 15.652445,111.779099 15.652445,111.779099 
	C15.652445,111.779099 16.014523,111.991585 16.284708,112.443817 
	C16.476110,112.930283 16.667513,113.416740 16.358068,114.346512 
	C13.752113,117.260254 11.146158,120.173996 8.511106,123.120270 
	C12.736658,126.974823 16.050871,125.857407 18.994484,123.401169 
	C22.509197,120.468391 25.737658,117.192551 29.561352,113.737900 
	C30.029064,113.144226 30.496775,112.550545 31.510473,111.636368 
	C32.666813,110.721893 33.823151,109.807419 35.773125,109.048988 
	C37.113655,108.965271 38.454185,108.881554 40.631138,108.914734 
	C42.893848,109.770546 45.156559,110.626358 47.948032,111.618591 
	C48.492435,111.601578 49.036842,111.584572 50.418629,111.786514 
z"/>
<path fill="#5D423B" opacity="1.000000" stroke="none" 
	d="
M95.998390,85.990326 
	C96.849236,90.990692 92.330658,92.693832 89.860405,95.501472 
	C87.946968,97.676254 85.119576,99.046921 82.133347,100.750015 
	C81.046700,100.151451 80.525162,99.577927 79.659073,98.949516 
	C78.882301,97.928360 78.450081,96.962105 78.281784,95.759476 
	C78.023376,92.673485 77.501030,89.823868 76.752007,86.703888 
	C74.263901,85.766762 72.002472,85.099983 69.741043,84.433197 
	C69.815117,86.640945 69.889198,88.848694 69.598763,91.041916 
	C67.833916,91.365540 66.433586,91.703690 65.016403,91.668457 
	C63.336365,89.866219 61.673176,88.437363 60.016273,86.650955 
	C60.680744,84.862503 61.338940,83.431618 62.388004,81.953667 
	C66.392654,80.421410 70.006432,78.936211 73.854858,77.354584 
	C73.556664,75.828835 73.279861,74.412560 73.377525,72.998154 
	C74.501320,73.001442 75.250664,73.002861 76.002869,73.395905 
	C75.995934,76.527695 76.464546,78.380112 80.059288,77.224442 
	C81.874939,76.640732 84.007179,77.041763 86.135574,77.325150 
	C86.982864,79.463417 87.690849,81.274078 88.109459,82.344650 
	C89.720177,80.861252 91.304482,79.402184 92.937454,78.275024 
	C93.669273,79.746559 94.352425,80.886185 95.160309,82.348434 
	C95.522820,83.777481 95.760605,84.883904 95.998390,85.990326 
M87.173721,87.745201 
	C87.336891,87.039185 87.500069,86.333176 87.663239,85.627167 
	C87.333046,85.495476 87.002853,85.363785 86.672668,85.232094 
	C85.012138,88.176048 83.351608,91.120003 81.691078,94.063950 
	C82.470978,94.462494 83.250877,94.861031 84.030777,95.259567 
	C85.026215,92.966858 86.021645,90.674149 87.173721,87.745201 
z"/>
<path fill="#7C6158" opacity="1.000000" stroke="none" 
	d="
M103.104507,34.953629 
	C104.129234,36.953049 105.153961,38.952465 106.140579,41.737511 
	C106.422157,45.994850 106.741859,49.466568 106.838760,53.222183 
	C105.684113,53.708473 104.752251,53.910862 103.527924,53.899094 
	C101.694603,51.240761 100.243446,50.375416 99.020203,54.186275 
	C98.996918,54.625355 98.996429,54.801281 98.687744,55.045483 
	C97.959259,55.122990 97.538956,55.132221 96.853516,55.165581 
	C96.419258,55.484669 96.250153,55.779629 96.031769,56.318230 
	C95.982491,56.561871 95.811905,57.028835 95.500748,57.076691 
	C94.771164,57.779781 94.352745,58.435013 93.680397,59.061493 
	C93.256516,59.021137 93.086548,59.009533 92.950699,58.663124 
	C92.956764,57.882187 92.928726,57.436050 92.942947,56.565369 
	C93.043045,54.436775 93.100883,52.732731 93.508453,51.065277 
	C95.886955,50.974606 97.915718,50.847343 100.934097,50.658005 
	C98.870636,47.375530 97.565681,45.299652 95.942711,42.717896 
	C94.745827,45.692619 93.858322,47.898399 92.674194,50.170685 
	C91.640388,50.532776 90.903191,50.828358 89.873604,50.987000 
	C89.005142,50.563938 88.429070,50.277817 87.881912,49.635391 
	C87.928482,47.537811 87.946136,45.796532 88.160835,43.772018 
	C88.910507,42.319992 89.463135,41.151199 90.150688,39.930481 
	C90.196228,39.913765 90.106842,39.948982 89.670517,39.992699 
	C88.205643,40.675278 87.087715,41.349354 85.668816,41.929623 
	C84.576256,41.573734 83.784653,41.311649 82.996758,40.784088 
	C83.004356,40.341660 83.008263,40.164703 83.336929,39.940365 
	C84.446022,38.263416 85.230339,36.633846 86.265335,35.003822 
	C86.683220,35.004993 86.850441,35.006618 87.014923,35.331177 
	C86.944389,36.648140 86.876595,37.642178 86.754761,39.428497 
	C88.248215,38.014637 89.144318,37.166290 90.450607,36.278694 
	C91.407013,36.166573 91.953232,36.093700 92.498520,36.009434 
	C92.497597,35.998039 92.500984,35.975384 92.643921,36.246788 
	C93.175964,36.948215 93.565056,37.378231 94.096352,38.131779 
	C97.087242,39.002014 99.935944,39.548721 103.046097,40.145603 
	C102.622047,38.502117 102.301651,37.260357 102.108368,35.784363 
	C102.525154,35.351295 102.814827,35.152462 103.104507,34.953629 
M95.518204,53.411659 
	C95.518204,53.411659 95.589638,53.530403 95.518204,53.411659 
z"/>
<path fill="#785A4C" opacity="1.000000" stroke="none" 
	d="
M65.033249,92.041840 
	C66.433586,91.703690 67.833916,91.365540 69.831802,91.317291 
	C71.620926,91.774872 72.812515,91.942566 74.211548,92.366287 
	C74.947426,93.748917 75.475853,94.875526 75.672714,96.049515 
	C74.529320,97.066917 73.717484,98.036949 72.664352,98.824463 
	C71.890160,98.191696 71.357269,97.741440 71.127068,97.546928 
	C70.483910,100.264153 69.883942,102.798889 69.213203,105.632637 
	C69.524384,106.039368 70.232185,106.964493 70.598434,107.914650 
	C69.467407,108.293327 68.677933,108.646980 67.592560,109.023666 
	C67.185219,109.981262 67.073769,110.915825 66.962311,111.850388 
	C66.537598,111.881485 66.112885,111.912582 65.163086,111.773705 
	C64.388969,111.128983 64.139946,110.654243 64.022484,109.862717 
	C63.071518,106.701057 61.988987,103.856178 60.602715,100.862579 
	C59.214603,100.453773 58.130245,100.193687 56.929665,99.716263 
	C56.596027,99.233231 56.319248,99.065430 55.825897,98.838089 
	C56.119431,98.105057 56.570168,97.529472 57.350166,96.964340 
	C58.119061,96.984085 58.558693,96.993362 59.083893,97.177734 
	C59.438675,97.225708 59.707886,97.098572 60.160202,96.718048 
	C60.917973,95.668358 61.492641,94.872047 62.413475,94.051392 
	C63.517509,93.365311 64.275375,92.703575 65.033249,92.041840 
z"/>
<path fill="#443E45" opacity="1.000000" stroke="none" 
	d="
M73.641121,23.843079 
	C75.127571,19.641472 76.269150,15.275859 78.172859,11.272676 
	C82.037590,3.145777 91.628479,1.813100 98.064957,8.615346 
	C95.910591,10.346803 93.946487,11.677284 91.659630,12.880889 
	C89.533600,13.166569 87.730331,13.579125 85.599243,13.990251 
	C83.962311,14.022074 81.666489,13.702439 81.507484,14.147025 
	C80.612343,16.649906 76.979454,18.783255 79.736145,22.185160 
	C78.621216,23.247669 77.765350,24.140162 76.562569,24.983963 
	C75.357475,24.571209 74.499298,24.207144 73.641121,23.843079 
z"/>
<path fill="#5E4A43" opacity="1.000000" stroke="none" 
	d="
M46.858887,53.680904 
	C47.606777,52.499500 48.354668,51.318092 49.774639,50.042591 
	C50.969700,49.968597 51.492676,49.988697 52.015678,50.390499 
	C51.894691,52.911720 51.773678,55.051235 51.652664,57.190750 
	C54.468624,52.948269 56.774612,56.247856 58.987206,57.212708 
	C59.002331,57.460094 59.020515,57.954689 58.777328,58.127018 
	C58.375370,58.861103 58.216599,59.422863 57.694794,59.983528 
	C56.037891,59.850082 54.744022,59.717724 52.799770,59.518829 
	C54.079308,62.110348 55.039730,64.055542 55.725529,66.255554 
	C54.081989,69.075256 56.146679,73.673820 50.664238,74.036697 
	C49.213135,74.377022 48.108284,74.688049 47.001518,74.660278 
	C46.664875,73.547394 46.330151,72.773300 45.996933,71.666382 
	C46.008961,70.889885 46.019478,70.446236 46.334190,69.864830 
	C48.057774,68.794128 49.477161,67.861176 51.260719,66.895401 
	C51.641739,65.957878 51.859375,64.320107 51.644554,64.261261 
	C49.366287,63.637257 47.773270,64.217369 47.843552,67.228714 
	C46.441765,67.614151 45.221569,67.807236 43.765480,67.956741 
	C43.529587,67.913170 43.052212,67.865242 43.043831,67.557800 
	C43.016922,66.839615 42.998390,66.428871 43.253174,65.785851 
	C44.515388,63.548664 45.788567,61.626957 46.407089,59.513645 
	C46.943119,57.682205 46.736988,55.633553 46.858887,53.680904 
z"/>
<path fill="#ADA6A8" opacity="1.000000" stroke="none" 
	d="
M29.090118,114.065315 
	C25.737658,117.192551 22.509197,120.468391 18.994484,123.401169 
	C16.050871,125.857407 12.736658,126.974823 8.511106,123.120270 
	C11.146158,120.173996 13.752113,117.260254 16.949776,114.049606 
	C18.715595,111.829544 19.889706,109.906380 21.336281,108.187843 
	C23.398085,109.267845 25.187422,110.143219 27.013067,111.346283 
	C27.729624,112.471085 28.409872,113.268196 29.090118,114.065315 
M21.811440,112.406349 
	C21.806362,112.792435 21.801285,113.178528 21.796207,113.564613 
	C21.955648,113.565102 22.253435,113.576820 22.254442,113.564445 
	C22.285511,113.181717 22.287552,112.796631 21.811440,112.406349 
z"/>
<path fill="#79594A" opacity="1.000000" stroke="none" 
	d="
M57.020905,96.953880 
	C56.570168,97.529472 56.119431,98.105057 55.659096,99.167969 
	C52.370525,101.425552 52.937744,104.471954 53.086647,107.379555 
	C53.056656,107.733910 52.872841,107.966904 51.987648,108.049606 
	C50.986576,108.032776 50.533066,108.044876 49.680714,108.036270 
	C48.220222,107.984222 47.158573,107.952896 46.024796,107.748276 
	C45.952671,107.574982 45.816753,107.225052 45.852592,106.886063 
	C45.254906,105.687485 44.621387,104.827888 43.993938,103.560204 
	C43.648163,100.822136 45.219219,97.567886 41.059658,96.806152 
	C41.034897,96.380089 41.023125,96.209778 41.119171,95.713150 
	C42.086884,93.566666 42.946785,91.746498 44.117531,90.122360 
	C45.145203,92.093369 45.862026,93.868355 46.618523,95.741570 
	C47.848526,95.459709 48.937778,95.210106 50.424187,94.977402 
	C51.881302,95.008644 52.941261,95.022980 54.209610,95.295898 
	C55.282494,95.698647 56.146980,95.842819 57.021072,96.228638 
	C57.030674,96.470291 57.020905,96.953880 57.020905,96.953880 
M51.415398,100.405457 
	C51.393341,100.052666 51.371284,99.699867 51.349228,99.347084 
	C51.095673,99.419312 50.842113,99.491539 50.588554,99.563766 
	C50.723347,99.807503 50.858139,100.051239 51.415398,100.405457 
z"/>
<path fill="#7F665C" opacity="1.000000" stroke="none" 
	d="
M96.309265,85.823959 
	C95.760605,84.883904 95.522820,83.777481 95.471741,82.197678 
	C96.644157,80.280098 98.197151,78.936325 98.474998,77.366806 
	C98.839409,75.308327 98.198166,73.071831 98.087349,70.641251 
	C98.731438,69.599792 99.277634,68.828979 100.204422,68.033020 
	C102.021248,65.922890 103.457481,63.837887 104.894470,61.360893 
	C104.777527,59.670952 104.659821,58.373013 104.852936,57.061302 
	C108.309731,58.673885 108.005630,61.206532 106.971909,63.930840 
	C105.615410,68.239639 104.648323,72.727226 102.778297,76.800255 
	C101.301376,80.017067 98.714226,82.724136 96.309265,85.823959 
z"/>
<path fill="#3A3940" opacity="1.000000" stroke="none" 
	d="
M22.948959,96.844582 
	C27.034775,89.944847 31.120592,83.045113 35.837914,76.281548 
	C35.870987,78.679146 35.272552,80.940575 34.674118,83.202003 
	C34.212719,83.112366 33.751320,83.022736 33.289921,82.933098 
	C33.861477,85.279678 34.433037,87.626259 34.729027,90.108017 
	C33.642120,90.855232 32.830780,91.467262 31.689978,92.060005 
	C30.491743,92.862114 29.622969,93.683502 28.674622,94.551239 
	C28.595049,94.597588 28.506672,94.759186 28.216633,94.866089 
	C27.327147,95.995094 26.727699,97.017189 25.913712,98.182510 
	C25.462141,98.572403 25.225113,98.819054 24.715816,99.100784 
	C23.942993,99.342537 23.442440,99.549217 22.950226,99.391884 
	C22.955362,98.300102 22.952160,97.572342 22.948959,96.844582 
z"/>
<path fill="#695E5A" opacity="1.000000" stroke="none" 
	d="
M91.982384,13.007766 
	C93.946487,11.677284 95.910591,10.346803 98.198242,8.962629 
	C99.467247,13.070607 100.412697,17.232277 100.759827,21.681910 
	C97.788750,20.619492 95.415993,19.269110 93.025505,17.558308 
	C92.665985,15.801180 92.324181,14.404473 91.982384,13.007766 
z"/>
<path fill="#8D7569" opacity="1.000000" stroke="none" 
	d="
M26.976757,111.018600 
	C25.187422,110.143219 23.398085,109.267845 21.394932,107.967972 
	C21.300764,107.234634 21.521288,107.040169 22.269794,106.971985 
	C25.259972,107.251274 27.823042,107.518661 30.386110,107.786041 
	C30.472435,107.471794 30.558758,107.157547 30.645082,106.843300 
	C29.678154,106.120468 28.711224,105.397629 27.969337,104.415833 
	C30.141909,101.589310 32.127857,99.092102 35.952629,100.337540 
	C35.647118,103.148170 35.323895,105.550468 34.990387,108.187698 
	C34.980103,108.422630 34.979488,108.892944 34.979492,108.892944 
	C33.823151,109.807419 32.666813,110.721893 30.918922,111.659622 
	C29.210501,111.461456 28.093628,111.240028 26.976757,111.018600 
z"/>
<path fill="#423535" opacity="1.000000" stroke="none" 
	d="
M35.004593,89.972832 
	C34.433037,87.626259 33.861477,85.279678 33.289921,82.933098 
	C33.751320,83.022736 34.212719,83.112366 34.674118,83.202003 
	C35.272552,80.940575 35.870987,78.679146 36.179726,76.182770 
	C35.949238,75.035324 36.008438,74.122841 36.763977,73.107590 
	C40.762993,74.052055 39.882648,76.453270 39.646275,78.914764 
	C39.521000,80.219345 40.508369,81.630760 41.246475,83.181892 
	C42.008259,84.252373 42.517021,85.134903 43.039284,86.324738 
	C43.367649,87.369263 43.682510,88.106499 43.598347,88.813393 
	C42.134861,88.823730 41.070400,88.864418 39.993938,88.554779 
	C39.313961,87.547455 38.645988,86.890457 37.978012,86.233467 
	C38.022446,87.225166 38.066879,88.216873 37.893829,89.470078 
	C36.785767,89.811996 35.895180,89.892418 35.004593,89.972832 
z"/>
<path fill="#403535" opacity="1.000000" stroke="none" 
	d="
M73.383698,24.055260 
	C74.499298,24.207144 75.357475,24.571209 76.580551,25.365547 
	C76.282234,28.458303 75.619026,31.120789 74.752831,33.919792 
	C74.279755,34.254360 74.089149,34.511337 73.645065,34.886246 
	C72.220131,35.624172 71.128151,36.303082 69.902176,37.205956 
	C69.476685,37.612610 69.185204,37.795303 68.550194,37.979172 
	C67.524635,37.989388 66.842613,37.998440 66.140167,37.604820 
	C66.029678,36.404888 65.939613,35.607632 65.849541,34.810371 
	C68.275124,31.296062 70.700706,27.781752 73.383698,24.055260 
z"/>
<path fill="#514D52" opacity="1.000000" stroke="none" 
	d="
M15.986350,106.759781 
	C13.713452,107.425278 11.440555,108.090767 8.031096,109.089043 
	C10.399833,102.021278 16.299086,100.630318 20.641430,97.580246 
	C19.971680,99.515190 19.002359,101.166069 17.622250,103.516579 
	C19.219650,102.736862 20.080753,102.316544 20.973396,102.315430 
	C21.061274,103.290878 21.117609,103.847130 21.107553,104.712753 
	C19.356224,105.601341 17.671288,106.180557 15.986350,106.759781 
z"/>
<path fill="#CBAD8B" opacity="1.000000" stroke="none" 
	d="
M67.888458,109.000633 
	C68.677933,108.646980 69.467407,108.293327 70.874008,108.061432 
	C73.003441,108.025818 74.910225,107.207367 75.956223,107.831512 
	C79.499611,109.945808 79.794922,107.693909 80.430969,105.113312 
	C80.857956,105.016388 81.035156,105.010757 81.212357,105.005135 
	C81.931259,105.313217 82.650162,105.621300 83.721420,106.382538 
	C84.695206,107.852699 85.316628,108.869682 85.938057,109.886673 
	C80.600739,113.544922 75.213264,111.904053 69.290314,109.803223 
	C68.467453,109.378372 68.177956,109.189507 67.888458,109.000633 
z"/>
<path fill="#887671" opacity="1.000000" stroke="none" 
	d="
M93.043228,17.918728 
	C95.415993,19.269110 97.788750,20.619492 100.520264,21.996658 
	C101.361618,23.186678 101.844215,24.349913 101.787628,25.906696 
	C100.141685,25.964478 99.050758,25.553675 97.923325,25.315973 
	C96.969727,25.114923 95.973869,25.114334 94.737320,24.931038 
	C93.698593,25.305271 92.919250,25.773495 91.939491,26.362127 
	C91.309151,25.607807 90.593925,24.751904 89.920456,23.674938 
	C89.962204,23.453875 90.133194,23.037695 90.401810,23.135834 
	C91.078560,22.491220 91.542435,21.772871 91.880951,20.999636 
	C92.320549,19.995508 92.660423,18.947721 93.043228,17.918728 
z"/>
<path fill="#534649" opacity="1.000000" stroke="none" 
	d="
M52.015652,50.008797 
	C51.492676,49.988697 50.969700,49.968597 50.055492,49.915550 
	C50.121998,43.840668 54.646610,41.280678 59.583946,39.129829 
	C59.978237,40.033352 59.988400,40.552212 59.842091,41.365540 
	C58.422428,43.801628 57.159237,45.943256 55.625748,48.268196 
	C54.242188,48.970604 53.128922,49.489700 52.015652,50.008797 
z"/>
<path fill="#584B4E" opacity="1.000000" stroke="none" 
	d="
M46.550255,53.855202 
	C46.736988,55.633553 46.943119,57.682205 46.407089,59.513645 
	C45.788567,61.626957 44.515388,63.548664 42.929588,65.785667 
	C41.901348,66.026947 41.470005,66.036133 40.702950,66.029533 
	C39.919159,66.009987 39.471077,66.006233 39.022999,66.002472 
	C41.429207,62.011486 43.835411,58.020493 46.550255,53.855202 
z"/>
<path fill="#724C3C" opacity="1.000000" stroke="none" 
	d="
M81.142296,104.636192 
	C81.035156,105.010757 80.857956,105.016388 80.039398,105.051453 
	C75.935677,104.443939 72.907043,103.343361 72.905647,99.006973 
	C73.717484,98.036949 74.529320,97.066917 76.008141,96.047806 
	C77.122704,95.997765 77.570282,95.996811 78.017860,95.995850 
	C78.450081,96.962105 78.882301,97.928360 79.536697,99.239777 
	C80.199516,100.402214 80.640152,101.219498 81.080780,102.036774 
	C81.077927,102.780266 81.075081,103.523758 81.142296,104.636192 
z"/>
<path fill="#7F6D66" opacity="1.000000" stroke="none" 
	d="
M94.996712,25.025030 
	C95.973869,25.114334 96.969727,25.114923 97.923325,25.315973 
	C99.050758,25.553675 100.141685,25.964478 101.554680,26.145046 
	C102.254265,28.707834 102.647614,31.425817 103.072731,34.548714 
	C102.814827,35.152462 102.525154,35.351295 101.813751,35.629757 
	C99.924103,34.134655 98.456184,32.559929 97.238434,30.803080 
	C98.231239,28.247746 97.867599,26.926245 94.993614,27.622406 
	C94.996399,26.509033 94.996552,25.767031 94.996712,25.025030 
z"/>
<path fill="#CABFB4" opacity="1.000000" stroke="none" 
	d="
M86.277802,110.061012 
	C85.316628,108.869682 84.695206,107.852699 83.985992,106.541115 
	C88.531715,107.408989 93.165207,108.571449 97.798706,109.733917 
	C97.625557,110.545975 97.452408,111.358025 97.279266,112.170082 
	C93.725357,111.525169 90.171448,110.880257 86.277802,110.061012 
z"/>
<path fill="#493A3A" opacity="1.000000" stroke="none" 
	d="
M40.993454,82.993950 
	C40.508369,81.630760 39.521000,80.219345 39.646275,78.914764 
	C39.882648,76.453270 40.762993,74.052055 37.064125,72.935211 
	C36.970104,71.453880 37.272270,70.042145 38.153622,68.315170 
	C39.482319,67.998627 40.231823,67.997337 41.087708,68.212067 
	C41.382317,68.701576 41.632755,68.894180 41.908924,69.379166 
	C41.112671,72.359863 39.646759,75.208611 43.997284,76.372520 
	C43.645042,77.456818 43.323299,78.227768 42.702511,78.900009 
	C41.933464,80.198853 41.463459,81.596405 40.993454,82.993950 
z"/>
<path fill="#817575" opacity="1.000000" stroke="none" 
	d="
M107.322968,63.836700 
	C108.005630,61.206532 108.309731,58.673885 104.656677,56.820644 
	C104.039879,55.766922 103.930138,54.940086 103.820396,54.113251 
	C104.752251,53.910862 105.684113,53.708473 107.301598,53.232117 
	C108.897385,52.753407 109.807541,52.548660 110.717697,52.343914 
	C109.703140,56.143463 108.688583,59.943008 107.322968,63.836700 
z"/>
<path fill="#9C9292" opacity="1.000000" stroke="none" 
	d="
M110.707809,52.158955 
	C109.807541,52.548660 108.897385,52.753407 107.524391,52.948215 
	C106.741859,49.466568 106.422157,45.994850 106.210999,42.074471 
	C107.585464,43.810555 108.851379,45.995312 109.840576,48.721382 
	C109.807014,49.967548 110.050171,50.672398 110.293335,51.377247 
	C110.549057,51.494499 110.683922,51.693413 110.707809,52.158955 
z"/>
<path fill="#5D4234" opacity="1.000000" stroke="none" 
	d="
M53.387753,107.350266 
	C52.937744,104.471954 52.370525,101.425552 55.816303,99.325417 
	C56.319248,99.065430 56.596027,99.233231 56.935074,100.039276 
	C57.364376,101.368202 57.672062,102.156792 57.783237,103.145599 
	C57.371685,104.658890 57.156639,105.971954 56.590702,107.256325 
	C55.784657,107.320633 55.329498,107.413651 54.874344,107.506668 
	C54.479183,107.444771 54.084019,107.382874 53.387753,107.350266 
z"/>
<path fill="#C0C7CF" opacity="1.000000" stroke="none" 
	d="
M16.008108,107.106743 
	C17.671288,106.180557 19.356224,105.601341 21.310036,104.633011 
	C21.578907,104.243889 21.982798,104.082283 22.005440,104.354210 
	C22.067522,104.803726 22.106962,104.981308 22.100605,105.459900 
	C21.984100,106.160622 21.913393,106.560349 21.842686,106.960068 
	C21.521288,107.040169 21.300764,107.234634 21.122465,107.763344 
	C19.889706,109.906380 18.715595,111.829544 17.200199,113.827957 
	C16.667513,113.416740 16.476110,112.930283 16.142532,112.222015 
	C16.000355,112.000214 15.991779,112.014389 15.991779,112.014389 
	C16.004475,110.494164 16.017172,108.973930 16.008108,107.106743 
z"/>
<path fill="#918581" opacity="1.000000" stroke="none" 
	d="
M35.376305,108.970963 
	C34.979488,108.892944 34.980103,108.422630 35.341248,108.192902 
	C37.473598,106.708725 39.244804,105.454277 41.384178,104.137917 
	C42.497520,104.040100 43.242695,104.004196 43.987869,103.968292 
	C44.621387,104.827888 45.254906,105.687485 45.554546,106.909393 
	C43.412014,107.780418 41.603367,108.289131 39.794716,108.797836 
	C38.454185,108.881554 37.113655,108.965271 35.376305,108.970963 
z"/>
<path fill="#D1D3D5" opacity="1.000000" stroke="none" 
	d="
M54.874596,107.868095 
	C55.329498,107.413651 55.784657,107.320633 56.748123,107.570801 
	C59.467937,108.669144 61.679432,109.424324 63.890926,110.179504 
	C64.139946,110.654243 64.388969,111.128983 64.842712,111.787537 
	C61.121738,112.178062 57.358650,111.942734 54.874596,107.868095 
z"/>
<path fill="#71594F" opacity="1.000000" stroke="none" 
	d="
M59.998562,41.071075 
	C59.988400,40.552212 59.978237,40.033352 59.952866,39.125454 
	C61.746040,37.580151 63.554432,36.423882 65.606186,35.038994 
	C65.939613,35.607632 66.029678,36.404888 65.808273,37.738834 
	C63.664059,39.207371 61.831310,40.139225 59.998562,41.071075 
z"/>
<path fill="#D1D3D5" opacity="1.000000" stroke="none" 
	d="
M40.212929,108.856285 
	C41.603367,108.289131 43.412014,107.780418 45.518707,107.248383 
	C45.816753,107.225052 45.952671,107.574982 46.052002,108.071930 
	C46.573978,109.539970 46.996624,110.511070 47.419270,111.482170 
	C45.156559,110.626358 42.893848,109.770546 40.212929,108.856285 
z"/>
<path fill="#2B2A31" opacity="1.000000" stroke="none" 
	d="
M20.941853,101.896225 
	C20.080753,102.316544 19.219650,102.736862 17.622250,103.516579 
	C19.002359,101.166069 19.971680,99.515190 20.988941,97.529869 
	C21.457735,97.102081 21.878584,97.008728 22.624195,96.879982 
	C22.952160,97.572342 22.955362,98.300102 22.753864,99.565140 
	C22.345461,100.379898 22.141754,100.657372 21.722332,101.037598 
	C21.242397,101.335556 21.054144,101.587517 20.941853,101.896225 
z"/>
<path fill="#918581" opacity="1.000000" stroke="none" 
	d="
M47.683651,111.550385 
	C46.996624,110.511070 46.573978,109.539970 46.124123,108.245216 
	C47.158573,107.952896 48.220222,107.984222 49.653614,108.395081 
	C49.877316,109.705589 49.729279,110.636581 49.581245,111.567566 
	C49.036842,111.584572 48.492435,111.601578 47.683651,111.550385 
z"/>
<path fill="#D1D3D5" opacity="1.000000" stroke="none" 
	d="
M49.999935,111.677040 
	C49.729279,110.636581 49.877316,109.705589 50.052452,108.415794 
	C50.533066,108.044876 50.986576,108.032776 51.765709,108.124786 
	C52.890957,109.456306 53.690582,110.683708 54.409035,111.786514 
	C53.477150,111.786514 51.947891,111.786514 49.999935,111.677040 
z"/>
<path fill="#918581" opacity="1.000000" stroke="none" 
	d="
M27.013065,111.346283 
	C28.093628,111.240028 29.210501,111.461456 30.645929,111.819878 
	C30.496775,112.550545 30.029064,113.144226 29.325737,113.901611 
	C28.409872,113.268196 27.729624,112.471085 27.013065,111.346283 
z"/>
<path fill="#9E785F" opacity="1.000000" stroke="none" 
	d="
M67.592560,109.023666 
	C68.177956,109.189507 68.467453,109.378372 68.892960,109.791855 
	C68.571037,110.668800 68.113113,111.321121 67.308754,111.911911 
	C67.073769,110.915825 67.185219,109.981262 67.592560,109.023666 
z"/>
<path fill="#644A3F" opacity="1.000000" stroke="none" 
	d="
M81.328140,101.968658 
	C80.640152,101.219498 80.199516,100.402214 79.881256,99.294678 
	C80.525162,99.577927 81.046700,100.151451 81.818695,100.881111 
	C81.904610,101.325012 81.740051,101.612770 81.328140,101.968658 
z"/>
<path fill="#4A3D40" opacity="1.000000" stroke="none" 
	d="
M40.981331,67.996048 
	C40.231823,67.997337 39.482319,67.998627 38.357979,68.000610 
	C38.231434,67.508072 38.479717,67.014824 38.875496,66.262024 
	C39.471077,66.006233 39.919159,66.009987 40.692390,66.354050 
	C41.005474,67.128250 40.993404,67.562141 40.981331,67.996048 
z"/>
<path fill="#817575" opacity="1.000000" stroke="none" 
	d="
M110.376282,50.965363 
	C110.050171,50.672398 109.807014,49.967548 109.834633,49.094231 
	C110.223343,49.468330 110.341286,50.010906 110.376282,50.965363 
z"/>
<path fill="#C0C7CF" opacity="1.000000" stroke="none" 
	d="
M16.007439,111.995895 
	C16.014523,111.991585 15.652445,111.779099 15.652445,111.779099 
	C15.652445,111.779099 15.859914,111.831276 15.925846,111.922836 
	C15.991779,112.014389 16.000355,112.000214 16.007439,111.995895 
z"/>
<path fill="#755242" opacity="1.000000" stroke="none" 
	d="
M85.996269,76.997543 
	C84.007179,77.041763 81.874939,76.640732 80.059288,77.224442 
	C76.464546,78.380112 75.995934,76.527695 76.003967,72.979652 
	C76.006111,70.790100 76.010040,69.408440 76.011490,68.015968 
	C76.009026,68.005165 76.024811,68.002106 76.248627,67.899719 
	C76.745415,67.597946 76.946320,67.341980 77.292068,67.032242 
	C77.508987,67.035034 77.942833,67.039291 77.960785,67.410309 
	C78.310760,69.276894 78.642799,70.772469 78.793823,71.452713 
	C80.660995,70.213966 82.335297,69.103188 84.263718,68.109222 
	C85.010986,68.486023 85.504143,68.746002 86.202339,69.267334 
	C87.266220,69.691231 88.125046,69.853790 89.008659,70.292404 
	C89.324478,70.994225 89.615524,71.419991 89.936119,71.893204 
	C89.965675,71.940636 90.027527,72.033752 90.013367,72.401726 
	C89.940186,73.905670 89.881165,75.041641 89.840889,75.816864 
	C88.341003,76.277481 87.168633,76.637512 85.996269,76.997543 
z"/>
<path fill="#60453A" opacity="1.000000" stroke="none" 
	d="
M73.003067,72.996284 
	C73.279861,74.412560 73.556664,75.828835 73.854858,77.354584 
	C70.006432,78.936211 66.392654,80.421410 62.127502,81.743408 
	C60.988441,80.386467 60.500759,79.192711 60.056114,77.672775 
	C61.065746,76.564850 62.032337,75.783104 63.352474,75.035645 
	C65.645615,75.308746 67.585205,75.547562 69.524803,75.786377 
	C69.684105,74.165520 69.843414,72.544670 70.372589,70.940201 
	C71.480927,70.988602 72.219406,71.020630 72.973862,71.376587 
	C72.994255,72.132431 72.998665,72.564362 73.003067,72.996284 
z"/>
<path fill="#4E3931" opacity="1.000000" stroke="none" 
	d="
M65.016403,91.668457 
	C64.275375,92.703575 63.517509,93.365311 62.272491,93.752274 
	C61.523430,92.659157 61.261509,91.840820 60.961662,90.722443 
	C60.519226,90.097443 60.114716,89.772484 59.710205,89.447525 
	C59.474297,89.964394 59.238388,90.481255 58.675499,91.141403 
	C55.898609,90.522118 53.448704,89.759560 51.122459,88.705833 
	C51.496693,87.622948 51.747257,86.831223 52.314011,86.013000 
	C53.406281,85.675751 54.182365,85.364990 55.044693,85.418198 
	C56.757282,86.190941 58.383633,86.599724 60.009987,87.008507 
	C61.673176,88.437363 63.336365,89.866219 65.016403,91.668457 
z"/>
<path fill="#6F5042" opacity="1.000000" stroke="none" 
	d="
M97.989456,70.911896 
	C98.198166,73.071831 98.839409,75.308327 98.474998,77.366806 
	C98.197151,78.936325 96.644157,80.280098 95.347008,81.875053 
	C94.352425,80.886185 93.669273,79.746559 92.937988,77.979538 
	C91.935745,75.579338 90.981636,73.806549 90.027527,72.033752 
	C90.027527,72.033752 89.965675,71.940636 90.113136,71.684135 
	C90.852592,71.010597 91.444595,70.593559 92.265182,70.122772 
	C92.493767,70.069016 92.963066,70.078606 93.081192,70.289154 
	C93.436684,70.763664 93.730057,70.864098 94.468887,70.850891 
	C95.902023,70.904472 96.945740,70.908188 97.989456,70.911896 
z"/>
<path fill="#523A32" opacity="1.000000" stroke="none" 
	d="
M74.004097,92.110260 
	C72.812515,91.942566 71.620926,91.774872 70.196304,91.331818 
	C69.889198,88.848694 69.815117,86.640945 69.741043,84.433197 
	C72.002472,85.099983 74.263901,85.766762 76.454636,86.743866 
	C75.590660,88.739548 74.797379,90.424896 74.004097,92.110260 
z"/>
<path fill="#624D47" opacity="1.000000" stroke="none" 
	d="
M60.016270,86.650955 
	C58.383633,86.599724 56.757282,86.190941 55.321793,85.171112 
	C56.329773,81.904526 55.812099,78.333427 60.013077,77.998955 
	C60.500759,79.192711 60.988441,80.386467 61.736626,81.790482 
	C61.338940,83.431618 60.680744,84.862503 60.016270,86.650955 
z"/>
<path fill="#55352E" opacity="1.000000" stroke="none" 
	d="
M90.013367,72.401726 
	C90.981636,73.806549 91.935745,75.579338 92.889328,77.647621 
	C91.304482,79.402184 89.720177,80.861252 88.109459,82.344650 
	C87.690849,81.274078 86.982864,79.463417 86.135574,77.325150 
	C87.168633,76.637512 88.341003,76.277481 89.840889,75.816864 
	C89.881165,75.041641 89.940186,73.905670 90.013367,72.401726 
z"/>
<path fill="#644A3F" opacity="1.000000" stroke="none" 
	d="
M74.211548,92.366280 
	C74.797379,90.424896 75.590660,88.739548 76.681320,87.014221 
	C77.501030,89.823868 78.023376,92.673485 78.281784,95.759476 
	C77.570282,95.996811 77.122704,95.997765 76.339699,96.000427 
	C75.475853,94.875526 74.947426,93.748917 74.211548,92.366280 
z"/>
<path fill="#523127" opacity="1.000000" stroke="none" 
	d="
M87.095398,88.063324 
	C86.021645,90.674149 85.026215,92.966858 84.030777,95.259567 
	C83.250877,94.861031 82.470978,94.462494 81.691078,94.063950 
	C83.351608,91.120003 85.012138,88.176048 86.672668,85.232094 
	C87.002853,85.363785 87.333046,85.495476 87.663239,85.627167 
	C87.500069,86.333176 87.336891,87.039185 87.095398,88.063324 
z"/>
<path fill="#856351" opacity="1.000000" stroke="none" 
	d="
M73.377533,72.998154 
	C72.998665,72.564362 72.994255,72.132431 73.111145,71.090538 
	C74.159622,69.662636 75.086792,68.844704 76.013962,68.026772 
	C76.010040,69.408440 76.006111,70.790100 76.001099,72.588028 
	C75.250664,73.002861 74.501320,73.001442 73.377533,72.998154 
z"/>
<path fill="#624E48" opacity="1.000000" stroke="none" 
	d="
M74.955811,33.783272 
	C75.619026,31.120789 76.282234,28.458303 76.927467,25.414236 
	C77.765350,24.140162 78.621216,23.247669 79.736763,22.177145 
	C79.996452,21.999113 79.983986,22.006254 79.989655,22.252913 
	C79.995331,22.499571 80.012810,22.992706 80.053528,23.298534 
	C81.092751,23.071325 82.091248,22.538290 83.360443,22.130028 
	C84.417732,22.833899 85.204338,23.412994 85.995316,23.995790 
	C85.999695,23.999489 85.991791,23.996450 85.824730,24.087145 
	C85.770844,24.453539 85.884026,24.729240 86.000137,25.396877 
	C86.336960,27.532967 86.670853,29.277121 86.746338,31.118370 
	C85.994377,31.458597 85.500816,31.701731 84.949615,31.601173 
	C83.840271,30.863443 82.788567,30.469398 81.736862,30.075354 
	C81.578987,30.459730 81.421112,30.844107 81.263237,31.228481 
	C82.839539,32.154495 84.415833,33.080509 85.997009,34.255974 
	C86.001892,34.505432 86.014656,35.004276 86.014656,35.004276 
	C85.230339,36.633846 84.446022,38.263416 83.145081,39.676861 
	C80.247421,37.675785 79.279358,33.534744 75.005661,34.616272 
	C74.984192,34.153721 74.970001,33.968494 74.955811,33.783272 
z"/>
<path fill="#9F7F70" opacity="1.000000" stroke="none" 
	d="
M87.853004,49.991695 
	C88.429070,50.277817 89.005142,50.563938 89.799492,51.350231 
	C89.898376,52.581924 89.778976,53.313446 89.304985,54.035980 
	C87.627373,54.355766 86.304359,54.684540 84.686310,55.029785 
	C83.927124,55.362495 83.462975,55.678730 82.678925,55.995087 
	C81.932640,56.006447 81.506256,56.017685 80.898560,55.779686 
	C80.144936,55.343765 79.572632,55.157074 78.826797,54.748737 
	C78.088226,54.991619 77.523170,55.456146 76.699249,56.131985 
	C76.527565,57.403141 76.761391,58.478779 76.649521,59.517178 
	C76.576965,60.190567 75.999741,60.809582 75.648643,61.452961 
	C75.077377,60.957005 74.506119,60.461048 73.955650,59.569607 
	C73.975677,58.111904 73.974907,57.049690 74.134415,55.672829 
	C74.895164,53.600647 75.495628,51.843113 76.444748,50.050957 
	C77.926720,49.311096 79.060043,48.605854 80.546799,47.990662 
	C83.217827,48.717705 85.535416,49.354702 87.853004,49.991695 
z"/>
<path fill="#BA9F94" opacity="1.000000" stroke="none" 
	d="
M87.881912,49.635391 
	C85.535416,49.354702 83.217827,48.717705 80.527191,47.633026 
	C80.447304,45.785767 80.740463,44.386192 81.145996,42.723927 
	C81.836601,41.990677 82.414833,41.520123 82.993057,41.049568 
	C83.784653,41.311649 84.576256,41.573734 85.710464,42.248604 
	C86.689980,43.126011 87.326881,43.590633 87.963791,44.055252 
	C87.946136,45.796532 87.928482,47.537811 87.881912,49.635391 
z"/>
<path fill="#8D7060" opacity="1.000000" stroke="none" 
	d="
M96.988266,30.985197 
	C98.456184,32.559929 99.924103,34.134655 101.686630,35.863991 
	C102.301651,37.260357 102.622047,38.502117 103.046097,40.145603 
	C99.935944,39.548721 97.087242,39.002014 94.100845,37.803749 
	C93.981850,36.709496 94.000549,36.266800 94.007248,35.423187 
	C94.003128,33.678429 94.010994,32.334583 94.389801,30.993393 
	C95.503258,30.992434 96.245766,30.988813 96.988266,30.985197 
z"/>
<path fill="#8B6B5C" opacity="1.000000" stroke="none" 
	d="
M82.996758,40.784092 
	C82.414833,41.520123 81.836601,41.990677 80.788849,42.700336 
	C78.557564,42.286160 76.795799,41.632881 75.026520,40.650120 
	C75.011406,39.881271 75.003799,39.441906 75.000381,38.593369 
	C75.007355,37.087330 75.010147,35.990459 75.012939,34.893593 
	C79.279358,33.534744 80.247421,37.675785 82.820312,39.724243 
	C83.008263,40.164703 83.004356,40.341660 82.996758,40.784092 
z"/>
<path fill="#907166" opacity="1.000000" stroke="none" 
	d="
M92.970818,50.104179 
	C93.858322,47.898399 94.745827,45.692619 95.942711,42.717896 
	C97.565681,45.299652 98.870636,47.375530 100.934097,50.658005 
	C97.915718,50.847343 95.886955,50.974606 93.429749,50.840523 
	C93.001312,50.579185 92.970818,50.104179 92.970818,50.104179 
z"/>
<path fill="#DBC8C2" opacity="1.000000" stroke="none" 
	d="
M103.527924,53.899094 
	C103.930138,54.940086 104.039879,55.766922 104.345863,56.834412 
	C104.659821,58.373013 104.777527,59.670952 104.590187,61.467278 
	C103.860962,61.973461 103.436775,61.981262 102.888245,61.648285 
	C101.839310,59.746231 100.914726,58.184959 100.009216,56.377350 
	C100.045326,55.801937 100.054070,55.472641 99.962753,54.882008 
	C99.595001,54.388298 99.319000,54.155708 99.043007,53.923122 
	C100.243446,50.375416 101.694603,51.240761 103.527924,53.899094 
z"/>
<path fill="#E6D1C4" opacity="1.000000" stroke="none" 
	d="
M92.674194,50.170685 
	C92.970818,50.104179 93.001312,50.579185 93.080017,50.803940 
	C93.100883,52.732731 93.043045,54.436775 92.591171,56.572533 
	C91.488266,56.999249 90.779396,56.994247 90.045044,56.615555 
	C89.899567,55.509567 89.779579,54.777267 89.659592,54.044971 
	C89.778976,53.313446 89.898376,52.581924 90.091888,51.487167 
	C90.903191,50.828358 91.640388,50.532776 92.674194,50.170685 
z"/>
<path fill="#7C6053" opacity="1.000000" stroke="none" 
	d="
M94.018860,30.990734 
	C94.010994,32.334583 94.003128,33.678429 93.625641,35.441727 
	C93.004349,35.899246 92.752670,35.937317 92.500984,35.975384 
	C92.500984,35.975384 92.497597,35.998039 92.377182,35.701847 
	C91.817200,34.655796 91.377632,33.905933 90.978790,32.817348 
	C91.683502,31.650496 92.347488,30.822369 93.230927,30.102051 
	C93.722725,30.409819 93.912224,30.670111 94.018860,30.990734 
z"/>
<path fill="#7C6258" opacity="1.000000" stroke="none" 
	d="
M88.160835,43.772018 
	C87.326881,43.590633 86.689980,43.126011 86.011429,42.342411 
	C87.087715,41.349354 88.205643,40.675278 89.661789,40.000599 
	C90.000000,40.000000 90.015762,39.982410 90.015762,39.982410 
	C89.463135,41.151199 88.910507,42.319992 88.160835,43.772018 
z"/>
<path fill="#D3C3B6" opacity="1.000000" stroke="none" 
	d="
M100.054504,55.143127 
	C100.054070,55.472641 100.045326,55.801937 99.873924,56.703964 
	C98.774208,57.875511 97.828850,58.474094 96.627350,59.050186 
	C96.203911,58.990288 96.036613,58.952873 95.858589,58.600433 
	C95.835869,57.866547 95.823883,57.447689 95.811905,57.028835 
	C95.811905,57.028835 95.982491,56.561871 96.217239,56.175621 
	C96.719284,55.619770 96.941505,55.403797 97.118660,55.141449 
	C97.538956,55.132221 97.959259,55.122990 98.950104,55.101673 
	C99.698608,55.107433 99.876556,55.125278 100.054504,55.143127 
z"/>
<path fill="#8B7164" opacity="1.000000" stroke="none" 
	d="
M90.040421,36.317944 
	C89.144318,37.166290 88.248215,38.014637 86.754761,39.428497 
	C86.876595,37.642178 86.944389,36.648140 87.375198,35.333145 
	C88.219131,35.049686 88.700050,35.087193 89.326614,35.319481 
	C89.671165,35.775421 89.860558,36.043316 90.040421,36.317944 
z"/>
<path fill="#BA9F92" opacity="1.000000" stroke="none" 
	d="
M90.450607,36.278694 
	C89.860558,36.043316 89.671165,35.775421 89.366089,35.065948 
	C89.250648,34.447632 89.241371,34.277634 89.359550,33.876152 
	C89.970688,33.481804 90.454384,33.318939 90.938072,33.156075 
	C91.377632,33.905933 91.817200,34.655796 92.378098,35.713242 
	C91.953232,36.093700 91.407013,36.166573 90.450607,36.278694 
z"/>
<path fill="#7C6258" opacity="1.000000" stroke="none" 
	d="
M89.232101,34.107632 
	C89.241371,34.277634 89.250648,34.447632 89.220444,34.871162 
	C88.700050,35.087193 88.219131,35.049686 87.377937,35.010216 
	C86.850441,35.006618 86.683220,35.004993 86.265335,35.003822 
	C86.014656,35.004276 86.001892,34.505432 85.890610,33.990585 
	C85.521965,32.965446 85.264610,32.455154 85.007256,31.944862 
	C85.500816,31.701731 85.994377,31.458597 86.774513,31.452415 
	C87.784760,32.495453 88.508430,33.301540 89.232101,34.107632 
z"/>
<path fill="#DBC8BD" opacity="1.000000" stroke="none" 
	d="
M90.070518,56.989246 
	C90.779396,56.994247 91.488266,56.999249 92.548920,56.997086 
	C92.928726,57.436050 92.956764,57.882187 92.703949,58.792480 
	C92.281967,59.377579 92.140854,59.498520 91.612144,59.490166 
	C90.690392,59.260147 90.156235,59.159424 89.713623,58.717651 
	C89.893623,57.914146 89.982071,57.451698 90.070518,56.989246 
z"/>
<path fill="#6E574D" opacity="1.000000" stroke="none" 
	d="
M95.500748,57.076691 
	C95.823883,57.447689 95.835869,57.866547 95.643669,58.720184 
	C95.233627,59.410915 95.029823,59.668491 94.639755,59.833252 
	C94.206360,59.580578 94.033989,59.364391 93.934319,59.090248 
	C94.352745,58.435013 94.771164,57.779781 95.500748,57.076691 
z"/>
<path fill="#93817C" opacity="1.000000" stroke="none" 
	d="
M93.680397,59.061493 
	C94.033989,59.364391 94.206360,59.580578 94.610001,60.071350 
	C94.623734,60.711189 94.390610,60.919861 93.797096,60.925709 
	C93.014656,60.541286 92.504311,60.261047 91.993469,59.890442 
	C91.992973,59.800072 91.999733,59.619457 91.999733,59.619457 
	C92.140854,59.498520 92.281967,59.377579 92.669830,59.127285 
	C93.086548,59.009533 93.256516,59.021137 93.680397,59.061493 
z"/>
<path fill="#BA9F92" opacity="1.000000" stroke="none" 
	d="
M92.643921,36.246788 
	C92.752670,35.937317 93.004349,35.899246 93.637634,35.842640 
	C94.000549,36.266800 93.981850,36.709496 93.958649,37.480225 
	C93.565056,37.378231 93.175964,36.948215 92.643921,36.246788 
z"/>
<path fill="#A08C83" opacity="1.000000" stroke="none" 
	d="
M96.853516,55.165581 
	C96.941505,55.403797 96.719284,55.619770 96.266525,55.931984 
	C96.250153,55.779629 96.419258,55.484669 96.853516,55.165581 
z"/>
<path fill="#907166" opacity="1.000000" stroke="none" 
	d="
M99.962753,54.882008 
	C99.876556,55.125278 99.698608,55.107433 99.258301,55.033398 
	C98.996429,54.801281 98.996918,54.625355 99.020203,54.186275 
	C99.319000,54.155708 99.595001,54.388298 99.962753,54.882008 
z"/>
<path fill="#6E574D" opacity="1.000000" stroke="none" 
	d="
M95.553925,53.471031 
	C95.589638,53.530403 95.518204,53.411659 95.553925,53.471031 
z"/>
<path fill="#8D7060" opacity="1.000000" stroke="none" 
	d="
M90.008728,39.992104 
	C90.106842,39.948982 90.196228,39.913765 90.150688,39.930481 
	C90.015762,39.982410 90.000000,40.000000 90.008728,39.992104 
z"/>
<path fill="#9E785F" opacity="1.000000" stroke="none" 
	d="
M72.664352,98.824463 
	C72.907043,103.343361 75.935677,104.443939 79.789627,105.142746 
	C79.794922,107.693909 79.499611,109.945808 75.956223,107.831512 
	C74.910225,107.207367 73.003441,108.025818 71.215553,108.036400 
	C70.232185,106.964493 69.524384,106.039368 69.213203,105.632637 
	C69.883942,102.798889 70.483910,100.264153 71.127068,97.546928 
	C71.357269,97.741440 71.890160,98.191696 72.664352,98.824463 
z"/>
<path fill="#432E28" opacity="1.000000" stroke="none" 
	d="
M60.999592,91.022476 
	C61.261509,91.840820 61.523430,92.659157 61.926331,93.776627 
	C61.492641,94.872047 60.917973,95.668358 59.915478,96.721466 
	C59.487656,96.978271 58.998329,97.002632 58.998329,97.002632 
	C58.558693,96.993362 58.119061,96.984085 57.350166,96.964340 
	C57.020905,96.953880 57.030674,96.470291 56.978020,95.902260 
	C55.950649,95.235260 54.975933,95.136284 54.001217,95.037323 
	C52.941261,95.022980 51.881302,95.008644 50.390839,94.654449 
	C50.306488,92.542068 50.652645,90.769531 50.998802,88.997002 
	C53.448704,89.759560 55.898609,90.522118 59.008354,91.141754 
	C60.111992,91.006706 60.555794,91.014587 60.999592,91.022476 
z"/>
<path fill="#7F6259" opacity="1.000000" stroke="none" 
	d="
M64.022484,109.862717 
	C61.679432,109.424324 59.467937,108.669144 57.099014,107.599503 
	C57.156639,105.971954 57.371685,104.658890 58.132767,103.148438 
	C59.421356,102.304482 60.163910,101.657898 60.906464,101.011307 
	C61.988987,103.856178 63.071518,106.701057 64.022484,109.862717 
z"/>
<path fill="#60453A" opacity="1.000000" stroke="none" 
	d="
M60.602715,100.862579 
	C60.163910,101.657898 59.421356,102.304482 58.329277,102.948219 
	C57.672062,102.156792 57.364376,101.368202 57.051289,100.256607 
	C58.130245,100.193687 59.214603,100.453773 60.602715,100.862579 
z"/>
<path fill="#60453A" opacity="1.000000" stroke="none" 
	d="
M59.083893,97.177734 
	C58.998329,97.002632 59.487656,96.978271 59.732376,96.974854 
	C59.707886,97.098572 59.438675,97.225708 59.083893,97.177734 
z"/>
<path fill="#726D6E" opacity="1.000000" stroke="none" 
	d="
M93.025505,17.558308 
	C92.660423,18.947721 92.320549,19.995508 91.880951,20.999636 
	C91.542435,21.772871 91.078560,22.491220 90.378174,22.770325 
	C89.761940,21.193161 89.437943,20.079645 88.958664,18.678473 
	C88.199471,18.253000 87.595573,18.115185 86.992996,17.992416 
	C86.994316,18.007465 87.024178,18.002848 86.903687,17.723110 
	C86.200920,17.305115 85.618637,17.166859 85.029892,16.780544 
	C85.023438,16.532486 85.017952,16.036228 85.259338,15.859863 
	C85.642838,15.119559 85.784950,14.555620 85.927055,13.991681 
	C87.730331,13.579125 89.533600,13.166569 91.659630,12.880889 
	C92.324181,14.404473 92.665985,15.801180 93.025505,17.558308 
z"/>
<path fill="#4C4243" opacity="1.000000" stroke="none" 
	d="
M85.599243,13.990251 
	C85.784950,14.555620 85.642838,15.119559 84.936157,15.888430 
	C84.053215,16.838535 83.597076,17.557367 83.448380,18.334986 
	C83.218460,19.537304 83.198662,20.779800 83.089752,22.005257 
	C82.091248,22.538290 81.092751,23.071325 80.217285,23.208183 
	C80.221550,22.543423 80.102768,22.274839 79.983986,22.006254 
	C79.983986,22.006254 79.996452,21.999113 79.995834,22.007128 
	C76.979454,18.783255 80.612343,16.649906 81.507484,14.147025 
	C81.666489,13.702439 83.962311,14.022074 85.599243,13.990251 
z"/>
<path fill="#463534" opacity="1.000000" stroke="none" 
	d="
M51.010498,74.007401 
	C56.146679,73.673820 54.081989,69.075256 56.098511,66.256752 
	C57.492050,66.008286 58.237984,66.013435 59.131821,66.305405 
	C63.062462,69.753670 62.637791,65.233818 64.349426,63.999962 
	C65.135178,64.003868 65.584358,64.007477 65.884377,64.325699 
	C64.487595,67.084282 63.239967,69.528236 61.650642,72.022278 
	C57.532341,75.715675 53.755741,79.358986 49.648632,83.002945 
	C48.877407,83.003685 48.436691,83.003784 48.003510,82.615509 
	C49.010868,79.487228 50.010681,76.747314 51.010498,74.007401 
z"/>
<path fill="#7C6056" opacity="1.000000" stroke="none" 
	d="
M52.015678,50.390503 
	C53.128922,49.489700 54.242188,48.970604 55.655418,48.507992 
	C55.955387,48.564480 55.995537,49.047050 56.114258,49.309242 
	C59.799793,50.383186 63.366608,51.194935 66.953598,52.244919 
	C66.973770,52.483158 66.986298,52.961174 66.768845,53.073605 
	C66.274948,53.388088 66.100250,53.656399 65.653061,53.992943 
	C63.516636,54.002613 61.754448,54.010303 59.721291,54.208183 
	C59.290905,55.254021 59.131493,56.109669 58.972076,56.965317 
	C56.774612,56.247856 54.468624,52.948269 51.652664,57.190750 
	C51.773678,55.051235 51.894691,52.911720 52.015678,50.390503 
z"/>
<path fill="#554442" opacity="1.000000" stroke="none" 
	d="
M50.664238,74.036697 
	C50.010681,76.747314 49.010868,79.487228 48.005646,82.613464 
	C48.000244,82.999786 48.004089,82.995728 47.690971,83.036606 
	C46.584366,83.721321 45.790878,84.365166 44.863220,84.778992 
	C44.489368,83.702286 44.249687,82.855606 44.305756,81.966644 
	C44.068195,80.949219 43.534885,79.974068 43.000790,78.999458 
	C43.000000,79.000000 43.001553,78.998718 43.001553,78.998718 
	C43.323299,78.227768 43.645042,77.456818 43.997078,76.355293 
	C44.027370,76.024719 44.055737,76.014030 44.265015,75.903259 
	C44.733669,75.595062 44.921402,75.344032 45.365093,75.031219 
	C46.129612,75.015060 46.566525,75.007072 47.003437,74.999084 
	C48.108284,74.688049 49.213135,74.377022 50.664238,74.036697 
z"/>
<path fill="#2E2325" opacity="1.000000" stroke="none" 
	d="
M44.027576,76.041946 
	C39.646759,75.208611 41.112671,72.359863 42.154900,69.256714 
	C42.642300,68.462410 42.847256,68.163826 43.052216,67.865242 
	C43.052212,67.865242 43.529587,67.913170 43.807220,68.279404 
	C44.733238,69.097954 45.381618,69.550262 46.029999,70.002579 
	C46.019478,70.446236 46.008961,70.889885 45.708046,71.803780 
	C44.969006,73.182739 44.520355,74.091469 44.054703,75.253448 
	C44.043713,75.675804 44.049725,75.844917 44.055737,76.014030 
	C44.055737,76.014030 44.027370,76.024719 44.027576,76.041946 
z"/>
<path fill="#58423F" opacity="1.000000" stroke="none" 
	d="
M58.983921,66.018585 
	C58.237984,66.013435 57.492050,66.008286 56.373131,66.001938 
	C55.039730,64.055542 54.079308,62.110348 52.799770,59.518829 
	C54.744022,59.717724 56.037891,59.850082 57.708149,60.232693 
	C58.084541,60.482944 58.099380,60.981483 57.842407,61.138004 
	C58.053677,62.201603 58.521923,63.108677 58.995468,64.007507 
	C59.000763,63.999268 58.981926,64.005013 58.986931,64.251190 
	C58.991936,64.497375 59.012470,64.989418 59.007851,65.246780 
	C58.996796,65.675621 58.990356,65.847099 58.983921,66.018585 
z"/>
<path fill="#876B5E" opacity="1.000000" stroke="none" 
	d="
M58.099380,60.981483 
	C58.099380,60.981483 58.084541,60.482944 58.071182,60.233780 
	C58.216599,59.422863 58.375370,58.861103 59.035294,58.053787 
	C59.981991,57.507000 60.427532,57.205780 61.249531,56.929146 
	C62.127323,56.978786 62.628666,57.003841 63.087509,57.439232 
	C63.012890,59.224403 62.980770,60.599232 62.719185,62.123863 
	C61.319908,61.840961 60.150097,61.408257 58.760044,60.975086 
	C58.539806,60.974621 58.099380,60.981483 58.099380,60.981483 
z"/>
<path fill="#3C2D2B" opacity="1.000000" stroke="none" 
	d="
M46.334190,69.864830 
	C45.381618,69.550262 44.733238,69.097954 44.043114,68.322983 
	C45.221569,67.807236 46.441765,67.614151 48.100647,67.101791 
	C49.325069,66.831093 50.110809,66.879654 50.896545,66.928223 
	C49.477161,67.861176 48.057774,68.794128 46.334190,69.864830 
z"/>
<path fill="#58423F" opacity="1.000000" stroke="none" 
	d="
M51.260715,66.895401 
	C50.110809,66.879654 49.325069,66.831093 48.282238,66.909439 
	C47.773270,64.217369 49.366287,63.637257 51.644554,64.261261 
	C51.859375,64.320107 51.641739,65.957878 51.260715,66.895401 
z"/>
<path fill="#4A3B38" opacity="1.000000" stroke="none" 
	d="
M44.071705,75.000191 
	C44.520355,74.091469 44.969006,73.182739 45.706539,72.136612 
	C46.330151,72.773300 46.664875,73.547394 47.001518,74.660286 
	C46.566525,75.007072 46.129612,75.015060 45.123631,75.017044 
	C44.554562,75.011032 44.071705,75.000191 44.071705,75.000191 
z"/>
<path fill="#543B34" opacity="1.000000" stroke="none" 
	d="
M60.873077,56.904560 
	C60.427532,57.205780 59.981991,57.507000 59.278481,57.881454 
	C59.020515,57.954689 59.002331,57.460094 58.987206,57.212708 
	C59.131493,56.109669 59.290905,55.254021 59.846519,54.491821 
	C60.452843,55.358364 60.662960,56.131462 60.873077,56.904560 
z"/>
<path fill="#392E33" opacity="1.000000" stroke="none" 
	d="
M43.043835,67.557800 
	C42.847256,68.163826 42.642300,68.462410 42.191368,68.883438 
	C41.632755,68.894180 41.382317,68.701576 41.087708,68.212067 
	C40.993404,67.562141 41.005474,67.128250 41.028103,66.369843 
	C41.470005,66.036133 41.901348,66.026947 42.656273,66.017944 
	C42.998390,66.428871 43.016922,66.839615 43.043835,67.557800 
z"/>
<path fill="#918581" opacity="1.000000" stroke="none" 
	d="
M22.052753,112.409126 
	C22.287552,112.796631 22.285511,113.181717 22.254442,113.564445 
	C22.253435,113.576820 21.955648,113.565102 21.796207,113.564613 
	C21.801285,113.178528 21.806362,112.792435 22.052753,112.409126 
z"/>
<path fill="#B6A69F" opacity="1.000000" stroke="none" 
	d="
M34.729027,90.108017 
	C35.895180,89.892418 36.785767,89.811996 38.213379,89.437805 
	C39.168915,89.064392 39.587429,88.984749 40.005939,88.905106 
	C41.070400,88.864418 42.134861,88.823730 43.523937,89.080345 
	C43.834595,89.560539 43.820641,89.743431 43.806686,89.926331 
	C42.946785,91.746498 42.086884,93.566666 40.819210,95.837204 
	C38.919262,97.501450 37.427086,98.715332 35.934910,99.929207 
	C32.127857,99.092102 30.141909,101.589310 27.729084,104.446449 
	C26.938145,104.745079 26.612959,104.762627 26.169048,104.489967 
	C25.361996,103.798882 24.674129,103.406525 24.155880,102.707970 
	C24.546358,101.289749 24.767221,100.177734 24.988085,99.065712 
	C25.225113,98.819054 25.462141,98.572403 26.257610,98.151764 
	C27.379593,96.904915 27.943132,95.832054 28.506672,94.759186 
	C28.506672,94.759186 28.595049,94.597588 29.011673,94.690109 
	C30.292011,93.881508 31.155724,92.980392 32.019440,92.079285 
	C32.830780,91.467262 33.642120,90.855232 34.729027,90.108017 
z"/>
<path fill="#59423A" opacity="1.000000" stroke="none" 
	d="
M44.117531,90.122360 
	C43.820641,89.743431 43.834595,89.560539 43.922962,89.110687 
	C43.682510,88.106499 43.367649,87.369263 43.368134,86.318283 
	C44.122616,85.997177 44.561745,85.989807 45.187363,86.219452 
	C46.250591,85.302887 47.127338,84.149307 48.004089,82.995728 
	C48.004089,82.995728 48.000244,82.999786 47.998108,83.001831 
	C48.436691,83.003784 48.877407,83.003685 49.996399,83.057587 
	C51.115723,84.087547 51.556774,85.063530 51.997822,86.039505 
	C51.747257,86.831223 51.496693,87.622948 51.122463,88.705833 
	C50.652645,90.769531 50.306488,92.542068 49.993679,94.637550 
	C48.937778,95.210106 47.848526,95.459709 46.618523,95.741570 
	C45.862026,93.868355 45.145203,92.093369 44.117531,90.122360 
z"/>
<path fill="#836658" opacity="1.000000" stroke="none" 
	d="
M35.952629,100.337540 
	C37.427086,98.715332 38.919262,97.501450 40.711395,96.163528 
	C41.023125,96.209778 41.034897,96.380089 40.990364,97.156265 
	C40.961380,99.908028 40.988697,102.053932 41.016014,104.199829 
	C39.244804,105.454277 37.473598,106.708725 35.351528,107.957970 
	C35.323895,105.550468 35.647118,103.148170 35.952629,100.337540 
z"/>
<path fill="#684941" opacity="1.000000" stroke="none" 
	d="
M41.384178,104.137917 
	C40.988697,102.053932 40.961380,99.908028 41.003357,97.412018 
	C45.219219,97.567886 43.648163,100.822136 43.993938,103.560196 
	C43.242695,104.004196 42.497520,104.040100 41.384178,104.137917 
z"/>
<path fill="#60453A" opacity="1.000000" stroke="none" 
	d="
M54.209610,95.295898 
	C54.975933,95.136284 55.950649,95.235260 56.968414,95.660614 
	C56.146980,95.842819 55.282494,95.698647 54.209610,95.295898 
z"/>
<path fill="#5D4234" opacity="1.000000" stroke="none" 
	d="
M51.204163,100.350220 
	C50.858139,100.051239 50.723347,99.807503 50.588554,99.563766 
	C50.842113,99.491539 51.095673,99.419312 51.349228,99.347076 
	C51.371284,99.699867 51.393341,100.052666 51.204163,100.350220 
z"/>
<path fill="#876D62" opacity="1.000000" stroke="none" 
	d="
M103.012596,61.989059 
	C103.436775,61.981262 103.860962,61.973461 104.589424,61.859276 
	C103.457481,63.837887 102.021248,65.922890 99.836388,68.016304 
	C97.758789,67.642349 96.429825,67.259979 95.210983,66.634857 
	C95.528381,65.901978 95.735649,65.411850 96.038422,64.648804 
	C96.700745,63.870354 97.267563,63.364830 98.139496,62.985157 
	C99.967270,62.737022 101.489937,62.363041 103.012596,61.989059 
z"/>
<path fill="#C8AFAC" opacity="1.000000" stroke="none" 
	d="
M95.100861,66.877609 
	C96.429825,67.259979 97.758789,67.642349 99.455795,68.041443 
	C99.277634,68.828979 98.731438,69.599792 98.087341,70.641251 
	C96.945740,70.908188 95.902023,70.904472 94.433884,70.501831 
	C93.973747,69.400467 93.938049,68.698029 94.041260,67.751251 
	C94.487053,67.297142 94.793961,67.087372 95.100861,66.877609 
z"/>
<path fill="#8D7569" opacity="1.000000" stroke="none" 
	d="
M24.715816,99.100784 
	C24.767221,100.177734 24.546358,101.289749 24.163834,102.700302 
	C24.002171,102.998840 24.018095,102.987007 23.752161,102.963501 
	C23.310011,102.914993 23.133795,102.889984 22.853207,102.612976 
	C22.478569,101.885597 22.208305,101.410217 21.938046,100.934845 
	C22.141754,100.657372 22.345461,100.379898 22.745525,99.929161 
	C23.442440,99.549217 23.942993,99.342537 24.715816,99.100784 
z"/>
<path fill="#8D7569" opacity="1.000000" stroke="none" 
	d="
M31.689976,92.059998 
	C31.155724,92.980392 30.292011,93.881508 29.091248,94.643753 
	C29.622969,93.683502 30.491743,92.862114 31.689976,92.059998 
z"/>
<path fill="#8D7569" opacity="1.000000" stroke="none" 
	d="
M28.216631,94.866089 
	C27.943132,95.832054 27.379593,96.904915 26.472153,98.008530 
	C26.727699,97.017189 27.327147,95.995094 28.216631,94.866089 
z"/>
<path fill="#836658" opacity="1.000000" stroke="none" 
	d="
M26.288233,104.788689 
	C26.612959,104.762627 26.938145,104.745079 27.504044,104.705414 
	C28.711224,105.397629 29.678154,106.120468 30.645082,106.843300 
	C30.558758,107.157547 30.472435,107.471794 30.386110,107.786041 
	C27.823042,107.518661 25.259972,107.251274 22.269794,106.971985 
	C21.913393,106.560349 21.984100,106.160622 22.324287,105.424545 
	C22.593769,105.088188 23.042454,105.018158 23.447102,105.013237 
	C24.663912,104.935104 25.476072,104.861893 26.288233,104.788689 
z"/>
<path fill="#433635" opacity="1.000000" stroke="none" 
	d="
M45.000877,85.982430 
	C44.561745,85.989807 44.122616,85.997177 43.354633,86.010994 
	C42.517021,85.134903 42.008259,84.252373 41.246475,83.181892 
	C41.463459,81.596405 41.933464,80.198853 42.702511,78.900009 
	C43.001553,78.998718 43.000000,79.000000 43.024853,79.319763 
	C43.369804,80.429329 43.689903,81.219124 44.010006,82.008926 
	C44.249687,82.855606 44.489368,83.702286 44.864098,85.022285 
	C44.999149,85.495605 45.000877,85.982430 45.000877,85.982430 
z"/>
<path fill="#493A3A" opacity="1.000000" stroke="none" 
	d="
M39.993938,88.554779 
	C39.587429,88.984749 39.168915,89.064392 38.430855,89.176300 
	C38.066879,88.216873 38.022446,87.225166 37.978012,86.233467 
	C38.645988,86.890457 39.313961,87.547455 39.993938,88.554779 
z"/>
<path fill="#52392F" opacity="1.000000" stroke="none" 
	d="
M55.995537,49.047050 
	C55.995537,49.047050 55.955387,48.564480 55.925716,48.324684 
	C57.159237,45.943256 58.422428,43.801628 59.842091,41.365540 
	C61.831310,40.139225 63.664059,39.207371 65.828690,38.141506 
	C66.842613,37.998440 67.524635,37.989388 68.571815,38.275864 
	C68.629265,39.041775 68.321564,39.512161 67.701401,40.113838 
	C64.936470,42.489971 62.483997,44.734814 59.832195,47.245407 
	C58.420422,48.023117 57.207977,48.535080 55.995537,49.047050 
z"/>
<path fill="#71594F" opacity="1.000000" stroke="none" 
	d="
M68.013863,39.982552 
	C68.321564,39.512161 68.629265,39.041775 68.915344,38.274693 
	C69.185204,37.795303 69.476685,37.612610 70.271500,37.212460 
	C71.514984,36.987759 72.255119,36.980515 73.037506,37.295868 
	C73.718567,38.079826 74.357376,38.541183 74.996185,39.002544 
	C75.003799,39.441906 75.011406,39.881271 74.758812,40.861027 
	C74.663841,42.937943 74.829063,44.474461 74.663002,46.002403 
	C73.889862,45.995819 73.448021,45.997814 72.970551,45.662712 
	C72.029839,42.990879 70.777008,41.390488 68.002426,42.616356 
	C68.002686,41.487717 68.008270,40.735134 68.013863,39.982552 
z"/>
<path fill="#795B4F" opacity="1.000000" stroke="none" 
	d="
M75.000381,38.593369 
	C74.357376,38.541183 73.718567,38.079826 73.155746,37.025726 
	C73.480499,35.897739 73.729256,35.362488 73.978020,34.827236 
	C74.089149,34.511337 74.279755,34.254360 74.752823,33.919792 
	C74.970001,33.968494 74.984192,34.153721 75.005661,34.616272 
	C75.010147,35.990459 75.007355,37.087330 75.000381,38.593369 
z"/>
<path fill="#896B5F" opacity="1.000000" stroke="none" 
	d="
M73.645065,34.886246 
	C73.729256,35.362488 73.480499,35.897739 73.113495,36.703133 
	C72.255119,36.980515 71.514984,36.987759 70.405510,36.988499 
	C71.128151,36.303082 72.220131,35.624172 73.645065,34.886246 
z"/>
<path fill="#57565C" opacity="1.000000" stroke="none" 
	d="
M21.722328,101.037598 
	C22.208305,101.410217 22.478569,101.885597 22.775192,102.893471 
	C22.854013,103.612297 22.906475,103.798622 22.979134,103.982529 
	C22.999334,103.980118 22.966488,103.950539 22.705429,103.870453 
	C22.290512,103.887665 22.136654,103.984970 21.982798,104.082283 
	C21.982798,104.082283 21.578907,104.243889 21.376427,104.323631 
	C21.117609,103.847130 21.061274,103.290878 20.973396,102.315430 
	C21.054144,101.587517 21.242397,101.335556 21.722328,101.037598 
z"/>
<path fill="#6F5D58" opacity="1.000000" stroke="none" 
	d="
M89.359550,33.876152 
	C88.508430,33.301540 87.784760,32.495453 87.032913,31.355320 
	C86.670853,29.277121 86.336960,27.532967 86.000854,25.144718 
	C85.996368,24.332565 85.994080,24.164509 85.991791,23.996450 
	C85.991791,23.996450 85.999695,23.999489 86.261795,23.997120 
	C86.701447,23.991220 86.878983,23.987688 87.300194,24.001951 
	C87.543861,24.019747 88.029739,24.071440 88.116226,24.224567 
	C88.461128,24.269041 88.719543,24.160391 89.203690,24.015934 
	C89.429413,23.980129 89.878700,23.896000 89.878700,23.896000 
	C90.593925,24.751904 91.309151,25.607807 91.939491,26.362127 
	C92.919250,25.773495 93.698593,25.305271 94.737320,24.931038 
	C94.996552,25.767031 94.996399,26.509033 94.730942,27.746237 
	C93.980927,28.825706 93.496201,29.409973 93.011475,29.994240 
	C92.347488,30.822369 91.683502,31.650496 90.978790,32.817348 
	C90.454384,33.318939 89.970688,33.481804 89.359550,33.876152 
z"/>
<path fill="#3F3B40" opacity="1.000000" stroke="none" 
	d="
M89.920456,23.674938 
	C89.878700,23.896000 89.429413,23.980129 88.966522,24.007908 
	C88.503624,24.035686 88.029739,24.071440 88.029739,24.071440 
	C88.029739,24.071440 87.543861,24.019747 87.273132,23.677317 
	C87.310844,21.900934 87.619270,20.466984 88.224274,19.016518 
	C88.718552,18.988714 88.916245,18.977423 89.113945,18.966129 
	C89.437943,20.079645 89.761940,21.193161 90.109566,22.672184 
	C90.133194,23.037695 89.962204,23.453875 89.920456,23.674938 
z"/>
<path fill="#887671" opacity="1.000000" stroke="none" 
	d="
M93.230927,30.102049 
	C93.496201,29.409973 93.980927,28.825706 94.728317,28.117607 
	C97.867599,26.926245 98.231239,28.247746 97.238441,30.803078 
	C96.245766,30.988813 95.503258,30.992434 94.389809,30.993393 
	C93.912224,30.670111 93.722725,30.409819 93.230927,30.102049 
z"/>
<path fill="#B6A69F" opacity="1.000000" stroke="none" 
	d="
M22.005440,104.354210 
	C22.136654,103.984970 22.290512,103.887665 22.751808,104.135544 
	C23.053648,104.659882 23.048050,104.839020 23.042454,105.018158 
	C23.042454,105.018158 22.593769,105.088188 22.370087,105.123543 
	C22.106962,104.981308 22.067522,104.803726 22.005440,104.354210 
z"/>
<path fill="#835C48" opacity="1.000000" stroke="none" 
	d="
M73.934853,59.965092 
	C74.506119,60.461048 75.077377,60.957005 75.648643,61.452961 
	C75.999741,60.809582 76.576965,60.190567 76.649521,59.517178 
	C76.761391,58.478779 76.527565,57.403141 76.960785,56.263481 
	C77.992653,56.456913 78.504105,56.730164 79.314751,57.002571 
	C80.011497,57.002270 80.409065,57.002811 80.852669,57.259453 
	C80.915558,57.688206 80.932404,57.860859 80.962364,58.342484 
	C81.314774,59.133492 81.654060,59.615524 81.776672,60.339844 
	C78.506577,61.658031 79.435539,63.882427 79.692520,66.023560 
	C78.906143,66.377228 78.424484,66.708260 77.942833,67.039291 
	C77.942833,67.039291 77.508987,67.035034 77.055733,67.120026 
	C76.409920,67.470718 76.217369,67.736412 76.024811,68.002106 
	C76.024811,68.002106 76.009026,68.005165 76.011490,68.015968 
	C75.086792,68.844704 74.159622,69.662636 73.095161,70.766617 
	C72.219406,71.020630 71.480927,70.988602 70.269196,70.737045 
	C69.608475,70.262169 69.364258,70.085022 69.043640,69.613647 
	C69.025391,68.495201 69.026787,67.749176 69.367920,67.036171 
	C70.589523,67.257782 71.471397,67.446365 72.683273,67.705521 
	C72.073280,64.900475 71.541504,62.455147 71.376236,60.005821 
	C72.473450,59.989582 73.204147,59.977337 73.934853,59.965092 
z"/>
<path fill="#947265" opacity="1.000000" stroke="none" 
	d="
M90.045044,56.615555 
	C89.982071,57.451698 89.893623,57.914146 89.452339,58.747543 
	C89.096519,59.768017 89.093521,60.417549 89.187912,61.334557 
	C89.865738,62.081352 90.446182,62.560673 91.019043,63.278717 
	C91.011467,63.517445 90.999306,63.994976 90.714638,64.178604 
	C90.303261,65.226357 90.176552,66.090477 90.141327,67.243027 
	C90.809471,68.291077 91.386139,69.050697 91.983261,69.901459 
	C92.003731,69.992607 92.036591,70.176521 92.036591,70.176521 
	C91.444595,70.593559 90.852592,71.010597 90.083580,71.636703 
	C89.615524,71.419991 89.324478,70.994225 88.984276,69.959129 
	C88.367599,68.689201 87.800087,68.028603 87.232567,67.367996 
	C86.820808,67.913994 86.409050,68.459991 85.997292,69.005989 
	C85.504143,68.746002 85.010986,68.486023 84.359894,67.860794 
	C84.131393,66.672493 84.060837,65.849426 84.271011,64.882034 
	C84.701485,63.158363 84.851219,61.579021 85.001282,59.667465 
	C85.002304,58.893131 85.003014,58.451019 85.011337,58.009293 
	C85.018951,58.009678 85.034706,58.012203 85.331093,57.971764 
	C85.937500,57.518547 86.247528,57.105770 86.557556,56.692993 
	C86.038963,56.461380 85.520378,56.229763 84.996452,55.751945 
	C84.991119,55.505737 84.981346,55.013313 84.981346,55.013313 
	C86.304359,54.684540 87.627373,54.355766 89.304993,54.035980 
	C89.779579,54.777267 89.899567,55.509567 90.045044,56.615555 
z"/>
<path fill="#856351" opacity="1.000000" stroke="none" 
	d="
M83.990280,65.026360 
	C84.060837,65.849426 84.131393,66.672493 84.105766,67.743980 
	C82.335297,69.103188 80.660995,70.213966 78.793823,71.452713 
	C78.642799,70.772469 78.310760,69.276894 77.960785,67.410309 
	C78.424484,66.708260 78.906143,66.377228 80.031998,66.019882 
	C81.441429,65.641220 82.206650,65.288872 83.225861,64.966003 
	C83.649986,65.005768 83.820137,65.016068 83.990280,65.026360 
z"/>
<path fill="#856351" opacity="1.000000" stroke="none" 
	d="
M86.202339,69.267334 
	C86.409050,68.459991 86.820808,67.913994 87.232567,67.367996 
	C87.800087,68.028603 88.367599,68.689201 88.959496,69.683075 
	C88.125046,69.853790 87.266220,69.691231 86.202339,69.267334 
z"/>
<path fill="#856351" opacity="1.000000" stroke="none" 
	d="
M76.248634,67.899719 
	C76.217369,67.736412 76.409920,67.470718 76.838821,67.117233 
	C76.946320,67.341980 76.745415,67.597946 76.248634,67.899719 
z"/>
<path fill="#694E42" opacity="1.000000" stroke="none" 
	d="
M69.063278,69.986076 
	C69.364258,70.085022 69.608475,70.262169 69.899323,70.720673 
	C69.843414,72.544670 69.684105,74.165520 69.524803,75.786377 
	C67.585205,75.547562 65.645615,75.308746 63.226814,74.738235 
	C62.495850,73.595085 62.244095,72.783646 61.992340,71.972198 
	C63.239967,69.528236 64.487595,67.084282 66.180664,64.174751 
	C68.051521,62.439548 69.476921,61.169918 70.929169,59.927673 
	C70.956017,59.955059 71.009727,60.009819 71.009727,60.009819 
	C71.541504,62.455147 72.073280,64.900475 72.683273,67.705521 
	C71.471397,67.446365 70.589523,67.257782 69.029152,67.084671 
	C66.376350,68.608307 66.781532,69.528885 69.063278,69.986076 
z"/>
<path fill="#665551" opacity="1.000000" stroke="none" 
	d="
M61.650642,72.022278 
	C62.244095,72.783646 62.495850,73.595085 62.873268,74.703949 
	C62.032337,75.783104 61.065746,76.564850 60.056114,77.672775 
	C55.812099,78.333427 56.329773,81.904526 55.235554,84.807152 
	C54.182365,85.364990 53.406281,85.675751 52.314011,86.013000 
	C51.556774,85.063530 51.115723,84.087547 50.326904,83.056938 
	C53.755741,79.358986 57.532341,75.715675 61.650642,72.022278 
z"/>
<path fill="#5D423B" opacity="1.000000" stroke="none" 
	d="
M60.961662,90.722443 
	C60.555794,91.014587 60.111992,91.006706 59.335339,90.998474 
	C59.238388,90.481255 59.474297,89.964394 59.710205,89.447525 
	C60.114716,89.772484 60.519226,90.097443 60.961662,90.722443 
z"/>
<path fill="#A18881" opacity="1.000000" stroke="none" 
	d="
M90.999306,63.994976 
	C90.999306,63.994976 91.011467,63.517445 91.290237,63.067249 
	C91.725060,61.962646 91.881111,61.308239 92.028557,60.485435 
	C92.019943,60.317039 91.993965,59.980812 91.993965,59.980812 
	C92.504311,60.261047 93.014656,60.541286 93.738266,61.264717 
	C93.941727,62.164616 93.931923,62.621311 93.966026,63.392479 
	C94.654259,64.111877 95.298592,64.516800 95.942917,64.921730 
	C95.735649,65.411850 95.528381,65.901978 95.210983,66.634857 
	C94.793961,67.087372 94.487053,67.297142 93.812607,67.941025 
	C93.284401,68.942963 93.123734,69.510788 92.963066,70.078606 
	C92.963066,70.078606 92.493767,70.069016 92.265182,70.122772 
	C92.036591,70.176521 92.003731,69.992607 91.992569,69.532387 
	C91.928894,68.324722 91.876381,67.577286 91.827698,66.529289 
	C91.554123,65.484146 91.276718,64.739563 90.999306,63.994976 
z"/>
<path fill="#AF948C" opacity="1.000000" stroke="none" 
	d="
M93.081192,70.289154 
	C93.123734,69.510788 93.284401,68.942963 93.673714,68.185364 
	C93.938049,68.698029 93.973747,69.400467 94.044449,70.451965 
	C93.730057,70.864098 93.436684,70.763664 93.081192,70.289154 
z"/>
<path fill="#73655E" opacity="1.000000" stroke="none" 
	d="
M87.927704,19.033031 
	C87.619270,20.466984 87.310844,21.900934 87.029465,23.659521 
	C86.878983,23.987688 86.701447,23.991220 86.257416,23.993422 
	C85.204338,23.412994 84.417732,22.833899 83.360443,22.130028 
	C83.198662,20.779800 83.218460,19.537304 83.448380,18.334986 
	C83.597076,17.557367 84.053215,16.838535 84.694771,16.064795 
	C85.017952,16.036228 85.023438,16.532486 85.184036,17.033131 
	C85.904480,17.690132 86.464325,17.846491 87.024178,18.002848 
	C87.024178,18.002848 86.994316,18.007465 87.055817,18.236298 
	C87.387451,18.654428 87.657578,18.843729 87.927704,19.033031 
z"/>
<path fill="#6F5D58" opacity="1.000000" stroke="none" 
	d="
M84.949615,31.601173 
	C85.264610,32.455154 85.521965,32.965446 85.885727,33.741127 
	C84.415833,33.080509 82.839539,32.154495 81.263237,31.228481 
	C81.421112,30.844107 81.578987,30.459730 81.736862,30.075354 
	C82.788567,30.469398 83.840271,30.863443 84.949615,31.601173 
z"/>
<path fill="#443E45" opacity="1.000000" stroke="none" 
	d="
M79.989655,22.252913 
	C80.102768,22.274839 80.221550,22.543423 80.176575,22.902357 
	C80.012810,22.992706 79.995331,22.499571 79.989655,22.252913 
z"/>
<path fill="#73655E" opacity="1.000000" stroke="none" 
	d="
M85.824730,24.087145 
	C85.994080,24.164509 85.996368,24.332565 85.997925,24.752781 
	C85.884026,24.729240 85.770844,24.453539 85.824730,24.087145 
z"/>
<path fill="#523B33" opacity="1.000000" stroke="none" 
	d="
M73.006165,45.999817 
	C73.448021,45.997814 73.889862,45.995819 74.805733,46.327301 
	C75.551872,47.802380 75.823982,48.943977 76.096092,50.085575 
	C75.495628,51.843113 74.895164,53.600647 73.894516,55.678326 
	C73.494339,55.998470 73.013855,56.013840 72.746857,55.726738 
	C70.624626,55.278805 68.769402,55.117977 66.932098,54.742889 
	C66.950020,54.528622 66.970108,54.098431 66.978996,53.814186 
	C66.987358,53.340351 66.986824,53.150761 66.986298,52.961174 
	C66.986298,52.961174 66.973770,52.483158 67.109344,51.927765 
	C67.480507,50.250301 67.716095,49.128227 67.988205,47.768860 
	C68.024719,47.531567 68.074165,47.054264 68.304985,47.053162 
	C68.535805,47.052059 68.995422,47.008827 68.994370,47.257729 
	C68.993317,47.506634 69.029442,48.003132 69.056725,48.339317 
	C69.833450,49.339947 70.582886,50.004391 71.332329,50.668835 
	C71.844482,49.773525 72.356628,48.878216 72.899010,47.652935 
	C72.954880,46.881916 72.980522,46.440865 73.006165,45.999817 
z"/>
<path fill="#795B4F" opacity="1.000000" stroke="none" 
	d="
M76.444748,50.050957 
	C75.823982,48.943977 75.551872,47.802380 75.137024,46.335884 
	C74.829063,44.474461 74.663841,42.937943 74.766327,41.190514 
	C76.795799,41.632881 78.557564,42.286160 80.676468,42.963028 
	C80.740463,44.386192 80.447304,45.785767 80.173752,47.542976 
	C79.060043,48.605854 77.926720,49.311096 76.444748,50.050957 
z"/>
<path fill="#694E42" opacity="1.000000" stroke="none" 
	d="
M73.013855,56.013840 
	C73.013855,56.013840 73.494339,55.998470 73.734238,55.992973 
	C73.974907,57.049690 73.975677,58.111904 73.955650,59.569607 
	C73.204147,59.977337 72.473450,59.989582 71.376236,60.005821 
	C71.009727,60.009819 70.956017,59.955059 71.003029,59.611855 
	C71.704643,58.183712 72.359245,57.098774 73.013855,56.013840 
z"/>
<path fill="#956D59" opacity="1.000000" stroke="none" 
	d="
M79.015564,57.003414 
	C78.504105,56.730164 77.992653,56.456913 77.219650,56.052170 
	C77.523170,55.456146 78.088226,54.991619 78.823990,55.087933 
	C79.001663,56.100319 79.008614,56.551865 79.015564,57.003414 
z"/>
<path fill="#A97F6D" opacity="1.000000" stroke="none" 
	d="
M84.686310,55.029785 
	C84.981346,55.013313 84.991119,55.505737 84.997131,56.087662 
	C85.013672,57.117123 85.024185,57.564663 85.034698,58.012203 
	C85.034706,58.012203 85.018951,58.009678 84.759201,58.005592 
	C84.331490,58.002666 84.163521,58.003830 83.995132,58.007072 
	C83.994720,58.009148 83.984116,58.017326 83.884094,57.797150 
	C83.592560,57.301540 83.336678,57.113911 83.011566,56.759312 
	C83.004097,56.334679 83.001457,56.164822 82.998825,55.994965 
	C83.462975,55.678730 83.927124,55.362495 84.686310,55.029785 
z"/>
<path fill="#BE937A" opacity="1.000000" stroke="none" 
	d="
M82.678925,55.995090 
	C83.001457,56.164822 83.004097,56.334679 83.002251,56.999786 
	C82.997772,57.495029 82.992676,57.976696 82.759567,58.002476 
	C82.526459,58.028255 82.059471,58.072346 81.782265,58.052551 
	C81.319786,58.033005 81.134514,58.033257 80.949242,58.033508 
	C80.932404,57.860859 80.915558,57.688206 80.935486,57.019630 
	C81.008141,56.358780 81.044014,56.193848 81.079880,56.028919 
	C81.506256,56.017685 81.932640,56.006447 82.678925,55.995090 
z"/>
<path fill="#835D49" opacity="1.000000" stroke="none" 
	d="
M80.898560,55.779686 
	C81.044014,56.193848 81.008141,56.358780 80.889450,56.763535 
	C80.409065,57.002811 80.011497,57.002270 79.314751,57.002571 
	C79.008614,56.551865 79.001663,56.100319 78.997520,55.309574 
	C79.572632,55.157074 80.144936,55.343765 80.898560,55.779686 
z"/>
<path fill="#A08C83" opacity="1.000000" stroke="none" 
	d="
M102.888245,61.648281 
	C101.489937,62.363041 99.967270,62.737022 98.181099,62.707825 
	C97.712875,61.808407 97.508156,61.312168 97.230484,60.525875 
	C97.066185,59.848106 96.974846,59.460392 96.883499,59.072678 
	C97.828850,58.474094 98.774208,57.875511 99.854843,56.950306 
	C100.914726,58.184959 101.839310,59.746231 102.888245,61.648281 
z"/>
<path fill="#F2E6DF" opacity="1.000000" stroke="none" 
	d="
M96.627350,59.050186 
	C96.974846,59.460392 97.066185,59.848106 97.011597,60.796108 
	C95.884483,61.930267 94.903297,62.504135 93.922119,63.078011 
	C93.931923,62.621311 93.941727,62.164616 94.010361,61.368904 
	C94.390610,60.919861 94.623734,60.711189 94.798325,60.165794 
	C95.029823,59.668491 95.233627,59.410915 95.654404,59.035217 
	C96.036613,58.952873 96.203911,58.990288 96.627350,59.050186 
z"/>
<path fill="#9F7F70" opacity="1.000000" stroke="none" 
	d="
M91.993469,59.890442 
	C91.993965,59.980812 92.019943,60.317039 91.667824,60.591049 
	C90.573982,60.932396 89.832253,60.999741 89.090530,61.067081 
	C89.093521,60.417549 89.096519,59.768017 89.360794,59.088596 
	C90.156235,59.159424 90.690392,59.260147 91.612144,59.490166 
	C91.999733,59.619457 91.992973,59.800072 91.993469,59.890442 
z"/>
<path fill="#372E2D" opacity="1.000000" stroke="none" 
	d="
M86.903687,17.723110 
	C86.464325,17.846491 85.904480,17.690132 85.190491,17.281189 
	C85.618637,17.166859 86.200920,17.305115 86.903687,17.723110 
z"/>
<path fill="#372E2D" opacity="1.000000" stroke="none" 
	d="
M88.224274,19.016518 
	C87.657578,18.843729 87.387451,18.654428 87.054497,18.221249 
	C87.595573,18.115185 88.199471,18.253000 88.958664,18.678474 
	C88.916245,18.977423 88.718552,18.988714 88.224274,19.016518 
z"/>
<path fill="#463430" opacity="1.000000" stroke="none" 
	d="
M72.746857,55.726734 
	C72.359245,57.098774 71.704643,58.183712 70.976181,59.584465 
	C69.476921,61.169918 68.051521,62.439548 66.329819,63.860130 
	C65.584358,64.007477 65.135178,64.003868 64.232422,63.738918 
	C63.502117,62.976406 63.225388,62.475235 62.948654,61.974064 
	C62.980770,60.599232 63.012890,59.224403 63.315437,57.423630 
	C63.585869,56.997684 64.040100,56.932297 64.261635,56.936760 
	C64.483170,56.941223 64.919800,56.865417 65.184418,56.761818 
	C65.937408,56.091198 66.425789,55.524174 66.914169,54.957153 
	C68.769402,55.117977 70.624626,55.278805 72.746857,55.726734 
z"/>
<path fill="#694E42" opacity="1.000000" stroke="none" 
	d="
M62.719189,62.123863 
	C63.225388,62.475235 63.502117,62.976406 63.895851,63.738617 
	C62.637791,65.233818 63.062462,69.753670 59.131821,66.305405 
	C58.990356,65.847099 58.996796,65.675621 59.174625,65.157974 
	C59.224655,64.542885 59.103291,64.273949 58.981926,64.005013 
	C58.981926,64.005013 59.000763,63.999268 59.001194,63.627575 
	C58.994511,62.495773 58.987396,61.735661 58.980282,60.975552 
	C60.150097,61.408257 61.319908,61.840961 62.719189,62.123863 
z"/>
<path fill="#786051" opacity="1.000000" stroke="none" 
	d="
M67.951683,48.006153 
	C67.716095,49.128227 67.480507,50.250301 67.089172,51.689529 
	C63.366608,51.194935 59.799793,50.383186 56.114258,49.309242 
	C57.207977,48.535080 58.420422,48.023117 60.173286,47.256264 
	C62.791615,47.326065 64.869514,47.650749 67.198410,47.985737 
	C67.616821,47.999409 67.784256,48.002781 67.951683,48.006153 
z"/>
<path fill="#786051" opacity="1.000000" stroke="none" 
	d="
M64.040100,56.932297 
	C64.040100,56.932297 63.585869,56.997684 63.357937,57.013290 
	C62.628666,57.003841 62.127323,56.978786 61.249531,56.929146 
	C60.662960,56.131462 60.452843,55.358364 60.117493,54.301628 
	C61.754448,54.010303 63.516636,54.002613 65.889481,54.012421 
	C66.500145,54.029915 66.970108,54.098431 66.970108,54.098431 
	C66.970108,54.098431 66.950020,54.528622 66.932098,54.742886 
	C66.425789,55.524174 65.937408,56.091198 65.102051,56.620956 
	C64.412254,56.412750 64.173927,56.528950 64.040100,56.932297 
z"/>
<path fill="#463430" opacity="1.000000" stroke="none" 
	d="
M66.978996,53.814186 
	C66.970108,54.098431 66.500145,54.029915 66.263725,54.010437 
	C66.100250,53.656399 66.274948,53.388088 66.768845,53.073605 
	C66.986824,53.150761 66.987358,53.340351 66.978996,53.814186 
z"/>
<path fill="#463534" opacity="1.000000" stroke="none" 
	d="
M45.187363,86.219452 
	C45.000877,85.982430 44.999149,85.495605 44.998268,85.252304 
	C45.790878,84.365166 46.584366,83.721321 47.690971,83.036606 
	C47.127338,84.149307 46.250591,85.302887 45.187363,86.219452 
z"/>
<path fill="#493A3A" opacity="1.000000" stroke="none" 
	d="
M44.305756,81.966644 
	C43.689903,81.219124 43.369804,80.429329 43.025642,79.319221 
	C43.534885,79.974068 44.068195,80.949219 44.305756,81.966644 
z"/>
<path fill="#493A3A" opacity="1.000000" stroke="none" 
	d="
M44.054703,75.253448 
	C44.071705,75.000191 44.554562,75.011032 44.796024,75.025215 
	C44.921402,75.344032 44.733669,75.595062 44.265015,75.903259 
	C44.049725,75.844917 44.043713,75.675804 44.054703,75.253448 
z"/>
<path fill="#715A53" opacity="1.000000" stroke="none" 
	d="
M58.760044,60.975086 
	C58.987396,61.735661 58.994511,62.495773 58.995895,63.635818 
	C58.521923,63.108677 58.053677,62.201603 57.842407,61.138004 
	C58.099380,60.981483 58.539806,60.974621 58.760044,60.975086 
z"/>
<path fill="#715A53" opacity="1.000000" stroke="none" 
	d="
M58.986931,64.251190 
	C59.103291,64.273949 59.224655,64.542885 59.179245,64.900620 
	C59.012470,64.989418 58.991936,64.497375 58.986931,64.251190 
z"/>
<path fill="#8D7569" opacity="1.000000" stroke="none" 
	d="
M23.447102,105.013237 
	C23.048050,104.839020 23.053648,104.659882 23.012867,104.215637 
	C22.966488,103.950539 22.999334,103.980118 23.223515,103.899963 
	C23.637831,103.542213 23.827965,103.264610 24.018097,102.987007 
	C24.018095,102.987007 24.002171,102.998840 23.994217,103.006500 
	C24.674129,103.406525 25.361996,103.798882 26.169048,104.489967 
	C25.476072,104.861893 24.663912,104.935104 23.447102,105.013237 
z"/>
<path fill="#D6C7C1" opacity="1.000000" stroke="none" 
	d="
M93.966026,63.392479 
	C94.903297,62.504135 95.884483,61.930267 97.084557,61.086163 
	C97.508156,61.312168 97.712875,61.808407 97.875992,62.581978 
	C97.267563,63.364830 96.700745,63.870354 96.038422,64.648804 
	C95.298592,64.516800 94.654259,64.111877 93.966026,63.392479 
z"/>
<path fill="#B6A69F" opacity="1.000000" stroke="none" 
	d="
M23.752163,102.963501 
	C23.827965,103.264610 23.637831,103.542213 23.203316,103.902374 
	C22.906475,103.798622 22.854013,103.612297 22.879566,103.145477 
	C23.133795,102.889984 23.310011,102.914993 23.752163,102.963501 
z"/>
<path fill="#907161" opacity="1.000000" stroke="none" 
	d="
M66.947418,47.975433 
	C64.869514,47.650749 62.791615,47.326065 60.372620,46.990517 
	C62.483997,44.734814 64.936470,42.489971 67.701401,40.113838 
	C68.008270,40.735134 68.002686,41.487717 68.133629,42.940872 
	C68.511917,44.763905 68.753670,45.886368 68.995422,47.008827 
	C68.995422,47.008827 68.535805,47.052059 68.059906,47.125580 
	C67.371811,47.457882 67.159615,47.716660 66.947418,47.975433 
z"/>
<path fill="#795B4F" opacity="1.000000" stroke="none" 
	d="
M68.994370,47.257729 
	C68.753670,45.886368 68.511917,44.763905 68.138962,43.316929 
	C70.777008,41.390488 72.029839,42.990879 72.970551,45.662712 
	C72.980522,46.440865 72.954880,46.881916 72.518074,47.657722 
	C71.081085,47.996029 70.055267,47.999580 69.029442,48.003132 
	C69.029442,48.003132 68.993317,47.506634 68.994370,47.257729 
z"/>
<path fill="#73655E" opacity="1.000000" stroke="none" 
	d="
M88.116226,24.224567 
	C88.029739,24.071440 88.503624,24.035686 88.740791,24.043713 
	C88.719543,24.160391 88.461128,24.269041 88.116226,24.224567 
z"/>
<path fill="#956D59" opacity="1.000000" stroke="none" 
	d="
M82.059471,58.072346 
	C82.059471,58.072346 82.526459,58.028255 83.007462,58.012764 
	C83.488464,57.997272 83.984116,58.017326 83.984116,58.017326 
	C83.984116,58.017326 83.994720,58.009148 83.994736,58.338745 
	C83.993835,59.110531 83.992912,59.552727 83.725639,60.191460 
	C83.296814,61.904171 83.134338,63.420349 82.971863,64.936523 
	C82.206650,65.288872 81.441429,65.641220 80.336731,65.997246 
	C79.435539,63.882427 78.506577,61.658031 81.783340,60.000473 
	C82.024277,58.969997 82.041870,58.521172 82.059471,58.072346 
z"/>
<path fill="#60453A" opacity="1.000000" stroke="none" 
	d="
M69.043640,69.613647 
	C66.781532,69.528885 66.376350,68.608307 68.689423,67.051651 
	C69.026787,67.749176 69.025391,68.495201 69.043640,69.613647 
z"/>
<path fill="#A97F6D" opacity="1.000000" stroke="none" 
	d="
M81.782265,58.052551 
	C82.041870,58.521172 82.024277,58.969997 82.000015,59.758194 
	C81.654060,59.615524 81.314774,59.133492 80.962364,58.342484 
	C81.134514,58.033257 81.319786,58.033005 81.782265,58.052551 
z"/>
<path fill="#A97F6D" opacity="1.000000" stroke="none" 
	d="
M83.225853,64.966003 
	C83.134338,63.420349 83.296814,61.904171 83.978096,60.193550 
	C84.664925,59.999290 84.832939,59.999485 85.000961,59.999683 
	C84.851219,61.579021 84.701485,63.158363 84.271011,64.882034 
	C83.820137,65.016068 83.649986,65.005768 83.225853,64.966003 
z"/>
<path fill="#725E54" opacity="1.000000" stroke="none" 
	d="
M89.187912,61.334557 
	C89.832253,60.999741 90.573982,60.932396 91.676437,60.759445 
	C91.881111,61.308239 91.725060,61.962646 91.297821,62.828522 
	C90.446182,62.560673 89.865738,62.081352 89.187912,61.334557 
z"/>
<path fill="#E0C0B5" opacity="1.000000" stroke="none" 
	d="
M90.714638,64.178604 
	C91.276718,64.739563 91.554123,65.484146 91.535416,66.576157 
	C90.842812,66.933922 90.446335,66.944260 90.049850,66.954605 
	C90.176552,66.090477 90.303261,65.226357 90.714638,64.178604 
z"/>
<path fill="#9F7F70" opacity="1.000000" stroke="none" 
	d="
M85.331085,57.971764 
	C85.024185,57.564663 85.013672,57.117123 85.002472,56.333866 
	C85.520378,56.229763 86.038963,56.461380 86.557556,56.692993 
	C86.247528,57.105770 85.937500,57.518547 85.331085,57.971764 
z"/>
<path fill="#BD9E93" opacity="1.000000" stroke="none" 
	d="
M90.141327,67.243027 
	C90.446335,66.944260 90.842812,66.933922 91.531586,66.876709 
	C91.876381,67.577286 91.928894,68.324722 91.972099,69.441238 
	C91.386139,69.050697 90.809471,68.291077 90.141327,67.243027 
z"/>
<path fill="#9F7F70" opacity="1.000000" stroke="none" 
	d="
M85.001282,59.667465 
	C84.832939,59.999485 84.664925,59.999290 84.244446,59.997009 
	C83.992912,59.552727 83.993835,59.110531 83.995155,58.336670 
	C84.163521,58.003830 84.331490,58.002666 84.751587,58.005207 
	C85.003014,58.451019 85.002304,58.893131 85.001282,59.667465 
z"/>
<path fill="#71594F" opacity="1.000000" stroke="none" 
	d="
M69.056725,48.339317 
	C70.055267,47.999580 71.081085,47.996029 72.487846,47.987694 
	C72.356628,48.878216 71.844482,49.773525 71.332329,50.668835 
	C70.582886,50.004391 69.833450,49.339947 69.056725,48.339317 
z"/>
<path fill="#795B4F" opacity="1.000000" stroke="none" 
	d="
M67.198410,47.985741 
	C67.159615,47.716660 67.371811,47.457882 67.829086,47.126686 
	C68.074165,47.054264 68.024719,47.531567 67.988205,47.768860 
	C67.784256,48.002781 67.616821,47.999409 67.198410,47.985741 
z"/>
<path fill="#9F7F70" opacity="1.000000" stroke="none" 
	d="
M83.884094,57.797150 
	C83.984116,58.017326 83.488464,57.997272 83.240570,57.986984 
	C82.992676,57.976696 82.997772,57.495029 83.007095,57.254555 
	C83.336678,57.113911 83.592560,57.301540 83.884094,57.797150 
z"/>
<path fill="#876B5E" opacity="1.000000" stroke="none" 
	d="
M64.261635,56.936760 
	C64.173927,56.528950 64.412254,56.412750 64.837433,56.724556 
	C64.919800,56.865417 64.483170,56.941223 64.261635,56.936760 
z"/>
</svg>