<svg version="1.1" id="Layer_1" xmlns="http://www.w3.org/2000/svg" xmlns:xlink="http://www.w3.org/1999/xlink" x="0px" y="0px"
	 width="100%" viewBox="0 0 203 199" enable-background="new 0 0 203 199" xml:space="preserve">
<path fill="#FFFFFE" opacity="0.000000" stroke="none" 
	d="
M141.000000,200.000000 
	C94.000000,200.000000 47.500004,200.000000 1.000006,200.000000 
	C1.000004,133.666672 1.000004,67.333344 1.000002,1.000015 
	C68.666656,1.000010 136.333313,1.000010 203.999969,1.000005 
	C203.999985,67.333321 203.999985,133.666641 204.000000,199.999969 
	C183.166672,200.000000 162.333328,200.000000 141.000000,200.000000 
M18.312700,83.887024 
	C17.890533,83.857193 17.468367,83.827370 16.683195,83.401054 
	C15.737179,83.387779 14.791162,83.374512 13.140350,83.612061 
	C12.762161,84.449432 12.383972,85.286804 12.427467,86.665047 
	C13.645429,86.191124 14.863390,85.717201 16.853617,85.051407 
	C17.910076,84.981064 18.966537,84.910721 20.663122,85.009705 
	C21.102873,84.993538 21.542624,84.977371 22.590578,85.358223 
	C23.962669,86.024521 25.277878,87.078926 26.716717,87.289803 
	C32.884151,88.193695 39.129723,88.609451 45.264278,89.677277 
	C49.543499,90.422150 53.688786,91.936440 58.150360,93.745537 
	C60.358425,95.290985 62.521313,96.906471 64.784470,98.366524 
	C68.822395,100.971535 72.920883,103.482681 77.420479,106.542702 
	C78.288467,106.686989 79.156448,106.831276 80.550468,107.437935 
	C83.306885,108.354668 86.063301,109.271393 88.977119,110.860161 
	C89.188164,113.256508 88.969360,115.792313 89.692833,118.022423 
	C91.668716,124.113113 94.041969,130.074890 95.735367,136.374985 
	C95.145996,136.866074 94.556633,137.357178 93.554230,137.313339 
	C91.894638,135.784088 90.235054,134.254852 88.115074,132.301361 
	C88.526901,134.942764 88.765335,136.472000 88.294670,138.124283 
	C87.351280,139.761246 86.496078,141.457321 85.446686,143.023239 
	C83.042717,146.610443 84.147346,148.793045 88.677979,150.297638 
	C93.930069,153.984390 99.813400,154.761719 106.668839,154.075150 
	C107.102852,154.078949 107.536865,154.082748 108.525375,154.621094 
	C110.350250,154.747406 112.175125,154.873703 114.392517,155.510132 
	C115.269188,155.026260 116.145859,154.542404 117.818031,154.037399 
	C118.879150,154.030304 119.940277,154.023224 121.466011,154.528015 
	C124.832550,154.018341 128.198257,153.116257 131.565842,153.109238 
	C134.940506,153.102219 137.115891,151.877823 138.949478,149.186172 
	C141.691010,145.161713 144.808777,141.594070 150.422134,141.842636 
	C151.196335,141.876923 152.020905,140.774261 152.822144,140.197952 
	C152.736603,139.759644 152.651062,139.321320 152.565521,138.883011 
	C149.382202,138.586288 146.198883,138.289566 142.205200,137.908936 
	C139.434036,137.711578 136.662872,137.514236 133.188477,137.140457 
	C131.796906,137.368866 130.405350,137.597260 128.455154,137.272736 
	C127.463249,137.192520 126.472740,137.079529 125.479218,137.037476 
	C119.684036,136.792007 114.570023,135.651260 111.140244,130.036896 
	C108.307068,125.399124 104.573448,121.311432 101.184601,116.162308 
	C100.578888,113.574516 102.083061,113.367287 104.150131,113.065628 
	C106.138092,112.775528 108.010674,111.694794 110.541901,111.331833 
	C115.818085,115.304131 118.417229,109.920158 122.775787,108.055031 
	C126.524940,106.322144 130.568726,105.016136 133.918304,102.704308 
	C136.103378,101.196198 137.280182,98.227219 139.289871,95.285637 
	C142.501602,94.583328 143.591461,92.284866 142.927567,89.444069 
	C142.629974,88.170692 141.000992,87.208466 139.982895,85.593384 
	C140.010834,85.425117 140.038757,85.256859 140.767395,85.005859 
	C143.835968,83.019676 144.063507,80.252640 143.248199,76.475670 
	C144.880844,74.929840 146.513489,73.384010 148.961517,71.837929 
	C152.911072,72.587227 156.860641,73.336533 160.810196,74.085831 
	C160.955276,73.667488 161.100342,73.249153 161.245422,72.830811 
	C159.680328,71.763153 158.147675,70.643562 156.542145,69.640640 
	C154.415543,68.312248 152.231949,67.075081 150.068344,65.115562 
	C149.398636,63.741837 148.728928,62.368107 148.155594,60.240498 
	C147.366135,59.496983 146.576675,58.753468 145.892807,57.275032 
	C142.584991,56.236855 139.277161,55.198673 135.476257,53.821011 
	C134.336227,53.962624 133.196182,54.104237 131.310593,54.208225 
	C128.912476,55.134922 126.514359,56.061623 123.949448,57.452156 
	C123.949448,57.452156 123.882423,57.940441 123.242126,57.978977 
	C122.493629,58.348469 121.745140,58.717957 120.247017,59.023132 
	C119.781746,60.286163 119.316467,61.549194 118.423347,62.916016 
	C118.423347,62.916016 118.020065,63.092613 117.391273,62.789955 
	C116.545128,62.545769 115.698982,62.301582 114.708778,61.797642 
	C114.393448,61.623383 114.147804,61.685738 113.318810,61.840614 
	C112.878502,61.893192 112.438194,61.945774 111.158630,61.793396 
	C108.933441,62.105545 106.708244,62.417698 103.875748,62.673141 
	C103.217522,63.047756 102.559296,63.422367 101.563843,63.838333 
	C101.563843,63.838333 101.233101,63.916058 100.912529,63.341549 
	C100.372467,63.481781 99.832397,63.622013 98.522499,63.585896 
	C85.035965,66.304146 72.247490,70.860115 60.505043,78.124306 
	C59.860619,78.522957 59.501934,79.383514 58.136932,79.906418 
	C49.093742,79.269272 40.050552,78.632126 30.498104,77.629898 
	C29.120277,77.722336 27.742449,77.814774 25.795424,77.177277 
	C25.193523,77.104027 24.591621,77.030777 23.361031,76.739563 
	C21.400732,77.246941 19.440434,77.754318 17.480135,78.261696 
	C17.570082,78.668907 17.660030,79.076126 17.749979,79.483337 
	C19.033585,79.617226 20.317190,79.751114 22.120384,79.939201 
	C21.201199,81.254295 20.593218,82.124146 19.549843,83.130394 
	C19.259949,83.267967 19.056955,83.486328 18.312700,83.887024 
M5.037935,83.116623 
	C4.519123,83.352486 4.000310,83.588356 3.481498,83.824219 
	C3.556281,84.098793 3.631064,84.373367 3.705847,84.647942 
	C5.488948,84.349205 7.272049,84.050468 9.055151,83.751732 
	C9.043026,83.525589 9.030902,83.299438 9.018778,83.073296 
	C7.924079,83.073296 6.829380,83.073296 5.037935,83.116623 
z"/>
<path fill="#7D5E47" opacity="1.000000" stroke="none" 
	d="
M59.010242,80.029060 
	C59.501934,79.383514 59.860619,78.522957 60.505043,78.124306 
	C72.247490,70.860115 85.035965,66.304146 99.391876,63.735558 
	C100.585205,63.895500 100.909157,63.905777 101.233101,63.916058 
	C101.233101,63.916058 101.563843,63.838333 101.955063,64.117813 
	C103.708626,64.499771 105.070969,64.602249 106.433304,64.704735 
	C106.466705,64.332779 106.500107,63.960827 106.533508,63.588875 
	C105.850021,63.302532 105.166542,63.016190 104.483055,62.729847 
	C106.708244,62.417698 108.933441,62.105545 111.732155,62.138969 
	C112.887772,62.967144 113.469872,63.449741 114.033569,64.311325 
	C114.006012,65.445709 113.996849,66.201103 113.964005,67.257584 
	C113.637032,68.044975 113.333733,68.531273 112.631821,69.011230 
	C110.151520,69.676048 108.069847,70.347206 105.656998,71.013947 
	C104.884079,71.006668 104.442345,71.003792 104.000549,70.750687 
	C104.000237,70.333641 103.999969,70.166817 103.785004,69.715256 
	C100.762604,67.466934 98.247528,67.488159 95.819641,70.214890 
	C95.440765,70.640396 93.972824,70.096184 92.754654,69.710594 
	C89.217201,68.821884 85.996796,68.429985 83.994827,72.009064 
	C83.997620,71.999062 84.018349,71.999771 83.682533,71.856171 
	C79.690552,69.503830 78.169678,73.471451 75.595482,74.392326 
	C76.061958,75.587898 76.528442,76.783478 76.898163,78.243637 
	C76.528893,78.999786 76.256393,79.491348 75.620895,79.982361 
	C73.878136,78.996758 72.498390,78.011688 70.771118,76.778503 
	C71.495552,80.238968 71.620995,83.557602 76.033852,83.236961 
	C76.052536,83.688217 76.056152,83.868866 75.689774,84.073029 
	C73.545105,84.719635 71.770439,85.342720 69.954262,85.610062 
	C68.574318,81.837219 66.240486,83.059776 63.930290,83.641716 
	C62.262749,82.212173 60.636494,81.120621 59.010242,80.029060 
z"/>
<path fill="#947964" opacity="1.000000" stroke="none" 
	d="
M19.985233,82.993996 
	C20.593218,82.124146 21.201199,81.254295 22.120384,79.939201 
	C20.317190,79.751114 19.033585,79.617226 17.749979,79.483337 
	C17.660030,79.076126 17.570082,78.668907 17.480135,78.261696 
	C19.440434,77.754318 21.400732,77.246941 23.672915,77.195290 
	C24.622187,78.381958 25.259575,79.112900 25.896961,79.843842 
	C26.052849,79.198296 26.208735,78.552757 26.364622,77.907211 
	C27.742449,77.814774 29.120277,77.722336 30.474289,77.909668 
	C29.964552,78.458992 29.478628,78.728546 28.736284,79.192261 
	C28.541550,80.088631 28.603235,80.790825 28.664921,81.493027 
	C29.118191,80.677002 29.571461,79.860985 30.365814,79.072243 
	C31.784109,79.449890 32.861320,79.800255 33.927711,80.463882 
	C33.742195,81.646805 33.567501,82.516464 33.602810,82.340698 
	C35.529346,83.192726 36.868706,83.767860 38.192726,84.376381 
	C39.154041,84.818199 40.095058,85.304176 41.412979,85.827484 
	C45.030197,86.920853 48.268814,87.992661 51.532490,88.981804 
	C53.944061,89.712700 56.388290,90.335846 58.868896,91.305367 
	C58.996429,91.998878 59.073040,92.394020 58.835289,92.866959 
	C58.311913,92.998856 58.102905,93.052956 57.893898,93.107048 
	C53.688786,91.936440 49.543499,90.422150 45.264278,89.677277 
	C39.129723,88.609451 32.884151,88.193695 26.716717,87.289803 
	C25.277878,87.078926 23.962669,86.024521 22.147907,84.921570 
	C21.182030,84.429459 20.658827,84.374001 20.097420,84.246483 
	C20.059219,84.174431 20.009716,84.019012 20.072525,83.761108 
	C20.085300,83.333466 20.035267,83.163727 19.985233,82.993996 
z"/>
<path fill="#D5C9BF" opacity="1.000000" stroke="none" 
	d="
M80.024437,106.975571 
	C79.156448,106.831276 78.288467,106.686989 77.338623,105.981178 
	C78.833023,103.947365 80.409279,102.475075 82.361504,101.006996 
	C83.478935,101.132515 84.220398,101.253822 85.246735,101.609329 
	C89.655212,102.332359 93.778809,102.821190 98.193405,103.589897 
	C100.667946,103.975975 102.851486,104.082184 104.981064,104.476334 
	C105.291008,106.535103 105.654915,108.305939 105.786705,110.400909 
	C103.408432,110.853081 101.262283,110.981102 98.786362,110.932442 
	C92.864861,109.179535 87.280876,107.574059 81.666260,106.084000 
	C81.228676,105.967865 80.576744,106.659409 80.024437,106.975571 
z"/>
<path fill="#B89E84" opacity="1.000000" stroke="none" 
	d="
M93.967262,137.848267 
	C94.556633,137.357178 95.145996,136.866074 96.201019,136.078094 
	C97.757118,135.867783 98.847572,135.954361 100.213577,136.300995 
	C102.991325,137.037018 105.493515,137.513000 108.009514,138.184174 
	C108.023331,138.379364 108.121643,138.757935 107.798721,138.836029 
	C106.833412,139.379852 106.191032,139.845581 105.548660,140.311295 
	C106.070419,140.615204 106.592178,140.919098 107.045471,141.555496 
	C104.695305,146.339600 108.116707,145.620178 110.594429,145.450195 
	C108.809959,150.521591 104.577133,149.647675 100.553299,150.082825 
	C97.713341,149.105255 95.268005,148.162323 93.052017,147.083572 
	C93.513382,146.689133 93.745399,146.430496 94.290909,146.116257 
	C95.025383,146.010605 95.446365,145.960541 96.253006,145.936005 
	C97.758911,144.601776 98.879166,143.242035 99.785896,141.624634 
	C97.732964,140.561813 95.893547,139.756668 94.004135,138.677917 
	C93.958511,138.218979 93.962891,138.033615 93.967262,137.848267 
z"/>
<path fill="#AB9E94" opacity="1.000000" stroke="none" 
	d="
M129.013779,137.825653 
	C130.405350,137.597260 131.796906,137.368866 133.732727,137.496552 
	C135.637039,138.497879 136.997101,139.143097 139.836655,140.490204 
	C137.100266,141.659210 135.568359,142.395081 133.977676,142.967621 
	C132.686188,143.432465 131.324127,143.701248 129.540710,144.035843 
	C125.592514,144.380051 122.096970,144.745422 117.508362,145.225037 
	C117.576813,145.250031 116.293465,144.781555 114.996277,144.061859 
	C114.982437,143.810638 115.012413,143.313400 114.873322,142.989304 
	C113.571266,142.972260 112.408310,143.279297 110.920181,143.512024 
	C110.335175,142.352203 110.075333,141.266693 110.076675,140.130341 
	C110.513496,140.060486 110.689140,140.041504 111.244415,140.021072 
	C112.256401,139.665115 112.888756,139.310608 113.506996,138.976532 
	C113.492874,138.996948 113.501534,138.947449 113.831657,138.971680 
	C114.601929,139.005295 115.042084,139.014648 115.710869,139.265015 
	C116.998260,139.340927 118.057022,139.175827 119.438049,139.124924 
	C122.844803,138.767960 125.929291,138.296799 129.013779,137.825653 
z"/>
<path fill="#F7F4F1" opacity="1.000000" stroke="none" 
	d="
M143.015564,137.992844 
	C146.198883,138.289566 149.382202,138.586288 152.565521,138.883011 
	C152.651062,139.321320 152.736603,139.759644 152.822144,140.197952 
	C152.020905,140.774261 151.196335,141.876923 150.422134,141.842636 
	C144.808777,141.594070 141.691010,145.161713 138.949478,149.186172 
	C137.115891,151.877823 134.940506,153.102219 131.565842,153.109238 
	C128.198257,153.116257 124.832550,154.018341 121.284378,153.921143 
	C124.074966,151.216568 127.047188,149.118851 130.370819,147.013535 
	C132.131516,147.816895 133.540833,148.627869 134.801285,149.353180 
	C136.308121,147.605194 137.811661,146.096008 139.031845,144.384796 
	C140.486618,142.344604 141.698486,140.131210 143.015564,137.992844 
z"/>
<path fill="#E6DBD2" opacity="1.000000" stroke="none" 
	d="
M130.019409,147.021133 
	C127.047188,149.118851 124.074966,151.216568 121.052071,153.665222 
	C119.940277,154.023224 118.879150,154.030304 117.079285,154.026474 
	C115.560356,154.343689 114.780174,154.671844 114.000000,155.000000 
	C112.175125,154.873703 110.350250,154.747406 108.472015,154.061462 
	C111.467606,152.114441 114.516548,150.727036 117.228050,149.493195 
	C116.503052,147.799911 115.756584,146.056503 115.010117,144.313080 
	C116.293465,144.781555 117.576813,145.250031 117.508362,145.225037 
	C122.096970,144.745422 125.592514,144.380051 129.492004,144.341766 
	C129.386780,145.440765 128.877625,146.212677 128.464233,146.839417 
	C128.540573,146.848328 129.279999,146.934738 130.019409,147.021133 
z"/>
<path fill="#E6DBD2" opacity="1.000000" stroke="none" 
	d="
M93.760742,137.580811 
	C93.962891,138.033615 93.958511,138.218979 94.013382,139.007050 
	C94.326508,140.644485 94.580399,141.679199 94.746567,142.898163 
	C94.658836,143.082413 94.554657,143.477020 94.236259,143.580444 
	C93.552795,144.862381 93.187737,146.040878 92.822678,147.219376 
	C95.268005,148.162323 97.713341,149.105255 100.632584,150.415543 
	C102.743568,151.875198 104.380630,152.967484 106.017700,154.059784 
	C99.813400,154.761719 93.930069,153.984390 88.361061,149.773468 
	C90.028122,145.641922 89.345451,141.807037 89.003761,138.001236 
	C88.765335,136.472000 88.526901,134.942764 88.115074,132.301361 
	C90.235054,134.254852 91.894638,135.784088 93.760742,137.580811 
M92.763908,140.813492 
	C92.592407,140.871338 92.420914,140.929184 92.249413,140.987000 
	C92.423889,141.044312 92.598366,141.101608 92.763908,140.813492 
z"/>
<path fill="#DBBDA9" opacity="1.000000" stroke="none" 
	d="
M113.501526,138.947449 
	C113.501534,138.947449 113.492874,138.996948 113.090485,138.917969 
	C112.131088,138.826080 111.574074,138.813156 111.008865,138.561935 
	C111.000664,138.323654 110.992943,137.846848 110.991074,137.482880 
	C110.261169,135.503708 109.762543,133.727768 108.763771,132.302246 
	C105.209175,127.228874 101.484337,122.274780 98.248901,117.217728 
	C99.528847,117.099953 100.383827,117.039970 101.238815,116.979996 
	C104.573448,121.311432 108.307068,125.399124 111.140244,130.036896 
	C114.570023,135.651260 119.684036,136.792007 125.479218,137.037476 
	C126.472740,137.079529 127.463249,137.192520 128.734467,137.549194 
	C125.929291,138.296799 122.844803,138.767960 119.327148,138.821381 
	C118.317795,138.131592 117.741623,137.859543 116.877686,137.416245 
	C115.560471,137.812469 114.530998,138.379959 113.501526,138.947449 
z"/>
<path fill="#725746" opacity="1.000000" stroke="none" 
	d="
M140.066681,85.088593 
	C140.038757,85.256859 140.010834,85.425117 140.033081,86.207848 
	C138.730865,87.867325 137.378448,88.912331 135.601471,89.956345 
	C134.047119,89.979042 132.917328,90.002731 131.661377,90.097427 
	C131.535217,90.168434 131.249313,90.214104 130.954147,90.065849 
	C130.379471,89.583984 130.099945,89.250374 129.849426,88.705536 
	C129.878418,88.494316 129.841293,88.069534 129.871918,87.682854 
	C129.882462,86.521469 129.862396,85.746773 129.846313,84.619751 
	C128.235596,82.515350 126.620895,80.763268 124.975662,78.673798 
	C124.746422,77.441475 124.547699,76.546547 124.380562,75.793877 
	C126.100319,75.498611 127.552597,75.249275 129.313568,75.029747 
	C130.331421,75.463676 131.040573,75.867798 131.836212,76.610405 
	C133.255386,79.262634 134.588104,81.576370 135.910812,84.126839 
	C135.900803,84.363564 135.811630,84.828972 135.559082,84.875259 
	C135.133453,85.192207 134.960358,85.462875 134.787262,85.733543 
	C135.265945,85.555077 135.744614,85.376610 136.425781,85.016006 
	C136.750290,84.492683 136.872330,84.151505 136.972900,83.513535 
	C137.097778,82.739479 137.244110,82.262199 137.327362,81.990692 
	C138.309891,83.101845 139.188293,84.095222 140.066681,85.088593 
z"/>
<path fill="#664937" opacity="1.000000" stroke="none" 
	d="
M129.004883,74.999931 
	C127.552597,75.249275 126.100319,75.498611 124.380562,75.793877 
	C124.547699,76.546547 124.746422,77.441475 124.973000,78.668335 
	C125.000854,79.000267 125.008118,79.007217 124.688126,78.978981 
	C123.578308,78.633453 122.788475,78.316154 121.896599,77.774994 
	C121.602707,77.270981 121.348122,77.070457 120.951523,76.593910 
	C119.776863,75.734703 118.724548,75.075844 117.577705,74.757927 
	C114.614723,73.936562 112.722351,72.378273 113.030426,69.017570 
	C113.333733,68.531273 113.637032,68.044975 114.299408,67.220978 
	C114.456306,65.899628 114.254135,64.915977 114.051971,63.932335 
	C113.469872,63.449741 112.887772,62.967144 112.151779,62.241451 
	C112.438194,61.945774 112.878502,61.893192 113.863068,61.961327 
	C114.407318,62.082043 114.852837,62.057396 114.852837,62.057396 
	C115.698982,62.301582 116.545128,62.545769 117.727798,63.297775 
	C121.711174,67.537041 125.358025,71.268486 129.004883,74.999931 
M115.522461,69.619690 
	C115.467346,69.835449 115.412231,70.051208 115.357101,70.266960 
	C115.493469,70.128098 115.629829,69.989235 115.522461,69.619690 
z"/>
<path fill="#6D4B31" opacity="1.000000" stroke="none" 
	d="
M28.992704,78.998100 
	C29.478628,78.728546 29.964552,78.458992 30.728918,78.092209 
	C40.050552,78.632126 49.093742,79.269272 58.573586,79.967743 
	C60.636494,81.120621 62.262749,82.212173 63.554817,83.697708 
	C58.376659,85.282936 53.650532,88.702126 47.623291,84.742706 
	C49.729321,84.213142 50.998222,83.894066 52.267120,83.574997 
	C52.312534,83.275551 52.357948,82.976105 52.403362,82.676651 
	C50.926910,82.161430 49.450462,81.646210 47.646065,81.091095 
	C46.877659,81.039528 46.437199,81.027863 45.703773,80.885422 
	C44.598732,80.555862 43.786663,80.357071 42.527802,80.111221 
	C39.366856,80.092972 36.652691,80.121788 33.938530,80.150620 
	C32.861320,79.800255 31.784109,79.449890 30.108232,79.047989 
	C29.337278,78.997002 29.164991,78.997551 28.992704,78.998100 
z"/>
<path fill="#B7ACA2" opacity="1.000000" stroke="none" 
	d="
M81.985527,101.002785 
	C80.409279,102.475075 78.833023,103.947365 77.125404,105.726364 
	C72.920883,103.482681 68.822395,100.971535 64.784470,98.366524 
	C62.521313,96.906471 60.358425,95.290985 58.022129,93.426292 
	C58.102905,93.052956 58.311913,92.998856 59.172028,93.029175 
	C64.529770,94.490501 69.236412,95.867409 74.128281,97.569153 
	C76.870850,98.930267 79.428185,99.966530 81.985527,101.002785 
z"/>
<path fill="#E6CBB3" opacity="1.000000" stroke="none" 
	d="
M99.938034,136.040955 
	C98.847572,135.954361 97.757118,135.867783 96.462250,135.934479 
	C94.041969,130.074890 91.668716,124.113113 89.692833,118.022423 
	C88.969360,115.792313 89.188164,113.256508 89.297882,110.470512 
	C90.758957,110.767639 91.899269,111.454422 93.039551,112.537994 
	C95.339020,120.636833 97.638527,128.338882 99.938034,136.040955 
z"/>
<path fill="#D9C7B3" opacity="1.000000" stroke="none" 
	d="
M106.343269,154.067459 
	C104.380630,152.967484 102.743568,151.875198 101.027222,150.450180 
	C104.577133,149.647675 108.809959,150.521591 110.594429,145.450195 
	C108.116707,145.620178 104.695305,146.339600 107.327026,141.466171 
	C108.174881,140.749619 108.672699,140.454895 109.332100,140.147888 
	C109.493683,140.135620 109.815498,140.181198 109.815498,140.181198 
	C110.075333,141.266693 110.335175,142.352203 111.232483,143.569153 
	C112.917450,143.571533 113.964928,143.442474 115.012413,143.313400 
	C115.012413,143.313400 114.982437,143.810638 114.996277,144.061859 
	C115.756584,146.056503 116.503052,147.799911 117.228050,149.493195 
	C114.516548,150.727036 111.467606,152.114441 108.194771,153.794189 
	C107.536865,154.082748 107.102852,154.078949 106.343269,154.067459 
z"/>
<path fill="#211814" opacity="1.000000" stroke="none" 
	d="
M140.417038,85.047226 
	C139.188293,84.095222 138.309891,83.101845 137.327362,81.990692 
	C137.244110,82.262199 137.097778,82.739479 136.701385,83.491104 
	C136.274506,83.807007 136.097672,83.848557 135.920822,83.890114 
	C134.588104,81.576370 133.255386,79.262634 132.020981,76.257706 
	C132.456467,74.862343 132.793640,74.158173 133.516418,73.516945 
	C136.913574,74.757713 139.925125,75.935532 142.936661,77.113342 
	C144.063507,80.252640 143.835968,83.019676 140.417038,85.047226 
z"/>
<path fill="#E9E3DC" opacity="1.000000" stroke="none" 
	d="
M143.092438,76.794510 
	C139.925125,75.935532 136.913574,74.757713 133.245117,73.357391 
	C131.095551,71.780876 129.602905,70.426865 128.426559,69.027863 
	C129.166855,68.941910 129.590820,68.900963 130.443878,68.948280 
	C132.916306,69.022278 134.959671,69.008011 137.122742,69.370544 
	C139.497055,70.155502 141.751648,70.563667 144.048065,71.305374 
	C145.474808,71.675072 146.859695,71.711220 148.241196,71.793076 
	C148.237793,71.838776 148.146149,71.838181 148.146149,71.838181 
	C146.513489,73.384010 144.880844,74.929840 143.092438,76.794510 
z"/>
<path fill="#D5C9BF" opacity="1.000000" stroke="none" 
	d="
M130.370819,147.013535 
	C129.279999,146.934738 128.540573,146.848328 128.464233,146.839417 
	C128.877625,146.212677 129.386780,145.440765 129.944641,144.362915 
	C131.324127,143.701248 132.686188,143.432465 133.977676,142.967621 
	C135.568359,142.395081 137.100266,141.659210 139.836655,140.490204 
	C136.997101,139.143097 135.637039,138.497879 134.084351,137.584778 
	C136.662872,137.514236 139.434036,137.711578 142.610382,137.950897 
	C141.698486,140.131210 140.486618,142.344604 139.031845,144.384796 
	C137.811661,146.096008 136.308121,147.605194 134.801285,149.353180 
	C133.540833,148.627869 132.131516,147.816895 130.370819,147.013535 
z"/>
<path fill="#B7ACA2" opacity="1.000000" stroke="none" 
	d="
M138.908661,95.912643 
	C137.280182,98.227219 136.103378,101.196198 133.918304,102.704308 
	C130.568726,105.016136 126.524940,106.322144 122.139694,107.837440 
	C121.345596,106.756592 121.187592,105.893341 121.391800,104.987350 
	C125.232384,103.232353 128.805679,101.681732 132.139740,99.723740 
	C133.374725,98.998489 134.047760,97.316399 135.361862,95.977905 
	C136.800659,95.894310 137.854660,95.903481 138.908661,95.912643 
z"/>
<path fill="#85624A" opacity="1.000000" stroke="none" 
	d="
M124.116241,56.988319 
	C126.514359,56.061623 128.912476,55.134922 131.911057,54.439171 
	C133.664124,54.500240 134.816742,54.330364 135.969345,54.160492 
	C139.277161,55.198673 142.584991,56.236855 145.484650,57.628166 
	C143.716217,57.670147 142.355957,57.358994 140.585144,57.044083 
	C135.785538,57.698780 131.396484,58.357235 126.959793,58.676483 
	C125.980186,57.887623 125.048210,57.437969 124.116241,56.988319 
z"/>
<path fill="#382F2B" opacity="1.000000" stroke="none" 
	d="
M139.099274,95.599136 
	C137.854660,95.903481 136.800659,95.894310 135.054245,95.827057 
	C133.624298,94.505051 132.886765,93.241135 132.459198,92.010353 
	C133.854782,91.348114 134.940414,90.652733 136.026031,89.957344 
	C137.378448,88.912331 138.730865,87.867325 140.029739,86.463676 
	C141.000992,87.208466 142.629974,88.170692 142.927567,89.444069 
	C143.591461,92.284866 142.501602,94.583328 139.099274,95.599136 
z"/>
<path fill="#30231C" opacity="1.000000" stroke="none" 
	d="
M128.110245,69.072861 
	C129.602905,70.426865 131.095551,71.780876 132.859497,73.294441 
	C132.793640,74.158173 132.456467,74.862343 131.934509,75.919220 
	C131.040573,75.867798 130.331421,75.463676 129.313568,75.029747 
	C125.358025,71.268486 121.711174,67.537041 118.042191,63.449104 
	C118.020065,63.092613 118.423347,62.916016 118.999619,62.927620 
	C122.023521,64.334427 124.471146,65.729630 126.938644,67.107475 
	C126.958511,67.090118 126.938560,67.042038 127.052933,67.314095 
	C127.481628,68.081718 127.795937,68.577286 128.110245,69.072861 
z"/>
<path fill="#D5C9BF" opacity="1.000000" stroke="none" 
	d="
M148.059235,60.994377 
	C148.728928,62.368107 149.398636,63.741837 149.795120,65.480911 
	C149.342773,65.890015 149.163666,65.933754 148.588409,65.930771 
	C144.448898,66.647514 140.705490,67.410973 136.953278,67.814995 
	C136.979691,66.977509 137.014923,66.499451 137.417633,65.997650 
	C139.313538,64.335091 140.841934,62.696285 142.775116,61.061485 
	C144.806351,61.041786 146.432785,61.018082 148.059235,60.994377 
z"/>
<path fill="#625855" opacity="1.000000" stroke="none" 
	d="
M148.984543,65.977486 
	C149.163666,65.933754 149.342773,65.890015 149.797379,65.822495 
	C152.231949,67.075081 154.415543,68.312248 156.542145,69.640640 
	C158.147675,70.643562 159.680328,71.763153 161.245422,72.830811 
	C161.100342,73.249153 160.955276,73.667488 160.810196,74.085831 
	C156.860641,73.336533 152.911072,72.587227 148.553833,71.838058 
	C148.146149,71.838181 148.237793,71.838776 148.180725,71.473206 
	C148.091873,70.892715 148.060074,70.677780 148.223328,70.190140 
	C148.607101,68.604111 148.795822,67.290794 148.984543,65.977486 
z"/>
<path fill="#D9C7B3" opacity="1.000000" stroke="none" 
	d="
M121.029587,105.030090 
	C121.187592,105.893341 121.345596,106.756592 121.762314,107.833618 
	C118.417229,109.920158 115.818085,115.304131 110.169464,111.062996 
	C109.797035,110.794159 109.894516,110.600708 109.898300,110.443878 
	C109.902077,110.287056 109.987785,109.986542 110.278259,109.850853 
	C111.053093,108.818695 111.537453,107.922226 112.413651,107.024261 
	C113.849693,106.987572 114.893890,106.952377 116.264435,106.812271 
	C118.070381,106.148270 119.549988,105.589180 121.029587,105.030090 
z"/>
<path fill="#B7ACA2" opacity="1.000000" stroke="none" 
	d="
M93.039574,112.141205 
	C91.899269,111.454422 90.758957,110.767639 89.219177,110.134491 
	C86.063301,109.271393 83.306885,108.354668 80.287453,107.206757 
	C80.576744,106.659409 81.228676,105.967865 81.666260,106.084000 
	C87.280876,107.574059 92.864861,109.179535 98.640457,111.197571 
	C98.244598,112.429161 97.664894,113.218956 96.769470,113.905106 
	C95.315689,113.248039 94.177635,112.694626 93.039574,112.141205 
z"/>
<path fill="#7C6B61" opacity="1.000000" stroke="none" 
	d="
M97.085190,114.008751 
	C97.664894,113.218956 98.244598,112.429161 98.970215,111.374252 
	C101.262283,110.981102 103.408432,110.853081 106.179672,110.340012 
	C107.834671,110.170212 108.864594,110.385460 109.894516,110.600708 
	C109.894516,110.600708 109.797035,110.794159 109.865494,110.877808 
	C108.010674,111.694794 106.138092,112.775528 104.150131,113.065628 
	C102.083061,113.367287 100.578888,113.574516 101.211708,116.571152 
	C100.383827,117.039970 99.528847,117.099953 97.998672,116.969589 
	C97.244049,115.855751 97.164619,114.932251 97.085190,114.008751 
z"/>
<path fill="#FBF8F6" opacity="1.000000" stroke="none" 
	d="
M88.649216,138.062759 
	C89.345451,141.807037 90.028122,145.641922 88.045792,149.612335 
	C84.147346,148.793045 83.042717,146.610443 85.446686,143.023239 
	C86.496078,141.457321 87.351280,139.761246 88.649216,138.062759 
z"/>
<path fill="#85624A" opacity="1.000000" stroke="none" 
	d="
M120.996643,59.087448 
	C121.745140,58.717957 122.493629,58.348469 123.815552,58.116035 
	C124.910995,58.835968 125.433014,59.418835 126.007675,60.284584 
	C126.381218,60.764187 126.702118,60.960907 126.981415,61.459267 
	C126.627792,62.505833 126.315781,63.250755 125.740906,63.892159 
	C123.984253,62.221573 122.490448,60.654510 120.996643,59.087448 
z"/>
<path fill="#968377" opacity="1.000000" stroke="none" 
	d="
M148.107422,60.617435 
	C146.432785,61.018082 144.806351,61.041786 142.496490,60.992119 
	C141.549561,60.657139 141.286041,60.395531 141.091278,59.747688 
	C141.105240,58.590244 141.050461,57.819038 140.995682,57.047836 
	C142.355957,57.358994 143.716217,57.670147 145.431854,57.995628 
	C146.576675,58.753468 147.366135,59.496983 148.107422,60.617435 
z"/>
<path fill="#926E51" opacity="1.000000" stroke="none" 
	d="
M120.621826,59.055290 
	C122.490448,60.654510 123.984253,62.221573 125.887329,64.191475 
	C126.503990,65.437828 126.711380,66.281326 126.918777,67.124832 
	C124.471146,65.729630 122.023521,64.334427 119.213539,62.875725 
	C119.316467,61.549194 119.781746,60.286163 120.621826,59.055290 
z"/>
<path fill="#7B5A44" opacity="1.000000" stroke="none" 
	d="
M104.179398,62.701492 
	C105.166542,63.016190 105.850021,63.302532 106.533508,63.588875 
	C106.500107,63.960827 106.466705,64.332779 106.433304,64.704735 
	C105.070969,64.602249 103.708626,64.499771 102.123680,64.097137 
	C102.559296,63.422367 103.217522,63.047756 104.179398,62.701492 
z"/>
<path fill="#DAD1C7" opacity="1.000000" stroke="none" 
	d="
M5.386308,83.094955 
	C6.829380,83.073296 7.924079,83.073296 9.018778,83.073296 
	C9.030902,83.299438 9.043026,83.525589 9.055151,83.751732 
	C7.272049,84.050468 5.488948,84.349205 3.705847,84.647942 
	C3.631064,84.373367 3.556281,84.098793 3.481498,83.824219 
	C4.000310,83.588356 4.519123,83.352486 5.386308,83.094955 
z"/>
<path fill="#968377" opacity="1.000000" stroke="none" 
	d="
M135.722809,53.990749 
	C134.816742,54.330364 133.664124,54.500240 132.283844,54.457985 
	C133.196182,54.104237 134.336227,53.962624 135.722809,53.990749 
z"/>
<path fill="#DAD1C7" opacity="1.000000" stroke="none" 
	d="
M16.081352,85.243279 
	C14.863390,85.717201 13.645429,86.191124 12.344104,86.068787 
	C13.170432,85.310410 14.080123,85.148293 15.261699,85.054688 
	C15.716172,85.163231 15.898762,85.203255 16.081352,85.243279 
z"/>
<path fill="#926E51" opacity="1.000000" stroke="none" 
	d="
M26.080023,77.542244 
	C26.208735,78.552757 26.052849,79.198296 25.896961,79.843842 
	C25.259575,79.112900 24.622187,78.381958 23.987259,77.304276 
	C24.591621,77.030777 25.193523,77.104027 26.080023,77.542244 
z"/>
<path fill="#926E51" opacity="1.000000" stroke="none" 
	d="
M125.955032,60.001701 
	C125.433014,59.418835 124.910995,58.835968 124.135696,58.096771 
	C123.882423,57.940441 123.949448,57.452156 124.032845,57.220238 
	C125.048210,57.437969 125.980186,57.887623 126.867111,58.916290 
	C126.533058,59.664101 126.244049,59.832901 125.955032,60.001701 
z"/>
<path fill="#F7F4F1" opacity="1.000000" stroke="none" 
	d="
M114.196259,155.255066 
	C114.780174,154.671844 115.560356,154.343689 116.681534,154.037048 
	C116.145859,154.542404 115.269188,155.026260 114.196259,155.255066 
z"/>
<path fill="#725746" opacity="1.000000" stroke="none" 
	d="
M14.989814,84.986168 
	C14.080123,85.148293 13.170432,85.310410 12.133261,85.798355 
	C12.383972,85.286804 12.762161,84.449432 13.761352,83.689423 
	C14.580346,83.871773 14.778340,83.976761 14.983434,84.307800 
	C14.990533,84.533852 14.989814,84.986168 14.989814,84.986168 
z"/>
<path fill="#7C6B61" opacity="1.000000" stroke="none" 
	d="
M15.261699,85.054688 
	C14.989814,84.986168 14.990533,84.533852 15.331676,84.275635 
	C16.130613,83.944122 16.588408,83.870827 17.046200,83.797531 
	C17.468367,83.827370 17.890533,83.857193 18.885147,83.935501 
	C19.641634,83.995644 19.825674,84.007324 20.009716,84.019012 
	C20.009716,84.019012 20.059219,84.174431 20.061092,84.374290 
	C20.062963,84.574150 20.022997,84.840378 20.022997,84.840378 
	C18.966537,84.910721 17.910076,84.981064 16.467484,85.147339 
	C15.898762,85.203255 15.716172,85.163231 15.261699,85.054688 
z"/>
<path fill="#DAD1C7" opacity="1.000000" stroke="none" 
	d="
M16.864697,83.599289 
	C16.588408,83.870827 16.130613,83.944122 15.324577,84.049591 
	C14.778340,83.976761 14.580346,83.871773 14.113749,83.564018 
	C14.791162,83.374512 15.737179,83.387779 16.864697,83.599289 
z"/>
<path fill="#725746" opacity="1.000000" stroke="none" 
	d="
M20.343060,84.925041 
	C20.022997,84.840378 20.062963,84.574150 20.099293,84.446342 
	C20.658827,84.374001 21.182030,84.429459 21.843803,84.723068 
	C21.542624,84.977371 21.102873,84.993538 20.343060,84.925041 
z"/>
<path fill="#7B5A44" opacity="1.000000" stroke="none" 
	d="
M101.072815,63.628803 
	C100.909157,63.905777 100.585205,63.895500 99.776794,63.823730 
	C99.832397,63.622013 100.372467,63.481781 101.072815,63.628803 
z"/>
<path fill="#7D5E47" opacity="1.000000" stroke="none" 
	d="
M114.780807,61.927521 
	C114.852837,62.057396 114.407318,62.082043 114.189590,62.033379 
	C114.147804,61.685738 114.393448,61.623383 114.780807,61.927521 
z"/>
<path fill="#DAD1C7" opacity="1.000000" stroke="none" 
	d="
M20.072525,83.761108 
	C19.825674,84.007324 19.641634,83.995644 19.199228,83.884727 
	C19.056955,83.486328 19.259949,83.267967 19.767538,83.062195 
	C20.035267,83.163727 20.085300,83.333466 20.072525,83.761108 
z"/>
<path fill="#8F6B4C" opacity="1.000000" stroke="none" 
	d="
M42.974594,80.158287 
	C43.786663,80.357071 44.598732,80.555862 45.552868,81.122078 
	C45.519924,81.954910 45.344917,82.420311 45.169914,82.885712 
	C46.104610,82.300804 47.039310,81.715897 47.974010,81.130989 
	C49.450462,81.646210 50.926910,82.161430 52.403362,82.676651 
	C52.357948,82.976105 52.312534,83.275551 52.267120,83.574997 
	C50.998222,83.894066 49.729321,84.213142 47.623291,84.742706 
	C53.650532,88.702126 58.376659,85.282936 63.596107,84.035690 
	C66.240486,83.059776 68.574318,81.837219 69.985825,85.972488 
	C72.041840,91.155533 75.513245,86.587471 77.999649,87.999542 
	C78.000000,88.000000 78.000916,88.000809 77.857193,88.351379 
	C77.402275,90.172249 77.091080,91.642555 76.468781,93.085403 
	C75.437912,93.379051 74.718140,93.700157 73.669144,94.012024 
	C71.957191,93.067459 70.683395,91.658127 69.165855,91.309364 
	C66.963303,90.803192 64.585045,91.050827 62.281200,91.000755 
	C61.127384,90.975670 59.972420,91.003235 58.817974,91.006989 
	C56.388290,90.335846 53.944061,89.712700 51.532490,88.981804 
	C48.268814,87.992661 45.030197,86.920853 41.440727,85.499817 
	C41.725281,83.462837 42.349937,81.810562 42.974594,80.158287 
z"/>
<path fill="#9B7355" opacity="1.000000" stroke="none" 
	d="
M76.059769,84.049515 
	C76.056152,83.868866 76.052536,83.688217 76.029694,82.864929 
	C76.001625,81.475822 75.992760,80.729370 75.983902,79.982910 
	C76.256393,79.491348 76.528893,78.999786 77.234222,78.265381 
	C79.107819,78.012398 80.548576,78.002243 82.398926,77.997253 
	C86.205185,78.002121 89.601845,78.001823 93.001785,78.364624 
	C93.331268,79.803757 93.657478,80.879807 93.980827,82.328072 
	C91.568260,84.778419 89.115837,86.811172 86.801300,88.990387 
	C86.501961,89.272217 86.915672,90.311371 86.850937,91.248199 
	C86.132256,91.997627 85.561722,92.498573 84.660477,92.999619 
	C83.888817,92.999901 83.447861,93.000084 83.006142,92.560730 
	C82.996681,84.130836 82.996681,84.130836 76.059769,84.049515 
z"/>
<path fill="#85624A" opacity="1.000000" stroke="none" 
	d="
M92.998512,78.001526 
	C89.601845,78.001823 86.205185,78.002121 82.410995,77.633438 
	C82.681770,75.509560 83.350060,73.754669 84.018349,71.999771 
	C84.018349,71.999771 83.997620,71.999062 84.381226,72.001991 
	C86.515892,71.679512 88.266960,71.354103 90.152084,71.316017 
	C90.985909,72.479263 91.685692,73.355186 92.950432,74.938286 
	C92.950432,73.001968 92.950432,71.923759 92.956085,70.633652 
	C92.961746,70.421761 93.008476,70.000389 93.008476,70.000389 
	C93.972824,70.096184 95.440765,70.640396 95.819641,70.214890 
	C98.247528,67.488159 100.762604,67.466934 103.414536,69.715034 
	C101.839157,70.666679 100.419579,71.333794 99.031647,72.345459 
	C99.373772,73.790115 99.684242,74.890221 99.623055,75.995331 
	C98.507874,76.007011 97.764343,76.013695 96.642441,76.014030 
	C95.175621,76.672173 94.087166,77.336662 92.999359,78.000572 
	C93.000000,78.000000 92.998512,78.001526 92.998512,78.001526 
z"/>
<path fill="#7B5A44" opacity="1.000000" stroke="none" 
	d="
M112.631813,69.011230 
	C112.722351,72.378273 114.614723,73.936562 117.577705,74.757927 
	C118.724548,75.075844 119.776863,75.734703 120.635498,76.590706 
	C118.930168,77.969475 117.461586,78.995781 115.693039,79.880791 
	C113.264206,79.164101 111.135330,78.588692 108.673416,78.005707 
	C107.896393,77.998459 107.452400,77.998810 106.902756,77.738693 
	C106.531853,76.984329 106.266594,76.490425 106.002037,75.581284 
	C105.997879,73.783485 105.993027,72.400925 105.988174,71.018372 
	C108.069847,70.347206 110.151520,69.676048 112.631813,69.011230 
z"/>
<path fill="#B28B68" opacity="1.000000" stroke="none" 
	d="
M75.689774,84.073029 
	C82.996681,84.130836 82.996681,84.130836 82.744049,92.846710 
	C80.642723,93.722870 78.802742,93.873535 76.927261,93.794312 
	C76.891769,93.564423 76.779884,93.112854 76.779877,93.112854 
	C77.091080,91.642555 77.402275,90.172249 78.004623,88.304459 
	C78.196953,87.937675 78.098129,87.968376 77.999306,87.999084 
	C75.513245,86.587471 72.041840,91.155533 70.027328,86.328232 
	C71.770439,85.342720 73.545105,84.719635 75.689774,84.073029 
z"/>
<path fill="#634531" opacity="1.000000" stroke="none" 
	d="
M83.682533,71.856171 
	C83.350060,73.754669 82.681770,75.509560 82.001404,77.628281 
	C80.548576,78.002243 79.107819,78.012398 77.330994,78.000793 
	C76.528442,76.783478 76.061958,75.587898 75.595482,74.392326 
	C78.169678,73.471451 79.690552,69.503830 83.682533,71.856171 
z"/>
<path fill="#8F6B4C" opacity="1.000000" stroke="none" 
	d="
M105.656998,71.013954 
	C105.993027,72.400925 105.997879,73.783485 105.573204,75.584412 
	C103.427353,75.998634 101.711029,75.994476 99.994713,75.990326 
	C99.684242,74.890221 99.373772,73.790115 99.397278,72.309723 
	C101.154366,71.619926 102.577492,71.310425 104.000610,71.000916 
	C104.442345,71.003792 104.884079,71.006668 105.656998,71.013954 
z"/>
<path fill="#634531" opacity="1.000000" stroke="none" 
	d="
M92.754654,69.710594 
	C93.008476,70.000389 92.961746,70.421761 92.591171,70.672714 
	C91.486404,70.958672 90.752220,70.993683 90.018028,71.028694 
	C88.266960,71.354103 86.515892,71.679512 84.378433,72.011993 
	C85.996796,68.429985 89.217201,68.821884 92.754654,69.710594 
z"/>
<path fill="#8F6B4C" opacity="1.000000" stroke="none" 
	d="
M75.620888,79.982361 
	C75.992760,80.729370 76.001625,81.475822 76.014633,82.594315 
	C71.620995,83.557602 71.495552,80.238968 70.771118,76.778503 
	C72.498390,78.011688 73.878136,78.996758 75.620888,79.982361 
z"/>
<path fill="#7B5A44" opacity="1.000000" stroke="none" 
	d="
M114.033569,64.311325 
	C114.254135,64.915977 114.456306,65.899628 114.323082,66.919884 
	C113.996849,66.201103 114.006012,65.445709 114.033569,64.311325 
z"/>
<path fill="#7B5A44" opacity="1.000000" stroke="none" 
	d="
M104.000549,70.750687 
	C102.577492,71.310425 101.154366,71.619926 99.365623,71.965164 
	C100.419579,71.333794 101.839157,70.666679 103.629219,69.999786 
	C103.999969,70.166817 104.000237,70.333641 104.000549,70.750687 
z"/>
<path fill="#634531" opacity="1.000000" stroke="none" 
	d="
M58.868896,91.305359 
	C59.972420,91.003235 61.127384,90.975670 62.281200,91.000755 
	C64.585045,91.050827 66.963303,90.803192 69.165855,91.309364 
	C70.683395,91.658127 71.957191,93.067459 73.668701,94.413666 
	C73.979332,95.631126 73.961189,96.437721 73.943047,97.244308 
	C69.236412,95.867409 64.529770,94.490501 59.486393,92.951385 
	C59.073040,92.394020 58.996429,91.998878 58.868896,91.305359 
z"/>
<path fill="#926E51" opacity="1.000000" stroke="none" 
	d="
M42.527805,80.111221 
	C42.349937,81.810562 41.725281,83.462837 41.072876,85.442787 
	C40.095058,85.304176 39.154041,84.818199 38.192726,84.376381 
	C36.868706,83.767860 35.529346,83.192726 33.602810,82.340698 
	C33.567501,82.516464 33.742195,81.646805 33.927711,80.463875 
	C36.652691,80.121788 39.366856,80.092972 42.527805,80.111221 
z"/>
<path fill="#926E51" opacity="1.000000" stroke="none" 
	d="
M28.736284,79.192261 
	C29.164991,78.997551 29.337278,78.997002 29.767147,79.020706 
	C29.571461,79.860985 29.118191,80.677002 28.664921,81.493027 
	C28.603235,80.790825 28.541550,80.088631 28.736284,79.192261 
z"/>
<path fill="#9E785A" opacity="1.000000" stroke="none" 
	d="
M105.035034,104.188400 
	C102.851486,104.082184 100.667946,103.975975 98.219345,103.178711 
	C97.630470,100.677650 97.306648,98.867645 97.282166,97.171829 
	C98.758453,97.708160 100.154984,100.634720 101.008148,96.747955 
	C101.041084,96.507439 101.134979,96.031082 101.434044,96.041000 
	C102.130905,96.066025 102.528694,96.081139 103.078384,96.381630 
	C103.945229,97.671501 104.660164,98.675987 104.945526,99.076912 
	C110.010330,97.231216 114.496849,95.596260 119.316849,93.979004 
	C120.095169,93.987572 120.539993,93.978439 120.931313,94.329056 
	C119.319092,95.776726 117.815941,97.676842 116.190407,97.788048 
	C112.500450,98.040512 112.991531,100.308914 112.628502,102.710587 
	C109.833366,103.273209 107.434196,103.730804 105.035034,104.188400 
z"/>
<path fill="#755342" opacity="1.000000" stroke="none" 
	d="
M74.128281,97.569153 
	C73.961189,96.437721 73.979332,95.631126 73.997925,94.422897 
	C74.718140,93.700157 75.437912,93.379051 76.468781,93.085403 
	C76.779884,93.112854 76.891769,93.564423 76.932953,94.152695 
	C77.199066,95.326942 77.380775,96.400917 77.655434,96.425240 
	C81.383675,96.755394 85.124802,96.939941 88.878830,97.466187 
	C88.900108,98.179955 88.905304,98.587982 88.565918,99.025047 
	C87.134842,99.827759 86.048340,100.601440 84.961853,101.375130 
	C84.220398,101.253822 83.478935,101.132515 82.361504,101.006996 
	C79.428185,99.966530 76.870850,98.930267 74.128281,97.569153 
z"/>
<path fill="#E6DBD2" opacity="1.000000" stroke="none" 
	d="
M104.981064,104.476334 
	C107.434196,103.730804 109.833366,103.273209 112.944138,102.776695 
	C114.079384,102.670410 114.503014,102.603050 114.960670,102.921082 
	C115.309158,104.510048 115.623619,105.713615 115.938080,106.917183 
	C114.893890,106.952377 113.849693,106.987572 112.065704,107.065086 
	C110.879875,108.067116 110.433830,109.026825 109.987778,109.986542 
	C109.987785,109.986542 109.902077,110.287056 109.898300,110.443878 
	C108.864594,110.385460 107.834671,110.170212 106.411789,110.015869 
	C105.654915,108.305939 105.291008,106.535103 104.981064,104.476334 
z"/>
<path fill="#94725A" opacity="1.000000" stroke="none" 
	d="
M85.246735,101.609329 
	C86.048340,100.601440 87.134842,99.827759 88.901321,98.996788 
	C91.388214,98.283142 93.195122,97.626785 95.332489,96.978836 
	C96.102913,97.010704 96.542870,97.034172 96.982826,97.057640 
	C97.306648,98.867645 97.630470,100.677650 97.928345,102.898842 
	C93.778809,102.821190 89.655212,102.332359 85.246735,101.609329 
z"/>
<path fill="#FBF8F6" opacity="1.000000" stroke="none" 
	d="
M96.769470,113.905106 
	C97.164619,114.932251 97.244049,115.855751 97.573715,117.027390 
	C101.484337,122.274780 105.209175,127.228874 108.763771,132.302246 
	C109.762543,133.727768 110.261169,135.503708 110.740829,137.519989 
	C110.325012,137.940964 110.157562,137.960892 109.659187,137.933472 
	C108.884071,137.920410 108.439888,137.954697 107.995697,137.988983 
	C105.493515,137.513000 102.991325,137.037018 100.213585,136.300995 
	C97.638527,128.338882 95.339020,120.636833 93.039551,112.537994 
	C94.177635,112.694626 95.315689,113.248039 96.769470,113.905106 
z"/>
<path fill="#B7ACA2" opacity="1.000000" stroke="none" 
	d="
M94.834290,142.713928 
	C94.580399,141.679199 94.326508,140.644485 94.063370,139.280640 
	C95.893547,139.756668 97.732964,140.561813 99.410309,141.666962 
	C97.776932,142.215958 96.305611,142.464951 94.834290,142.713928 
z"/>
<path fill="#968377" opacity="1.000000" stroke="none" 
	d="
M94.746567,142.898178 
	C96.305611,142.464951 97.776932,142.215958 99.623825,141.924622 
	C98.879166,143.242035 97.758911,144.601776 96.395798,145.686859 
	C95.782249,144.958771 95.411575,144.505341 94.920418,143.907288 
	C94.799927,143.762650 94.554657,143.477020 94.554657,143.477020 
	C94.554657,143.477020 94.658836,143.082413 94.746567,142.898178 
z"/>
<path fill="#968377" opacity="1.000000" stroke="none" 
	d="
M93.052017,147.083572 
	C93.187737,146.040878 93.552795,144.862381 94.236259,143.580444 
	C94.554657,143.477020 94.799927,143.762650 94.783997,144.172180 
	C94.504517,145.111740 94.240959,145.641800 93.977409,146.171844 
	C93.745399,146.430496 93.513382,146.689133 93.052017,147.083572 
z"/>
<path fill="#7C6B61" opacity="1.000000" stroke="none" 
	d="
M109.170517,140.160156 
	C108.672699,140.454895 108.174881,140.749619 107.395500,141.133682 
	C106.592178,140.919098 106.070419,140.615204 105.548660,140.311295 
	C106.191032,139.845581 106.833412,139.379852 108.023239,138.877289 
	C108.570679,138.840424 109.023842,138.899658 109.078751,139.212662 
	C109.145943,139.737167 109.158226,139.948654 109.170517,140.160156 
z"/>
<path fill="#382F2B" opacity="1.000000" stroke="none" 
	d="
M94.290894,146.116241 
	C94.240959,145.641800 94.504517,145.111740 94.904495,144.316803 
	C95.411575,144.505341 95.782249,144.958771 96.010139,145.661346 
	C95.446365,145.960541 95.025383,146.010605 94.290894,146.116241 
z"/>
<path fill="#DBBDA9" opacity="1.000000" stroke="none" 
	d="
M109.023842,138.899658 
	C109.023842,138.899658 108.570679,138.840424 108.346161,138.799179 
	C108.121643,138.757935 108.023331,138.379364 108.009514,138.184174 
	C108.439888,137.954697 108.884071,137.920410 109.569611,138.149231 
	C109.592941,138.646408 109.330566,138.808853 109.023842,138.899658 
z"/>
<path fill="#947964" opacity="1.000000" stroke="none" 
	d="
M114.873322,142.989304 
	C113.964928,143.442474 112.917450,143.571533 111.557663,143.643463 
	C112.408310,143.279297 113.571266,142.972260 114.873322,142.989304 
z"/>
<path fill="#B28B68" opacity="1.000000" stroke="none" 
	d="
M113.831650,138.971680 
	C114.530998,138.379959 115.560471,137.812469 116.570747,137.625305 
	C116.195114,138.345078 115.838676,138.684540 115.482239,139.024002 
	C115.042084,139.014648 114.601929,139.005295 113.831650,138.971680 
z"/>
<path fill="#625855" opacity="1.000000" stroke="none" 
	d="
M115.710876,139.265015 
	C115.838676,138.684540 116.195114,138.345078 116.858505,137.796570 
	C117.741623,137.859543 118.317795,138.131592 119.004883,138.707184 
	C118.057022,139.175827 116.998260,139.340927 115.710876,139.265015 
z"/>
<path fill="#B28B68" opacity="1.000000" stroke="none" 
	d="
M109.078751,139.212662 
	C109.330566,138.808853 109.592941,138.646408 109.900543,138.196564 
	C110.157562,137.960892 110.325012,137.940964 110.742706,137.883942 
	C110.992943,137.846848 111.000664,138.323654 110.964294,138.866943 
	C110.906883,139.614334 110.885841,139.818436 110.864792,140.022522 
	C110.689140,140.041504 110.513496,140.060486 110.076675,140.130341 
	C109.815498,140.181198 109.493683,140.135620 109.332100,140.147888 
	C109.158226,139.948654 109.145943,139.737167 109.078751,139.212662 
z"/>
<path fill="#725746" opacity="1.000000" stroke="none" 
	d="
M111.244415,140.021072 
	C110.885841,139.818436 110.906883,139.614334 110.972504,139.105225 
	C111.574074,138.813156 112.131088,138.826080 113.104607,138.897552 
	C112.888756,139.310608 112.256401,139.665115 111.244415,140.021072 
z"/>
<path fill="#B7ACA2" opacity="1.000000" stroke="none" 
	d="
M92.768372,140.986206 
	C92.598366,141.101608 92.423889,141.044312 92.249413,140.987000 
	C92.420914,140.929184 92.592407,140.871338 92.768372,140.986206 
z"/>
<path fill="#926E51" opacity="1.000000" stroke="none" 
	d="
M114.926651,102.535690 
	C114.503014,102.603050 114.079384,102.670410 113.340111,102.671661 
	C112.991531,100.308914 112.500450,98.040512 116.190407,97.788048 
	C117.815941,97.676842 119.319092,95.776726 121.277451,94.282181 
	C123.046906,92.919418 124.416718,91.963280 126.551697,90.473045 
	C124.761856,89.110802 123.382591,88.061050 122.005356,86.616318 
	C121.840042,83.296234 123.170578,82.445602 125.841324,83.454735 
	C127.175606,83.958885 128.508682,84.466194 129.842316,84.972076 
	C129.862396,85.746773 129.882462,86.521469 129.738220,87.757141 
	C129.573929,88.218109 129.490005,88.622444 129.490005,88.622444 
	C129.490005,88.622444 129.820435,88.916763 129.820435,88.916763 
	C130.099945,89.250374 130.379471,89.583984 130.776459,90.363838 
	C126.744453,96.315857 122.730820,102.006645 114.926651,102.535690 
z"/>
<path fill="#DAD1C7" opacity="1.000000" stroke="none" 
	d="
M114.960670,102.921082 
	C122.730820,102.006645 126.744453,96.315857 131.071625,90.512093 
	C131.249313,90.214104 131.535217,90.168434 131.747131,90.417892 
	C132.022430,91.103973 132.085831,91.540596 132.149231,91.977211 
	C132.886765,93.241135 133.624298,94.505051 134.669449,95.919815 
	C134.047760,97.316399 133.374725,98.998489 132.139740,99.723740 
	C128.805679,101.681732 125.232384,103.232353 121.391800,104.987350 
	C119.549988,105.589180 118.070381,106.148270 116.264427,106.812271 
	C115.623619,105.713615 115.309158,104.510048 114.960670,102.921082 
z"/>
<path fill="#94725A" opacity="1.000000" stroke="none" 
	d="
M129.846313,84.619751 
	C128.508682,84.466194 127.175606,83.958885 125.841324,83.454735 
	C123.170578,82.445602 121.840042,83.296234 121.941162,86.968048 
	C120.229935,88.453064 118.584938,89.191376 116.618523,89.952789 
	C115.197342,89.983818 114.097580,89.991753 113.088379,89.774139 
	C113.112717,89.020775 113.046478,88.492950 112.990891,87.570419 
	C112.989731,86.124039 112.977905,85.072372 113.284454,83.879303 
	C114.399544,82.499290 115.196274,81.260689 115.993004,80.022079 
	C117.461586,78.995781 118.930168,77.969475 120.714783,76.946373 
	C121.348122,77.070457 121.602707,77.270981 121.548462,77.781723 
	C120.754349,78.680542 119.628510,79.803383 119.743706,79.949791 
	C121.999763,82.817230 123.738762,82.066566 125.008118,79.007217 
	C125.008118,79.007217 125.000854,79.000267 125.003525,79.005722 
	C126.620895,80.763268 128.235596,82.515350 129.846313,84.619751 
z"/>
<path fill="#211814" opacity="1.000000" stroke="none" 
	d="
M132.459198,92.010353 
	C132.085831,91.540596 132.022430,91.103973 131.873276,90.346893 
	C132.917328,90.002731 134.047119,89.979042 135.601471,89.956345 
	C134.940414,90.652733 133.854782,91.348114 132.459198,92.010353 
z"/>
<path fill="#968377" opacity="1.000000" stroke="none" 
	d="
M136.223297,85.198151 
	C135.744614,85.376610 135.265945,85.555077 134.787262,85.733543 
	C134.960358,85.462875 135.133453,85.192207 135.662766,84.968277 
	C136.018982,85.015015 136.223297,85.198151 136.223297,85.198151 
z"/>
<path fill="#968377" opacity="1.000000" stroke="none" 
	d="
M135.910812,84.126839 
	C136.097672,83.848557 136.274506,83.807007 136.722839,83.787888 
	C136.872330,84.151505 136.750290,84.492683 136.425781,85.016006 
	C136.223297,85.198151 136.018982,85.015015 135.915314,84.921997 
	C135.811630,84.828972 135.900803,84.363564 135.910812,84.126839 
z"/>
<path fill="#94725A" opacity="1.000000" stroke="none" 
	d="
M129.849426,88.705536 
	C129.820435,88.916763 129.490005,88.622444 129.490005,88.622444 
	C129.490005,88.622444 129.573929,88.218109 129.707611,88.143822 
	C129.841293,88.069534 129.878418,88.494316 129.849426,88.705536 
z"/>
<path fill="#725746" opacity="1.000000" stroke="none" 
	d="
M124.688126,78.978981 
	C123.738762,82.066566 121.999763,82.817230 119.743706,79.949791 
	C119.628510,79.803383 120.754349,78.680542 121.650513,78.005585 
	C122.788475,78.316154 123.578308,78.633453 124.688126,78.978981 
z"/>
<path fill="#7B5A44" opacity="1.000000" stroke="none" 
	d="
M115.644333,69.735031 
	C115.629829,69.989235 115.493469,70.128098 115.357101,70.266968 
	C115.412231,70.051208 115.467346,69.835449 115.644333,69.735031 
z"/>
<path fill="#926E51" opacity="1.000000" stroke="none" 
	d="
M47.646065,81.091095 
	C47.039310,81.715897 46.104610,82.300804 45.169914,82.885712 
	C45.344917,82.420311 45.519924,81.954910 45.845833,81.252853 
	C46.437199,81.027863 46.877659,81.039528 47.646065,81.091095 
z"/>
<path fill="#755342" opacity="1.000000" stroke="none" 
	d="
M126.938644,67.107475 
	C126.711380,66.281326 126.503990,65.437828 126.150177,64.294998 
	C126.315781,63.250755 126.627792,62.505833 127.332031,61.514294 
	C129.490005,61.236820 131.255768,61.205959 133.022522,61.524895 
	C134.365738,63.256927 135.707947,64.639160 137.050140,66.021400 
	C137.014923,66.499451 136.979691,66.977509 136.979523,68.018845 
	C137.014572,68.582123 137.003021,68.993744 137.003021,68.993744 
	C134.959671,69.008011 132.916306,69.022278 130.377045,68.609207 
	C128.900284,67.801918 127.919418,67.421974 126.938560,67.042038 
	C126.938560,67.042038 126.958511,67.090118 126.938644,67.107475 
z"/>
<path fill="#664937" opacity="1.000000" stroke="none" 
	d="
M137.122742,69.370544 
	C137.003021,68.993744 137.014572,68.582123 136.988342,68.378281 
	C140.705490,67.410973 144.448898,66.647514 148.588409,65.930771 
	C148.795822,67.290794 148.607101,68.604111 147.825867,70.277161 
	C146.157654,70.748543 145.081940,70.860184 144.006226,70.971832 
	C141.751648,70.563667 139.497055,70.155502 137.122742,69.370544 
z"/>
<path fill="#DAD1C7" opacity="1.000000" stroke="none" 
	d="
M144.048065,71.305374 
	C145.081940,70.860184 146.157654,70.748543 147.630814,70.549881 
	C148.060074,70.677780 148.091873,70.892715 148.184143,71.427505 
	C146.859695,71.711220 145.474808,71.675072 144.048065,71.305374 
z"/>
<path fill="#926E51" opacity="1.000000" stroke="none" 
	d="
M127.052933,67.314095 
	C127.919418,67.421974 128.900284,67.801918 129.947968,68.520935 
	C129.590820,68.900963 129.166855,68.941910 128.426559,69.027863 
	C127.795937,68.577286 127.481628,68.081718 127.052933,67.314095 
z"/>
<path fill="#E6DBD2" opacity="1.000000" stroke="none" 
	d="
M133.021515,61.175095 
	C131.255768,61.205959 129.490005,61.236820 127.373642,61.212654 
	C126.702118,60.960907 126.381218,60.764187 126.007675,60.284584 
	C126.244049,59.832901 126.533058,59.664101 126.914749,59.255493 
	C131.396484,58.357235 135.785538,57.698780 140.585144,57.044079 
	C141.050461,57.819038 141.105240,58.590244 140.677765,59.703018 
	C137.804169,60.421429 135.412842,60.798264 133.021515,61.175095 
z"/>
<path fill="#6D4B31" opacity="1.000000" stroke="none" 
	d="
M133.022522,61.524895 
	C135.412842,60.798264 137.804169,60.421429 140.609009,60.089260 
	C141.286041,60.395531 141.549561,60.657139 142.091705,60.988113 
	C140.841934,62.696285 139.313538,64.335091 137.417633,65.997650 
	C135.707947,64.639160 134.365738,63.256927 133.022522,61.524895 
z"/>
<path fill="#DAD1C7" opacity="1.000000" stroke="none" 
	d="
M110.278252,109.850853 
	C110.433830,109.026825 110.879875,108.067116 111.673866,107.066582 
	C111.537453,107.922226 111.053093,108.818695 110.278252,109.850853 
z"/>
<path fill="#9E785A" opacity="1.000000" stroke="none" 
	d="
M86.999084,90.999725 
	C86.915672,90.311371 86.501961,89.272217 86.801300,88.990387 
	C89.115837,86.811172 91.568260,84.778419 94.093475,82.114784 
	C94.409744,81.261780 94.669746,81.078125 95.347916,81.027298 
	C100.076836,82.572266 96.353889,85.657547 96.722137,88.058578 
	C94.603333,88.829865 92.804695,89.419090 90.655197,90.009750 
	C89.202583,90.340698 88.100830,90.670212 86.999084,90.999725 
z"/>
<path fill="#B28B68" opacity="1.000000" stroke="none" 
	d="
M86.850937,91.248199 
	C88.100830,90.670212 89.202583,90.340698 90.685745,90.354340 
	C91.378609,91.798706 91.690063,92.899925 91.863152,94.055069 
	C91.816124,94.072159 91.907478,94.035316 92.337662,94.033882 
	C93.451675,95.036339 94.226852,96.003380 95.002029,96.970428 
	C93.195122,97.626785 91.388214,98.283142 89.245903,98.967758 
	C88.905304,98.587982 88.900108,98.179955 88.922012,97.087616 
	C90.152977,92.334770 86.221031,94.238144 84.991188,92.999519 
	C85.561722,92.498573 86.132256,91.997627 86.850937,91.248199 
z"/>
<path fill="#9E785A" opacity="1.000000" stroke="none" 
	d="
M84.660477,92.999619 
	C86.221031,94.238144 90.152977,92.334770 88.905930,96.781891 
	C85.124802,96.939941 81.383675,96.755394 77.655434,96.425240 
	C77.380775,96.400917 77.199066,95.326942 76.968445,94.382584 
	C78.802742,93.873535 80.642723,93.722870 82.744812,93.286232 
	C83.447861,93.000084 83.888817,92.999901 84.660477,92.999619 
z"/>
<path fill="#85624A" opacity="1.000000" stroke="none" 
	d="
M94.988991,80.978294 
	C94.669746,81.078125 94.409744,81.261780 94.096336,81.742561 
	C93.657478,80.879807 93.331268,79.803757 93.001785,78.364624 
	C92.998512,78.001526 93.000000,78.000000 93.342758,78.052933 
	C94.120003,79.063339 94.554497,80.020813 94.988991,80.978294 
z"/>
<path fill="#9B7355" opacity="1.000000" stroke="none" 
	d="
M99.623055,75.995331 
	C101.711029,75.994476 103.427353,75.998634 105.572502,75.999649 
	C106.266594,76.490425 106.531853,76.984329 106.555298,77.791199 
	C105.882553,79.077660 105.451614,80.051170 104.857933,81.380478 
	C104.426018,83.547234 104.156837,85.358185 103.684311,87.326050 
	C103.311462,87.964249 103.141975,88.445526 102.729767,88.934174 
	C102.487045,88.941559 102.007034,89.015450 101.670166,89.015602 
	C100.884628,88.998199 100.435951,88.980637 99.944511,88.589951 
	C98.834412,84.176620 100.790001,79.422371 97.020821,76.020370 
	C97.764343,76.013695 98.507874,76.007011 99.623055,75.995331 
z"/>
<path fill="#8F6B4C" opacity="1.000000" stroke="none" 
	d="
M96.642441,76.014023 
	C100.790001,79.422371 98.834412,84.176620 99.625427,88.576851 
	C98.580170,88.583420 97.811234,88.229973 97.042297,87.876518 
	C96.353889,85.657547 100.076836,82.572266 95.347916,81.027298 
	C94.554497,80.020813 94.120003,79.063339 93.342117,78.053497 
	C94.087166,77.336662 95.175621,76.672173 96.642441,76.014023 
z"/>
<path fill="#8F6B4C" opacity="1.000000" stroke="none" 
	d="
M90.152084,71.316017 
	C90.752220,70.993683 91.486404,70.958672 92.585510,70.884605 
	C92.950432,71.923759 92.950432,73.001968 92.950432,74.938286 
	C91.685692,73.355186 90.985909,72.479263 90.152084,71.316017 
z"/>
<path fill="#9E785A" opacity="1.000000" stroke="none" 
	d="
M115.693039,79.880791 
	C115.196274,81.260689 114.399544,82.499290 112.930397,83.873894 
	C110.836853,83.008484 109.415718,82.007088 108.016502,80.686134 
	C108.361099,79.582146 108.683777,78.797722 109.006454,78.013290 
	C111.135330,78.588692 113.264206,79.164101 115.693039,79.880791 
z"/>
<path fill="#8F6B4C" opacity="1.000000" stroke="none" 
	d="
M108.673416,78.005707 
	C108.683777,78.797722 108.361099,79.582146 107.644608,80.685837 
	C106.507431,81.011620 105.764053,81.018143 105.020676,81.024673 
	C105.451614,80.051170 105.882553,79.077660 106.660950,78.051651 
	C107.452400,77.998810 107.896393,77.998459 108.673416,78.005707 
z"/>
<path fill="#8F6B4C" opacity="1.000000" stroke="none" 
	d="
M77.999649,87.999542 
	C78.098129,87.968376 78.196953,87.937675 78.148346,87.953888 
	C78.000916,88.000809 78.000000,88.000000 77.999649,87.999542 
z"/>
<path fill="#C99F7D" opacity="1.000000" stroke="none" 
	d="
M102.007034,89.015450 
	C102.007034,89.015450 102.487045,88.941559 102.851555,89.203674 
	C104.327698,89.221100 106.268265,88.519089 106.424171,88.801682 
	C108.200790,92.021912 110.754173,90.058517 112.997818,89.999695 
	C114.097580,89.991753 115.197342,89.983818 116.927414,90.122009 
	C118.032928,91.499199 118.508141,92.730255 118.983353,93.961304 
	C114.496849,95.596260 110.010330,97.231216 104.945526,99.076912 
	C104.660164,98.675987 103.945229,97.671501 103.128853,96.027756 
	C102.687294,93.264145 102.347168,91.139801 102.007034,89.015450 
z"/>
<path fill="#BD9573" opacity="1.000000" stroke="none" 
	d="
M101.670166,89.015602 
	C102.347168,91.139801 102.687294,93.264145 102.976959,95.742371 
	C102.528694,96.081139 102.130905,96.066025 101.169479,96.041733 
	C100.353455,96.229820 100.101074,96.427101 99.848694,96.624374 
	C100.224205,96.745743 100.599716,96.867104 100.975220,96.988464 
	C100.154984,100.634720 98.758453,97.708160 97.282166,97.171829 
	C96.542870,97.034172 96.102913,97.010704 95.332489,96.978836 
	C94.226852,96.003380 93.451675,95.036339 92.338249,94.034645 
	C92.000000,94.000000 92.001526,94.001137 92.001526,94.001137 
	C91.690063,92.899925 91.378609,91.798706 91.036606,90.352905 
	C92.804695,89.419090 94.603333,88.829865 96.722137,88.058578 
	C97.811234,88.229973 98.580170,88.583420 99.668198,88.949974 
	C100.435951,88.980637 100.884628,88.998199 101.670166,89.015602 
z"/>
<path fill="#BD9573" opacity="1.000000" stroke="none" 
	d="
M119.316849,93.979004 
	C118.508141,92.730255 118.032928,91.499199 117.248825,90.098907 
	C118.584938,89.191376 120.229935,88.453064 121.939133,87.363022 
	C123.382591,88.061050 124.761856,89.110802 126.551697,90.473045 
	C124.416718,91.963280 123.046906,92.919418 121.330956,93.922440 
	C120.539993,93.978439 120.095169,93.987572 119.316849,93.979004 
z"/>
<path fill="#C99F7D" opacity="1.000000" stroke="none" 
	d="
M101.008148,96.747955 
	C100.599716,96.867104 100.224205,96.745743 99.848694,96.624374 
	C100.101074,96.427101 100.353455,96.229820 100.870407,96.031815 
	C101.134979,96.031082 101.041084,96.507439 101.008148,96.747955 
z"/>
<path fill="#7B5A44" opacity="1.000000" stroke="none" 
	d="
M104.857941,81.380478 
	C105.764053,81.018143 106.507431,81.011620 107.622696,81.005386 
	C109.415718,82.007088 110.836853,83.008484 112.612030,84.015305 
	C112.977905,85.072372 112.989731,86.124039 112.572449,87.601883 
	C109.391449,87.741753 106.639557,87.455444 103.887665,87.169144 
	C104.156837,85.358185 104.426018,83.547234 104.857941,81.380478 
z"/>
<path fill="#BD9573" opacity="1.000000" stroke="none" 
	d="
M103.684311,87.326057 
	C106.639557,87.455444 109.391449,87.741753 112.561790,87.996597 
	C113.046478,88.492950 113.112717,89.020775 113.088379,89.774139 
	C110.754173,90.058517 108.200790,92.021912 106.424171,88.801682 
	C106.268265,88.519089 104.327698,89.221100 103.094276,89.196289 
	C103.141975,88.445526 103.311462,87.964249 103.684311,87.326057 
z"/>
<path fill="#BD9573" opacity="1.000000" stroke="none" 
	d="
M91.999413,93.999237 
	C91.907478,94.035316 91.816124,94.072159 91.863152,94.055069 
	C92.001526,94.001137 92.000000,94.000000 91.999413,93.999237 
z"/>
</svg>