<svg version="1.1" id="Layer_1" xmlns="http://www.w3.org/2000/svg" xmlns:xlink="http://www.w3.org/1999/xlink" x="0px" y="0px"
	 width="100%" viewBox="0 0 136 150" enable-background="new 0 0 136 150" xml:space="preserve">
<path fill="rgba(254,254,254,0)" opacity="1.000000" stroke="none" 
	d="
M73.000000,151.000000 
	C49.686634,151.000000 26.873131,150.964905 4.060104,151.052917 
	C1.713617,151.061951 0.919469,150.717743 0.925152,148.064972 
	C1.027896,100.107178 1.034354,52.149010 0.915013,4.191281 
	C0.907820,1.300720 1.649937,0.924338 4.303405,0.930386 
	C47.432102,1.028691 90.561142,1.028125 133.689850,0.931417 
	C136.329300,0.925499 137.093170,1.279470 137.085846,4.184536 
	C136.965149,52.142258 136.972702,100.100433 137.073700,148.058243 
	C137.079254,150.694183 136.309677,151.065872 133.946594,151.054672 
	C113.798096,150.959183 93.648949,151.000000 73.000000,151.000000 
z"/>
<path fill="#2A1811" opacity="1.000000" stroke="none" 
	d="
M85.677719,73.741348 
	C86.038536,74.110260 86.189903,74.212479 86.433037,74.572830 
	C86.207062,75.534843 85.613121,75.923836 84.600563,76.322571 
	C81.830521,76.503105 80.299583,74.324768 77.785690,73.820099 
	C77.151955,73.817894 77.153236,72.855919 76.849922,73.475487 
	C79.177177,74.585899 80.994926,76.170357 83.585114,76.996567 
	C84.129959,77.098198 84.345947,77.146019 84.871384,77.309471 
	C85.777390,77.701332 86.340248,78.036270 87.136490,78.609009 
	C88.108154,79.615143 88.669006,80.542664 89.619003,81.579414 
	C91.344658,84.310486 93.636337,86.183968 95.253036,88.978546 
	C97.279976,91.526894 98.879288,93.953751 99.834137,97.200905 
	C96.718658,98.649422 95.208061,96.170265 93.012337,94.355789 
	C90.287865,91.617699 88.327316,88.689461 85.937935,86.168144 
	C84.166809,84.299232 85.530838,87.102333 84.761955,87.456429 
	C84.436913,88.218422 84.146042,88.588303 83.486313,89.095673 
	C82.439743,89.465645 81.768539,89.266113 80.828957,88.727814 
	C78.733299,87.068352 77.434822,85.194092 76.039490,82.962669 
	C71.781677,79.073296 67.073845,76.165955 63.659508,71.357048 
	C63.301365,70.623337 63.168427,70.178238 63.074745,69.370667 
	C63.363991,65.191422 66.635246,66.657066 68.918610,65.694389 
	C69.572044,65.295341 69.986725,65.154633 70.751755,65.038101 
	C71.526039,65.033653 71.960968,65.100632 72.689758,65.340714 
	C74.021255,66.196472 75.081123,66.855408 76.728363,66.865242 
	C77.461777,66.953407 77.873077,67.044785 78.566711,67.294991 
	C79.731560,67.960922 80.464813,68.719208 81.721054,69.247612 
	C82.947647,69.914917 83.667854,70.673424 84.383873,71.864426 
	C84.646416,72.262962 84.768074,72.377068 84.948212,72.734444 
	C85.160538,73.143356 85.314392,73.309006 85.677719,73.741348 
z"/>
<path fill="#797065" opacity="1.000000" stroke="none" 
	d="
M56.348274,125.148575 
	C53.994911,125.633049 52.880459,123.248657 50.448170,123.452454 
	C49.272018,123.931541 48.537899,124.465996 47.278996,124.200745 
	C43.215725,121.722435 38.738400,123.903046 34.506958,122.000015 
	C32.796806,119.813416 34.473385,119.400612 35.793770,118.993561 
	C37.475410,118.475128 39.271038,118.698006 41.376663,118.424080 
	C41.990063,118.352448 42.232193,118.329498 42.831093,118.295486 
	C44.536640,118.423393 45.884396,118.354897 47.557579,118.272491 
	C49.090500,118.497955 49.878120,117.803993 50.916443,116.839882 
	C51.441135,116.650970 51.672901,116.640533 52.232670,116.756332 
	C57.102974,121.130356 62.434025,120.202721 68.132225,119.104080 
	C71.475525,118.409744 74.527618,118.827492 77.884232,118.325302 
	C79.189819,117.990860 80.147713,117.800972 81.454712,117.524139 
	C83.223892,117.387810 84.635941,117.607124 86.408875,117.537819 
	C91.244469,120.308418 96.003105,118.974480 101.074692,118.440712 
	C101.992317,118.330811 102.503754,118.452332 103.263359,119.011063 
	C104.058517,120.418259 104.038139,121.508896 103.203568,122.897278 
	C98.641869,122.431595 94.411789,123.217903 89.727341,123.462334 
	C88.703384,123.704422 88.106918,123.816795 87.038231,123.800812 
	C76.985657,122.961082 67.376877,123.283188 57.520813,123.769501 
	C57.122814,124.441910 56.897903,124.752380 56.348274,125.148575 
z"/>
<path fill="#382A29" opacity="1.000000" stroke="none" 
	d="
M51.947639,30.701714 
	C56.290104,35.570301 57.246574,42.468204 63.151375,46.236744 
	C63.392273,46.780743 63.480385,47.032543 63.420181,47.654381 
	C61.239914,49.327129 59.737331,48.017376 58.509693,46.774017 
	C55.467117,43.692486 52.141972,43.938618 48.563656,45.479607 
	C46.145668,46.520905 43.726223,47.619026 40.646358,46.657471 
	C38.693958,44.437984 42.128319,44.003040 41.501484,41.877884 
	C36.231224,41.350956 32.357605,38.457848 30.264973,32.896191 
	C30.173309,32.304787 30.159664,32.064064 30.196762,31.463564 
	C30.475668,30.375511 30.914885,29.837000 31.991713,29.529358 
	C32.873291,29.193708 33.028870,30.794260 33.989075,29.574255 
	C34.499187,29.300434 34.718914,29.221069 35.285156,29.086723 
	C40.401733,30.556494 41.257832,32.271938 39.364391,36.976723 
	C43.121994,35.610996 47.438519,35.693264 48.988125,30.944895 
	C49.266350,30.092340 50.655277,30.096806 51.947639,30.701714 
z"/>
<path fill="#211614" opacity="1.000000" stroke="none" 
	d="
M30.680693,31.886606 
	C33.329029,36.248360 35.348656,40.839355 41.507996,40.064110 
	C42.753590,39.907333 43.775188,40.355812 43.901718,41.888149 
	C44.106701,44.370556 42.106827,44.707600 40.307396,45.737545 
	C39.533268,47.085693 37.874336,47.264259 37.893841,49.095539 
	C38.056805,50.482307 38.125198,51.559513 38.060417,52.974323 
	C37.989822,53.524948 37.945095,53.743500 37.574287,54.543015 
	C37.047295,55.224037 36.846382,55.324097 36.310989,55.461655 
	C33.995071,55.464317 32.471569,54.800526 32.012947,52.302757 
	C31.382126,45.237064 26.921911,40.832443 22.309200,36.152084 
	C21.692308,35.590729 21.494297,35.170395 21.596375,34.318146 
	C22.564100,33.010960 23.795046,32.883938 25.261074,32.425564 
	C25.819113,32.252178 26.043699,32.189312 26.608278,32.049858 
	C28.086803,31.802977 29.218519,31.542786 30.680693,31.886606 
z"/>
<path fill="#574A48" opacity="1.000000" stroke="none" 
	d="
M52.201691,30.529936 
	C51.317505,31.124804 49.596283,31.324858 49.576977,31.631916 
	C49.235264,37.066978 44.707642,36.642914 41.278065,37.962208 
	C39.499680,38.646313 38.065109,38.272369 37.433933,37.033726 
	C36.411655,35.027576 39.146137,36.586826 39.206436,35.637810 
	C39.373993,33.000748 39.480896,30.279112 35.350716,30.006863 
	C34.000923,28.026230 34.278133,25.772358 33.763634,23.465378 
	C41.283772,22.230335 47.585930,23.952774 52.201691,30.529936 
z"/>
<path fill="#5C462E" opacity="1.000000" stroke="none" 
	d="
M62.788101,48.270630 
	C63.048141,47.795437 63.082588,47.538776 63.210598,46.905533 
	C70.215202,52.328148 77.328430,57.935177 82.013397,66.310562 
	C82.251137,66.817436 82.308144,67.035828 82.343521,67.592003 
	C82.014076,68.264267 81.643692,68.492531 80.870407,68.582848 
	C79.532036,68.274086 79.175560,66.887825 77.599731,66.961876 
	C77.064545,66.893921 76.849991,66.857407 76.323723,66.711899 
	C75.816628,66.497444 75.621254,66.391975 75.154388,66.090759 
	C72.206886,63.524281 69.925507,60.739731 66.853851,58.311234 
	C65.513275,57.368378 64.467224,56.580261 63.065933,55.723969 
	C62.440517,55.263557 62.128872,54.948841 61.680370,54.313919 
	C61.377132,53.602356 61.307743,53.169491 61.370773,52.404881 
	C61.683437,51.284798 62.037392,50.514145 62.238075,49.368385 
	C62.389080,48.870365 62.475792,48.679768 62.788101,48.270630 
z"/>
<path fill="#844C11" opacity="1.000000" stroke="none" 
	d="
M97.366005,114.193436 
	C95.956001,114.150337 94.917007,114.159218 93.490219,114.209915 
	C91.961655,113.915382 90.927208,113.382149 89.786804,112.328102 
	C89.423706,111.852394 89.304901,111.641380 89.055740,111.089355 
	C88.552956,109.320618 88.175270,107.894104 87.897751,106.058266 
	C88.103836,103.086609 88.324905,100.482590 91.493088,99.082428 
	C92.351494,98.937706 92.843941,98.928146 93.686394,99.037354 
	C94.253738,99.179153 94.471748,99.257477 94.982918,99.510872 
	C96.249298,100.565063 97.122719,101.525185 97.852921,102.989594 
	C98.128563,103.653999 98.267784,104.036804 98.488739,104.705666 
	C98.660561,105.367897 98.701309,105.751450 98.649704,106.410805 
	C98.129066,107.743736 99.112457,107.659767 99.837921,108.176270 
	C100.949745,109.607704 101.163139,110.924164 100.506058,112.668907 
	C99.718140,113.931564 98.681641,113.993759 97.366005,114.193436 
z"/>
<path fill="#C64603" opacity="1.000000" stroke="none" 
	d="
M32.145035,65.214340 
	C31.845526,62.918919 31.778666,60.865559 31.859932,58.394066 
	C32.701767,57.407516 33.486820,57.199532 34.747379,57.550735 
	C36.799816,60.010906 36.708675,62.796612 37.330963,65.765335 
	C37.717579,69.969856 39.223015,72.806931 43.820774,73.443596 
	C45.335911,74.661636 46.156963,75.908546 46.145569,77.885361 
	C42.463272,80.524628 39.252586,77.115005 35.464767,77.530167 
	C34.248199,76.759460 34.050854,75.786705 33.761356,74.475319 
	C33.640972,73.897987 33.594856,73.668144 33.470127,73.099121 
	C33.332203,72.537262 33.272892,72.314598 33.145416,71.755051 
	C32.668339,69.451530 33.484451,67.341148 32.145035,65.214340 
z"/>
<path fill="#916D38" opacity="1.000000" stroke="none" 
	d="
M102.917511,123.417984 
	C102.957222,122.080048 103.015457,120.960022 103.084305,119.419617 
	C103.280006,118.816559 103.465073,118.633896 104.009872,118.303070 
	C105.647636,117.971077 106.926003,117.993401 108.564575,118.257957 
	C110.169037,119.143799 111.534531,119.703438 112.980911,120.802780 
	C113.199745,121.095444 113.054916,121.544289 112.980865,121.768173 
	C112.502968,122.518150 112.085190,123.030945 111.281708,123.618965 
	C108.025826,127.084518 112.205048,128.556320 112.909103,131.239105 
	C113.183594,133.339630 114.532043,134.714569 114.706558,136.826447 
	C114.583321,137.374161 114.493446,137.583847 114.144135,138.019592 
	C112.441833,138.392395 111.869141,137.390594 111.258293,135.988129 
	C110.947098,135.183502 110.724121,134.713455 110.274574,134.110153 
	C108.894218,133.008713 107.993027,131.849976 107.252449,130.178772 
	C107.108658,129.895950 107.053734,130.003433 107.087860,129.950348 
	C105.200081,128.589783 104.293083,126.582001 103.199005,124.308395 
	C102.969200,124.072037 102.936020,123.635902 102.917511,123.417984 
z"/>
<path fill="#8E6329" opacity="1.000000" stroke="none" 
	d="
M63.391151,105.067749 
	C54.524101,101.307083 47.631027,95.672401 42.192909,87.758560 
	C42.119698,87.200058 42.172600,86.981827 42.537041,86.630463 
	C44.394886,86.403145 45.352066,87.435249 46.616249,88.590012 
	C51.112644,92.988991 54.662663,98.033348 61.124466,99.926659 
	C62.834507,100.564323 64.301376,100.922501 65.361435,102.553551 
	C65.454460,104.080254 64.833649,104.790283 63.391151,105.067749 
z"/>
<path fill="#241D1D" opacity="1.000000" stroke="none" 
	d="
M33.573814,23.155338 
	C35.133865,25.135290 36.006214,27.138777 35.098190,29.740856 
	C34.787907,30.010715 34.607052,30.017715 34.156078,30.051973 
	C33.885963,30.079231 33.505917,30.372379 33.313629,30.228786 
	C32.529724,30.206528 31.938107,30.327864 31.153923,30.691837 
	C30.410175,31.508492 29.682953,31.709612 28.567654,31.921719 
	C27.433073,31.978724 26.676306,31.964819 25.555418,31.785513 
	C23.718107,30.667948 22.094872,29.723911 23.449636,27.189171 
	C26.532925,24.831440 29.987736,24.282463 33.573814,23.155338 
z"/>
<path fill="#966821" opacity="1.000000" stroke="none" 
	d="
M114.204376,138.255753 
	C114.618118,135.682480 111.819229,134.797165 112.003563,132.369659 
	C114.290077,130.031067 116.092545,131.731491 118.273018,132.893433 
	C118.965469,133.069122 119.366119,133.137222 120.066925,133.237000 
	C120.557312,133.336258 120.749603,133.391739 121.209984,133.578857 
	C121.637001,133.828293 121.795929,133.946091 122.140717,134.292297 
	C122.437958,134.681290 122.549347,134.841888 122.687103,135.294495 
	C122.690720,135.922714 122.752563,136.242599 122.922104,136.791306 
	C122.919006,138.184143 123.251808,139.324951 122.995407,140.478180 
	C122.692307,141.841446 122.056023,142.962952 120.647827,143.395401 
	C119.163956,143.851074 118.068581,143.102051 117.261971,141.974670 
	C116.394470,140.762177 115.422791,139.656937 114.204376,138.255753 
z"/>
<path fill="#C4C4C8" opacity="1.000000" stroke="none" 
	d="
M23.298283,26.896381 
	C22.312952,28.523176 23.703024,29.438974 24.819567,30.722645 
	C25.430161,31.408640 25.870989,31.826241 26.081848,32.723564 
	C25.407789,35.091385 23.892883,33.773098 22.320755,33.749271 
	C20.250330,34.525368 18.901621,33.035873 17.011234,33.006897 
	C15.547473,33.053288 14.447906,32.782093 13.077608,32.941071 
	C11.410141,32.976593 9.862613,33.443501 8.256486,32.003628 
	C13.082182,29.653629 18.043425,28.389725 23.298283,26.896381 
z"/>
<path fill="#4E3620" opacity="1.000000" stroke="none" 
	d="
M97.160934,104.149643 
	C96.330872,102.883827 95.686905,101.776299 95.019066,100.337494 
	C98.183372,98.064789 99.412628,101.096962 101.546417,102.762321 
	C103.988037,105.328743 103.722893,108.542320 104.816254,111.257133 
	C105.957817,114.091621 102.934647,112.710266 101.522461,113.605469 
	C100.889000,113.732063 100.663933,113.692070 100.200989,113.405128 
	C99.990067,111.657715 100.164597,110.133926 99.103989,108.444458 
	C98.716385,107.835976 98.449127,107.617996 98.030151,107.210800 
	C97.910248,106.562119 97.902534,106.150078 97.889084,105.429001 
	C97.753410,104.817039 97.574646,104.546364 97.160934,104.149643 
z"/>
<path fill="#92764F" opacity="1.000000" stroke="none" 
	d="
M113.955780,138.003174 
	C115.029343,138.100357 115.942390,138.428619 116.549294,139.317429 
	C117.537773,140.765060 118.183807,143.095337 120.350708,142.595123 
	C122.925819,142.000656 121.500877,139.152222 122.675850,137.275635 
	C124.787331,138.232452 125.431511,140.292770 126.392448,142.069778 
	C127.199669,143.562546 127.072899,144.979843 124.337715,144.678711 
	C123.824219,145.120407 123.566772,145.445526 122.893738,145.758514 
	C118.434456,146.201981 116.798386,142.935974 114.423500,140.163010 
	C113.737679,139.759033 113.521492,139.418716 113.606857,138.642471 
	C113.721512,138.333008 113.871628,138.108688 113.955780,138.003174 
z"/>
<path fill="#8A5A38" opacity="1.000000" stroke="none" 
	d="
M42.469769,86.500916 
	C42.273411,86.803398 42.165852,87.110168 42.116325,87.264236 
	C35.175312,83.489693 32.221863,77.275864 31.866920,69.335846 
	C34.155720,68.742889 33.180801,70.521538 33.778984,71.689163 
	C34.001930,71.973206 34.001808,71.998154 34.013550,72.002335 
	C34.184139,72.177490 34.342991,72.348473 34.720230,72.793060 
	C35.000137,74.096001 35.061657,75.125336 35.187843,76.535812 
	C37.923046,78.739914 40.298141,80.879883 42.433781,83.769104 
	C42.836132,84.781616 42.859997,85.486610 42.469769,86.500916 
z"/>
<path fill="#A8A39F" opacity="1.000000" stroke="none" 
	d="
M100.934402,118.309669 
	C96.142975,119.862106 91.276779,122.759491 86.292076,118.063751 
	C84.903717,117.397034 84.327164,116.426178 83.584717,115.169434 
	C83.142151,113.667923 83.538795,112.592178 84.127022,111.207474 
	C84.593513,110.263794 84.982323,109.681847 85.737709,108.944046 
	C86.260269,108.718132 86.497101,108.703072 87.038811,108.873711 
	C87.613129,109.445587 87.823090,109.860992 88.028656,110.645752 
	C88.436203,112.353851 87.623436,113.950760 89.179047,115.275650 
	C90.515869,116.055664 91.348465,117.045700 92.829308,117.626831 
	C95.081711,117.783371 97.064522,117.777931 99.463127,117.686867 
	C100.302094,117.535133 100.644653,117.671524 100.934402,118.309669 
z"/>
<path fill="#BEB2AA" opacity="1.000000" stroke="none" 
	d="
M43.215969,118.707581 
	C40.501579,121.606247 36.603146,118.179085 34.174973,121.469627 
	C31.623655,120.977730 32.373249,119.762306 33.572113,118.186218 
	C36.039036,114.943085 39.533474,115.004242 43.445404,114.891479 
	C44.788490,116.168182 44.241234,117.306839 43.215969,118.707581 
z"/>
<path fill="#615049" opacity="1.000000" stroke="none" 
	d="
M101.873032,102.716232 
	C98.847305,103.877380 98.292168,99.926697 95.359535,99.998642 
	C94.995193,100.006218 94.999886,100.000191 94.997055,100.002602 
	C94.724007,99.702972 94.419579,99.440041 93.809082,99.078552 
	C93.350182,98.848648 93.168190,98.750610 92.738609,98.460373 
	C92.342415,98.118279 92.193810,97.968391 91.851501,97.563568 
	C91.560440,97.116325 91.463074,96.924004 91.273811,96.419266 
	C91.069672,95.450737 91.090683,94.797676 91.343857,93.836205 
	C91.715363,93.152313 92.045723,92.871445 92.771713,92.820961 
	C95.282135,94.121567 96.350807,96.860840 99.462982,97.467117 
	C101.245888,98.907051 101.567131,100.662025 101.873032,102.716232 
z"/>
<path fill="#CCA24F" opacity="1.000000" stroke="none" 
	d="
M121.121506,133.772156 
	C120.481598,134.059021 120.085716,134.030914 119.396011,133.946259 
	C115.590424,131.029144 112.419899,127.890976 110.878510,123.254082 
	C111.487450,122.643723 111.922722,122.347893 112.632401,122.022064 
	C116.374039,124.429504 117.609215,128.627090 120.680870,131.797607 
	C121.345535,132.419937 121.496933,132.893341 121.121506,133.772156 
z"/>
<path fill="#877E77" opacity="1.000000" stroke="none" 
	d="
M95.411865,88.935654 
	C92.495216,87.816132 90.955124,85.139549 89.112686,82.304153 
	C88.964989,81.171867 89.172546,80.414322 90.139481,79.725128 
	C93.627304,81.835274 94.965576,84.973679 95.411865,88.935654 
z"/>
<path fill="#736B6C" opacity="1.000000" stroke="none" 
	d="
M43.211853,118.995125 
	C42.774544,117.755295 43.088676,116.627731 43.791080,115.220093 
	C44.915810,113.527603 46.414406,113.128731 48.338573,112.893524 
	C49.559162,112.414688 50.061016,112.861717 50.479240,113.981613 
	C50.375858,115.397179 49.639133,116.067757 48.720329,117.031578 
	C47.275894,118.010666 45.969265,118.469063 44.325058,118.968079 
	C43.811539,118.997795 43.640198,118.997406 43.211853,118.995125 
z"/>
<path fill="#493B2E" opacity="1.000000" stroke="none" 
	d="
M62.875835,105.275078 
	C63.591900,104.527977 64.165352,104.077866 64.870590,103.383232 
	C65.309380,102.683136 65.738235,102.451447 66.665848,102.523567 
	C67.748352,103.034477 68.178955,103.655441 68.313980,104.845512 
	C66.449944,108.108307 63.718632,109.402313 60.060390,109.662674 
	C59.187309,109.332275 58.835266,108.962074 58.730217,108.082932 
	C60.136986,106.994331 61.435104,106.283195 62.875835,105.275078 
z"/>
<path fill="#3B3431" opacity="1.000000" stroke="none" 
	d="
M90.416695,79.363235 
	C90.203041,80.299721 89.867508,80.931381 89.249695,81.782776 
	C88.344284,81.360947 87.721169,80.719383 87.053635,79.804352 
	C86.768288,78.838379 86.258041,78.489662 85.270126,78.216324 
	C84.987457,78.042793 85.011604,78.003685 85.010132,78.027039 
	C84.587479,77.603165 84.140114,77.173515 83.987030,76.232346 
	C84.589211,75.587181 85.199669,75.250450 86.167473,74.872345 
	C87.781479,76.240120 89.038147,77.649269 90.416695,79.363235 
z"/>
<path fill="#5A5657" opacity="1.000000" stroke="none" 
	d="
M58.506500,107.801788 
	C59.141308,108.090347 59.443741,108.475227 60.062157,109.055092 
	C59.523773,111.707710 56.782185,112.233192 55.053841,114.306427 
	C54.225029,114.597351 53.731758,114.567307 52.955360,114.147232 
	C52.445030,113.414314 52.397182,112.914497 52.698776,112.055832 
	C54.007870,109.559372 56.448170,109.224533 58.506500,107.801788 
z"/>
<path fill="#A8A39F" opacity="1.000000" stroke="none" 
	d="
M111.798088,116.383148 
	C114.142418,116.091812 116.266174,116.140892 118.720520,116.394699 
	C119.390495,117.057503 119.569176,117.571434 119.471153,118.540329 
	C118.736420,119.538391 117.990883,119.853081 116.726807,119.941940 
	C114.906776,119.991127 113.588379,119.706589 112.132843,118.574707 
	C111.562012,117.801086 111.475662,117.277763 111.798088,116.383148 
z"/>
<path fill="#797065" opacity="1.000000" stroke="none" 
	d="
M111.496460,117.549011 
	C112.926659,118.054436 114.072372,118.412910 115.573578,118.826767 
	C116.326599,119.155693 116.484245,119.537033 116.242020,120.285606 
	C115.344284,120.742157 114.640694,120.923912 113.568420,121.100555 
	C111.811600,120.767120 110.077362,121.579727 109.023613,119.494614 
	C108.977158,118.697845 109.150642,118.319511 109.706116,117.818306 
	C110.366127,117.453262 110.779045,117.377037 111.496460,117.549011 
z"/>
<path fill="#8A5A38" opacity="1.000000" stroke="none" 
	d="
M31.827936,52.225147 
	C33.299805,52.721195 33.246853,55.188568 35.659512,54.932751 
	C35.600315,57.358829 34.132580,56.832932 32.405602,56.202118 
	C31.939075,54.780991 31.805506,53.630070 31.827936,52.225147 
z"/>
<path fill="#F2EEE5" opacity="1.000000" stroke="none" 
	d="
M102.970818,124.439621 
	C104.981995,125.273659 105.857704,127.377319 107.089310,129.560913 
	C103.800247,129.780945 103.559769,127.152687 102.970818,124.439621 
z"/>
<path fill="#828488" opacity="1.000000" stroke="none" 
	d="
M16.924368,32.417191 
	C18.648920,32.520016 20.077423,32.857605 21.716537,33.424469 
	C21.959204,34.159924 21.991255,34.666111 22.039383,35.554886 
	C20.582268,35.364769 19.109076,34.792072 17.305979,34.128143 
	C16.606806,33.638874 16.490885,33.177223 16.924368,32.417191 
z"/>
<path fill="#A8A39F" opacity="1.000000" stroke="none" 
	d="
M110.163773,117.424850 
	C109.824989,118.064156 109.626648,118.412361 109.181465,118.947083 
	C107.465561,119.067902 105.996490,119.002213 104.114403,118.775177 
	C103.528687,118.237190 103.503075,117.848351 103.801437,117.220245 
	C105.718819,116.904861 107.439613,116.818199 109.581558,116.646729 
	C110.103210,116.752533 110.203705,116.943138 110.163773,117.424850 
z"/>
<path fill="#645F60" opacity="1.000000" stroke="none" 
	d="
M52.501770,111.760208 
	C52.915775,112.251312 52.953430,112.789223 53.008244,113.731239 
	C53.462059,115.112457 53.043423,115.894989 52.156425,116.804688 
	C51.857090,116.970322 51.468472,116.973488 51.274155,116.972244 
	C50.477081,116.672058 50.177971,116.151108 50.026115,115.214279 
	C49.772877,114.325699 49.516205,113.747841 48.968559,113.022095 
	C49.533134,111.569496 50.954857,112.093994 52.501770,111.760208 
z"/>
<path fill="#635D53" opacity="1.000000" stroke="none" 
	d="
M116.446388,120.631729 
	C116.029411,120.187889 116.010941,119.815353 115.960770,119.162476 
	C116.618904,118.802628 117.308739,118.723122 118.338318,118.576355 
	C119.359489,118.372009 119.968010,118.041306 120.923859,117.651215 
	C121.688782,117.358032 122.140656,117.343918 122.919724,117.588501 
	C123.105843,122.996880 118.808586,119.347748 116.446388,120.631729 
z"/>
<path fill="#E3DFD9" opacity="1.000000" stroke="none" 
	d="
M103.789238,116.731567 
	C103.938293,117.354355 103.878548,117.717186 103.760094,118.346924 
	C103.701378,118.613838 103.382721,118.784119 103.238831,118.891678 
	C102.622948,118.905174 102.150963,118.811119 101.320580,118.663040 
	C100.828529,118.285049 100.601189,118.052567 100.079544,117.756393 
	C100.622696,115.618851 102.023224,115.788513 103.789238,116.731567 
z"/>
<path fill="#B04818" opacity="1.000000" stroke="none" 
	d="
M31.951868,56.263844 
	C33.184513,55.816814 34.296375,55.701714 35.616306,55.341354 
	C35.824371,55.096100 36.215191,54.850868 36.443600,54.818504 
	C37.189289,55.021122 37.483528,55.420883 37.517776,56.378136 
	C37.141937,57.555748 36.537292,58.015293 35.344650,58.112724 
	C34.225330,58.000713 33.486088,57.999508 32.377453,57.987114 
	C31.949070,57.515873 31.890079,57.055820 31.951868,56.263844 
z"/>
<path fill="#B04818" opacity="1.000000" stroke="none" 
	d="
M34.008148,71.568604 
	C33.501968,71.111603 33.002010,70.250000 32.246819,69.216805 
	C31.881037,67.951698 31.770493,66.858185 31.786167,65.368469 
	C34.827946,66.284264 33.767910,68.945900 34.008148,71.568604 
z"/>
<path fill="#665B4B" opacity="1.000000" stroke="none" 
	d="
M81.781662,68.387344 
	C82.028313,67.839706 82.051369,67.590408 82.134277,66.970070 
	C83.670219,67.885796 84.240898,69.610977 84.537094,71.805969 
	C83.386703,72.169205 82.843925,71.298164 82.075798,70.321747 
	C81.636162,69.652733 81.493103,69.199776 81.781662,68.387344 
z"/>
<path fill="#F2EEE5" opacity="1.000000" stroke="none" 
	d="
M113.457756,138.162308 
	C113.845306,138.687012 113.969101,139.041031 114.131302,139.674179 
	C111.479210,140.283661 110.782249,138.829941 111.121353,136.073090 
	C111.844719,136.432907 112.519363,137.212250 113.457756,138.162308 
z"/>
<path fill="#F2EEE5" opacity="1.000000" stroke="none" 
	d="
M107.064743,130.268158 
	C108.513168,130.663971 109.211929,132.017914 110.004135,133.653809 
	C107.891014,133.906219 107.000107,132.686829 107.064743,130.268158 
z"/>
<path fill="#F2EEE5" opacity="1.000000" stroke="none" 
	d="
M47.039093,124.405334 
	C47.837646,123.792992 48.695312,123.530846 49.796696,123.382545 
	C49.768040,125.571358 49.225151,127.014191 47.039093,124.405334 
z"/>
<path fill="#E3DFD9" opacity="1.000000" stroke="none" 
	d="
M93.040756,117.508492 
	C91.507843,118.395111 90.372940,117.849564 89.337090,116.169685 
	C88.868484,115.496895 88.954849,115.111511 89.612892,114.666107 
	C90.147797,114.595039 90.367126,114.632103 90.809578,114.917236 
	C91.682671,115.852928 92.332634,116.540550 93.040756,117.508492 
z"/>
<path fill="#674D2F" opacity="1.000000" stroke="none" 
	d="
M91.334442,115.120102 
	C91.032707,115.165306 90.633415,114.952293 90.410324,114.914459 
	C89.347618,114.260979 89.330627,113.450668 89.967102,112.279541 
	C91.466446,112.059853 92.288414,112.667267 92.984596,113.952316 
	C92.613678,114.526123 92.124924,114.800507 91.334442,115.120102 
z"/>
<path fill="#ADB1B7" opacity="1.000000" stroke="none" 
	d="
M16.819046,32.115944 
	C17.147039,32.591713 17.073660,33.001007 16.988176,33.723606 
	C15.817612,33.831989 14.659151,33.627064 13.162444,33.291225 
	C13.708265,31.775053 15.082589,31.975727 16.819046,32.115944 
z"/>
<path fill="#BEB9B2" opacity="1.000000" stroke="none" 
	d="
M86.621552,124.064331 
	C87.177971,123.583450 87.773201,123.405663 88.825775,123.365547 
	C88.762360,124.675682 88.241600,125.848145 87.444740,127.642227 
	C87.110123,126.245193 86.885239,125.306305 86.621552,124.064331 
z"/>
<path fill="#ECDBC4" opacity="1.000000" stroke="none" 
	d="
M99.680122,113.306335 
	C100.161537,113.248001 100.359978,113.337822 100.836243,113.599854 
	C100.175873,115.384087 98.815414,115.130508 97.195190,114.377625 
	C97.795715,113.912468 98.596428,113.683472 99.680122,113.306335 
z"/>
<path fill="#E3DFD9" opacity="1.000000" stroke="none" 
	d="
M110.316696,117.744202 
	C110.033707,117.524025 110.044083,117.332100 110.028595,116.851059 
	C110.201630,115.564957 110.607979,114.940140 111.874313,115.820938 
	C111.965935,116.411301 111.913208,116.779869 111.820709,117.422195 
	C111.390648,117.721458 111.000359,117.746956 110.316696,117.744202 
z"/>
<path fill="#F2EEE5" opacity="1.000000" stroke="none" 
	d="
M120.905472,134.072739 
	C120.880127,133.631989 120.882782,133.176819 120.898361,132.379333 
	C122.735519,132.111984 123.064911,133.264175 122.801010,135.183655 
	C122.532921,135.535355 122.352364,135.484238 121.930511,135.288193 
	C121.801605,134.779800 121.688530,134.511246 121.138672,134.229004 
	C120.927376,134.120392 120.933464,134.058334 120.905472,134.072739 
z"/>
<path fill="#A8A39F" opacity="1.000000" stroke="none" 
	d="
M123.236595,117.429886 
	C122.748489,117.807938 122.255867,117.895401 121.386353,117.971161 
	C120.824806,117.733971 120.640160,117.508499 120.703583,116.923096 
	C121.973793,115.718216 122.680397,116.122162 123.236595,117.429886 
z"/>
<path fill="#F2EEE5" opacity="1.000000" stroke="none" 
	d="
M56.256592,125.458893 
	C56.312550,124.970940 56.536613,124.661667 57.016350,124.215157 
	C58.185970,125.247765 58.059978,125.852646 56.256592,125.458893 
z"/>
<path fill="#867B71" opacity="1.000000" stroke="none" 
	d="
M120.634743,116.561569 
	C120.957809,116.796097 120.963959,117.029053 120.989784,117.610733 
	C120.619698,118.591469 120.059975,118.870567 118.998581,118.641350 
	C118.783798,118.090919 118.889534,117.672729 119.023186,116.926979 
	C119.473351,116.586273 119.895592,116.573128 120.634743,116.561569 
z"/>
<path fill="#3B3431" opacity="1.000000" stroke="none" 
	d="
M85.874283,73.745316 
	C85.618439,73.830475 85.349709,73.652908 85.043823,73.226532 
	C85.291580,73.146004 85.576492,73.314293 85.874283,73.745316 
z"/>
<path fill="#F2EEE5" opacity="1.000000" stroke="none" 
	d="
M122.903610,145.777435 
	C122.829834,145.480942 123.077362,145.133026 123.651169,144.748932 
	C123.726601,145.050522 123.475754,145.388275 122.903610,145.777435 
z"/>
<path fill="#BB5802" opacity="1.000000" stroke="none" 
	d="
M76.278351,81.919731 
	C77.889687,83.939972 79.297554,85.654678 80.879562,87.650253 
	C81.841423,89.408379 82.592400,90.922791 84.783020,91.351547 
	C85.758270,91.520592 86.357536,91.781662 87.178482,92.355728 
	C87.753471,92.904778 88.005478,93.282158 88.269409,94.034958 
	C88.075294,95.596947 87.204941,96.392769 86.073761,97.416725 
	C85.330025,97.821953 84.867554,97.975609 84.023697,98.157768 
	C82.388817,98.328560 81.130966,98.482300 79.530159,98.995544 
	C75.823021,99.616364 72.485847,99.405533 68.728088,99.366394 
	C66.847160,99.292648 65.477859,98.957726 64.000687,97.750099 
	C63.060520,96.514534 62.892372,95.453201 62.927032,93.972198 
	C63.422638,91.586121 64.597031,90.432175 66.743759,90.379478 
	C67.849709,90.352333 69.296410,90.787628 69.773537,89.408203 
	C70.266754,87.982307 69.111107,86.951996 68.236595,85.977715 
	C66.612099,84.167931 64.138596,83.087143 63.515450,80.071381 
	C63.983482,78.359604 65.166664,77.940842 66.703979,77.422714 
	C70.698296,77.440239 72.357712,81.693382 76.278351,81.919731 
z"/>
<path fill="#DFB921" opacity="1.000000" stroke="none" 
	d="
M66.617477,57.285126 
	C70.441277,59.348263 73.002113,62.546307 75.985397,65.661194 
	C75.367386,66.706383 74.547447,66.875534 73.208557,66.605347 
	C72.440155,66.311104 72.093445,66.131966 71.475723,65.841751 
	C70.839737,65.660736 70.476166,65.584198 69.831131,65.483109 
	C69.359749,65.433266 69.170982,65.402473 68.712639,65.266296 
	C68.101654,64.965942 67.761520,64.768768 67.147446,64.439095 
	C65.912842,63.872765 64.908447,63.518467 63.897667,62.536694 
	C63.596298,62.082184 63.508148,61.879433 63.374413,61.346966 
	C63.353081,60.103298 63.698566,59.293106 64.331299,58.247009 
	C65.026405,57.509296 65.623055,57.312012 66.617477,57.285126 
z"/>
<path fill="#634229" opacity="1.000000" stroke="none" 
	d="
M63.580254,61.753967 
	C65.158897,62.451744 66.362747,62.911797 67.819290,63.570972 
	C68.211479,64.098396 68.402267,64.392693 68.914825,64.691330 
	C69.176468,64.735512 69.311081,64.627663 69.392761,64.655357 
	C69.499069,64.900787 69.523697,65.118530 69.284309,65.532051 
	C69.257385,66.482140 69.494469,67.236443 69.794205,68.190063 
	C67.714012,68.149963 65.577881,65.284508 63.762733,68.797165 
	C62.871452,69.703674 62.068184,69.698586 60.914703,69.037048 
	C59.919086,67.745102 59.770161,66.602013 59.752838,64.989349 
	C60.118500,62.632336 60.759254,61.052929 63.580254,61.753967 
z"/>
<path fill="#574A48" opacity="1.000000" stroke="none" 
	d="
M92.913979,92.654816 
	C92.780830,93.172798 92.482109,93.400536 92.055054,93.881653 
	C91.421013,94.612778 91.503754,95.296654 91.063293,96.083138 
	C89.838371,96.341537 89.230240,95.806053 88.698074,94.723083 
	C88.733917,93.214516 87.909767,92.588715 86.848480,91.761284 
	C85.649979,90.690132 84.692505,89.819496 84.097778,88.283218 
	C84.044304,86.315399 84.044304,84.668907 84.044304,82.132317 
	C87.282631,85.939186 90.015518,89.151878 92.913979,92.654816 
z"/>
<path fill="#8D4606" opacity="1.000000" stroke="none" 
	d="
M76.462944,81.895935 
	C72.539795,83.013863 70.227043,80.301292 67.305664,78.100082 
	C64.224754,77.086578 63.732914,74.733292 63.702690,71.642303 
	C68.149841,74.524437 72.296959,78.045517 76.462944,81.895935 
z"/>
<path fill="#A9A299" opacity="1.000000" stroke="none" 
	d="
M83.647301,75.838791 
	C84.353172,76.422409 84.727585,76.920906 85.055328,77.734894 
	C80.714233,79.128494 78.948387,75.043846 75.659798,73.304192 
	C75.685371,72.880714 75.946663,72.740059 76.610123,72.790146 
	C79.365265,73.332741 81.711891,73.699020 83.647301,75.838791 
z"/>
<path fill="#8D4606" opacity="1.000000" stroke="none" 
	d="
M85.200363,91.878510 
	C81.816025,93.136581 81.437691,90.857155 81.022614,88.292755 
	C81.540901,88.146622 82.028099,88.362114 82.768211,88.665527 
	C84.305229,89.258934 85.203354,90.091461 85.200363,91.878510 
z"/>
<path fill="#53290D" opacity="1.000000" stroke="none" 
	d="
M85.280197,92.304100 
	C84.423065,91.280830 83.824318,90.340843 83.123352,89.077148 
	C83.148582,88.472435 83.350777,88.263786 83.835999,88.044701 
	C84.964561,88.764954 85.884819,89.568001 86.958832,90.638763 
	C87.401878,91.415756 87.514763,91.961548 87.197952,92.887085 
	C86.475906,92.949364 86.007240,92.668373 85.280197,92.304100 
z"/>
<path fill="#7A5013" opacity="1.000000" stroke="none" 
	d="
M72.940704,66.801262 
	C73.598564,66.382523 74.410271,66.274796 75.624313,66.084335 
	C76.026649,66.001602 75.985619,66.003998 75.986221,65.983025 
	C76.261482,66.234116 76.578255,66.443886 77.140083,66.799332 
	C77.378677,67.188431 77.408279,67.378510 77.256187,67.792755 
	C75.663750,68.085350 74.196358,68.403008 72.940704,66.801262 
z"/>
<path fill="#CCA24F" opacity="1.000000" stroke="none" 
	d="
M77.339134,68.089905 
	C77.066101,67.845955 77.057709,67.674995 77.027893,67.248184 
	C76.880219,66.796753 76.753967,66.601181 76.868279,66.152512 
	C78.421898,65.717545 79.589912,65.854851 80.307770,67.632156 
	C80.173317,68.146881 79.899361,68.319160 79.139969,68.490479 
	C78.304283,68.380646 77.954025,68.271767 77.339134,68.089905 
z"/>
<path fill="#836A2D" opacity="1.000000" stroke="none" 
	d="
M78.768448,68.809677 
	C78.949631,68.393738 79.244720,68.297958 79.993546,68.088394 
	C80.792564,67.996353 81.137863,68.018089 81.744202,68.064423 
	C81.996872,68.524513 81.988503,68.960022 81.969971,69.724068 
	C80.861755,69.985954 79.638046,70.338333 78.768448,68.809677 
z"/>
<path fill="#AD4607" opacity="1.000000" stroke="none" 
	d="
M60.918049,69.014153 
	C61.799122,68.916420 62.414837,68.998474 63.331219,69.110886 
	C63.732437,69.551407 63.832985,69.961571 63.968132,70.687546 
	C64.002731,71.003357 63.787350,71.071655 63.687916,71.125290 
	C63.073566,71.646141 62.457779,71.743729 61.489456,71.562492 
	C60.829651,71.195656 60.579308,70.859795 60.440094,70.116089 
	C60.504513,69.594795 60.578602,69.394371 60.918049,69.014153 
z"/>
<path fill="#635D53" opacity="1.000000" stroke="none" 
	d="
M76.852051,72.724731 
	C76.749687,73.014244 76.487083,73.047600 75.824280,73.051163 
	C74.872955,73.063660 74.236160,72.764091 74.591972,72.296867 
	C75.191040,71.510223 76.015480,71.982193 76.852051,72.724731 
z"/>
<path fill="#726966" opacity="1.000000" stroke="none" 
	d="
M85.095779,78.358749 
	C85.797821,77.834602 86.453918,78.021255 86.947037,79.157501 
	C86.407509,79.245483 85.805809,78.960091 85.095779,78.358749 
z"/>
<path fill="#7A5013" opacity="1.000000" stroke="none" 
	d="
M69.382141,65.798492 
	C69.076485,65.546974 69.132668,65.366112 69.331650,64.934151 
	C69.961853,64.871201 70.449272,65.059357 71.070694,65.489090 
	C70.717796,65.776833 70.230896,65.822998 69.382141,65.798492 
z"/>
<path fill="#F6F4F1" opacity="1.000000" stroke="none" 
	d="
M55.154644,114.356995 
	C55.134140,110.847939 57.971134,110.847466 60.143494,109.521461 
	C62.788853,108.118935 65.410179,107.349854 67.537247,105.054443 
	C70.142891,103.087387 72.262535,104.418648 74.757828,105.458267 
	C75.995888,106.069885 76.861694,106.571846 78.107925,107.141876 
	C80.518967,108.595116 82.997551,109.144646 84.911179,111.141510 
	C84.522781,112.438484 84.118301,113.366463 83.593575,114.582962 
	C83.408066,115.821991 83.106895,116.675644 82.159706,117.578232 
	C81.415627,118.660706 80.735741,119.215973 79.345093,119.207260 
	C75.639854,116.757462 71.872452,116.004623 67.798943,116.331505 
	C64.834877,116.569359 61.913876,115.970047 58.589378,115.743500 
	C57.089031,115.848709 56.094669,115.583778 55.154644,114.356995 
z"/>
<path fill="#D5C9C1" opacity="1.000000" stroke="none" 
	d="
M57.785019,115.307076 
	C65.062370,115.679878 72.808105,112.136688 78.976822,118.803497 
	C75.760231,120.865616 72.250282,119.631706 68.452057,120.147034 
	C66.056366,119.280342 64.027184,118.852806 61.902115,118.568718 
	C60.109676,118.329102 57.768250,118.377228 57.785019,115.307076 
z"/>
<path fill="#B1A29B" opacity="1.000000" stroke="none" 
	d="
M57.679291,114.984169 
	C59.087627,118.179466 61.965298,117.669350 64.057129,117.299179 
	C66.351936,116.893089 66.983643,117.984749 67.885483,119.810913 
	C61.387691,122.456963 54.845612,121.409958 52.036774,117.300697 
	C52.158108,116.211266 52.459122,115.452202 52.892769,114.414230 
	C53.459812,114.099350 53.894218,114.063362 54.655373,114.011581 
	C55.774384,114.314247 56.566647,114.632721 57.679291,114.984169 
z"/>
<path fill="#9F9695" opacity="1.000000" stroke="none" 
	d="
M49.708447,114.979355 
	C50.345436,115.392693 50.661324,115.881836 51.028526,116.670990 
	C50.869488,118.533630 51.159233,120.615280 48.187157,119.283691 
	C47.604832,118.620361 47.460804,118.150551 47.724937,117.283203 
	C48.027794,116.025070 48.327579,115.245697 49.708447,114.979355 
z"/>
<path fill="#C3BCBD" opacity="1.000000" stroke="none" 
	d="
M82.192810,117.949165 
	C81.915276,116.756348 81.946571,115.733612 83.202950,114.978592 
	C84.665955,115.264572 85.638184,115.883102 85.926323,117.582230 
	C84.917984,119.911201 83.712448,118.995346 82.192810,117.949165 
z"/>
<path fill="#8B8077" opacity="1.000000" stroke="none" 
	d="
M47.594330,116.995239 
	C47.942368,117.411987 47.966774,117.872360 47.977608,118.678467 
	C46.704296,118.749336 45.681927,120.286179 44.168846,119.247620 
	C44.787689,117.856544 46.036793,117.460457 47.594330,116.995239 
z"/>
<path fill="#573A2E" opacity="1.000000" stroke="none" 
	d="
M62.661926,47.996399 
	C62.993973,48.267475 62.974251,48.482861 62.922470,49.021088 
	C62.059441,50.029705 61.058819,50.126602 59.672699,50.151279 
	C57.203789,50.124275 56.111603,48.201416 54.014046,47.490833 
	C51.457500,47.338352 49.646080,48.722778 47.197697,49.149117 
	C45.064762,49.398087 43.329453,49.777618 41.191753,50.159737 
	C39.700077,50.251247 38.644138,50.112469 37.366093,49.267551 
	C36.108829,46.879684 36.381199,46.534859 39.741657,46.042568 
	C42.620205,46.304813 45.147488,45.943222 47.248573,44.701897 
	C52.245144,41.749908 56.474552,42.205772 60.249638,46.700127 
	C60.737423,47.280849 61.613789,47.535179 62.661926,47.996399 
z"/>
<path fill="#352B2C" opacity="1.000000" stroke="none" 
	d="
M27.620430,31.255733 
	C28.633673,31.030823 29.410158,30.998455 30.574001,30.950281 
	C30.969046,31.121820 30.976736,31.309164 30.981474,31.778484 
	C29.875784,32.375290 28.773043,32.690121 27.319824,32.994125 
	C26.547892,32.320591 26.890869,31.864214 27.620430,31.255733 
z"/>
<path fill="#574A48" opacity="1.000000" stroke="none" 
	d="
M33.178921,30.232773 
	C33.121346,30.085194 33.505032,30.086714 33.695496,30.082973 
	C33.885963,30.079231 33.639950,30.457079 33.639950,30.457079 
	C33.639950,30.457079 33.236496,30.380350 33.178921,30.232773 
z"/>
<path fill="#F0690D" opacity="1.000000" stroke="none" 
	d="
M37.090904,49.434914 
	C38.116570,49.029556 39.191593,49.038174 40.660675,49.134758 
	C43.024788,51.450405 41.972855,54.344112 42.829590,57.220531 
	C43.294010,59.924648 44.543556,62.061394 44.214550,64.857117 
	C43.385509,65.704384 42.636803,65.839203 41.470840,65.588730 
	C39.479630,63.003368 37.474785,60.751427 36.964550,57.328972 
	C36.943584,56.467659 36.922318,55.977856 36.786530,55.137096 
	C36.672009,54.786140 36.700760,54.755600 36.716160,54.741600 
	C36.731560,54.727596 37.199829,54.734844 37.199829,54.734844 
	C37.199829,54.734844 37.344807,54.289669 37.156685,54.149910 
	C37.025799,52.623066 37.083031,51.235977 37.090904,49.434914 
z"/>
<path fill="#828488" opacity="1.000000" stroke="none" 
	d="
M27.504013,31.050900 
	C27.566771,31.520456 27.276360,31.977724 26.977646,32.709145 
	C26.969347,32.983299 26.539600,33.071140 26.321556,33.047882 
	C25.778637,32.541016 25.453764,32.057404 25.077240,31.269543 
	C25.734009,30.989733 26.442425,31.014174 27.504013,31.050900 
z"/>
<path fill="#B04818" opacity="1.000000" stroke="none" 
	d="
M36.849915,54.169891 
	C37.127247,54.188702 37.285931,54.367252 37.444614,54.545799 
	C37.340729,54.626350 37.236843,54.706898 36.932259,54.757523 
	C36.731560,54.727596 36.731262,54.329628 36.849915,54.169891 
z"/>
<path fill="#F6D32F" opacity="1.000000" stroke="none" 
	d="
M64.943588,57.921066 
	C64.821747,58.980804 64.522491,59.752857 64.102783,60.813938 
	C62.321266,61.577480 60.641384,61.892567 58.507473,61.505657 
	C57.392803,60.703850 57.069138,59.885380 56.808228,58.555016 
	C56.710491,57.504852 56.728630,56.902660 56.901100,55.857063 
	C57.815483,53.326939 59.293133,52.718090 61.764519,53.682610 
	C62.466728,53.920547 62.733341,54.032745 63.062157,54.442921 
	C62.710850,56.163746 62.306690,57.662209 64.943588,57.921066 
z"/>
<path fill="#E6B727" opacity="1.000000" stroke="none" 
	d="
M62.155487,53.594215 
	C60.792927,54.286495 59.051441,53.418629 58.001961,55.500671 
	C53.828171,55.172543 55.507687,51.045578 53.646721,48.610935 
	C53.410305,47.768360 53.422844,47.276485 53.765358,46.490128 
	C56.384903,45.451294 56.698685,48.239010 58.655930,48.887131 
	C59.813679,49.909077 60.808151,50.640633 61.864265,51.748413 
	C62.071381,52.431782 62.112984,52.853966 62.155487,53.594215 
z"/>
<path fill="#F8DE59" opacity="1.000000" stroke="none" 
	d="
M65.382172,58.146477 
	C63.390759,58.088604 61.660519,57.968456 59.909706,57.846878 
	C59.747555,55.533398 62.134327,56.410580 62.988464,54.953499 
	C64.610886,54.786381 65.536842,55.762360 66.705223,56.957977 
	C66.500519,57.499573 66.071930,57.791885 65.382172,58.146477 
z"/>
<path fill="#EAD16D" opacity="1.000000" stroke="none" 
	d="
M62.364395,51.973167 
	C60.519199,51.928947 58.901150,51.994972 58.964691,49.391060 
	C60.018810,49.051983 61.073997,49.086384 62.509804,49.232353 
	C63.737629,50.275448 65.382530,51.265854 62.364395,51.973167 
z"/>
<path fill="#C5AB74" opacity="1.000000" stroke="none" 
	d="
M65.080612,51.315155 
	C66.400551,51.061436 67.197647,51.460613 67.524063,52.495499 
	C67.556046,52.596912 67.132965,52.985977 66.905899,53.000301 
	C65.862534,53.066090 65.083450,52.657158 65.080612,51.315155 
z"/>
<path fill="#DFB921" opacity="1.000000" stroke="none" 
	d="
M76.824371,65.844101 
	C77.082481,66.080719 77.056114,66.262009 77.018112,66.717804 
	C76.705505,66.821381 76.404541,66.650444 76.045197,66.220779 
	C76.171188,65.904289 76.355545,65.846535 76.824371,65.844101 
z"/>
<path fill="#66320D" opacity="1.000000" stroke="none" 
	d="
M88.822151,93.891251 
	C89.604149,94.568405 90.019127,95.089676 90.666794,95.718086 
	C91.260414,95.955269 91.519211,96.191750 91.854492,96.747185 
	C92.050903,96.941170 92.008430,96.964249 92.032120,96.966919 
	C92.203056,97.149292 92.350288,97.328995 92.763519,97.733833 
	C93.029503,97.958969 93.040878,97.989037 93.048256,97.973633 
	C93.403908,98.372498 93.533165,98.846504 93.223961,99.695145 
	C89.025040,99.863678 89.750450,103.197594 88.970680,105.834991 
	C88.549210,106.483612 88.112595,106.584488 87.319458,106.443542 
	C86.832664,106.159142 86.671516,105.993050 86.357224,105.515083 
	C85.914993,104.315178 85.887688,103.391479 85.813568,102.129028 
	C85.821381,100.420959 85.672890,99.048309 86.036606,97.359787 
	C85.989258,95.912804 86.610764,95.205421 87.596298,94.367249 
	C87.992050,93.996574 88.223595,93.865974 88.822151,93.891251 
z"/>
<path fill="#BCB8C3" opacity="1.000000" stroke="none" 
	d="
M90.145920,111.779907 
	C90.216476,112.715858 90.138535,113.435814 90.123909,114.516205 
	C89.890747,115.068787 89.594269,115.260933 89.188232,115.695541 
	C84.671616,116.409805 88.134300,112.981209 87.047638,111.431503 
	C87.667770,110.430893 88.389053,110.313721 89.479614,110.828545 
	C89.842712,111.250542 89.920059,111.407234 90.145920,111.779907 
z"/>
<path fill="#B89B8B" opacity="1.000000" stroke="none" 
	d="
M89.862854,110.741928 
	C89.088707,111.057350 88.412048,111.020844 87.398026,111.016769 
	C87.042892,110.607170 87.025131,110.165146 87.012039,109.391624 
	C86.431923,108.444496 86.302795,107.728500 86.793961,106.631989 
	C87.463181,106.280418 87.886032,106.227005 88.629005,106.204773 
	C89.286201,107.620636 89.623268,109.005318 89.862854,110.741928 
z"/>
<path fill="#4E3620" opacity="1.000000" stroke="none" 
	d="
M93.336113,100.023987 
	C93.008186,99.554024 93.011902,99.097969 93.035629,98.300072 
	C93.969742,98.042831 94.717339,98.350616 94.966568,99.684204 
	C94.552071,100.015976 94.109909,100.026939 93.336113,100.023987 
z"/>
<path fill="#66320D" opacity="1.000000" stroke="none" 
	d="
M97.779625,107.137512 
	C98.200775,107.182701 98.483582,107.391243 98.851639,107.854904 
	C98.464882,107.904572 97.656380,108.237923 97.779625,107.137512 
z"/>
<path fill="#66320D" opacity="1.000000" stroke="none" 
	d="
M97.070587,104.219765 
	C97.236115,104.201302 97.497398,104.411247 97.821007,104.870590 
	C97.589821,104.954231 97.350815,104.730301 97.070587,104.219765 
z"/>
<path fill="#B54C03" opacity="1.000000" stroke="none" 
	d="
M63.742146,79.735611 
	C65.220795,83.072266 68.969292,83.678642 70.374557,86.603760 
	C70.985146,87.874741 72.524849,88.868973 71.582115,90.524223 
	C70.572128,92.297554 68.910133,92.249107 67.287346,91.587547 
	C66.004684,91.064644 65.086868,91.313141 64.154495,92.696030 
	C61.868752,94.338310 61.095524,92.311195 59.946270,91.330269 
	C55.832863,87.819344 52.163322,83.354141 45.673946,85.605171 
	C44.651798,85.959732 43.407726,85.282104 42.192856,84.283981 
	C39.379917,82.246620 37.313183,79.959602 35.301247,77.242538 
	C38.833199,74.811958 41.756096,78.735176 45.592052,78.001434 
	C51.720024,79.742630 57.898602,76.034645 63.742146,79.735611 
z"/>
<path fill="#D05403" opacity="1.000000" stroke="none" 
	d="
M64.181610,79.757919 
	C60.417427,79.623810 57.013813,78.097366 53.205105,80.409195 
	C51.839069,81.238358 48.762135,79.248848 46.231476,78.273819 
	C45.349445,76.885887 44.701992,75.769913 44.025742,74.328194 
	C44.504616,73.389397 45.191868,73.142250 46.313911,73.035202 
	C47.672619,73.111450 48.607491,73.441994 49.548138,73.748085 
	C56.195774,75.911217 56.195671,75.911530 60.644699,70.928268 
	C61.638599,71.033607 62.296165,71.060959 63.271111,71.133621 
	C64.712387,73.216858 64.965271,75.685143 66.811821,77.754761 
	C66.083534,78.554276 65.221558,79.031090 64.181610,79.757919 
z"/>
<path fill="#D84E03" opacity="1.000000" stroke="none" 
	d="
M47.122070,73.643799 
	C46.249142,73.999199 45.498470,73.999947 44.372372,74.001572 
	C38.725880,75.248604 37.252247,71.688080 36.041058,67.373772 
	C37.082676,65.838158 38.280556,64.943436 40.355286,65.368683 
	C44.021999,67.145927 46.179565,69.758858 47.122070,73.643799 
z"/>
<path fill="#E24D06" opacity="1.000000" stroke="none" 
	d="
M41.182686,65.762444 
	C39.567520,66.315422 38.149113,66.619225 36.366833,66.961716 
	C35.664848,64.279617 35.326736,61.558834 34.976601,58.419987 
	C35.461037,57.733829 35.957497,57.465736 36.709404,57.077553 
	C38.150139,59.476948 40.976059,61.090088 41.002350,64.625504 
	C41.132614,65.169334 41.256027,65.341301 41.182686,65.762444 
z"/>
<path fill="#B04818" opacity="1.000000" stroke="none" 
	d="
M34.863503,72.831940 
	C34.623196,72.947899 34.375267,72.746178 34.110065,72.234016 
	C34.357361,72.103035 34.611721,72.299934 34.863503,72.831940 
z"/>
<path fill="#A16E13" opacity="1.000000" stroke="none" 
	d="
M110.673668,122.964844 
	C113.638199,126.387833 116.224213,129.836105 118.956200,133.587036 
	C116.332001,135.461700 115.535637,130.397018 112.377808,132.002914 
	C111.491371,129.581406 108.682320,128.627563 108.361931,125.916695 
	C108.139565,124.035133 108.286209,123.082367 110.673668,122.964844 
z"/>
<path fill="#924703" opacity="1.000000" stroke="none" 
	d="
M61.311943,100.770096 
	C54.184765,99.690773 50.521271,94.259285 46.095360,89.321243 
	C54.748398,85.882095 57.633072,87.154160 62.439697,96.578979 
	C62.889015,98.302414 62.522667,99.486176 61.311943,100.770096 
z"/>
<path fill="#A04904" opacity="1.000000" stroke="none" 
	d="
M62.310543,97.218597 
	C60.641399,96.447762 60.528564,94.968735 59.776646,94.035873 
	C57.334297,91.005806 55.505222,86.261566 49.968910,89.508522 
	C49.228661,89.942657 47.802113,89.206604 46.322601,89.012070 
	C44.917419,88.344070 43.883022,87.676445 42.561020,86.906113 
	C42.164276,86.121788 42.055138,85.440170 41.927193,84.413147 
	C44.468513,84.218384 46.927456,84.009064 49.519642,83.621925 
	C54.349033,82.900642 57.030766,87.660011 60.588039,90.151970 
	C61.630505,90.882248 62.418507,91.975754 63.659340,92.952393 
	C63.998795,94.067276 64.002045,95.132553 64.007019,96.597351 
	C63.610615,97.347992 63.147770,97.494148 62.310543,97.218597 
z"/>
<path fill="#9B5303" opacity="1.000000" stroke="none" 
	d="
M61.968399,97.347839 
	C62.446991,97.001144 62.893101,97.000458 63.673969,96.998314 
	C65.103081,97.331253 66.197433,97.665649 67.641037,98.003166 
	C69.745567,99.175606 72.069923,99.950134 71.069931,103.143005 
	C69.751144,104.040215 68.702934,103.858818 67.279770,103.298897 
	C66.482864,103.133011 66.059868,103.128540 65.319626,103.131393 
	C64.305008,101.735138 62.625343,102.129173 61.315918,101.153503 
	C61.320206,99.909195 61.628063,98.801529 61.968399,97.347839 
z"/>
<path fill="#CCA24F" opacity="1.000000" stroke="none" 
	d="
M120.957336,134.350128 
	C121.310585,134.110886 121.569191,134.285690 121.696198,134.894043 
	C121.362732,135.070724 121.128761,134.882935 120.957336,134.350128 
z"/>
<path fill="#8E6329" opacity="1.000000" stroke="none" 
	d="
M67.018761,103.354431 
	C68.016479,103.091347 69.127090,103.045219 70.653061,102.982803 
	C73.281685,101.129623 75.660362,101.993927 78.360306,102.641907 
	C78.921021,102.822502 79.141037,102.902077 79.679352,103.120415 
	C80.401001,103.461273 80.798859,103.673607 81.475441,104.053513 
	C82.660110,104.725845 83.549370,105.269958 84.954033,105.258820 
	C85.693504,105.261902 86.103096,105.349724 86.764984,105.678139 
	C87.030930,105.852242 87.070091,106.091187 87.055214,106.212509 
	C87.044052,107.013817 87.047768,107.693802 87.034103,108.716965 
	C87.016716,109.060135 86.734665,109.089821 86.595383,109.063194 
	C83.869766,110.627419 81.781860,108.795288 79.204727,107.915604 
	C77.845421,107.290115 76.777306,106.897247 75.329529,106.715683 
	C72.886276,106.119049 71.052010,104.474052 68.213310,104.907486 
	C67.589027,104.430443 67.360344,104.000908 67.018761,103.354431 
z"/>
<path fill="#392615" opacity="1.000000" stroke="none" 
	d="
M77.766647,107.131653 
	C80.515083,107.509903 83.072304,108.230446 86.042801,108.993774 
	C86.143028,109.707207 85.829956,110.377846 85.222076,111.279495 
	C82.703453,110.606857 80.479637,109.703201 78.071655,108.496460 
	C77.783455,107.953560 77.679436,107.713753 77.766647,107.131653 
z"/>
<path fill="#4E3620" opacity="1.000000" stroke="none" 
	d="
M92.049843,96.588608 
	C91.751183,96.737053 91.451469,96.532944 91.025620,96.077026 
	C91.088593,95.345596 91.277710,94.865974 91.696770,94.260689 
	C91.967407,94.835373 92.008095,95.535713 92.049843,96.588608 
z"/>
<path fill="#4E3620" opacity="1.000000" stroke="none" 
	d="
M92.933990,97.735641 
	C92.691757,97.888985 92.426315,97.711136 92.144493,97.197502 
	C92.388542,97.046906 92.649422,97.227806 92.933990,97.735641 
z"/>
<path fill="#AF6606" opacity="1.000000" stroke="none" 
	d="
M80.293755,103.701447 
	C77.303963,103.666183 74.601250,103.329582 71.483467,102.979752 
	C71.025856,100.944977 69.234619,100.039314 68.135818,98.302612 
	C71.684166,98.002930 75.378036,97.999573 79.532120,97.994736 
	C80.187294,98.190163 80.382248,98.387077 80.753326,98.961662 
	C81.293266,100.734131 81.238510,102.093002 80.293755,103.701447 
z"/>
<path fill="#8D4606" opacity="1.000000" stroke="none" 
	d="
M80.003021,104.001060 
	C80.019203,102.628014 80.031731,101.253235 80.052635,99.466156 
	C80.881935,97.777733 82.503403,98.260345 83.788750,97.250587 
	C84.493530,97.023361 84.954163,97.013695 85.762070,97.014915 
	C87.544075,98.193825 86.808899,99.783485 86.903618,101.590347 
	C85.802299,102.916428 86.205849,104.454811 85.246849,105.779816 
	C83.410225,107.919189 82.671997,105.709923 81.270508,105.136917 
	C80.787971,104.756493 80.573074,104.526833 80.170120,104.151047 
	C79.995232,103.992592 79.999359,103.999336 80.003021,104.001060 
z"/>
<path fill="#A85106" opacity="1.000000" stroke="none" 
	d="
M83.663437,97.021072 
	C83.834282,99.125122 82.259338,98.984703 80.429230,99.040741 
	C80.045532,98.877365 80.030045,98.700882 80.003448,98.258820 
	C80.826309,96.770882 82.106064,97.044060 83.663437,97.021072 
z"/>
<path fill="#4E3620" opacity="1.000000" stroke="none" 
	d="
M89.385925,93.844070 
	C88.951012,94.048164 88.712852,94.049202 88.117599,94.088699 
	C87.508636,93.999954 87.297821,93.823669 87.036316,93.414337 
	C86.975548,92.713394 87.006516,92.196434 87.075043,91.292969 
	C87.951035,91.804359 89.984955,91.622406 89.385925,93.844070 
z"/>
<path fill="#C28025" opacity="1.000000" stroke="none" 
	d="
M57.997429,61.972839 
	C59.750149,60.935917 61.444939,60.969856 63.561024,61.053383 
	C63.982315,61.102966 63.983280,61.547909 63.969166,61.769802 
	C62.320812,61.914352 60.917824,62.123669 61.047638,64.668350 
	C60.411636,65.472221 59.875591,65.218315 59.110813,64.733093 
	C58.753593,64.390205 58.628136,64.236389 58.351402,63.827911 
	C58.113255,63.396740 58.026379,63.220219 57.997429,61.972839 
z"/>
<path fill="#7A5013" opacity="1.000000" stroke="none" 
	d="
M69.089172,64.487030 
	C68.860962,64.589462 68.545448,64.443405 68.150970,64.033722 
	C68.381950,63.926247 68.691917,64.082390 69.089172,64.487030 
z"/>
<path fill="#AD4607" opacity="1.000000" stroke="none" 
	d="
M58.526951,63.808891 
	C59.440025,64.071701 59.942635,64.422211 60.721001,64.906662 
	C61.030266,66.055229 61.063774,67.069855 61.140343,68.459427 
	C61.183407,68.834366 61.031868,68.971756 60.957348,69.041809 
	C58.144341,69.965820 57.418156,68.276627 57.130325,65.681633 
	C57.352558,64.710381 57.663349,64.254875 58.526951,63.808891 
z"/>
<path fill="#E35C02" opacity="1.000000" stroke="none" 
	d="
M57.525249,64.691582 
	C58.016212,66.576080 58.089577,68.343102 60.536201,69.028732 
	C60.912491,69.531960 60.942154,69.952072 60.976425,70.689209 
	C60.643738,71.549294 60.195141,72.053024 59.987183,72.641754 
	C58.612831,76.532524 56.417263,78.275185 52.292683,75.991760 
	C50.869915,75.204102 49.210926,74.843132 47.329830,74.142845 
	C45.094704,71.534065 43.189587,69.069687 41.135197,66.308472 
	C40.989784,65.842598 40.993645,65.673569 41.003353,65.250954 
	C41.755447,64.995728 42.501701,64.994087 43.621216,64.988831 
	C47.105885,64.561470 48.068245,67.263802 49.711784,68.948189 
	C50.947445,70.214554 51.903004,72.415665 53.971012,71.700974 
	C56.244038,70.915421 55.089905,68.600838 55.180134,66.894035 
	C55.206425,66.396751 55.275402,65.909531 55.628281,65.134476 
	C56.252541,64.584526 56.714428,64.487274 57.525249,64.691582 
z"/>
<path fill="#634229" opacity="1.000000" stroke="none" 
	d="
M77.778862,106.565262 
	C77.962212,107.024208 77.966560,107.259056 77.929192,107.843628 
	C77.002792,108.095940 76.098053,108.046844 75.260178,106.998344 
	C75.743896,105.916588 76.613152,105.785385 77.778862,106.565262 
z"/>
<path fill="#F7910D" opacity="1.000000" stroke="none" 
	d="
M57.550800,57.841347 
	C57.841839,58.811317 57.911987,59.509212 58.018745,60.554543 
	C58.055355,60.901978 57.992065,61.066147 57.954681,61.145782 
	C57.721199,61.366722 57.525093,61.508026 56.996563,61.793152 
	C52.744724,63.047279 49.745655,58.808483 45.436432,60.021072 
	C44.062840,59.772194 43.233471,59.260326 42.275013,58.247253 
	C40.005909,55.555164 41.408714,52.698353 41.037083,49.643532 
	C42.773537,48.733624 44.492332,48.244522 46.602097,47.765228 
	C48.975536,50.375523 50.213947,53.547588 53.290909,55.657543 
	C54.910374,56.243027 56.281464,56.574596 57.550800,57.841347 
z"/>
<path fill="#F7A40A" opacity="1.000000" stroke="none" 
	d="
M53.231030,56.719940 
	C50.051430,54.860401 47.499180,52.443481 46.998909,48.169266 
	C49.090694,47.203178 50.934128,45.734653 53.630783,46.095188 
	C53.999302,46.589371 54.005043,46.984516 54.017151,47.676514 
	C53.172443,50.752991 54.525749,53.678684 53.231030,56.719940 
z"/>
<path fill="#F46F05" opacity="1.000000" stroke="none" 
	d="
M42.007843,58.364182 
	C42.801952,58.244499 43.599277,58.499901 44.688171,58.884720 
	C47.774925,62.637051 52.810783,61.472935 56.008492,64.556351 
	C56.143082,67.907578 58.323273,71.996628 54.885929,73.443268 
	C51.552692,74.846092 49.735172,70.863640 47.821976,68.403870 
	C46.913342,67.235649 45.683323,66.317398 44.296688,65.135567 
	C43.333336,62.903233 42.672195,60.821247 42.007843,58.364182 
z"/>
<path fill="#FCB605" opacity="1.000000" stroke="none" 
	d="
M53.354973,57.036762 
	C53.892883,54.140038 50.168983,51.085735 53.698151,48.151466 
	C57.300106,49.496567 55.137962,53.453121 57.635185,55.649872 
	C57.909782,56.359177 57.915707,56.863831 57.846657,57.740952 
	C56.417828,57.768234 55.063965,57.423054 53.354973,57.036762 
z"/>
<path fill="#7B480C" opacity="1.000000" stroke="none" 
	d="
M85.367218,106.019028 
	C85.189629,104.660362 84.429382,103.020462 86.541069,102.054962 
	C86.926918,103.009483 86.968651,104.046570 87.020660,105.467957 
	C86.587883,105.905655 86.144844,105.959061 85.367218,106.019028 
z"/>
<path fill="#AF6606" opacity="1.000000" stroke="none" 
	d="
M80.099167,104.214722 
	C80.322769,104.088455 80.585388,104.275459 80.886398,104.776047 
	C80.664719,104.899185 80.402527,104.711975 80.099167,104.214722 
z"/>
<path fill="#FC850B" opacity="1.000000" stroke="none" 
	d="
M56.296909,64.930328 
	C53.942257,63.414295 51.388943,63.575230 49.103710,63.181671 
	C46.790382,62.783279 45.615837,61.860249 45.028969,59.389206 
	C49.246696,56.831333 52.357868,61.144444 56.663773,61.037212 
	C57.234486,61.205147 57.399857,61.356773 57.783226,61.764790 
	C58.001232,62.021179 58.003082,61.997662 57.991516,61.995342 
	C58.216835,62.217968 58.441982,62.454102 58.818138,62.884247 
	C58.980881,63.067062 58.951580,63.396820 58.944500,63.559006 
	C58.668430,63.952766 58.399445,64.184349 57.987720,64.640610 
	C57.432716,64.888535 57.020447,64.911774 56.296909,64.930328 
z"/>
<path fill="#D05403" opacity="1.000000" stroke="none" 
	d="
M57.989227,61.821293 
	C57.669365,61.957600 57.413631,61.782757 57.151573,61.275085 
	C57.069111,61.053520 57.500877,61.101170 57.709091,61.163292 
	C57.917301,61.225418 57.977219,61.621407 57.989227,61.821293 
z"/>
<path fill="#D05403" opacity="1.000000" stroke="none" 
	d="
M58.879745,62.832825 
	C58.709332,62.868744 58.437782,62.670425 58.073090,62.232567 
	C58.246170,62.194878 58.512390,62.396732 58.879745,62.832825 
z"/>
</svg>