<svg version="1.1" id="Layer_1" xmlns="http://www.w3.org/2000/svg" xmlns:xlink="http://www.w3.org/1999/xlink" x="0px" y="0px"
	 width="100%" viewBox="0 0 138 138" enable-background="new 0 0 138 138" xml:space="preserve">
<path fill="#FEFEFE" opacity="0.000000" stroke="none" 
	d="
M139.000000,53.000000 
	C139.000000,81.974167 139.000000,110.448334 139.000000,138.961243 
	C93.067558,138.961243 47.135067,138.961243 1.101291,138.961243 
	C1.101291,93.109421 1.101291,47.218544 1.101291,1.163833 
	C46.999523,1.163833 92.999718,1.163833 139.000000,1.163833 
	C139.000000,18.197865 139.000000,35.348930 139.000000,53.000000 
M100.002548,78.022591 
	C100.002548,78.022591 100.036011,78.095840 100.539528,78.202309 
	C100.690071,78.120041 100.840614,78.037781 101.626465,77.725349 
	C103.030861,75.160103 104.435265,72.594856 105.822578,69.531906 
	C105.747185,69.191429 105.569641,68.917038 105.348717,67.939491 
	C105.279991,67.160492 105.211266,66.381493 105.505051,65.494888 
	C105.701393,65.338356 105.902084,65.187607 106.918716,64.991196 
	C108.012825,64.951881 109.106934,64.912567 110.669487,65.295891 
	C111.172600,66.429466 111.675705,67.563034 112.208824,69.250870 
	C112.463974,69.501747 112.719131,69.752617 113.292625,70.476555 
	C113.522713,70.993828 113.752800,71.511093 113.983421,72.594521 
	C114.257133,73.064705 114.530853,73.534897 115.037361,74.537277 
	C115.366081,75.012733 115.694801,75.488182 116.112480,76.668823 
	C118.432220,79.355324 119.939301,77.331551 119.658981,75.410133 
	C119.326744,73.132820 117.499077,71.073677 116.126106,68.425179 
	C116.096115,68.250648 116.066116,68.076118 115.986176,67.583687 
	C115.918152,67.377769 115.805359,67.200333 115.353561,66.320389 
	C115.243011,65.543526 115.132469,64.766655 115.565674,63.492111 
	C115.099838,61.645382 114.634010,59.798649 114.024010,57.243244 
	C113.963829,56.522984 113.903648,55.802719 114.429596,54.660904 
	C114.987740,53.096024 115.545883,51.531143 116.326630,49.342163 
	C114.383652,49.616451 113.220100,49.780708 111.962509,49.290134 
	C111.089142,48.197071 110.215775,47.104012 109.071259,45.333942 
	C108.916542,44.375721 108.761818,43.417500 108.831795,41.698036 
	C107.983200,40.438423 107.134598,39.178810 106.053970,37.250866 
	C105.903320,36.321011 105.752678,35.391151 105.792892,33.697876 
	C104.932144,32.111710 104.071396,30.525541 103.036957,28.357813 
	C102.984627,27.957306 102.932289,27.556797 102.976440,26.326590 
	C102.977043,25.219213 102.977646,24.111839 103.000847,22.141287 
	C102.989128,17.945169 103.251953,13.651222 98.941124,10.266498 
	C95.217438,3.340613 88.517006,3.383746 81.201035,3.010717 
	C79.756065,3.978299 77.770020,4.619544 76.956688,5.968081 
	C72.677437,13.063272 73.240089,20.533028 76.024879,28.734653 
	C78.000473,33.788658 81.559570,36.989120 87.023308,38.701584 
	C87.691673,39.796162 88.360031,40.890739 89.012253,42.739773 
	C88.342865,43.825283 87.673485,44.910797 86.533463,45.442352 
	C81.753609,44.627922 76.828728,42.679188 72.228218,43.267418 
	C65.486359,44.129452 58.143707,45.119003 53.333496,52.277973 
	C48.791691,54.501431 44.065105,56.419701 39.756535,59.028378 
	C34.775352,62.044296 29.365988,65.011841 28.403290,72.269203 
	C27.914766,73.158844 27.426245,74.048477 26.338606,75.280128 
	C22.306208,79.760681 20.280474,84.918243 20.441563,91.325996 
	C19.644745,92.250076 18.847927,93.174156 17.688515,94.518738 
	C19.978224,95.950722 21.836857,97.113106 23.835230,98.710945 
	C23.835230,98.710945 24.144161,99.048141 24.039660,99.879707 
	C24.039660,101.501686 24.039660,103.123657 24.039660,104.845398 
	C26.161961,105.715401 28.093222,106.507080 30.502859,107.692337 
	C31.699095,107.326523 32.895332,106.960709 34.653408,106.132347 
	C35.762756,105.729675 36.872108,105.327003 38.424480,105.487297 
	C44.532951,105.917282 45.053665,105.743187 46.414974,102.700233 
	C46.716736,102.537506 47.038513,102.469543 48.202621,102.794014 
	C49.062885,102.877472 49.923145,102.960938 50.998390,103.664513 
	C51.059452,104.096878 51.120514,104.529251 50.652378,105.269630 
	C51.179924,106.123978 51.707470,106.978333 52.171867,107.996536 
	C52.171867,107.996536 52.193436,107.822273 52.200989,108.313362 
	C52.312210,108.645775 52.530949,108.876015 53.040451,109.430077 
	C53.040451,109.430077 53.076435,109.892426 53.008373,110.491753 
	C53.283039,110.992477 53.557709,111.493202 54.062481,112.622154 
	C54.128571,113.284355 54.194656,113.946556 54.078262,115.402802 
	C52.930626,116.800003 52.004238,118.514084 50.576881,119.510651 
	C48.953415,120.644127 46.882439,121.136650 44.332832,122.176613 
	C41.055431,124.637306 35.113766,125.928391 39.862587,132.487091 
	C39.909122,132.657028 39.955654,132.826950 39.982635,133.785553 
	C41.760571,134.772888 43.511292,136.554047 45.320950,136.616089 
	C55.511086,136.965454 65.715652,136.877228 75.914803,136.985138 
	C86.142349,137.093369 86.135063,137.118332 84.879982,126.853920 
	C84.759537,125.868904 84.797150,124.864571 85.474937,123.997864 
	C85.762199,123.459801 86.360245,122.495697 86.291557,122.445587 
	C84.235474,120.945724 82.113457,119.536240 79.779465,117.595421 
	C76.100113,116.940216 74.199226,114.651138 73.602699,111.046219 
	C73.099525,108.005371 72.462753,104.986641 72.026855,101.228447 
	C72.068962,100.238564 72.111076,99.248680 72.820328,97.943268 
	C73.819031,97.370522 74.754181,96.501785 75.826431,96.271561 
	C84.868347,94.330170 90.921310,87.920120 97.848434,81.906494 
	C98.240898,81.363976 98.633362,80.821457 99.559547,79.856438 
	C99.732071,79.235016 99.904594,78.613586 100.002548,78.022591 
M114.725212,24.010921 
	C119.114944,22.131413 116.493439,19.106197 116.464905,15.656014 
	C114.184662,17.263369 112.348114,18.163677 111.087967,19.577673 
	C110.168320,20.609596 110.007980,22.318224 109.509148,23.725189 
	C110.983971,23.868233 112.458786,24.011276 114.725212,24.010921 
z"/>
<path fill="#F1ECDF" opacity="1.000000" stroke="none" 
	d="
M28.968184,71.978004 
	C29.365988,65.011841 34.775352,62.044296 39.756535,59.028378 
	C44.065105,56.419701 48.791691,54.501431 54.036110,52.095566 
	C57.406803,51.537178 60.075821,51.167728 62.742504,50.782078 
	C63.838940,50.623512 65.114990,50.734993 65.993919,50.202755 
	C71.521179,46.855709 72.859169,47.449825 73.634750,54.038631 
	C69.243782,55.242100 65.220650,57.278885 61.190113,57.293621 
	C58.041431,57.305130 55.958321,57.613720 54.877186,60.418358 
	C53.687004,63.505905 52.924431,66.758293 51.951126,70.256546 
	C51.284561,71.313225 50.642433,72.052208 49.958778,72.459816 
	C49.244419,71.560760 48.571590,70.993088 47.898762,70.425423 
	C45.539635,74.892189 42.933083,71.496513 40.331261,70.751396 
	C39.178265,70.421204 37.841568,70.513153 36.623276,70.675797 
	C34.059326,71.018097 31.518501,71.533592 28.968184,71.978004 
z"/>
<path fill="#F6F3EC" opacity="1.000000" stroke="none" 
	d="
M73.999390,54.000610 
	C72.859169,47.449825 71.521179,46.855709 65.993919,50.202755 
	C65.114990,50.734993 63.838940,50.623512 62.742504,50.782078 
	C60.075821,51.167728 57.406803,51.537178 54.359955,51.947823 
	C58.143707,45.119003 65.486359,44.129452 72.228218,43.267418 
	C76.828728,42.679188 81.753609,44.627922 86.620590,46.022301 
	C85.307175,48.316689 83.142868,49.667282 85.412247,52.486149 
	C85.893311,53.083683 84.461891,55.695992 83.389114,56.923309 
	C82.484467,57.958282 80.795319,58.283188 79.499756,59.005516 
	C76.038376,60.935368 74.106384,60.153481 73.998924,55.663357 
	C74.000206,54.887424 73.999794,54.444016 73.999390,54.000610 
z"/>
<path fill="#D2C9B1" opacity="1.000000" stroke="none" 
	d="
M106.107117,65.042633 
	C105.902084,65.187607 105.701393,65.338356 105.064110,65.831299 
	C103.065437,69.048164 102.119347,72.606705 99.827835,74.673683 
	C94.371132,79.595711 87.374680,81.969650 80.224464,82.922386 
	C69.538002,84.346321 58.937183,85.516373 50.761993,94.007812 
	C50.342098,93.996925 50.174152,93.994728 49.996712,93.626297 
	C48.666672,91.505127 47.346134,89.750183 46.016762,87.631310 
	C46.597301,86.152916 47.186676,85.038437 48.123711,84.081497 
	C54.128036,88.891823 61.805008,86.942101 65.357307,80.028862 
	C66.112228,80.024086 66.543785,80.023071 67.004700,80.321640 
	C67.508553,81.180199 67.983040,81.739182 68.457527,82.298164 
	C68.639511,81.869316 68.821503,81.440475 69.336113,81.011337 
	C70.112190,81.006226 70.555656,81.001411 71.422188,80.998283 
	C76.381874,79.024857 82.327362,82.049248 86.392380,77.009262 
	C94.338379,75.575111 98.955627,70.710060 102.270050,63.760612 
	C103.718834,61.675255 104.888130,59.825092 106.325806,58.095787 
	C107.035339,58.835217 107.476501,59.453796 107.647820,60.270096 
	C106.954361,61.992760 106.530739,63.517696 106.107117,65.042633 
z"/>
<path fill="#BCAE91" opacity="1.000000" stroke="none" 
	d="
M51.013947,94.016495 
	C58.937183,85.516373 69.538002,84.346321 80.224464,82.922386 
	C87.374680,81.969650 94.371132,79.595711 99.827835,74.673683 
	C102.119347,72.606705 103.065437,69.048164 104.882858,65.885101 
	C105.211266,66.381493 105.279991,67.160492 105.285004,68.584854 
	C105.427414,69.496681 105.633537,69.763145 105.839661,70.029602 
	C104.435265,72.594856 103.030861,75.160103 101.264969,77.606201 
	C100.737038,77.252853 100.570595,77.018654 100.404160,76.784462 
	C100.281441,77.221588 100.158722,77.658714 100.036011,78.095840 
	C100.036011,78.095840 100.002548,78.022591 99.774017,78.203636 
	C99.372276,79.016106 99.199051,79.647522 99.025833,80.278946 
	C98.633362,80.821457 98.240898,81.363976 97.253944,81.877762 
	C93.113434,82.910515 89.567421,83.972008 85.609955,85.020370 
	C82.796768,85.990303 80.395035,86.973351 77.661766,87.970970 
	C76.887825,87.992004 76.445419,87.998466 75.809853,87.751495 
	C73.737404,88.333542 71.920792,89.414047 69.956337,89.916603 
	C68.689865,90.240601 67.206451,89.716583 65.820267,89.572624 
	C65.490921,88.797920 65.161575,88.023224 64.832230,87.248520 
	C63.222462,88.833305 61.612690,90.418083 59.761269,92.012451 
	C59.241409,92.138107 58.963200,92.254181 58.684986,92.370255 
	C58.773186,92.494217 58.932850,92.730240 58.939358,92.726097 
	C59.300377,92.495872 59.648586,92.245552 60.371078,91.999756 
	C62.185989,92.685631 63.627918,93.369011 64.824295,94.305214 
	C62.052563,95.746452 59.526375,96.934860 56.610268,98.106613 
	C54.419102,98.740219 52.617851,99.390472 50.897194,99.782509 
	C50.985641,99.344910 50.993500,99.165527 51.006592,98.645432 
	C51.007736,97.849281 51.003639,97.393852 50.997498,96.572983 
	C51.001614,95.477196 51.007778,94.746841 51.013947,94.016495 
z"/>
<path fill="#EAE0D2" opacity="1.000000" stroke="none" 
	d="
M99.016617,10.960125 
	C103.251953,13.651222 102.989128,17.945169 102.751900,22.577637 
	C102.502953,23.013988 102.027306,23.028748 101.883087,22.742004 
	C100.870987,21.607302 100.003105,20.759342 98.984665,19.629684 
	C98.241631,19.139883 97.649139,18.931782 97.045914,18.371119 
	C96.749962,17.077484 96.464752,16.136408 95.915291,14.323434 
	C93.857933,16.908993 92.400421,18.740692 90.876038,20.656443 
	C89.277023,18.137247 87.765808,16.883974 86.777145,21.090866 
	C86.567894,21.108683 86.148544,21.085102 85.840317,21.069799 
	C85.012970,22.368399 84.493851,23.682301 83.644119,24.997545 
	C82.872719,24.999695 82.431908,25.000502 81.596512,24.999718 
	C76.652740,24.108133 75.450722,21.824306 77.342300,16.971317 
	C80.971741,14.464194 84.254478,11.991936 88.364418,8.896709 
	C88.364418,11.685379 88.364418,13.050108 88.364418,15.853264 
	C92.363213,14.016398 95.689911,12.488261 99.016617,10.960125 
z"/>
<path fill="#EFEAE4" opacity="1.000000" stroke="none" 
	d="
M98.978867,10.613311 
	C95.689911,12.488261 92.363213,14.016398 88.364418,15.853264 
	C88.364418,13.050108 88.364418,11.685379 88.364418,8.896709 
	C84.254478,11.991936 80.971741,14.464194 77.343552,16.545261 
	C76.603134,12.514051 77.304382,9.395251 80.412308,6.925698 
	C81.367561,6.166654 81.486343,4.354913 81.988144,3.025210 
	C88.517006,3.383746 95.217438,3.340613 98.978867,10.613311 
z"/>
<path fill="#F4F0E4" opacity="1.000000" stroke="none" 
	d="
M73.997238,55.995884 
	C74.106384,60.153481 76.038376,60.935368 79.499756,59.005516 
	C80.795319,58.283188 82.484467,57.958282 83.389114,56.923309 
	C84.461891,55.695992 85.893311,53.083683 85.412247,52.486149 
	C83.142868,49.667282 85.307175,48.316689 86.855911,46.299278 
	C87.673485,44.910797 88.342865,43.825283 89.369034,42.331673 
	C92.889839,40.532341 94.131256,41.811237 93.735565,45.205215 
	C93.313347,46.273533 93.153358,47.136215 92.633713,48.041206 
	C90.887482,50.405548 89.241699,52.613720 88.162399,55.070728 
	C84.777779,62.775757 82.188522,64.797134 75.510780,63.926933 
	C73.623283,63.680962 71.836388,62.663006 70.036995,61.657364 
	C71.379501,59.542377 72.688370,57.769131 73.997238,55.995884 
z"/>
<path fill="#BCBAB2" opacity="1.000000" stroke="none" 
	d="
M84.761391,123.869202 
	C84.797150,124.864571 84.759537,125.868904 84.879982,126.853920 
	C86.135063,137.118332 86.142349,137.093369 75.914803,136.985138 
	C65.715652,136.877228 55.511086,136.965454 45.320950,136.616089 
	C43.511292,136.554047 41.760571,134.772888 40.374088,133.509033 
	C43.223106,133.409424 45.680676,133.586349 48.540596,133.813019 
	C50.291916,133.843430 51.640877,133.824097 53.348892,134.037598 
	C54.831810,134.396927 55.955669,134.523422 57.424946,134.805908 
	C61.178455,134.621231 64.586555,134.280548 68.371414,133.941193 
	C69.453209,133.720032 70.158257,133.497513 71.292984,133.420990 
	C82.214340,134.481812 83.716278,133.479477 83.350754,125.641663 
	C83.905823,124.884109 84.333603,124.376656 84.761391,123.869202 
z"/>
<path fill="#EFE6DA" opacity="1.000000" stroke="none" 
	d="
M93.997795,44.999573 
	C94.131256,41.811237 92.889839,40.532341 89.377106,41.954445 
	C88.360031,40.890739 87.691673,39.796162 87.268898,38.121117 
	C89.805443,33.412704 85.836624,32.203957 83.965424,29.657848 
	C83.285156,27.876570 82.638130,26.438938 81.991104,25.001308 
	C82.431908,25.000502 82.872719,24.999695 83.835197,25.239576 
	C84.937805,25.638384 85.518730,25.796503 86.250351,26.236061 
	C87.587463,27.412434 88.773880,28.307369 89.930878,29.526146 
	C89.713478,30.706472 89.525497,31.562956 89.290947,32.631599 
	C91.112648,32.397633 92.510353,32.218117 93.945938,32.028763 
	C93.983810,32.018925 93.995987,32.096237 94.179886,32.333878 
	C95.124969,32.759521 95.886162,32.947529 96.978424,33.162575 
	C97.520355,33.257267 97.731216,33.324924 97.922768,33.703453 
	C97.963509,34.633938 98.023567,35.253544 98.054169,36.250343 
	C98.686966,38.417915 99.349213,40.208298 99.658310,42.037910 
	C97.536034,43.051285 95.766914,44.025429 93.997795,44.999573 
z"/>
<path fill="#93744E" opacity="1.000000" stroke="none" 
	d="
M57.000183,98.123260 
	C59.526375,96.934860 62.052563,95.746452 65.190598,94.256683 
	C69.133163,91.852776 74.459297,93.170898 76.003014,88.004929 
	C76.445419,87.998466 76.887825,87.992004 77.862778,88.241730 
	C79.268272,88.630699 80.141212,88.763481 81.013321,89.277176 
	C79.361839,91.390610 77.753059,93.165810 76.046448,94.841347 
	C74.816170,96.049217 73.455627,97.124420 72.153183,98.258797 
	C72.111076,99.248680 72.068962,100.238564 71.613586,101.612755 
	C69.854111,102.681168 68.507896,103.365265 67.068077,103.633255 
	C67.178047,100.663925 66.005028,99.866737 63.482037,99.891403 
	C61.303822,99.912697 59.118660,99.223282 56.953140,98.666916 
	C56.969704,98.485771 57.000183,98.123260 57.000183,98.123260 
z"/>
<path fill="#908466" opacity="1.000000" stroke="none" 
	d="
M37.981457,104.924332 
	C36.872108,105.327003 35.762756,105.729675 34.017273,106.279121 
	C32.262249,106.716850 31.143366,107.007812 30.024483,107.298767 
	C28.093222,106.507080 26.161961,105.715401 24.039660,104.845398 
	C24.039660,103.123657 24.039660,101.501686 24.443981,99.430069 
	C26.230127,97.323547 27.611954,95.666649 29.322824,94.013504 
	C30.089399,93.992874 30.526928,93.968483 31.305103,93.953705 
	C32.797684,94.310982 33.949615,94.658653 35.027824,95.368057 
	C34.163990,97.842758 32.978722,100.135277 37.008835,100.426414 
	C38.053307,101.172119 39.024693,101.582947 39.998077,102.306770 
	C40.001896,103.037109 40.003716,103.454453 39.737900,103.986359 
	C38.974003,104.375389 38.477730,104.649864 37.981457,104.924332 
z"/>
<path fill="#E0DAD0" opacity="1.000000" stroke="none" 
	d="
M21.030792,91.012405 
	C20.280474,84.918243 22.306208,79.760681 26.981731,75.269760 
	C32.704605,76.656853 37.640152,80.926804 43.026466,76.398788 
	C43.000935,77.496765 42.984676,78.229012 42.671799,79.115120 
	C40.914417,80.177139 39.453655,81.085289 37.560661,81.994980 
	C34.522453,81.429619 31.916471,80.862724 29.310490,80.295837 
	C26.079519,80.805054 26.445766,83.273079 27.959530,86.314301 
	C27.947319,87.054108 27.938204,87.476295 27.680050,88.095558 
	C26.318119,89.217545 25.205227,90.142464 23.708984,91.043289 
	C22.560686,91.016937 21.795738,91.014671 21.030792,91.012405 
z"/>
<path fill="#DEA57A" opacity="1.000000" stroke="none" 
	d="
M98.083626,35.873154 
	C98.023567,35.253544 97.963509,34.633938 97.945084,33.273460 
	C97.634605,30.385756 97.282494,28.238916 97.167938,25.951563 
	C97.625259,25.520161 97.845024,25.229273 98.404213,24.905617 
	C98.874168,23.219027 99.004692,21.565205 99.135223,19.911381 
	C100.003105,20.759342 100.870987,21.607302 101.853867,23.107212 
	C102.272552,24.891539 102.576256,26.023914 102.879959,27.156290 
	C102.932289,27.556797 102.984627,27.957306 103.088768,29.005283 
	C103.961067,31.255602 104.781555,32.858448 105.602036,34.461296 
	C105.752678,35.391151 105.903320,36.321011 106.112900,37.926815 
	C106.983589,39.888268 107.795341,41.173771 108.607094,42.459274 
	C108.761818,43.417500 108.916542,44.375721 108.966843,45.781128 
	C108.684990,46.693893 108.507553,47.159470 107.946976,47.723358 
	C107.040115,47.881500 106.516403,47.941334 105.732254,47.950420 
	C104.957718,46.939064 104.443611,45.978455 103.930511,44.642204 
	C101.982224,41.468758 100.032928,38.670956 98.083626,35.873154 
z"/>
<path fill="#D5A562" opacity="1.000000" stroke="none" 
	d="
M105.992691,48.001167 
	C106.516403,47.941334 107.040115,47.881500 107.927811,47.771698 
	C108.291794,47.721733 108.239197,47.811455 108.164719,48.192642 
	C109.662102,50.727024 111.233955,52.880215 113.064713,55.056534 
	C113.496887,55.080597 113.670174,55.081528 113.843468,55.082458 
	C113.903648,55.802719 113.963829,56.522984 114.002029,57.995567 
	C114.327339,60.495190 114.674629,62.242493 115.021927,63.989792 
	C115.132469,64.766655 115.243011,65.543526 115.419067,66.863831 
	C115.552361,67.701187 115.736214,67.865967 116.036125,67.901596 
	C116.066116,68.076118 116.096115,68.250648 116.148224,69.045181 
	C116.565971,70.993675 117.183136,72.308022 117.269279,73.656296 
	C117.316536,74.395859 116.468094,75.192650 116.023521,75.963638 
	C115.694801,75.488182 115.366081,75.012733 114.959686,73.980728 
	C114.582306,72.958908 114.282600,72.493637 113.982887,72.028366 
	C113.752800,71.511093 113.522713,70.993828 113.095047,69.974396 
	C112.657913,69.213692 112.418365,68.955154 112.178818,68.696609 
	C111.675705,67.563034 111.172600,66.429466 110.401077,64.744148 
	C109.394325,62.819061 108.655991,61.445717 107.917656,60.072372 
	C107.476501,59.453796 107.035339,58.835217 106.160477,57.762581 
	C104.859505,54.178761 102.891563,51.017548 105.992691,48.001167 
z"/>
<path fill="#EBE3D5" opacity="1.000000" stroke="none" 
	d="
M43.035736,76.033043 
	C37.640152,80.926804 32.704605,76.656853 27.281288,75.098755 
	C27.426245,74.048477 27.914766,73.158844 28.685738,72.123604 
	C31.518501,71.533592 34.059326,71.018097 36.623276,70.675797 
	C37.841568,70.513153 39.178265,70.421204 40.331261,70.751396 
	C42.933083,71.496513 45.539635,74.892189 47.898762,70.425423 
	C48.571590,70.993088 49.244419,71.560760 49.790642,72.756653 
	C48.454285,74.273430 47.244537,75.162003 45.659286,76.035553 
	C44.534431,76.024696 43.785084,76.028870 43.035736,76.033043 
z"/>
<path fill="#322A1B" opacity="1.000000" stroke="none" 
	d="
M52.989845,133.804764 
	C51.640877,133.824097 50.291916,133.843430 48.462788,133.481323 
	C45.592392,130.861664 42.826084,131.306488 40.027046,131.984787 
	C35.113766,125.928391 41.055431,124.637306 45.032936,122.139404 
	C46.478073,122.026672 47.223103,121.951149 48.115616,122.192093 
	C50.243565,124.115433 52.390377,125.679329 51.231956,128.187149 
	C51.817917,130.059692 52.403881,131.932220 52.989845,133.804764 
z"/>
<path fill="#93856B" opacity="1.000000" stroke="none" 
	d="
M72.486755,98.101028 
	C73.455627,97.124420 74.816170,96.049217 76.046448,94.841347 
	C77.753059,93.165810 79.361839,91.390610 81.223930,89.036674 
	C82.964043,87.288010 84.492722,86.160751 86.021400,85.033493 
	C89.567421,83.972008 93.113434,82.910515 97.007660,81.958008 
	C90.921310,87.920120 84.868347,94.330170 75.826431,96.271561 
	C74.754181,96.501785 73.819031,97.370522 72.486755,98.101028 
z"/>
<path fill="#E2DFDC" opacity="1.000000" stroke="none" 
	d="
M81.596512,24.999718 
	C82.638130,26.438938 83.285156,27.876570 83.573662,29.656830 
	C80.781006,29.345013 78.346855,28.690569 75.912712,28.036125 
	C73.240089,20.533028 72.677437,13.063272 76.956688,5.968081 
	C77.770020,4.619544 79.756065,3.978299 81.594589,3.017964 
	C81.486343,4.354913 81.367561,6.166654 80.412308,6.925698 
	C77.304382,9.395251 76.603134,12.514051 76.996857,16.580124 
	C75.450722,21.824306 76.652740,24.108133 81.596512,24.999718 
z"/>
<path fill="#D08A4B" opacity="1.000000" stroke="none" 
	d="
M56.610268,98.106613 
	C57.000183,98.123260 56.969704,98.485771 56.656754,98.872269 
	C54.459972,105.836548 56.793053,111.561462 59.793884,117.358810 
	C58.757641,118.316521 57.883430,119.033966 56.719154,119.777969 
	C56.243145,119.748604 56.057190,119.692680 55.706417,119.350861 
	C55.114651,117.579567 54.687698,116.094162 54.260746,114.608757 
	C54.194656,113.946556 54.128571,113.284355 53.989944,112.011292 
	C53.637081,110.897766 53.356758,110.395096 53.076435,109.892426 
	C53.076435,109.892426 53.040451,109.430077 52.963490,108.965851 
	C52.655495,108.275177 52.424465,108.048729 52.193436,107.822273 
	C52.193436,107.822273 52.171867,107.996536 52.198757,107.597969 
	C51.877621,106.453476 51.529598,105.707542 51.181576,104.961617 
	C51.120514,104.529251 51.059452,104.096878 50.982643,102.998032 
	C50.917744,101.597351 50.868595,100.863159 50.815269,100.106888 
	C50.811096,100.084808 50.816601,100.040718 50.816601,100.040718 
	C52.617851,99.390472 54.419102,98.740219 56.610268,98.106613 
z"/>
<path fill="#CB8339" opacity="1.000000" stroke="none" 
	d="
M67.161674,104.049362 
	C68.507896,103.365265 69.854111,102.681168 71.542717,101.977585 
	C72.462753,104.986641 73.099525,108.005371 73.602699,111.046219 
	C74.199226,114.651138 76.100113,116.940216 79.570427,117.827820 
	C77.574097,117.705841 75.786804,117.351471 73.806900,116.722717 
	C72.845589,115.288094 72.076889,114.127846 71.386475,113.085747 
	C70.998734,114.286636 70.559692,115.646408 70.052094,116.616837 
	C69.042915,112.168106 68.102295,108.108734 67.161674,104.049362 
z"/>
<path fill="#C27F2E" opacity="1.000000" stroke="none" 
	d="
M73.999512,116.997108 
	C75.786804,117.351471 77.574097,117.705841 79.681610,118.086365 
	C82.113457,119.536240 84.235474,120.945724 86.291557,122.445587 
	C86.360245,122.495697 85.762199,123.459801 85.118164,123.933533 
	C84.333603,124.376656 83.905823,124.884109 83.105164,125.378296 
	C80.386368,124.528328 78.040443,123.691628 75.544052,122.815971 
	C75.393585,122.777008 75.084900,122.740295 75.017952,122.436798 
	C74.296387,121.077431 73.641777,120.021561 73.004478,118.670135 
	C73.347702,117.915421 73.673607,117.456261 73.999512,116.997108 
z"/>
<path fill="#E8E1D5" opacity="1.000000" stroke="none" 
	d="
M75.968796,28.385389 
	C78.346855,28.690569 80.781006,29.345013 83.606911,30.000477 
	C85.836624,32.203957 89.805443,33.412704 87.226761,37.799728 
	C81.559570,36.989120 78.000473,33.788658 75.968796,28.385389 
z"/>
<path fill="#F9F9F9" opacity="0.000000" stroke="none" 
	d="
M114.329407,24.082621 
	C112.458786,24.011276 110.983971,23.868233 109.509155,23.725189 
	C110.007980,22.318224 110.168320,20.609596 111.087967,19.577673 
	C112.348114,18.163677 114.184662,17.263369 116.464905,15.656014 
	C116.493439,19.106197 119.114944,22.131413 114.329407,24.082621 
z"/>
<path fill="#867B63" opacity="1.000000" stroke="none" 
	d="
M40.005531,103.871788 
	C40.003716,103.454453 40.001896,103.037109 40.189156,102.044815 
	C41.271572,100.226006 42.164909,98.982155 43.424858,97.772903 
	C44.526241,97.856033 45.261005,97.904549 46.228340,98.250824 
	C47.974392,98.694427 49.487873,98.840286 51.001354,98.986145 
	C50.993500,99.165527 50.985641,99.344910 50.897194,99.782509 
	C50.816601,100.040718 50.811096,100.084808 50.536804,100.222183 
	C49.301773,101.071815 48.341042,101.784081 47.380310,102.496338 
	C47.038513,102.469543 46.716736,102.537506 45.818977,102.799683 
	C43.483829,103.223351 41.744678,103.547569 40.005531,103.871788 
z"/>
<path fill="#B1A993" opacity="1.000000" stroke="none" 
	d="
M24.092335,91.067375 
	C25.205227,90.142464 26.318119,89.217545 27.971066,88.368896 
	C28.672007,90.300034 28.832893,92.154892 28.993778,94.009750 
	C27.611954,95.666649 26.230127,97.323547 24.496231,99.014290 
	C24.144161,99.048141 23.835230,98.710945 23.871181,98.040146 
	C23.968864,95.268692 24.030598,93.168037 24.092335,91.067375 
z"/>
<path fill="#CFC9C1" opacity="1.000000" stroke="none" 
	d="
M23.708982,91.043289 
	C24.030598,93.168037 23.968864,95.268692 23.801311,97.822426 
	C21.836857,97.113106 19.978224,95.950722 17.688515,94.518738 
	C18.847927,93.174156 19.644745,92.250076 20.736177,91.169197 
	C21.795738,91.014671 22.560686,91.016937 23.708982,91.043289 
z"/>
<path fill="#FAEAD9" opacity="1.000000" stroke="none" 
	d="
M116.068001,76.316231 
	C116.468094,75.192650 117.316536,74.395859 117.269279,73.656296 
	C117.183136,72.308022 116.565971,70.993675 116.244942,69.292580 
	C117.499077,71.073677 119.326744,73.132820 119.658981,75.410133 
	C119.939301,77.331551 118.432220,79.355324 116.068001,76.316231 
z"/>
<path fill="#F2E8DB" opacity="1.000000" stroke="none" 
	d="
M54.169502,115.005783 
	C54.687698,116.094162 55.114651,117.579567 55.361149,119.532394 
	C52.776508,120.625084 50.372322,121.250351 47.968136,121.875626 
	C47.223103,121.951149 46.478073,122.026672 45.369514,122.004990 
	C46.882439,121.136650 48.953415,120.644127 50.576881,119.510651 
	C52.004238,118.514084 52.930626,116.800003 54.169502,115.005783 
z"/>
<path fill="#F2E8DB" opacity="1.000000" stroke="none" 
	d="
M39.737900,103.986359 
	C41.744678,103.547569 43.483829,103.223351 45.606014,102.928650 
	C45.053665,105.743187 44.532951,105.917282 38.202969,105.205811 
	C38.477730,104.649864 38.974003,104.375389 39.737900,103.986359 
z"/>
<path fill="#FAEAD9" opacity="1.000000" stroke="none" 
	d="
M114.136536,54.871681 
	C113.670174,55.081528 113.496887,55.080597 113.101395,54.704216 
	C112.465279,52.998177 112.051384,51.667583 111.742378,50.239128 
	C111.847275,50.141258 112.056549,49.944965 112.056549,49.944965 
	C113.220100,49.780708 114.383652,49.616451 116.326630,49.342163 
	C115.545883,51.531143 114.987740,53.096024 114.136536,54.871681 
z"/>
<path fill="#6A675C" opacity="1.000000" stroke="none" 
	d="
M39.944817,132.235931 
	C42.826084,131.306488 45.592392,130.861664 48.060432,133.431580 
	C45.680676,133.586349 43.223106,133.409424 40.383865,133.114685 
	C39.955654,132.826950 39.909122,132.657028 39.944817,132.235931 
z"/>
<path fill="#FAEAD9" opacity="1.000000" stroke="none" 
	d="
M115.293800,63.740952 
	C114.674629,62.242493 114.327339,60.495190 114.074112,58.349907 
	C114.634010,59.798649 115.099838,61.645382 115.293800,63.740952 
z"/>
<path fill="#FAEAD9" opacity="1.000000" stroke="none" 
	d="
M107.647820,60.270096 
	C108.655991,61.445717 109.394325,62.819061 110.166855,64.532829 
	C109.106934,64.912567 108.012825,64.951881 106.512917,65.016914 
	C106.530739,63.517696 106.954361,61.992760 107.647820,60.270096 
z"/>
<path fill="#FAEAD9" opacity="1.000000" stroke="none" 
	d="
M108.310959,47.673393 
	C108.507553,47.159470 108.684990,46.693893 109.102417,46.119637 
	C110.215775,47.104012 111.089142,48.197071 112.009529,49.617550 
	C112.056549,49.944965 111.847275,50.141258 111.473167,50.084885 
	C110.145775,49.289490 109.192482,48.550472 108.239197,47.811455 
	C108.239197,47.811455 108.291794,47.721733 108.310959,47.673393 
z"/>
<path fill="#FAEAD9" opacity="1.000000" stroke="none" 
	d="
M108.719444,42.078655 
	C107.795341,41.173771 106.983589,39.888268 106.228912,38.260979 
	C107.134598,39.178810 107.983200,40.438423 108.719444,42.078655 
z"/>
<path fill="#FAEAD9" opacity="1.000000" stroke="none" 
	d="
M105.697464,34.079586 
	C104.781555,32.858448 103.961067,31.255602 103.175613,29.296064 
	C104.071396,30.525541 104.932144,32.111710 105.697464,34.079586 
z"/>
<path fill="#F2E8DB" opacity="0.000000" stroke="none" 
	d="
M47.791466,102.645172 
	C48.341042,101.784081 49.301773,101.071815 50.540977,100.244263 
	C50.868595,100.863159 50.917744,101.597351 50.875153,102.687973 
	C49.923145,102.960938 49.062885,102.877472 47.791466,102.645172 
z"/>
<path fill="#F2E8DB" opacity="1.000000" stroke="none" 
	d="
M30.263672,107.495552 
	C31.143366,107.007812 32.262249,106.716850 33.736351,106.510391 
	C32.895332,106.960709 31.699095,107.326523 30.263672,107.495552 
z"/>
<path fill="#F2E8DB" opacity="0.000000" stroke="none" 
	d="
M50.916977,105.115623 
	C51.529598,105.707542 51.877621,106.453476 52.230331,107.516037 
	C51.707470,106.978333 51.179924,106.123978 50.916977,105.115623 
z"/>
<path fill="#FAEAD9" opacity="1.000000" stroke="none" 
	d="
M102.928200,26.741440 
	C102.576256,26.023914 102.272552,24.891539 101.998077,23.393955 
	C102.027306,23.028748 102.502953,23.013988 102.740601,23.009226 
	C102.977646,24.111839 102.977043,25.219213 102.928200,26.741440 
z"/>
<path fill="#93856B" opacity="1.000000" stroke="none" 
	d="
M100.287766,78.149078 
	C100.158722,77.658714 100.281441,77.221588 100.404160,76.784462 
	C100.570595,77.018654 100.737038,77.252853 100.947311,77.721283 
	C100.840614,78.037781 100.690071,78.120041 100.287766,78.149078 
z"/>
<path fill="#93856B" opacity="1.000000" stroke="none" 
	d="
M99.292694,80.067688 
	C99.199051,79.647522 99.372276,79.016106 99.811310,78.188423 
	C99.904594,78.613586 99.732071,79.235016 99.292694,80.067688 
z"/>
<path fill="#FAEAD9" opacity="1.000000" stroke="none" 
	d="
M113.983154,72.311447 
	C114.282600,72.493637 114.582306,72.958908 114.843292,73.714630 
	C114.530853,73.534897 114.257133,73.064705 113.983154,72.311447 
z"/>
<path fill="#F2E8DB" opacity="1.000000" stroke="none" 
	d="
M53.042404,110.192093 
	C53.356758,110.395096 53.637081,110.897766 53.874893,111.697189 
	C53.557709,111.493202 53.283039,110.992477 53.042404,110.192093 
z"/>
<path fill="#D2C9B1" opacity="1.000000" stroke="none" 
	d="
M105.831116,69.780754 
	C105.633537,69.763145 105.427414,69.496681 105.255615,68.969467 
	C105.569641,68.917038 105.747185,69.191429 105.831116,69.780754 
z"/>
<path fill="#FAEAD9" opacity="1.000000" stroke="none" 
	d="
M112.193817,68.973740 
	C112.418365,68.955154 112.657913,69.213692 112.935867,69.737869 
	C112.719131,69.752617 112.463974,69.501747 112.193817,68.973740 
z"/>
<path fill="#FAEAD9" opacity="1.000000" stroke="none" 
	d="
M116.011154,67.742645 
	C115.736214,67.865967 115.552361,67.701187 115.566177,67.229324 
	C115.805359,67.200333 115.918152,67.377769 116.011154,67.742645 
z"/>
<path fill="#F2E8DB" opacity="1.000000" stroke="none" 
	d="
M52.197212,108.067818 
	C52.424465,108.048729 52.655495,108.275177 52.871864,108.752853 
	C52.530949,108.876015 52.312210,108.645775 52.197212,108.067818 
z"/>
<path fill="#EBE3D5" opacity="1.000000" stroke="none" 
	d="
M73.998924,55.663357 
	C72.688370,57.769131 71.379501,59.542377 69.785736,61.657330 
	C69.333351,61.998642 69.165871,61.998245 68.927666,61.632591 
	C65.363670,59.514008 58.060253,62.194122 55.862206,66.264145 
	C55.155388,67.358284 54.575962,68.177521 53.822845,69.238266 
	C53.091293,69.632805 52.533428,69.785835 51.975567,69.938866 
	C52.924431,66.758293 53.687004,63.505905 54.877186,60.418358 
	C55.958321,57.613720 58.041431,57.305130 61.190113,57.293621 
	C65.220650,57.278885 69.243782,55.242100 73.634750,54.038631 
	C73.999794,54.444016 74.000206,54.887424 73.998924,55.663357 
z"/>
<path fill="#C6BFAA" opacity="1.000000" stroke="none" 
	d="
M51.951126,70.256546 
	C52.533428,69.785835 53.091293,69.632805 54.188442,69.248306 
	C55.200649,70.106987 56.181107,71.279106 56.021530,72.267097 
	C55.808933,73.583366 54.709469,74.756393 53.939171,76.314926 
	C52.580910,78.076599 51.274448,79.514290 49.713097,80.954430 
	C49.288445,80.949440 49.118675,80.942009 48.901588,80.627121 
	C48.249878,80.200890 47.569477,79.840698 47.053619,80.003120 
	C44.034134,80.953850 41.053139,82.026810 38.040657,82.792068 
	C38.012409,82.348236 38.002655,82.170845 37.992897,81.993446 
	C39.453655,81.085289 40.914417,80.177139 43.044746,79.122368 
	C44.487808,78.000687 45.261295,77.025627 46.034790,76.050575 
	C47.244537,75.162003 48.454285,74.273430 49.832169,73.088028 
	C50.642433,72.052208 51.284561,71.313225 51.951126,70.256546 
z"/>
<path fill="#B1A993" opacity="1.000000" stroke="none" 
	d="
M38.059158,83.058525 
	C41.053139,82.026810 44.034134,80.953850 47.053619,80.003120 
	C47.569477,79.840698 48.249878,80.200890 48.772381,80.924026 
	C48.385677,82.326920 48.080860,83.125443 47.776047,83.923965 
	C47.186676,85.038437 46.597301,86.152916 45.975372,87.962723 
	C45.304371,89.781586 44.665928,90.905128 43.722313,91.900597 
	C41.944420,91.845650 40.471695,91.918777 38.889496,91.794144 
	C38.411758,91.507927 38.043499,91.419479 37.675240,91.331024 
	C37.789639,91.557793 37.904037,91.784554 38.022408,92.381386 
	C38.025723,93.491608 38.025063,94.231773 37.657623,94.982010 
	C36.561077,94.996841 35.831314,95.001587 35.101551,95.006332 
	C33.949615,94.658653 32.797684,94.310982 31.280394,93.614822 
	C28.542027,88.744576 34.005821,88.628799 35.277458,85.865601 
	C36.389565,84.840164 37.224361,83.949348 38.059158,83.058525 
z"/>
<path fill="#E9E3CE" opacity="1.000000" stroke="none" 
	d="
M101.990562,63.995811 
	C98.955627,70.710060 94.338379,75.575111 86.227097,76.759743 
	C85.111923,76.335762 84.553658,76.159660 83.996819,75.653046 
	C83.998833,74.881378 83.999420,74.440231 84.347839,73.964218 
	C88.054985,71.514694 91.414307,69.100044 94.541321,66.852371 
	C94.357201,63.802013 94.182037,60.899902 94.395111,58.043831 
	C96.855362,58.391670 98.927376,58.693470 101.000389,59.382412 
	C101.331116,61.178307 101.660835,62.587059 101.990562,63.995811 
z"/>
<path fill="#DDD6C2" opacity="1.000000" stroke="none" 
	d="
M48.123711,84.081497 
	C48.080860,83.125443 48.385677,82.326920 48.819702,81.231491 
	C49.118675,80.942009 49.288445,80.949440 49.773201,81.302971 
	C51.317471,81.568977 53.330944,81.916153 53.645973,81.337936 
	C55.401840,78.115211 57.998764,78.491806 60.792038,79.108170 
	C62.205193,79.420006 63.619919,79.724701 65.033936,80.032631 
	C61.805008,86.942101 54.128036,88.891823 48.123711,84.081497 
z"/>
<path fill="#E4DECB" opacity="1.000000" stroke="none" 
	d="
M65.357307,80.028862 
	C63.619919,79.724701 62.205193,79.420006 60.792038,79.108170 
	C57.998764,78.491806 55.401840,78.115211 53.645973,81.337936 
	C53.330944,81.916153 51.317471,81.568977 50.028088,81.300522 
	C51.274448,79.514290 52.580910,78.076599 54.259636,76.295410 
	C55.420120,75.632988 56.208344,75.314056 57.060181,75.349251 
	C59.081810,76.466881 61.039825,77.230385 63.393547,77.995865 
	C65.194321,77.333618 66.599388,76.669403 68.416519,76.004692 
	C71.220596,76.337776 73.612625,76.671364 75.945312,77.348465 
	C74.257027,78.793518 72.628067,79.895058 70.999115,80.996597 
	C70.555656,81.001411 70.112190,81.006226 69.168121,80.761574 
	C68.103455,80.348763 67.539391,80.185417 66.975334,80.022064 
	C66.543785,80.023071 66.112228,80.024086 65.357307,80.028862 
z"/>
<path fill="#E5D8BE" opacity="1.000000" stroke="none" 
	d="
M102.270050,63.760612 
	C101.660835,62.587059 101.331116,61.178307 101.000259,58.984661 
	C99.094116,54.005486 101.290909,50.529907 102.969193,46.638863 
	C102.966530,45.881947 102.962631,45.449429 103.201431,45.012508 
	C103.444130,45.008102 103.929512,45.017845 103.929512,45.017845 
	C104.443611,45.978455 104.957718,46.939064 105.732254,47.950420 
	C102.891563,51.017548 104.859505,54.178761 105.892090,57.641727 
	C104.888130,59.825092 103.718834,61.675255 102.270050,63.760612 
z"/>
<path fill="#C8BCA2" opacity="1.000000" stroke="none" 
	d="
M38.024403,94.971931 
	C38.025063,94.231773 38.025723,93.491608 38.267452,92.377098 
	C38.508522,92.002747 38.998974,91.991905 38.998974,91.991905 
	C40.471695,91.918777 41.944420,91.845650 43.949100,92.167053 
	C46.322777,93.038551 48.164494,93.515533 50.006210,93.992523 
	C50.174152,93.994728 50.342098,93.996925 50.761993,94.007812 
	C51.007778,94.746841 51.001614,95.477196 50.610977,96.583687 
	C48.816261,97.290909 47.406017,97.621986 45.995773,97.953072 
	C45.261005,97.904549 44.526241,97.856033 43.429291,97.574059 
	C43.067108,97.340607 43.043293,96.938568 42.979061,96.598892 
	C41.944351,95.836685 40.973869,95.414162 39.672218,94.984421 
	C38.899593,94.977348 38.458141,94.977493 38.010689,94.984436 
	C38.004692,94.991226 38.024403,94.971931 38.024403,94.971931 
z"/>
<path fill="#DDD6C2" opacity="1.000000" stroke="none" 
	d="
M71.422188,80.998283 
	C72.628067,79.895058 74.257027,78.793518 76.194016,77.346405 
	C76.502045,77.000824 76.999573,76.999451 77.374680,76.999710 
	C78.502357,76.994698 79.254921,76.989418 80.304138,76.966522 
	C81.067116,76.630981 81.533447,76.313065 82.332413,75.996048 
	C83.108505,75.992493 83.551949,75.988022 83.995392,75.983551 
	C84.553658,76.159660 85.111923,76.335762 85.835464,76.761375 
	C82.327362,82.049248 76.381874,79.024857 71.422188,80.998283 
z"/>
<path fill="#CCC2AD" opacity="1.000000" stroke="none" 
	d="
M49.996712,93.626297 
	C48.164494,93.515533 46.322777,93.038551 44.254272,92.295120 
	C44.665928,90.905128 45.304371,89.781586 45.984207,88.326645 
	C47.346134,89.750183 48.666672,91.505127 49.996712,93.626297 
z"/>
<path fill="#DDD6C2" opacity="1.000000" stroke="none" 
	d="
M67.004700,80.321640 
	C67.539391,80.185417 68.103455,80.348763 68.835503,80.761871 
	C68.821503,81.440475 68.639511,81.869316 68.457527,82.298164 
	C67.983040,81.739182 67.508553,81.180199 67.004700,80.321640 
z"/>
<path fill="#AB9975" opacity="1.000000" stroke="none" 
	d="
M75.809853,87.751495 
	C74.459297,93.170898 69.133163,91.852776 65.436142,94.003845 
	C63.627918,93.369011 62.185989,92.685631 60.372032,92.001129 
	C60.000000,92.000000 60.002914,92.002861 60.002914,92.002861 
	C61.612690,90.418083 63.222462,88.833305 64.832230,87.248520 
	C65.161575,88.023224 65.490921,88.797920 65.820267,89.572624 
	C67.206451,89.716583 68.689865,90.240601 69.956337,89.916603 
	C71.920792,89.414047 73.737404,88.333542 75.809853,87.751495 
z"/>
<path fill="#AB9975" opacity="1.000000" stroke="none" 
	d="
M85.609955,85.020370 
	C84.492722,86.160751 82.964043,87.288010 81.224762,88.655762 
	C80.141212,88.763481 79.268272,88.630699 78.194321,88.227158 
	C80.395035,86.973351 82.796768,85.990303 85.609955,85.020370 
z"/>
<path fill="#A79B7C" opacity="1.000000" stroke="none" 
	d="
M46.228340,98.250824 
	C47.406017,97.621986 48.816261,97.290909 50.613026,96.949127 
	C51.003639,97.393852 51.007736,97.849281 51.006592,98.645432 
	C49.487873,98.840286 47.974392,98.694427 46.228340,98.250824 
z"/>
<path fill="#AB9975" opacity="1.000000" stroke="none" 
	d="
M59.999046,91.998627 
	C59.648586,92.245552 59.300377,92.495872 58.939358,92.726097 
	C58.932850,92.730240 58.773186,92.494217 58.684986,92.370255 
	C58.963200,92.254181 59.241409,92.138107 59.761269,92.012451 
	C60.002914,92.002861 60.000000,92.000000 59.999046,91.998627 
z"/>
<path fill="#D79133" opacity="1.000000" stroke="none" 
	d="
M96.930374,26.092075 
	C97.282494,28.238916 97.634605,30.385756 97.964401,32.962585 
	C97.731216,33.324924 97.520355,33.257267 96.853775,32.882431 
	C95.597374,32.415581 94.796677,32.255909 93.995987,32.096237 
	C93.995987,32.096237 93.983810,32.018925 93.803871,31.751673 
	C92.402718,30.723717 91.181511,29.963013 89.960297,29.202305 
	C88.773880,28.307369 87.587463,27.412434 86.280914,25.830050 
	C86.156708,23.790102 86.152626,22.437603 86.148544,21.085102 
	C86.148544,21.085102 86.567894,21.108683 86.975075,21.365805 
	C90.564964,23.112644 93.747673,24.602360 96.930374,26.092075 
z"/>
<path fill="#E4CBB0" opacity="1.000000" stroke="none" 
	d="
M97.167938,25.951561 
	C93.747673,24.602360 90.564964,23.112644 87.184326,21.347988 
	C87.765808,16.883974 89.277023,18.137247 90.876038,20.656443 
	C92.400421,18.740692 93.857933,16.908993 95.915291,14.323434 
	C96.464752,16.136408 96.749962,17.077484 96.760773,18.586037 
	C97.012512,21.081802 97.538651,23.010092 98.064789,24.938383 
	C97.845024,25.229273 97.625259,25.520161 97.167938,25.951561 
z"/>
<path fill="#E5AE29" opacity="1.000000" stroke="none" 
	d="
M98.404213,24.905617 
	C97.538651,23.010092 97.012512,21.081802 96.771515,18.938595 
	C97.649139,18.931782 98.241631,19.139883 98.984665,19.629684 
	C99.004692,21.565205 98.874168,23.219027 98.404213,24.905617 
z"/>
<path fill="#E4CBB0" opacity="1.000000" stroke="none" 
	d="
M85.840317,21.069799 
	C86.152626,22.437603 86.156708,23.790102 86.130226,25.548615 
	C85.518730,25.796503 84.937805,25.638384 84.165802,25.238232 
	C84.493851,23.682301 85.012970,22.368399 85.840317,21.069799 
z"/>
<path fill="#F3EDDC" opacity="1.000000" stroke="none" 
	d="
M68.998390,61.997849 
	C69.165871,61.998245 69.333351,61.998642 69.752090,61.999077 
	C71.836388,62.663006 73.623283,63.680962 75.510780,63.926933 
	C82.188522,64.797134 84.777779,62.775757 88.162399,55.070728 
	C89.241699,52.613720 90.887482,50.405548 92.884796,48.042057 
	C93.662880,48.000652 93.830223,48.000713 93.996948,48.333218 
	C93.994171,49.108879 93.992012,49.552094 93.616920,50.043877 
	C92.518028,50.889206 91.342400,51.588013 91.143799,52.499664 
	C90.273926,56.492729 89.389977,60.525799 89.093964,64.586830 
	C88.867783,67.689812 87.881744,69.217331 84.670609,69.010933 
	C82.862091,68.894699 80.633514,69.591415 79.300285,68.772415 
	C72.776482,64.764893 69.101013,69.405815 64.603065,72.999054 
	C62.800838,72.329491 61.394634,71.659035 60.145874,70.689003 
	C63.201679,67.592239 66.100037,64.795044 68.998390,61.997849 
z"/>
<path fill="#F0EAD7" opacity="1.000000" stroke="none" 
	d="
M93.997559,48.000771 
	C93.830223,48.000713 93.662880,48.000652 93.244453,47.999748 
	C93.153358,47.136215 93.313347,46.273533 93.735565,45.205212 
	C95.766914,44.025429 97.536034,43.051285 99.915802,42.238712 
	C101.337219,43.272495 102.147980,44.144703 102.958740,45.016914 
	C102.962631,45.449429 102.966530,45.881947 102.584793,46.642986 
	C100.151680,47.425034 97.425362,43.806313 95.668045,48.002937 
	C94.888489,48.001129 94.443024,48.000950 93.997559,48.000771 
z"/>
<path fill="#3F3220" opacity="1.000000" stroke="none" 
	d="
M48.115616,122.192085 
	C50.372322,121.250351 52.776508,120.625084 55.525963,119.818283 
	C56.057190,119.692680 56.243145,119.748604 56.941154,120.085907 
	C57.954124,122.039757 58.455044,123.712219 59.018562,125.741035 
	C59.739414,128.433502 60.397659,130.769638 60.805748,133.271866 
	C59.396904,133.841949 58.238220,134.245941 57.079533,134.649918 
	C55.955669,134.523422 54.831810,134.396927 53.348896,134.037598 
	C52.403881,131.932220 51.817917,130.059692 51.231956,128.187149 
	C52.390377,125.679329 50.243565,124.115433 48.115616,122.192085 
z"/>
<path fill="#6B5C49" opacity="1.000000" stroke="none" 
	d="
M75.694519,122.854935 
	C78.040443,123.691628 80.386368,124.528328 82.977875,125.628387 
	C83.716278,133.479477 82.214340,134.481812 71.322723,133.097443 
	C70.954224,131.743347 70.985657,130.858780 71.018066,129.580353 
	C71.022476,128.135376 71.025909,127.084274 71.410095,126.023682 
	C72.554314,126.019508 73.317780,126.024841 74.050934,126.390823 
	C74.257568,127.320976 74.494522,127.890495 74.731468,128.460007 
	C75.135536,128.076187 75.867569,127.706665 75.885040,127.305977 
	C75.949516,125.827873 75.777565,124.339462 75.694519,122.854935 
z"/>
<path fill="#533F24" opacity="1.000000" stroke="none" 
	d="
M71.017090,129.974213 
	C70.985657,130.858780 70.954224,131.743347 70.893044,132.951447 
	C70.158257,133.497513 69.453209,133.720032 68.090126,133.676147 
	C65.306694,133.308411 63.181297,133.207077 61.055904,133.105759 
	C60.397659,130.769638 59.739414,128.433502 59.377495,125.664948 
	C61.812206,125.859055 63.950600,126.485596 66.106995,127.431221 
	C66.749046,128.201767 67.373093,128.653244 68.219910,129.345978 
	C69.300827,129.716232 70.158958,129.845230 71.017090,129.974213 
z"/>
<path fill="#6A675C" opacity="1.000000" stroke="none" 
	d="
M60.805748,133.271866 
	C63.181297,133.207077 65.306694,133.308411 67.713364,133.674805 
	C64.586555,134.280548 61.178455,134.621231 57.424946,134.805908 
	C58.238220,134.245941 59.396904,133.841949 60.805748,133.271866 
z"/>
<path fill="#ECDEC2" opacity="1.000000" stroke="none" 
	d="
M103.201431,45.012508 
	C102.147980,44.144703 101.337219,43.272495 100.268959,42.199482 
	C99.349213,40.208298 98.686966,38.417915 98.054169,36.250343 
	C100.032928,38.670956 101.982224,41.468758 103.930511,44.642204 
	C103.929512,45.017845 103.444130,45.008102 103.201431,45.012508 
z"/>
<path fill="#ECDEC2" opacity="1.000000" stroke="none" 
	d="
M89.930878,29.526148 
	C91.181511,29.963013 92.402718,30.723717 93.765991,31.761513 
	C92.510353,32.218117 91.112648,32.397633 89.290947,32.631599 
	C89.525497,31.562956 89.713478,30.706472 89.930878,29.526148 
z"/>
<path fill="#ECDEC2" opacity="1.000000" stroke="none" 
	d="
M94.179886,32.333878 
	C94.796677,32.255909 95.597374,32.415581 96.522705,32.855392 
	C95.886162,32.947529 95.124969,32.759521 94.179886,32.333878 
z"/>
<path fill="#FBF4E9" opacity="0.000000" stroke="none" 
	d="
M67.068077,103.633255 
	C68.102295,108.108734 69.042915,112.168106 70.007492,116.631554 
	C70.031441,117.035629 70.066750,117.122261 69.775017,117.171844 
	C69.008514,117.532387 68.533737,117.843353 67.654404,118.098740 
	C66.161636,118.012825 65.073410,117.982491 63.703487,117.788681 
	C62.993111,117.623283 62.564430,117.621353 61.888443,117.479828 
	C61.079391,117.266342 60.517654,117.192451 59.955914,117.118553 
	C56.793053,111.561462 54.459972,105.836548 56.640186,99.053413 
	C59.118660,99.223282 61.303822,99.912697 63.482037,99.891403 
	C66.005028,99.866737 67.178047,100.663925 67.068077,103.633255 
z"/>
<path fill="#B4AC92" opacity="1.000000" stroke="none" 
	d="
M40.003391,94.991638 
	C40.973869,95.414162 41.944351,95.836685 42.632908,96.650909 
	C40.545906,98.058914 38.740826,99.075218 36.935745,100.091522 
	C32.978722,100.135277 34.163990,97.842758 35.027824,95.368050 
	C35.831314,95.001587 36.561077,94.996841 37.657623,94.982010 
	C38.024403,94.971931 38.004692,94.991226 38.148911,95.216019 
	C38.863220,95.291084 39.433308,95.141365 40.003391,94.991638 
z"/>
<path fill="#C6BFAA" opacity="1.000000" stroke="none" 
	d="
M35.000153,86.000221 
	C34.005821,88.628799 28.542027,88.744576 30.939749,93.605209 
	C30.526928,93.968483 30.089399,93.992874 29.322823,94.013504 
	C28.832893,92.154892 28.672007,90.300034 28.220106,88.171829 
	C27.938204,87.476295 27.947319,87.054108 28.294830,86.170486 
	C30.755533,85.806114 32.877842,85.903168 35.000153,86.000221 
z"/>
<path fill="#A79B7C" opacity="1.000000" stroke="none" 
	d="
M37.008835,100.426407 
	C38.740826,99.075218 40.545906,98.058914 42.697140,96.990585 
	C43.043293,96.938568 43.067108,97.340607 43.062675,97.539459 
	C42.164909,98.982155 41.271572,100.226006 40.187157,101.731812 
	C39.024693,101.582947 38.053307,101.172119 37.008835,100.426407 
z"/>
<path fill="#D6CFBB" opacity="1.000000" stroke="none" 
	d="
M35.277458,85.865601 
	C32.877842,85.903168 30.755533,85.806114 28.297924,85.852875 
	C26.445766,83.273079 26.079519,80.805054 29.310490,80.295837 
	C31.916471,80.862724 34.522453,81.429619 37.560665,81.994980 
	C38.002655,82.170845 38.012409,82.348236 38.040657,82.792068 
	C37.224361,83.949348 36.389565,84.840164 35.277458,85.865601 
z"/>
<path fill="#D6CFBB" opacity="1.000000" stroke="none" 
	d="
M45.659283,76.035553 
	C45.261295,77.025627 44.487808,78.000687 43.341370,78.968498 
	C42.984676,78.229012 43.000935,77.496765 43.026466,76.398788 
	C43.785084,76.028870 44.534431,76.024696 45.659283,76.035553 
z"/>
<path fill="#DEA57A" opacity="1.000000" stroke="none" 
	d="
M108.164719,48.192642 
	C109.192482,48.550472 110.145775,49.289490 111.368271,50.182751 
	C112.051384,51.667583 112.465279,52.998177 112.842491,54.681084 
	C111.233955,52.880215 109.662102,50.727024 108.164719,48.192642 
z"/>
<path fill="#CB7516" opacity="1.000000" stroke="none" 
	d="
M59.793884,117.358810 
	C60.517654,117.192451 61.079391,117.266342 61.943790,117.764061 
	C62.826027,118.109314 63.405609,118.030739 63.985188,117.952164 
	C65.073410,117.982491 66.161636,118.012825 67.825760,118.312241 
	C68.956696,118.094978 69.511726,117.608620 70.066757,117.122269 
	C70.066750,117.122261 70.031441,117.035629 70.076050,117.020905 
	C70.559692,115.646408 70.998734,114.286636 71.386475,113.085747 
	C72.076889,114.127846 72.845589,115.288094 73.806892,116.722717 
	C73.673607,117.456261 73.347702,117.915421 72.982391,119.033142 
	C72.897423,120.173698 72.851875,120.655708 72.564041,121.337143 
	C71.202919,122.667572 70.084084,123.798553 68.647057,124.975754 
	C67.849686,125.649384 67.370514,126.276802 66.686653,126.940353 
	C66.481956,126.976479 66.088989,127.112137 66.088989,127.112137 
	C63.950600,126.485596 61.812206,125.859055 59.314888,125.308601 
	C58.455044,123.712219 57.954124,122.039757 57.231213,120.059357 
	C57.883430,119.033966 58.757641,118.316521 59.793884,117.358810 
z"/>
<path fill="#93856B" opacity="1.000000" stroke="none" 
	d="
M75.544052,122.815964 
	C75.777565,124.339462 75.949516,125.827873 75.885040,127.305977 
	C75.867569,127.706665 75.135536,128.076187 74.731468,128.460007 
	C74.494522,127.890495 74.257568,127.320976 74.286705,126.191772 
	C74.700851,125.033791 74.848915,124.435501 74.995911,123.561142 
	C75.024849,123.103477 75.054871,122.921883 75.084900,122.740295 
	C75.084900,122.740295 75.393585,122.777008 75.544052,122.815964 
z"/>
<path fill="#AB9975" opacity="1.000000" stroke="none" 
	d="
M75.017952,122.436798 
	C75.054871,122.921883 75.024849,123.103477 74.673660,123.521042 
	C73.837097,122.883919 73.321709,122.010818 72.806328,121.137711 
	C72.851875,120.655708 72.897423,120.173698 72.965073,119.328690 
	C73.641777,120.021561 74.296387,121.077431 75.017952,122.436798 
z"/>
<path fill="#E1DAC6" opacity="1.000000" stroke="none" 
	d="
M68.927666,61.632595 
	C66.100037,64.795044 63.201679,67.592239 59.895760,70.689987 
	C59.321369,70.988731 59.154537,70.986916 58.984741,70.618713 
	C57.984383,68.831291 56.986988,67.410263 55.989594,65.989235 
	C58.060253,62.194122 65.363670,59.514008 68.927666,61.632595 
z"/>
<path fill="#D6CFBB" opacity="1.000000" stroke="none" 
	d="
M55.862206,66.264145 
	C56.986988,67.410263 57.984383,68.831291 58.730347,70.836555 
	C57.984802,72.612228 57.490681,73.803673 56.996567,74.995125 
	C56.208344,75.314056 55.420120,75.632988 54.311432,75.971436 
	C54.709469,74.756393 55.808933,73.583366 56.021530,72.267097 
	C56.181107,71.279106 55.200649,70.106987 54.362133,69.006790 
	C54.575962,68.177521 55.155388,67.358284 55.862206,66.264145 
z"/>
<path fill="#B4AC92" opacity="1.000000" stroke="none" 
	d="
M38.889496,91.794144 
	C38.998974,91.991905 38.508522,92.002747 38.263481,92.007034 
	C37.904037,91.784554 37.789639,91.557793 37.675240,91.331024 
	C38.043499,91.419479 38.411758,91.507927 38.889496,91.794144 
z"/>
<path fill="#F0EAD7" opacity="1.000000" stroke="none" 
	d="
M64.999084,72.998169 
	C69.101013,69.405815 72.776482,64.764893 79.300285,68.772415 
	C80.633514,69.591415 82.862091,68.894699 84.670609,69.010933 
	C87.881744,69.217331 88.867783,67.689812 89.093964,64.586830 
	C89.389977,60.525799 90.273926,56.492729 91.143799,52.499664 
	C91.342400,51.588013 92.518028,50.889206 93.727730,50.263348 
	C94.411491,50.709522 94.673927,50.897789 94.998062,51.398056 
	C94.667183,53.863960 94.337021,55.930874 94.006866,57.997791 
	C94.182037,60.899902 94.357201,63.802013 94.541321,66.852371 
	C91.414307,69.100044 88.054985,71.514694 84.162750,73.701996 
	C82.419899,73.649727 81.209961,73.824806 79.625008,73.999939 
	C78.500008,74.000069 77.750023,74.000160 76.743912,73.719055 
	C72.658226,73.291306 68.828651,73.144737 64.999084,72.998169 
z"/>
<path fill="#ECDEC2" opacity="1.000000" stroke="none" 
	d="
M94.395103,58.043831 
	C94.337021,55.930874 94.667183,53.863960 95.261017,51.193493 
	C95.683846,49.728146 95.842987,48.866352 96.002136,48.004559 
	C97.425362,43.806313 100.151680,47.425034 102.583549,46.967384 
	C101.290909,50.529907 99.094116,54.005486 100.999260,58.597519 
	C98.927376,58.693470 96.855362,58.391670 94.395103,58.043831 
z"/>
<path fill="#EBE5D3" opacity="1.000000" stroke="none" 
	d="
M80.000015,73.999893 
	C81.209961,73.824806 82.419899,73.649727 83.814926,73.736862 
	C83.999420,74.440231 83.998833,74.881378 83.996819,75.653038 
	C83.551949,75.988022 83.108505,75.992493 82.290634,75.675964 
	C81.276649,74.904488 80.637108,74.454018 79.998772,74.001770 
	C79.999985,74.000000 80.000015,73.999893 80.000015,73.999893 
z"/>
<path fill="#EBE5D3" opacity="1.000000" stroke="none" 
	d="
M64.603065,72.999054 
	C68.828651,73.144737 72.658226,73.291306 76.743950,74.093964 
	C76.999924,75.499855 76.999748,76.249657 76.999573,76.999451 
	C76.999573,76.999451 76.502045,77.000824 76.253342,77.002884 
	C73.612625,76.671364 71.220596,76.337776 68.020576,76.002945 
	C65.807663,76.665764 64.402748,77.329826 62.997841,77.993896 
	C61.039825,77.230385 59.081810,76.466881 57.060177,75.349251 
	C57.490681,73.803673 57.984802,72.612228 58.733315,71.202942 
	C59.154537,70.986916 59.321369,70.988731 59.738316,70.989563 
	C61.394634,71.659035 62.800838,72.329491 64.603065,72.999054 
z"/>
<path fill="#E9E3CE" opacity="1.000000" stroke="none" 
	d="
M63.393547,77.995865 
	C64.402748,77.329826 65.807663,76.665764 67.608521,76.003448 
	C66.599388,76.669403 65.194321,77.333618 63.393547,77.995865 
z"/>
<path fill="#B1A993" opacity="1.000000" stroke="none" 
	d="
M39.672218,94.984421 
	C39.433308,95.141365 38.863220,95.291084 38.154907,95.209221 
	C38.458141,94.977493 38.899593,94.977348 39.672218,94.984421 
z"/>
<path fill="#E4DECB" opacity="1.000000" stroke="none" 
	d="
M77.374680,76.999710 
	C76.999748,76.249657 76.999924,75.499855 77.000069,74.375153 
	C77.750023,74.000160 78.500008,74.000069 79.625008,73.999939 
	C80.000015,73.999893 79.999985,74.000000 79.999397,74.374474 
	C80.001701,75.494011 80.004601,76.239067 80.007492,76.984131 
	C79.254921,76.989418 78.502357,76.994698 77.374680,76.999710 
z"/>
<path fill="#E9E3CE" opacity="1.000000" stroke="none" 
	d="
M80.304138,76.966522 
	C80.004601,76.239067 80.001701,75.494011 79.998184,74.376251 
	C80.637108,74.454018 81.276649,74.904488 81.957985,75.675049 
	C81.533447,76.313065 81.067116,76.630981 80.304138,76.966522 
z"/>
<path fill="#E9E3CE" opacity="1.000000" stroke="none" 
	d="
M95.668045,48.002937 
	C95.842987,48.866352 95.683846,49.728146 95.261742,50.794502 
	C94.673927,50.897789 94.411491,50.709522 94.100662,50.214783 
	C93.992012,49.552094 93.994171,49.108879 93.996948,48.333218 
	C94.443024,48.000950 94.888489,48.001129 95.668045,48.002937 
z"/>
<path fill="#6C4C22" opacity="1.000000" stroke="none" 
	d="
M72.564041,121.337143 
	C73.321709,122.010818 73.837097,122.883919 74.674728,123.797119 
	C74.848915,124.435501 74.700851,125.033791 74.317017,125.831123 
	C73.317780,126.024841 72.554314,126.019508 71.125183,126.012100 
	C70.080147,126.002533 69.700768,125.995041 69.216827,125.727722 
	C69.063255,125.288452 69.014259,125.108994 68.965256,124.929543 
	C70.084084,123.798553 71.202919,122.667572 72.564041,121.337143 
z"/>
<path fill="#5E513B" opacity="1.000000" stroke="none" 
	d="
M69.321396,125.987549 
	C69.700768,125.995041 70.080147,126.002533 70.744431,126.021591 
	C71.025909,127.084274 71.022476,128.135376 71.018066,129.580353 
	C70.158958,129.845230 69.300827,129.716232 68.235741,129.020248 
	C68.061790,128.022171 68.094795,127.591087 68.362549,127.004929 
	C68.838669,126.562408 69.080032,126.274986 69.321396,125.987549 
z"/>
<path fill="#6A675C" opacity="1.000000" stroke="none" 
	d="
M68.127800,127.160011 
	C68.094795,127.591087 68.061790,128.022171 68.012955,128.778976 
	C67.373093,128.653244 66.749046,128.201767 66.106995,127.431221 
	C66.088989,127.112137 66.481956,126.976479 66.995956,127.005493 
	C67.715904,127.076340 67.921852,127.118172 68.127800,127.160011 
z"/>
<path fill="#CB8339" opacity="1.000000" stroke="none" 
	d="
M69.775024,117.171844 
	C69.511726,117.608620 68.956696,118.094978 68.230316,118.367828 
	C68.533737,117.843353 69.008514,117.532387 69.775024,117.171844 
z"/>
<path fill="#CB8339" opacity="1.000000" stroke="none" 
	d="
M63.703487,117.788681 
	C63.405609,118.030739 62.826027,118.109314 62.191101,117.903656 
	C62.564430,117.621353 62.993111,117.623283 63.703487,117.788681 
z"/>
<path fill="#93744E" opacity="1.000000" stroke="none" 
	d="
M68.362549,127.004929 
	C67.921852,127.118172 67.715904,127.076340 67.200653,126.969368 
	C67.370514,126.276802 67.849686,125.649384 68.647057,124.975754 
	C69.014259,125.108994 69.063255,125.288452 69.216827,125.727730 
	C69.080032,126.274986 68.838669,126.562408 68.362549,127.004929 
z"/>
</svg>