<svg version="1.1" id="Layer_1" xmlns="http://www.w3.org/2000/svg" xmlns:xlink="http://www.w3.org/1999/xlink" x="0px" y="0px"
	 width="100%" viewBox="0 0 140 140" enable-background="new 0 0 140 140" xml:space="preserve">
<path fill="#FFFFFF" opacity="0.000000" stroke="none" 
	d="
M119.734695,1.355201 
	C125.990120,1.000000 131.984146,1.125348 137.968445,0.938819 
	C140.390381,0.863328 141.096024,1.376295 141.073395,3.961116 
	C140.929214,20.432680 141.000000,36.906124 141.000000,53.378952 
	C141.000000,81.499229 140.951492,109.619713 141.076904,137.739441 
	C141.089111,140.476700 140.573334,141.091110 137.770615,141.080704 
	C104.159889,140.955826 70.548515,141.000000 36.468658,141.000000 
	C33.066814,134.566696 34.287540,131.754379 40.816845,130.541656 
	C43.135586,130.110992 44.374962,129.135498 44.557869,126.780388 
	C44.660069,125.464439 44.900681,124.156868 46.031734,122.760635 
	C51.739712,120.104057 57.398685,120.360390 63.051926,120.932793 
	C65.443947,121.174980 67.603806,121.410500 69.438408,119.299545 
	C71.148529,117.331833 73.695877,117.467308 75.990456,117.633041 
	C84.219643,118.227409 92.234604,116.600082 100.304581,115.519424 
	C101.425217,115.369354 102.759384,115.470535 103.313843,114.181450 
	C103.772217,113.115761 103.208656,112.063820 102.375313,111.565361 
	C96.382263,107.980629 97.275833,102.914116 99.190414,97.563232 
	C99.469139,96.784233 99.470284,95.924789 99.552826,94.680588 
	C99.627144,92.877113 99.590302,91.485352 99.609047,89.669327 
	C99.620667,88.960335 99.622910,88.675774 99.633545,87.962448 
	C100.005653,84.092018 100.600288,80.686485 101.438019,76.891953 
	C103.921989,72.735046 106.722977,70.254601 111.678192,70.626541 
	C116.228683,70.968094 116.995247,67.010536 117.172699,63.754280 
	C117.524857,57.292095 118.536919,50.880386 118.521400,44.394535 
	C118.492790,32.438396 118.494293,20.482077 118.529022,8.525950 
	C118.535713,6.224200 118.227661,3.852873 119.734695,1.355201 
z"/>
<path fill="#FFFFFF" opacity="0.000000" stroke="none" 
	d="
M13.258820,140.653839 
	C9.007524,141.000000 3.486257,142.554901 1.456208,140.558960 
	C-0.539808,138.596466 1.001138,133.030090 1.000984,129.045135 
	C0.999386,87.623199 1.035592,46.201164 0.926571,4.779513 
	C0.918596,1.749482 1.495597,0.890333 4.707137,0.910602 
	C30.158159,1.071230 55.610645,1.000000 81.531342,1.000000 
	C84.037567,4.630821 81.946419,6.002029 78.807846,6.240465 
	C75.596146,6.484455 73.342743,7.374473 73.118942,11.014960 
	C73.068550,11.834646 72.647263,13.063001 71.985985,13.106589 
	C66.932343,13.439705 64.236565,18.505125 59.590801,19.277065 
	C56.385479,19.809662 55.322521,21.366549 55.473976,24.274529 
	C55.701233,28.638048 54.474785,31.091784 49.747314,33.160515 
	C45.936840,34.827969 44.846161,40.616005 44.554073,45.213722 
	C44.238987,50.173420 44.287991,55.175968 44.753433,60.582802 
	C44.843960,62.271782 44.396019,63.333473 43.131519,64.462379 
	C41.687550,65.217300 40.532455,65.428452 39.369289,65.413826 
	C31.331362,65.312775 31.495451,65.786118 31.500483,74.169701 
	C31.502579,77.659897 31.483511,81.150238 31.500490,84.640259 
	C31.518244,88.289825 31.322962,91.709320 26.736378,92.709686 
	C24.687040,93.156654 24.624142,95.045288 24.543377,96.724449 
	C24.323679,101.292183 25.276205,106.081444 21.148615,109.743675 
	C20.128771,110.648537 20.484114,112.592377 20.499722,114.087975 
	C20.534206,117.392715 20.163088,120.325226 16.418446,121.761650 
	C14.105722,122.648796 14.657969,125.072357 14.511546,127.007706 
	C14.176158,131.440720 15.224529,135.976822 13.258820,140.653839 
z"/>
<path fill="#FCFBF9" opacity="0.000000" stroke="none" 
	d="
M119.550018,1.000000 
	C119.999802,16.453552 120.338020,31.917917 119.844795,47.355717 
	C119.625427,54.221981 119.711403,61.234608 117.887726,68.006004 
	C116.924080,71.584068 115.039108,73.679962 111.094963,72.146141 
	C106.222702,70.251381 105.479240,75.380730 102.276276,76.984856 
	C101.716583,77.150002 101.528625,77.267815 101.012543,77.337685 
	C99.687050,76.898338 98.757896,76.321945 97.353119,76.137772 
	C96.828125,76.067085 96.619331,76.036522 96.102066,75.946175 
	C94.812592,75.657814 93.849716,75.287643 92.518982,75.572006 
	C91.837570,75.730438 91.444664,75.797646 90.754082,75.856804 
	C90.267807,75.853172 90.075462,75.836014 89.604828,75.755814 
	C88.803131,75.522743 88.294861,75.302483 87.475914,75.217606 
	C86.837364,75.265221 86.470390,75.320496 85.810165,75.398361 
	C85.325783,75.348267 85.135811,75.283417 84.752274,74.980194 
	C84.499382,74.542152 84.440071,74.342476 84.373428,73.826645 
	C84.476860,72.652054 84.767853,71.839516 85.101738,70.690186 
	C86.670189,66.945030 89.032478,64.020500 90.741058,60.349880 
	C91.605988,58.224434 92.659729,56.583038 93.830643,54.641396 
	C94.091248,54.177311 94.197861,53.993252 94.472656,53.538536 
	C95.403542,52.026184 96.612701,51.034061 96.819061,49.119301 
	C97.078232,47.121086 97.663139,45.514313 97.588135,43.423042 
	C97.614807,39.191380 97.434563,35.345890 97.771637,31.096188 
	C98.960548,26.830843 101.968819,25.938477 105.867584,25.856998 
	C106.508606,25.919514 106.759926,25.960434 107.372459,26.102873 
	C108.180397,26.376610 108.618797,26.567675 109.346565,26.930317 
	C110.960625,27.711493 112.073669,28.645395 113.493408,29.568983 
	C115.239853,27.911564 113.336601,27.104650 112.504692,25.706333 
	C111.676117,24.812769 111.103897,24.131327 110.461510,23.080551 
	C109.754776,21.297533 109.893219,19.697855 109.437927,17.875330 
	C109.254875,17.158899 109.160080,16.751614 109.002502,16.049702 
	C108.772186,15.192681 108.623947,14.624003 108.045555,13.933175 
	C107.706314,13.565897 107.567764,13.418537 107.234039,13.032920 
	C106.532036,12.100245 106.270737,11.312898 106.117798,10.159799 
	C106.061470,8.477914 105.085846,8.236301 103.681068,8.037921 
	C102.886391,7.839574 102.463203,7.633550 101.843216,7.076884 
	C101.218498,4.214927 103.306526,3.969741 104.901756,3.286524 
	C106.694717,2.518620 108.842590,2.856417 110.728363,1.259037 
	C113.700012,1.000000 116.400032,1.000000 119.550018,1.000000 
z"/>
<path fill="#F6F4EF" opacity="0.000000" stroke="none" 
	d="
M13.468622,141.000000 
	C13.002629,135.171066 13.011014,129.342148 13.004375,123.513229 
	C13.002388,121.768150 13.017214,119.914093 15.440064,120.066841 
	C18.895807,120.284706 18.928915,118.207497 19.075809,115.623680 
	C19.270399,112.200966 17.538609,108.455284 22.357874,105.846039 
	C24.417540,104.730896 22.966236,99.907539 22.949820,96.781517 
	C22.931992,93.386696 22.687374,90.314690 27.675152,90.901611 
	C30.131527,91.190659 29.992014,89.064629 29.996075,87.392212 
	C30.011040,81.230232 30.258291,75.054008 29.915695,68.911156 
	C29.686167,64.795670 31.231285,63.562576 35.061119,63.960697 
	C37.367672,64.200462 39.719658,64.003204 42.515305,63.999519 
	C45.518356,67.788429 42.048229,71.171707 42.179558,75.186699 
	C39.595989,82.240623 37.340076,88.993195 35.816376,96.325745 
	C35.805012,98.825645 34.456161,100.613197 34.093544,103.024551 
	C33.868477,103.558952 33.764046,103.766136 33.469967,104.263443 
	C30.318075,108.365776 28.506779,112.779503 26.537825,117.478821 
	C25.911634,118.699791 25.406557,119.617401 25.001257,120.916336 
	C24.828037,121.397949 24.750675,121.587410 24.525972,122.045425 
	C24.145254,122.647552 23.897211,122.969780 23.440266,123.513138 
	C22.588549,124.520805 22.034117,125.361595 21.488476,126.579102 
	C20.204794,129.174957 18.962009,131.441513 17.965197,134.144257 
	C18.047134,134.716965 16.848259,135.083710 18.178064,135.372467 
	C18.652411,135.452164 18.844603,135.508347 19.315056,135.703400 
	C21.013861,136.806427 22.447708,136.693939 24.181953,135.740723 
	C24.672695,135.498688 24.871523,135.411316 25.376619,135.225845 
	C26.484476,134.927673 27.314581,134.830109 28.331129,134.302948 
	C29.770573,133.281586 30.956287,132.431320 32.379242,131.360580 
	C34.318977,129.716660 35.776630,128.029419 37.750290,126.386230 
	C41.221565,124.793816 42.189915,119.983742 46.957901,120.767624 
	C47.470562,121.433189 47.521797,121.909515 47.215202,122.698410 
	C46.777142,123.234306 46.364769,123.481491 46.372913,123.713928 
	C46.571938,129.391953 45.461517,133.645889 38.164429,132.108856 
	C36.547009,131.768173 36.015491,133.222809 36.011639,134.693451 
	C36.006927,136.491959 36.000175,138.290482 35.997154,140.544495 
	C28.645748,141.000000 21.291496,141.000000 13.468622,141.000000 
z"/>
<path fill="#F7F6F3" opacity="0.000000" stroke="none" 
	d="
M110.531342,1.000000 
	C110.855476,3.317213 109.394913,3.883111 107.336258,4.055491 
	C105.436798,4.214542 103.420723,4.422118 102.072906,6.575443 
	C98.521881,7.842468 95.755951,4.506824 91.942978,5.315978 
	C90.665779,5.363278 89.758263,5.499685 88.551125,5.893038 
	C82.694839,7.950606 78.941750,12.223374 74.698502,16.417646 
	C72.260254,18.749779 68.915031,18.820488 66.536354,21.260752 
	C61.532940,25.054564 58.161781,29.529057 56.907696,35.809155 
	C55.330116,38.722015 53.252556,41.028591 53.083191,44.579361 
	C52.959770,45.160797 52.896805,45.391243 52.699291,45.955208 
	C50.134541,49.657917 48.971855,53.526329 48.044304,57.884872 
	C47.362144,59.660435 46.845875,61.141602 44.661209,61.262184 
	C41.701466,57.699944 43.882771,53.672359 42.939156,50.108597 
	C41.217953,43.608105 45.859467,38.447998 46.300728,32.409565 
	C46.445301,30.431171 48.706799,30.950346 50.068222,31.053299 
	C53.174110,31.288166 54.348381,29.967068 54.018017,26.973087 
	C53.909023,25.985331 54.101532,24.963505 53.984791,23.977547 
	C53.492096,19.816257 54.419556,17.084953 59.490555,17.949556 
	C60.381897,18.101530 62.192455,17.671799 62.214924,17.398586 
	C62.644917,12.169231 66.464890,13.010566 69.836769,12.933028 
	C71.975998,12.883837 72.185135,11.234820 71.957314,9.719323 
	C71.297333,5.329076 73.711235,4.717756 77.247116,4.957230 
	C79.455017,5.106765 82.278664,5.700279 81.998291,1.420426 
	C91.354225,1.000000 100.708458,1.000000 110.531342,1.000000 
z"/>
<path fill="#FCFAF8" opacity="0.000000" stroke="none" 
	d="
M47.422760,122.995064 
	C46.976177,122.473373 46.958759,121.952744 46.900715,121.043442 
	C46.809048,118.672668 48.112076,117.385445 49.494850,115.802109 
	C50.987442,114.886253 52.535507,114.547943 53.133240,112.594681 
	C55.499683,108.918709 58.444519,106.237961 61.891148,103.575546 
	C62.723225,103.359741 63.208931,103.394867 64.001526,103.726517 
	C64.600922,104.328903 64.826271,104.760475 65.055359,105.579422 
	C65.297943,107.066422 65.195816,108.216324 65.307487,109.567665 
	C66.073608,108.789726 65.603256,107.961609 65.703384,106.920860 
	C65.643448,105.693962 65.519569,104.812881 65.377609,103.603828 
	C65.429184,102.848839 65.558418,102.445641 65.975388,101.842545 
	C66.728104,101.105377 67.470352,100.774750 67.759415,99.693375 
	C67.856033,99.029701 67.893829,98.643723 67.954941,97.954971 
	C68.046440,97.245987 68.150414,96.849579 68.424820,96.180870 
	C69.171799,95.066673 69.871696,94.288536 70.261597,92.953346 
	C70.630135,91.770760 70.719200,90.870407 70.817368,89.597122 
	C71.091202,87.603607 71.713715,86.239548 73.743423,85.519730 
	C76.602684,86.057243 77.282410,87.944649 76.872536,90.031822 
	C76.259850,93.151756 77.301086,95.909309 78.182487,99.121170 
	C78.623520,102.293831 77.634964,105.015366 77.782082,107.827675 
	C77.655525,105.352409 78.363068,103.349121 80.657104,102.052437 
	C82.790878,100.846344 82.955414,98.994995 81.857101,96.582336 
	C81.526756,95.497849 81.692581,94.789360 82.148933,93.759491 
	C83.306282,91.969521 84.249275,90.452713 86.657715,90.576897 
	C88.440765,91.868828 87.790070,94.043419 89.441879,95.401840 
	C91.639481,95.905403 93.236916,95.652565 93.998871,93.136536 
	C94.239754,92.587509 94.358185,92.374817 94.743439,91.904953 
	C97.266663,90.929893 98.923126,91.998085 100.719566,93.734161 
	C101.141876,96.347946 100.562706,98.494095 99.771675,100.740494 
	C98.563286,104.172112 97.471062,107.812416 102.674438,109.560226 
	C104.703468,110.241776 106.063065,112.545883 105.730087,114.812622 
	C105.328026,117.549614 102.788071,116.776817 100.894554,117.016830 
	C91.565475,118.199379 82.266342,119.745766 72.800461,119.025253 
	C72.315750,118.988358 71.463318,118.995598 71.376282,119.216446 
	C68.786072,125.789192 63.688354,121.869728 59.659237,121.932808 
	C55.679199,121.995110 51.749439,122.206436 47.422760,122.995064 
z"/>
<path fill="#F6F3F4" opacity="0.000000" stroke="none" 
	d="
M100.998375,93.580032 
	C99.230728,93.352753 97.465431,92.709801 95.346497,92.031136 
	C92.798744,89.286369 93.639297,86.167030 93.913994,82.706238 
	C94.384743,81.428162 94.910553,80.768166 96.265457,80.583191 
	C99.582855,82.453819 96.900612,86.956314 100.717621,88.754456 
	C101.003899,90.392311 101.002304,91.778343 100.998375,93.580032 
z"/>
<path fill="#EAE6EB" opacity="0.000000" stroke="none" 
	d="
M101.003220,88.748329 
	C94.790237,89.450096 97.665329,84.700203 96.994492,81.543381 
	C95.724449,79.465080 95.444763,77.707924 96.671104,75.431114 
	C98.383537,74.949020 99.763817,74.995346 100.855827,76.653938 
	C101.418884,80.469177 99.313232,83.867477 100.767914,87.695122 
	C100.988808,88.146629 100.994881,88.318504 101.003220,88.748329 
z"/>
<path fill="#D6D0D5" opacity="0.000000" stroke="none" 
	d="
M100.997032,87.557587 
	C97.362343,84.643463 99.693260,81.010384 100.735214,77.208008 
	C101.021004,76.958847 101.462448,77.010910 101.683502,77.021545 
	C102.517029,80.482025 101.308113,83.770920 100.997032,87.557587 
z"/>
<path fill="#58455E" opacity="1.000000" stroke="none" 
	d="
M44.280266,61.453438 
	C46.174679,61.204651 45.796059,59.378830 46.719246,58.244438 
	C47.789474,57.242908 48.790802,56.973309 50.292057,57.396477 
	C51.083549,57.884274 51.381664,58.301849 51.585892,59.189754 
	C50.761200,63.736259 47.437378,67.115654 47.802544,72.022812 
	C47.959728,73.139908 47.909374,73.885864 47.616524,74.988548 
	C45.626499,77.895660 47.025059,82.325653 42.428295,83.409332 
	C39.941807,81.307861 42.264980,78.567848 40.571007,76.404114 
	C40.693756,72.402031 42.994091,68.882202 43.042305,64.405640 
	C43.486980,63.307804 44.435963,62.873775 44.280266,61.453438 
z"/>
<path fill="#110E15" opacity="1.000000" stroke="none" 
	d="
M108.007935,27.069298 
	C104.651100,27.032532 101.589142,26.645803 99.093704,29.670631 
	C98.659744,30.050232 98.474838,30.169140 97.991180,30.148335 
	C96.861412,29.004032 96.020370,28.009502 94.701202,27.014606 
	C93.623566,25.607391 93.050774,24.033112 91.629822,23.586113 
	C87.754005,22.366871 88.135422,20.053522 89.894569,16.967495 
	C90.181702,16.451027 90.313919,16.254299 90.698441,15.807747 
	C94.007301,13.972225 95.509346,10.245733 99.546402,9.432882 
	C100.562386,9.122010 101.257103,9.084930 102.288773,9.286217 
	C105.171509,10.919361 103.802696,13.290601 103.921524,15.668265 
	C104.011574,16.617182 103.995667,17.251513 104.015488,18.200001 
	C104.893127,20.782427 107.968658,20.881607 108.795670,23.632072 
	C109.064552,25.018515 108.942162,25.996994 108.007935,27.069298 
z"/>
<path fill="#151525" opacity="1.000000" stroke="none" 
	d="
M91.799850,59.632553 
	C90.602882,63.740395 88.463867,67.052429 86.034088,70.592690 
	C85.117584,71.770332 84.142487,71.981598 82.693893,71.692482 
	C79.664337,69.225853 82.641151,67.012688 82.556465,64.285774 
	C79.387032,63.764660 76.159264,66.337463 72.805763,64.182549 
	C72.006630,63.014465 71.942566,62.034668 72.278870,60.657806 
	C73.399460,58.757694 75.388153,58.401711 76.727646,56.681679 
	C79.173210,55.572727 81.468941,55.139477 83.950607,54.030823 
	C88.633614,53.154202 91.374802,54.506882 91.799850,59.632553 
z"/>
<path fill="#EDEAED" opacity="0.000000" stroke="none" 
	d="
M82.858124,93.698669 
	C82.736977,94.494545 82.477180,94.988075 82.110588,95.739960 
	C82.406425,99.255516 81.070427,100.842369 77.353706,100.234962 
	C73.914238,95.831200 77.137581,90.522148 74.177231,86.098274 
	C73.299797,85.277779 73.234367,84.538933 73.574493,83.417229 
	C74.428894,82.300911 75.349449,82.066811 76.649017,81.965729 
	C77.802780,82.000168 78.369080,81.835815 77.697601,80.529190 
	C77.494034,80.010841 77.432907,79.789330 77.358734,79.212463 
	C78.461617,75.511467 80.207886,72.964066 84.602737,73.586136 
	C84.944244,73.966904 84.972382,74.135361 85.022064,74.559113 
	C85.140533,75.713326 85.620567,76.498627 85.874817,77.712967 
	C86.173790,80.252655 85.534607,82.297974 84.661026,84.637177 
	C80.865433,87.124771 81.374199,90.172935 82.858124,93.698669 
z"/>
<path fill="#E3DCE1" opacity="0.000000" stroke="none" 
	d="
M83.938072,85.339249 
	C84.320633,82.641716 84.650314,80.277252 84.968430,77.512070 
	C85.178772,76.478928 85.644485,76.029182 86.282936,75.308899 
	C86.534988,74.841148 86.610779,74.641273 86.882385,74.187500 
	C87.627434,74.105637 88.176651,74.277672 88.898788,74.687988 
	C89.805580,76.427643 89.482094,77.973763 89.320480,79.395309 
	C89.734619,78.256477 89.398888,76.935677 89.763420,75.306244 
	C90.415817,74.948326 90.868027,74.937531 91.659447,74.921234 
	C93.394440,80.496414 93.273247,86.117081 92.375328,92.163879 
	C92.054886,94.309196 91.310608,95.720009 89.324661,96.759872 
	C85.709778,96.269188 87.474449,93.615105 86.988068,91.414993 
	C85.369011,89.564835 86.767014,86.376495 83.938072,85.339249 
z"/>
<path fill="#1D3163" opacity="1.000000" stroke="none" 
	d="
M97.700302,29.495356 
	C98.061348,29.698839 98.462952,29.781466 98.653809,29.856396 
	C98.874741,34.312130 98.904823,38.692936 98.816177,43.523693 
	C98.168068,44.580170 97.479591,44.833755 96.316559,44.834778 
	C95.698769,44.703407 95.460258,44.613274 94.924805,44.280800 
	C94.343010,43.610096 94.134621,43.147327 93.926422,42.277992 
	C93.746162,41.155663 93.698013,40.399639 93.568909,39.269417 
	C92.519279,36.210197 91.105850,33.590302 92.481277,30.234512 
	C93.099701,29.514433 93.569916,29.245344 94.502678,28.989517 
	C95.751045,28.829372 96.563423,28.946291 97.700302,29.495356 
z"/>
<path fill="#908095" opacity="0.000000" stroke="none" 
	d="
M85.106842,73.541023 
	C81.559189,74.220718 78.943909,75.572556 78.154961,79.557297 
	C77.710991,80.575447 77.031372,80.865417 75.926155,81.116714 
	C74.374794,81.307220 73.165337,81.228905 71.658066,81.672043 
	C70.388367,82.108696 69.452370,82.395378 68.103348,82.198807 
	C67.612793,81.843941 67.470673,81.634041 67.213058,81.059494 
	C66.983406,79.919250 67.073204,79.165894 67.541870,78.105003 
	C72.756653,76.264816 76.454918,72.285385 81.660767,70.687820 
	C83.027359,70.898613 84.064796,70.931366 85.490784,70.930817 
	C86.002960,71.770309 86.008644,72.614334 85.106842,73.541023 
z"/>
<path fill="#EAE6EB" opacity="0.000000" stroke="none" 
	d="
M91.378738,93.263535 
	C92.395271,87.331116 90.760384,81.473236 91.999008,75.347389 
	C93.067772,73.499428 94.236870,74.083786 95.710236,74.880684 
	C95.924583,77.247421 95.080109,79.315796 94.816002,81.742599 
	C95.003418,85.041389 94.999565,88.065331 94.994278,91.542343 
	C94.992859,91.995422 94.987549,92.487862 94.985687,92.734085 
	C94.009041,93.809235 92.933784,94.022446 91.378738,93.263535 
z"/>
<path fill="#1C2962" opacity="1.000000" stroke="none" 
	d="
M103.330261,10.228858 
	C102.247902,9.998695 101.503838,9.983878 100.387749,9.960304 
	C97.838600,9.900005 95.772820,10.844603 93.216805,10.586329 
	C90.679985,9.130783 87.954674,7.986623 90.748428,4.430658 
	C94.858803,3.472088 98.263634,4.414356 101.642944,6.887245 
	C102.203842,7.142242 102.438568,7.298005 102.917160,7.442977 
	C104.631706,7.090458 104.847404,8.285174 105.215988,9.623720 
	C104.723236,10.370165 104.225258,10.511066 103.330261,10.228858 
z"/>
<path fill="#1C2041" opacity="1.000000" stroke="none" 
	d="
M95.794189,44.217690 
	C96.697174,43.993443 97.364105,43.999783 98.364243,43.989883 
	C99.369843,45.873486 97.620193,47.409897 97.785744,49.622597 
	C96.603745,51.022583 95.284737,51.887592 95.278511,53.948032 
	C95.215294,54.264385 95.168259,54.141453 95.225754,54.173477 
	C91.688370,56.038136 90.726364,52.200935 88.231178,50.804016 
	C87.803093,50.339088 87.655632,50.131214 87.383896,49.560726 
	C87.086990,48.133080 87.360176,47.180965 88.242355,46.049240 
	C88.699181,45.649647 88.902580,45.519733 89.440681,45.270088 
	C91.658073,44.546494 93.798843,46.068371 95.794189,44.217690 
z"/>
<path fill="#1A1830" opacity="1.000000" stroke="none" 
	d="
M87.650681,50.001865 
	C91.372681,49.462566 91.554832,53.981129 94.899521,54.143013 
	C95.156441,56.423119 93.071449,57.541882 92.167740,59.714073 
	C91.137054,59.867348 90.123245,59.589336 90.174728,58.660011 
	C90.409668,54.418716 87.474182,54.982216 84.433670,54.996067 
	C83.578522,52.332184 85.183632,51.007931 87.650681,50.001865 
z"/>
<path fill="#25243C" opacity="1.000000" stroke="none" 
	d="
M108.455559,23.249195 
	C106.543854,21.287010 103.703117,21.632584 102.793060,19.167149 
	C104.726662,17.065426 106.483757,15.200807 109.794617,16.728239 
	C111.506592,18.387978 110.993614,20.408941 111.711685,22.422489 
	C110.907806,23.670801 109.948334,23.781414 108.455559,23.249195 
z"/>
<path fill="#1F1E2B" opacity="1.000000" stroke="none" 
	d="
M108.010994,23.417686 
	C108.934418,22.963490 109.851173,22.939314 111.224167,22.864248 
	C111.859909,23.412676 112.039421,24.011993 112.363266,24.799534 
	C114.173813,26.475052 114.909851,28.314709 114.364105,30.923492 
	C112.004272,31.171373 111.446388,28.778254 109.302811,28.051434 
	C108.712021,27.665611 108.451363,27.444521 107.940193,27.234278 
	C107.684647,27.251060 107.685539,27.208153 107.677963,27.231285 
	C107.781700,26.118849 107.893013,24.983278 108.010994,23.417686 
z"/>
<path fill="#242642" opacity="1.000000" stroke="none" 
	d="
M103.019043,10.314643 
	C103.446709,10.004524 103.901443,9.995537 104.697121,9.976728 
	C105.575134,9.615776 106.133530,9.578900 106.670372,10.297140 
	C107.037483,11.342588 107.447266,11.944155 107.838852,12.819440 
	C107.379753,15.408243 106.408592,17.066322 103.304810,16.255299 
	C101.124153,14.204764 104.219482,12.434624 103.019043,10.314643 
z"/>
<path fill="#171522" opacity="1.000000" stroke="none" 
	d="
M102.987793,16.397949 
	C105.220177,16.483170 106.029572,14.620636 107.530235,13.250786 
	C107.820656,13.093159 108.060356,13.094473 108.143738,13.008378 
	C108.614380,13.499790 109.046135,14.042140 109.743759,14.816315 
	C110.030334,15.494092 110.089561,15.909601 110.145683,16.642172 
	C107.671143,16.507420 105.756447,17.892084 103.355423,18.933392 
	C102.985222,18.230247 102.988243,17.497347 102.987793,16.397949 
z"/>
<path fill="#D2CFDB" opacity="0.000000" stroke="none" 
	d="
M95.172699,81.774612 
	C93.522469,79.727280 93.206779,77.542671 95.798615,75.308777 
	C96.010658,75.016129 96.482307,75.013176 96.716873,75.032639 
	C96.973114,76.778534 96.994789,78.504982 97.007568,80.669769 
	C96.445168,81.249329 95.891647,81.390549 95.172699,81.774612 
z"/>
<path fill="#F7F6F3" opacity="0.000000" stroke="none" 
	d="
M114.356522,31.489077 
	C114.633369,29.208061 113.567764,27.534208 112.585281,25.402763 
	C115.183723,26.598909 117.502274,28.321800 114.356522,31.489077 
z"/>
<path fill="#F7F6F3" opacity="0.000000" stroke="none" 
	d="
M106.797516,10.353485 
	C106.285881,10.548594 105.944069,10.356166 105.320160,10.065323 
	C104.499588,9.327576 103.961113,8.688242 103.274124,7.767248 
	C104.856720,7.614545 108.465248,4.835649 106.797516,10.353485 
z"/>
<path fill="#1A1830" opacity="1.000000" stroke="none" 
	d="
M95.541855,54.156929 
	C95.207809,52.625080 94.072098,50.530582 97.292282,50.018127 
	C98.126297,51.815086 95.792976,52.398495 95.541855,54.156929 
z"/>
<path fill="#CBC0C4" opacity="0.000000" stroke="none" 
	d="
M86.718277,74.814880 
	C86.922592,75.953682 86.704849,76.772934 85.283997,77.047165 
	C84.200371,76.594353 83.980301,75.976212 84.820084,75.007385 
	C85.043610,74.814392 85.445930,74.848000 85.647743,74.852646 
	C86.053192,74.774712 86.256821,74.692116 86.718277,74.814880 
z"/>
<path fill="#EAE6EB" opacity="0.000000" stroke="none" 
	d="
M89.740417,74.956711 
	C89.963608,76.237915 89.963608,77.516708 89.963608,79.025566 
	C88.398613,78.004501 89.229134,76.727608 89.048248,75.306900 
	C89.071709,74.926270 89.517227,74.954308 89.740417,74.956711 
z"/>
<path fill="#F7F6F3" opacity="0.000000" stroke="none" 
	d="
M109.959030,14.763887 
	C109.165871,14.808871 108.182533,14.757172 108.176514,13.246708 
	C109.110481,13.081988 109.818481,13.439222 109.959030,14.763887 
z"/>
<path fill="#110E15" opacity="1.000000" stroke="none" 
	d="
M107.816879,27.490152 
	C108.012634,27.324326 108.340622,27.397591 108.823143,27.675831 
	C108.634827,27.830284 108.291969,27.779764 107.816879,27.490152 
z"/>
<path fill="#D6D0D5" opacity="0.000000" stroke="none" 
	d="
M86.997330,74.748169 
	C86.787704,75.001198 86.599304,74.982170 86.130234,74.910225 
	C86.087173,74.599495 86.324791,74.341698 86.820312,74.008751 
	C87.058311,74.114441 87.038422,74.295273 86.997330,74.748169 
z"/>
<path fill="#40303D" opacity="1.000000" stroke="none" 
	d="
M51.050232,115.768311 
	C49.669380,117.378754 48.398342,118.704483 46.993694,120.342484 
	C43.242741,121.617172 42.257038,125.926788 38.406898,127.111565 
	C37.671188,126.867386 37.409321,126.456650 37.225452,125.603043 
	C37.225933,124.992416 37.261139,124.750519 37.425873,124.169106 
	C43.080296,118.932098 46.792881,112.310936 53.006226,107.600166 
	C55.590183,104.613602 57.059120,101.460808 57.650391,97.527039 
	C58.906303,94.943596 59.585918,91.999611 63.465965,93.235687 
	C64.507355,96.994560 65.329163,100.417976 62.367851,103.750763 
	C59.424438,106.819305 56.841843,109.638550 54.145500,112.775406 
	C53.091198,113.909920 52.149502,114.725449 51.050232,115.768311 
z"/>
<path fill="#3B2734" opacity="1.000000" stroke="none" 
	d="
M23.832218,122.002388 
	C23.353031,120.378510 24.445620,119.661797 25.018078,118.402626 
	C26.175018,117.727257 26.631105,118.579681 27.516609,119.203812 
	C29.906044,119.819374 30.896338,117.999123 32.241367,117.005989 
	C34.011341,115.699104 35.382713,115.513268 36.633904,118.011276 
	C37.056770,119.296051 37.049927,120.259819 36.719913,121.580162 
	C32.697048,125.966415 28.016119,129.276306 24.792564,134.438477 
	C19.457241,134.382019 21.013285,131.086243 21.628302,127.941849 
	C22.456001,125.834602 23.849197,124.365974 23.832218,122.002388 
z"/>
<path fill="#584456" opacity="1.000000" stroke="none" 
	d="
M24.538654,134.265976 
	C26.626345,128.403397 31.028036,125.348465 35.678341,122.093094 
	C37.006218,121.958740 37.768318,122.387794 38.106522,123.671860 
	C38.008442,124.006866 37.991474,124.490318 37.985771,124.732132 
	C36.982666,127.570580 34.341358,128.947983 33.189461,131.768173 
	C32.014000,133.045746 30.840008,133.986282 29.345249,134.989105 
	C27.947340,134.962570 26.981728,135.263855 25.983788,136.169769 
	C25.859926,136.454224 25.592928,136.756775 25.392334,136.735153 
	C24.674738,136.173981 24.406164,135.530640 24.538654,134.265976 
z"/>
<path fill="#735C72" opacity="1.000000" stroke="none" 
	d="
M40.070862,76.646179 
	C45.665047,76.814568 41.427601,80.219414 41.977776,82.554779 
	C42.121010,83.102699 42.268341,83.252876 42.378235,83.715942 
	C41.851570,84.926941 41.150154,85.708038 40.766556,87.009605 
	C40.344822,88.285492 40.119659,89.297523 39.684608,90.572083 
	C39.159645,91.578232 38.530621,92.149544 38.122215,93.225121 
	C37.508621,94.870636 38.060566,96.684753 35.961918,97.526939 
	C35.421444,97.486183 35.213291,97.405556 34.693092,97.203506 
	C36.230602,90.359871 38.080154,83.637650 40.070862,76.646179 
z"/>
<path fill="#524245" opacity="1.000000" stroke="none" 
	d="
M24.335863,133.796066 
	C24.809189,134.406311 24.926704,135.064392 25.117981,136.217987 
	C23.184608,137.766205 21.178816,137.277664 19.247677,136.361526 
	C18.987345,135.350494 18.432896,135.243500 17.458212,135.449387 
	C16.934155,135.457016 16.724792,135.419678 16.321531,135.129059 
	C17.560890,132.064011 18.994150,129.252274 20.676960,126.201767 
	C21.658726,125.473274 22.197233,125.860382 22.846460,126.673828 
	C23.189520,129.293045 19.655031,132.141052 24.335863,133.796066 
z"/>
<path fill="#735C72" opacity="1.000000" stroke="none" 
	d="
M27.253241,119.687347 
	C26.467779,119.373322 26.036566,118.871956 25.386436,118.239395 
	C27.384687,113.333778 29.601852,108.559364 32.118000,103.607147 
	C33.039276,103.426758 33.466789,103.712128 33.818336,104.687286 
	C33.595642,110.662910 30.471092,115.024139 27.253241,119.687347 
z"/>
<path fill="#443342" opacity="1.000000" stroke="none" 
	d="
M33.486893,131.986938 
	C31.370321,127.851402 36.212410,127.690994 37.682938,125.124786 
	C37.995216,125.467232 38.010361,125.960526 38.044266,126.823235 
	C36.637283,128.751328 35.211540,130.309998 33.486893,131.986938 
z"/>
<path fill="#584456" opacity="1.000000" stroke="none" 
	d="
M23.261398,126.782684 
	C22.475286,126.718269 21.969130,126.446205 21.194740,126.068558 
	C21.294033,125.079300 21.661554,124.195602 22.254814,123.127754 
	C22.916212,122.857689 23.308506,122.679390 23.794800,122.099037 
	C23.938904,121.803726 23.800888,121.792084 23.786818,121.723755 
	C26.037870,123.405464 24.381935,124.971069 23.261398,126.782684 
z"/>
<path fill="#58455E" opacity="1.000000" stroke="none" 
	d="
M34.264862,97.331558 
	C34.663479,97.082809 34.945904,97.083542 35.651924,97.077553 
	C36.980881,97.890785 37.015873,98.959038 36.844666,100.460899 
	C36.494762,101.644447 36.071079,102.334824 35.178810,103.176491 
	C34.308258,103.570999 33.778648,103.555199 32.941292,103.102745 
	C32.476765,100.901161 33.495182,99.293793 34.264862,97.331558 
z"/>
<path fill="#392635" opacity="1.000000" stroke="none" 
	d="
M32.530312,102.975800 
	C33.156021,102.903442 33.683960,102.960541 34.610466,103.014008 
	C35.959160,104.563751 35.970581,105.812775 33.502502,106.214554 
	C32.991550,105.446014 32.891071,104.853897 32.603790,103.845566 
	C32.416981,103.429344 32.432537,103.105263 32.530312,102.975800 
z"/>
<path fill="#928180" opacity="1.000000" stroke="none" 
	d="
M15.901661,135.040253 
	C16.432625,134.897125 16.737617,134.918518 17.501122,134.949585 
	C18.091978,135.126465 18.224321,135.293671 18.160530,135.713562 
	C17.198408,136.409439 16.644024,137.642746 15.542415,136.880737 
	C14.921372,136.451141 15.336228,135.748505 15.901661,135.040253 
z"/>
<path fill="#524245" opacity="1.000000" stroke="none" 
	d="
M26.217798,136.420364 
	C26.454668,135.322021 26.746632,133.749023 28.840923,134.792084 
	C28.208212,135.496429 27.391941,135.941467 26.217798,136.420364 
z"/>
<path fill="#C7BCBD" opacity="0.000000" stroke="none" 
	d="
M18.303543,135.987305 
	C17.959652,135.798431 17.954906,135.630646 17.954899,135.211060 
	C18.507492,134.609207 19.150688,133.883087 19.582067,133.992447 
	C20.330210,134.182129 20.156956,135.013641 19.600479,135.834167 
	C19.095737,136.012619 18.869213,136.010483 18.303543,135.987305 
z"/>
<path fill="#3B2734" opacity="1.000000" stroke="none" 
	d="
M23.575319,121.744308 
	C23.659990,122.117805 23.381071,122.431885 22.791351,122.844772 
	C22.724277,122.524025 22.968004,122.104454 23.575319,121.744308 
z"/>
<path fill="#605074" opacity="1.000000" stroke="none" 
	d="
M51.449314,58.099510 
	C50.056793,58.159061 48.913010,58.078148 47.337929,57.992870 
	C47.390144,53.524025 49.382309,49.571011 51.384998,45.242737 
	C52.209690,45.246471 52.777897,45.284634 53.559502,44.722694 
	C53.912949,44.336720 54.052612,44.177082 54.409092,43.773941 
	C54.787643,43.378025 54.949379,43.225609 55.392715,42.881626 
	C55.892216,42.613007 56.110119,42.535950 56.679062,42.449501 
	C57.777119,42.598232 58.298641,43.042915 58.756264,44.053955 
	C59.254524,47.147541 57.321522,49.374023 57.081234,52.341522 
	C56.648846,54.083782 55.749977,55.072948 54.323135,56.035049 
	C53.550148,56.528679 53.022495,56.820385 52.340599,57.391670 
	C51.986015,57.709747 51.842033,57.834396 51.449314,58.099510 
z"/>
<path fill="#605E9A" opacity="1.000000" stroke="none" 
	d="
M73.943832,16.115665 
	C77.588394,11.311706 82.203323,7.841903 87.635948,4.956774 
	C90.354919,9.207427 88.642693,12.030796 84.471085,14.277337 
	C83.649910,14.592783 83.170494,14.715478 82.329018,14.798586 
	C81.604149,14.783448 80.947510,14.488718 80.935959,14.593036 
	C80.863495,15.247132 80.700165,14.393265 81.340485,15.134595 
	C81.598442,16.111923 81.415794,16.714417 80.739365,17.459789 
	C79.604324,18.231695 78.740334,18.841560 77.442764,19.245464 
	C76.205124,18.782703 75.800705,17.759665 74.727875,17.003473 
	C74.346825,16.677507 74.203224,16.536169 73.943832,16.115665 
z"/>
<path fill="#63649A" opacity="1.000000" stroke="none" 
	d="
M55.175468,43.893356 
	C55.027100,44.083096 54.980373,44.522739 54.956573,44.742516 
	C54.154095,45.551373 53.305775,45.760506 51.983746,45.173218 
	C52.330265,41.815022 52.806656,38.596874 55.893150,36.269226 
	C57.548828,34.203758 57.262646,31.133131 60.540428,30.499809 
	C61.580498,30.859436 62.041248,31.384571 62.446152,32.385162 
	C62.556629,34.156597 61.392918,35.143913 61.025772,36.784897 
	C60.840015,37.305740 60.753708,37.509293 60.489143,37.991291 
	C58.758205,39.448139 57.530056,40.920021 56.237560,42.767685 
	C56.018547,43.003597 56.004169,43.004608 56.001152,43.011086 
	C55.748562,43.221867 55.523796,43.450554 55.175468,43.893356 
z"/>
<path fill="#2D3881" opacity="1.000000" stroke="none" 
	d="
M82.763557,14.381203 
	C86.183640,12.221892 88.821083,10.068070 88.002426,5.385745 
	C88.790222,4.666057 89.587570,4.359516 90.705917,4.110338 
	C89.841133,6.477411 90.766464,8.116385 92.850647,9.725258 
	C93.057648,11.005494 92.588539,11.763954 91.678703,12.652069 
	C90.385887,13.512215 89.101410,13.961795 89.073227,15.872443 
	C87.598175,17.256029 86.092804,17.232939 84.162323,16.845110 
	C83.016624,16.276394 82.555756,15.653655 82.763557,14.381203 
z"/>
<path fill="#555480" opacity="1.000000" stroke="none" 
	d="
M61.274132,30.901423 
	C58.203461,31.321312 59.021759,34.940720 56.386032,35.829765 
	C56.796829,29.526148 60.154659,24.689503 65.581352,20.816162 
	C66.092697,20.870094 66.262383,21.011131 66.572952,21.451942 
	C66.804771,22.182529 66.836174,22.617128 66.724899,23.371693 
	C66.490822,24.078663 66.288895,24.447966 65.844963,25.026222 
	C65.121979,25.841639 64.522865,26.353916 63.842358,27.179104 
	C63.361069,27.882614 63.100002,28.384777 62.795212,29.191692 
	C62.427879,30.010941 62.059795,30.468342 61.274132,30.901423 
z"/>
<path fill="#605E9A" opacity="1.000000" stroke="none" 
	d="
M66.274284,22.226053 
	C66.000130,21.801497 65.981468,21.587412 65.942902,21.051193 
	C66.939613,16.964008 71.513367,18.866714 73.512375,16.000248 
	C73.828041,15.836503 74.048943,16.052418 74.159004,16.160770 
	C75.000244,17.074568 75.087006,18.087175 75.191696,19.474804 
	C75.189308,20.604675 75.072182,21.341347 74.684692,22.387844 
	C74.360107,22.886862 74.193893,23.057703 73.684952,23.308809 
	C71.227272,21.956861 68.911110,21.963657 66.274284,22.226053 
z"/>
<path fill="#736793" opacity="1.000000" stroke="none" 
	d="
M51.625729,44.927925 
	C52.441647,44.937233 53.275078,44.962032 54.520638,44.974564 
	C54.161938,46.253613 53.465260,47.861679 51.760895,45.313835 
	C51.641224,44.950771 51.643238,44.943420 51.625729,44.927925 
z"/>
<path fill="#EDEAED" opacity="0.000000" stroke="none" 
	d="
M62.341549,104.001724 
	C63.251606,100.697319 62.960323,97.245941 62.874397,93.390900 
	C62.047977,92.012978 61.936352,90.965843 62.382553,89.479752 
	C62.897446,88.690742 63.323898,88.380310 64.207680,88.078773 
	C65.343193,87.862900 66.095932,87.905006 67.182487,88.185593 
	C69.061333,89.067474 69.157463,90.984299 70.780136,92.523972 
	C70.927521,94.167618 71.170830,95.469246 69.360809,95.950470 
	C68.544731,96.439293 68.464417,96.978912 68.819244,97.797073 
	C69.010201,98.457375 69.007607,98.899910 68.997604,99.674271 
	C68.454857,100.529167 67.924988,101.057755 67.202278,101.790413 
	C66.689331,102.096100 66.432480,102.283203 66.126587,102.767776 
	C65.701622,103.575394 65.293915,104.066917 64.314407,104.128433 
	C63.568108,103.999039 63.122086,104.001213 62.341549,104.001724 
z"/>
<path fill="#AE9DAC" opacity="0.000000" stroke="none" 
	d="
M65.223679,88.804115 
	C64.610535,89.052589 64.230194,89.111633 63.563332,89.133469 
	C61.453667,84.850616 62.092129,83.736275 67.935432,81.868652 
	C69.007416,81.754662 69.682190,81.430580 70.639572,81.083664 
	C71.915962,80.308807 72.612503,81.116638 73.626663,81.782349 
	C73.982437,82.238335 74.095757,82.441978 74.250160,82.992775 
	C74.160118,83.983315 74.028984,84.626709 73.868851,85.595978 
	C72.473274,86.557343 71.968742,87.709976 71.902512,89.466858 
	C71.697990,90.208649 71.387718,90.462021 70.621384,90.490051 
	C69.215759,90.086792 69.204994,88.767578 68.039902,88.140594 
	C66.926193,88.001625 66.175362,88.240959 65.223679,88.804115 
z"/>
<path fill="#F6F3F4" opacity="0.000000" stroke="none" 
	d="
M77.003258,100.457817 
	C79.662086,100.396683 80.815331,98.690155 81.861870,96.316498 
	C85.307236,97.877655 84.910141,101.734062 82.734665,102.449692 
	C78.140732,103.960876 78.597130,106.711678 78.960640,110.054077 
	C79.041794,110.800240 78.748230,111.587151 78.019676,112.384941 
	C76.559837,108.667404 77.193710,104.746452 77.003258,100.457817 
z"/>
<path fill="#F6F3F4" opacity="0.000000" stroke="none" 
	d="
M83.599205,85.004730 
	C87.450211,85.334160 87.175659,87.811859 86.990555,90.619308 
	C85.103394,90.921745 84.369926,92.342789 83.264702,93.814117 
	C81.510208,93.940826 79.104431,93.427200 80.407272,91.901428 
	C82.255913,89.736435 76.947365,84.921532 83.599205,85.004730 
z"/>
<path fill="#EDEAED" opacity="0.000000" stroke="none" 
	d="
M66.665604,105.767731 
	C67.005554,106.330002 67.068962,106.671471 66.997917,106.982201 
	C66.560287,108.896233 68.105209,112.442581 65.678009,112.426018 
	C62.648186,112.405334 64.558685,108.814842 64.019104,106.422043 
	C64.711609,105.417015 65.478401,105.267624 66.665604,105.767731 
z"/>
<path fill="#F6F3F4" opacity="0.000000" stroke="none" 
	d="
M90.982681,93.340912 
	C92.075264,93.008507 93.133102,92.999641 94.587372,92.985542 
	C95.673378,97.406105 92.676003,97.103012 89.406342,96.991875 
	C89.636307,95.879417 90.292122,94.771927 90.982681,93.340912 
z"/>
<path fill="#F6F4EF" opacity="0.000000" stroke="none" 
	d="
M51.233696,116.031311 
	C50.968029,114.412956 52.153400,113.788803 53.723717,113.162575 
	C53.930107,114.694954 53.171741,115.732903 51.233696,116.031311 
z"/>
<path fill="#E6E1E7" opacity="0.000000" stroke="none" 
	d="
M66.982162,105.681946 
	C66.259674,105.999825 65.515060,105.996910 64.398994,105.990021 
	C64.022110,105.544113 64.016670,105.102188 64.012680,104.328568 
	C64.508446,103.731445 65.002769,103.466011 65.757469,103.091957 
	C66.331909,103.775932 66.645966,104.568535 66.982162,105.681946 
z"/>
<path fill="#EDEAED" opacity="0.000000" stroke="none" 
	d="
M69.905960,90.374443 
	C70.455864,90.010452 70.866646,89.952400 71.584305,89.847855 
	C71.801796,90.731346 71.712425,91.661339 71.373627,92.840187 
	C71.124199,93.089050 71.049660,93.035706 71.014297,93.006561 
	C70.337868,92.336807 69.744339,91.671127 69.905960,90.374443 
z"/>
<path fill="#E6E1E7" opacity="0.000000" stroke="none" 
	d="
M67.324356,101.950409 
	C67.077477,101.089142 67.303146,100.296173 68.671158,100.045364 
	C68.919670,100.908630 68.683533,101.693970 67.324356,101.950409 
z"/>
<path fill="#E6E1E7" opacity="0.000000" stroke="none" 
	d="
M69.015503,97.678940 
	C68.300156,97.585846 67.959099,97.059174 68.790649,96.142601 
	C69.021446,96.447548 69.019821,96.895287 69.015503,97.678940 
z"/>
<path fill="#392635" opacity="1.000000" stroke="none" 
	d="
M36.255226,101.173309 
	C35.984177,99.925430 36.013237,98.885872 36.058907,97.458572 
	C37.480721,96.222343 36.026726,94.634682 37.083794,93.424377 
	C37.504021,92.475349 38.082634,91.975677 38.697067,91.153397 
	C39.078270,89.779846 39.299850,88.637718 39.761707,87.246239 
	C40.695412,86.249184 40.900566,85.215034 41.684483,84.173508 
	C41.855381,83.926849 41.922985,83.441177 41.948330,83.196846 
	C46.639286,82.062340 43.614204,77.217087 46.344360,75.059143 
	C48.910503,73.245132 47.713383,69.249382 51.515144,68.322906 
	C53.012405,68.520432 53.703529,69.252747 54.397903,70.525818 
	C55.108143,73.283585 53.586357,75.189125 52.852898,77.660812 
	C51.370827,80.031448 50.314514,82.242119 48.518639,84.405128 
	C44.388474,88.390793 42.757790,93.473328 40.191044,97.988899 
	C39.334496,99.495781 38.961090,101.530739 36.255226,101.173309 
z"/>
<path fill="#1F1319" opacity="1.000000" stroke="none" 
	d="
M52.865189,56.205887 
	C53.964436,55.196342 54.834122,54.362621 55.870075,53.269978 
	C56.417099,52.668556 56.859924,52.490910 57.721523,52.641716 
	C58.378445,57.124977 56.958881,60.814995 53.522987,64.024078 
	C52.957401,64.226204 52.718918,64.266640 52.141266,64.181587 
	C50.962448,63.054394 50.964493,61.879494 51.159363,60.328125 
	C51.213009,59.591961 51.213840,59.203453 51.207626,58.527462 
	C51.200577,58.239979 51.164864,58.192204 51.153149,58.164776 
	C51.530251,57.459156 52.108601,56.942272 52.865189,56.205887 
z"/>
<path fill="#463345" opacity="1.000000" stroke="none" 
	d="
M50.890125,60.150589 
	C52.283669,60.891365 51.903309,62.114021 51.908081,63.609940 
	C51.144920,67.071136 49.642632,69.790070 47.281940,72.127235 
	C45.591633,67.318848 48.883183,64.069542 50.890125,60.150589 
z"/>
<path fill="#271623" opacity="1.000000" stroke="none" 
	d="
M46.930542,72.380356 
	C49.494976,70.063141 48.819176,66.282356 51.604324,64.131332 
	C51.901375,63.967342 51.954121,63.980080 51.977669,63.993549 
	C53.288597,65.279221 53.195610,66.743805 52.288452,68.623138 
	C48.796726,69.585464 50.051693,73.701767 47.060394,74.862335 
	C46.776592,74.230820 46.851788,73.491310 46.930542,72.380356 
z"/>
<path fill="#111946" opacity="1.000000" stroke="none" 
	d="
M83.820801,16.402521 
	C85.567139,15.931126 87.028084,15.751467 88.729446,15.299276 
	C89.344299,14.683633 89.788795,14.517557 90.640968,14.625469 
	C91.120056,14.955321 91.251465,15.162868 91.253311,15.715364 
	C91.123749,16.060312 91.065491,16.538116 91.038132,16.777229 
	C86.273476,20.206041 89.030380,22.741011 91.742462,25.636608 
	C91.699287,26.227158 91.646446,26.461845 91.426392,27.020283 
	C90.806923,27.935133 90.267387,28.442518 89.416870,29.176710 
	C88.870094,29.505116 88.629631,29.602247 87.999718,29.752453 
	C85.041481,29.580029 84.120270,27.856394 83.820236,25.599102 
	C83.567360,23.696709 83.732445,21.756567 83.242767,19.469273 
	C83.066376,18.244930 83.159538,17.447367 83.820801,16.402521 
z"/>
<path fill="#111129" opacity="1.000000" stroke="none" 
	d="
M91.314697,27.221256 
	C90.936852,25.815113 90.903862,24.853905 89.681679,24.011898 
	C86.105873,21.548384 86.334648,19.670387 90.631500,17.018745 
	C90.276924,19.303875 87.827461,22.000658 92.832016,22.648396 
	C94.173531,22.822025 95.055038,24.531975 94.756622,26.853928 
	C93.528389,27.982836 92.553665,27.980099 91.314697,27.221256 
z"/>
<path fill="#111129" opacity="1.000000" stroke="none" 
	d="
M91.505859,16.043175 
	C91.123749,16.060312 91.067276,15.577642 91.056290,15.334910 
	C90.403305,14.387491 90.240410,13.591187 90.847794,12.352028 
	C91.580521,11.439370 92.052811,10.872075 92.762993,10.160193 
	C95.169579,9.770292 97.217590,8.219437 99.767509,9.682313 
	C96.512711,10.914310 95.675232,15.443603 91.505859,16.043175 
z"/>
<path fill="#111129" opacity="1.000000" stroke="none" 
	d="
M98.034332,29.358459 
	C97.311378,29.791248 96.561409,29.883654 95.432602,29.956024 
	C94.424957,29.287104 94.286873,28.525438 94.767693,27.336987 
	C95.001221,26.998772 95.017715,26.982033 95.028122,26.971397 
	C96.475281,27.001276 97.939064,27.002777 98.034332,29.358459 
z"/>
<path fill="#16111B" opacity="1.000000" stroke="none" 
	d="
M81.999176,70.503433 
	C77.650612,73.304016 74.489517,78.002434 68.384125,77.846634 
	C66.968987,77.814079 66.277573,77.167862 65.518692,76.060074 
	C64.715736,73.452576 65.962784,71.634583 67.013145,69.428154 
	C67.652863,68.371010 68.271172,67.737686 69.149780,66.915985 
	C70.017487,66.192146 70.634727,65.663536 71.248016,64.709518 
	C71.695801,64.139854 72.030945,63.909752 72.703903,63.873024 
	C75.283424,63.900120 77.621376,64.344902 79.800667,63.117455 
	C81.225128,62.315147 82.882637,61.266472 84.266418,63.016209 
	C85.466202,64.533272 84.073875,65.825066 83.331291,67.020195 
	C82.714737,68.012489 81.949303,68.883804 81.999176,70.503433 
z"/>
<path fill="#0C1735" opacity="1.000000" stroke="none" 
	d="
M88.011337,49.739677 
	C86.772888,51.464161 85.530190,52.935181 84.147652,54.700340 
	C82.175018,56.427414 80.198517,57.413616 77.380585,57.001621 
	C76.742073,57.086006 76.494865,57.169270 76.001526,56.946709 
	C78.445221,50.522232 82.395020,47.755825 87.685577,48.742027 
	C88.001862,49.148262 88.004471,49.317242 88.011337,49.739677 
z"/>
<path fill="#191A39" opacity="1.000000" stroke="none" 
	d="
M70.206589,66.804382 
	C69.518723,67.591942 69.030914,68.179985 68.277428,68.889305 
	C66.301498,67.971901 66.017242,66.099693 65.233246,64.081512 
	C64.790176,62.145905 64.742126,60.614220 65.922745,58.928146 
	C68.458839,57.888733 70.615089,58.075851 72.827896,59.680534 
	C72.997818,61.075371 72.996353,62.136662 72.992516,63.595711 
	C72.670769,64.101013 72.412476,64.291412 72.108017,64.783707 
	C71.457008,65.524452 70.927223,66.060066 70.206589,66.804382 
z"/>
<path fill="#0B1B43" opacity="1.000000" stroke="none" 
	d="
M73.363220,60.005440 
	C71.213509,59.691311 69.427727,59.368549 67.317932,59.016579 
	C65.975273,57.622169 66.859352,56.781887 67.919479,56.205132 
	C69.460098,55.366962 70.570015,54.227070 71.363998,52.277443 
	C72.213768,51.184875 73.084419,50.800102 74.427292,50.666603 
	C76.879288,52.336132 75.474838,54.498611 75.809364,56.714535 
	C76.154869,56.999901 76.321800,57.000771 76.739014,57.002190 
	C76.880180,59.066635 75.726028,59.991898 73.363220,60.005440 
z"/>
<path fill="#AE9DAC" opacity="0.000000" stroke="none" 
	d="
M74.735519,80.244186 
	C75.761208,79.979950 76.561050,79.966095 77.763000,79.933014 
	C78.165115,79.913788 78.107536,79.962250 78.075851,79.941948 
	C78.386604,80.426842 78.573326,80.974648 78.342484,81.844193 
	C77.147408,82.431961 76.111420,82.768723 74.683334,83.222710 
	C74.291252,83.339928 74.133354,83.148827 74.054230,83.053421 
	C73.571266,82.010567 73.842758,81.209671 74.735519,80.244186 
z"/>
<path fill="#908095" opacity="0.000000" stroke="none" 
	d="
M78.363342,82.364136 
	C78.132431,81.556686 78.081451,81.018188 78.037323,80.200668 
	C79.444252,80.390831 80.243500,81.380470 79.804520,82.805634 
	C79.479218,83.861717 78.938316,82.991982 78.363342,82.364136 
z"/>
<path fill="#0D276F" opacity="1.000000" stroke="none" 
	d="
M92.928726,29.665791 
	C92.656105,32.990837 93.175262,35.758278 94.961357,38.622536 
	C93.689766,40.179276 92.146446,40.326637 90.143051,39.903736 
	C88.751633,35.035412 84.395447,34.852787 80.738503,33.113319 
	C80.189384,32.144711 80.145439,31.428770 80.486954,30.359810 
	C83.125694,28.032028 85.938408,30.937695 88.726685,29.246000 
	C89.003258,29.004934 89.000000,29.000000 89.002380,29.001848 
	C89.552216,28.464025 90.209526,28.203781 91.338760,28.306141 
	C92.150467,28.599543 92.519005,28.914124 92.928726,29.665791 
z"/>
<path fill="#012E78" opacity="1.000000" stroke="none" 
	d="
M88.656517,38.719292 
	C90.688210,38.989223 92.413200,38.995106 94.569244,39.000496 
	C95.003166,39.740978 95.006027,40.481960 95.006271,41.593422 
	C93.660004,43.547523 91.381584,43.046638 89.542946,44.419159 
	C88.741020,44.727024 88.257355,44.809406 87.390305,44.794441 
	C85.725548,44.413681 84.849274,43.512642 83.848312,42.192001 
	C83.529930,40.736439 83.925819,39.792351 84.911011,38.689194 
	C86.270798,37.973598 87.311188,37.974102 88.656517,38.719292 
z"/>
<path fill="#012764" opacity="1.000000" stroke="none" 
	d="
M88.781799,44.320934 
	C90.061790,41.575691 92.246246,42.049118 94.613739,41.975540 
	C95.013458,42.408188 95.023254,42.852470 95.037407,43.629639 
	C93.920738,45.563339 91.911469,44.666260 90.271179,45.788277 
	C89.835526,46.020676 89.668861,46.028088 89.251991,46.040241 
	C88.649597,45.639355 88.503738,45.169655 88.781799,44.320934 
z"/>
<path fill="#051F4F" opacity="1.000000" stroke="none" 
	d="
M90.366226,46.016296 
	C90.819000,44.039703 92.518326,43.937046 94.666451,43.976353 
	C95.041763,43.962528 95.535629,43.974754 95.782928,43.980930 
	C95.635727,48.243034 92.768394,46.049911 90.366226,46.016296 
z"/>
<path fill="#111946" opacity="1.000000" stroke="none" 
	d="
M93.376831,30.008648 
	C92.772598,29.825039 92.503372,29.633484 92.115646,29.221359 
	C91.501259,28.597691 90.947144,28.247009 90.863182,27.299017 
	C90.996376,27.005018 91.021286,26.977774 91.035286,26.963427 
	C92.102547,26.963648 93.155800,26.978216 94.605133,26.995777 
	C95.010719,27.733957 95.020226,28.469143 95.041740,29.570160 
	C94.606453,29.957560 94.159157,29.979132 93.376831,30.008648 
z"/>
<path fill="#1F1319" opacity="1.000000" stroke="none" 
	d="
M35.733681,101.157120 
	C39.852539,99.205780 39.764763,94.830505 41.873833,91.883698 
	C43.714012,89.312584 44.563442,86.052574 47.633350,84.027710 
	C49.408016,88.367439 45.550873,91.130676 44.760040,95.036896 
	C47.431953,95.211433 49.605324,94.776978 50.057869,91.397522 
	C50.365475,89.100410 52.277336,87.837555 53.968479,86.049683 
	C54.507057,85.456116 54.835255,85.138435 55.441765,84.621613 
	C58.059860,82.223289 61.039066,81.343201 64.321579,80.292953 
	C65.549477,79.849297 66.474808,79.720596 67.781532,79.968407 
	C68.218529,80.356934 68.301430,80.695572 68.358482,81.556473 
	C66.141312,83.806252 62.849190,84.615814 63.181953,88.732666 
	C63.175014,90.131760 63.073212,91.167244 62.864288,92.579376 
	C60.492065,93.663605 59.941475,96.104149 58.109245,97.694351 
	C57.132591,100.994331 54.064518,102.325714 52.531738,105.241409 
	C49.631832,107.372147 47.775303,110.379951 44.098186,111.035629 
	C43.160294,110.062958 43.031071,109.205399 43.428619,108.008385 
	C43.658852,107.519363 43.762135,107.358398 43.705826,107.408813 
	C42.807247,108.813766 42.680626,110.003960 44.155792,111.328499 
	C43.117065,115.390877 41.213509,118.396362 36.394066,118.347427 
	C33.737823,115.256836 32.868404,118.761803 31.288023,119.207436 
	C29.856878,119.610970 29.490948,123.492500 26.968904,120.204391 
	C28.918472,115.500290 30.937950,111.125900 33.024727,106.394821 
	C34.538204,105.926712 35.038246,105.033966 35.012131,103.359825 
	C35.176773,102.456673 35.344509,101.902962 35.733681,101.157120 
z"/>
<path fill="#83748F" opacity="1.000000" stroke="none" 
	d="
M68.087082,79.761871 
	C67.027451,80.299942 65.919273,80.581581 64.404404,81.002060 
	C62.290428,81.371223 61.672348,80.339668 61.461330,78.512726 
	C62.304302,76.568825 63.579285,75.819702 65.632011,76.038376 
	C66.522942,76.680519 67.091469,77.104607 67.836441,77.728607 
	C68.021439,78.454155 68.029984,78.979797 68.087082,79.761871 
z"/>
<path fill="#91737E" opacity="0.000000" stroke="none" 
	d="
M74.593170,79.998413 
	C74.719986,80.789482 74.478607,81.585159 74.106171,82.669426 
	C73.144020,82.407059 72.312920,81.856102 71.201996,81.182983 
	C71.731598,79.798050 73.020523,80.032410 74.593170,79.998413 
z"/>
<path fill="#051F4F" opacity="1.000000" stroke="none" 
	d="
M88.671661,44.011879 
	C89.000000,44.458675 89.000610,44.911366 89.001511,45.704514 
	C88.683640,46.814205 88.365479,47.583427 88.023285,48.665966 
	C81.922958,48.024586 79.788223,53.292923 76.136063,56.699203 
	C72.281570,55.878414 76.186493,53.326408 74.995422,51.350994 
	C74.649521,50.616383 74.454117,50.197819 74.507263,49.353260 
	C76.315186,46.379807 78.315125,44.526482 81.866936,45.721722 
	C83.540459,46.284885 84.678482,44.117393 86.726562,44.200817 
	C87.470062,44.036896 87.907005,44.027328 88.671661,44.011879 
z"/>
<path fill="#453249" opacity="1.000000" stroke="none" 
	d="
M36.055733,118.524078 
	C40.016510,117.603279 41.709858,114.414482 43.872253,111.325760 
	C46.740196,109.476585 48.229160,106.349106 51.615585,105.092407 
	C54.185078,104.091980 54.669682,105.240715 54.217873,107.597359 
	C47.974461,112.409447 44.915504,119.668701 38.354794,123.948631 
	C37.433052,123.490158 36.857666,122.973442 36.132988,122.201027 
	C36.002003,120.930817 36.020309,119.916306 36.055733,118.524078 
z"/>
<path fill="#3F2C40" opacity="1.000000" stroke="none" 
	d="
M54.306602,107.842949 
	C53.935360,106.841721 54.190022,105.533188 52.270199,105.013977 
	C52.567944,101.773438 55.420425,100.394173 57.659027,98.128387 
	C58.726555,98.157120 60.098980,98.628525 59.385197,99.286591 
	C56.850918,101.623093 57.286644,105.527878 54.306602,107.842949 
z"/>
<path fill="#58455E" opacity="1.000000" stroke="none" 
	d="
M41.525230,84.001358 
	C42.052422,85.138275 41.571129,86.045929 40.300243,86.865227 
	C40.040108,85.876343 39.794212,84.639786 41.525230,84.001358 
z"/>
<path fill="#58455E" opacity="1.000000" stroke="none" 
	d="
M38.542473,90.996277 
	C38.930767,91.827072 38.723824,92.587204 37.504128,93.080765 
	C37.077831,92.253349 37.196754,91.442520 38.542473,90.996277 
z"/>
<path fill="#2B1D2D" opacity="1.000000" stroke="none" 
	d="
M58.354202,53.032799 
	C57.569210,52.994724 57.130974,53.000977 56.364536,53.009140 
	C55.316925,49.907154 57.812038,47.554413 57.973328,44.266464 
	C58.120819,43.739357 58.282841,43.605492 58.742252,43.368931 
	C60.083191,43.057850 61.020996,43.779453 62.379990,43.623329 
	C62.891506,43.740822 63.083195,43.844635 63.448048,44.232002 
	C64.091118,45.923607 63.579655,47.197899 62.955292,48.792641 
	C62.467648,49.954601 62.120590,50.804337 61.496235,51.905273 
	C60.548866,52.834831 59.664131,53.070633 58.354202,53.032799 
z"/>
<path fill="#736793" opacity="1.000000" stroke="none" 
	d="
M59.034615,43.680538 
	C58.709305,43.858589 58.334412,43.861954 58.146603,43.867592 
	C57.501064,43.595768 57.043339,43.318310 56.302078,43.022224 
	C55.814854,40.452007 56.937168,38.797642 59.741661,37.997494 
	C60.434593,38.350811 60.629810,38.801849 60.685616,39.686325 
	C60.455059,41.290707 60.189957,42.505035 59.034615,43.680538 
z"/>
<path fill="#58455E" opacity="1.000000" stroke="none" 
	d="
M52.753082,56.058495 
	C53.014912,56.936504 52.801403,57.756401 51.462448,58.096420 
	C51.047497,57.133492 51.262981,56.321281 52.753082,56.058495 
z"/>
<path fill="#736793" opacity="1.000000" stroke="none" 
	d="
M55.245636,43.961479 
	C55.197605,43.798637 55.368114,43.514183 55.768379,43.123642 
	C55.925797,43.360256 55.747810,43.634361 55.245636,43.961479 
z"/>
<path fill="#233077" opacity="1.000000" stroke="none" 
	d="
M76.616188,19.108856 
	C77.799179,18.315380 78.586777,17.679615 79.687668,17.018709 
	C80.906960,17.591412 81.932465,18.043524 82.660255,19.439167 
	C83.169075,24.208576 80.420723,24.404720 76.813477,23.824869 
	C75.568748,23.192047 75.276253,22.409800 75.236221,21.080854 
	C75.444672,20.091721 75.759270,19.629120 76.616188,19.108856 
z"/>
<path fill="#3A3570" opacity="1.000000" stroke="none" 
	d="
M82.286171,19.224361 
	C81.069633,18.914972 80.286095,18.667347 80.040756,17.311840 
	C80.326691,16.515345 80.652428,16.037119 80.997421,15.254482 
	C80.897530,14.812438 80.778358,14.674806 80.840118,14.332630 
	C81.453293,14.097096 81.885536,14.066105 82.642044,14.027458 
	C83.172859,14.595653 83.379410,15.171504 83.846069,15.929071 
	C84.079369,16.830906 84.052551,17.551027 84.027054,18.633320 
	C83.619522,19.351198 83.145798,19.499060 82.286171,19.224361 
z"/>
<path fill="#413E77" opacity="1.000000" stroke="none" 
	d="
M77.010818,18.591839 
	C76.815475,19.236380 76.619377,19.521614 76.190521,19.929085 
	C75.573128,20.378996 75.127136,20.502560 74.330429,20.243164 
	C74.053001,19.023329 74.073608,18.011190 74.181641,16.634087 
	C75.982445,15.807159 77.056526,16.237673 77.010818,18.591839 
z"/>
<path fill="#2D3881" opacity="1.000000" stroke="none" 
	d="
M80.844421,14.173494 
	C81.021049,14.128088 81.011162,14.539572 81.013931,14.744822 
	C80.697388,14.803216 80.259193,14.713093 80.844421,14.173494 
z"/>
<path fill="#514061" opacity="1.000000" stroke="none" 
	d="
M60.150452,40.357979 
	C60.063389,39.588879 60.061043,39.123425 60.081261,38.308250 
	C60.103821,37.958534 60.142681,37.644680 60.140251,37.486576 
	C61.355473,34.480743 65.044350,35.151051 66.939377,32.594856 
	C68.057213,32.143990 68.835358,32.155087 69.952072,32.649414 
	C71.847183,35.327187 70.508507,37.661495 69.830994,40.403999 
	C68.014420,42.572350 66.444160,44.490379 63.343872,44.194340 
	C63.018711,43.955193 62.533836,43.906742 62.290192,43.905941 
	C60.908421,43.122375 60.728004,41.804764 60.150452,40.357979 
z"/>
<path fill="#736793" opacity="1.000000" stroke="none" 
	d="
M66.806160,32.760967 
	C66.680832,37.015263 62.718941,35.409054 60.487057,37.192024 
	C59.829418,35.774681 60.081070,34.438644 61.798943,33.307713 
	C62.596901,32.414745 63.323704,32.084103 64.565369,31.958820 
	C65.525948,32.019157 66.042336,32.189369 66.806160,32.760967 
z"/>
<path fill="#6966A3" opacity="1.000000" stroke="none" 
	d="
M65.239380,32.797066 
	C64.250450,32.995358 63.502522,33.001820 62.380882,33.015987 
	C61.739883,32.519875 61.472595,32.016056 61.095448,31.248363 
	C61.255783,30.498146 61.525978,30.011808 61.915943,29.273378 
	C62.692532,28.269772 63.538567,28.056641 64.817337,28.242683 
	C66.092194,28.725519 66.283699,29.565451 66.407990,30.776237 
	C66.382767,31.764172 66.034691,32.249783 65.239380,32.797066 
z"/>
<path fill="#002B6C" opacity="1.000000" stroke="none" 
	d="
M90.779083,12.115961 
	C91.098236,12.777020 91.088234,13.547373 91.061768,14.704952 
	C90.584389,15.068694 90.123482,15.045211 89.316208,15.024237 
	C88.445824,14.736444 87.445023,14.384147 87.473419,14.165677 
	C87.694908,12.462345 89.591888,13.120687 90.779083,12.115961 
z"/>
<path fill="#8880AC" opacity="1.000000" stroke="none" 
	d="
M66.020279,22.349209 
	C68.300621,21.684544 70.770844,18.309538 72.942940,22.730682 
	C73.208626,23.208221 73.308296,23.388927 73.295578,23.855761 
	C73.017342,24.259047 72.851494,24.376204 72.395813,24.573347 
	C71.908730,24.658775 71.711479,24.664221 71.225792,24.634872 
	C70.560219,24.546049 70.181267,24.517319 69.517624,24.565887 
	C69.045227,24.653063 68.855370,24.693317 68.373260,24.773712 
	C67.471985,24.840389 66.889656,24.738005 66.137894,24.234047 
	C65.961250,23.569973 65.991501,23.126406 66.020279,22.349209 
z"/>
<path fill="#605E9A" opacity="1.000000" stroke="none" 
	d="
M65.722107,24.104904 
	C66.707169,24.009197 67.483353,24.004852 68.646637,23.998177 
	C70.269775,25.507750 69.728203,26.797037 67.861053,28.299595 
	C66.948624,28.576069 66.706909,28.557257 66.140442,28.381676 
	C65.152550,27.470854 64.941818,26.570881 64.956619,25.246552 
	C65.061356,24.604855 65.250481,24.370804 65.722107,24.104904 
z"/>
<path fill="#736EA6" opacity="1.000000" stroke="none" 
	d="
M64.695496,25.052134 
	C65.890038,25.442638 65.980614,26.353964 65.990219,27.652122 
	C64.926430,28.678936 63.887897,28.708944 62.931202,27.407690 
	C63.457840,26.390385 63.951496,25.798119 64.695496,25.052134 
z"/>
<path fill="#605E9A" opacity="1.000000" stroke="none" 
	d="
M62.724731,27.158237 
	C63.497356,27.904827 64.384781,27.998348 65.658226,27.994110 
	C65.999954,27.999958 66.003372,28.003460 65.973686,28.488430 
	C64.901138,28.984524 63.858280,28.995649 62.425568,29.014030 
	C62.185570,28.458797 62.335426,27.896311 62.724731,27.158237 
z"/>
<path fill="#1F2A6A" opacity="1.000000" stroke="none" 
	d="
M72.750061,24.143593 
	C72.947876,23.893673 73.032745,23.462017 73.070847,23.244766 
	C73.108948,23.027515 73.440140,22.950729 73.604980,22.909250 
	C74.618103,22.934214 75.102791,23.713896 76.176720,23.984077 
	C80.324974,23.494467 80.224724,25.862526 79.646172,28.817274 
	C79.058708,29.991713 78.388809,30.646749 77.272263,31.332714 
	C75.948067,31.702755 75.136086,31.401945 74.346237,30.314396 
	C73.815674,29.075485 73.355507,28.184849 72.173477,27.454807 
	C71.579239,26.664925 71.636726,26.055452 71.985191,25.157497 
	C72.275444,24.715984 72.413841,24.554749 72.750061,24.143593 
z"/>
<path fill="#1C2041" opacity="1.000000" stroke="none" 
	d="
M76.182510,24.636986 
	C74.976807,24.871933 74.225739,24.535990 73.872681,23.186274 
	C73.821442,22.157881 73.873062,21.447992 73.978539,20.386786 
	C74.460541,20.032999 74.888695,20.030531 75.637306,20.039692 
	C75.976616,20.788185 75.995468,21.525049 76.013214,22.631262 
	C76.359314,23.388494 76.488312,23.843344 76.182510,24.636986 
z"/>
<path fill="#9D8FA2" opacity="0.000000" stroke="none" 
	d="
M70.023026,89.724411 
	C70.377266,90.828529 70.709465,91.588539 71.010292,92.662979 
	C68.689423,93.133095 68.198540,91.561119 67.851028,89.431702 
	C67.519020,88.576065 67.462601,88.054787 67.923965,87.245758 
	C69.658607,87.163086 70.061317,88.100952 70.023026,89.724411 
z"/>
<path fill="#D6D0DC" opacity="0.000000" stroke="none" 
	d="
M67.878166,86.973053 
	C68.148888,87.449585 68.066399,87.918373 67.884888,88.730865 
	C67.088058,89.054497 66.390251,89.034431 65.341660,89.003960 
	C65.425186,87.804741 66.221077,87.067688 67.878166,86.973053 
z"/>
<path fill="#120C10" opacity="1.000000" stroke="none" 
	d="
M54.826393,85.732979 
	C53.796268,88.885880 49.884155,90.420708 50.835167,94.424683 
	C50.950066,94.908440 43.076572,97.821548 42.666241,97.443573 
	C41.697670,96.551361 42.120781,95.583763 42.804199,94.825470 
	C45.432461,91.909203 46.223198,88.082542 47.958675,84.347153 
	C49.129913,82.094948 49.617813,79.823219 51.635025,78.119125 
	C52.148491,77.844910 52.371956,77.732590 52.926231,77.795563 
	C53.697655,78.599281 53.827869,79.303574 53.690781,80.392014 
	C52.168240,82.699005 52.792530,84.216850 54.826393,85.732979 
z"/>
<path fill="#2F1F2C" opacity="1.000000" stroke="none" 
	d="
M57.962723,53.354042 
	C58.486450,52.114388 59.312904,52.004528 60.507256,51.994225 
	C61.415474,51.959122 61.977066,52.060272 62.751549,52.478722 
	C63.107330,52.801807 63.220421,52.961704 63.334465,53.703831 
	C63.211033,54.659779 63.068104,55.026272 62.784729,55.654610 
	C62.569805,56.097519 62.476749,56.271339 62.230911,56.697788 
	C61.518032,57.768280 61.117805,58.662571 60.707794,59.886913 
	C60.373150,60.740131 60.105671,61.292198 59.754837,62.148006 
	C58.986603,63.987923 58.513901,65.603172 57.797127,67.466515 
	C57.271942,68.500053 56.640411,69.081352 56.080151,70.095566 
	C55.794735,70.539886 55.670033,70.711548 55.302486,71.089897 
	C54.851574,71.339272 54.643505,71.381950 54.199116,71.210945 
	C53.464134,70.426018 52.965477,69.854767 52.223568,69.125443 
	C51.988480,67.589828 51.996643,66.212280 52.003014,64.420876 
	C56.361992,61.951630 55.455257,56.866653 57.962723,53.354042 
z"/>
<path fill="#14101D" opacity="1.000000" stroke="none" 
	d="
M53.935799,71.361252 
	C54.134998,70.993935 54.307201,70.990593 54.737747,70.989395 
	C56.419968,72.356171 56.257874,74.058022 55.883232,76.184647 
	C55.364876,77.418488 54.712414,77.921593 53.423054,78.078041 
	C52.825809,77.996223 52.645840,77.992531 52.195446,77.973022 
	C51.723522,75.605255 53.363194,73.839378 53.935799,71.361252 
z"/>
<path fill="#091F5E" opacity="1.000000" stroke="none" 
	d="
M76.197342,25.028717 
	C75.953766,24.492071 75.970634,24.066422 75.999802,23.320692 
	C78.245041,22.396681 82.065483,24.778469 81.975342,19.417093 
	C82.423576,19.006710 82.882019,19.003780 83.684418,18.998171 
	C85.773888,20.783340 84.867363,23.021217 84.966019,25.051994 
	C85.074684,27.288887 85.599220,28.918589 88.601852,28.993252 
	C87.116035,32.805599 84.329094,30.629566 81.397949,30.043827 
	C80.379402,30.044954 79.843704,29.819689 79.201614,29.188587 
	C78.785202,27.259140 80.083351,24.522213 76.197342,25.028717 
z"/>
<path fill="#091F5E" opacity="1.000000" stroke="none" 
	d="
M90.675148,27.044575 
	C91.259727,27.497446 91.523079,27.989876 91.891785,28.741549 
	C91.249008,29.003294 90.500862,29.005796 89.378738,29.005997 
	C89.069153,28.093019 89.296440,27.296827 90.675148,27.044575 
z"/>
<path fill="#0B173C" opacity="1.000000" stroke="none" 
	d="
M55.271965,77.360565 
	C55.005138,75.268394 55.006920,73.557838 55.002396,71.419403 
	C54.996090,70.991531 54.999489,71.000343 54.995464,70.998627 
	C55.887463,70.361862 55.961536,69.229591 56.753197,68.177872 
	C56.896458,65.953453 57.768806,64.217270 58.740376,62.215248 
	C59.383972,62.312706 59.656780,62.694565 59.919662,63.489876 
	C60.306900,65.340477 59.275707,67.059883 60.981617,68.622093 
	C62.760792,67.753654 62.793152,65.440384 64.467484,64.059052 
	C64.960930,63.753777 65.186142,63.680901 65.707916,63.803253 
	C67.336708,65.127571 67.257103,66.889046 67.973892,68.660675 
	C67.336441,71.160789 66.661148,73.310997 65.970123,75.858818 
	C64.944214,76.765083 63.934025,77.273735 62.708702,77.975006 
	C60.088585,79.452797 57.753834,79.590271 55.271965,77.360565 
z"/>
<path fill="#151525" opacity="1.000000" stroke="none" 
	d="
M70.326271,66.960831 
	C70.070480,66.091545 70.306686,65.300407 71.679535,65.042938 
	C71.928131,65.909157 71.691162,66.699333 70.326271,66.960831 
z"/>
<path fill="#021F57" opacity="1.000000" stroke="none" 
	d="
M59.417297,64.257065 
	C59.041229,63.534172 59.034725,63.095325 59.022606,62.327293 
	C59.183418,61.455734 59.349838,60.913361 59.746094,60.195328 
	C60.884827,59.020439 61.037418,57.668732 61.806923,56.254032 
	C62.003567,55.995174 61.999542,55.999695 61.998127,56.002472 
	C62.437119,55.585941 62.508068,55.008129 62.849007,54.251778 
	C63.040169,54.039417 63.034740,54.013725 63.045105,54.028862 
	C63.591797,53.503025 64.210602,53.091377 65.293854,52.742844 
	C67.896790,52.578587 69.321365,48.521629 72.084091,51.675190 
	C73.060738,56.217701 69.346992,56.658928 67.060623,58.630241 
	C65.545952,60.139050 66.156082,61.770641 66.005142,63.611694 
	C66.004494,63.998474 65.506317,64.002861 65.257233,64.005157 
	C63.383198,65.315224 61.644901,65.513939 59.417297,64.257065 
z"/>
<path fill="#052462" opacity="1.000000" stroke="none" 
	d="
M72.336121,52.007782 
	C68.955345,49.039448 68.814743,54.479481 66.243744,53.939510 
	C64.465836,51.960068 65.647163,50.275230 66.584503,48.597862 
	C67.525894,46.913254 68.748795,45.373070 69.096344,43.093384 
	C68.999496,42.357727 68.939430,41.939014 68.870865,41.204166 
	C69.273338,38.605656 69.696297,36.321568 70.129349,33.649078 
	C70.036026,32.568775 69.957428,31.876448 70.204048,30.840197 
	C70.601097,29.832336 71.043121,29.283146 71.978065,28.746382 
	C72.548264,28.675163 72.780167,28.717339 73.257072,29.010963 
	C75.280716,32.340214 71.313324,35.230629 73.377609,38.600121 
	C75.259056,41.880795 77.666252,44.736271 75.221909,48.752659 
	C74.998131,49.438793 74.995949,49.876514 74.993568,50.641930 
	C74.213470,51.304008 73.433578,51.638401 72.336121,52.007782 
z"/>
<path fill="#1C3A8B" opacity="1.000000" stroke="none" 
	d="
M89.115250,38.664116 
	C87.912598,38.984177 86.861961,38.985008 85.416595,38.984627 
	C83.385750,37.038910 80.134605,36.792706 79.642548,33.414959 
	C79.956055,32.932259 80.158340,32.796692 80.690979,32.816994 
	C83.228203,32.678925 85.232628,33.785233 87.581055,33.629581 
	C89.946381,33.472813 90.388596,36.108608 89.115250,38.664116 
z"/>
<path fill="#0E2F7C" opacity="1.000000" stroke="none" 
	d="
M81.014053,32.601227 
	C80.851952,32.978123 80.682594,32.983387 80.259079,32.990757 
	C79.644417,33.336227 79.222130,33.572197 78.377289,33.722744 
	C77.771317,33.657436 77.535126,33.585812 77.011375,33.281044 
	C76.524078,32.587257 76.459846,32.110588 76.776718,31.321350 
	C77.499687,30.420540 78.000290,29.813522 78.772339,29.071003 
	C79.587906,29.126936 80.132027,29.318371 80.841698,29.753231 
	C81.007095,30.740973 81.006943,31.485285 81.014053,32.601227 
z"/>
<path fill="#03388E" opacity="1.000000" stroke="none" 
	d="
M77.759071,33.188217 
	C78.450821,32.992096 78.894791,32.992901 79.671844,32.993286 
	C79.907310,36.416878 85.100922,34.813267 85.008591,38.614147 
	C84.764648,39.790222 84.507431,40.597034 84.121078,41.698746 
	C82.457527,45.026005 80.760315,46.062901 78.294426,42.735115 
	C77.133682,41.168674 74.674721,41.155254 73.308365,39.157555 
	C70.168259,38.437675 70.923027,36.571297 71.619797,34.895523 
	C72.307175,33.242332 73.204681,31.679031 73.001480,29.397606 
	C73.409332,28.682325 73.865822,28.531130 74.684311,28.792938 
	C75.084221,29.911169 75.333214,30.699455 76.680984,30.976746 
	C77.001038,31.463816 77.002998,31.900072 77.010391,32.663757 
	C77.181000,33.122509 77.346153,33.253826 77.759071,33.188217 
z"/>
<path fill="#002B6C" opacity="1.000000" stroke="none" 
	d="
M72.999397,39.386726 
	C75.197166,39.327557 78.918388,41.683678 79.697586,42.866833 
	C81.225174,45.186371 82.198715,42.792118 83.691681,42.139839 
	C85.246910,41.934250 85.866318,42.821198 86.768616,43.863625 
	C84.767929,45.699158 83.313843,49.359013 79.336838,46.279053 
	C78.064880,45.293991 77.302490,48.459858 75.346390,48.944534 
	C75.053719,45.767338 74.352623,42.697052 72.999397,39.386726 
z"/>
<path fill="#1F182E" opacity="1.000000" stroke="none" 
	d="
M54.744446,77.089241 
	C57.202633,77.343513 59.401905,77.708076 62.047371,78.120132 
	C62.362629,79.223343 62.658981,80.116669 63.746727,80.972763 
	C62.066319,83.369904 58.600636,82.641586 56.353264,84.960762 
	C53.882500,84.907654 51.952648,84.615593 52.758022,81.341881 
	C52.995239,80.246849 52.998161,79.497871 53.003433,78.374405 
	C53.499031,77.733124 53.992287,77.466324 54.744446,77.089241 
z"/>
<path fill="#120C10" opacity="1.000000" stroke="none" 
	d="
M35.564888,109.136871 
	C37.306618,107.567505 36.638630,105.397423 37.708759,103.918228 
	C38.748753,102.480682 39.760010,101.022339 40.819504,99.522728 
	C41.548801,99.492195 42.115685,100.142281 41.875656,100.700943 
	C40.559414,103.764458 39.189999,106.816261 37.607903,109.747429 
	C37.151375,110.593239 35.834816,111.655838 35.564888,109.136871 
z"/>
<path fill="#14101D" opacity="1.000000" stroke="none" 
	d="
M52.647396,81.053871 
	C52.646389,83.049080 53.874790,83.928421 55.790497,84.725548 
	C55.905514,85.317970 55.717663,85.580795 55.224159,85.891174 
	C51.209114,85.058937 50.743576,84.216660 52.647396,81.053871 
z"/>
<path fill="#38252E" opacity="1.000000" stroke="none" 
	d="
M43.707237,107.159576 
	C44.033562,108.109711 44.017925,109.170242 44.002563,110.629333 
	C44.002834,111.027893 43.997902,110.998573 44.012833,111.000816 
	C43.121574,110.913467 41.855106,111.301453 41.500294,110.249557 
	C40.990715,108.738808 42.529613,108.145233 43.707237,107.159576 
z"/>
<path fill="#38252E" opacity="1.000000" stroke="none" 
	d="
M43.981255,106.980827 
	C44.094608,105.817596 44.396229,104.747307 45.679466,104.456863 
	C45.915855,104.403351 46.549389,104.930733 46.542454,105.177124 
	C46.510757,106.302849 45.633530,106.702591 44.370274,107.011337 
	C44.049198,107.049187 44.003811,107.003708 43.981255,106.980827 
z"/>
<path fill="#332439" opacity="1.000000" stroke="none" 
	d="
M68.521988,40.953857 
	C69.145966,41.103630 69.441536,41.317516 69.861130,41.776627 
	C68.894577,45.749660 66.761055,48.824158 63.663078,51.479164 
	C62.557339,51.084602 62.206955,50.461288 62.020500,49.324749 
	C62.320457,47.535748 62.657433,46.116966 63.006561,44.326691 
	C65.378220,44.094086 66.196465,41.517555 68.521988,40.953857 
z"/>
<path fill="#332439" opacity="1.000000" stroke="none" 
	d="
M59.801239,40.278862 
	C62.192562,40.169285 61.974239,41.763309 62.041817,43.542572 
	C61.169834,45.124939 60.237812,43.874458 59.022568,43.912209 
	C58.985119,42.740189 59.260933,41.621788 59.801239,40.278862 
z"/>
<path fill="#513748" opacity="1.000000" stroke="none" 
	d="
M61.722321,49.169510 
	C62.350391,49.471268 62.717304,49.988007 63.159973,50.822918 
	C63.476559,51.551804 63.530636,51.989449 63.216011,52.723774 
	C62.416954,52.824802 61.826389,52.652248 61.032028,52.235138 
	C61.039211,51.121883 61.250187,50.253189 61.722321,49.169510 
z"/>
<path fill="#83748F" opacity="1.000000" stroke="none" 
	d="
M70.701904,30.675272 
	C70.915634,31.601414 70.776848,32.218414 70.388756,33.048046 
	C69.375916,33.198391 68.612373,33.136105 67.468140,33.066738 
	C66.623039,33.038193 66.158638,33.016731 65.346306,32.992081 
	C65.261536,32.496056 65.524689,32.003220 65.889359,31.249306 
	C67.301369,29.783577 68.777100,29.736607 70.701904,30.675272 
z"/>
<path fill="#9887AC" opacity="1.000000" stroke="none" 
	d="
M71.228745,30.764214 
	C69.647476,30.981762 68.240517,30.979113 66.412216,30.982344 
	C65.136932,30.559536 65.551048,29.988295 65.880066,29.203602 
	C65.944000,28.973398 65.972595,28.986204 65.985802,28.991886 
	C66.153664,28.826557 66.308327,28.655544 66.752228,28.294895 
	C68.534866,27.454409 69.075462,26.257217 69.013168,24.349188 
	C69.033752,23.995844 69.006500,24.002573 69.016098,24.005180 
	C69.416161,23.659922 69.873993,23.529699 70.697556,23.799042 
	C71.005646,24.012383 71.001717,23.996700 70.993774,23.998432 
	C71.414124,24.429132 71.982231,24.513186 72.707062,24.859306 
	C72.618927,25.554743 72.361145,26.019993 72.095917,26.755020 
	C72.393211,27.428055 72.521057,27.881218 72.282486,28.698448 
	C71.863007,29.523079 71.633034,30.033548 71.228745,30.764214 
z"/>
<path fill="#756382" opacity="1.000000" stroke="none" 
	d="
M70.873413,23.771648 
	C70.565521,24.012129 70.125404,24.011875 69.355484,24.009705 
	C69.421143,23.214310 69.969482,22.970842 70.873413,23.771648 
z"/>
<path fill="#756382" opacity="1.000000" stroke="none" 
	d="
M72.936234,24.793018 
	C72.340721,24.894764 71.804741,24.700037 71.127289,24.252739 
	C71.422188,23.982166 71.858559,23.964167 72.621399,23.919922 
	C72.963837,24.094631 72.979797,24.295589 72.936234,24.793018 
z"/>
<path fill="#7D7AAA" opacity="1.000000" stroke="none" 
	d="
M66.785065,28.067995 
	C66.904518,28.397394 66.700592,28.631090 66.214355,28.901958 
	C65.999008,28.997568 65.997581,28.504120 66.004204,28.257618 
	C66.183434,28.017654 66.356041,28.024193 66.785065,28.067995 
z"/>
<path fill="#0E2F7C" opacity="1.000000" stroke="none" 
	d="
M72.320724,29.009533 
	C72.050438,28.569984 72.007904,28.127361 72.026917,27.354767 
	C73.210579,27.062572 74.464340,26.817196 74.943283,28.672850 
	C74.546211,29.010332 74.105583,29.006882 73.334450,29.000999 
	C73.003937,28.998569 72.548470,29.006456 72.320724,29.009533 
z"/>
<path fill="#0E1331" opacity="1.000000" stroke="none" 
	d="
M63.017284,53.259117 
	C63.044262,52.582436 63.081001,52.167522 63.176739,51.446846 
	C66.216347,48.931038 66.791916,44.896370 69.839966,42.324593 
	C71.844063,44.421684 69.339058,45.861969 68.576950,47.548901 
	C67.723457,49.438145 66.074013,50.964874 65.923004,53.589848 
	C65.181808,53.981533 64.473351,54.003376 63.410179,54.034615 
	C63.045994,53.869629 63.036518,53.695251 63.017284,53.259117 
z"/>
<path fill="#0E1331" opacity="1.000000" stroke="none" 
	d="
M61.696159,56.152382 
	C62.059471,57.432835 61.970524,58.816292 60.292229,59.871536 
	C59.965103,58.599518 60.042347,57.212902 61.696159,56.152382 
z"/>
<path fill="#14101D" opacity="1.000000" stroke="none" 
	d="
M56.611904,68.013885 
	C56.929909,69.099220 57.232601,70.392731 55.340408,70.947319 
	C55.038101,69.858528 54.803577,68.596474 56.611904,68.013885 
z"/>
<path fill="#0E1331" opacity="1.000000" stroke="none" 
	d="
M62.784500,54.192081 
	C62.858555,54.588177 62.676937,55.136940 62.246017,55.845474 
	C62.174084,55.451752 62.351460,54.898247 62.784500,54.192081 
z"/>
<path fill="#01194C" opacity="1.000000" stroke="none" 
	d="
M59.028584,64.326828 
	C60.749729,63.982719 62.451729,63.992420 64.580933,64.004784 
	C64.633919,64.890671 64.500282,66.097374 63.836395,66.591095 
	C62.364674,67.685600 64.069817,71.603249 60.887459,70.539291 
	C58.568039,69.763855 58.289097,67.088699 59.028584,64.326828 
z"/>
<path fill="#1C3A8B" opacity="1.000000" stroke="none" 
	d="
M77.759094,32.991119 
	C77.733086,33.104137 77.459320,33.216988 77.100700,33.160515 
	C77.015839,32.991188 77.511337,32.990955 77.759094,32.991119 
z"/>
</svg>