<svg version="1.1" id="Layer_1" xmlns="http://www.w3.org/2000/svg" xmlns:xlink="http://www.w3.org/1999/xlink" x="0px" y="0px"
	 width="100%" viewBox="0 0 434 434" enable-background="new 0 0 434 434" xml:space="preserve">
<path fill="none" opacity="1.000000" stroke="#FFFFFF" stroke-linecap="round" stroke-linejoin="round" stroke-width="6.000000"
	d="
M418.500000,99.500000 
	C413.074310,98.667320 409.538391,102.951385 405.058838,104.654724 
	C400.749146,106.293480 396.942505,108.639679 392.039764,109.296669 
	C387.519562,109.902390 383.185242,112.733894 379.026947,115.048431 
	C364.912140,122.904892 350.582672,130.402939 337.447815,139.928024 
	C334.779968,141.862671 331.608856,143.376251 327.999298,143.006882 
	C325.861481,142.788086 324.153137,143.558411 322.467743,144.961227 
	C316.264191,150.124588 308.870361,153.522537 302.417358,158.390442 
	C297.738708,161.919846 291.852264,160.210205 286.509064,159.861221 
	C284.179749,159.709106 281.831085,159.698257 279.500000,159.500000 
"/>
<path fill="none" opacity="1.000000" stroke="#3f2d33" stroke-linecap="round" stroke-linejoin="round" stroke-width="8.000000"
	d="
M424.000000,62.999985 
	C415.333313,68.999985 406.690369,75.034622 397.993103,80.989914 
	C389.827118,86.581444 380.828430,90.841278 372.938538,96.920242 
	C369.300720,99.723129 367.923370,104.205589 363.616577,106.701164 
	C355.992401,111.118996 348.009186,115.016914 340.919678,120.394089 
	C339.492096,121.476852 337.923889,122.033272 337.483032,123.996193 
	C336.788849,127.087036 334.839600,128.960739 332.061218,130.603516 
	C327.731934,133.163284 325.236084,137.118042 326.000000,142.500000 
"/>
<path fill="none" opacity="1.000000" stroke="#523740" stroke-linecap="round" stroke-linejoin="round" stroke-width="6.000000"
	d="
M425.500000,78.000000 
	C422.817352,77.855270 420.408173,78.726700 418.527496,80.528709 
	C413.471008,85.373642 406.994507,87.765648 401.004364,91.008041 
	C393.985809,94.807083 387.052002,98.766281 379.978302,102.458397 
	C376.382538,104.335205 372.519897,105.312096 368.500000,103.500000 
"/>
<path fill="none" opacity="1.000000" stroke="#A07080" stroke-linecap="round" stroke-linejoin="round" stroke-width="8.000000"
	d="
M284.500000,162.000000 
	C281.723846,165.023880 278.206360,166.811157 274.538544,168.579941 
	C267.577484,171.936813 262.591064,177.888840 257.039856,183.042923 
	C253.405792,186.416977 249.367310,189.503387 246.196167,193.169678 
	C242.944031,196.929626 237.931000,194.714859 235.000000,198.000000 
"/>
<path fill="none" opacity="1.000000" stroke="#3f2d33" stroke-linecap="round" stroke-linejoin="round" stroke-width="3.000000"
	d="
M301.500000,143.499985 
	C299.333313,145.333313 297.138214,147.134308 295.007355,149.008347 
	C292.447845,151.259399 292.398010,154.286804 293.581451,156.963989 
	C296.292999,163.097961 293.369415,167.968689 289.363770,171.338043 
	C280.808960,178.533966 271.500000,184.833328 262.500000,191.500000 
"/>
<path fill="none" opacity="1.000000" stroke="#3f2d33" stroke-linecap="round" stroke-linejoin="round" stroke-width="2.000000"
	d="
M90.500000,119.500000 
	C93.452835,124.063286 97.959236,125.895134 102.941963,127.663528 
	C110.018127,130.174881 117.464729,131.989624 123.190941,137.812225 
	C125.462646,140.122162 122.687004,143.094742 125.500000,144.500000 
"/>
<path fill="none" opacity="1.000000" stroke="#A07080" stroke-linecap="round" stroke-linejoin="round" stroke-width="3.000000"
	d="
M171.500000,344.500000 
	C167.215424,347.822571 163.158279,349.986115 156.921585,348.991791 
	C153.422043,348.433838 149.286942,350.798706 145.433914,348.094147 
	C144.730698,347.600555 143.169434,348.356506 141.999542,348.496155 
	C134.944839,349.338531 127.799316,351.888550 121.005989,347.490753 
	C119.386467,346.442322 118.610329,348.130554 117.472610,348.369720 
	C115.281281,348.830383 113.031754,350.431641 110.817703,347.121948 
	C108.655617,343.889954 105.252495,345.959015 102.500000,347.500000 
"/>
<path fill="none" opacity="1.000000" stroke="#523740" stroke-linecap="round" stroke-linejoin="round" stroke-width="6.000000"
	d="
M93.000000,130.000000 
	C92.404839,133.822006 94.112747,136.637833 99.029007,137.885727 
	C103.852409,139.110092 106.113792,141.535843 105.508041,146.500977 
	C105.447937,146.993652 105.423851,147.923859 105.510872,147.939484 
	C111.297279,148.979065 109.172409,155.088074 111.992966,158.006790 
	C115.024094,161.143387 118.088646,164.255234 120.970367,167.526108 
	C123.063393,169.901764 125.466812,170.766235 128.500000,170.000000 
"/>
<path fill="none" opacity="1.000000" stroke="#3f2d33" stroke-linecap="round" stroke-linejoin="round" stroke-width="3.000000"
	d="
M238.500000,246.000000 
	C241.451263,249.248764 245.076447,250.410355 249.492477,250.642944 
	C253.850525,250.872482 258.185028,252.239212 262.448334,253.223785 
	C267.172821,254.314850 271.794067,254.366470 276.500000,254.500000 
"/>
<path fill="none" opacity="1.000000" stroke="#FFFFFF" stroke-linecap="round" stroke-linejoin="round" stroke-width="8.000000"
	d="
M272.000000,253.500000 
	C270.310944,249.855728 268.541138,246.371002 264.012054,245.441284 
	C262.601318,245.151688 261.187286,244.357727 260.024078,243.468506 
	C253.308029,238.334213 246.549088,241.022110 240.039780,243.600433 
	C235.408432,245.434891 230.902664,244.749893 229.129944,239.951996 
	C226.422104,232.623184 219.330780,231.191757 213.887894,227.673416 
	C211.751770,226.292603 208.458099,227.387680 206.000000,229.000000 
"/>
<path fill="none" opacity="1.000000" stroke="#3f2d33" stroke-linecap="round" stroke-linejoin="round" stroke-width="8.000000"
	d="
M220.000000,215.500000 
	C221.042145,219.009460 220.859436,222.812500 225.931976,224.241486 
	C229.531540,225.255508 232.782959,226.463287 236.503464,225.513565 
	C237.480499,225.264145 238.294174,224.519989 239.539078,225.447540 
	C243.094604,228.096725 246.846848,230.480469 250.495239,233.006882 
	C252.936295,234.697250 253.938110,237.050339 253.500000,240.000000 
"/>
<path fill="none" opacity="1.000000" stroke="#252525" stroke-linecap="round" stroke-linejoin="round" stroke-width="3.000000"
	d="
M259.500000,340.500000 
	C256.444092,340.342560 253.788956,339.842133 251.962570,343.869659 
	C250.958618,346.083588 247.220413,346.832520 243.958588,345.076935 
	C239.518280,342.687042 235.496109,343.679504 231.416473,346.894012 
	C226.687927,350.619904 220.682251,350.066345 215.000320,349.979401 
	C211.165329,349.920715 207.333328,349.666656 203.500000,349.500000 
"/>
<path fill="none" opacity="1.000000" stroke="#A07080" stroke-linecap="round" stroke-linejoin="round" stroke-width="8.000000"
	d="
M36.500000,126.000000 
	C43.928982,122.637505 51.514050,123.801285 58.979362,125.586304 
	C62.929310,126.530777 66.708313,127.334908 70.473267,125.446693 
	C71.529694,124.916878 72.291267,124.641586 73.512337,124.951378 
	C79.658630,126.510757 84.169548,122.646217 88.980873,119.965660 
	C91.607338,118.502365 90.681992,114.944084 92.939262,112.931862 
	C99.025871,107.506020 104.399223,101.400223 109.685135,95.156738 
	C112.812103,91.463318 117.946419,89.618240 122.500000,87.500000 
"/>
<path fill="none" opacity="1.000000" stroke="#3f2d33" stroke-linecap="round" stroke-linejoin="round" stroke-width="8.000000"
	d="
M229.500000,250.000000 
	C227.603241,252.018692 225.213150,252.626266 222.518738,253.105362 
	C218.594620,253.803116 214.618713,254.461624 210.972092,256.448792 
	C205.955078,259.182739 196.339020,256.828979 190.898422,252.631668 
	C188.864502,251.062561 188.035416,248.394379 185.500000,247.500000 
"/>
<path fill="none" opacity="1.000000" stroke="#3f2d33" stroke-linecap="round" stroke-linejoin="round" stroke-width="9.000000"
	d="
M207.000000,234.500000 
	C210.587921,236.490829 214.479462,238.054245 217.881973,240.188202 
	C221.693054,242.578400 225.073090,242.908417 229.000000,241.500000 
"/>
<path fill="none" opacity="1.000000" stroke="#3f2d33" stroke-linecap="round" stroke-linejoin="round" stroke-width="2.000000"
	d="
M374.500000,127.500000 
	C367.871307,132.149780 360.545837,135.580200 353.500000,139.500000 
"/>
<path fill="none" opacity="1.000000" stroke="#523740" stroke-linecap="round" stroke-linejoin="round" stroke-width="4.000000"
	d="
M337.000000,123.000000 
	C332.928192,121.431793 329.368591,123.346214 326.590881,125.611458 
	C320.331116,130.716339 313.928589,135.620331 307.512451,140.516327 
	C306.885986,140.994354 306.450653,141.734650 305.500000,141.500000 
"/>
<path fill="none" opacity="1.000000" stroke="#A07080" stroke-linecap="round" stroke-linejoin="round" stroke-width="5.000000"
	d="
M105.000000,149.000000 
	C103.414856,152.909500 103.201591,156.046799 105.094917,160.666031 
	C109.029091,170.264420 117.404327,173.071655 124.977715,177.537781 
	C127.022202,178.743469 128.058075,177.094711 129.500000,176.500000 
"/>
<path fill="none" opacity="1.000000" stroke="#FFFFFF" stroke-linecap="round" stroke-linejoin="round" stroke-width="3.000000"
	d="
M183.500000,287.500000 
	C182.256836,280.621887 178.700760,275.878784 171.500000,274.500000 
"/>
<path fill="none" opacity="1.000000" stroke="#523740" stroke-linecap="round" stroke-linejoin="round" stroke-width="8.000000"
	d="
M172.500000,208.000000 
	C174.720276,211.923416 177.242126,214.073013 182.314362,215.611893 
	C188.383881,217.453323 194.586517,220.827667 200.498138,224.003448 
	C204.288040,226.039429 205.256195,229.584457 205.500000,233.500000 
"/>
<path fill="none" opacity="1.000000" stroke="#523740" stroke-linecap="round" stroke-linejoin="round" stroke-width="3.000000"
	d="
M410.500000,87.500000 
	C410.947876,90.640610 409.354950,92.779572 406.994934,94.493042 
	C403.514496,97.019966 400.004089,99.505730 396.498566,101.997963 
	C394.165344,103.656738 391.884033,105.346687 391.500000,108.500000 
"/>
<path fill="none" opacity="1.000000" stroke="#3f2d33" stroke-linecap="round" stroke-linejoin="round" stroke-width="3.000000"
	d="
M136.500000,230.500000 
	C131.672073,225.327927 127.758972,219.241028 121.500000,215.500000 
"/>
<path fill="none" opacity="1.000000" stroke="#A07080" stroke-linecap="round" stroke-linejoin="round" stroke-width="5.000000"
	d="
M224.500000,283.500000 
	C230.046036,284.517212 229.723526,289.512573 229.799133,293.004364 
	C230.002731,302.408112 231.217789,311.518921 233.902496,320.529053 
	C234.740082,323.340027 234.091187,326.492798 234.364670,329.512268 
	C234.797272,334.288269 235.320740,338.892151 238.000000,343.000000 
"/>
<path fill="none" opacity="1.000000" stroke="#3f2d33" stroke-linecap="round" stroke-linejoin="round" stroke-width="9.000000"
	d="
M208.500000,246.500000 
	C205.606430,242.871155 204.400986,238.960953 206.503906,234.491608 
	C204.785461,232.735886 203.514130,234.930206 202.008987,235.086533 
	C197.325775,235.572952 193.364380,238.990784 187.897446,237.339523 
	C185.597595,236.644882 181.896194,239.152557 179.493225,241.493042 
	C176.856308,244.061371 174.166672,244.305344 171.500000,241.500000 
"/>
<path fill="none" opacity="1.000000" stroke="#523740" stroke-linecap="round" stroke-linejoin="round" stroke-width="6.000000"
	d="
M197.500000,309.500000 
	C195.178009,309.200714 192.850159,309.905701 191.582657,311.563202 
	C187.150284,317.359283 181.005539,320.842041 174.967300,324.445190 
	C171.613861,326.446259 170.679718,330.470581 167.500000,332.500000 
"/>
<path fill="none" opacity="1.000000" stroke="#3f2d33" stroke-linecap="round" stroke-linejoin="round" stroke-width="2.000000"
	d="
M167.500000,249.000000 
	C171.410797,253.678406 176.584137,255.831726 182.500000,256.500000 
"/>
<path fill="none" opacity="1.000000" stroke="#A07080" stroke-linecap="round" stroke-linejoin="round" stroke-width="2.000000"
	d="
M87.500000,139.500000 
	C90.794708,138.513229 92.957962,140.212204 95.022507,142.479507 
	C97.668510,145.385376 100.592476,147.887085 105.000000,147.000000 
"/>
<path fill="none" opacity="1.000000" stroke="#3f2d33" stroke-linecap="round" stroke-linejoin="round" stroke-width="2.000000"
	d="
M118.500000,100.500000 
	C115.971077,103.286522 112.628250,102.427155 109.499855,102.492958 
	C107.667328,102.531502 105.833336,102.500000 104.000000,102.500000 
"/>
<path fill="none" opacity="1.000000" stroke="#3f2d33" stroke-linecap="round" stroke-linejoin="round" stroke-width="6.000000"
	d="
M156.000000,211.000000 
	C158.537704,212.462296 160.261230,214.713806 162.024261,216.981140 
	C165.304688,221.199905 169.664902,223.622025 174.999542,224.253799 
	C177.942215,224.602295 180.585831,225.578339 182.500000,228.000000 
"/>
<path fill="none" opacity="1.000000" stroke="#FFFFFF" stroke-linecap="round" stroke-linejoin="round" stroke-width="8.000000"
	d="
M115.500000,174.000000 
	C113.390366,177.155975 114.928810,179.655807 117.013390,181.988037 
	C118.491058,183.641235 120.197594,185.007111 120.542564,187.494095 
	C121.462700,194.127579 130.527176,198.955017 136.482986,195.966110 
	C140.143555,194.129074 143.571899,194.877365 146.421310,197.100845 
	C148.885773,199.023972 151.417053,201.124649 153.000000,204.000000 
"/>
<path fill="none" opacity="1.000000" stroke="#3f2d33" stroke-linecap="round" stroke-linejoin="round" stroke-width="2.000000"
	d="
M102.500000,106.000000 
	C104.766121,108.415939 107.493813,110.554970 110.536232,111.363693 
	C116.534737,112.958199 118.712883,118.151024 120.108200,122.622269 
	C121.181862,126.062744 123.116425,129.057480 124.073799,132.479355 
	C124.435791,133.773239 124.816666,134.833328 124.000000,136.000000 
"/>
<path fill="none" opacity="1.000000" stroke="#523740" stroke-linecap="round" stroke-linejoin="round" stroke-width="3.000000"
	d="
M136.500000,236.500000 
	C144.153793,238.019302 148.307617,244.788589 154.500000,248.500000 
"/>
<path fill="none" opacity="1.000000" stroke="#3f2d33" stroke-linecap="round" stroke-linejoin="round" stroke-width="3.000000"
	d="
M126.000000,178.500000 
	C124.859123,181.783615 127.531265,184.603149 128.816147,186.253922 
	C131.738571,190.008575 130.351562,193.048172 129.500000,196.500000 
"/>
<path fill="none" opacity="1.000000" stroke="#A07080" stroke-linecap="round" stroke-linejoin="round" stroke-width="10.000000"
	d="
M253.500000,213.500000 
	C251.217453,212.869827 249.532623,214.642365 247.537811,215.148926 
	C242.606384,216.401199 239.140457,212.985931 235.063858,211.783478 
	C232.871384,211.136765 231.222488,210.670181 229.520798,212.026093 
	C224.424286,216.086975 218.771713,215.305405 214.125519,212.305588 
	C209.017746,209.007721 203.414185,208.779602 197.970871,207.639008 
	C194.428162,206.896652 190.849625,206.464920 187.500000,205.000000 
"/>
<path fill="none" opacity="1.000000" stroke="#3f2d33" stroke-linecap="round" stroke-linejoin="round" stroke-width="5.000000"
	d="
M126.000000,165.250000 
	C127.770515,162.815018 126.760185,157.723587 123.431763,156.728165 
	C120.499924,155.851349 119.338905,154.135880 117.601608,152.128418 
	C115.872063,150.129929 112.959061,149.058746 110.000000,150.500000 
"/>
<path fill="none" opacity="1.000000" stroke="#523740" stroke-linecap="round" stroke-linejoin="round" stroke-width="5.000000"
	d="
M106.000000,169.000000 
	C104.757141,173.884476 106.451492,179.305176 108.907433,182.148010 
	C111.900314,185.612366 111.175430,189.255676 112.160362,192.600021 
	C112.721931,194.506836 112.548798,196.434784 114.513756,197.473999 
	C117.478912,199.042191 117.594597,201.697556 117.500000,204.500000 
"/>
<path fill="none" opacity="1.000000" stroke="#3f2d33" stroke-linecap="round" stroke-linejoin="round" stroke-width="3.000000"
	d="
M194.000000,207.500000 
	C193.063034,211.681793 190.730057,215.528549 191.000000,220.000000 
"/>
<path fill="none" opacity="1.000000" stroke="#3f2d33" stroke-linecap="round" stroke-linejoin="round" stroke-width="3.000000"
	d="
M134.000000,218.500000 
	C137.207626,221.639679 140.067383,225.165863 144.000000,227.500000 
"/>
<path fill="none" opacity="1.000000" stroke="#3f2d33" stroke-linecap="round" stroke-linejoin="round" stroke-width="5.000000"
	d="
M264.500000,196.500000 
	C257.223175,200.036911 252.742523,206.730820 247.000000,212.000000 
"/>
<path fill="none" opacity="1.000000" stroke="#523740" stroke-linecap="round" stroke-linejoin="round" stroke-width="5.000000"
	d="
M147.500000,187.500000 
	C149.093597,187.412109 150.547333,187.719818 152.017670,188.465164 
	C156.132156,190.550888 160.568649,191.783157 165.000000,193.000000 
"/>
<path fill="none" opacity="1.000000" stroke="#3f2d33" stroke-linecap="round" stroke-linejoin="round" stroke-width="3.000000"
	d="
M116.500000,114.500000 
	C120.244774,114.737091 124.239426,113.599831 127.500000,116.500000 
"/>
<path fill="none" opacity="1.000000" stroke="#3f2d33" stroke-linecap="round" stroke-linejoin="round" stroke-width="3.000000"
	d="
M114.000000,143.000000 
	C118.166664,145.500000 122.333328,148.000000 126.500000,150.500000 
"/>
<path fill="none" opacity="1.000000" stroke="#3f2d33" stroke-linecap="round" stroke-linejoin="round" stroke-width="2.000000"
	d="
M101.500000,163.500000 
	C101.008247,167.166672 103.772667,170.833328 101.500000,174.500000 
"/>
<path fill="none" opacity="1.000000" stroke="#523740" stroke-linecap="round" stroke-linejoin="round" stroke-width="3.000000"
	d="
M161.000000,336.000000 
	C157.058136,338.861328 152.377090,340.702606 149.407425,344.935059 
	C148.669235,345.987122 147.248138,347.162964 145.500000,347.000000 
"/>
<path fill="none" opacity="1.000000" stroke="#523740" stroke-linecap="round" stroke-linejoin="round" stroke-width="3.000000"
	d="
M196.500000,243.000000 
	C198.500000,244.833328 200.461838,246.711624 202.528976,248.465851 
	C202.998764,248.864532 204.158646,249.202286 204.451019,248.944473 
	C208.602066,245.284271 214.224731,248.826538 218.500000,246.000000 
"/>
<path fill="none" opacity="1.000000" stroke="#523740" stroke-linecap="round" stroke-linejoin="round" stroke-width="3.000000"
	d="
M168.000000,223.000000 
	C166.778030,226.285614 166.414383,228.953003 170.971909,230.110626 
	C173.503983,230.753784 175.992279,232.096832 178.000000,234.000000 
"/>
<path fill="none" opacity="1.000000" stroke="#523740" stroke-linecap="round" stroke-linejoin="round" stroke-width="2.000000"
	d="
M78.500000,112.500000 
	C78.174088,115.797073 79.264000,118.870598 80.000000,122.000000 
"/>
<path fill="none" opacity="1.000000" stroke="#A07080" stroke-linecap="round" stroke-linejoin="round" stroke-width="3.000000"
	d="
M172.500000,190.500000 
	C171.491547,194.766861 173.348923,196.864655 177.969864,198.111679 
	C181.055222,198.944336 183.857986,198.099625 186.454849,197.344681 
	C191.227066,195.957352 195.396835,197.007767 199.463516,199.071884 
	C201.118500,199.911896 203.287811,198.485077 204.500000,200.500000 
"/>
<path fill="none" opacity="1.000000" stroke="#3f2d33" stroke-linecap="round" stroke-linejoin="round" stroke-width="6.000000"
	d="
M127.500000,166.000000 
	C128.050659,169.730911 130.749069,172.708130 130.352966,177.032333 
	C130.156265,179.179703 133.413818,181.954697 135.606094,183.879150 
	C136.711243,184.849274 137.113663,185.914749 137.750000,187.000000 
"/>
<path fill="none" opacity="1.000000" stroke="#3f2d33" stroke-linecap="round" stroke-linejoin="round" stroke-width="3.000000"
	d="
M207.000000,262.000000 
	C208.246231,265.567200 211.195526,267.005585 214.500000,268.000000 
"/>
<path fill="none" opacity="1.000000" stroke="#523740" stroke-linecap="round" stroke-linejoin="round" stroke-width="3.000000"
	d="
M164.000000,207.000000 
	C164.869904,210.404068 167.242538,212.605957 169.865738,214.641205 
	C171.353409,214.050644 172.676697,213.525330 174.000000,213.000015 
"/>
<path fill="none" opacity="1.000000" stroke="#A07080" stroke-linecap="round" stroke-linejoin="round" stroke-width="6.000000"
	d="
M157.500000,243.500000 
	C159.378860,244.146332 160.449402,245.858032 162.438416,246.653915 
	C169.215866,249.365814 170.298752,249.357132 174.000000,244.000000 
"/>
<path fill="none" opacity="1.000000" stroke="#3f2d33" stroke-linecap="round" stroke-linejoin="round" stroke-width="3.000000"
	d="
M123.000000,233.000000 
	C123.950790,236.655563 129.073456,235.818329 130.000000,239.500000 
"/>
<path fill="none" opacity="1.000000" stroke="#523740" stroke-linecap="round" stroke-linejoin="round" stroke-width="3.000000"
	d="
M152.500000,225.500000 
	C152.098221,229.678070 152.817154,233.669357 154.500000,237.500000 
"/>
<path fill="none" opacity="1.000000" stroke="#A07080" stroke-linecap="round" stroke-linejoin="round" stroke-width="4.000000"
	d="
M178.500000,268.500000 
	C184.025223,271.198181 189.287476,274.838959 196.006393,273.023651 
	C198.043335,272.473297 199.658463,274.030060 201.500000,274.500000 
"/>
<path fill="none" opacity="1.000000" stroke="#3f2d33" stroke-linecap="round" stroke-linejoin="round" stroke-width="2.000000"
	d="
M202.500000,349.000000 
	C199.208389,346.166962 197.062424,349.444031 194.500000,350.500000 
"/>
<path fill="none" opacity="1.000000" stroke="#A07080" stroke-linecap="round" stroke-linejoin="round" stroke-width="2.000000"
	d="
M148.500000,212.000000 
	C142.632690,208.564209 136.436356,208.172043 130.000000,210.000000 
"/>
<path fill="none" opacity="1.000000" stroke="#3f2d33" stroke-linecap="round" stroke-linejoin="round" stroke-width="3.000000"
	d="
M138.500000,187.000000 
	C141.339371,189.032120 140.730377,191.753922 140.000000,194.500000 
"/>
<path fill="none" opacity="1.000000" stroke="#523740" stroke-linecap="round" stroke-linejoin="round" stroke-width="2.000000"
	d="
M205.500000,259.000000 
	C205.750793,261.500000 204.135117,264.000000 205.500000,266.500000 
"/>
<path fill="none" opacity="1.000000" stroke="#3f2d33" stroke-linecap="round" stroke-linejoin="round" stroke-width="3.000000"
	d="
M155.500000,184.500000 
	C163.527054,187.192902 171.551605,189.895218 180.000000,191.000000 
"/>
<path fill="none" opacity="1.000000" stroke="#A07080" stroke-linecap="round" stroke-linejoin="round" stroke-width="2.000000"
	d="
M421.500000,93.500000 
	C419.157501,95.125542 416.173340,95.992737 415.000000,99.000000 
"/>
<path fill="none" opacity="1.000000" stroke="#3f2d33" stroke-linecap="round" stroke-linejoin="round" stroke-width="5.000000"
	d="
M119.500000,141.500000 
	C118.275192,141.740341 117.636993,139.650330 115.952309,140.937576 
	C113.082077,143.130722 109.336571,143.010788 106.000000,144.000000 
"/>
<path fill="none" opacity="1.000000" stroke="#523740" stroke-linecap="round" stroke-linejoin="round" stroke-width="3.000000"
	d="
M135.500000,176.000000 
	C136.955078,177.597824 139.168610,177.960266 140.625977,179.905624 
	C143.220535,183.368942 147.747314,182.603668 151.500000,183.500000 
"/>
<path fill="none" opacity="1.000000" stroke="#A07080" stroke-linecap="round" stroke-linejoin="round" stroke-width="4.000000"
	d="
M177.500000,203.500000 
	C180.583328,204.400726 183.666672,207.320770 186.750000,203.500000 
"/>
<path fill="none" opacity="1.000000" stroke="#3f2d33" stroke-linecap="round" stroke-linejoin="round" stroke-width="3.000000"
	d="
M104.500008,89.500000 
	C104.666672,91.833336 104.833336,94.166664 105.000008,96.500000 
"/>
<path fill="none" opacity="1.000000" stroke="#3f2d33" stroke-linecap="round" stroke-linejoin="round" stroke-width="2.000000"
	d="
M184.000000,288.500000 
	C186.135544,293.141174 191.068481,295.880096 192.500000,301.000000 
"/>
<path fill="none" opacity="1.000000" stroke="#523740" stroke-linecap="round" stroke-linejoin="round" stroke-width="3.000000"
	d="
M109.000000,206.000000 
	C111.778923,207.602768 113.420769,211.157150 117.518867,210.653503 
	C118.218735,210.567520 119.733597,212.413223 119.902222,213.514969 
	C120.646812,218.379852 123.975502,222.459381 124.000000,227.500000 
"/>
<path fill="none" opacity="1.000000" stroke="#3f2d33" stroke-linecap="round" stroke-linejoin="round" stroke-width="3.000000"
	d="
M146.000000,187.750000 
	C148.027771,190.166672 147.142990,192.583328 146.000000,195.000000 
"/>
<path fill="none" opacity="1.000000" stroke="#3f2d33" stroke-linecap="round" stroke-linejoin="round" stroke-width="3.000000"
	d="
M117.500000,222.500000 
	C120.414116,224.839523 120.474327,228.923096 123.000000,231.500000 
	C122.509857,231.848114 122.479744,232.886276 121.500000,232.500000 
"/>
<path fill="none" opacity="1.000000" stroke="#3f2d33" stroke-linecap="round" stroke-linejoin="round" stroke-width="2.000000"
	d="
M114.500000,124.500000 
	C112.070107,124.105164 110.464531,124.946800 110.000000,127.500000 
"/>
<path fill="none" opacity="1.000000" stroke="#523740" stroke-linecap="round" stroke-linejoin="round" stroke-width="3.000000"
	d="
M172.500000,235.500000 
	C171.358704,235.948563 169.689148,235.897430 170.884857,238.063553 
	C171.172134,238.584000 172.145126,240.603928 170.000000,241.000000 
"/>
<path fill="none" opacity="1.000000" stroke="#3f2d33" stroke-linecap="round" stroke-linejoin="round" stroke-width="3.000000"
	d="
M242.000000,197.000000 
	C241.963287,198.654434 242.248581,200.276596 240.568588,201.587875 
	C239.841980,202.154999 237.715942,202.607971 239.000000,204.500000 
"/>
<path fill="none" opacity="1.000000" stroke="#A07080" stroke-linecap="round" stroke-linejoin="round" stroke-width="2.000000"
	d="
M160.000000,236.500000 
	C159.204559,237.409119 159.072174,238.698822 156.957550,238.169617 
	C154.644150,237.590668 152.000000,238.333328 149.500000,238.500000 
"/>
<path fill="none" opacity="1.000000" stroke="#3f2d33" stroke-linecap="round" stroke-linejoin="round" stroke-width="3.000000"
	d="
M205.500000,249.500000 
	C205.333328,251.500000 205.166672,253.500000 205.000000,255.500000 
"/>
<path fill="none" opacity="1.000000" stroke="#3f2d33" stroke-linecap="round" stroke-linejoin="round" stroke-width="3.000000"
	d="
M185.500000,192.500000 
	C187.529251,193.137405 189.278259,194.055084 189.500000,196.500000 
"/>
<path fill="none" opacity="1.000000" stroke="#3f2d33" stroke-linecap="round" stroke-linejoin="round" stroke-width="3.000000"
	d="
M105.500000,186.500000 
	C106.584023,189.758270 107.669312,193.016403 106.500000,196.500000 
"/>
<path fill="none" opacity="1.000000" stroke="#3f2d33" stroke-linecap="round" stroke-linejoin="round" stroke-width="2.000000"
	d="
M177.500000,206.000000 
	C175.666672,206.500000 173.833328,207.000000 172.000000,207.500000 
"/>
<path fill="none" opacity="1.000000" stroke="#523740" stroke-linecap="round" stroke-linejoin="round" stroke-width="2.000000"
	d="
M173.000000,195.999985 
	C171.500000,196.499985 170.000000,196.999985 168.500000,197.499985 
"/>
<path fill="none" opacity="1.000000" stroke="#A07080" stroke-linecap="round" stroke-linejoin="round" stroke-width="2.000000"
	d="
M170.000000,328.500000 
	C168.427429,328.506805 166.722366,327.917328 165.500000,329.500000 
"/>
<path fill="none" opacity="1.000000" stroke="#3f2d33" stroke-linecap="round" stroke-linejoin="round" stroke-width="2.000000"
	d="
M120.000000,125.999992 
	C118.500000,126.333328 117.000000,126.666664 115.500000,126.999992 
"/>
<path fill="none" opacity="1.000000" stroke="#3f2d33" stroke-linecap="round" stroke-linejoin="round" stroke-width="2.000000"
	d="
M111.000000,197.500000 
	C109.863518,199.419189 110.966324,201.524979 110.500000,203.500000 
"/>
<path fill="none" opacity="1.000000" stroke="#523740" stroke-linecap="round" stroke-linejoin="round" stroke-width="3.000000"
	d="
M128.000000,124.000000 
	C126.045570,121.731781 123.397156,122.702171 121.000000,122.500000 
"/>
<path fill="none" opacity="1.000000" stroke="#3f2d33" stroke-linecap="round" stroke-linejoin="round" stroke-width="2.000000"
	d="
M111.500000,194.500000 
	C110.347549,194.233810 109.037025,195.074142 108.000000,194.000000 
"/>
<path fill="none" opacity="1.000000" stroke="#A07080" stroke-linecap="round" stroke-linejoin="round" stroke-width="3.000000"
	d="
M147.500000,225.000000 
	C145.593216,226.813766 142.112823,227.659164 143.500000,231.500000 
"/>
<path fill="none" opacity="1.000000" stroke="#3f2d33" stroke-linecap="round" stroke-linejoin="round" stroke-width="2.000000"
	d="
M60.500000,119.500000 
	C62.170555,120.249352 61.669441,121.360649 61.000000,122.500000 
"/>
<path fill="none" opacity="1.000000" stroke="#523740" stroke-linecap="round" stroke-linejoin="round" stroke-width="2.000000"
	d="
M126.000000,154.000000 
	C126.328835,155.395264 127.550041,156.902084 125.500000,158.000000 
"/>
<path fill="none" opacity="1.000000" stroke="#3f2d33" stroke-linecap="round" stroke-linejoin="round" stroke-width="1.000000"
	d="
M167.000015,230.000015 
	C166.500015,230.333359 166.000015,230.666687 165.500015,231.000015 
"/>
<path fill="none" opacity="1.000000" stroke="#A07080" stroke-linecap="round" stroke-linejoin="round" stroke-width="1.000000"
	d="
M169.000000,194.000000 
	C168.500000,194.685974 168.000000,194.685974 167.500000,194.000000 
"/>
<path fill="none" opacity="1.000000" stroke="#523740" stroke-linecap="round" stroke-linejoin="round" stroke-width="2.000000"
	d="
M154.500000,192.000000 
	C153.648788,192.833328 151.707108,193.666672 154.500000,194.500000 
"/>
</svg>