<svg version="1.1" id="Layer_1" xmlns="http://www.w3.org/2000/svg" xmlns:xlink="http://www.w3.org/1999/xlink" x="0px" y="0px"
	 width="100%" viewBox="0 0 139 139" enable-background="new 0 0 139 139" xml:space="preserve">
<path fill="#FFFFFF" opacity="0.000000" stroke="none" 
	d="
M1.367573,28.275192 
	C1.000000,19.851789 1.077032,11.702332 0.945274,3.556252 
	C0.912757,1.545852 1.189190,0.930294 3.433462,0.934684 
	C48.165306,1.022190 92.897423,1.026265 137.629211,0.927050 
	C140.014786,0.921759 140.067215,1.737362 140.043686,3.618632 
	C139.941727,11.765555 140.000000,19.914484 140.000000,28.531342 
	C136.895996,30.946634 133.085754,31.309805 130.065063,33.513069 
	C128.987991,34.298679 127.503998,34.122856 126.175438,33.789040 
	C118.435539,31.844280 110.722099,31.838284 103.009163,33.988243 
	C101.374222,34.443977 99.484085,34.552410 98.179398,33.459766 
	C93.352776,29.417597 87.282486,29.617731 81.951897,30.016264 
	C72.734207,30.705406 63.670376,29.554132 54.540401,29.542986 
	C39.218281,29.524279 23.896118,29.358738 8.573583,29.498310 
	C6.263929,29.519350 3.886534,29.780249 1.367573,28.275192 
z"/>
<path fill="#FCF8FA" opacity="0.000000" stroke="none" 
	d="
M139.722321,62.767471 
	C140.000000,80.687561 140.000000,98.375122 140.000000,116.531342 
	C138.689514,118.193771 137.066940,118.528915 135.387115,118.528137 
	C111.034485,118.516838 86.680603,118.914551 61.889359,118.225555 
	C58.166588,115.001831 57.708698,110.559044 56.169476,106.257584 
	C58.876926,101.507149 63.601585,101.929420 68.050568,100.780441 
	C69.463188,100.620277 70.507233,100.637749 71.820496,100.025253 
	C75.612335,98.627884 79.168335,97.966316 83.170059,97.677429 
	C86.146049,97.931435 88.349693,97.006851 90.385994,95.446724 
	C91.789215,94.371635 92.831192,93.194092 92.227547,91.293701 
	C91.671768,89.543999 90.387146,88.626801 88.599976,88.401039 
	C86.437302,88.127846 84.340240,88.445976 81.933609,89.287613 
	C75.838844,90.372314 70.187431,91.720604 64.509109,92.947708 
	C62.127644,93.462349 59.509434,93.974419 57.518997,91.144775 
	C57.465870,89.247269 58.228889,88.191521 59.797173,87.257599 
	C67.578018,85.686897 72.621391,80.888191 77.228027,74.891968 
	C79.274605,72.302216 81.485146,70.562172 84.792671,69.916229 
	C86.225639,69.714546 87.285362,69.480240 88.391762,68.484787 
	C89.005806,67.991562 89.381218,67.738075 90.084473,67.353577 
	C93.868919,66.283974 96.735130,64.172653 100.137711,62.295311 
	C101.723030,61.755428 103.009705,61.735031 104.690010,61.674583 
	C106.160454,61.648582 107.234161,61.683662 108.719292,61.616707 
	C109.963913,61.559769 110.797058,61.575901 112.052582,61.579056 
	C116.157066,61.651737 119.839256,61.619114 123.930824,61.625061 
	C127.474472,61.746990 130.498856,62.872780 134.044098,62.617924 
	C134.664276,62.570751 134.910614,62.551044 135.521912,62.488930 
	C136.124771,62.390377 136.362656,62.334232 136.962219,62.219284 
	C138.064835,62.092655 138.779251,62.175026 139.722321,62.767471 
z"/>
<path fill="#FFFFFF" opacity="0.000000" stroke="none" 
	d="
M59.598072,116.691727 
	C86.350586,116.996468 112.706635,116.998428 139.531342,117.000198 
	C140.000000,123.817131 139.908646,130.636246 140.056091,137.450165 
	C140.099930,139.475800 139.792114,140.069046 137.560349,140.064728 
	C92.833488,139.978134 48.106354,139.974243 3.379539,140.072083 
	C1.013374,140.077255 0.919363,139.291367 0.954342,137.390396 
	C1.073622,130.908005 1.000000,124.422066 1.000000,117.468735 
	C2.606790,115.539452 4.611988,115.411667 6.610937,115.423660 
	C22.534105,115.519203 38.457134,115.273125 54.380074,115.418495 
	C56.040386,115.433655 57.707088,115.507469 59.598072,116.691727 
z"/>
<path fill="#FCF8FA" opacity="0.000000" stroke="none" 
	d="
M1.000000,28.460636 
	C19.803087,28.000181 38.606281,28.035484 57.409195,27.979151 
	C63.053230,27.962240 68.616943,29.904266 74.241493,28.931257 
	C79.036964,28.101671 83.684792,28.172651 88.483887,28.900311 
	C92.149605,29.456123 96.101669,28.216949 98.683876,32.393284 
	C99.494522,33.704384 101.809776,33.193588 103.394463,32.648674 
	C111.111099,29.995218 118.808968,29.957806 126.510300,32.655079 
	C128.074158,33.202793 129.629822,33.128220 130.602631,31.794556 
	C132.828323,28.743233 135.958694,28.877266 139.573547,29.000103 
	C140.000000,39.354229 140.000000,49.708454 140.000000,60.531342 
	C139.334625,61.567692 138.576614,61.913654 137.274033,62.005295 
	C133.179352,62.769890 129.652863,61.024826 125.576324,61.395935 
	C124.585854,61.394909 124.018753,61.396141 123.023163,61.395638 
	C116.886864,61.009632 111.212036,60.029964 105.033913,60.436623 
	C104.045700,60.408016 103.483337,60.391747 102.504463,60.380775 
	C100.441963,60.406342 98.797234,60.341682 96.745514,60.293468 
	C95.803185,60.249664 95.271141,60.185848 94.355438,60.018394 
	C89.728119,58.970604 85.363129,58.594418 80.837059,57.169598 
	C78.223831,56.181553 75.942490,55.363312 73.484726,54.053070 
	C72.776115,53.632442 72.393661,53.363426 71.759949,52.858391 
	C69.425240,50.968246 67.356987,49.292614 64.772018,47.759026 
	C60.153370,45.624191 56.265987,42.765373 51.362492,41.209000 
	C50.404343,40.874077 49.792892,40.588737 48.870049,40.187283 
	C47.570602,39.603344 46.556038,39.204151 45.193123,38.807076 
	C43.265793,38.110214 41.628376,37.572643 39.678665,36.956238 
	C38.973240,36.711857 38.574139,36.564182 37.873066,36.318649 
	C37.166798,36.096359 36.766674,35.959858 36.073135,35.702827 
	C34.635681,35.065361 33.540722,34.443520 32.088493,33.842838 
	C31.030445,33.394573 30.255125,33.083080 29.199991,32.632130 
	C28.205276,32.062763 27.455536,31.775476 26.275272,31.974491 
	C24.122692,32.301128 22.290594,32.303822 20.117287,32.033173 
	C18.212393,31.466360 16.743187,31.367550 15.394680,33.150997 
	C14.713760,33.553951 14.281845,33.676296 13.496084,33.707413 
	C11.561444,33.493362 9.727571,32.739704 9.255041,35.639969 
	C9.163100,36.381859 9.096329,36.804054 8.934660,37.535278 
	C8.699144,38.237808 8.490975,38.597481 7.964104,39.075493 
	C6.008513,39.341511 7.213793,40.477859 7.055264,41.456009 
	C7.020043,42.480869 6.847250,43.142532 6.273550,44.033058 
	C2.738605,45.208527 2.452521,42.479279 1.248192,40.280499 
	C1.000000,36.307091 1.000000,32.614182 1.000000,28.460636 
z"/>
<path fill="#F6F0F2" opacity="0.000000" stroke="none" 
	d="
M1.000000,40.468658 
	C3.677562,40.017757 2.814680,44.193974 6.064793,44.024879 
	C6.657461,44.480461 6.782331,44.921825 6.758728,45.731209 
	C4.404416,49.004654 7.519999,48.744667 9.046318,49.800858 
	C10.371673,51.375523 10.774663,52.978779 11.128412,54.965004 
	C11.225807,55.763809 11.270756,56.217823 11.363474,57.000950 
	C11.768551,58.862949 12.787422,60.069260 13.590466,61.752308 
	C14.877764,64.947235 16.528093,67.560974 18.414003,70.419617 
	C19.579323,72.636696 20.762905,74.421989 22.797146,75.941711 
	C23.219364,76.277405 23.386497,76.413742 24.033539,76.981995 
	C24.666243,77.564644 24.819036,77.715393 25.196564,78.095535 
	C25.720648,78.633118 26.022085,78.939247 26.569607,79.458664 
	C27.641121,80.416100 28.565578,81.029320 29.745117,81.887291 
	C35.224998,86.218674 41.733749,86.692757 48.070961,88.721741 
	C48.780899,89.690109 48.885311,90.461105 48.658329,91.657394 
	C44.319813,96.009094 39.703960,98.990845 33.167706,98.032379 
	C30.249645,96.336700 29.042385,97.546822 28.231277,100.328720 
	C25.145536,102.847366 22.227644,104.956055 17.947435,104.269600 
	C14.894274,100.935677 12.280594,97.845932 13.343665,93.124214 
	C13.734212,91.389565 12.283954,90.084938 10.810369,89.189392 
	C8.610105,87.852211 7.458891,85.804764 7.769866,83.375046 
	C8.393993,78.498611 6.290569,76.045906 1.296352,75.238602 
	C1.000000,63.645771 1.000000,52.291546 1.000000,40.468658 
z"/>
<path fill="#F8F1F2" opacity="0.000000" stroke="none" 
	d="
M1.000000,75.468658 
	C1.991457,74.999947 2.996892,75.107460 3.971896,74.980774 
	C7.730245,74.492439 9.430081,75.740944 9.083719,79.857246 
	C8.779986,83.466934 7.930202,87.660011 13.267674,88.959320 
	C14.302378,89.211189 15.284357,90.689613 14.893517,91.774345 
	C13.249717,96.336525 15.877078,99.589539 17.989914,103.402618 
	C17.428228,105.613235 15.173228,106.573212 15.337522,108.808495 
	C15.487072,110.843185 14.972841,113.324226 18.633226,113.116722 
	C19.843231,112.713097 20.718664,112.390717 21.940384,111.961517 
	C26.994177,110.470444 31.443077,108.129555 36.841278,108.028122 
	C39.871418,109.200256 41.869102,108.204765 43.766960,105.828476 
	C44.244789,105.494545 44.452293,105.381874 44.998920,105.155838 
	C46.531700,104.785995 47.720921,104.808586 49.232685,105.221954 
	C50.299408,104.948555 49.583382,107.050613 50.904198,105.729691 
	C52.834587,104.151619 54.610096,103.936317 56.687088,105.484421 
	C56.943298,107.274467 57.014389,108.844009 58.356255,109.798782 
	C60.783333,111.525696 60.906006,113.738625 60.000641,116.628220 
	C40.642128,116.996101 21.289721,116.997704 1.468657,116.999649 
	C1.000000,103.312439 1.000000,89.624878 1.000000,75.468658 
z"/>
<path fill="#938683" opacity="1.000000" stroke="none" 
	d="
M136.795380,61.275051 
	C137.776169,61.099136 138.533478,61.217457 139.645386,61.167889 
	C140.000000,61.444447 140.000000,61.888889 140.000000,62.666668 
	C139.311768,62.256851 138.526749,62.546749 137.347336,62.866817 
	C136.646698,62.534527 136.529297,62.073807 136.795380,61.275051 
z"/>
<path fill="#221C1B" opacity="1.000000" stroke="none" 
	d="
M50.180222,106.429932 
	C48.225864,106.495560 46.604706,106.677361 44.500462,106.748528 
	C43.787971,106.242111 43.601875,105.826630 43.337730,105.066132 
	C43.025608,104.054153 42.930923,103.354759 42.907871,102.283020 
	C42.980583,101.438744 43.096817,100.970192 43.460991,100.206429 
	C44.004276,99.583557 44.397999,99.333244 45.163280,99.073288 
	C46.682827,98.478371 48.489220,99.414375 49.084148,97.163406 
	C49.068645,96.449989 49.050053,96.038445 49.037575,95.307327 
	C49.067764,94.775520 49.096275,94.563087 49.219917,94.041946 
	C49.780876,92.656235 50.805325,92.236992 51.978806,91.502151 
	C52.565178,91.032539 52.882500,90.738258 53.430214,90.195938 
	C54.030281,89.665451 54.429359,89.439217 55.206089,89.184814 
	C56.288708,89.041435 56.988338,89.163628 57.895012,89.772408 
	C59.098488,93.927704 62.004532,92.621925 64.297836,92.117340 
	C69.758018,90.915962 74.951698,88.480042 81.049599,88.538010 
	C85.564232,90.861542 86.142021,92.792641 83.956375,98.533661 
	C79.955482,99.441467 76.345360,100.111679 72.344666,100.755310 
	C71.087013,100.552208 70.297256,100.804199 69.241669,101.298737 
	C65.292709,103.294029 60.829163,102.710381 57.148575,105.491501 
	C55.155602,105.288422 53.392262,104.735374 51.334545,105.889748 
	C50.881828,106.253471 50.697624,106.399788 50.180222,106.429932 
z"/>
<path fill="#3C2F25" opacity="1.000000" stroke="none" 
	d="
M86.201546,70.119499 
	C83.409065,71.598579 80.340317,72.021919 78.319443,74.821541 
	C76.597862,76.445198 74.528030,76.849037 72.718796,78.314728 
	C71.484840,79.097313 70.507950,79.660500 69.311104,80.530174 
	C68.399879,81.091812 67.746948,81.385742 66.707047,81.706787 
	C62.551666,81.052620 60.413044,78.580177 59.379898,74.684631 
	C59.617107,74.113731 59.758938,73.907784 60.218506,73.506195 
	C61.231609,73.050095 61.953793,72.984962 63.033058,73.038513 
	C65.585953,73.701485 66.323227,71.613380 68.027496,70.601990 
	C71.070122,71.915184 71.483498,71.828773 74.297615,69.464699 
	C75.700600,68.286095 77.437614,67.565872 79.000977,66.020836 
	C79.564133,65.444359 79.912315,65.147057 80.581406,64.715469 
	C82.746475,63.759056 84.633972,65.852623 86.839905,64.446709 
	C87.415726,64.391647 87.651825,64.406067 88.231720,64.529892 
	C89.715012,65.254562 90.636368,66.015701 90.312897,67.823990 
	C89.882751,68.356422 89.617874,68.550011 89.125214,68.842491 
	C88.262802,69.642921 87.382050,69.818695 86.201546,70.119499 
z"/>
<path fill="#4F4036" opacity="1.000000" stroke="none" 
	d="
M59.723392,73.740875 
	C60.400379,77.866707 63.878258,78.953369 66.667336,81.016876 
	C68.126328,85.694115 63.131989,85.034187 61.245911,87.561935 
	C60.205456,88.442459 59.448830,89.101234 58.418728,89.897896 
	C57.310467,89.996857 56.475674,89.957924 55.224144,89.887421 
	C53.903858,89.655724 52.902557,89.934456 51.823547,89.058624 
	C50.719318,87.597519 50.284740,86.257568 50.434631,84.425018 
	C54.069614,81.491737 52.344086,76.210632 56.185417,73.437485 
	C57.515324,72.965195 58.494740,73.003487 59.723392,73.740875 
z"/>
<path fill="#9B7F6B" opacity="1.000000" stroke="none" 
	d="
M90.518616,68.206085 
	C90.305191,66.720505 89.133789,66.254211 88.046547,65.306793 
	C87.229202,63.501415 88.914619,62.940887 89.258095,61.766495 
	C88.165375,61.803715 87.708229,62.900726 86.448395,63.279133 
	C83.654762,63.408997 82.511681,61.397305 80.704025,59.776329 
	C79.873940,58.732784 79.417427,57.906868 79.705978,56.557079 
	C84.440277,56.948868 89.012741,57.660892 93.785172,58.722248 
	C94.527496,59.458061 94.956871,60.179802 95.901131,59.457199 
	C97.718376,59.207184 99.431664,59.182281 101.570297,59.223820 
	C102.149231,59.443111 102.302811,59.595955 102.570229,60.053738 
	C102.723503,60.792393 102.685463,61.218346 102.382187,61.903633 
	C101.650970,62.492992 100.978676,62.439980 100.215530,62.969925 
	C97.018166,64.966461 94.425133,67.458855 90.518616,68.206085 
z"/>
<path fill="#DCD7D9" opacity="0.000000" stroke="none" 
	d="
M83.987976,98.866562 
	C85.138748,95.137794 85.384819,91.760124 81.551208,88.781380 
	C84.613304,86.495750 88.195793,86.352806 91.391281,87.753983 
	C93.134094,88.518181 94.535538,90.918854 93.851471,93.301971 
	C92.875305,96.702721 89.358368,97.255112 86.860680,98.911095 
	C86.285515,99.292427 85.239616,98.963776 83.987976,98.866562 
z"/>
<path fill="#69584D" opacity="1.000000" stroke="none" 
	d="
M61.328331,87.788193 
	C61.027603,83.854706 66.089020,84.877731 66.996567,81.388809 
	C67.501060,80.717972 67.961723,80.398262 68.716721,80.048599 
	C69.752556,79.307220 70.847267,79.166397 71.794113,78.222359 
	C73.198700,75.986000 75.163086,75.322960 77.675735,75.001747 
	C74.567192,81.806122 68.629128,85.436920 61.328331,87.788193 
z"/>
<path fill="#916141" opacity="1.000000" stroke="none" 
	d="
M102.054321,62.071789 
	C101.874184,61.408596 101.933578,61.043053 102.034912,60.402908 
	C102.369659,59.554852 102.929794,59.539261 103.731705,59.429008 
	C110.058601,58.963398 116.093468,59.355797 122.552567,59.962830 
	C122.873238,62.377617 121.025269,61.948982 119.690048,61.934944 
	C117.363190,61.910469 115.096115,62.348854 112.395737,62.569527 
	C111.249092,62.697243 110.504219,62.764515 109.385925,62.796162 
	C107.809654,62.288471 106.551430,62.556961 104.941727,62.484245 
	C103.805916,62.482822 103.046227,62.498631 102.054321,62.071789 
z"/>
<path fill="#37291F" opacity="1.000000" stroke="none" 
	d="
M136.598511,60.929771 
	C136.940582,61.418659 136.862305,61.856499 136.866241,62.619560 
	C136.948456,62.944782 136.974960,62.971645 136.960114,62.967041 
	C136.730286,63.214195 136.513550,63.464439 136.279724,63.960678 
	C132.665146,64.967819 129.333038,63.398838 125.447952,62.970058 
	C124.424301,62.316067 124.334625,61.605629 124.923035,60.589104 
	C128.878220,60.530422 132.528183,60.704575 136.598511,60.929771 
z"/>
<path fill="#998171" opacity="1.000000" stroke="none" 
	d="
M124.881416,60.171074 
	C125.130119,60.997631 125.031967,61.638996 124.982391,62.602646 
	C120.987633,62.896767 116.944321,62.868595 112.447479,62.735195 
	C115.187538,60.449883 119.001656,61.508450 122.712227,60.337696 
	C123.498367,60.027088 124.016464,60.006481 124.881416,60.171074 
z"/>
<path fill="#332B27" opacity="1.000000" stroke="none" 
	d="
M69.269485,101.465088 
	C69.526550,100.043732 69.937325,98.283890 71.931747,100.446373 
	C71.163757,100.985596 70.373413,101.242455 69.269485,101.465088 
z"/>
<path fill="#69584D" opacity="1.000000" stroke="none" 
	d="
M86.164597,70.289856 
	C86.327454,69.076828 87.319176,68.997108 88.606438,68.931915 
	C88.563232,70.239677 87.443825,70.206047 86.164597,70.289856 
z"/>
<path fill="#6D5841" opacity="1.000000" stroke="none" 
	d="
M101.521790,61.860878 
	C102.669228,61.853565 103.523682,61.932991 104.804459,62.040733 
	C105.301926,62.244698 105.373062,62.420341 105.204170,62.748268 
	C103.590904,62.983585 102.217682,63.066631 100.432480,63.182060 
	C100.423264,62.792171 100.826035,62.369896 101.521790,61.860878 
z"/>
<path fill="#998171" opacity="1.000000" stroke="none" 
	d="
M105.365814,62.983330 
	C104.964134,62.900543 105.072945,62.477135 105.151863,62.273094 
	C106.320290,62.159142 107.409790,62.249229 108.755890,62.549927 
	C107.930824,62.862396 106.849167,62.964256 105.365814,62.983330 
z"/>
<path fill="#938683" opacity="1.000000" stroke="none" 
	d="
M136.541489,64.124420 
	C136.352371,63.888565 136.440338,63.568943 136.736786,63.105881 
	C136.903046,63.321846 136.860825,63.681252 136.541489,64.124420 
z"/>
<path fill="#302D2D" opacity="1.000000" stroke="none" 
	d="
M18.595184,30.897217 
	C21.328270,30.417610 23.723633,30.219154 26.566721,30.870022 
	C27.576900,31.004555 28.103754,31.165333 28.803978,31.652657 
	C29.902500,32.019783 30.767208,32.234215 31.808651,32.736187 
	C32.090401,33.252396 32.195412,33.481064 32.098717,34.028175 
	C27.031498,35.642536 21.579985,34.239738 16.829517,37.735909 
	C15.375077,38.501751 14.217165,38.960102 12.561850,38.539326 
	C10.820158,35.432434 13.120524,34.582314 15.256492,33.243530 
	C16.151300,31.948240 17.028700,31.222328 18.595184,30.897217 
z"/>
<path fill="#946E5C" opacity="1.000000" stroke="none" 
	d="
M50.740929,40.523987 
	C56.042282,41.150436 60.020111,44.561176 64.830109,46.767700 
	C64.547195,49.823082 61.982368,49.771099 59.847626,50.778450 
	C58.765926,50.774364 58.100948,50.549580 57.200836,49.983597 
	C56.416393,49.330978 56.035515,48.789558 55.690842,47.862309 
	C55.625511,47.148880 55.662491,46.743206 55.711517,46.052155 
	C55.031944,44.327240 53.624126,43.878578 52.063728,43.096821 
	C51.574551,42.839180 51.385296,42.720757 50.959637,42.361256 
	C50.536602,41.698273 50.484226,41.258434 50.740929,40.523987 
z"/>
<path fill="#4E3125" opacity="1.000000" stroke="none" 
	d="
M79.628662,55.991066 
	C80.186333,56.946217 80.504845,57.655594 80.975601,58.628334 
	C81.058914,59.612568 80.909744,60.307220 80.194359,61.129135 
	C77.474937,62.117260 76.650337,58.951832 74.115295,59.020580 
	C72.843048,58.664185 71.990387,58.247005 71.035294,57.332092 
	C73.748146,56.490925 71.081596,53.868637 72.732941,52.826355 
	C75.166046,53.873173 77.277786,54.809231 79.628662,55.991066 
z"/>
<path fill="#967061" opacity="1.000000" stroke="none" 
	d="
M36.257999,34.809040 
	C36.952080,34.840740 37.281372,34.815636 37.854374,34.877098 
	C38.210308,35.129845 38.322536,35.296024 38.723892,35.545151 
	C40.854156,36.234505 42.695297,36.840919 44.628838,37.788475 
	C44.516499,38.844635 44.038609,39.310844 43.044693,39.692139 
	C41.185211,39.840828 39.661831,39.604904 37.838081,39.652504 
	C37.042965,39.517902 36.529915,39.304058 35.955364,40.013416 
	C35.722729,40.414494 35.625031,40.577694 35.322666,40.951683 
	C34.493912,41.403500 33.942978,41.223656 33.208542,40.643288 
	C32.900421,40.234779 32.806393,40.050774 32.672234,39.560715 
	C32.597668,38.748699 33.333809,38.209335 32.430672,37.441418 
	C32.211304,36.703354 32.215057,36.258377 32.413288,35.482040 
	C32.705322,34.976116 32.869415,34.801071 33.381256,34.521694 
	C34.456924,34.486874 35.193542,34.500164 36.257999,34.809040 
z"/>
<path fill="#684D3E" opacity="1.000000" stroke="none" 
	d="
M58.824112,50.294151 
	C60.836624,49.175648 62.678837,48.376347 64.747780,47.332710 
	C67.535217,48.024693 69.644814,49.651974 71.801071,51.738426 
	C71.783722,52.189644 71.611877,52.346851 71.112991,52.630966 
	C70.324356,52.820908 69.862343,52.828236 69.065689,52.697075 
	C67.072189,52.364056 65.690941,50.867756 63.570274,51.729683 
	C61.979614,52.955116 60.699455,52.570538 59.172577,51.537834 
	C58.824654,51.064480 58.739235,50.838917 58.824112,50.294151 
z"/>
<path fill="#C1BDBC" opacity="1.000000" stroke="none" 
	d="
M15.686627,32.743233 
	C15.396728,35.149235 12.615104,35.404785 12.009988,37.853416 
	C12.252069,39.328697 11.598330,39.926678 10.381561,40.452438 
	C8.978253,40.357506 8.419627,39.737736 8.188901,38.368797 
	C8.066848,37.642899 8.088814,37.226669 8.107044,36.497734 
	C8.847589,34.255123 10.023017,32.902950 12.667616,33.049736 
	C13.463276,32.997105 13.903937,32.938522 14.657076,32.762756 
	C15.146574,32.612885 15.323595,32.580193 15.686627,32.743233 
z"/>
<path fill="#998171" opacity="1.000000" stroke="none" 
	d="
M7.891399,38.240692 
	C8.551553,38.668083 9.058226,39.277039 9.841265,40.019119 
	C10.933273,40.900955 10.961188,41.873402 10.812810,43.234417 
	C10.556465,44.054523 10.324364,44.484646 9.786173,45.153507 
	C8.787492,46.078346 7.968438,46.564053 6.601403,46.260651 
	C6.343020,45.633377 6.397562,45.186195 6.449185,44.400738 
	C6.445040,43.394161 6.443812,42.725861 6.312382,41.748474 
	C6.276274,40.790043 6.525386,40.173023 6.797585,39.267197 
	C7.315136,38.894165 7.557135,38.695496 7.891399,38.240692 
z"/>
<path fill="#946E5C" opacity="1.000000" stroke="none" 
	d="
M42.850616,39.419022 
	C43.367989,38.812233 43.816860,38.577045 44.493484,38.235733 
	C46.057777,37.942020 47.345749,37.968544 48.747986,39.168156 
	C49.552216,39.998138 49.763416,40.685158 49.362640,41.789619 
	C47.663734,42.791504 46.225128,42.203983 44.424561,41.727859 
	C43.407532,41.155067 42.977634,40.557648 42.850616,39.419022 
z"/>
<path fill="#6D3D26" opacity="1.000000" stroke="none" 
	d="
M70.669037,52.378124 
	C71.073898,52.155628 71.250587,52.134159 71.691422,52.072563 
	C72.249191,52.180660 72.542831,52.328876 72.945389,52.707108 
	C72.819435,53.325420 72.358650,54.039848 72.381699,54.055813 
	C75.306450,56.081818 72.547768,55.906860 71.281799,56.597977 
	C70.207870,57.623772 69.372299,57.140469 68.268860,56.557640 
	C67.585892,55.717640 67.694107,55.088825 68.182091,54.195850 
	C68.923805,53.277077 69.758286,53.044666 70.669037,52.378124 
z"/>
<path fill="#F6F0F2" opacity="0.000000" stroke="none" 
	d="
M12.791811,32.772129 
	C11.569294,33.974358 10.115973,34.893021 8.382980,35.998360 
	C7.877028,32.888103 9.077913,31.312237 12.791811,32.772129 
z"/>
<path fill="#F6F0F2" opacity="0.000000" stroke="none" 
	d="
M16.151115,32.767494 
	C15.872640,32.938965 15.422649,32.790276 15.196101,32.717926 
	C15.392402,30.713860 16.351675,29.611229 18.720406,30.588549 
	C18.642466,32.178291 17.016546,31.654556 16.151115,32.767494 
z"/>
<path fill="#756B61" opacity="1.000000" stroke="none" 
	d="
M36.414215,34.551964 
	C35.693745,34.916107 34.764698,34.966370 33.372047,35.026314 
	C32.404377,35.123356 32.017296,34.941219 31.865309,34.197735 
	C31.998903,33.870232 31.902140,33.448414 31.943764,33.236069 
	C33.558582,32.850067 34.873768,33.573086 36.414215,34.551964 
z"/>
<path fill="#916141" opacity="1.000000" stroke="none" 
	d="
M95.669907,59.188862 
	C96.101555,59.877552 97.824745,60.095562 96.770164,60.811398 
	C95.951714,61.366959 94.573433,61.110229 94.054779,59.381905 
	C94.434998,59.096264 94.884857,59.120949 95.669907,59.188862 
z"/>
<path fill="#684D3E" opacity="1.000000" stroke="none" 
	d="
M49.330505,42.132484 
	C49.063316,41.274300 49.064415,40.639732 49.074112,39.687218 
	C49.539330,39.591805 49.995945,39.814339 50.693565,40.140839 
	C50.960373,40.663910 50.986172,41.083019 50.970947,41.814377 
	C50.514893,42.369488 50.069752,42.437679 49.330505,42.132484 
z"/>
<path fill="#DCD7D9" opacity="0.000000" stroke="none" 
	d="
M28.984787,31.527561 
	C28.417698,31.732105 27.797604,31.658857 27.093971,31.271669 
	C27.843157,29.790092 28.443110,30.153866 28.984787,31.527561 
z"/>
<path fill="#F8F1F2" opacity="0.000000" stroke="none" 
	d="
M6.782426,38.875038 
	C6.891406,39.664772 6.770889,40.311279 6.416276,41.198586 
	C6.249140,40.529106 5.472755,39.503345 6.782426,38.875038 
z"/>
<path fill="#998171" opacity="1.000000" stroke="none" 
	d="
M103.679810,59.266685 
	C103.535011,59.613396 103.068275,59.833477 102.339195,60.090931 
	C102.076843,60.128300 102.021896,59.710583 102.008774,59.500423 
	C102.449722,59.240192 102.903801,59.190125 103.679810,59.266685 
z"/>
<path fill="#E5DEDC" opacity="0.000000" stroke="none" 
	d="
M38.899689,35.469795 
	C38.729385,35.572472 38.445751,35.516850 38.130104,35.212448 
	C38.361137,35.013088 38.590561,35.129032 38.899689,35.469795 
z"/>
<path fill="#9F8275" opacity="1.000000" stroke="none" 
	d="
M52.995354,91.664734 
	C51.812000,92.341057 50.943958,92.904373 49.948963,93.770264 
	C49.703705,94.412323 49.048832,94.112076 49.112553,94.664024 
	C49.189007,95.326279 48.886108,94.341911 49.645538,94.796097 
	C49.819450,95.373299 49.821499,95.811295 49.808884,96.578369 
	C49.241302,98.120323 48.167763,98.587471 46.627869,98.914368 
	C44.954433,98.987854 43.616188,98.951736 42.020279,99.483261 
	C41.098675,99.787041 40.489952,100.002289 39.603268,100.398651 
	C39.104469,100.606926 38.901707,100.681953 38.386093,100.839981 
	C36.325962,101.367104 34.133598,100.713387 32.934959,103.220001 
	C32.246956,104.277481 31.540546,104.837975 30.442226,105.459557 
	C29.707951,105.764732 29.272638,105.878357 28.500084,105.970688 
	C27.130537,106.007042 26.146664,105.648727 24.855091,105.507874 
	C23.963564,105.719574 23.842300,106.249527 23.695831,107.105217 
	C23.044521,109.319046 22.214796,110.842377 19.542915,109.609314 
	C18.918474,109.480957 18.634260,109.615158 18.383759,110.182281 
	C18.307034,111.581757 19.103733,112.435020 19.154568,113.778320 
	C16.486214,115.654129 14.908322,113.977608 14.511975,112.055702 
	C13.897349,109.075317 13.184465,105.597343 17.658623,103.929817 
	C21.446243,103.577263 24.366123,101.868233 27.698074,100.303818 
	C28.821354,98.756996 29.471285,97.190170 31.777973,97.183609 
	C38.097290,98.321358 42.802525,95.453606 47.698330,92.093559 
	C48.753235,91.180809 49.048462,89.975601 50.578255,89.715492 
	C51.571857,89.794991 52.177048,90.050179 52.974262,90.649445 
	C53.241161,91.110588 53.275913,91.331169 52.995354,91.664734 
z"/>
<path fill="#7D6657" opacity="1.000000" stroke="none" 
	d="
M50.837635,83.694489 
	C51.398323,85.359528 51.737099,86.691513 52.007904,88.674706 
	C51.723385,89.415405 51.506840,89.504890 50.939091,89.593643 
	C49.895039,89.676697 49.203587,89.868774 48.187244,89.471588 
	C41.402134,87.646805 34.324356,87.673752 28.850384,82.310432 
	C30.876917,79.873444 33.707623,80.767418 36.780678,80.609390 
	C38.358429,80.616302 39.499817,80.607056 41.047287,80.776718 
	C42.532238,80.964943 43.534592,81.409927 45.001396,81.602013 
	C47.271122,81.806519 49.126686,82.029526 50.837635,83.694489 
z"/>
<path fill="#E5DEDC" opacity="1.000000" stroke="none" 
	d="
M22.893713,77.096619 
	C20.288059,75.933159 18.842611,74.117836 18.007584,71.386108 
	C17.435434,68.361504 15.148312,66.319618 15.249374,63.082737 
	C15.402558,62.522724 15.500520,62.309612 15.859304,61.859943 
	C16.561655,61.460876 17.015703,61.395767 17.805527,61.569290 
	C19.418844,62.875454 20.363985,64.442833 22.308275,65.401031 
	C24.709091,67.222145 27.453787,68.310654 27.827358,71.821594 
	C27.727039,72.985275 27.462355,73.804100 27.620903,74.974487 
	C27.714788,76.184776 27.485182,76.994194 26.696236,77.937622 
	C26.266674,78.270706 26.070915,78.371635 25.545158,78.489426 
	C24.997976,78.469093 24.780790,78.431908 24.283405,78.219421 
	C24.003210,78.044113 23.990536,78.009651 24.001701,78.021461 
	C23.755314,77.735619 23.469849,77.467705 22.893713,77.096619 
z"/>
<path fill="#ADA096" opacity="1.000000" stroke="none" 
	d="
M38.258270,81.416077 
	C35.244450,81.833595 32.416096,81.927612 29.100876,82.032539 
	C27.513708,82.115204 26.786362,81.442451 25.896187,80.513657 
	C25.832659,80.041649 25.934420,79.820778 26.301048,79.348572 
	C30.246101,75.811508 33.859215,77.744423 37.773178,79.463821 
	C38.350094,80.115723 38.467243,80.585327 38.258270,81.416077 
z"/>
<path fill="#DAD5D2" opacity="1.000000" stroke="none" 
	d="
M10.462685,56.376884 
	C9.768579,54.452190 9.382147,52.732052 9.149353,50.335121 
	C10.663491,48.632633 12.398086,48.182381 13.864115,46.707222 
	C14.589951,46.407898 15.036334,46.387215 15.801004,46.601006 
	C16.251522,46.934097 16.389072,47.119957 16.625862,47.638748 
	C17.016804,50.732807 13.094693,51.557629 13.693075,54.833656 
	C13.567019,55.414360 13.482803,55.640320 13.150082,56.133331 
	C12.216488,56.758732 11.505334,56.810272 10.462685,56.376884 
z"/>
<path fill="#C1BDBC" opacity="1.000000" stroke="none" 
	d="
M12.788257,56.130211 
	C13.000492,55.876328 13.003566,55.453911 13.003538,55.242699 
	C13.389159,54.625031 13.862044,54.443451 14.799495,54.611938 
	C15.816156,55.267582 16.247917,55.943436 16.736752,57.062874 
	C17.205442,58.804153 17.263618,60.137894 16.263498,61.722271 
	C16.024582,62.050884 16.069967,62.081158 16.060760,62.106834 
	C15.306095,62.656006 14.502562,62.796940 13.263304,62.288235 
	C12.047012,60.869129 11.199933,59.661518 10.362344,58.137779 
	C10.970760,57.134243 11.907521,56.964832 12.788257,56.130211 
z"/>
<path fill="#D4CCC9" opacity="1.000000" stroke="none" 
	d="
M12.935645,62.435120 
	C13.684132,62.069294 14.474174,62.061848 15.657883,62.093452 
	C15.370961,65.498764 19.001072,67.644928 18.254200,70.995323 
	C15.418016,68.826576 14.112054,65.861732 12.935645,62.435120 
z"/>
<path fill="#69584D" opacity="1.000000" stroke="none" 
	d="
M6.003734,46.272324 
	C7.002344,45.770119 7.716209,45.459679 8.695593,45.010445 
	C9.392858,45.214417 9.696492,45.647205 9.953196,46.565269 
	C10.078341,47.786869 9.913870,48.561878 9.204550,49.566868 
	C8.934382,49.863308 8.900190,50.089798 8.978139,50.173706 
	C8.107183,50.162701 7.158503,49.994507 6.209314,49.991573 
	C5.044781,49.987980 3.688649,49.868233 3.511217,48.665588 
	C3.330105,47.437992 5.017145,47.269817 6.003734,46.272324 
z"/>
<path fill="#F8F1F2" opacity="0.000000" stroke="none" 
	d="
M31.947924,96.885239 
	C30.955839,98.137428 29.792402,99.050446 28.312561,100.042419 
	C28.108667,94.535088 28.150211,94.495796 31.947924,96.885239 
z"/>
<path fill="#A19895" opacity="1.000000" stroke="none" 
	d="
M12.640842,55.882164 
	C13.087052,57.277103 12.486403,58.006428 10.699280,57.859039 
	C10.304218,57.456936 10.236602,57.092220 10.161997,56.449921 
	C10.863737,56.077557 11.572465,55.982780 12.640842,55.882164 
z"/>
<path fill="#D4C5BC" opacity="1.000000" stroke="none" 
	d="
M47.892899,89.642715 
	C48.651920,89.243172 49.435780,89.163017 50.612286,89.049332 
	C51.137138,89.127831 51.269348,89.239861 51.332859,89.845169 
	C50.372948,90.818008 49.481735,91.297585 48.283592,91.825905 
	C47.957020,91.237129 47.937382,90.599617 47.892899,89.642715 
z"/>
<path fill="#ADA096" opacity="1.000000" stroke="none" 
	d="
M24.674381,78.197670 
	C24.946148,77.867767 25.162760,77.856583 25.704723,77.845398 
	C26.372982,78.269066 26.514071,78.751732 26.248119,79.625107 
	C26.042902,79.956825 25.888102,80.107964 25.809498,80.185242 
	C25.477173,80.041283 25.223448,79.820045 24.844345,79.377197 
	C24.685719,78.942520 24.652472,78.729462 24.674381,78.197670 
z"/>
<path fill="#ADA096" opacity="1.000000" stroke="none" 
	d="
M22.803331,77.217041 
	C23.014936,77.125557 23.398888,77.287453 23.897854,77.741310 
	C23.667139,77.845657 23.321409,77.658043 22.803331,77.217041 
z"/>
<path fill="#CDC7C4" opacity="1.000000" stroke="none" 
	d="
M24.545040,77.907425 
	C24.763708,78.091690 24.797876,78.304428 24.775507,78.836380 
	C24.433708,79.006798 24.213606,78.791412 24.030935,78.276772 
	C24.003210,78.044113 24.360544,77.935898 24.545040,77.907425 
z"/>
<path fill="#1C1512" opacity="1.000000" stroke="none" 
	d="
M27.782654,105.214378 
	C28.435682,104.974098 28.871962,104.955292 29.634846,104.912262 
	C32.533489,104.825485 34.865654,104.118721 36.747635,102.042816 
	C36.834778,100.670525 37.698978,100.571228 38.725468,100.170670 
	C38.944752,99.945946 39.001915,99.960732 38.980228,99.940346 
	C41.768097,98.819611 41.786476,101.164993 42.538929,103.104309 
	C42.754765,103.974892 42.794315,104.481247 42.691093,105.364166 
	C41.845383,107.420746 40.605019,108.531136 38.374454,108.869942 
	C32.617516,109.116119 27.944471,111.974022 22.398489,112.974716 
	C20.681171,112.051407 18.780598,112.343613 17.666265,110.485825 
	C17.561581,109.405891 17.852888,108.781090 18.675117,108.088493 
	C20.373768,108.824303 21.768887,109.863411 22.858067,107.227417 
	C23.119383,106.829475 23.268927,106.680565 23.691158,106.370766 
	C25.097895,105.641747 26.488707,106.268532 27.782654,105.214378 
z"/>
<path fill="#71554A" opacity="1.000000" stroke="none" 
	d="
M38.241325,109.119453 
	C39.209145,108.041214 40.412582,107.216476 41.869488,106.196198 
	C42.384064,105.666275 42.729244,105.481407 43.442001,105.508484 
	C43.887268,105.731552 44.037201,105.871162 44.100563,106.305618 
	C42.924065,109.034004 41.582214,110.964394 38.241325,109.119453 
z"/>
<path fill="#3F3735" opacity="1.000000" stroke="none" 
	d="
M17.699615,109.723434 
	C18.738930,111.659874 21.236969,110.348022 21.961166,112.569450 
	C21.235458,113.306259 20.454321,113.704453 19.333555,114.091797 
	C18.108007,113.039223 16.500631,112.459793 16.843603,110.295052 
	C17.071037,109.779930 17.255573,109.627899 17.699615,109.723434 
z"/>
<path fill="#ADA096" opacity="1.000000" stroke="none" 
	d="
M49.851723,106.606964 
	C50.045956,106.254242 50.244892,106.194733 50.754932,106.121185 
	C51.013840,106.556068 51.125759,107.191673 50.873703,107.413254 
	C50.414169,107.817261 50.072590,107.341171 49.851723,106.606964 
z"/>
<path fill="#71554A" opacity="1.000000" stroke="none" 
	d="
M44.145088,104.993195 
	C44.525284,105.310715 44.525967,105.747604 44.272011,106.411194 
	C44.017376,106.637894 44.052795,106.596535 44.033390,106.598511 
	C44.013985,106.600479 44.024197,106.238136 43.964172,106.067123 
	C43.857960,105.634933 43.811768,105.373749 44.145088,104.993195 
z"/>
<path fill="#3E2924" opacity="1.000000" stroke="none" 
	d="
M45.820137,98.397278 
	C47.087524,97.715820 48.114822,97.326721 49.468178,96.922531 
	C50.942566,99.360764 50.659451,99.656319 46.437317,100.026230 
	C45.650173,99.674156 45.488255,99.227928 45.820137,98.397278 
z"/>
<path fill="#3E2924" opacity="1.000000" stroke="none" 
	d="
M42.140354,103.928894 
	C40.374840,103.132278 41.739437,100.632614 39.297447,99.999016 
	C39.421299,99.616173 39.884056,99.312386 40.634697,98.948288 
	C41.973850,98.543144 42.833424,99.009293 43.867233,99.858780 
	C44.041428,100.584274 44.026310,100.990234 44.005409,101.700806 
	C43.362965,102.514259 43.046368,103.300583 42.140354,103.928894 
z"/>
<path fill="#6F4D41" opacity="1.000000" stroke="none" 
	d="
M44.389587,100.137505 
	C43.217148,99.845467 42.377747,99.512619 41.230469,99.033875 
	C42.140656,97.468224 43.768040,97.994209 45.670090,98.038132 
	C46.049477,98.532066 46.038734,98.959213 46.046898,99.707352 
	C45.618076,100.051117 45.170353,100.073906 44.389587,100.137505 
z"/>
<path fill="#B68E71" opacity="1.000000" stroke="none" 
	d="
M41.893723,104.366226 
	C42.127460,103.216629 42.070702,102.153831 43.660946,102.034607 
	C44.179134,102.714798 44.358646,103.424179 44.531380,104.503693 
	C44.395317,105.028679 44.266029,105.183525 44.020447,105.617249 
	C43.509209,105.930634 43.114265,105.965157 42.421143,106.000168 
	C42.059044,105.566078 41.995129,105.131485 41.893723,104.366226 
z"/>
<path fill="#7D6657" opacity="1.000000" stroke="none" 
	d="
M52.857651,91.226433 
	C52.142540,90.905838 51.796204,90.785179 51.357010,90.501472 
	C51.264156,90.338432 51.341412,90.133339 51.407082,90.045609 
	C51.495773,89.765465 51.518795,89.573051 51.765472,89.194977 
	C51.989136,89.009308 52.123554,88.858185 52.187504,88.777122 
	C52.987553,88.932510 53.723652,89.168961 54.633575,89.630630 
	C54.543667,90.026489 54.305912,90.227806 53.967400,90.657349 
	C53.635910,91.045387 53.431168,91.235878 52.857651,91.226433 
z"/>
<path fill="#D4C5BC" opacity="1.000000" stroke="none" 
	d="
M49.911995,94.720184 
	C48.939560,94.784416 47.728317,96.170563 47.331299,95.059776 
	C46.856960,93.732666 48.185623,93.780533 49.490192,94.010330 
	C49.822010,94.072838 50.006580,94.505074 49.911995,94.720184 
z"/>
<path fill="#4F4036" opacity="1.000000" stroke="none" 
	d="
M52.539528,91.213577 
	C52.714703,90.999390 52.940525,90.972275 53.503502,90.900032 
	C53.645733,91.156052 53.450806,91.457207 52.967964,91.768051 
	C52.680042,91.777733 52.590172,91.400665 52.539528,91.213577 
z"/>
<path fill="#9A8978" opacity="1.000000" stroke="none" 
	d="
M60.212688,73.966660 
	C58.960720,74.025978 57.919361,74.044586 56.485554,74.098251 
	C54.673431,74.684715 53.077698,74.627075 51.399361,75.444916 
	C49.348667,75.422432 49.196514,73.285141 47.373535,72.846077 
	C46.596325,72.672272 46.167984,72.500664 45.477806,72.038376 
	C42.922691,68.858734 43.407642,67.103447 47.321053,66.748024 
	C49.072437,66.588974 50.936028,66.903610 52.811447,65.482010 
	C54.663296,64.721848 56.198822,64.656525 58.102516,65.148857 
	C59.452469,67.993683 61.207203,70.443932 61.112961,73.665985 
	C60.848667,73.870079 60.423298,73.925941 60.212688,73.966660 
z"/>
<path fill="#221A12" opacity="1.000000" stroke="none" 
	d="
M79.665512,65.732010 
	C80.004837,67.744553 78.575447,68.103859 77.479004,68.792519 
	C76.218811,69.584023 74.161125,70.213356 73.883194,71.284912 
	C71.776649,79.406525 70.340553,72.434113 68.317650,71.089973 
	C66.418144,70.346519 65.055344,69.404778 63.850685,67.786491 
	C64.590599,65.789108 66.321892,65.824348 68.087677,65.118134 
	C70.101967,64.642250 71.757446,64.655243 73.835968,64.615753 
	C76.008049,64.574081 77.752159,64.562897 79.665512,65.732010 
z"/>
<path fill="#604D3C" opacity="1.000000" stroke="none" 
	d="
M68.287949,65.815575 
	C67.094994,67.362656 65.373672,66.473633 64.168030,67.721359 
	C65.395027,69.768875 66.516571,71.560364 64.349899,73.894073 
	C63.204708,74.036484 62.418934,74.003639 61.240913,73.920441 
	C60.976776,72.700317 61.200500,71.323608 59.603405,71.118370 
	C55.192204,70.551491 58.626385,68.543152 58.863281,66.819061 
	C58.772533,66.268967 58.622452,66.036057 58.580811,65.402939 
	C59.703484,63.896320 61.081383,63.836815 62.818672,63.679287 
	C65.045670,63.878117 66.481361,62.655178 68.528816,62.263130 
	C69.149628,62.328232 69.393051,62.396774 69.939331,62.695908 
	C70.853607,64.542557 70.139107,65.322197 68.287949,65.815575 
z"/>
<path fill="#371E14" opacity="1.000000" stroke="none" 
	d="
M79.697868,61.310226 
	C80.134552,60.476128 80.358788,59.870934 80.855438,59.078720 
	C82.542168,60.124813 83.956497,61.357929 85.655617,62.711418 
	C87.027634,62.707306 87.388466,63.322544 87.190781,64.630409 
	C85.236130,67.698639 83.433296,65.313210 81.331177,65.030090 
	C80.370415,65.526993 79.828918,65.109848 79.051598,64.607742 
	C78.745506,64.181854 78.661285,63.986462 78.566925,63.472595 
	C78.699608,62.519928 79.016739,61.985958 79.697868,61.310226 
z"/>
<path fill="#4F4036" opacity="1.000000" stroke="none" 
	d="
M64.186577,74.296768 
	C65.468620,72.291542 64.022865,70.506798 63.998753,68.368904 
	C65.599625,68.278534 67.161140,68.617088 67.917297,70.697311 
	C66.908150,72.342621 67.149048,74.975616 64.186577,74.296768 
z"/>
<path fill="#624933" opacity="1.000000" stroke="none" 
	d="
M78.796967,63.766987 
	C79.510422,64.254807 79.997391,64.524185 80.743195,64.898727 
	C80.806755,65.269463 80.611504,65.535042 80.195587,65.921951 
	C78.255455,66.030205 76.535988,66.017120 74.387169,65.972443 
	C73.131432,65.436157 72.360870,64.892921 72.547241,63.420116 
	C73.265366,62.266918 74.163025,62.111065 75.434723,62.067101 
	C75.983620,62.122833 76.199341,62.163979 76.723625,62.311256 
	C77.622612,62.688824 78.130913,63.071960 78.796967,63.766987 
z"/>
<path fill="#714F38" opacity="1.000000" stroke="none" 
	d="
M87.181427,65.001984 
	C86.783134,64.402901 86.598930,63.824013 86.177567,63.038456 
	C86.526901,62.265823 87.214142,61.770435 87.673149,61.115170 
	C88.190842,60.376144 88.178535,58.892815 89.569107,59.509670 
	C90.394035,59.875610 91.296074,60.718719 91.564995,61.542610 
	C92.030350,62.968311 90.487961,62.784508 89.724342,63.232674 
	C89.165222,63.560822 88.686310,64.025627 87.998276,64.738274 
	C87.824898,65.047020 87.395523,65.022179 87.181427,65.001984 
z"/>
<path fill="#4F4036" opacity="1.000000" stroke="none" 
	d="
M71.689850,78.030640 
	C71.957268,79.491890 71.089821,80.041061 69.365288,80.016151 
	C69.439934,78.936295 70.191826,78.240028 71.689850,78.030640 
z"/>
<path fill="#756B61" opacity="1.000000" stroke="none" 
	d="
M50.746689,75.254303 
	C52.226448,73.877823 53.417091,72.143013 55.784451,73.955948 
	C54.477013,77.323013 55.595364,81.728256 51.400391,83.975304 
	C49.286247,83.684509 47.512947,83.341484 45.346909,82.991669 
	C43.990322,81.833237 43.730976,80.526909 44.251781,78.706512 
	C44.866795,77.621132 45.563385,77.314842 46.718208,77.168121 
	C48.530376,77.218613 50.483135,78.379547 50.746689,75.254303 
z"/>
<path fill="#CBC6C3" opacity="1.000000" stroke="none" 
	d="
M31.582088,33.964550 
	C32.165440,34.157921 32.331974,34.445606 32.703476,34.884651 
	C32.908436,35.036003 32.940907,35.468418 32.966858,35.683674 
	C30.373730,39.830147 25.690710,39.276775 21.643764,40.987358 
	C20.739883,41.033443 20.230379,40.970219 19.371605,40.706779 
	C17.813496,39.697647 16.416323,39.040340 15.788448,37.245007 
	C20.544346,33.666428 25.709681,33.075588 31.582088,33.964550 
z"/>
<path fill="#DFB436" opacity="1.000000" stroke="none" 
	d="
M15.540433,37.013359 
	C16.843613,37.587109 17.824490,38.293633 18.887508,39.298187 
	C19.007881,39.793591 19.046110,39.990967 18.880730,40.409729 
	C18.365202,40.882298 18.049492,41.128632 17.508579,41.573593 
	C16.698545,42.350761 16.182400,42.987591 15.452753,43.873074 
	C13.654805,45.106010 12.075360,46.056931 10.140330,44.252846 
	C10.035820,42.925617 10.062698,41.915718 10.103604,40.529030 
	C10.651400,39.656822 11.185167,39.161396 11.867005,38.435799 
	C13.103185,37.914211 14.387169,38.214966 15.540433,37.013359 
z"/>
<path fill="#C19E87" opacity="1.000000" stroke="none" 
	d="
M48.671841,41.805519 
	C49.474667,41.994274 49.887108,42.079681 50.614738,42.145859 
	C50.929920,42.126625 50.968967,42.090172 50.962830,42.064392 
	C52.653736,43.526207 54.976910,43.956383 56.832523,45.729958 
	C56.920578,46.379562 56.734707,46.639668 56.202839,46.919136 
	C55.672882,47.366707 55.288193,47.562130 54.504959,47.615978 
	C53.522495,47.444275 52.918282,47.172287 52.018753,46.758965 
	C50.572414,46.018845 49.423920,45.413918 47.932610,44.759357 
	C46.276623,43.850498 44.788822,43.354824 43.158066,42.388649 
	C42.741245,41.703331 42.800323,41.270229 43.325005,40.652020 
	C45.162910,40.864624 46.722187,41.283398 48.671841,41.805519 
z"/>
<path fill="#684D3E" opacity="1.000000" stroke="none" 
	d="
M57.186485,45.835960 
	C54.990448,44.913998 52.396873,44.892727 50.967331,42.385708 
	C53.788502,42.012238 55.780548,43.485634 57.186485,45.835960 
z"/>
<path fill="#64382B" opacity="1.000000" stroke="none" 
	d="
M53.736595,46.712555 
	C54.549774,46.882473 54.961502,46.896561 55.677101,46.968925 
	C56.235401,47.508633 56.489838,47.990063 56.815727,48.734585 
	C56.684021,49.190918 56.480865,49.384159 55.891434,49.748604 
	C54.952633,50.063488 54.390854,50.133598 53.391533,50.093353 
	C51.795460,49.766575 50.567894,49.322311 50.675549,47.919880 
	C50.797970,46.325016 52.181190,46.509983 53.736595,46.712555 
z"/>
<path fill="#714F38" opacity="1.000000" stroke="none" 
	d="
M55.736794,49.309135 
	C55.930344,49.057457 56.409054,49.015953 56.648117,49.006817 
	C57.410927,49.249935 57.934677,49.502190 58.726418,49.864693 
	C58.993919,50.150169 58.993431,50.325394 58.989140,50.763435 
	C58.832909,51.172539 58.680473,51.318825 58.228710,51.572704 
	C57.717018,51.692696 57.504654,51.705093 56.979225,51.652756 
	C56.479084,51.485767 56.292004,51.383518 55.894775,51.040466 
	C55.517971,50.400356 55.464714,49.988102 55.736794,49.309135 
z"/>
<path fill="#A46644" opacity="1.000000" stroke="none" 
	d="
M67.626877,55.935421 
	C68.842789,56.200348 69.645355,56.445942 70.758331,56.755600 
	C71.866013,57.108086 72.663269,57.396507 73.749039,57.822224 
	C74.156372,58.179283 74.275208,58.399052 74.248604,58.966858 
	C73.571838,59.883060 72.920006,60.273499 71.851944,60.723724 
	C70.168228,61.175064 68.863754,61.185032 67.227570,60.499641 
	C66.717346,60.069794 66.557205,59.848206 66.267288,59.235394 
	C66.002419,57.686691 66.169418,56.640232 67.626877,55.935421 
z"/>
<path fill="#7E472B" opacity="1.000000" stroke="none" 
	d="
M73.884995,59.299850 
	C73.956200,58.811703 73.969444,58.641159 74.010117,58.215069 
	C76.804375,57.130112 77.754478,59.470711 79.561356,61.003273 
	C79.769592,61.620277 79.628868,62.159233 79.241272,62.847813 
	C78.619583,63.395214 78.165253,63.535023 77.319824,63.202667 
	C77.008049,62.987846 77.000000,63.000000 77.003586,62.994049 
	C76.186790,62.098270 74.884094,62.816002 73.844070,61.813164 
	C73.540955,60.881866 73.625099,60.244949 73.884995,59.299850 
z"/>
<path fill="#52463F" opacity="1.000000" stroke="none" 
	d="
M20.832413,40.277451 
	C24.658535,38.330940 28.901365,38.493679 32.624565,35.986198 
	C33.066257,36.372288 33.139713,36.845650 33.269730,37.674000 
	C33.338306,38.200905 33.350323,38.372818 33.236427,38.770489 
	C33.110512,38.996246 32.991322,39.418350 32.740387,39.929710 
	C31.019201,41.362427 29.324125,41.596848 27.324162,42.072243 
	C26.464497,42.184395 25.967640,42.215714 25.089214,42.237900 
	C23.672346,42.229416 22.653242,42.111439 21.348377,41.518127 
	C20.892056,41.078999 20.766951,40.849529 20.832413,40.277451 
z"/>
<path fill="#7D503B" opacity="1.000000" stroke="none" 
	d="
M43.532806,40.271999 
	C43.398228,40.770699 43.192818,41.095554 42.982037,41.707336 
	C43.036938,42.624599 42.900566,43.219738 42.503151,44.067108 
	C42.094780,44.666176 41.803791,44.959408 41.201103,45.360397 
	C40.532738,45.618210 40.130516,45.662773 39.434120,45.538528 
	C38.633373,45.137287 38.294147,44.661785 37.804653,43.946938 
	C37.421936,43.422173 37.194355,43.131165 36.773018,42.642593 
	C36.336636,42.165310 36.106567,41.875431 35.766949,41.322109 
	C35.618969,40.885490 35.596722,40.699379 35.636414,40.237934 
	C35.871861,39.618660 36.126560,39.349220 36.727539,39.083202 
	C38.747353,38.708126 40.482407,37.674149 42.580421,39.008087 
	C43.100071,39.397667 43.281025,39.747910 43.532806,40.271999 
z"/>
<path fill="#8D6C5E" opacity="1.000000" stroke="none" 
	d="
M36.959381,38.706673 
	C36.906403,39.351437 36.719791,39.617744 36.214531,39.912132 
	C35.825249,40.176334 35.666416,40.350647 35.257866,40.274422 
	C35.072128,39.151917 34.769207,38.096733 35.665810,37.556015 
	C36.335995,37.151844 36.698555,37.797066 36.959381,38.706673 
z"/>
<path fill="#AD9A93" opacity="1.000000" stroke="none" 
	d="
M32.910294,39.891296 
	C33.435444,40.148773 33.960648,40.448143 34.748878,40.896774 
	C35.018604,41.298645 35.025303,41.551254 34.744904,42.052086 
	C33.158772,42.495525 32.571918,41.886051 32.769970,40.303806 
	C32.976841,39.984165 32.910347,39.933189 32.910294,39.891296 
z"/>
<path fill="#A19895" opacity="1.000000" stroke="none" 
	d="
M35.611679,41.815731 
	C34.966244,41.963684 34.990982,41.504025 35.001442,41.275032 
	C35.011272,40.875519 35.010639,40.705002 35.009079,40.279182 
	C35.008152,40.023876 35.497074,40.041592 35.740578,40.021809 
	C35.984077,40.002026 36.042309,40.473660 36.083260,40.707710 
	C36.168514,41.183769 36.212811,41.425774 35.611679,41.815731 
z"/>
<path fill="#756B61" opacity="1.000000" stroke="none" 
	d="
M33.252876,38.917709 
	C33.110512,38.996246 33.161892,38.499588 33.244091,38.264290 
	C33.618015,38.290283 33.640999,38.560345 33.252876,38.917709 
z"/>
<path fill="#432F20" opacity="1.000000" stroke="none" 
	d="
M70.559708,52.112793 
	C70.912979,53.146549 70.516945,53.802952 69.195839,54.060501 
	C67.295258,55.028622 65.888435,54.363873 64.195618,53.377110 
	C63.583519,52.689651 63.462231,52.206844 63.674721,51.316525 
	C65.361618,50.437634 66.640602,51.910587 68.514313,51.716190 
	C69.312546,51.930832 69.767380,51.989658 70.559708,52.112793 
z"/>
<path fill="#8B5336" opacity="1.000000" stroke="none" 
	d="
M63.892033,50.847237 
	C64.085670,51.487919 64.061295,51.896553 63.810188,52.895523 
	C62.179066,54.265026 60.690441,54.205170 58.823574,53.802460 
	C58.261459,53.531681 58.055763,53.386417 57.682152,52.903526 
	C57.508034,52.314953 57.501827,52.064007 57.672440,51.480629 
	C58.038395,51.125187 58.227528,51.102169 58.700996,51.052704 
	C60.279232,50.766335 61.369583,52.305172 62.929630,51.196854 
	C63.310291,50.834148 63.492149,50.724667 63.892033,50.847237 
z"/>
<path fill="#916141" opacity="1.000000" stroke="none" 
	d="
M64.425629,51.234299 
	C64.110054,51.079288 63.619190,51.002331 63.373814,50.972980 
	C65.179451,47.803196 66.624733,52.006603 68.662895,51.628025 
	C67.459885,51.929920 66.020866,52.339081 64.425629,51.234299 
z"/>
<path fill="#6D5841" opacity="1.000000" stroke="none" 
	d="
M9.786736,44.033714 
	C11.679001,45.198891 13.053750,44.132034 14.735364,43.226418 
	C16.266151,41.947929 17.442005,42.553993 18.887840,43.553520 
	C19.480648,45.829102 18.353348,46.796944 16.283583,47.302505 
	C15.565478,47.229702 15.245079,47.267868 14.686996,47.359291 
	C12.907644,47.896580 11.371062,48.442467 9.395227,47.252838 
	C9.001527,46.500984 8.996608,46.036495 8.976400,45.221825 
	C9.079250,44.557381 9.280390,44.310799 9.786736,44.033714 
z"/>
<path fill="#8B5336" opacity="1.000000" stroke="none" 
	d="
M64.024521,52.972633 
	C65.609169,52.639542 66.845718,53.498638 68.528633,54.054916 
	C68.655235,54.574459 68.432152,55.025410 68.124649,55.715553 
	C67.114197,56.472958 66.983429,57.340549 67.027733,58.621044 
	C66.698586,59.308025 66.302055,59.561592 65.480499,59.724785 
	C64.398506,59.639053 63.788677,59.310669 63.079269,58.513699 
	C62.821190,58.012012 62.758194,57.792545 62.753166,57.238213 
	C63.610054,55.968285 63.423416,54.814938 63.691647,53.428726 
	C63.867840,53.134144 63.972637,53.026802 64.024521,52.972633 
z"/>
<path fill="#332B27" opacity="1.000000" stroke="none" 
	d="
M36.712788,101.740143 
	C37.873093,102.059593 38.757298,102.150215 39.162506,103.000946 
	C39.420078,103.541710 38.966675,103.947563 38.454437,103.945885 
	C35.661373,103.936714 33.353256,106.456764 30.173344,105.182098 
	C30.566597,104.411591 31.171740,103.935143 31.964369,103.224747 
	C33.298817,101.737404 34.540783,100.753212 36.712788,101.740143 
z"/>
<path fill="#37291F" opacity="1.000000" stroke="none" 
	d="
M37.183086,101.741173 
	C35.641621,102.292641 34.249355,102.599518 32.504475,102.948593 
	C32.389957,98.507263 35.956074,100.619209 38.537815,99.959892 
	C38.407265,100.462830 37.869778,100.979706 37.183086,101.741173 
z"/>
<path fill="#332B27" opacity="1.000000" stroke="none" 
	d="
M27.700951,104.840851 
	C27.820347,107.214996 26.166061,106.943649 24.298813,106.939919 
	C23.476355,106.262032 23.290859,105.560486 23.855156,104.525085 
	C25.221945,104.407082 26.312222,104.547935 27.700951,104.840851 
z"/>
<path fill="#5A4A44" opacity="1.000000" stroke="none" 
	d="
M18.102814,109.720871 
	C17.780478,109.969215 17.601835,109.967445 17.154846,109.948822 
	C17.073494,108.817497 16.334461,107.061852 18.814915,107.671539 
	C18.746666,108.445984 18.496586,108.958366 18.102814,109.720871 
z"/>
<path fill="#5A4A44" opacity="1.000000" stroke="none" 
	d="
M23.815689,104.208214 
	C24.079266,104.930305 24.026863,105.594383 23.946007,106.590775 
	C23.917551,106.923073 23.445791,106.984924 23.207813,106.981651 
	C22.617987,105.936646 21.084894,104.673592 23.815689,104.208214 
z"/>
<path fill="#B6B1B1" opacity="1.000000" stroke="none" 
	d="
M38.455864,81.824463 
	C38.052620,81.340698 38.032444,80.941818 38.010620,80.241440 
	C37.804710,78.171547 39.342522,78.081703 40.727264,77.382095 
	C41.849731,77.117966 42.599468,77.147797 43.656734,77.596954 
	C45.010345,79.570946 44.000381,80.588509 42.294842,81.654190 
	C40.925804,81.862427 39.882370,81.885887 38.455864,81.824463 
z"/>
<path fill="#ADA096" opacity="1.000000" stroke="none" 
	d="
M42.246677,82.012970 
	C42.599442,80.795227 43.229649,79.751488 44.333817,78.312851 
	C44.885212,79.325943 44.962646,80.733955 44.997131,82.563423 
	C44.144157,82.718918 43.334141,82.452950 42.246677,82.012970 
z"/>
<path fill="#9F8275" opacity="1.000000" stroke="none" 
	d="
M51.742912,88.984726 
	C52.027905,89.284569 51.959698,89.529907 51.628632,89.851608 
	C51.387562,89.804405 51.302372,89.650917 51.111061,89.256622 
	C51.004932,89.015800 51.496685,88.960144 51.742912,88.984726 
z"/>
<path fill="#CDC7C4" opacity="1.000000" stroke="none" 
	d="
M41.167160,77.544724 
	C40.581738,79.053520 39.276608,78.858521 38.208305,79.689926 
	C34.262962,79.912537 30.522194,76.759727 26.406866,79.938950 
	C26.040308,79.488983 26.037714,79.021149 26.032598,78.199348 
	C26.335394,77.104919 26.640709,76.364456 26.962360,75.318512 
	C27.801743,73.609444 29.393623,73.066223 30.724840,71.720016 
	C31.430807,71.340179 31.874565,71.231529 32.679367,71.207367 
	C35.360004,71.740608 36.223442,74.475967 38.935089,75.042038 
	C40.177372,75.580856 40.884300,76.193916 41.167160,77.544724 
z"/>
<path fill="#DAD2D0" opacity="1.000000" stroke="none" 
	d="
M22.320560,65.904816 
	C19.931932,65.856537 18.739979,64.640915 18.040863,62.446175 
	C16.966127,60.945744 16.979973,59.554028 17.282654,57.726040 
	C17.586206,57.099133 17.757395,56.874714 18.290983,56.432480 
	C19.174561,56.012947 19.712082,55.875580 20.672535,55.773201 
	C22.673765,55.793240 24.267683,55.848442 25.415428,57.698952 
	C25.027918,59.825996 25.389238,61.594784 25.455364,63.680885 
	C24.637398,64.891113 23.609577,65.313431 22.320560,65.904816 
z"/>
<path fill="#D4CCC9" opacity="1.000000" stroke="none" 
	d="
M22.157059,66.298050 
	C22.071363,64.505264 22.955177,63.972069 24.680717,63.997833 
	C26.082367,62.858814 26.720232,61.063671 29.145420,61.923569 
	C30.255079,63.408272 30.281515,64.804489 30.364037,66.609711 
	C30.367643,68.454361 30.412127,69.880745 29.913769,71.690994 
	C29.377480,72.960594 28.761793,73.494934 27.364273,73.189880 
	C27.572002,69.282425 24.122204,68.542351 22.157059,66.298050 
z"/>
<path fill="#C1BDBC" opacity="1.000000" stroke="none" 
	d="
M26.758310,73.133957 
	C27.555235,72.808998 28.129477,72.635986 28.881075,72.212364 
	C29.454487,71.629562 29.909489,71.519073 30.717308,71.814980 
	C30.842234,74.077927 29.182150,74.421532 27.326065,74.976097 
	C26.283148,74.577866 25.955366,74.048355 26.758310,73.133957 
z"/>
<path fill="#B6B1B1" opacity="1.000000" stroke="none" 
	d="
M17.810760,56.979439 
	C18.094717,58.613228 18.055731,59.953747 18.013220,61.701714 
	C17.568569,62.088184 17.127439,62.067204 16.355446,62.048553 
	C16.009962,60.714134 15.995341,59.377380 15.964700,57.641106 
	C16.353193,56.755684 16.866240,56.570553 17.810760,56.979439 
z"/>
<path fill="#A19895" opacity="1.000000" stroke="none" 
	d="
M15.918966,47.469002 
	C16.828062,46.325214 17.766102,45.424103 18.785191,44.207088 
	C18.739086,42.475105 19.718256,41.887192 21.109463,41.364639 
	C22.425596,41.297024 23.399584,41.216366 24.727629,41.232407 
	C25.871733,44.526207 25.953228,47.835762 26.625660,51.408485 
	C26.503393,52.507637 26.138569,53.077057 25.107241,53.470787 
	C24.543610,53.483894 24.320518,53.439552 23.809700,53.219841 
	C23.183489,52.764004 22.846365,52.481907 22.245419,52.017487 
	C20.194664,50.681232 18.275465,49.749393 16.244783,48.383179 
	C15.983806,48.199127 15.947911,47.711670 15.918966,47.469002 
z"/>
<path fill="#F5F2F0" opacity="1.000000" stroke="none" 
	d="
M15.929464,48.522331 
	C18.790293,47.347279 20.211866,49.629120 22.367249,51.078102 
	C23.074305,51.260048 23.398916,51.442844 23.631744,52.083954 
	C23.624683,52.382572 23.363514,52.536850 23.331421,52.685081 
	C23.188585,53.020939 23.077841,53.208565 22.699970,53.585320 
	C21.231112,54.304119 20.097395,54.963913 18.626659,55.709080 
	C17.373802,55.960880 16.456568,55.991756 15.328766,55.270790 
	C14.596792,55.039047 14.141800,55.024136 13.345160,55.020355 
	C10.735012,51.472084 14.177645,50.563869 15.929464,48.522331 
z"/>
<path fill="#877568" opacity="1.000000" stroke="none" 
	d="
M9.000113,47.328297 
	C10.521738,47.018215 12.037029,47.070957 13.998745,47.250725 
	C13.312799,49.093426 11.917640,50.340900 9.299711,49.962013 
	C8.954182,49.139244 8.973981,48.415180 9.000113,47.328297 
z"/>
<path fill="#938683" opacity="1.000000" stroke="none" 
	d="
M15.043654,55.368763 
	C16.108423,54.890583 17.165062,54.727203 18.625290,54.577606 
	C19.398567,55.088730 19.545345,55.644897 19.263845,56.654678 
	C19.058472,57.049465 18.587963,57.127159 18.360834,57.199936 
	C17.647684,57.224613 17.161663,57.176510 16.312160,57.184994 
	C15.644294,56.722240 15.339910,56.202900 15.043654,55.368763 
z"/>
<path fill="#ADA096" opacity="1.000000" stroke="none" 
	d="
M41.482479,77.929741 
	C40.622906,77.333183 40.111835,76.758049 39.342766,76.049278 
	C36.788864,73.279121 35.074162,70.213142 32.781235,67.164581 
	C32.801003,66.048927 33.284534,65.585724 34.294399,65.196503 
	C36.089706,65.016174 37.698582,65.383743 38.995087,63.635269 
	C39.726852,63.259022 40.190655,63.154442 41.040649,63.111179 
	C43.877621,63.804642 46.443817,63.576584 49.322914,64.031593 
	C50.713802,64.402504 51.665241,64.816193 52.731453,65.786987 
	C52.078365,69.336479 49.368591,67.995621 47.558109,67.915611 
	C43.760735,67.747772 44.954834,69.412498 46.025841,71.580078 
	C43.637794,73.187111 44.884369,75.536583 44.276424,77.656303 
	C44.084560,77.913620 44.006962,77.992935 43.967529,78.033554 
	C43.229057,78.033165 42.530018,77.992165 41.482479,77.929741 
z"/>
<path fill="#503927" opacity="1.000000" stroke="none" 
	d="
M53.386780,66.044571 
	C52.148441,65.849922 51.334583,65.594986 50.262100,65.154678 
	C49.672932,64.638527 49.433784,64.251282 49.263660,63.464218 
	C49.290176,62.898388 49.338882,62.676022 49.559929,62.161266 
	C50.092712,61.603306 50.489567,61.420517 51.251324,61.335449 
	C52.377548,61.427750 53.169216,61.688625 54.297264,61.485802 
	C54.800686,61.366417 55.004383,61.316841 55.523903,61.217018 
	C56.504631,61.122036 57.148354,61.217140 58.054092,61.645378 
	C58.971272,62.543861 59.315552,63.372204 59.217735,64.650726 
	C59.062881,65.227089 59.032959,65.480858 58.962830,66.118256 
	C57.218830,66.329353 55.515045,66.156822 53.386780,66.044571 
z"/>
<path fill="#BAB2AC" opacity="1.000000" stroke="none" 
	d="
M44.265343,77.918411 
	C43.999851,76.930595 43.936039,75.991623 43.226742,75.147514 
	C40.536266,71.945679 43.218147,72.144295 45.679306,71.948112 
	C46.507820,71.914673 46.941299,71.912750 47.700531,71.903839 
	C48.771515,73.706421 49.071705,75.552925 48.245598,77.738243 
	C47.206081,77.985786 46.410053,77.967789 45.210903,77.933868 
	C44.807777,77.917938 44.446121,77.923210 44.265343,77.918411 
z"/>
<path fill="#ADA096" opacity="1.000000" stroke="none" 
	d="
M48.210114,78.257584 
	C48.487537,76.164047 46.476234,74.430161 47.898720,72.226479 
	C51.213757,70.628632 49.272530,73.953888 50.630424,74.751541 
	C51.004868,76.127876 53.174858,76.751076 51.938412,78.174225 
	C51.034580,79.214539 49.664158,79.103661 48.210114,78.257584 
z"/>
<path fill="#ADA096" opacity="1.000000" stroke="none" 
	d="
M53.461166,70.450226 
	C53.516556,70.417320 53.405777,70.483139 53.461166,70.450226 
z"/>
<path fill="#786149" opacity="1.000000" stroke="none" 
	d="
M72.655006,62.752289 
	C73.239479,63.791920 73.482986,64.577591 73.842163,65.652054 
	C72.256142,65.986954 70.554474,66.033073 68.426041,66.071716 
	C68.634048,65.247421 69.268799,64.430611 69.925385,63.294861 
	C70.637276,62.326660 71.439690,62.234226 72.655006,62.752289 
z"/>
<path fill="#58351C" opacity="1.000000" stroke="none" 
	d="
M73.397141,63.002102 
	C72.234581,62.992054 71.473183,62.977867 70.329514,62.969803 
	C69.947227,62.975925 69.501740,62.978691 69.279358,62.991360 
	C67.749252,61.809669 66.384842,63.262371 64.711594,62.863998 
	C63.454643,62.578510 62.585567,62.235798 61.428764,61.674683 
	C60.967117,61.325073 60.807690,61.153942 60.532406,60.652512 
	C60.417152,60.089344 60.417755,59.856472 60.536064,59.294884 
	C60.956825,58.609291 61.312260,58.317539 62.402447,57.978012 
	C63.526882,58.183430 63.977516,58.512386 64.683578,58.954529 
	C65.430168,59.472980 66.027534,59.515461 66.904312,59.667000 
	C68.520004,59.848198 69.855377,59.923424 71.592499,59.999828 
	C72.592758,60.026863 73.157928,60.158112 73.820450,60.764381 
	C74.879974,61.492275 75.767899,61.979961 76.831497,62.727867 
	C75.937546,62.991383 74.867920,62.994671 73.397141,63.002102 
z"/>
<path fill="#745438" opacity="1.000000" stroke="none" 
	d="
M60.517509,61.072197 
	C61.740910,61.239769 62.648262,61.353836 63.777283,61.737900 
	C64.444183,62.758301 63.839279,63.610607 64.125046,64.666824 
	C62.650719,64.972633 61.279163,64.978134 59.500206,64.978485 
	C58.740166,64.211197 58.387535,63.449070 58.004993,62.370373 
	C58.499329,61.240128 59.322006,61.068348 60.517509,61.072197 
z"/>
<path fill="#846648" opacity="1.000000" stroke="none" 
	d="
M64.379166,64.966675 
	C63.652981,64.173462 63.119930,63.393467 63.908028,62.259308 
	C65.515572,62.151211 67.032196,62.294525 68.802887,62.720936 
	C67.219925,62.784428 66.645348,65.344910 64.379166,64.966675 
z"/>
<path fill="#58351C" opacity="1.000000" stroke="none" 
	d="
M77.166840,63.244293 
	C77.449600,62.980701 77.891151,62.973557 78.663544,62.981926 
	C78.994392,62.997437 78.999512,63.491840 79.011475,63.738632 
	C78.457504,63.823864 77.891563,63.662304 77.166840,63.244293 
z"/>
<path fill="#39261C" opacity="1.000000" stroke="none" 
	d="
M21.302877,41.029327 
	C21.079323,42.431580 20.248066,43.003647 19.076660,43.665356 
	C17.801476,43.617626 16.736713,43.344067 15.337742,43.076405 
	C15.466647,42.411320 15.929764,41.740337 16.671032,40.941277 
	C17.119087,40.720871 17.288990,40.628540 17.718954,40.407753 
	C18.151236,40.175560 18.323458,40.071823 18.732666,39.782150 
	C19.426683,39.664116 19.883718,39.732018 20.681864,39.867386 
	C21.066698,40.183556 21.110422,40.432259 21.302877,41.029327 
z"/>
<path fill="#52463F" opacity="1.000000" stroke="none" 
	d="
M17.761478,40.245224 
	C17.843792,40.537910 17.636950,40.710709 17.153833,40.805447 
	C17.039167,40.505554 17.237421,40.304871 17.761478,40.245224 
z"/>
<path fill="#8E593F" opacity="1.000000" stroke="none" 
	d="
M53.938961,46.661903 
	C53.276432,47.314354 51.658745,46.404160 51.541649,48.046890 
	C51.471554,49.030235 52.631645,48.874008 53.697151,49.067429 
	C54.151546,49.281155 54.252483,49.460072 54.236702,49.924393 
	C53.364254,50.900581 52.368443,51.241741 51.349480,52.106606 
	C50.878368,52.327904 50.669971,52.374382 50.142853,52.362938 
	C49.434593,52.095402 49.093021,51.824047 48.601685,51.224354 
	C48.009754,50.125671 47.779495,49.249748 47.562057,48.012512 
	C47.591270,47.435658 47.647491,47.207436 47.925674,46.702774 
	C49.124710,45.594452 50.279697,45.469692 51.823288,45.718708 
	C52.681095,46.053978 53.210484,46.254700 53.938961,46.661903 
z"/>
<path fill="#71554A" opacity="1.000000" stroke="none" 
	d="
M42.151409,44.065182 
	C42.164932,43.246655 42.343903,42.758904 42.749767,42.132706 
	C44.747028,41.769794 46.136364,42.628418 47.714119,43.844162 
	C48.044685,44.327019 48.153160,44.548485 48.044559,45.070904 
	C47.165878,45.773670 46.440304,45.875999 45.315712,45.771587 
	C43.986401,45.443638 43.079788,45.063297 42.151409,44.065182 
z"/>
<path fill="#8D6C5E" opacity="1.000000" stroke="none" 
	d="
M47.934769,45.091736 
	C47.916500,44.813850 47.933315,44.459320 47.934765,44.282433 
	C49.175953,44.542019 50.415688,44.978493 51.903564,45.634109 
	C50.999767,46.211220 49.847828,46.569187 48.336334,46.953049 
	C47.652069,46.447174 47.740204,45.909317 47.934769,45.091736 
z"/>
<path fill="#9A6F54" opacity="1.000000" stroke="none" 
	d="
M53.761589,50.259903 
	C53.953705,50.053726 53.995373,49.576504 54.022995,49.339371 
	C54.468403,49.083805 54.886192,49.065369 55.617165,49.052193 
	C55.970379,49.498646 56.010414,49.939831 55.903187,50.902412 
	C55.576839,51.479965 55.397755,51.536125 54.936485,51.587505 
	C54.476418,51.520828 54.298538,51.458931 53.913906,51.204830 
	C53.661263,50.830441 53.615372,50.648258 53.761589,50.259903 
z"/>
<path fill="#684D3E" opacity="1.000000" stroke="none" 
	d="
M57.658867,51.525719 
	C57.896065,51.642071 57.974110,52.134930 57.992088,52.383781 
	C58.134876,52.805004 58.259686,52.977375 58.381119,53.470085 
	C58.249489,53.962280 58.121239,54.134140 57.696236,54.433205 
	C56.962955,54.608601 56.540516,54.548244 55.880966,54.184521 
	C55.415863,53.590252 55.280342,53.180515 55.249275,52.419220 
	C55.357964,51.894634 55.442612,51.695011 55.734783,51.244946 
	C55.942307,50.994507 56.047207,51.031818 56.104774,51.034355 
	C56.162342,51.036896 56.612328,51.022049 56.837444,51.021904 
	C57.182262,51.150955 57.301968,51.280159 57.658867,51.525719 
z"/>
<path fill="#A87E5E" opacity="1.000000" stroke="none" 
	d="
M57.890759,51.517998 
	C57.609467,51.705982 57.377491,51.620956 57.131348,51.204376 
	C57.062561,51.021755 57.457973,51.079002 57.653618,51.113602 
	C57.849266,51.148201 57.885452,51.393921 57.890759,51.517998 
z"/>
<path fill="#8B5336" opacity="1.000000" stroke="none" 
	d="
M74.220062,60.854187 
	C73.430099,60.839790 72.868149,60.674992 72.150230,60.255600 
	C72.448822,59.677475 72.903397,59.353939 73.650459,59.006325 
	C74.668816,59.392525 75.037445,59.907612 74.220062,60.854187 
z"/>
<path fill="#7E472B" opacity="1.000000" stroke="none" 
	d="
M67.141777,59.571121 
	C66.574821,59.696426 65.965004,59.619877 65.147102,59.305523 
	C65.405067,59.043198 65.871117,59.018673 66.687180,58.977669 
	C67.037186,58.961189 67.098915,59.369263 67.141777,59.571121 
z"/>
<path fill="#BEB3AF" opacity="1.000000" stroke="none" 
	d="
M26.383747,52.331505 
	C25.066452,48.792236 23.365570,45.598541 24.999485,41.674854 
	C25.489027,41.290104 25.896368,41.251091 26.607817,41.264763 
	C29.527050,42.703644 27.926857,45.623348 29.172440,47.504013 
	C29.229000,47.589413 29.462917,47.660927 29.533922,47.614929 
	C29.814713,47.433041 29.951534,47.132042 30.118851,46.472885 
	C30.469624,45.773224 30.721056,45.401703 31.241459,44.806877 
	C32.174198,43.952999 32.944927,43.505806 34.227493,43.551003 
	C34.726383,43.766762 34.899334,43.906334 35.192753,44.355705 
	C35.282604,44.884777 35.251995,45.104046 34.942780,45.922211 
	C34.464985,46.919662 34.279881,47.324688 33.991577,48.060539 
	C33.172523,50.212833 32.319393,51.920113 30.012562,52.856655 
	C28.619719,53.140434 27.619532,53.050716 26.383747,52.331505 
z"/>
<path fill="#A19895" opacity="1.000000" stroke="none" 
	d="
M35.198132,43.197197 
	C34.194942,44.240280 33.431675,44.496212 32.402908,44.908775 
	C31.712450,45.080593 31.369118,45.250931 31.105999,45.905754 
	C31.092463,47.884995 30.631006,49.140434 28.593664,48.967991 
	C29.388233,47.129360 25.106201,47.154297 27.072876,45.039654 
	C28.203489,43.823971 27.334145,42.960358 26.979877,41.627136 
	C28.681335,40.924713 30.193502,39.502941 32.580997,39.991684 
	C33.070854,40.874855 33.272346,41.690022 34.646629,41.934696 
	C34.966244,41.963684 34.985306,41.985130 34.994572,41.993877 
	C35.148575,42.138435 35.293312,42.274242 35.198132,43.197197 
z"/>
<path fill="#916141" opacity="1.000000" stroke="none" 
	d="
M34.776699,45.322289 
	C34.983704,44.854073 34.989822,44.679970 34.977081,44.245106 
	C34.958214,43.984344 35.063248,44.066357 35.128563,44.053165 
	C35.332668,43.711952 35.471786,43.384071 35.792206,42.858326 
	C36.142582,42.602894 36.312061,42.545490 36.749710,42.499859 
	C37.192188,42.552380 37.366505,42.593128 37.741734,42.812027 
	C38.282642,43.462051 38.622631,43.933929 38.983826,44.711468 
	C39.208057,45.467770 39.132526,45.877583 38.533936,46.444000 
	C38.021687,46.704414 37.799374,46.774055 37.227383,46.877968 
	C36.403965,46.889069 35.944977,46.792614 35.198669,46.442902 
	C34.791241,46.039616 34.683529,45.828007 34.776699,45.322289 
z"/>
<path fill="#C19E87" opacity="1.000000" stroke="none" 
	d="
M41.759499,43.875286 
	C42.861919,43.957603 43.737869,44.180794 44.859390,44.640923 
	C45.692451,46.348991 44.448132,46.960449 43.424576,48.011742 
	C42.633984,48.290752 42.179790,48.193153 41.496078,47.688541 
	C40.800289,46.835297 40.540627,46.173744 40.650211,45.077705 
	C41.015945,44.494358 41.274490,44.255260 41.759499,43.875286 
z"/>
<path fill="#B9876D" opacity="1.000000" stroke="none" 
	d="
M40.468597,44.796341 
	C41.075027,45.321861 41.392654,45.910267 41.794197,46.818115 
	C41.521923,47.508648 41.091209,47.742901 40.211746,47.861794 
	C39.063919,47.788265 38.401478,47.499905 38.025902,46.447277 
	C38.387047,45.941444 38.630436,45.735279 38.910751,45.239273 
	C39.396618,44.964497 39.788204,44.911865 40.468597,44.796341 
z"/>
<path fill="#967061" opacity="1.000000" stroke="none" 
	d="
M37.189293,42.711403 
	C36.997730,42.990761 36.532345,43.011284 36.299473,43.015949 
	C35.899830,43.140713 35.733059,43.260815 35.336224,43.175728 
	C35.106159,42.970539 35.053120,42.486759 35.028481,42.244690 
	C35.276047,41.791851 35.548252,41.581078 35.972336,41.156033 
	C36.424847,41.021854 36.668781,41.186153 36.957626,41.635231 
	C37.166443,42.034554 37.273651,42.233299 37.189293,42.711403 
z"/>
<path fill="#A27862" opacity="1.000000" stroke="none" 
	d="
M37.233963,42.992691 
	C37.003613,42.798615 37.009495,42.606472 37.037308,42.125069 
	C37.297676,42.064362 37.536114,42.292915 37.858601,42.755825 
	C37.942650,42.990177 37.470196,42.994617 37.233963,42.992691 
z"/>
<path fill="#402619" opacity="1.000000" stroke="none" 
	d="
M58.164391,54.307007 
	C58.048668,53.752865 58.026611,53.531109 58.007309,52.970993 
	C59.688267,52.782455 61.366474,52.932281 63.456261,53.108128 
	C62.841995,54.372234 67.784073,55.945377 63.330265,57.025497 
	C61.041725,57.001553 59.476002,56.164402 58.164391,54.307007 
z"/>
<path fill="#64382B" opacity="1.000000" stroke="none" 
	d="
M58.010834,53.990395 
	C59.600418,54.813038 61.130108,55.651459 62.835018,56.765945 
	C63.010235,57.042015 63.038616,57.450077 63.057434,57.652275 
	C63.076252,57.854473 63.030605,57.935108 63.005264,57.973892 
	C62.166260,58.438850 61.237083,57.911304 60.093681,58.394539 
	C58.822968,58.471817 58.000572,58.127876 57.009621,57.346039 
	C56.457661,56.123779 56.790314,55.314373 57.619385,54.312195 
	C57.834885,54.049496 57.950939,54.006176 58.010834,53.990395 
z"/>
<path fill="#BFB7B2" opacity="1.000000" stroke="none" 
	d="
M32.741859,67.241974 
	C36.028042,68.984322 38.131290,71.654457 39.058525,75.557999 
	C35.893837,76.778740 35.265587,73.760414 33.300797,72.141434 
	C32.235695,71.148064 31.911657,70.163971 32.049389,68.648651 
	C32.229771,68.008377 32.340427,67.764130 32.741859,67.241974 
z"/>
<path fill="#BAB2AC" opacity="1.000000" stroke="none" 
	d="
M32.715523,67.758499 
	C32.997612,69.081512 32.997166,70.136978 32.994820,71.587608 
	C32.554119,71.992279 32.115322,72.001793 31.347759,72.020172 
	C30.582695,72.014496 30.146400,71.999947 29.384266,71.973572 
	C29.025681,70.569405 28.992929,69.177063 28.964348,67.365921 
	C30.299904,66.003601 31.404055,66.507675 32.715523,67.758499 
z"/>
<path fill="#D4C5BC" opacity="1.000000" stroke="none" 
	d="
M25.830105,52.334496 
	C27.159485,52.050327 28.215132,52.036343 29.668638,52.028393 
	C31.269213,52.988827 32.593456,53.756458 34.146332,54.790565 
	C34.570648,55.491245 34.649113,55.957424 34.564056,56.804901 
	C33.965050,58.362320 33.215195,59.390820 31.929150,60.488472 
	C29.386663,61.301964 27.303955,61.194744 25.228004,59.335907 
	C24.851824,56.816669 23.237692,57.019623 21.381943,57.000450 
	C19.680323,54.905331 21.547964,54.307148 23.003201,53.126175 
	C23.305920,52.877934 23.319918,52.854527 23.309624,52.843922 
	C24.051678,52.757103 24.804024,52.680889 25.830105,52.334496 
z"/>
<path fill="#C4B9B4" opacity="1.000000" stroke="none" 
	d="
M24.683580,59.043831 
	C27.049509,59.382748 29.008362,60.335079 31.577114,59.996384 
	C33.195450,59.836567 33.392303,60.600727 33.178944,61.927017 
	C31.919315,63.003864 30.826166,63.041710 29.344154,62.254097 
	C27.426174,61.826305 26.983297,63.608650 25.361038,63.942196 
	C25.925486,62.204868 21.539585,61.139690 24.683580,59.043831 
z"/>
<path fill="#B6B1B1" opacity="1.000000" stroke="none" 
	d="
M22.939669,52.834976 
	C22.572014,54.025562 21.838112,55.173191 21.054911,56.659035 
	C20.572657,57.015617 20.139698,57.033985 19.382607,57.050907 
	C19.044018,56.504910 19.029564,55.960358 19.021992,55.003597 
	C19.908615,53.397144 21.112818,52.842045 22.939669,52.834976 
z"/>
<path fill="#CBBFB7" opacity="1.000000" stroke="none" 
	d="
M28.995157,62.418526 
	C30.059317,62.004047 31.128448,62.002350 32.598297,61.999622 
	C34.945393,62.402412 37.017033,62.715775 35.284069,65.775269 
	C34.445686,66.149574 33.898766,66.314888 33.192238,66.722137 
	C33.024689,67.140884 33.016747,67.317703 33.003429,67.760284 
	C31.887499,67.697273 30.776937,67.368500 29.317448,66.993423 
	C28.979053,65.575188 28.989594,64.203247 28.995157,62.418526 
z"/>
<path fill="#B6B1B1" opacity="1.000000" stroke="none" 
	d="
M23.644306,52.077789 
	C23.387115,52.151577 23.149546,51.920582 22.781900,51.475662 
	C22.989191,51.432156 23.326559,51.602577 23.644306,52.077789 
z"/>
<path fill="#CAB19C" opacity="1.000000" stroke="none" 
	d="
M35.340096,66.023071 
	C36.307407,63.931187 34.571968,63.327965 33.165237,62.244041 
	C32.825569,61.441071 32.652122,60.883553 32.228504,60.161621 
	C32.003750,58.787106 32.491508,57.842976 33.874306,57.103065 
	C35.249489,55.825603 36.764561,55.828712 38.463425,55.327499 
	C39.941166,54.924091 41.116131,54.775047 42.562325,54.241535 
	C44.037807,53.667038 45.176453,53.214912 46.779739,53.036018 
	C47.665764,53.058723 48.152889,53.182362 48.922127,53.618088 
	C49.462772,54.290966 49.591297,54.763653 49.490570,55.620461 
	C46.800274,59.003643 42.459660,58.254395 39.332794,60.796150 
	C38.684193,61.797695 38.489323,62.568733 38.927338,63.716785 
	C39.298302,66.981224 37.763081,66.960701 35.340096,66.023071 
z"/>
<path fill="#432F20" opacity="1.000000" stroke="none" 
	d="
M49.629265,62.684135 
	C49.992493,63.400421 49.995602,63.848701 50.001095,64.633148 
	C47.276115,65.169235 44.537762,65.495056 41.582214,64.089058 
	C41.092716,63.647861 40.956234,63.382584 41.124855,62.787888 
	C44.036839,61.299553 46.649910,61.287350 49.629265,62.684135 
z"/>
<path fill="#B3977B" opacity="1.000000" stroke="none" 
	d="
M41.303131,62.770576 
	C41.162342,63.115833 41.144764,63.518661 41.186981,63.715900 
	C40.734158,63.942802 40.239109,63.972469 39.372734,64.012772 
	C37.365345,63.837906 36.619846,63.097580 37.607025,61.189964 
	C38.833214,60.314167 39.726135,60.745487 40.890995,61.482388 
	C41.260223,61.963356 41.352074,62.194336 41.303131,62.770576 
z"/>
<path fill="#855D3D" opacity="1.000000" stroke="none" 
	d="
M41.598011,63.094418 
	C41.090469,62.949654 41.018600,62.783470 40.867542,62.357502 
	C40.105148,60.061813 40.850719,58.970596 42.978504,58.843349 
	C44.756863,58.736992 46.542168,58.459946 48.718525,59.088539 
	C49.951447,59.665104 50.466858,60.298954 50.238682,61.661072 
	C50.036526,62.042339 50.004627,62.497269 49.997005,62.724709 
	C47.337482,62.992428 44.685581,63.032715 41.598011,63.094418 
z"/>
<path fill="#714F38" opacity="1.000000" stroke="none" 
	d="
M50.355568,62.034657 
	C49.838512,61.463539 49.640503,60.884739 49.177406,60.141312 
	C48.499611,58.507847 49.579765,57.853802 50.782318,56.914223 
	C51.296444,56.623817 51.509434,56.521385 52.058899,56.308617 
	C53.327377,55.991112 54.256344,55.986294 55.497353,56.382233 
	C55.970760,56.691528 56.128239,56.858696 56.388649,57.353378 
	C56.476650,58.135025 56.426647,58.585083 56.271236,59.359581 
	C56.065144,60.346588 55.857925,60.977982 55.240437,61.781219 
	C55.022598,62.031345 55.001099,62.009319 55.011024,62.015572 
	C54.305195,62.574821 53.476151,62.477722 52.304161,62.218971 
	C51.526157,62.011703 51.100384,62.019337 50.355568,62.034657 
z"/>
<path fill="#8A7461" opacity="1.000000" stroke="none" 
	d="
M55.390472,62.078156 
	C55.031506,61.243382 55.040413,60.455421 55.057121,59.273552 
	C55.567234,58.543934 56.166656,58.484188 57.016373,58.290382 
	C57.504520,58.320862 57.697468,58.357803 58.166672,58.493633 
	C58.786705,58.775742 59.143032,58.929974 59.781017,59.166058 
	C60.204197,59.394489 60.358311,59.511974 60.653503,59.883602 
	C60.794582,60.137749 60.828331,60.630081 60.830948,60.877892 
	C60.306454,61.938419 59.500511,62.077400 58.298534,62.047390 
	C57.236176,62.077526 56.497261,62.101250 55.390472,62.078156 
z"/>
<path fill="#8A7461" opacity="1.000000" stroke="none" 
	d="
M52.128304,62.280781 
	C52.719654,62.000729 53.487377,61.997387 54.638023,62.007935 
	C54.360729,63.443764 53.341915,63.047340 52.128304,62.280781 
z"/>
<path fill="#745438" opacity="1.000000" stroke="none" 
	d="
M60.882507,59.846462 
	C60.794582,60.137749 60.407532,60.075603 60.214108,60.043922 
	C59.608265,59.532856 59.009113,59.495819 58.213142,59.189583 
	C57.971001,59.027733 58.000881,58.999546 57.995171,59.019302 
	C57.563519,58.523533 56.944393,58.489513 56.180279,58.133118 
	C56.006214,57.883205 56.003162,57.446377 56.000542,57.227974 
	C56.182133,56.884586 56.366344,56.759602 56.834137,56.810905 
	C57.903374,57.243416 58.689030,57.499641 59.773518,57.852440 
	C60.540913,57.763222 60.915283,57.891647 61.145752,58.623383 
	C61.045258,59.156448 61.007843,59.355812 60.882507,59.846462 
z"/>
<path fill="#402619" opacity="1.000000" stroke="none" 
	d="
M61.368050,58.948936 
	C60.961803,58.644047 60.766525,58.387699 60.284595,58.068527 
	C60.772541,56.711075 61.619617,57.308487 62.717403,57.885506 
	C62.537754,58.322048 62.095589,58.631424 61.368050,58.948936 
z"/>
<path fill="#4E3125" opacity="1.000000" stroke="none" 
	d="
M47.200294,53.851524 
	C45.897854,54.310497 44.819675,54.555660 43.407368,54.830940 
	C41.724266,54.052277 41.231476,52.874813 41.788738,50.997719 
	C43.501553,49.649902 45.152596,49.687645 47.227749,49.979553 
	C47.867630,50.221970 48.107300,50.357948 48.672318,50.748878 
	C49.260033,51.207836 49.522404,51.411831 49.910843,51.834618 
	C50.192097,52.472431 50.135590,52.853485 49.555199,53.335678 
	C48.656467,53.493828 48.031200,53.455681 47.200294,53.851524 
z"/>
<path fill="#B68E71" opacity="1.000000" stroke="none" 
	d="
M48.752785,53.236969 
	C49.337681,52.904758 49.599724,52.727318 49.924152,52.264454 
	C50.217613,52.021839 50.398312,51.990276 50.844582,51.886742 
	C51.332027,51.750862 51.553905,51.686951 52.100662,51.746944 
	C53.000523,52.302589 53.391087,52.867584 53.696907,53.883690 
	C53.778969,55.222645 53.441082,56.037495 52.310684,56.811859 
	C52.057980,57.046593 51.989719,56.982944 51.957115,56.949554 
	C50.986183,57.387882 50.174686,57.011768 49.176460,56.258118 
	C48.974052,55.532368 48.973396,55.083759 48.981827,54.298775 
	C48.820705,53.796970 48.650505,53.631542 48.752785,53.236969 
z"/>
<path fill="#B68E71" opacity="1.000000" stroke="none" 
	d="
M43.256523,48.233162 
	C42.969769,46.679245 43.937763,46.108082 44.932350,45.155495 
	C45.809620,44.893955 46.514286,44.910049 47.567726,44.869995 
	C48.694336,45.274632 48.589359,45.864429 48.069931,46.740059 
	C47.976776,46.978943 47.904915,47.377590 47.881340,47.578751 
	C47.587105,48.267544 47.190544,48.609558 46.275799,48.900600 
	C45.056389,49.057262 44.272411,48.911983 43.256523,48.233162 
z"/>
<path fill="#6D3D26" opacity="1.000000" stroke="none" 
	d="
M52.275307,52.244133 
	C51.994156,52.050465 51.552540,51.929390 51.331345,51.872082 
	C51.121365,50.347538 52.061260,50.019367 53.619911,50.047215 
	C53.996746,50.234169 54.039783,50.414616 54.159492,50.862560 
	C54.261627,51.355892 54.287086,51.581730 54.098785,52.073631 
	C53.452675,52.514679 53.009331,52.540775 52.275307,52.244133 
z"/>
<path fill="#6D3D26" opacity="1.000000" stroke="none" 
	d="
M45.939224,48.353390 
	C46.464859,48.004253 46.862133,47.935989 47.558586,47.823822 
	C48.776752,48.368202 49.016861,49.264500 48.995033,50.642330 
	C48.804359,50.986629 48.611065,50.969418 48.129894,50.909103 
	C47.187656,50.101433 46.094749,49.736000 45.939224,48.353390 
z"/>
<path fill="#B68E71" opacity="1.000000" stroke="none" 
	d="
M53.934227,52.376595 
	C54.054585,52.079330 54.115650,51.598598 54.175907,51.364326 
	C54.236164,51.130054 54.567673,51.132416 54.733368,51.136856 
	C55.070515,51.272652 55.241962,51.403999 55.437344,51.857903 
	C55.426125,52.392906 55.390972,52.605354 55.114483,53.031715 
	C54.423241,53.234394 54.064842,53.053646 53.934227,52.376595 
z"/>
<path fill="#A87E5E" opacity="1.000000" stroke="none" 
	d="
M55.206738,52.215599 
	C54.960083,51.945923 54.940136,51.541382 54.919601,51.341339 
	C55.072258,51.110352 55.245453,51.079399 55.680477,51.021477 
	C55.970535,51.161148 55.998764,51.327789 56.013836,51.747612 
	C55.818256,52.162285 55.635826,52.323784 55.206738,52.215599 
z"/>
<path fill="#916141" opacity="1.000000" stroke="none" 
	d="
M52.450859,57.033546 
	C52.370094,56.262783 52.682213,55.478977 53.031712,54.378838 
	C53.340340,53.671688 53.718533,53.479904 54.527054,53.476242 
	C55.089798,53.505993 55.314857,53.520016 55.803108,53.746490 
	C56.460777,53.976124 56.855247,53.993309 57.542305,54.029991 
	C57.652927,54.830120 57.470966,55.610748 57.203362,56.689278 
	C56.931114,56.991959 56.744514,56.996735 56.277916,57.005539 
	C54.946529,57.013214 53.895138,57.016857 52.450859,57.033546 
z"/>
<path fill="#9A6F54" opacity="1.000000" stroke="none" 
	d="
M56.047581,53.633087 
	C55.885509,53.963558 55.704716,53.968182 55.252663,53.969963 
	C54.813511,53.799191 54.645618,53.631252 54.686333,53.174599 
	C54.894939,52.885876 54.926159,52.416466 54.943123,52.181194 
	C55.133350,51.958229 55.306614,51.970535 55.740280,51.991814 
	C56.010075,52.436272 56.019466,52.871750 56.047581,53.633087 
z"/>
<path fill="#B9876D" opacity="1.000000" stroke="none" 
	d="
M34.045807,55.357838 
	C32.026501,55.023602 30.461685,54.740055 30.085396,52.372562 
	C31.802622,51.106312 32.398869,49.383423 33.122616,47.376938 
	C33.288044,46.852573 33.407429,46.668598 33.773087,46.266518 
	C34.019360,46.048405 34.043198,46.024685 34.059811,46.022079 
	C34.258129,45.876415 34.439831,45.733356 34.924244,45.759716 
	C35.598804,45.989799 35.970657,46.050457 36.621498,46.157177 
	C37.709820,46.850433 38.041264,47.923393 39.102623,48.766380 
	C39.384136,49.996750 38.777370,50.628368 38.058979,51.530838 
	C37.723888,51.897053 37.586941,52.031086 37.236588,52.318871 
	C35.767338,53.187355 37.017952,53.163303 37.559860,53.614418 
	C38.115936,54.191673 38.187328,54.629601 37.807747,55.342331 
	C36.469048,56.019726 35.438274,55.974464 34.045807,55.357838 
z"/>
<path fill="#877568" opacity="1.000000" stroke="none" 
	d="
M31.288473,46.040615 
	C30.531593,45.883430 30.040888,45.404072 30.330137,44.761974 
	C30.620523,44.117355 31.239580,44.076180 31.979080,44.800880 
	C31.919979,45.333721 31.702541,45.602039 31.288473,46.040615 
z"/>
<path fill="#A19895" opacity="1.000000" stroke="none" 
	d="
M35.173439,45.701454 
	C35.035225,45.948452 34.843494,45.967770 34.364090,46.003281 
	C34.137108,45.696609 34.296257,45.433273 34.765724,45.128815 
	C34.977585,45.028175 35.119923,45.473770 35.173439,45.701454 
z"/>
<path fill="#AD9A93" opacity="1.000000" stroke="none" 
	d="
M33.799393,46.136223 
	C33.930416,46.342403 33.770905,46.591125 33.354744,46.915554 
	C33.156315,46.690239 33.293240,46.419403 33.799393,46.136223 
z"/>
<path fill="#A27862" opacity="1.000000" stroke="none" 
	d="
M35.097298,43.240425 
	C35.106159,42.970539 35.585613,42.996185 35.826107,43.008400 
	C35.955620,43.310966 35.789261,43.565044 35.380699,43.911407 
	C35.158730,43.863415 35.123581,43.686859 35.097298,43.240425 
z"/>
<path fill="#A27862" opacity="1.000000" stroke="none" 
	d="
M39.282394,49.080719 
	C37.507355,48.940456 36.989429,48.112694 36.932465,46.526154 
	C37.096031,46.165852 37.291573,46.128464 37.786713,46.085495 
	C38.548283,46.382431 39.010258,46.684948 39.763229,47.017609 
	C40.602612,47.865292 40.436718,48.557678 39.282394,49.080719 
z"/>
<path fill="#9F5F40" opacity="1.000000" stroke="none" 
	d="
M38.759453,49.264404 
	C39.241932,48.559280 39.605362,48.104771 40.011505,47.348999 
	C40.460880,47.053253 40.867535,47.058762 41.576157,47.100914 
	C42.016609,47.435402 42.230042,47.662945 42.747131,47.881493 
	C43.748276,47.979633 44.520699,48.016472 45.680351,48.062912 
	C46.661697,48.810146 47.255810,49.547779 47.845970,50.575699 
	C46.152515,50.876820 44.463017,50.887642 42.348568,50.853821 
	C40.507896,51.427807 39.120274,52.240883 37.257854,51.222443 
	C37.556862,50.502682 38.098633,50.008846 38.759453,49.264404 
z"/>
<path fill="#AD9080" opacity="1.000000" stroke="none" 
	d="
M33.773270,55.476406 
	C34.826221,55.122730 35.974674,55.063309 37.549698,54.999908 
	C38.472290,54.830162 38.876579,54.956940 39.103298,55.724354 
	C37.869076,57.381687 36.334305,56.921795 34.546288,56.969501 
	C34.077713,56.569885 33.973240,56.170273 33.773270,55.476406 
z"/>
<path fill="#BEB3AF" opacity="1.000000" stroke="none" 
	d="
M28.550062,56.463070 
	C28.583658,56.519501 28.516466,56.406639 28.550062,56.463070 
z"/>
<path fill="#A87E5E" opacity="1.000000" stroke="none" 
	d="
M48.600273,56.034027 
	C49.767529,56.213364 50.560345,56.445751 51.638840,56.797150 
	C51.020344,57.749386 50.116177,58.582600 49.062164,59.696247 
	C46.392563,61.194351 43.017040,57.619179 40.871426,61.747635 
	C40.007454,61.794022 39.226551,61.490326 38.140213,61.073441 
	C39.995552,56.557667 45.055946,58.337929 48.600273,56.034027 
z"/>
<path fill="#89523A" opacity="1.000000" stroke="none" 
	d="
M39.394264,56.038765 
	C38.822914,55.793781 38.628380,55.515099 38.205055,55.116173 
	C37.918133,54.653255 37.742607,54.388359 37.233055,54.087864 
	C36.627991,53.572876 36.462769,53.094227 36.696663,52.183853 
	C36.872597,51.829174 36.913807,51.407799 36.964447,51.202160 
	C38.506737,50.788971 39.998379,50.581425 41.706821,50.591522 
	C42.284927,51.928352 42.646233,53.047527 43.040390,54.513878 
	C42.391346,56.451340 40.880585,55.649101 39.394264,56.038765 
z"/>
<path fill="#583325" opacity="1.000000" stroke="none" 
	d="
M48.717087,53.027363 
	C49.025265,53.007820 49.003365,53.484966 48.997139,53.723682 
	C48.543953,53.995499 48.096992,54.028595 47.313034,54.063515 
	C47.453655,53.725857 47.931282,53.386383 48.717087,53.027363 
z"/>
<path fill="#39261C" opacity="1.000000" stroke="none" 
	d="
M55.808617,58.008614 
	C56.571510,58.089985 57.136810,58.296768 57.845779,58.771301 
	C57.255302,59.047935 56.521145,59.056816 55.425957,58.972672 
	C55.188950,58.588638 55.370983,58.340096 55.808617,58.008614 
z"/>
<path fill="#855D3D" opacity="1.000000" stroke="none" 
	d="
M52.533089,60.549385 
	C52.473736,60.585732 52.592442,60.513039 52.533089,60.549385 
z"/>
<path fill="#39261C" opacity="1.000000" stroke="none" 
	d="
M58.052479,59.343967 
	C58.545540,59.182751 59.120075,59.337772 59.857651,59.752518 
	C59.391773,59.894894 58.762867,59.777546 58.052479,59.343967 
z"/>
<path fill="#A87E5E" opacity="1.000000" stroke="none" 
	d="
M54.709961,52.805553 
	C54.916100,53.065674 54.937263,53.245476 54.969910,53.696205 
	C54.555908,53.987915 54.130421,54.008701 53.387012,54.045998 
	C52.790337,53.563709 52.511574,53.064919 52.113483,52.308296 
	C52.451908,52.042809 52.909660,52.035156 53.710999,52.053413 
	C54.143639,52.344017 54.300438,52.559315 54.709961,52.805553 
z"/>
<path fill="#9F5F40" opacity="1.000000" stroke="none" 
	d="
M36.510521,51.870838 
	C36.913601,52.306087 36.954605,52.783001 37.006012,53.617195 
	C35.826111,53.816582 33.953945,54.677193 33.645870,53.155502 
	C33.312889,51.510788 35.194672,52.175999 36.510521,51.870838 
z"/>
</svg>