<svg version="1.1" id="Layer_1" xmlns="http://www.w3.org/2000/svg" xmlns:xlink="http://www.w3.org/1999/xlink" x="0px" y="0px"
	 width="100%" viewBox="0 0 104 104" enable-background="new 0 0 104 104" xml:space="preserve">
<path fill="#FDFCFB" opacity="0.000000" stroke="none" 
	d="
M1.000000,38.000000 
	C1.000000,25.333338 1.000000,13.166674 1.000000,1.000008 
	C35.666653,1.000005 70.333305,1.000005 104.999969,1.000003 
	C104.999985,35.666641 104.999985,70.333282 104.999992,104.999939 
	C70.333366,104.999962 35.666737,104.999962 1.000052,104.999985 
	C1.000000,82.833336 1.000000,60.666668 1.000000,38.000000 
M90.757149,19.047009 
	C91.838120,18.699373 92.919083,18.351738 94.785561,18.078337 
	C96.552238,17.799097 98.318916,17.519857 100.085594,17.240620 
	C99.914993,16.818233 99.744385,16.395847 99.151131,15.321784 
	C96.780365,15.197626 94.409607,15.073469 91.780884,14.565110 
	C91.210533,14.510964 90.640175,14.456819 89.562096,13.974301 
	C88.537971,12.944786 87.513855,11.915271 85.987816,10.319961 
	C82.667000,9.194355 79.346191,8.068749 75.130684,6.895710 
	C72.541580,6.661537 69.784325,5.744819 67.397743,6.332746 
	C62.140125,7.627940 56.923031,9.357640 51.992683,11.582210 
	C49.939240,12.508724 48.659386,15.149765 46.269920,16.813242 
	C39.703537,18.000027 36.340912,22.967390 32.565128,28.462013 
	C30.953594,30.236656 29.342060,32.011303 27.326910,33.795151 
	C27.326910,33.795151 26.979002,33.999969 26.356962,33.670769 
	C24.103386,29.557657 21.849810,25.444544 19.433428,21.034286 
	C15.968400,23.044413 15.058842,25.339029 16.860346,28.550989 
	C18.628689,31.703821 20.393909,34.858402 21.873669,38.638920 
	C18.929504,43.436653 15.985339,48.234386 12.558803,53.552971 
	C11.565959,55.956371 10.573115,58.359772 9.580271,60.763172 
	C10.107650,61.167946 10.635029,61.572716 11.162408,61.977489 
	C13.034231,60.653389 15.334836,59.662067 16.679815,57.929085 
	C18.827126,55.162308 20.339231,51.902542 22.917513,48.667007 
	C23.462746,48.713650 24.007978,48.760296 24.448469,49.648842 
	C24.398117,51.062191 24.347767,52.475540 23.849688,54.399548 
	C23.463129,55.904465 23.076571,57.409386 22.123442,59.249027 
	C20.167431,62.080856 18.097870,64.844650 16.332678,67.790810 
	C15.872810,68.558342 16.361940,69.894470 16.088608,71.439941 
	C16.059917,71.628685 16.031227,71.817421 15.421942,72.322426 
	C13.563570,74.531708 11.705198,76.740982 9.284639,79.270988 
	C8.146651,81.520615 7.008662,83.770233 5.801504,86.756210 
	C7.874002,88.142502 9.946501,89.528801 12.825715,91.019516 
	C13.876517,90.758202 14.927320,90.496887 16.024824,90.983604 
	C21.635880,94.496239 25.139200,93.904060 27.771816,89.027351 
	C28.561432,88.546921 29.723753,88.256264 30.080582,87.555473 
	C32.520630,82.763306 34.791592,77.885033 37.630016,72.742104 
	C39.142769,72.833672 40.655525,72.925240 42.375320,73.655968 
	C43.956337,75.453903 45.537354,77.251846 47.068260,79.806976 
	C46.721390,80.642311 46.382298,81.480972 46.025871,82.312210 
	C45.462955,83.625008 44.888409,84.932808 44.318783,86.242722 
	C45.878590,86.499130 47.438396,86.755539 49.707512,87.152824 
	C50.428993,87.171326 51.150478,87.189827 52.073917,87.821358 
	C53.330566,90.477371 54.571854,93.140793 55.848072,95.787369 
	C57.196354,98.583397 58.919037,99.300385 61.831451,96.410278 
	C59.224857,92.442101 56.685722,88.576614 54.905025,84.010284 
	C56.320042,79.633026 52.756950,77.045532 51.965233,73.641228 
	C53.617813,73.173859 55.270390,72.706482 57.511223,72.458427 
	C58.324066,72.571884 59.136909,72.685349 60.663628,73.205116 
	C68.504852,70.124878 76.217918,66.903702 78.769646,57.001053 
	C80.184746,55.155647 81.599846,53.310242 83.554184,50.801064 
	C83.999039,48.713211 84.820946,46.622288 84.804001,44.538193 
	C84.775673,41.053810 84.211540,37.573784 83.990479,33.338760 
	C83.994919,32.576584 83.999359,31.814405 84.709946,30.803284 
	C85.576981,28.272200 86.444008,25.741116 87.256958,23.117743 
	C87.256958,23.117743 87.178947,23.190933 87.800095,23.054495 
	C87.916557,22.653383 88.033028,22.252272 88.227722,21.702410 
	C88.227722,21.702410 88.116173,21.576700 88.642105,21.242155 
	C89.133331,20.590820 89.624565,19.939484 90.757149,19.047009 
z"/>
<path fill="#F6BE31" opacity="1.000000" stroke="none" 
	d="
M86.489731,10.885756 
	C87.513855,11.915271 88.537971,12.944786 89.788322,14.362644 
	C90.014549,14.750986 90.085419,15.099963 90.105080,15.092287 
	C90.124741,15.084612 90.159218,15.110622 89.903069,15.171456 
	C89.439331,15.505604 89.231743,15.778917 88.782700,16.149340 
	C88.333542,16.882454 88.125824,17.518459 87.931107,18.469917 
	C87.913803,19.205967 87.883484,19.626562 87.421448,20.034077 
	C84.694328,19.845547 82.398949,19.670099 80.103561,19.494652 
	C80.143227,18.869207 80.182892,18.243765 80.222565,17.618320 
	C81.771011,17.374281 83.319458,17.130241 84.867905,16.886202 
	C84.749298,16.295876 84.630684,15.705550 84.512077,15.115224 
	C81.184708,15.734598 77.857346,16.353971 74.708588,16.940100 
	C75.552467,19.345207 76.646843,20.895365 76.250862,21.773407 
	C75.848450,22.665718 73.884422,22.750626 72.775047,23.457253 
	C71.736488,24.118771 70.921669,25.131542 69.620865,25.992111 
	C67.721802,26.155903 66.210266,26.317316 64.703369,26.478235 
	C65.683212,27.966658 66.354820,28.986853 66.862289,30.308119 
	C65.476028,31.074385 64.253906,31.539577 62.751194,31.887806 
	C61.860973,31.282715 60.657181,30.646925 60.735973,30.329887 
	C61.351768,27.852108 62.213852,25.435539 63.373898,22.991119 
	C64.470306,22.362476 65.192741,21.742786 65.915169,21.123098 
	C65.280083,20.410660 64.644997,19.698217 63.900448,18.769169 
	C63.591999,18.282394 63.332836,18.095804 62.962708,17.670946 
	C59.671177,15.274947 58.791176,17.568609 57.694820,19.859213 
	C57.681385,18.110598 57.730000,16.420973 58.307091,14.936848 
	C58.975880,13.216915 60.109085,11.677568 61.408638,10.048887 
	C62.512764,10.036752 63.248932,10.035559 64.055458,10.384443 
	C71.580452,10.784933 79.035095,10.835344 86.489731,10.885756 
z"/>
<path fill="#D3A12A" opacity="1.000000" stroke="none" 
	d="
M16.002537,72.006165 
	C16.031227,71.817421 16.059917,71.628685 16.590860,71.201347 
	C18.643515,68.782387 20.033409,66.460419 21.793570,64.465088 
	C23.282953,62.776711 25.200970,61.466438 27.101030,60.294205 
	C28.518057,61.054951 29.763348,61.510326 31.062855,62.295803 
	C31.128971,63.070816 31.140873,63.515724 30.902599,64.103027 
	C30.651152,64.665077 30.649881,65.084732 30.648613,65.504387 
	C31.117954,65.037018 31.587297,64.569641 32.377426,64.078949 
	C33.126091,64.029694 33.553978,64.003761 34.196865,64.013222 
	C34.693554,64.092834 34.973698,64.145294 35.438984,64.518753 
	C35.059990,66.884438 34.494305,68.937370 33.691620,71.062943 
	C33.149837,71.332420 32.990997,71.612183 32.650570,71.961136 
	C31.886637,71.967560 31.450230,71.987717 30.660433,72.040253 
	C27.541925,74.740593 24.776810,77.408554 21.857933,80.362503 
	C20.137722,82.101974 18.571268,83.555458 16.672928,84.998947 
	C15.900450,84.945564 15.459857,84.902184 15.014089,84.436234 
	C15.100357,81.916229 15.131083,79.813850 15.301126,77.722809 
	C15.456601,75.810890 15.762774,73.911224 16.002537,72.006165 
M24.799517,64.398750 
	C24.795229,64.788765 24.790941,65.178772 24.786654,65.568787 
	C24.948486,65.570343 25.250967,65.582794 25.251814,65.571877 
	C25.281881,65.183739 25.283707,64.793411 24.799517,64.398750 
z"/>
<path fill="#B78624" opacity="1.000000" stroke="none" 
	d="
M63.985100,10.034367 
	C63.248932,10.035559 62.512764,10.036752 61.077271,10.155289 
	C53.190689,14.440795 53.191231,14.440656 55.028259,21.563318 
	C55.068466,21.719236 55.055794,21.888796 55.042389,22.027357 
	C55.016987,22.002724 55.048439,22.065607 54.725033,22.080536 
	C53.916908,22.710426 53.432194,23.325390 52.629898,24.098824 
	C49.899651,25.182188 47.486984,26.107084 44.787560,26.790188 
	C44.336575,25.049707 44.172352,23.551020 44.205296,21.783524 
	C46.453705,20.699165 48.971889,20.155821 47.027775,17.011192 
	C48.659386,15.149765 49.939240,12.508724 51.992683,11.582210 
	C56.923031,9.357640 62.140125,7.627940 67.397743,6.332746 
	C69.784325,5.744819 72.541580,6.661537 75.316086,7.211409 
	C71.662697,8.362861 67.823898,9.198613 63.985100,10.034367 
z"/>
<path fill="#7D4C29" opacity="1.000000" stroke="none" 
	d="
M22.160500,38.012218 
	C20.393909,34.858402 18.628689,31.703821 16.860346,28.550989 
	C15.058842,25.339029 15.968400,23.044413 19.433428,21.034286 
	C21.849810,25.444544 24.103386,29.557657 26.802753,34.103462 
	C28.063831,36.020683 28.879118,37.505211 29.746967,39.321938 
	C29.677845,40.081577 29.556158,40.509014 29.274969,40.969231 
	C29.115469,41.002010 28.796808,41.069195 28.538109,41.187881 
	C27.522015,41.863949 26.764622,42.421333 25.736462,42.831955 
	C24.994425,42.288857 24.523157,41.892517 24.048923,41.494034 
	C24.045958,41.491886 24.028809,41.473637 24.060432,41.043739 
	C24.078100,40.326817 24.064142,40.039783 23.911110,39.531601 
	C23.234858,38.877712 22.697678,38.444965 22.160500,38.012218 
z"/>
<path fill="#FACE33" opacity="1.000000" stroke="none" 
	d="
M70.008392,25.989731 
	C70.921669,25.131542 71.736488,24.118771 72.775047,23.457253 
	C73.884422,22.750626 75.848450,22.665718 76.250862,21.773407 
	C76.646843,20.895365 75.552467,19.345207 74.708588,16.940100 
	C77.857346,16.353971 81.184708,15.734598 84.512077,15.115224 
	C84.630684,15.705550 84.749298,16.295876 84.867905,16.886202 
	C83.319458,17.130241 81.771011,17.374281 80.222565,17.618320 
	C80.182892,18.243765 80.143227,18.869207 80.103561,19.494652 
	C82.398949,19.670099 84.694328,19.845547 87.490974,20.415737 
	C88.033539,21.065887 88.074852,21.321293 88.116173,21.576700 
	C88.116173,21.576700 88.227722,21.702410 87.937294,21.930031 
	C87.490891,22.502079 87.334915,22.846506 87.178947,23.190933 
	C87.178947,23.190933 87.256958,23.117743 86.981972,23.215294 
	C86.157784,23.884665 85.608582,24.456482 84.676102,25.027260 
	C80.172226,27.785023 75.954918,29.892790 70.886139,26.784267 
	C70.579796,26.296085 70.323494,26.103743 70.008392,25.989731 
z"/>
<path fill="#EFAC2C" opacity="1.000000" stroke="none" 
	d="
M69.620865,25.992111 
	C70.323494,26.103743 70.579796,26.296085 70.892487,27.162804 
	C71.680763,28.774647 72.518028,30.738935 73.000816,30.655365 
	C76.679176,30.018641 80.288322,28.982050 83.920685,28.442654 
	C83.949493,29.560982 83.976646,30.306606 84.003799,31.052229 
	C83.999359,31.814405 83.994919,32.576584 83.611176,33.885529 
	C82.846886,36.313503 82.461891,38.194706 81.791718,40.028427 
	C80.668633,38.656349 79.830727,37.331749 78.941116,35.672432 
	C77.745331,34.569920 76.601257,33.802132 74.977409,32.712372 
	C74.778725,35.316715 74.658112,36.897663 74.537498,38.478611 
	C74.219261,38.495819 73.901024,38.513023 73.582787,38.530231 
	C73.187218,37.148842 72.791649,35.767456 72.396080,34.386066 
	C72.185852,34.896004 71.975616,35.405941 71.765388,35.915878 
	C70.172668,35.915878 68.579948,35.915878 66.988632,35.721611 
	C66.990036,35.527344 66.998856,35.138901 67.007538,34.850952 
	C67.011627,34.371002 67.007042,34.179001 67.001625,33.993973 
	C67.000786,34.000946 66.986794,34.002716 67.293350,33.989307 
	C68.085037,33.646450 68.570168,33.317001 69.285187,32.791397 
	C68.685516,31.732510 67.855972,30.869778 67.026421,30.007046 
	C66.354820,28.986853 65.683212,27.966658 64.703369,26.478235 
	C66.210266,26.317316 67.721802,26.155903 69.620865,25.992111 
z"/>
<path fill="#6B3B13" opacity="1.000000" stroke="none" 
	d="
M47.118370,79.049789 
	C45.537354,77.251846 43.956337,75.453903 42.577744,73.313995 
	C46.121780,72.175278 42.966656,71.207474 42.868797,70.302849 
	C42.604824,67.862701 37.492462,65.910431 42.412693,63.141212 
	C45.460491,67.150002 48.984760,69.034744 54.080070,67.883911 
	C54.681301,68.461258 54.991486,68.826584 55.058311,69.469360 
	C53.187294,70.175133 51.559639,70.603462 49.582283,71.098114 
	C49.333462,72.949272 48.737480,75.387772 49.675293,76.387543 
	C51.859474,78.716026 50.394367,79.635170 48.608429,80.731155 
	C47.967289,80.080254 47.542831,79.565025 47.118370,79.049789 
z"/>
<path fill="#2C170A" opacity="1.000000" stroke="none" 
	d="
M24.051888,41.496178 
	C24.523157,41.892517 24.994425,42.288857 25.613005,43.136211 
	C25.507202,44.409214 25.254089,45.231205 24.785923,46.151569 
	C24.298525,46.436611 24.118477,46.689106 23.755539,47.109879 
	C23.026873,47.758629 22.573391,48.304924 22.119911,48.851223 
	C20.339231,51.902542 18.827126,55.162308 16.679815,57.929085 
	C15.334836,59.662067 13.034231,60.653389 11.162408,61.977489 
	C10.635029,61.572716 10.107650,61.167946 9.580271,60.763172 
	C10.573115,58.359772 11.565959,55.956371 13.132313,53.241013 
	C17.154510,49.118095 20.603197,45.307137 24.051888,41.496178 
z"/>
<path fill="#AB8922" opacity="1.000000" stroke="none" 
	d="
M44.008129,22.052334 
	C44.172352,23.551020 44.336575,25.049707 44.582977,27.069490 
	C42.414444,29.654993 40.163731,31.719398 37.822910,33.430157 
	C36.073784,32.809315 34.391907,32.236858 32.762039,32.358925 
	C31.058798,32.486488 29.405602,33.282272 27.730528,33.785946 
	C29.342060,32.011303 30.953594,30.236656 33.165581,28.228535 
	C37.180065,26.014149 40.594097,24.033243 44.008129,22.052334 
z"/>
<path fill="#B08A2A" opacity="1.000000" stroke="none" 
	d="
M78.139626,57.313690 
	C76.217918,66.903702 68.504852,70.124878 60.340797,72.702454 
	C60.016937,71.141289 60.015903,70.082787 60.006435,69.011215 
	C59.998001,68.998161 59.980038,68.972778 60.117989,68.677780 
	C61.512314,67.230431 62.768692,66.078079 64.230972,64.697617 
	C67.763893,68.722580 69.986435,65.829803 72.167732,63.214054 
	C72.646935,62.639404 72.776825,61.773460 73.320770,60.834923 
	C75.036819,59.051880 76.499695,57.475582 78.002831,56.253387 
	C78.075264,56.842892 78.107445,57.078289 78.139626,57.313690 
z"/>
<path fill="#52330E" opacity="1.000000" stroke="none" 
	d="
M42.116489,62.977592 
	C37.492462,65.910431 42.604824,67.862701 42.868797,70.302849 
	C42.966656,71.207474 46.121780,72.175278 42.474224,72.994408 
	C40.655525,72.925240 39.142769,72.833672 37.115303,72.832031 
	C36.425873,72.942780 36.251163,72.963593 36.030060,72.673370 
	C35.299896,72.143463 34.616131,71.924599 33.976845,71.526627 
	C34.021332,71.347534 33.928623,70.990295 33.928623,70.990295 
	C34.494305,68.937370 35.059990,66.884438 35.649624,64.216393 
	C36.400829,62.708294 37.128082,61.815311 38.083931,60.872971 
	C38.605701,60.692871 38.835964,60.490547 39.366383,60.174641 
	C40.459160,60.132008 41.188862,60.131378 41.950157,60.328377 
	C41.981750,60.526001 42.040878,60.921879 42.037113,61.228333 
	C42.049534,61.738468 42.065723,61.942142 42.085381,62.353981 
	C42.088848,62.562138 42.116489,62.977592 42.116489,62.977592 
z"/>
<path fill="#804F2F" opacity="1.000000" stroke="none" 
	d="
M54.146587,84.711128 
	C56.685722,88.576614 59.224857,92.442101 61.831451,96.410278 
	C58.919037,99.300385 57.196354,98.583397 55.848072,95.787369 
	C54.571854,93.140793 53.330566,90.477371 52.107391,87.277176 
	C52.809444,86.059036 53.478016,85.385086 54.146587,84.711128 
z"/>
<path fill="#C29B4D" opacity="1.000000" stroke="none" 
	d="
M27.046249,89.120613 
	C25.139200,93.904060 21.635880,94.496239 15.938039,90.415321 
	C15.865273,89.567581 15.892396,89.289398 16.348976,89.008911 
	C18.492882,88.348862 20.220436,87.692398 22.135082,86.769157 
	C23.887739,85.362457 25.453304,84.222527 27.335495,83.034157 
	C28.426556,82.642021 29.200989,82.298325 29.973972,82.322372 
	C28.997101,84.833618 28.021675,86.977112 27.046249,89.120613 
z"/>
<path fill="#C38B26" opacity="1.000000" stroke="none" 
	d="
M78.454636,57.157372 
	C78.107445,57.078289 78.075264,56.842892 77.995682,56.022251 
	C77.948280,55.437012 77.933800,54.972729 77.914368,54.613213 
	C77.302109,52.197315 76.709274,50.140934 76.354874,47.850906 
	C76.722343,46.745140 76.851387,45.873020 77.291061,45.019447 
	C78.499908,44.629051 79.398132,44.220116 80.655670,43.922142 
	C81.681633,46.510353 82.348289,48.987595 83.014954,51.464836 
	C81.599846,53.310242 80.184746,55.155647 78.454636,57.157372 
z"/>
<path fill="#E0A72D" opacity="1.000000" stroke="none" 
	d="
M64.055458,10.384444 
	C67.823898,9.198613 71.662697,8.362861 75.763435,7.235126 
	C79.346191,8.068749 82.667000,9.194355 86.238770,10.602858 
	C79.035095,10.835344 71.580452,10.784933 64.055458,10.384444 
z"/>
<path fill="#9E7A2E" opacity="1.000000" stroke="none" 
	d="
M15.932626,89.012489 
	C15.892396,89.289398 15.865273,89.567581 15.914688,90.041306 
	C14.927320,90.496887 13.876517,90.758202 12.559645,90.658325 
	C11.751220,87.454292 11.208864,84.611443 10.637035,81.614105 
	C8.916215,83.204727 7.393444,84.612297 5.870673,86.019859 
	C7.008662,83.770233 8.146651,81.520615 9.943893,79.126457 
	C11.358096,78.946533 12.113045,78.911140 12.925375,78.927277 
	C12.982755,78.978806 13.102646,79.075851 13.091583,79.480026 
	C13.726768,81.542397 14.373016,83.200592 15.019264,84.858795 
	C15.459857,84.902184 15.900450,84.945564 16.655464,85.329498 
	C16.934284,86.110191 16.898684,86.550323 16.628677,87.165405 
	C16.240389,87.897728 16.086508,88.455109 15.932626,89.012489 
z"/>
<path fill="#614D25" opacity="1.000000" stroke="none" 
	d="
M24.048922,41.494034 
	C20.603197,45.307137 17.154510,49.118095 13.373499,52.980587 
	C15.985339,48.234386 18.929504,43.436653 22.017084,38.325569 
	C22.697678,38.444965 23.234858,38.877712 23.711452,39.707779 
	C23.776846,40.561283 23.902828,41.017460 24.028809,41.473637 
	C24.028809,41.473637 24.045958,41.491886 24.048922,41.494034 
z"/>
<path fill="#B05D21" opacity="1.000000" stroke="none" 
	d="
M54.525806,84.360703 
	C53.478016,85.385086 52.809444,86.059036 52.006416,86.970657 
	C51.150478,87.189827 50.428993,87.171326 49.489819,86.758652 
	C49.124805,84.531784 52.957966,82.375450 48.825111,80.866829 
	C50.394367,79.635170 51.859474,78.716026 49.675293,76.387543 
	C48.737480,75.387772 49.333462,72.949272 49.589531,71.365082 
	C50.367687,72.288208 50.788898,73.010674 51.210106,73.733147 
	C52.756950,77.045532 56.320042,79.633026 54.525806,84.360703 
z"/>
<path fill="#85651E" opacity="1.000000" stroke="none" 
	d="
M44.205296,21.783524 
	C40.594097,24.033243 37.180065,26.014149 33.407223,28.006277 
	C36.340912,22.967390 39.703537,18.000027 46.648849,16.912216 
	C48.971889,20.155821 46.453705,20.699165 44.205296,21.783524 
z"/>
<path fill="#BC9937" opacity="1.000000" stroke="none" 
	d="
M26.929296,59.988838 
	C25.200970,61.466438 23.282953,62.776711 21.793570,64.465088 
	C20.033409,66.460419 18.643515,68.782387 16.754158,70.966095 
	C16.361940,69.894470 15.872810,68.558342 16.332678,67.790810 
	C18.097870,64.844650 20.167431,62.080856 22.755367,59.005505 
	C24.567959,59.170933 25.748627,59.579884 26.929296,59.988838 
z"/>
<path fill="#89591B" opacity="1.000000" stroke="none" 
	d="
M83.284569,51.132950 
	C82.348289,48.987595 81.681633,46.510353 80.606369,43.628036 
	C80.205009,42.825581 80.212257,42.428192 80.519905,41.981865 
	C81.239174,41.313915 81.658035,40.694912 82.076897,40.075909 
	C82.461891,38.194706 82.846886,36.313503 83.552406,34.262115 
	C84.211540,37.573784 84.775673,41.053810 84.804001,44.538193 
	C84.820946,46.622288 83.999039,48.713211 83.284569,51.132950 
z"/>
<path fill="#846021" opacity="1.000000" stroke="none" 
	d="
M27.528719,33.790550 
	C29.405602,33.282272 31.058798,32.486488 32.762039,32.358925 
	C34.391907,32.236858 36.073784,32.809315 37.570663,33.604248 
	C36.888519,34.721409 36.368519,35.310829 35.880863,35.930687 
	C35.913204,35.961121 35.986420,35.911091 35.663811,35.842934 
	C34.873135,36.178711 34.405067,36.582645 33.596981,37.001362 
	C32.069443,37.674007 30.881924,38.331875 29.694405,38.989738 
	C28.879118,37.505211 28.063831,36.020683 27.113773,34.268063 
	C26.979002,33.999969 27.326910,33.795151 27.528719,33.790550 
z"/>
<path fill="#B79849" opacity="1.000000" stroke="none" 
	d="
M27.409031,89.073982 
	C28.021675,86.977112 28.997101,84.833618 30.165688,82.046814 
	C32.264717,78.597145 34.170589,75.790779 36.076458,72.984413 
	C36.251163,72.963593 36.425873,72.942780 36.858818,72.978241 
	C34.791592,77.885033 32.520630,82.763306 30.080582,87.555473 
	C29.723753,88.256264 28.561432,88.546921 27.409031,89.073982 
z"/>
<path fill="#7B5517" opacity="1.000000" stroke="none" 
	d="
M24.297417,53.888889 
	C24.347767,52.475540 24.398117,51.062191 24.652243,49.059219 
	C24.876635,48.015499 24.897253,47.561405 25.272259,47.106628 
	C28.581778,48.934246 31.531780,50.765316 29.551247,55.063953 
	C27.553362,54.675549 25.925390,54.282219 24.297417,53.888889 
z"/>
<path fill="#BC9937" opacity="1.000000" stroke="none" 
	d="
M15.014088,84.436234 
	C14.373016,83.200592 13.726768,81.542397 13.280872,79.330116 
	C13.461899,78.399841 13.442574,78.023651 13.423248,77.647453 
	C13.238163,78.056885 13.053079,78.466316 12.867994,78.875748 
	C12.113045,78.911140 11.358096,78.946533 10.224987,78.966095 
	C11.705198,76.740982 13.563570,74.531708 15.712239,72.164291 
	C15.762774,73.911224 15.456601,75.810890 15.301126,77.722809 
	C15.131083,79.813850 15.100357,81.916229 15.014088,84.436234 
z"/>
<path fill="#55380F" opacity="1.000000" stroke="none" 
	d="
M5.836088,86.388031 
	C7.393444,84.612297 8.916215,83.204727 10.637035,81.614105 
	C11.208864,84.611443 11.751220,87.454292 12.156287,90.606125 
	C9.946501,89.528801 7.874002,88.142502 5.836088,86.388031 
z"/>
<path fill="#AF7339" opacity="1.000000" stroke="none" 
	d="
M48.608429,80.731155 
	C52.957966,82.375450 49.124805,84.531784 49.135162,86.688210 
	C47.438396,86.755539 45.878590,86.499130 44.318787,86.242722 
	C44.888409,84.932808 45.462955,83.625008 46.025871,82.312210 
	C46.382298,81.480972 46.721390,80.642311 47.093315,79.428383 
	C47.542831,79.565025 47.967289,80.080254 48.608429,80.731155 
z"/>
<path fill="#AD822E" opacity="1.000000" stroke="none" 
	d="
M24.073551,54.144218 
	C25.925390,54.282219 27.553362,54.675549 29.554276,55.293713 
	C29.927214,55.518551 29.874264,55.975883 29.634808,56.189377 
	C29.933117,58.257149 30.470879,60.111427 31.008640,61.965702 
	C29.763348,61.510326 28.518057,61.054951 27.101030,60.294205 
	C25.748627,59.579884 24.567959,59.170933 23.038651,58.838142 
	C23.076571,57.409386 23.463129,55.904465 24.073551,54.144218 
z"/>
<path fill="#B08A2A" opacity="1.000000" stroke="none" 
	d="
M51.587669,73.687187 
	C50.788898,73.010674 50.367687,72.288208 49.939232,71.298767 
	C51.559639,70.603462 53.187294,70.175133 55.437828,69.430832 
	C57.367149,69.067505 58.673595,69.020142 59.980038,68.972778 
	C59.980038,68.972778 59.998001,68.998161 59.789650,69.276146 
	C58.695190,70.449120 57.809078,71.344109 56.922970,72.239105 
	C55.270390,72.706482 53.617813,73.173859 51.587669,73.687187 
z"/>
<path fill="#AC9B83" opacity="1.000000" stroke="none" 
	d="
M89.024147,16.052231 
	C89.231743,15.778917 89.439331,15.505604 90.185432,15.456750 
	C93.673889,15.778626 96.623840,15.876043 99.573784,15.973461 
	C99.744385,16.395847 99.914993,16.818233 100.085594,17.240620 
	C98.318916,17.519857 96.552238,17.799097 94.175064,17.763058 
	C92.051086,16.982594 90.537621,16.517410 89.024147,16.052231 
z"/>
<path fill="#5E5552" opacity="1.000000" stroke="none" 
	d="
M99.362457,15.647623 
	C96.623840,15.876043 93.673889,15.778626 90.441582,15.395916 
	C90.159218,15.110622 90.124741,15.084612 90.433014,15.128694 
	C91.173813,15.098288 91.606323,15.023800 92.038841,14.949311 
	C94.409607,15.073469 96.780365,15.197626 99.362457,15.647623 
z"/>
<path fill="#CFA945" opacity="1.000000" stroke="none" 
	d="
M84.356873,30.927757 
	C83.976646,30.306606 83.949493,29.560982 84.191467,28.231419 
	C84.660179,26.774418 84.859779,25.901358 85.059380,25.028297 
	C85.608582,24.456482 86.157784,23.884665 87.009010,23.261440 
	C86.444008,25.741116 85.576981,28.272200 84.356873,30.927757 
z"/>
<path fill="#8B6518" opacity="1.000000" stroke="none" 
	d="
M57.217094,72.348770 
	C57.809078,71.344109 58.695190,70.449120 59.798088,69.289200 
	C60.015903,70.082787 60.016937,71.141289 59.983860,72.499298 
	C59.136909,72.685349 58.324066,72.571884 57.217094,72.348770 
z"/>
<path fill="#998160" opacity="1.000000" stroke="none" 
	d="
M88.782700,16.149338 
	C90.537621,16.517410 92.051086,16.982594 93.782303,17.725941 
	C92.919083,18.351738 91.838120,18.699373 90.242691,18.901793 
	C89.124863,18.555872 88.521484,18.355169 87.918106,18.154465 
	C88.125824,17.518459 88.333542,16.882454 88.782700,16.149338 
z"/>
<path fill="#AD822E" opacity="1.000000" stroke="none" 
	d="
M24.917870,47.107311 
	C24.897253,47.561405 24.876635,48.015499 24.704613,48.638268 
	C24.007978,48.760296 23.462746,48.713650 22.518711,48.759117 
	C22.573391,48.304924 23.026873,47.758629 23.972292,47.137646 
	C24.464230,47.062962 24.901606,47.075447 24.910954,47.078423 
	C24.920300,47.081394 24.917870,47.107311 24.917870,47.107311 
z"/>
<path fill="#CFA945" opacity="1.000000" stroke="none" 
	d="
M87.931107,18.469917 
	C88.521484,18.355169 89.124863,18.555872 89.922012,19.022362 
	C89.624565,19.939484 89.133331,20.590820 88.379135,21.409428 
	C88.074852,21.321293 88.033539,21.065887 87.922699,20.428820 
	C87.883484,19.626562 87.913803,19.205967 87.931107,18.469917 
z"/>
<path fill="#AC9B83" opacity="1.000000" stroke="none" 
	d="
M91.909866,14.757211 
	C91.606323,15.023800 91.173813,15.098288 90.413361,15.136370 
	C90.085419,15.099963 90.014549,14.750986 90.042191,14.576829 
	C90.640175,14.456819 91.210533,14.510964 91.909866,14.757211 
z"/>
<path fill="#CFA945" opacity="1.000000" stroke="none" 
	d="
M87.489517,23.122713 
	C87.334915,22.846506 87.490891,22.502079 87.898178,22.004406 
	C88.033028,22.252272 87.916557,22.653383 87.489517,23.122713 
z"/>
<path fill="#FBCD33" opacity="1.000000" stroke="none" 
	d="
M35.848522,35.900249 
	C36.368519,35.310829 36.888519,34.721409 37.660767,33.957893 
	C40.163731,31.719398 42.414444,29.654993 44.869736,27.311283 
	C47.486984,26.107084 49.899651,25.182188 52.954082,24.085363 
	C54.080044,23.297491 54.564240,22.681549 55.048439,22.065607 
	C55.048439,22.065607 55.016987,22.002724 55.407845,22.018250 
	C56.532940,22.024578 57.267178,22.015383 58.040764,22.311172 
	C58.693432,22.872486 59.306744,23.128817 59.920052,23.385147 
	C59.946617,22.589153 59.973183,21.793158 60.035240,20.656879 
	C61.051655,19.541994 62.032574,18.767391 63.013493,17.992788 
	C63.332836,18.095804 63.591999,18.282394 63.779530,19.034344 
	C63.512020,20.677444 63.255966,21.838760 62.999916,23.000076 
	C62.213852,25.435539 61.351768,27.852108 60.735973,30.329887 
	C60.657181,30.646925 61.860973,31.282715 62.582794,32.197590 
	C60.491066,33.935520 58.287144,35.246700 56.083221,36.557880 
	C56.235508,36.790218 56.387791,37.022556 56.540073,37.254898 
	C59.698719,36.825489 62.857368,36.396076 66.040665,36.315720 
	C66.375679,37.775597 66.686043,38.886421 66.859077,40.051735 
	C66.815430,40.072006 66.909111,40.037792 67.335815,39.970055 
	C68.653595,39.536423 69.638336,39.136318 70.630074,38.733364 
	C71.117104,40.957390 71.560654,42.982845 71.966133,45.357277 
	C69.955475,47.142456 67.982887,48.578659 65.739540,49.773613 
	C65.128830,48.157528 64.788887,46.782684 64.451141,45.416737 
	C56.833797,47.119831 49.585701,49.669865 42.009766,46.670059 
	C42.583035,45.098660 43.125248,43.870342 43.667461,42.642025 
	C43.347012,42.342289 43.026562,42.042553 42.706112,41.742817 
	C40.789341,43.481026 38.872570,45.219238 36.600758,46.963127 
	C35.539215,46.912376 34.832714,46.855942 34.049789,46.439735 
	C30.831802,40.200809 36.461060,39.098072 40.015984,36.267757 
	C38.114437,36.100071 36.981480,36.000160 35.848522,35.900249 
M45.577545,41.515606 
	C45.577545,41.515606 45.470749,41.576420 45.577545,41.515606 
z"/>
<path fill="#EEA62A" opacity="1.000000" stroke="none" 
	d="
M66.016014,35.966667 
	C62.857368,36.396076 59.698719,36.825489 56.540073,37.254898 
	C56.387791,37.022556 56.235508,36.790218 56.083221,36.557880 
	C58.287144,35.246700 60.491066,33.935520 62.863388,32.314552 
	C64.253906,31.539577 65.476028,31.074385 66.862289,30.308119 
	C67.855972,30.869778 68.685516,31.732510 68.977234,32.811775 
	C67.955200,33.353111 67.470993,33.677914 66.986794,34.002716 
	C66.986794,34.002716 67.000786,34.000946 66.823929,34.093208 
	C66.764336,34.503281 66.881592,34.821091 66.998856,35.138901 
	C66.998856,35.138901 66.990036,35.527344 66.746208,35.741005 
	C66.502380,35.954670 66.016014,35.966667 66.016014,35.966667 
z"/>
<path fill="#E0A72D" opacity="1.000000" stroke="none" 
	d="
M58.001411,22.006187 
	C57.267178,22.015383 56.532940,22.024578 55.433250,22.042881 
	C55.055794,21.888796 55.068466,21.719236 55.028259,21.563318 
	C53.191231,14.440656 53.190689,14.440795 60.709312,10.166231 
	C60.109085,11.677568 58.975880,13.216915 58.307091,14.936848 
	C57.730000,16.420973 57.681385,18.110598 57.699089,19.854820 
	C57.999050,20.000267 57.991146,20.006731 57.991508,20.339909 
	C57.995052,21.117453 57.998230,21.561821 58.001411,22.006187 
z"/>
<path fill="#FDCC33" opacity="1.000000" stroke="none" 
	d="
M63.373894,22.991119 
	C63.255966,21.838760 63.512020,20.677444 63.888992,19.250952 
	C64.644997,19.698217 65.280083,20.410660 65.915169,21.123098 
	C65.192741,21.742786 64.470306,22.362476 63.373894,22.991119 
z"/>
<path fill="#FDCC33" opacity="1.000000" stroke="none" 
	d="
M62.962708,17.670946 
	C62.032574,18.767391 61.051655,19.541994 59.775665,20.550220 
	C58.984112,20.524807 58.487629,20.265768 57.991146,20.006731 
	C57.991146,20.006731 57.999050,20.000267 57.994781,20.004662 
	C58.791176,17.568609 59.671177,15.274947 62.962708,17.670946 
z"/>
<path fill="#F1C437" opacity="1.000000" stroke="none" 
	d="
M16.863083,86.990463 
	C16.898684,86.550323 16.934284,86.110191 16.987350,85.339493 
	C18.571268,83.555458 20.137722,82.101974 22.203045,80.300858 
	C25.102661,78.566017 27.503410,77.178810 29.907166,76.164154 
	C28.946405,78.718666 27.982635,80.900627 27.018867,83.082588 
	C25.453304,84.222527 23.887739,85.362457 21.807177,86.764572 
	C19.815813,87.014664 18.339449,87.002563 16.863083,86.990463 
z"/>
<path fill="#B67322" opacity="1.000000" stroke="none" 
	d="
M41.918564,60.130749 
	C41.188862,60.131378 40.459160,60.132008 39.127350,60.192200 
	C38.222343,60.395725 37.999043,60.619244 37.855335,60.922325 
	C37.128082,61.815311 36.400829,62.708294 35.462936,63.903633 
	C34.973698,64.145294 34.693554,64.092834 34.167580,63.661125 
	C34.383987,62.175835 34.891758,61.094818 35.290867,59.975075 
	C35.625465,59.036335 35.833256,58.052395 36.442055,57.010628 
	C37.492111,55.330029 38.197311,53.727276 39.249771,52.062538 
	C40.065510,52.000286 40.533989,52.000019 41.048397,52.335049 
	C42.060562,54.113430 43.026798,55.556515 43.732529,57.176323 
	C42.954205,58.278946 42.436386,59.204845 41.918564,60.130749 
z"/>
<path fill="#764A16" opacity="1.000000" stroke="none" 
	d="
M36.097195,57.088470 
	C35.833256,58.052395 35.625465,59.036335 35.290867,59.975075 
	C34.891758,61.094818 34.383987,62.175835 33.952576,63.625725 
	C33.553978,64.003761 33.126091,64.029694 32.155102,64.017662 
	C31.611994,63.979691 31.152775,63.960636 31.152775,63.960636 
	C31.140873,63.515724 31.128971,63.070816 31.062855,62.295803 
	C30.470879,60.111427 29.933117,58.257149 30.030901,56.237183 
	C32.476696,56.410484 34.286945,56.749477 36.097195,57.088470 
z"/>
<path fill="#C58F23" opacity="1.000000" stroke="none" 
	d="
M29.904158,75.791603 
	C27.503410,77.178810 25.102661,78.566017 22.356802,80.014877 
	C24.776810,77.408554 27.541925,74.740593 30.786278,72.281326 
	C31.559860,72.696350 31.854212,72.902672 31.987246,73.355515 
	C31.185337,74.331886 30.544748,75.061745 29.904158,75.791603 
z"/>
<path fill="#B67322" opacity="1.000000" stroke="none" 
	d="
M30.902599,64.103027 
	C31.152775,63.960636 31.611994,63.979691 31.834316,64.040985 
	C31.587297,64.569641 31.117954,65.037018 30.648613,65.504387 
	C30.649881,65.084732 30.651152,64.665077 30.902599,64.103027 
z"/>
<path fill="#BC9937" opacity="1.000000" stroke="none" 
	d="
M25.044502,64.401070 
	C25.283707,64.793411 25.281881,65.183739 25.251814,65.571877 
	C25.250967,65.582794 24.948486,65.570343 24.786655,65.568787 
	C24.790941,65.178772 24.795229,64.788765 25.044502,64.401070 
z"/>
<path fill="#B67322" opacity="1.000000" stroke="none" 
	d="
M32.148563,73.108994 
	C31.854212,72.902672 31.559860,72.696350 31.139668,72.248947 
	C31.450230,71.987717 31.886637,71.967560 32.687355,72.001190 
	C33.051666,72.054993 33.125740,72.134644 33.003239,72.335831 
	C32.698578,72.806908 32.454517,72.997566 32.148563,73.108994 
z"/>
<path fill="#B67322" opacity="1.000000" stroke="none" 
	d="
M33.014881,72.014938 
	C32.990997,71.612183 33.149837,71.332420 33.691620,71.062943 
	C33.928623,70.990295 34.021332,71.347534 33.874969,71.644577 
	C33.534527,72.027435 33.333572,72.091774 33.125740,72.134644 
	C33.125740,72.134644 33.051666,72.054993 33.014881,72.014938 
z"/>
<path fill="#E0A72D" opacity="1.000000" stroke="none" 
	d="
M54.725033,22.080536 
	C54.564240,22.681549 54.080044,23.297491 53.271660,23.926895 
	C53.432194,23.325390 53.916908,22.710426 54.725033,22.080536 
z"/>
<path fill="#5E300E" opacity="1.000000" stroke="none" 
	d="
M36.442055,57.010628 
	C34.286945,56.749477 32.476696,56.410484 30.270355,56.023689 
	C29.874264,55.975883 29.927214,55.518551 29.924187,55.288792 
	C31.531780,50.765316 28.581778,48.934246 25.272259,47.106628 
	C24.917870,47.107311 24.920300,47.081394 24.946274,46.823532 
	C24.981827,46.394848 24.991402,46.224022 25.000978,46.053192 
	C25.254089,45.231205 25.507202,44.409214 25.883770,43.282974 
	C26.764622,42.421333 27.522015,41.863949 28.621475,41.361973 
	C29.063139,41.656078 29.207239,41.863899 29.577890,42.336884 
	C30.803600,44.108818 31.847263,45.584717 33.036232,47.334610 
	C33.729633,48.458389 34.277725,49.308182 35.014053,50.441734 
	C36.437656,51.186489 37.673027,51.647480 38.923588,52.109123 
	C38.938782,52.109779 38.902512,52.124523 38.902512,52.124523 
	C38.197311,53.727276 37.492111,55.330029 36.442055,57.010628 
z"/>
<path fill="#E5AE2B" opacity="1.000000" stroke="none" 
	d="
M32.890926,47.060619 
	C31.847263,45.584717 30.803600,44.108818 29.672775,42.063541 
	C29.535229,41.308262 29.484848,41.122356 29.434469,40.936455 
	C29.556158,40.509014 29.677845,40.081577 29.746967,39.321938 
	C30.881924,38.331875 32.069443,37.674007 33.906307,36.975456 
	C35.032578,36.593544 35.509499,36.252319 35.986420,35.911095 
	C35.986420,35.911091 35.913204,35.961121 35.880863,35.930687 
	C36.981480,36.000160 38.114437,36.100071 40.015984,36.267757 
	C36.461060,39.098072 30.831802,40.200809 33.743546,46.521011 
	C33.306129,46.994915 33.098526,47.027767 32.890926,47.060619 
z"/>
<path fill="#846021" opacity="1.000000" stroke="none" 
	d="
M29.274969,40.969231 
	C29.484848,41.122356 29.535229,41.308262 29.490726,41.767509 
	C29.207239,41.863899 29.063139,41.656078 28.880177,41.243286 
	C28.796808,41.069195 29.115469,41.002010 29.274969,40.969231 
z"/>
<path fill="#2C170A" opacity="1.000000" stroke="none" 
	d="
M24.060432,41.043739 
	C23.902828,41.017460 23.776846,40.561283 23.850525,39.928928 
	C24.064142,40.039783 24.078100,40.326817 24.060432,41.043739 
z"/>
<path fill="#F9C030" opacity="1.000000" stroke="none" 
	d="
M84.676102,25.027260 
	C84.859779,25.901358 84.660179,26.774418 84.189796,27.858715 
	C80.288322,28.982050 76.679176,30.018641 73.000816,30.655365 
	C72.518028,30.738935 71.680763,28.774647 71.001328,27.380308 
	C75.954918,29.892790 80.172226,27.785023 84.676102,25.027260 
z"/>
<path fill="#FAC431" opacity="1.000000" stroke="none" 
	d="
M66.040665,36.315720 
	C66.016014,35.966667 66.502380,35.954670 66.744804,35.935272 
	C68.579948,35.915878 70.172668,35.915878 71.765388,35.915878 
	C71.975616,35.405941 72.185852,34.896004 72.396080,34.386066 
	C72.791649,35.767456 73.187218,37.148842 73.582787,38.530231 
	C73.901024,38.513023 74.219261,38.495819 74.537498,38.478611 
	C74.658112,36.897663 74.778725,35.316715 74.977409,32.712372 
	C76.601257,33.802132 77.745331,34.569920 78.675957,35.899239 
	C78.000717,38.296558 77.538933,40.132351 76.786469,42.105156 
	C76.657341,43.161747 76.818886,44.081322 76.980438,45.000900 
	C76.851387,45.873020 76.722343,46.745140 76.005569,47.779083 
	C74.279961,46.963375 73.142075,45.985840 72.004196,45.008301 
	C71.560654,42.982845 71.117104,40.957390 70.630074,38.733364 
	C69.638336,39.136318 68.653595,39.536423 67.334427,39.968266 
	C67.000000,40.000000 66.996407,39.997246 66.996399,39.997246 
	C66.686043,38.886421 66.375679,37.775597 66.040665,36.315720 
z"/>
<path fill="#C38B26" opacity="1.000000" stroke="none" 
	d="
M77.077148,41.968140 
	C77.538933,40.132351 78.000717,38.296558 78.727661,36.233963 
	C79.830727,37.331749 80.668633,38.656349 81.791718,40.028427 
	C81.658035,40.694912 81.239174,41.313915 80.124092,41.961685 
	C78.644302,41.983013 77.860725,41.975574 77.077148,41.968140 
z"/>
<path fill="#FBCD33" opacity="1.000000" stroke="none" 
	d="
M67.293350,33.989307 
	C67.470993,33.677914 67.955200,33.353111 68.747345,33.007935 
	C68.570168,33.317001 68.085037,33.646450 67.293350,33.989307 
z"/>
<path fill="#FBCD33" opacity="1.000000" stroke="none" 
	d="
M67.007538,34.850952 
	C66.881592,34.821091 66.764336,34.503281 66.824768,34.086235 
	C67.007042,34.179001 67.011627,34.371002 67.007538,34.850952 
z"/>
<path fill="#C18E22" opacity="1.000000" stroke="none" 
	d="
M41.950157,60.328377 
	C42.436386,59.204845 42.954205,58.278946 44.110359,57.175331 
	C45.504421,56.992081 46.260143,56.986542 47.008011,56.990349 
	C47.000153,56.999695 47.018967,56.984615 47.011658,57.372040 
	C46.778065,59.058716 45.980511,60.641483 46.453163,61.593872 
	C47.255695,63.210949 48.858791,64.430717 50.125427,65.817467 
	C50.756290,64.887093 51.387157,63.956726 52.251694,62.756386 
	C55.165497,61.311016 56.067493,62.545288 55.841087,65.330482 
	C55.046837,66.274826 54.417931,66.973358 53.789024,67.671883 
	C48.984760,69.034744 45.460491,67.150002 42.412693,63.141212 
	C42.116489,62.977592 42.088848,62.562138 42.275818,62.229572 
	C42.322151,61.571964 42.181515,61.246922 42.040878,60.921879 
	C42.040878,60.921879 41.981750,60.526001 41.950157,60.328377 
z"/>
<path fill="#8B6518" opacity="1.000000" stroke="none" 
	d="
M54.080070,67.883911 
	C54.417931,66.973358 55.046837,66.274826 56.237183,65.297928 
	C57.841095,64.857460 58.883564,64.695366 60.322319,64.651505 
	C61.820755,64.821732 62.922913,64.873734 64.025070,64.925735 
	C62.768692,66.078079 61.512314,67.230431 60.117989,68.677780 
	C58.673595,69.020142 57.367149,69.067505 55.681190,69.153389 
	C54.991486,68.826584 54.681301,68.461258 54.080070,67.883911 
z"/>
<path fill="#7B5517" opacity="1.000000" stroke="none" 
	d="
M24.785923,46.151569 
	C24.991402,46.224022 24.981827,46.394848 24.936928,46.820557 
	C24.901606,47.075447 24.464230,47.062962 24.247478,47.035194 
	C24.118477,46.689106 24.298525,46.436611 24.785923,46.151569 
z"/>
<path fill="#D3A428" opacity="1.000000" stroke="none" 
	d="
M64.230972,64.697617 
	C62.922913,64.873734 61.820755,64.821732 60.338821,64.311325 
	C59.976208,62.904945 59.993370,61.956974 60.204330,60.767300 
	C62.263859,60.348618 64.129593,60.171638 66.300308,60.125450 
	C68.759392,60.518047 70.913490,60.779854 73.067589,61.041664 
	C72.776825,61.773460 72.646935,62.639404 72.167732,63.214054 
	C69.986435,65.829803 67.763893,68.722580 64.230972,64.697617 
z"/>
<path fill="#E0AA2A" opacity="1.000000" stroke="none" 
	d="
M73.320770,60.834923 
	C70.913490,60.779854 68.759392,60.518047 66.337288,59.776573 
	C69.033478,55.137428 73.463333,54.999363 77.933800,54.972729 
	C77.933800,54.972729 77.948280,55.437012 77.955429,55.668148 
	C76.499695,57.475582 75.036819,59.051880 73.320770,60.834923 
z"/>
<path fill="#F0C959" opacity="1.000000" stroke="none" 
	d="
M33.003239,72.335831 
	C33.333572,72.091774 33.534527,72.027435 33.830482,71.823677 
	C34.616131,71.924599 35.299896,72.143463 36.030060,72.673370 
	C34.170589,75.790779 32.264717,78.597145 30.167135,81.679070 
	C29.200989,82.298325 28.426556,82.642021 27.335495,83.034157 
	C27.982635,80.900627 28.946405,78.718666 29.907166,76.164154 
	C30.544748,75.061745 31.185337,74.331886 31.987246,73.355515 
	C32.454517,72.997566 32.698578,72.806908 33.003239,72.335831 
z"/>
<path fill="#6B3B13" opacity="1.000000" stroke="none" 
	d="
M38.083931,60.872971 
	C37.999043,60.619244 38.222343,60.395725 38.764275,60.234203 
	C38.835964,60.490547 38.605701,60.692871 38.083931,60.872971 
z"/>
<path fill="#6B3B13" opacity="1.000000" stroke="none" 
	d="
M42.037113,61.228333 
	C42.181515,61.246922 42.322151,61.571964 42.272354,62.021416 
	C42.065723,61.942142 42.049534,61.738468 42.037113,61.228333 
z"/>
<path fill="#D3A12A" opacity="1.000000" stroke="none" 
	d="
M16.628677,87.165405 
	C18.339449,87.002563 19.815813,87.014664 21.620085,87.031342 
	C20.220436,87.692398 18.492882,88.348862 16.348976,89.008911 
	C16.086508,88.455109 16.240389,87.897728 16.628677,87.165405 
z"/>
<path fill="#ECB52D" opacity="1.000000" stroke="none" 
	d="
M77.914368,54.613213 
	C73.463333,54.999363 69.033478,55.137428 66.032303,59.645782 
	C64.129593,60.171638 62.263859,60.348618 59.831322,60.756531 
	C58.707134,60.007710 57.653950,59.003407 57.700977,58.053577 
	C57.785263,56.351231 58.531418,54.681652 59.351479,52.843910 
	C61.804771,51.797924 63.907536,50.906395 66.010300,50.014862 
	C67.982887,48.578659 69.955475,47.142456 71.966133,45.357277 
	C73.142075,45.985840 74.279961,46.963375 75.767143,48.012733 
	C76.709274,50.140934 77.302109,52.197315 77.914368,54.613213 
z"/>
<path fill="#ECB52D" opacity="1.000000" stroke="none" 
	d="
M76.786469,42.105156 
	C77.860725,41.975574 78.644302,41.983013 79.823692,42.010628 
	C80.212257,42.428192 80.205009,42.825581 80.247055,43.517071 
	C79.398132,44.220116 78.499908,44.629051 77.291061,45.019447 
	C76.818886,44.081322 76.657341,43.161747 76.786469,42.105156 
z"/>
<path fill="#FBCD33" opacity="1.000000" stroke="none" 
	d="
M35.663811,35.842934 
	C35.509499,36.252319 35.032578,36.593544 34.246326,36.960674 
	C34.405067,36.582645 34.873135,36.178711 35.663811,35.842934 
z"/>
<path fill="#9E7A2E" opacity="1.000000" stroke="none" 
	d="
M12.925374,78.927277 
	C13.053079,78.466316 13.238163,78.056885 13.423248,77.647453 
	C13.442574,78.023651 13.461899,78.399841 13.291935,78.925949 
	C13.102646,79.075851 12.982755,78.978806 12.925374,78.927277 
z"/>
<path fill="#E5AE2B" opacity="1.000000" stroke="none" 
	d="
M59.000946,52.998375 
	C58.531418,54.681652 57.785263,56.351231 57.700977,58.053577 
	C57.653950,59.003407 58.707134,60.007710 59.637527,60.998234 
	C59.993370,61.956974 59.976208,62.904945 59.942543,64.193092 
	C58.883564,64.695366 57.841095,64.857460 56.402527,65.052116 
	C56.067493,62.545288 55.165497,61.311016 51.898361,62.690369 
	C49.880562,60.924419 48.449764,58.954517 47.018967,56.984615 
	C47.018967,56.984615 47.000153,56.999695 46.965210,56.626595 
	C46.168785,53.143177 44.366562,51.483189 41.002468,51.999748 
	C40.533989,52.000019 40.065510,52.000286 39.249771,52.062538 
	C38.902512,52.124523 38.938782,52.109779 38.872871,51.783588 
	C38.576797,50.633442 38.346642,49.809483 38.332260,48.798141 
	C38.017292,48.059654 37.486546,47.508549 36.955799,46.957447 
	C38.872570,45.219238 40.789341,43.481026 42.706112,41.742817 
	C43.026562,42.042553 43.347012,42.342289 43.667461,42.642025 
	C43.125248,43.870342 42.583035,45.098660 42.044884,47.003490 
	C45.007133,49.772366 47.724461,52.511021 51.006580,53.734200 
	C53.266129,54.576290 56.308468,53.317947 59.000946,52.998375 
z"/>
<path fill="#F6C431" opacity="1.000000" stroke="none" 
	d="
M59.351475,52.843910 
	C56.308468,53.317947 53.266129,54.576290 51.006580,53.734200 
	C47.724461,52.511021 45.007133,49.772366 42.013824,47.346573 
	C49.585701,49.669865 56.833797,47.119831 64.451141,45.416737 
	C64.788887,46.782684 65.128830,48.157528 65.739540,49.773617 
	C63.907536,50.906395 61.804771,51.797924 59.351475,52.843910 
z"/>
<path fill="#D29B26" opacity="1.000000" stroke="none" 
	d="
M36.600758,46.963127 
	C37.486546,47.508549 38.017292,48.059654 38.003170,48.925518 
	C36.580811,49.546177 35.703312,49.852077 34.825817,50.157974 
	C34.277725,49.308182 33.729633,48.458389 33.036232,47.334610 
	C33.098526,47.027767 33.306129,46.994915 33.819969,46.880787 
	C34.832714,46.855942 35.539215,46.912376 36.600758,46.963127 
z"/>
<path fill="#F6BE31" opacity="1.000000" stroke="none" 
	d="
M57.991508,20.339909 
	C58.487629,20.265768 58.984112,20.524807 59.740170,20.890503 
	C59.973183,21.793158 59.946617,22.589153 59.920052,23.385147 
	C59.306744,23.128817 58.693432,22.872486 58.040764,22.311172 
	C57.998230,21.561821 57.995052,21.117453 57.991508,20.339909 
z"/>
<path fill="#E5AE2B" opacity="1.000000" stroke="none" 
	d="
M45.524147,41.546013 
	C45.470749,41.576420 45.577545,41.515606 45.524147,41.546013 
z"/>
<path fill="#FAC431" opacity="1.000000" stroke="none" 
	d="
M67.001389,40.001789 
	C66.909111,40.037792 66.815430,40.072006 66.859085,40.051735 
	C66.996407,39.997246 67.000000,40.000000 67.001389,40.001789 
z"/>
<path fill="#D29B26" opacity="1.000000" stroke="none" 
	d="
M41.048397,52.335045 
	C44.366562,51.483189 46.168785,53.143177 46.973064,56.617249 
	C46.260143,56.986542 45.504421,56.992081 44.370865,56.998611 
	C43.026798,55.556515 42.060562,54.113430 41.048397,52.335045 
z"/>
<path fill="#B67322" opacity="1.000000" stroke="none" 
	d="
M35.014053,50.441734 
	C35.703312,49.852077 36.580811,49.546177 37.787395,49.112900 
	C38.346642,49.809483 38.576797,50.633442 38.857674,51.782936 
	C37.673027,51.647480 36.437656,51.186489 35.014053,50.441734 
z"/>
<path fill="#D29B26" opacity="1.000000" stroke="none" 
	d="
M47.011658,57.372040 
	C48.449764,58.954517 49.880562,60.924419 51.664692,62.960339 
	C51.387157,63.956726 50.756290,64.887093 50.125427,65.817467 
	C48.858791,64.430717 47.255695,63.210949 46.453163,61.593872 
	C45.980511,60.641483 46.778065,59.058716 47.011658,57.372040 
z"/>
</svg>