<svg version="1.1" id="Layer_1" xmlns="http://www.w3.org/2000/svg" xmlns:xlink="http://www.w3.org/1999/xlink" x="0px" y="0px"
	 width="100%" viewBox="0 0 147 107" enable-background="new 0 0 147 107" xml:space="preserve">
<path fill="#FFFDFE" opacity="0.000000" stroke="none" 
	d="
M1.270339,81.215012 
	C1.000000,55.413219 1.055129,29.826145 0.920562,4.240071 
	C0.906009,1.473053 1.473116,0.896922 4.240771,0.919384 
	C23.180378,1.073092 42.121826,1.000000 61.531342,1.000000 
	C63.523548,2.472899 64.132500,4.347979 64.231857,6.388306 
	C64.466049,11.197742 64.565994,16.016155 64.177818,20.817417 
	C63.925430,23.939014 62.865356,26.745331 59.524883,27.815371 
	C57.357380,28.509678 56.731308,29.775581 57.136623,31.948950 
	C57.563210,34.236401 57.407413,36.584393 57.357128,38.906445 
	C57.222675,45.114929 56.503880,46.273811 50.685123,48.340214 
	C46.815674,49.714355 45.392632,52.996174 44.753273,56.331596 
	C43.890568,60.832169 41.621376,63.885021 37.537262,66.324097 
	C36.987438,67.025322 36.644020,67.394394 35.977020,67.952560 
	C35.479794,68.284363 35.270481,68.393806 34.726967,68.594681 
	C33.384136,68.925537 32.198048,68.357140 31.148703,69.603836 
	C30.798954,70.023087 30.656151,70.191788 30.283627,70.606720 
	C29.720436,71.169182 29.364147,71.457520 28.690048,71.912178 
	C22.451643,73.967644 17.004723,77.101822 10.661901,78.861130 
	C6.383870,76.293015 4.403623,80.377098 1.270339,81.215012 
z"/>
<path fill="#FBF8F9" opacity="0.000000" stroke="none" 
	d="
M1.000000,81.468658 
	C1.852569,80.888573 2.623951,80.671051 2.910740,79.708000 
	C4.201321,75.374146 6.775842,75.939842 10.057697,78.087387 
	C10.328611,78.716942 10.110052,79.118324 9.822412,79.494110 
	C9.459099,79.968773 8.490518,80.474098 8.806455,80.864037 
	C9.331015,81.511490 10.163870,80.772430 11.176136,80.520798 
	C12.319741,80.127274 13.180427,79.924400 14.326850,79.503891 
	C14.857655,79.310600 15.072273,79.236847 15.615421,79.068184 
	C17.746153,78.604874 19.522522,78.124329 21.655666,77.624916 
	C28.455835,73.769714 36.060059,73.215385 43.108131,70.003212 
	C44.431713,69.705559 45.418633,69.617004 46.728523,69.239326 
	C48.068001,68.905136 49.067078,68.822075 50.444244,68.727936 
	C51.071854,68.700531 51.322792,68.695038 51.949715,68.692482 
	C53.321365,68.728363 54.304111,68.841125 55.572178,69.328201 
	C58.724266,74.041359 62.069229,70.677025 65.563652,69.973618 
	C68.822502,68.652161 71.564926,69.117538 74.469322,70.965607 
	C75.654930,71.802048 76.428909,72.639580 77.878937,73.007599 
	C78.393600,73.212967 78.593742,73.309692 79.057190,73.611282 
	C80.422104,75.674530 81.347618,77.677002 83.655640,78.944153 
	C84.488350,79.450096 85.038612,79.795723 85.906265,80.249489 
	C86.789925,80.711792 87.351700,81.071007 88.169510,81.663261 
	C89.132172,82.495720 89.767540,83.170441 90.490372,84.237137 
	C91.361572,86.522476 90.725189,88.343918 89.885368,90.476074 
	C88.839241,92.095001 88.190727,93.502274 87.838570,95.397354 
	C87.320984,96.766220 86.593735,97.630409 85.857117,98.875977 
	C85.062698,100.065201 84.379936,100.929138 83.694138,102.184677 
	C82.379234,103.974014 82.860634,105.835457 82.215866,107.748260 
	C56.105770,108.000000 30.211351,107.956612 4.317591,108.066986 
	C1.722521,108.078056 0.797617,107.793999 0.906150,104.840302 
	C1.186336,97.215118 1.000000,89.572800 1.000000,81.468658 
z"/>
<path fill="#FBF8FA" opacity="0.000000" stroke="none" 
	d="
M36.251362,67.261360 
	C36.049744,66.661858 35.989059,66.144218 36.172886,66.033852 
	C40.957100,63.161591 42.973328,58.772514 44.258877,53.453053 
	C45.159637,49.725792 47.377079,46.196575 52.533401,46.549664 
	C54.201263,46.663872 55.601643,44.881374 55.712578,43.148777 
	C55.996471,38.714886 57.007774,34.099880 55.132538,29.895105 
	C53.978958,27.308475 54.807293,26.914555 56.942081,27.022095 
	C61.089977,27.231047 62.802143,24.622639 62.860893,21.189816 
	C62.971249,14.741443 63.787144,8.224466 62.010166,1.423043 
	C76.687561,1.000000 91.375122,1.000000 106.531342,1.000000 
	C107.703629,1.662938 107.929810,2.499681 107.840149,3.744633 
	C107.613693,4.780782 107.137344,5.451045 107.521225,6.498789 
	C107.895744,7.055448 108.115379,7.378305 108.473892,7.980498 
	C108.695236,8.450346 108.768494,8.647161 108.915215,9.153198 
	C109.160484,10.515322 109.102829,11.584148 109.255135,12.953888 
	C109.371384,13.677336 109.447884,14.087349 109.594925,14.800203 
	C109.706970,15.511630 109.711868,15.919228 109.596489,16.615757 
	C109.193550,17.640087 109.175072,18.369381 109.682114,19.383011 
	C110.016075,20.540110 110.013519,21.402241 109.626892,22.568863 
	C109.344345,23.045063 109.200134,23.214245 108.783920,23.569901 
	C106.489395,24.228561 106.130417,25.894051 105.654068,27.877768 
	C99.865021,34.612915 92.196396,38.309090 85.039894,43.269569 
	C83.624611,44.438965 82.061775,44.812382 80.906784,46.300152 
	C79.719528,47.908321 77.977722,47.492199 76.462173,48.407539 
	C74.736153,49.438828 73.197853,50.143780 71.380226,50.964420 
	C70.921951,51.458107 69.998764,50.545795 70.293961,51.861259 
	C70.381874,52.329227 70.377525,52.523403 70.235229,52.976036 
	C69.930443,53.337273 69.763603,53.440048 69.312515,53.614929 
	C68.835526,53.702011 68.642784,53.716980 68.166672,53.750191 
	C67.515030,53.841141 67.163811,53.962177 66.607712,54.317108 
	C65.939575,54.873791 65.462219,55.204227 64.696777,55.627312 
	C63.913757,56.002998 63.393066,56.250206 62.714828,56.798386 
	C62.066856,57.392338 61.608612,57.760902 60.983448,58.384331 
	C60.281944,59.233784 59.925510,59.953773 59.335205,60.893242 
	C58.977997,61.265202 58.812737,61.391865 58.362274,61.646690 
	C57.478283,61.951694 56.862068,62.014027 55.940262,62.075966 
	C55.042706,62.138290 54.448875,62.189407 53.587765,62.448914 
	C53.114639,62.612762 52.924484,62.678047 52.443970,62.827858 
	C50.962280,63.167835 49.796345,63.474583 48.748478,64.711250 
	C48.009056,65.384247 47.423294,65.692818 46.448013,65.990585 
	C45.885551,66.122116 45.657421,66.165062 45.084671,66.264755 
	C42.577675,66.459290 40.838745,68.087669 38.261234,68.042404 
	C37.403656,67.940002 36.942581,67.771210 36.251362,67.261360 
z"/>
<path fill="#F7EEF1" opacity="0.000000" stroke="none" 
	d="
M132.765839,1.279851 
	C137.957535,1.000000 142.915085,1.000000 147.872620,1.000000 
	C147.915085,6.080334 147.979233,11.160602 147.994720,16.241016 
	C148.015869,23.181515 148.000000,30.122122 148.000000,37.531342 
	C146.084427,41.068920 147.120071,44.465828 147.050537,47.699249 
	C146.897507,54.814888 147.260971,61.840553 142.721481,68.178299 
	C140.297958,71.561890 140.210739,75.990623 140.422134,80.206688 
	C140.668320,85.116173 139.950272,89.596382 136.560501,93.663483 
	C133.385376,97.473068 134.085434,102.818390 132.255127,107.661842 
	C124.312424,108.000000 116.624847,108.000000 108.468636,108.000000 
	C106.700516,104.498230 110.338760,105.366570 111.730408,103.783783 
	C112.282036,103.194901 112.627548,102.892548 113.290237,102.443344 
	C114.582573,101.804169 115.644379,101.419479 116.292633,99.978577 
	C119.184731,94.720657 121.735374,89.714195 121.762749,83.855293 
	C121.766617,83.028641 121.837830,82.160461 122.194077,81.419167 
	C126.313454,72.847252 126.798386,63.350956 129.265625,54.400238 
	C130.932373,48.353523 132.890549,42.531631 133.106705,36.209438 
	C133.170212,34.352116 134.839111,33.055527 135.694336,31.459959 
	C137.110092,28.818651 134.632477,30.003357 133.456421,29.390995 
	C131.831451,27.717134 132.527802,26.204647 133.272705,24.342480 
	C133.990433,23.360641 134.645813,22.910759 135.711121,22.380672 
	C137.474030,21.752003 138.941757,21.754881 140.703400,21.685818 
	C142.482483,20.309780 140.416107,20.678904 140.364792,20.670084 
	C136.987488,20.089468 134.365417,18.248894 131.815506,15.588342 
	C130.558884,14.005462 129.108719,13.000968 128.560883,10.958630 
	C131.043015,8.089163 131.684418,4.779212 132.765839,1.279851 
z"/>
<path fill="#F7EBF1" opacity="0.000000" stroke="none" 
	d="
M132.471191,108.000000 
	C132.008926,101.535210 132.198807,95.234894 137.472092,90.255768 
	C139.079865,88.737686 139.097275,86.032326 139.020767,83.645752 
	C138.781555,76.185356 139.099182,69.112823 144.202194,62.635468 
	C146.352463,59.906101 145.855011,55.099438 146.098801,51.128197 
	C146.363510,46.816097 144.526398,42.283199 147.603729,38.091339 
	C148.000000,60.051971 147.951859,82.104179 148.059357,104.155624 
	C148.073181,106.994362 147.804245,108.441666 144.373779,108.088562 
	C140.600266,107.700142 136.755890,108.000000 132.471191,108.000000 
z"/>
<path fill="#F5EFF4" opacity="0.000000" stroke="none" 
	d="
M132.531342,1.000000 
	C132.821793,4.568495 134.322113,8.776839 129.165421,10.830719 
	C127.024208,12.211760 126.127159,10.711728 124.899086,9.331255 
	C124.213631,8.394204 123.564056,8.221999 122.469460,8.599646 
	C119.886208,8.660141 117.967911,7.133561 115.345825,7.084767 
	C113.178932,6.590236 111.345413,6.210284 109.101883,6.100223 
	C108.509010,5.985718 108.275337,5.918985 107.488716,5.394879 
	C106.957634,3.887591 106.979485,2.837676 107.000671,1.393881 
	C115.354233,1.000000 123.708466,1.000000 132.531342,1.000000 
z"/>
<path fill="#F7EEF1" opacity="0.000000" stroke="none" 
	d="
M82.468636,108.000000 
	C81.978249,106.097580 79.819435,104.055267 82.676788,102.161484 
	C83.945839,101.212906 85.102638,100.886475 86.230766,101.297455 
	C90.046600,102.687553 94.045197,102.270416 97.952644,102.727066 
	C101.221436,103.109093 105.098839,102.940582 106.215179,107.611984 
	C98.312424,108.000000 90.624847,108.000000 82.468636,108.000000 
z"/>
<path fill="#EADBDB" opacity="0.000000" stroke="none" 
	d="
M106.333328,108.000000 
	C104.668152,104.274551 101.102066,104.174324 98.284058,104.156357 
	C93.293999,104.124527 88.511971,103.468895 83.384674,102.009903 
	C82.964340,100.920418 83.369888,100.030495 84.447243,99.164597 
	C85.315727,98.387672 86.008865,98.577744 87.042793,98.925758 
	C87.822998,99.249771 88.279228,99.407219 89.115509,99.566467 
	C92.791939,99.820366 96.115501,99.435455 99.791580,99.938339 
	C100.639946,100.173431 101.097466,100.368797 101.836105,100.808197 
	C103.905411,102.608047 106.000114,103.296638 108.702408,103.185776 
	C109.493843,103.075325 109.950058,103.032600 110.756851,103.015076 
	C111.571243,103.086098 112.012749,103.228203 112.691711,103.673065 
	C112.969910,107.367737 108.813744,104.832672 108.062332,107.636307 
	C107.555557,108.000000 107.111107,108.000000 106.333328,108.000000 
z"/>
<path fill="#7BA7C7" opacity="1.000000" stroke="none" 
	d="
M12.202457,80.936348 
	C11.721306,81.385452 11.454051,81.751953 11.215129,81.734329 
	C9.566143,81.612694 7.400623,84.018501 6.488882,81.918053 
	C5.546575,79.747192 8.617488,79.744682 10.112240,78.463120 
	C16.385563,75.786636 22.375511,73.330292 28.731934,70.725342 
	C29.351620,70.601204 29.604832,70.625664 30.136505,70.911957 
	C30.643116,71.636024 30.753458,72.124702 30.668575,73.008324 
	C28.701015,75.976685 25.152050,75.273582 22.618202,77.396744 
	C20.043213,78.258347 17.839159,79.136459 15.247851,79.827652 
	C14.986643,80.065788 15.001349,79.999702 15.033533,80.010193 
	C14.296060,80.678001 13.280735,80.347008 12.202457,80.936348 
z"/>
<path fill="#84BAE4" opacity="1.000000" stroke="none" 
	d="
M30.257059,73.148338 
	C29.988441,72.473007 29.985332,72.072281 29.983784,71.370941 
	C29.860752,70.884315 29.736160,70.698311 29.863491,70.290253 
	C30.115416,70.068192 30.021242,70.040146 30.050369,70.079712 
	C30.930330,68.862907 32.231201,68.504616 33.960175,68.255775 
	C34.291016,68.171135 34.665535,68.129250 34.834648,68.046143 
	C35.783005,67.288994 36.789791,67.645775 37.994492,67.289291 
	C40.621376,67.713211 41.845318,65.058716 44.374466,65.235199 
	C45.029015,65.298492 45.355083,65.356926 45.891617,65.211166 
	C46.636387,64.857666 47.180199,64.652779 47.852188,64.177727 
	C49.274921,63.039722 50.842010,63.092182 52.628113,62.558769 
	C53.725166,62.219563 54.463764,62.102966 55.557297,62.510609 
	C56.655388,63.936081 55.655521,64.522766 54.656624,65.438843 
	C52.624641,66.588486 50.856014,67.424202 48.629536,68.111137 
	C46.621002,68.517883 45.039169,69.075089 43.129963,69.823387 
	C38.775753,71.389435 34.976677,73.560081 30.257059,73.148338 
z"/>
<path fill="#FBF8FA" opacity="0.000000" stroke="none" 
	d="
M33.964622,68.024002 
	C33.507187,69.516045 32.313248,70.136612 30.429989,70.139008 
	C30.217470,67.708191 31.145870,66.551521 33.964622,68.024002 
z"/>
<path fill="#E5F4F8" opacity="0.000000" stroke="none" 
	d="
M37.943390,67.138634 
	C37.633953,68.050171 36.669498,68.003563 35.358566,67.973915 
	C35.105434,67.646149 35.292480,67.392136 35.780693,67.095352 
	C36.516422,67.018379 37.036358,67.047043 37.943390,67.138634 
z"/>
<path fill="#FBF8FA" opacity="0.000000" stroke="none" 
	d="
M29.919533,70.095734 
	C30.105946,70.236740 30.096478,70.405289 30.036175,70.822083 
	C29.834352,70.993813 29.683359,70.917305 29.315388,70.708771 
	C29.256859,70.356766 29.465273,70.205612 29.919533,70.095734 
z"/>
<path fill="#ABAEBC" opacity="1.000000" stroke="none" 
	d="
M84.338165,79.956314 
	C81.335602,79.395996 79.765884,77.651947 78.969818,74.775284 
	C76.762955,70.785484 77.391785,67.283844 79.764297,63.495983 
	C80.468109,62.424259 81.098351,61.867210 82.131378,61.149094 
	C85.394844,59.512474 88.617157,59.511604 92.098549,58.934929 
	C96.530365,59.870556 100.114876,57.848484 104.283806,57.122414 
	C104.915199,57.150978 105.167549,57.190674 105.779465,57.371437 
	C106.578606,57.795128 106.945930,58.152107 107.385406,58.942116 
	C107.515900,62.100395 105.636307,63.248936 102.993454,64.103447 
	C100.258614,64.179848 98.391983,65.260025 96.601990,67.214096 
	C95.222977,68.456757 94.166016,69.611450 92.224457,69.836639 
	C91.369301,69.860535 90.811905,69.841370 90.106575,70.276642 
	C89.579002,70.845947 89.358147,71.288940 89.409828,72.101257 
	C89.403130,73.149429 89.135757,73.862389 88.757668,74.847778 
	C88.423462,75.666725 88.191154,76.210190 87.897476,77.054604 
	C87.561256,77.911690 87.232117,78.425079 86.603363,79.105286 
	C85.854561,79.676186 85.280220,79.891388 84.338165,79.956314 
z"/>
<path fill="#696B65" opacity="1.000000" stroke="none" 
	d="
M80.647079,62.769020 
	C78.884819,66.226196 78.991020,69.868408 79.009567,73.970161 
	C78.829208,74.349258 78.679169,74.258331 78.301086,74.036041 
	C77.222916,73.346138 76.227585,73.073997 75.091507,72.408745 
	C72.134148,71.541016 69.824471,68.726059 66.263351,70.815948 
	C63.619804,70.586334 61.184326,71.942619 58.926140,69.744560 
	C60.444645,66.410873 64.112022,66.610672 66.738281,64.435135 
	C71.527550,63.909576 76.015213,63.890419 80.647079,62.769020 
z"/>
<path fill="#BC958C" opacity="1.000000" stroke="none" 
	d="
M87.167725,100.041008 
	C86.360474,99.817192 85.832870,99.496895 85.004585,99.088753 
	C85.194733,98.091904 85.685577,97.182892 86.448959,96.122841 
	C89.218407,95.227570 90.596550,93.377190 91.805283,90.862648 
	C93.074745,90.211815 93.986267,90.496422 95.175354,91.225555 
	C96.958580,93.198296 98.548485,94.887253 98.443466,97.746315 
	C96.298172,100.245972 93.663361,100.288048 90.683655,100.137009 
	C89.402809,99.778801 88.444107,99.313774 87.167725,100.041008 
z"/>
<path fill="#455356" opacity="1.000000" stroke="none" 
	d="
M29.794962,73.171150 
	C34.091511,71.582146 38.191471,70.290550 42.674358,68.954391 
	C44.076729,68.744728 44.341476,69.364265 44.190228,70.515266 
	C36.916477,73.281364 29.850945,75.732018 22.461779,78.190071 
	C21.751152,78.019814 21.552269,77.712624 21.709793,77.067657 
	C24.104990,74.887733 27.172890,74.910873 29.794962,73.171150 
z"/>
<path fill="#515752" opacity="1.000000" stroke="none" 
	d="
M67.135475,64.758682 
	C65.328606,67.898933 62.181873,67.879150 59.235039,68.991676 
	C58.317974,69.747559 57.543633,69.927956 56.398308,69.868301 
	C54.996155,69.913231 53.893139,70.027527 52.376366,70.073807 
	C51.685455,67.711220 53.826424,67.652184 55.322525,66.549835 
	C55.847946,66.298775 56.061554,66.206573 56.601326,65.993530 
	C59.146095,65.231987 61.196804,64.138863 63.747383,63.368660 
	C64.567581,63.181091 65.048309,63.160995 65.888306,63.288872 
	C66.691963,63.615238 67.023483,63.963013 67.135475,64.758682 
z"/>
<path fill="#717283" opacity="1.000000" stroke="none" 
	d="
M88.742294,91.037849 
	C89.640457,88.890152 89.946404,86.844292 90.298355,84.085617 
	C91.787483,82.831879 93.025284,82.850388 94.619171,83.387039 
	C95.754425,84.211433 96.076759,85.143684 96.493294,86.422165 
	C96.646652,87.240227 96.635925,87.708939 96.385605,88.484329 
	C94.699135,90.165535 92.355293,89.906456 90.575562,91.534767 
	C89.782997,91.637566 89.344673,91.531815 88.742294,91.037849 
z"/>
<path fill="#353531" opacity="1.000000" stroke="none" 
	d="
M56.363052,70.105705 
	C56.824928,69.555351 57.550678,69.311752 58.570370,69.046844 
	C60.760422,70.838844 63.338524,69.133789 65.626770,70.548447 
	C63.377277,71.540413 60.883049,72.345825 58.345474,72.976959 
	C55.625168,73.653542 55.546310,72.377823 56.363052,70.105705 
z"/>
<path fill="#725C59" opacity="1.000000" stroke="none" 
	d="
M88.251572,90.936966 
	C89.061394,90.814621 89.566666,90.881882 90.452980,90.977364 
	C91.076805,90.858795 91.319603,90.712006 91.862747,90.866714 
	C91.625465,93.855797 91.374908,96.821053 87.037949,96.055893 
	C86.984077,94.319809 86.418259,92.458290 88.251572,90.936966 
z"/>
<path fill="#2E4A6B" opacity="1.000000" stroke="none" 
	d="
M47.805904,67.359238 
	C49.703178,66.381088 51.443790,65.691750 53.537754,64.963470 
	C54.326550,64.649330 54.733265,64.670807 55.206108,65.376511 
	C54.818306,67.782936 52.327789,67.722633 51.196968,69.605949 
	C49.919838,69.964645 48.872284,70.071907 47.430809,70.125237 
	C46.564690,69.092644 47.411633,68.447334 47.805904,67.359238 
z"/>
<path fill="#738192" opacity="1.000000" stroke="none" 
	d="
M47.621117,67.068619 
	C48.645885,68.147156 48.456131,69.004204 47.178543,69.847229 
	C46.451969,70.952621 45.495712,70.803940 44.311214,70.882996 
	C43.809658,70.314575 43.637306,69.798439 43.261116,69.096054 
	C44.464745,68.295479 45.872208,67.681152 47.621117,67.068619 
z"/>
<path fill="#6E7474" opacity="1.000000" stroke="none" 
	d="
M21.553274,76.922150 
	C21.966623,77.141815 22.028811,77.442062 22.114254,77.969955 
	C20.251785,79.553497 18.136799,80.138115 15.407166,80.066757 
	C16.471216,77.852592 19.184988,78.133804 21.553274,76.922150 
z"/>
<path fill="#587498" opacity="1.000000" stroke="none" 
	d="
M51.201271,69.994560 
	C50.897179,67.507530 52.983337,67.239143 54.688293,66.173607 
	C55.478184,65.841934 55.881382,65.956200 56.117615,66.726059 
	C54.798504,67.876007 53.559586,68.676559 52.141640,69.741447 
	C51.786789,70.047768 51.610970,70.089745 51.201271,69.994560 
z"/>
<path fill="#ABAEBC" opacity="1.000000" stroke="none" 
	d="
M74.906296,72.610306 
	C76.051910,71.903999 76.943619,72.519409 77.923561,73.607986 
	C76.939583,73.926346 75.758286,74.099968 74.906296,72.610306 
z"/>
<path fill="#7D7D8C" opacity="1.000000" stroke="none" 
	d="
M84.233543,80.153069 
	C84.547020,79.610954 85.065033,79.254524 85.911224,78.835884 
	C86.477440,79.086296 86.613998,79.439827 86.632187,80.116241 
	C86.514320,80.577751 86.428658,80.751106 86.083038,81.053108 
	C85.361420,80.900757 84.899750,80.619751 84.233543,80.153069 
z"/>
<path fill="#7D7D8C" opacity="1.000000" stroke="none" 
	d="
M90.001434,83.965286 
	C89.178185,83.923271 88.328423,83.890747 87.562119,82.865692 
	C87.411201,82.324562 87.440056,82.045204 87.860321,81.612312 
	C89.557755,81.414764 90.394402,81.911606 90.199165,83.691582 
	C89.977058,84.041603 89.973358,83.979118 90.001434,83.965286 
z"/>
<path fill="#6E7474" opacity="1.000000" stroke="none" 
	d="
M12.334455,81.195839 
	C12.446642,80.174553 13.346241,79.955940 14.707445,79.975914 
	C14.633323,81.136063 13.645792,81.129974 12.334455,81.195839 
z"/>
<path fill="#7D7D8C" opacity="1.000000" stroke="none" 
	d="
M87.597519,82.399208 
	C86.954552,82.284988 86.526764,81.966042 85.961029,81.414429 
	C85.977020,81.033852 86.130943,80.885933 86.516602,80.517044 
	C87.341225,80.389420 87.811935,80.674622 88.173752,81.466400 
	C88.075455,81.898186 87.944077,82.046333 87.597519,82.399208 
z"/>
<path fill="#859EE0" opacity="1.000000" stroke="none" 
	d="
M83.810303,43.784782 
	C88.860512,38.226738 95.747574,35.798649 101.006744,31.127769 
	C102.109436,30.148426 103.332535,29.304638 104.738045,28.158176 
	C105.188324,27.815958 105.400696,27.713951 105.938171,27.749819 
	C107.214699,28.647087 107.718102,30.635561 109.165001,29.946512 
	C111.012451,29.066717 109.436226,26.541298 111.021515,24.924349 
	C114.284935,24.164778 115.481308,26.287090 116.863632,28.708096 
	C117.358490,30.652370 117.327789,32.224449 116.953857,34.162910 
	C116.135368,36.275700 114.900040,37.746689 113.202354,38.331474 
	C110.009598,39.431252 109.374039,41.505470 110.186691,44.796986 
	C110.186081,45.890820 110.050537,46.600914 109.607651,47.599113 
	C107.061630,49.615490 106.212448,46.966995 104.383667,46.110340 
	C103.282852,45.554623 102.454025,45.221874 101.315826,44.751354 
	C99.944054,43.858898 98.920860,42.948956 97.147720,43.798683 
	C94.247879,44.719742 91.457695,42.968822 88.641800,44.737259 
	C87.255096,45.528217 86.131042,45.961666 84.505852,45.551407 
	C83.747437,45.063538 83.558212,44.625744 83.810303,43.784782 
z"/>
<path fill="#131A2A" opacity="1.000000" stroke="none" 
	d="
M116.481384,29.176502 
	C114.887856,27.453707 113.557701,25.992014 111.891869,24.584064 
	C111.556190,24.637808 111.140434,24.901497 110.903076,24.831348 
	C110.665718,24.761198 110.283585,24.445780 110.108124,24.270557 
	C109.695602,23.860643 109.486610,23.603176 109.247284,23.080324 
	C109.085861,21.805769 108.982841,20.773819 108.682770,19.404819 
	C108.319191,18.607161 108.238770,18.131241 108.304642,17.284809 
	C108.608810,16.518858 108.840561,16.110283 109.057434,15.347603 
	C108.899895,14.831267 108.757225,14.669036 108.571388,14.186386 
	C108.896759,9.796003 110.508736,12.725167 111.946770,13.492683 
	C112.348297,13.813307 112.505859,13.943231 112.880577,14.282464 
	C113.215912,14.649961 113.334076,14.808149 113.580658,15.227498 
	C113.840675,15.840668 113.971581,16.192940 114.231148,16.782780 
	C114.472084,17.161489 114.583549,17.302938 114.900841,17.621887 
	C115.418343,18.007971 115.739906,18.200150 116.334579,18.515738 
	C117.140945,18.955868 117.637589,19.319818 118.284172,20.003353 
	C118.800194,20.834810 118.967438,21.463186 119.176933,22.422798 
	C119.373077,24.108795 120.282249,25.202549 120.564056,26.869495 
	C120.398056,28.252064 119.776474,28.947208 118.541901,29.558853 
	C117.689102,29.708149 117.207664,29.629938 116.481384,29.176502 
z"/>
<path fill="#6787D7" opacity="1.000000" stroke="none" 
	d="
M108.897644,22.845371 
	C109.816307,22.964756 110.443726,23.091793 111.261383,23.488510 
	C111.199959,24.049183 110.192535,23.973982 111.233109,24.685738 
	C111.500702,24.610046 111.517441,24.642920 111.536812,24.640364 
	C111.424431,25.758287 110.978447,26.956129 111.231010,27.981993 
	C111.661636,29.731150 112.111458,31.333385 109.795242,31.823866 
	C107.331436,32.345600 106.101089,31.080650 105.940872,28.247898 
	C105.805695,26.155098 106.498070,24.755678 107.800041,23.256039 
	C108.234177,22.964094 108.420288,22.908560 108.897644,22.845371 
z"/>
<path fill="#BED0EA" opacity="1.000000" stroke="none" 
	d="
M76.084122,48.318279 
	C76.152885,44.694283 79.011169,47.785625 80.109039,46.014233 
	C80.665237,45.536701 81.050354,45.436066 81.750702,45.571594 
	C82.329918,45.931446 82.590111,46.221729 82.968208,46.778229 
	C83.475342,47.490551 83.982208,47.680683 84.841309,47.799976 
	C86.242912,47.863197 87.340134,47.917847 88.693298,48.510880 
	C89.591171,49.180000 89.974007,49.805603 90.290787,50.898277 
	C90.308586,51.530262 90.260201,51.783169 89.926529,52.297691 
	C88.439903,53.192535 87.181015,53.187954 85.542854,52.780258 
	C83.603920,51.414494 81.717491,51.197132 79.434898,51.021458 
	C77.803650,50.583580 76.810448,49.863354 76.084122,48.318279 
z"/>
<path fill="#274C94" opacity="1.000000" stroke="none" 
	d="
M63.747993,55.178787 
	C64.431366,54.605171 64.918411,54.232220 65.688812,53.734894 
	C66.474319,53.330982 66.850349,52.872517 67.661140,52.618210 
	C68.125732,52.643425 68.302643,52.673149 68.732216,52.795490 
	C70.015999,55.211681 70.519844,52.850838 71.532860,52.437653 
	C72.404625,51.894123 73.044594,51.684322 74.048836,51.935570 
	C74.449684,52.350018 74.554420,52.565937 74.704575,53.141777 
	C74.624603,55.292686 73.238358,55.866920 71.549866,56.612961 
	C68.263535,57.586849 65.764381,59.952213 62.034763,59.288437 
	C61.210278,59.064243 60.772926,58.851807 60.120045,58.309494 
	C59.950035,56.958866 60.952869,56.893188 61.794731,56.199112 
	C62.443478,55.583466 63.014996,55.528793 63.747993,55.178787 
z"/>
<path fill="#3F6AAB" opacity="1.000000" stroke="none" 
	d="
M74.115585,51.968742 
	C73.357735,52.205772 72.916267,52.503571 72.230087,52.906227 
	C71.438850,53.380836 70.842865,53.497032 69.891563,53.000950 
	C69.585678,52.642063 69.448242,52.244389 69.403046,52.038921 
	C69.472305,51.692322 69.586746,51.551193 69.882668,51.206711 
	C71.827835,50.068726 73.591522,49.134083 75.676056,48.073280 
	C76.843292,48.547535 77.689674,49.147953 78.793182,49.936409 
	C79.359627,50.472752 79.526375,50.876709 79.424812,51.667336 
	C79.161385,52.143948 79.000084,52.298752 78.531677,52.583656 
	C76.869301,52.990395 75.637726,52.581459 74.115585,51.968742 
z"/>
<path fill="#3357A0" opacity="1.000000" stroke="none" 
	d="
M112.338127,14.645725 
	C110.468719,15.610176 110.904663,12.237953 109.025040,13.624760 
	C108.817291,14.034486 108.654907,14.183955 108.279976,14.079611 
	C108.060638,12.545176 108.053848,11.264556 108.078232,9.599520 
	C108.233864,8.790820 108.404320,8.385547 109.236694,7.809959 
	C110.073181,7.702106 110.286072,7.780394 110.791031,8.035650 
	C113.523567,9.805408 114.917755,11.651206 112.338127,14.645725 
z"/>
<path fill="#EBE8EF" opacity="0.000000" stroke="none" 
	d="
M107.656479,23.028187 
	C108.098465,24.714485 107.238068,26.023260 106.076599,27.564833 
	C105.909134,27.854261 105.443687,27.900887 105.209816,27.909424 
	C105.432579,26.147230 103.797714,23.395725 107.656479,23.028187 
z"/>
<path fill="#C3D4E8" opacity="1.000000" stroke="none" 
	d="
M59.629101,58.164635 
	C60.335533,58.082241 60.792206,58.131062 61.592789,58.203480 
	C63.027912,59.444790 62.790775,60.508781 61.194618,61.590210 
	C60.563324,61.736542 60.300209,61.750771 59.648071,61.673866 
	C59.033916,61.435211 58.808792,61.287689 58.800709,60.799744 
	C59.138275,59.738155 59.258808,59.017002 59.629101,58.164635 
z"/>
<path fill="#E7EEF4" opacity="0.000000" stroke="none" 
	d="
M53.208031,62.738808 
	C51.710625,63.805096 50.257652,64.037842 48.356415,63.919155 
	C48.853989,62.073593 50.501278,61.946873 52.587959,61.981731 
	C53.092159,62.140175 53.231602,62.301735 53.208031,62.738808 
z"/>
<path fill="#A4C5EC" opacity="1.000000" stroke="none" 
	d="
M53.441917,63.019005 
	C53.028919,62.841843 53.012829,62.669365 52.974724,62.237751 
	C52.952713,61.978611 52.990761,61.991295 52.991894,61.973442 
	C53.455082,61.567890 54.044121,61.528885 54.829971,61.214867 
	C55.758930,60.994991 56.448776,60.933956 57.485191,60.876999 
	C58.293232,61.184246 58.523659,61.612083 58.411938,62.533142 
	C57.925701,63.295002 57.467525,63.482597 56.571365,63.311829 
	C55.424519,63.113598 54.631668,63.068645 53.441917,63.019005 
z"/>
<path fill="#5482B9" opacity="1.000000" stroke="none" 
	d="
M57.751064,63.192089 
	C57.932262,62.424946 57.902321,61.984341 57.852074,61.212402 
	C58.029839,60.812382 58.227905,60.743694 58.721855,60.567162 
	C59.017742,60.459312 58.974323,60.725597 59.059288,60.830376 
	C59.459671,61.305431 59.832249,61.606621 60.434734,62.170982 
	C60.744343,62.977188 60.764748,63.469456 60.550201,64.315109 
	C59.875420,65.307365 59.187420,65.538094 58.055786,65.236923 
	C57.491867,64.542969 57.427044,64.042343 57.751064,63.192089 
z"/>
<path fill="#6380B4" opacity="1.000000" stroke="none" 
	d="
M82.000198,46.210190 
	C81.369286,46.166485 81.061829,46.057022 80.540359,45.820686 
	C80.693283,44.089661 82.420601,44.310471 83.728165,43.500282 
	C83.989174,43.797333 84.026894,44.107044 84.179581,44.642517 
	C84.120605,45.056183 84.023346,45.234779 83.686905,45.603523 
	C83.087860,45.989010 82.707726,46.127247 82.000198,46.210190 
z"/>
<path fill="#E3DDDD" opacity="0.000000" stroke="none" 
	d="
M108.142151,16.992210 
	C108.445824,17.400845 108.514580,17.874252 108.534531,18.707716 
	C107.208344,18.709528 106.827301,18.093414 108.142151,16.992210 
z"/>
<path fill="#F5EFF4" opacity="0.000000" stroke="none" 
	d="
M107.116287,6.740933 
	C106.232155,6.912760 105.468155,6.817245 105.472115,6.010543 
	C105.473686,5.691971 106.051979,5.376234 106.651718,4.998356 
	C106.935776,4.937505 106.968231,4.968743 106.984116,4.984419 
	C107.382179,5.413295 107.504066,5.892688 107.116287,6.740933 
z"/>
<path fill="#10317D" opacity="1.000000" stroke="none" 
	d="
M69.413971,52.651054 
	C70.116135,52.743370 70.646591,52.844681 71.581215,52.978539 
	C71.075020,53.657871 70.367241,55.638351 69.006332,53.174225 
	C68.984871,52.888107 69.242264,52.660046 69.413971,52.651054 
z"/>
<path fill="#E5E0E6" opacity="0.000000" stroke="none" 
	d="
M106.992996,7.259326 
	C106.898109,6.589481 106.929382,6.135353 106.980324,5.340660 
	C107.000000,5.000095 107.425232,4.955074 107.639038,4.954251 
	C108.450554,5.324848 108.721809,5.882355 108.732430,6.889255 
	C108.587799,7.402342 108.482758,7.592043 108.110489,7.967169 
	C107.548714,7.983582 107.307343,7.757732 106.992996,7.259326 
z"/>
<path fill="#E7EEF4" opacity="0.000000" stroke="none" 
	d="
M67.758713,52.451363 
	C67.483345,52.967266 67.017876,53.320827 66.262283,53.642448 
	C66.118553,52.703987 66.407509,51.969688 67.758713,52.451363 
z"/>
<path fill="#E7EEF4" opacity="0.000000" stroke="none" 
	d="
M63.653641,54.998924 
	C63.815971,55.732960 63.281254,55.937893 62.300770,55.958496 
	C62.446735,55.643230 62.904846,55.331478 63.653641,54.998924 
z"/>
<path fill="#E7EEF4" opacity="0.000000" stroke="none" 
	d="
M54.763794,61.048576 
	C54.576618,61.351578 54.084145,61.647133 53.292351,61.949142 
	C53.481518,61.650772 53.970009,61.345947 54.763794,61.048576 
z"/>
<path fill="#E5E0E6" opacity="0.000000" stroke="none" 
	d="
M108.764214,7.805375 
	C108.862053,8.315575 108.747612,8.656148 108.371292,9.105913 
	C108.071342,9.036157 108.033257,8.857208 107.919220,8.415426 
	C107.843262,8.152593 107.964645,8.033409 108.024353,7.972835 
	C108.240021,7.820090 108.395981,7.727919 108.764214,7.805375 
z"/>
<path fill="#E7EEF4" opacity="0.000000" stroke="none" 
	d="
M69.896904,51.028320 
	C69.991287,51.179813 69.918427,51.356262 69.601715,51.683083 
	C69.242264,51.461327 69.366196,51.201267 69.896904,51.028320 
z"/>
<path fill="#E7EEF4" opacity="0.000000" stroke="none" 
	d="
M45.744354,65.064392 
	C45.740738,65.206161 45.388908,65.349785 44.874115,65.342758 
	C44.939480,65.150162 45.167805,65.108200 45.744354,65.064392 
z"/>
<path fill="#E3DDDD" opacity="0.000000" stroke="none" 
	d="
M108.146584,14.081138 
	C108.067429,13.825796 108.520851,13.909563 108.750259,13.897289 
	C109.072746,14.065089 109.165825,14.245164 109.150726,14.709368 
	C108.770287,14.774492 108.498016,14.555486 108.146584,14.081138 
z"/>
<path fill="#F9F1F4" opacity="0.000000" stroke="none" 
	d="
M88.182190,74.999527 
	C88.365517,73.997116 88.628113,73.342751 88.996964,72.438187 
	C94.028221,68.658768 100.205597,68.163368 105.799530,65.301308 
	C106.805229,64.923370 107.490112,64.727951 108.454628,64.297058 
	C113.981247,61.181393 118.242928,57.275604 121.036324,51.494125 
	C121.388519,50.558773 121.647652,49.947132 121.983963,49.014011 
	C122.795326,47.146984 123.705338,45.674835 124.147659,43.663918 
	C124.412941,42.968590 124.606163,42.591976 124.991806,41.964714 
	C125.468491,41.167347 125.762100,40.626003 126.063927,39.746037 
	C126.570213,38.255981 126.861916,37.029778 127.237381,35.488873 
	C127.483681,34.766891 127.659012,34.366577 128.011490,33.683647 
	C128.631256,32.630604 129.250351,32.022934 130.266602,31.386852 
	C131.203781,30.865671 132.003174,30.656422 132.511032,29.276075 
	C135.065918,29.759026 135.779877,27.607906 137.230469,26.105307 
	C138.556824,29.165281 138.213287,31.431522 136.042908,33.493027 
	C135.337097,34.163422 134.208282,35.183002 134.340744,35.821232 
	C136.091934,44.257866 131.155838,51.423042 129.647614,59.193668 
	C128.321335,66.026970 128.584015,73.579399 124.188171,79.703682 
	C122.962349,81.411514 123.059883,83.435143 122.968086,85.445358 
	C122.713493,91.020638 120.536812,95.914330 117.149750,100.701569 
	C116.683884,101.333954 116.319038,101.567696 115.578644,101.772308 
	C115.027878,101.787781 114.806747,101.762566 114.268105,101.630051 
	C113.555954,101.307533 113.186234,101.055679 112.594254,100.537918 
	C112.043961,99.974991 111.767029,99.621048 111.344131,98.958107 
	C110.445427,96.587433 108.355019,95.950363 106.690475,94.364471 
	C106.271301,93.673660 106.115623,93.238106 105.943901,92.442345 
	C105.837051,91.640495 105.807953,91.181503 105.788620,90.383499 
	C105.794571,88.311333 105.871292,86.555344 103.842163,85.297836 
	C102.816284,84.715668 102.071167,84.291206 101.077011,83.662796 
	C100.023590,82.793999 99.194191,82.163315 97.935043,81.599167 
	C95.879700,80.209274 94.305397,78.630165 91.724808,78.128433 
	C89.978241,77.573410 88.909134,76.705772 88.182190,74.999527 
z"/>
<path fill="#9AB3E7" opacity="1.000000" stroke="none" 
	d="
M124.738083,7.912720 
	C126.098557,9.165138 126.679985,10.720418 128.642654,11.078468 
	C129.840683,12.373941 131.720871,12.703466 132.025940,14.821883 
	C132.104279,15.639587 131.931503,16.028124 131.242905,16.446987 
	C130.694214,16.554739 130.468170,16.552382 129.917816,16.458059 
	C128.045624,15.559538 126.502838,14.735621 124.328560,14.919221 
	C123.766319,14.908314 123.540398,14.890913 122.982704,14.794617 
	C122.446968,14.615991 122.243004,14.516260 121.796524,14.178589 
	C120.844826,10.470979 117.904861,9.246013 115.048874,7.452077 
	C114.757179,6.979017 114.695824,6.758649 114.829277,6.255824 
	C117.742729,5.499457 119.873756,7.190040 122.630669,7.981863 
	C123.416298,7.624860 123.906029,7.486954 124.738083,7.912720 
z"/>
<path fill="#505C7E" opacity="1.000000" stroke="none" 
	d="
M130.824768,16.425552 
	C131.256516,15.903360 131.538803,15.743233 131.938171,15.373249 
	C134.891693,18.707569 139.165756,19.240499 143.103470,20.614212 
	C146.121170,21.666964 144.474564,22.508463 142.309418,22.928532 
	C140.276810,22.113163 138.488968,22.641058 136.365631,22.528790 
	C134.983963,22.913446 133.964401,23.041199 132.545166,22.709232 
	C131.966370,22.407118 131.757523,22.245974 131.345917,21.745771 
	C130.703156,19.894112 130.503616,18.357031 130.824768,16.425552 
z"/>
<path fill="#9099B0" opacity="1.000000" stroke="none" 
	d="
M131.105286,31.806458 
	C130.303894,32.472477 129.719559,32.987949 128.978912,33.751640 
	C128.595123,34.092739 128.367645,34.185616 127.799301,34.139240 
	C126.198524,32.967476 125.920128,31.606441 126.247246,29.760780 
	C127.409882,28.038025 125.009750,25.721149 127.866821,24.486845 
	C129.213318,23.563269 130.367203,23.105417 132.054626,23.084774 
	C132.984833,23.191673 133.466644,23.398884 133.983704,24.123104 
	C134.670059,26.029903 133.198593,26.891428 132.847809,28.444981 
	C132.765717,28.757147 132.798798,28.792416 132.802933,28.815844 
	C132.740219,29.005444 132.673355,29.171618 132.488037,29.577747 
	C132.296173,29.979649 132.222763,30.141598 132.037048,30.545115 
	C131.760727,31.101913 131.561859,31.392998 131.105286,31.806458 
z"/>
<path fill="#C4A294" opacity="1.000000" stroke="none" 
	d="
M113.741127,100.714447 
	C113.983253,100.921021 114.384521,101.056915 114.594444,101.085251 
	C115.452477,101.782333 114.958794,102.195351 114.202583,102.783134 
	C113.622719,103.052734 113.369064,103.232422 113.062286,103.703018 
	C112.522720,103.921883 112.095711,103.933731 111.348236,103.934601 
	C109.683807,102.166145 109.453438,100.458534 111.734108,98.828522 
	C112.476326,99.028130 112.685249,99.285431 112.965149,99.803299 
	C113.226753,100.182358 113.362877,100.345123 113.741127,100.714447 
z"/>
<path fill="#2E343B" opacity="1.000000" stroke="none" 
	d="
M134.358612,24.498457 
	C133.441925,24.383467 132.811340,24.251997 131.701660,24.058216 
	C131.091171,23.496353 131.108231,23.001894 131.478333,22.195408 
	C132.804886,21.872618 133.926559,21.866934 135.469757,21.884739 
	C136.107269,22.165489 136.323257,22.422749 136.311340,23.129379 
	C135.603851,23.879824 135.124298,24.180901 134.358612,24.498457 
z"/>
<path fill="#161015" opacity="1.000000" stroke="none" 
	d="
M136.503540,23.531837 
	C136.065018,23.299049 136.046600,23.019352 135.959717,22.323940 
	C137.764420,21.958036 139.669937,21.430296 141.738434,22.541227 
	C140.291489,23.068140 138.607590,23.276535 136.503540,23.531837 
z"/>
<path fill="#EADBDB" opacity="1.000000" stroke="none" 
	d="
M114.294586,102.972092 
	C114.176460,102.504539 114.417107,102.052132 114.731056,101.356644 
	C115.291077,101.078842 115.777794,101.044106 116.629417,101.013428 
	C116.919640,102.512695 116.027336,103.036194 114.294586,102.972092 
z"/>
<path fill="#537CD5" opacity="1.000000" stroke="none" 
	d="
M121.755249,13.755911 
	C121.987022,13.994575 122.468010,14.013986 122.708694,14.015812 
	C122.930969,16.227539 121.083672,15.922316 119.312958,16.362902 
	C117.092850,16.303896 115.267990,16.546377 113.265762,15.315533 
	C112.895401,15.066563 112.484726,15.029043 112.290863,14.960424 
	C113.317780,12.221237 112.623207,10.161395 110.064362,8.348488 
	C109.839699,8.018055 109.666801,8.018620 109.235207,7.997093 
	C108.976501,7.975002 108.528877,7.963197 108.306473,7.937729 
	C107.992188,7.174888 107.900314,6.437515 107.830643,5.326785 
	C110.063972,4.600963 112.207657,4.823143 114.648895,5.840154 
	C115.024086,5.973365 115.020927,6.450864 115.040611,6.688807 
	C116.616997,9.709733 119.895676,10.804001 121.755249,13.755911 
z"/>
<path fill="#F7EEF1" opacity="0.000000" stroke="none" 
	d="
M124.976326,7.892705 
	C124.558167,8.193236 124.109978,8.173076 123.331207,8.089346 
	C123.256462,7.497190 123.392799,6.666713 123.794868,6.507557 
	C124.475266,6.238231 124.806458,6.931490 124.976326,7.892705 
z"/>
<path fill="#D6B1A7" opacity="1.000000" stroke="none" 
	d="
M112.163559,98.472519 
	C110.501221,99.889435 111.085808,101.603317 111.018974,103.528473 
	C110.581993,103.949066 110.136223,103.974510 109.355545,103.994171 
	C107.884575,103.638832 107.926575,100.352028 105.582069,102.748001 
	C104.888260,103.457039 103.402519,102.801308 102.040154,102.197632 
	C101.482010,101.981018 101.258804,101.849503 100.947540,101.508530 
	C100.706734,101.159851 100.586525,100.965439 100.536072,100.437378 
	C100.746719,99.928284 100.887619,99.752831 101.301140,99.385361 
	C102.548492,98.718437 103.432083,98.143867 104.001488,96.782867 
	C104.478043,95.638718 104.872078,94.824081 105.720627,93.891098 
	C106.220078,93.628151 106.449249,93.586601 106.934410,93.782822 
	C108.947174,95.251968 111.881393,95.072540 112.163559,98.472519 
z"/>
<path fill="#D2ADA4" opacity="1.000000" stroke="none" 
	d="
M101.001450,100.129799 
	C100.996254,100.507568 100.936928,100.933372 100.881935,101.143814 
	C96.834358,101.222046 92.841774,101.089828 88.383835,100.908066 
	C87.714996,99.732513 88.278229,99.109550 89.620216,98.874313 
	C92.690659,100.723030 94.910027,98.437042 97.736588,97.984108 
	C99.642036,97.631363 100.450424,98.489525 101.001450,100.129799 
z"/>
<path fill="#C0A39C" opacity="1.000000" stroke="none" 
	d="
M101.954208,102.351440 
	C104.344643,101.784790 107.894341,103.177528 107.238518,97.636948 
	C109.814888,99.819626 107.811691,101.876854 108.985703,103.654434 
	C106.415596,105.181908 104.295990,103.899178 101.954208,102.351440 
z"/>
<path fill="#A27F77" opacity="1.000000" stroke="none" 
	d="
M89.756836,98.712280 
	C89.373116,99.439613 88.789986,99.907669 88.062668,100.617126 
	C87.584892,100.910431 87.312187,100.804924 86.994217,100.339752 
	C87.155243,98.589378 87.739738,97.544098 89.756836,98.712280 
z"/>
<path fill="#3F6AAB" opacity="1.000000" stroke="none" 
	d="
M57.679562,62.957352 
	C57.978836,63.335724 57.995468,63.805893 58.019279,64.628311 
	C58.007927,65.581337 57.816990,66.113937 57.183155,66.748421 
	C56.963638,66.938622 56.501968,67.018852 56.269695,67.047150 
	C55.841568,66.801346 55.645714,66.527237 55.219032,66.143524 
	C54.788143,65.741142 54.588078,65.448372 54.139561,65.040062 
	C54.531021,64.481796 55.170937,64.039070 56.014107,63.377449 
	C56.610550,63.122086 57.003738,63.085617 57.679562,62.957352 
z"/>
<path fill="#737685" opacity="1.000000" stroke="none" 
	d="
M109.271088,64.786621 
	C108.568634,65.360619 108.070999,65.651535 107.269386,65.889641 
	C105.561310,65.102058 103.891884,65.349365 102.205475,64.428116 
	C101.834526,64.020187 101.742699,63.810455 101.852600,63.322788 
	C104.493347,63.122318 105.750008,61.501472 106.927170,59.351959 
	C106.821777,58.844021 106.662903,58.673725 106.236832,58.278378 
	C105.969643,58.053326 105.493050,58.025146 105.255722,57.999481 
	C104.865211,57.800751 104.712044,57.627686 104.444321,57.127674 
	C104.171814,54.084957 107.565079,53.699471 108.071030,50.996521 
	C108.356300,50.470104 108.494751,50.270161 108.938232,49.861370 
	C111.635628,49.417732 113.752327,49.868355 115.342430,52.365929 
	C116.522552,55.595856 114.776176,57.461624 112.939888,59.196922 
	C111.341782,60.707130 109.870163,62.236225 109.271088,64.786621 
z"/>
<path fill="#67645C" opacity="1.000000" stroke="none" 
	d="
M101.732231,64.051620 
	C103.671051,64.360603 105.608742,63.166286 106.897125,65.482010 
	C101.575813,68.748833 95.737991,70.421684 89.488129,72.103745 
	C88.155594,71.790634 88.263695,71.175201 88.869843,70.231781 
	C89.404701,69.572311 89.850227,69.205818 90.692123,68.939537 
	C92.792229,69.176025 93.941559,67.892754 95.605423,66.944107 
	C97.720459,65.847412 99.230576,64.314537 101.732231,64.051620 
z"/>
<path fill="#30393C" opacity="1.000000" stroke="none" 
	d="
M67.434738,65.074783 
	C66.814697,64.803192 66.613846,64.497772 66.159576,64.079437 
	C66.429901,60.935223 69.390617,61.550312 71.551079,60.315231 
	C73.589157,59.754105 75.331444,59.742554 77.391006,59.361740 
	C78.478729,59.101578 79.217926,59.062244 80.329651,59.199192 
	C81.663490,59.603764 82.483719,60.127789 83.001740,61.423454 
	C82.512909,62.118233 82.015236,62.442108 81.239532,62.874405 
	C76.842827,65.264328 72.480446,65.993721 67.434738,65.074783 
z"/>
<path fill="#1C385E" opacity="1.000000" stroke="none" 
	d="
M83.386124,61.743507 
	C82.437126,61.368584 81.863655,60.942814 81.131569,60.297333 
	C83.932190,57.848625 85.028893,53.619907 89.405609,52.572926 
	C91.124100,53.280987 90.893616,55.520813 93.059967,55.895111 
	C93.763504,56.683781 93.906288,57.360855 93.818466,58.437202 
	C93.633110,59.005520 93.517174,59.218029 93.101913,59.636093 
	C89.788940,60.458652 86.775307,61.075653 83.386124,61.743507 
z"/>
<path fill="#E3DEE2" opacity="0.000000" stroke="none" 
	d="
M88.523346,81.836060 
	C87.843536,81.386414 87.480247,81.022781 86.932648,80.477600 
	C86.598251,79.970146 86.448158,79.644234 86.268738,79.045990 
	C86.441940,78.324120 86.644470,77.874557 86.927597,77.188644 
	C88.211205,76.257599 89.196091,77.028793 90.563843,77.522537 
	C93.013885,78.480217 94.845917,79.811935 96.874268,81.463257 
	C97.434746,82.441528 97.243919,83.087975 96.573517,83.946442 
	C96.087852,84.261658 95.862221,84.334457 95.324165,84.237335 
	C93.609947,84.005760 92.208138,83.944092 90.391693,83.962013 
	C90.016846,83.110367 89.845001,82.292679 88.523346,81.836060 
z"/>
<path fill="#8D8C9B" opacity="1.000000" stroke="none" 
	d="
M93.133667,60.013954 
	C92.802582,59.841644 92.903786,59.476295 92.965225,59.296974 
	C95.207191,56.808342 98.185257,56.436485 101.465332,55.785442 
	C102.699539,55.756626 103.496696,55.902451 104.597946,56.467941 
	C104.956001,56.900005 104.968193,57.114887 104.999382,57.651794 
	C101.143623,58.588341 97.672325,61.309776 93.133667,60.013954 
z"/>
<path fill="#D0D6EB" opacity="0.000000" stroke="none" 
	d="
M82.289795,70.400917 
	C84.621506,68.307777 85.000534,69.727943 85.039078,71.525444 
	C85.084412,73.639305 83.683090,75.185532 81.934189,75.291817 
	C80.437660,75.382759 81.016907,73.564072 81.256828,72.512138 
	C81.400063,71.884148 81.798737,71.314415 82.289795,70.400917 
z"/>
<path fill="#97979D" opacity="1.000000" stroke="none" 
	d="
M102.066513,63.796066 
	C100.508217,65.465187 98.571754,66.180656 96.282265,66.861328 
	C96.974648,64.497040 98.795799,63.260384 101.684280,63.025562 
	C102.055069,63.211830 102.055817,63.378807 102.066513,63.796066 
z"/>
<path fill="#3B393D" opacity="1.000000" stroke="none" 
	d="
M91.095955,78.358620 
	C89.766212,77.753174 88.389107,78.329903 87.329124,77.066757 
	C87.125671,76.240807 87.243149,75.529327 87.731781,74.734665 
	C89.217484,75.324837 90.332031,75.998184 91.692001,76.885574 
	C92.080070,77.640266 91.924339,78.073761 91.095955,78.358620 
z"/>
<path fill="#97979D" opacity="1.000000" stroke="none" 
	d="
M90.790619,68.670197 
	C90.519363,69.236130 90.063377,69.596672 89.298187,69.969635 
	C89.138618,69.061409 89.155182,67.998955 90.790619,68.670197 
z"/>
<path fill="#9696A2" opacity="1.000000" stroke="none" 
	d="
M106.085052,58.263973 
	C106.250206,58.216690 106.530777,58.380054 106.895996,58.778870 
	C106.662773,58.917969 106.402710,58.738071 106.085052,58.263973 
z"/>
<path fill="#6A5052" opacity="1.000000" stroke="none" 
	d="
M101.350204,100.453491 
	C100.224411,99.749039 99.452576,98.990509 98.392670,98.087097 
	C97.130379,96.184006 96.156158,94.425797 95.008461,92.376976 
	C94.999329,91.922997 95.163666,91.759636 95.658356,91.489548 
	C97.364235,91.278679 98.677422,91.756943 100.364395,91.845200 
	C101.129784,91.937546 101.558365,92.034668 102.257095,92.302849 
	C102.974670,92.604836 103.108360,93.445969 104.039230,92.836479 
	C104.445755,92.589912 104.632187,92.523605 105.124573,92.459167 
	C105.624710,92.536583 105.818909,92.612144 106.200211,92.942719 
	C106.391769,93.409653 106.396225,93.621582 106.320053,94.141075 
	C105.907600,95.111191 105.575760,95.773735 105.099045,96.682205 
	C103.737389,97.432465 102.872124,98.245728 102.500725,99.889786 
	C102.160263,100.258293 101.932220,100.328850 101.350204,100.453491 
z"/>
<path fill="#454452" opacity="1.000000" stroke="none" 
	d="
M96.294487,91.709610 
	C95.866287,91.984718 95.659576,91.997215 95.143929,92.048035 
	C94.136337,91.773552 93.437691,91.460747 92.451065,91.158066 
	C91.942902,91.135338 91.722702,91.102470 91.168259,91.037590 
	C92.344292,90.234756 92.924248,87.497543 95.967812,89.139046 
	C96.786591,90.112190 96.788620,90.778877 96.294487,91.709610 
z"/>
<path fill="#5482B9" opacity="1.000000" stroke="none" 
	d="
M72.175629,60.981274 
	C70.386795,62.051388 68.388206,62.755295 66.147888,63.712860 
	C65.492020,63.973347 65.077881,63.980175 64.352959,64.011017 
	C63.610718,64.378944 63.121651,64.510742 62.212708,64.273537 
	C61.601673,62.390270 63.003773,61.884571 64.419281,60.930927 
	C66.316895,60.042763 67.927048,59.729023 70.029800,59.859043 
	C70.999344,60.045948 71.505615,60.280876 72.175629,60.981274 
z"/>
<path fill="#587498" opacity="1.000000" stroke="none" 
	d="
M61.641823,63.713066 
	C62.421364,63.933903 62.884220,63.961708 63.694626,64.012268 
	C61.923721,64.993904 59.805260,65.952766 57.325218,66.925125 
	C57.150806,66.392120 57.337975,65.845627 57.775799,65.139847 
	C58.575104,64.824028 59.123756,64.667488 59.837547,64.268799 
	C60.368870,63.662968 60.813400,63.503792 61.641823,63.713066 
z"/>
<path fill="#B79089" opacity="1.000000" stroke="none" 
	d="
M96.042114,88.947128 
	C96.059837,88.502380 96.070442,88.072060 96.074532,87.318275 
	C95.520409,86.285919 95.957726,85.682350 96.516037,84.805573 
	C97.727997,83.813797 98.803482,83.371223 100.373901,83.438469 
	C101.599457,83.879883 102.363518,84.402710 103.151711,85.448608 
	C103.393272,85.981339 103.452751,86.210831 103.504433,86.797028 
	C103.321503,88.104248 103.007248,89.004356 102.279068,90.117630 
	C101.818527,90.510345 101.601593,90.628220 101.024597,90.842613 
	C99.079712,91.098129 97.677147,90.738884 96.319092,89.236969 
	C96.055435,88.970459 96.034996,88.961563 96.042114,88.947128 
z"/>
<path fill="#675C61" opacity="1.000000" stroke="none" 
	d="
M96.892929,84.706375 
	C96.735985,85.483467 96.509636,85.984810 96.175659,86.740479 
	C95.052818,86.558334 94.989891,85.667252 95.002701,84.405884 
	C95.011749,84.067429 95.452988,83.876411 95.689598,83.833878 
	C96.303650,83.894478 96.599014,84.112823 96.892929,84.706375 
z"/>
<path fill="#3D73C8" opacity="1.000000" stroke="none" 
	d="
M100.697639,44.006378 
	C101.872765,44.163509 102.746964,44.294483 103.820892,44.699020 
	C105.820816,46.567005 103.899612,48.868721 105.203819,50.904942 
	C105.224915,52.889973 103.973129,53.629383 102.472260,54.598465 
	C100.863121,55.406258 99.552032,55.981758 97.724426,55.633869 
	C95.954948,54.252125 97.075584,53.190006 97.789413,52.244137 
	C98.493950,51.310589 99.163353,50.476471 98.583725,48.959953 
	C98.223747,48.474728 98.137558,48.198643 98.127884,47.889812 
	C98.027596,48.192345 98.127678,48.449795 98.518410,48.965935 
	C98.599632,51.628845 97.146065,51.740082 95.041885,51.240181 
	C93.857819,50.776882 93.058311,50.322594 92.037231,49.581154 
	C90.861855,47.884247 90.022041,46.334419 88.033539,45.397743 
	C87.713165,44.954395 87.641441,44.739941 87.804634,44.280804 
	C90.344414,40.567879 93.598251,43.805294 96.665283,42.862873 
	C97.939552,43.933037 99.306534,43.547916 100.697639,44.006378 
z"/>
<path fill="#9CA4C5" opacity="1.000000" stroke="none" 
	d="
M115.539879,53.180908 
	C113.840446,50.926117 111.392860,51.223454 109.423637,49.902573 
	C108.745842,49.390690 108.568085,48.978947 108.781662,48.205063 
	C109.017708,47.166763 109.037743,46.409946 109.084061,45.275517 
	C111.632568,42.926613 114.670975,44.005375 117.814995,43.472267 
	C119.549431,43.378883 120.480965,44.049767 121.327408,45.441963 
	C121.576172,45.924164 121.662399,46.118771 121.860558,46.602936 
	C122.192154,47.446651 122.322693,48.035633 122.803497,48.784409 
	C122.947655,49.562969 122.911400,50.115387 122.683464,50.881050 
	C121.005730,52.054058 120.008949,53.836655 117.603432,53.800980 
	C116.851097,53.720173 116.447052,53.588951 115.539879,53.180908 
z"/>
<path fill="#ADB9E4" opacity="1.000000" stroke="none" 
	d="
M119.374725,43.563107 
	C116.334229,46.211487 113.029884,44.525635 109.548538,44.923054 
	C107.887886,41.164326 107.399017,37.915344 112.857971,37.335686 
	C113.931915,37.221649 114.863792,35.769638 116.205124,34.738319 
	C116.756287,34.610626 116.963501,34.679306 117.408539,34.973885 
	C118.412231,36.273239 118.911903,37.489040 119.620178,38.970940 
	C119.941414,39.937813 120.026344,40.610352 120.036819,41.638695 
	C119.954117,42.447388 119.815033,42.888321 119.374725,43.563107 
z"/>
<path fill="#5782D3" opacity="1.000000" stroke="none" 
	d="
M108.647453,47.892853 
	C109.022560,48.322979 109.047440,48.722385 109.100067,49.415138 
	C109.084198,49.954021 109.040588,50.199558 108.958725,50.817192 
	C108.027664,51.895943 107.039154,52.004257 105.654495,51.441772 
	C100.067268,50.551701 105.258728,47.346588 104.007217,45.339203 
	C106.634323,44.177254 106.692024,47.164867 108.647453,47.892853 
z"/>
<path fill="#5782D3" opacity="1.000000" stroke="none" 
	d="
M100.881271,43.741642 
	C99.530510,45.365860 98.184006,45.675911 97.096436,43.212769 
	C98.635094,40.982529 99.892586,41.022671 100.881271,43.741642 
z"/>
<path fill="#334162" opacity="1.000000" stroke="none" 
	d="
M117.375839,34.716026 
	C117.046883,34.830231 116.796127,34.688789 116.672607,34.615372 
	C116.388039,32.937275 116.226997,31.332602 116.141983,29.321663 
	C116.621918,28.936825 117.025826,28.958254 117.732414,29.002361 
	C118.373688,29.345085 118.630905,29.722052 118.900635,30.485258 
	C119.027840,31.287703 119.026810,31.751865 118.923904,32.560287 
	C118.660118,33.595463 118.288925,34.171246 117.375839,34.716026 
z"/>
<path fill="#5986D0" opacity="1.000000" stroke="none" 
	d="
M87.720123,44.143951 
	C88.095573,44.242695 88.151588,44.449268 88.285896,44.967186 
	C86.925201,48.791149 85.005280,48.089375 82.881012,45.498806 
	C83.075325,45.067360 83.304237,45.037430 83.875511,44.942547 
	C85.278809,44.668983 86.339745,44.460381 87.720123,44.143951 
z"/>
<path fill="#3357A0" opacity="1.000000" stroke="none" 
	d="
M112.932648,15.263472 
	C114.678116,15.052941 116.460831,15.039319 118.687820,15.036081 
	C119.406120,15.754414 119.134895,16.349072 118.510910,17.161877 
	C117.739647,17.814213 117.141548,18.107916 116.173019,18.371164 
	C115.406906,18.467432 114.968666,18.453287 114.268417,18.187740 
	C114.004654,17.990627 114.000526,18.000879 114.006287,17.997965 
	C113.203125,17.680004 114.985580,16.364204 113.249435,16.094639 
	C113.119400,15.832258 112.969902,15.460381 112.932648,15.263472 
z"/>
<path fill="#94A4CF" opacity="1.000000" stroke="none" 
	d="
M120.342819,27.073444 
	C119.393593,25.910225 118.805267,24.825758 118.247360,23.430086 
	C118.458366,22.950529 118.638954,22.782179 119.190536,22.596237 
	C121.213799,23.162954 121.901375,24.320936 121.463150,26.383373 
	C121.101044,26.861097 120.902390,27.006647 120.342819,27.073444 
z"/>
<path fill="#A9B2D2" opacity="1.000000" stroke="none" 
	d="
M119.804245,27.225121 
	C120.164131,26.990496 120.346352,26.986300 121.028419,27.227686 
	C121.811859,28.144226 121.837631,28.833807 121.539719,29.862207 
	C120.800461,30.980112 120.050659,31.483438 118.703011,31.238708 
	C118.257584,30.621031 118.116722,30.178886 118.005478,29.380890 
	C118.565590,28.501877 119.096077,27.978714 119.804245,27.225121 
z"/>
<path fill="#6077AD" opacity="1.000000" stroke="none" 
	d="
M115.729675,18.289528 
	C116.380844,17.681259 116.756424,17.328369 117.399330,16.938286 
	C118.144218,17.028660 118.463898,17.331600 118.706558,18.131796 
	C118.735359,18.711559 118.705864,18.944355 118.220886,19.676250 
	C117.307579,19.919418 116.849770,19.663488 116.219925,19.206501 
	C115.849937,18.851931 115.652008,18.698420 115.729675,18.289528 
z"/>
<path fill="#6077AD" opacity="1.000000" stroke="none" 
	d="
M119.665344,22.699970 
	C119.302696,23.085285 119.097664,23.098858 118.585213,23.115656 
	C118.100037,22.389894 117.922295,21.660908 117.754967,20.553635 
	C117.953766,20.042887 118.142151,19.910429 118.613541,19.579916 
	C119.768745,20.186838 119.987961,21.197132 119.665344,22.699970 
z"/>
<path fill="#182855" opacity="1.000000" stroke="none" 
	d="
M113.106339,16.152481 
	C114.160309,15.941818 114.847977,16.278730 114.097839,17.740429 
	C113.705788,17.487604 113.399536,16.980154 113.106339,16.152481 
z"/>
<path fill="#182855" opacity="1.000000" stroke="none" 
	d="
M115.672150,18.008802 
	C116.005272,18.034153 116.082253,18.517202 116.065063,18.761322 
	C115.479019,18.834936 114.910156,18.664431 114.172974,18.242275 
	C114.449448,17.988235 114.894241,17.985844 115.672150,18.008802 
z"/>
<path fill="#859EE0" opacity="1.000000" stroke="none" 
	d="
M111.581467,24.391720 
	C111.021004,24.666079 110.420074,24.824522 111.217957,23.878460 
	C111.451607,23.758190 111.662224,24.173393 111.581467,24.391720 
z"/>
<path fill="#134F9D" opacity="1.000000" stroke="none" 
	d="
M97.984238,48.340256 
	C102.364632,50.791573 98.201050,52.542656 97.061722,55.021843 
	C96.465134,57.193295 95.105949,56.915154 93.430313,56.477070 
	C88.606407,59.313644 90.413330,55.187481 90.011826,53.176250 
	C89.817192,52.664898 89.630051,52.547466 89.654861,52.175266 
	C89.866814,51.920498 89.920746,51.501652 90.097595,51.025715 
	C91.552864,49.757278 92.905090,50.081573 94.574570,50.198231 
	C96.338104,50.543629 98.073204,51.619122 97.984238,48.340256 
z"/>
<path fill="#2766B5" opacity="1.000000" stroke="none" 
	d="
M89.487709,51.977909 
	C89.866814,51.920498 89.952621,52.350731 89.978485,52.566532 
	C88.306297,53.117577 86.683212,54.026093 86.358383,55.610783 
	C85.788361,58.391617 83.782524,59.047501 81.297745,59.913700 
	C80.306320,60.108040 79.639694,60.138466 78.334656,59.959412 
	C77.617805,59.533855 77.539345,59.317772 77.479599,58.758125 
	C77.595932,58.208508 77.693558,58.002453 78.049835,57.576038 
	C79.616600,56.681438 81.212975,56.299068 81.393082,54.060265 
	C81.735405,53.052116 82.109596,52.452732 82.910950,51.728561 
	C83.698486,51.398434 84.178795,51.391277 84.977722,51.709854 
	C86.566925,51.940632 87.837761,51.987976 89.487709,51.977909 
z"/>
<path fill="#305498" opacity="1.000000" stroke="none" 
	d="
M82.625137,45.250042 
	C84.404327,46.232491 85.902069,47.856770 88.113724,45.496567 
	C90.716995,44.874504 91.904541,45.875031 91.982956,48.614639 
	C91.822289,49.260818 91.565735,49.462605 90.989609,49.590851 
	C90.744514,49.616112 90.270027,49.542511 90.056961,49.451664 
	C89.843903,49.360817 89.535156,49.047005 89.427177,49.245865 
	C89.319199,49.444721 88.879662,49.563557 88.652039,49.567619 
	C87.212532,49.359509 86.000641,49.147335 84.413681,48.895065 
	C83.651764,48.636127 83.240005,48.482628 82.638420,48.099220 
	C82.291695,47.462475 82.113380,47.111820 81.815674,46.491123 
	C81.932144,45.948318 82.167999,45.675556 82.625137,45.250042 
z"/>
<path fill="#3D527B" opacity="1.000000" stroke="none" 
	d="
M85.192444,51.500984 
	C84.808838,51.938610 84.321594,51.983932 83.467712,52.042046 
	C82.270111,52.241188 81.535294,52.766582 80.322388,52.718567 
	C79.796440,52.603588 79.595100,52.520779 79.176743,52.193947 
	C78.977165,51.544010 78.994598,51.138092 79.031174,50.428310 
	C80.987183,50.918549 83.403725,48.769775 85.192444,51.500984 
z"/>
<path fill="#305498" opacity="1.000000" stroke="none" 
	d="
M89.959061,51.033768 
	C89.461334,50.733856 89.075066,50.381985 88.556610,49.800896 
	C88.424423,49.571678 88.734489,49.247433 88.901016,49.097141 
	C89.230583,48.870251 89.393623,48.793652 89.784027,48.863060 
	C90.011398,49.009068 90.000687,49.000504 89.995667,48.995903 
	C90.337730,49.323029 90.516800,49.732052 90.413437,50.527699 
	C90.276474,50.847397 90.070518,50.981808 89.959061,51.033768 
z"/>
<path fill="#6380B4" opacity="1.000000" stroke="none" 
	d="
M82.472519,48.100491 
	C82.891235,48.036594 83.312454,48.260059 83.886139,48.669250 
	C83.517410,48.699265 82.996216,48.543560 82.472519,48.100491 
z"/>
<path fill="#5995DD" opacity="1.000000" stroke="none" 
	d="
M78.206337,57.699074 
	C78.122307,58.073601 78.080269,58.545345 78.048767,58.780052 
	C77.876236,59.158009 77.735199,59.301258 77.710045,59.722893 
	C77.825928,60.001282 78.062683,60.083736 78.188751,60.066288 
	C76.820518,61.413334 74.886436,60.979649 72.762833,61.330925 
	C71.849159,61.237755 71.312927,61.128025 70.367844,60.986732 
	C68.243156,59.475090 66.753029,59.991371 65.169403,61.736237 
	C64.085068,62.477409 63.203468,62.956131 62.140190,63.670475 
	C61.524124,63.935833 61.089741,63.965565 60.329018,64.010971 
	C59.990143,63.514484 59.977604,63.002331 59.946217,62.106621 
	C59.927372,61.723072 59.595638,61.380035 59.680511,61.157043 
	C60.942123,60.740368 62.078545,60.502495 61.958984,58.569736 
	C65.174561,59.333496 67.358261,56.374546 70.594498,56.061829 
	C73.456642,56.156799 76.480782,53.253422 78.206337,57.699074 
z"/>
<path fill="#397CCE" opacity="1.000000" stroke="none" 
	d="
M78.457291,58.054211 
	C76.551308,54.666058 73.699463,56.818611 71.183853,56.287487 
	C71.948059,55.385391 72.938988,54.723267 73.984375,53.752945 
	C74.425362,52.239491 75.271599,52.411709 76.464531,52.853523 
	C77.702446,53.371029 78.647499,53.747150 80.010239,53.417931 
	C80.741257,53.365509 81.146843,53.449680 81.752701,53.841644 
	C82.954384,57.032597 81.275620,57.856152 78.457291,58.054211 
z"/>
<path fill="#082D69" opacity="1.000000" stroke="none" 
	d="
M77.374817,54.138451 
	C76.187485,53.867264 75.416580,53.598713 74.342255,53.387459 
	C74.005920,53.187729 73.973007,52.930710 73.869644,52.290833 
	C74.993874,50.436729 76.221298,51.886684 77.763672,51.900078 
	C78.610146,52.753777 78.482071,53.486149 77.374817,54.138451 
z"/>
<path fill="#1C56B6" opacity="1.000000" stroke="none" 
	d="
M77.154587,54.364895 
	C77.294022,53.613220 77.629662,53.090630 78.030205,52.250473 
	C78.095108,51.932907 78.527794,51.950413 78.743759,51.950169 
	C78.959732,51.949924 79.433655,52.008690 79.671471,52.030117 
	C80.339699,52.427635 80.519951,52.899315 80.240372,53.806583 
	C79.266396,55.068317 78.366081,55.175529 77.154587,54.364895 
z"/>
<path fill="#A4C5EC" opacity="1.000000" stroke="none" 
	d="
M59.610100,60.934418 
	C59.765385,60.934048 59.875343,61.324722 59.901360,61.523895 
	C59.595898,61.788174 59.360451,61.666828 59.182640,61.147095 
	C59.144253,60.935154 59.454819,60.934792 59.610100,60.934418 
z"/>
<path fill="#A5A5AE" opacity="1.000000" stroke="none" 
	d="
M115.795914,52.833504 
	C118.217957,53.238365 119.873497,51.922665 122.108505,51.162529 
	C119.951302,57.282665 115.287544,61.514751 109.403656,65.001617 
	C108.290192,62.958057 108.339874,61.364681 110.503632,59.746452 
	C112.466110,58.278748 114.956810,56.784485 115.016151,53.344543 
	C115.012901,52.974358 114.996513,53.007034 114.979286,53.012276 
	C115.146652,52.898212 115.331238,52.778904 115.795914,52.833504 
z"/>
<path fill="#182033" opacity="1.000000" stroke="none" 
	d="
M119.411354,43.967461 
	C119.108177,43.433002 119.083458,43.050797 119.064308,42.381313 
	C119.528091,41.510670 120.139114,41.196842 121.206375,41.060387 
	C121.776726,41.071434 122.001717,41.100647 122.540443,41.246353 
	C123.556145,41.857265 124.274300,42.322628 125.319191,42.832165 
	C125.104279,44.955421 124.696266,46.870354 123.128662,48.680080 
	C122.398178,48.878437 121.812454,48.746326 121.134834,48.321224 
	C121.159599,47.847485 121.276260,47.666737 121.190826,47.234436 
	C120.555748,46.028492 120.122780,45.074100 119.411354,43.967461 
z"/>
<path fill="#716E71" opacity="1.000000" stroke="none" 
	d="
M90.923340,78.572906 
	C91.030876,78.080910 91.340248,77.844757 91.793518,77.354111 
	C93.871315,78.101295 95.805199,79.102974 97.951553,80.347084 
	C98.419449,81.260231 98.247238,81.792625 97.178009,82.152557 
	C94.847473,81.021866 92.986320,79.925308 90.923340,78.572906 
z"/>
<path fill="#786B6F" opacity="1.000000" stroke="none" 
	d="
M102.827881,87.480240 
	C102.860397,86.953720 102.866058,86.739868 102.867523,86.205147 
	C102.631844,85.180794 102.976067,84.732590 103.828934,84.303040 
	C106.553268,85.023453 107.432159,86.742302 106.983223,89.551926 
	C106.274925,90.352715 105.689163,90.119682 104.827820,89.711411 
	C103.859154,89.077225 103.150612,88.613167 102.827881,87.480240 
z"/>
<path fill="#6A646F" opacity="1.000000" stroke="none" 
	d="
M96.699158,82.356995 
	C97.081139,81.821510 97.453659,81.524597 97.995102,80.908600 
	C99.059181,81.176247 99.954338,81.762985 100.981285,82.646111 
	C101.196098,83.133255 101.279121,83.324020 101.099831,83.683838 
	C99.771057,84.205727 98.704597,84.558563 97.300232,84.946762 
	C96.686951,84.753571 96.411568,84.525024 96.031197,84.043900 
	C96.180702,83.392746 96.435196,82.994156 96.699158,82.356995 
z"/>
<path fill="#9199BD" opacity="1.000000" stroke="none" 
	d="
M123.382141,42.141907 
	C123.083046,41.866730 122.794197,41.474350 122.685089,41.256531 
	C122.431305,40.643131 122.445511,40.249790 122.770256,39.605446 
	C123.571152,38.753845 124.302856,38.407829 125.485901,38.457596 
	C126.177368,38.713608 126.465256,39.000294 126.763351,39.683357 
	C126.742508,40.529350 126.600800,41.086292 126.223213,41.818829 
	C125.300652,42.582787 124.493233,42.512383 123.382141,42.141907 
z"/>
<path fill="#9299AE" opacity="1.000000" stroke="none" 
	d="
M127.068680,39.655308 
	C126.623062,39.746254 126.361916,39.520092 125.987823,39.056866 
	C125.398010,38.278660 125.214401,37.640469 125.324615,36.593742 
	C125.688774,35.595646 126.184746,35.141521 127.454849,34.952225 
	C128.192322,36.567299 128.026321,38.011677 127.068680,39.655308 
z"/>
<path fill="#F7EEF1" opacity="0.000000" stroke="none" 
	d="
M131.240417,31.966591 
	C130.940109,31.583014 130.991974,31.209023 131.061874,30.552090 
	C131.204300,29.952158 131.379211,29.666052 131.747681,29.201557 
	C131.890594,28.992199 132.343826,28.874863 132.575439,28.857067 
	C133.664108,30.373446 134.605728,31.940369 131.240417,31.966591 
z"/>
<path fill="#D3ABA2" opacity="1.000000" stroke="none" 
	d="
M100.971222,84.122223 
	C100.837517,83.852882 100.960701,83.393143 101.036888,83.167816 
	C101.917870,83.271255 102.722664,83.600014 103.827026,84.078461 
	C103.796989,84.631699 103.467384,85.035255 103.000549,85.661545 
	C102.277191,85.386719 101.691063,84.889145 100.971222,84.122223 
z"/>
<path fill="#B49B99" opacity="1.000000" stroke="none" 
	d="
M104.842072,89.081177 
	C105.576965,89.100891 106.005058,89.381958 106.655869,89.787933 
	C106.951859,90.378784 107.025139,90.844734 107.038086,91.660492 
	C106.755913,92.262360 106.578011,92.542816 106.201202,92.933731 
	C105.965309,93.020302 105.589516,92.940887 105.399124,92.915741 
	C104.736229,92.602585 104.408806,92.197098 104.164642,91.277321 
	C104.127380,90.333122 104.271095,89.820946 104.842072,89.081177 
z"/>
<path fill="#3B496B" opacity="1.000000" stroke="none" 
	d="
M123.073555,42.169495 
	C123.808952,41.894501 124.534866,41.922276 125.624054,41.972233 
	C126.005768,42.272274 125.966881,42.541859 125.708511,42.929146 
	C124.672096,43.060265 123.559708,44.079582 123.073555,42.169495 
z"/>
<path fill="#6D646E" opacity="1.000000" stroke="none" 
	d="
M106.012421,93.381500 
	C106.045876,92.678879 106.232033,92.410805 106.750771,92.113190 
	C107.032791,92.455856 107.087830,92.901405 107.166626,93.683777 
	C107.025101,94.076645 106.859818,94.132690 106.466995,94.318695 
	C106.179474,94.213333 106.119507,93.978012 106.012421,93.381500 
z"/>
<path fill="#F7EEF1" opacity="0.000000" stroke="none" 
	d="
M113.885002,100.725578 
	C113.631821,100.931885 113.368927,100.784698 113.142593,100.249527 
	C113.376717,100.116096 113.608757,100.286270 113.885002,100.725578 
z"/>
<path fill="#9299AE" opacity="1.000000" stroke="none" 
	d="
M127.852692,34.253563 
	C128.036835,34.001186 128.430649,34.000889 128.626617,34.000374 
	C128.909500,34.354546 128.808731,34.643837 128.301025,34.968483 
	C128.081772,35.069241 128.050705,35.046070 128.037720,35.032692 
	C127.905991,34.848190 127.787270,34.677063 127.852692,34.253563 
z"/>
<path fill="#2C3244" opacity="1.000000" stroke="none" 
	d="
M130.746490,16.050756 
	C132.223969,17.571857 132.067673,19.321295 131.797974,21.519547 
	C127.791565,22.769808 124.003838,22.564266 120.296768,19.884998 
	C119.263611,17.231018 121.284691,17.107145 122.910309,16.282005 
	C125.306419,15.688033 127.347717,16.517981 129.724518,16.139414 
	C130.056183,16.086132 130.515823,16.032860 130.746490,16.050756 
z"/>
<path fill="#6D91E1" opacity="1.000000" stroke="none" 
	d="
M121.996460,13.608117 
	C119.147591,12.460806 115.859573,11.421633 115.041946,7.302835 
	C118.086220,8.240863 122.249641,8.299902 121.996460,13.608117 
z"/>
<path fill="#C5CAE0" opacity="1.000000" stroke="none" 
	d="
M129.923752,15.781918 
	C128.692200,20.315443 126.565804,16.112932 124.500954,16.437267 
	C123.433891,15.865978 123.407318,15.205703 123.861649,14.268547 
	C126.415062,12.974930 128.184082,13.905336 129.923752,15.781918 
z"/>
<path fill="#94A4CF" opacity="1.000000" stroke="none" 
	d="
M123.842468,14.034640 
	C124.124489,14.620714 124.109215,15.187996 124.118187,16.036896 
	C123.202858,17.403534 122.041069,18.114206 120.408028,18.653561 
	C120.043877,19.036774 119.901054,19.170305 119.465027,19.298119 
	C118.795654,18.787470 118.419502,18.282543 117.854996,17.339352 
	C118.070488,16.461292 118.474319,16.021498 119.005127,15.314083 
	C120.258209,14.879508 121.384315,14.712551 122.729904,14.281616 
	C123.147972,14.017042 123.346565,14.016445 123.842468,14.034640 
z"/>
<path fill="#CCD5E9" opacity="1.000000" stroke="none" 
	d="
M119.086746,19.264786 
	C119.408630,19.252016 119.638550,19.187113 120.024124,19.000465 
	C123.453239,20.956512 127.457558,20.406893 131.306519,21.945568 
	C131.739334,21.958754 131.800568,21.860109 131.741882,21.869205 
	C131.590591,22.350302 131.497986,22.822306 131.313980,23.645107 
	C130.384033,24.359411 129.545486,24.722918 128.424210,25.119545 
	C126.072426,26.139101 124.483063,28.465862 121.393784,27.204128 
	C121.087326,26.950342 121.068726,26.942081 121.071289,26.941849 
	C121.126518,25.645168 120.966743,24.414951 119.745209,23.256714 
	C119.338982,22.090744 119.170242,21.109776 118.949028,19.755335 
	C118.896553,19.381861 119.001694,19.237173 119.086746,19.264786 
z"/>
<path fill="#C5CBE1" opacity="1.000000" stroke="none" 
	d="
M127.881882,33.664589 
	C128.017731,34.170628 127.998650,34.340069 128.002136,34.764412 
	C127.526581,35.268234 127.028435,35.517155 126.276939,35.891975 
	C125.463051,36.533829 124.801453,36.803478 123.677101,36.803699 
	C122.364166,36.586094 121.470551,36.233269 120.278732,35.671604 
	C119.164894,34.922615 118.775459,34.079971 118.510300,32.837097 
	C118.548798,32.172344 118.518341,31.854137 118.426758,31.301125 
	C119.083282,30.757349 119.768112,30.451521 120.710754,30.019432 
	C122.584412,28.634144 124.419075,28.391697 126.760742,28.867121 
	C127.001793,30.491724 126.835922,31.981239 127.881882,33.664589 
z"/>
<path fill="#B3BAD3" opacity="1.000000" stroke="none" 
	d="
M127.390770,28.997225 
	C125.454155,29.907635 123.650703,30.163008 121.367149,29.925652 
	C120.986671,29.158176 121.004768,28.423180 121.055099,27.319263 
	C123.492622,27.386700 125.219742,25.493502 127.764801,25.134354 
	C128.378067,26.237574 125.603828,27.481339 128.314697,28.435703 
	C128.237671,28.570208 128.188095,28.738390 128.075943,28.829792 
	C127.962349,28.922367 127.786873,28.939014 127.390770,28.997225 
z"/>
<path fill="#9299AE" opacity="1.000000" stroke="none" 
	d="
M131.678833,29.148314 
	C131.750366,29.301548 131.610138,29.610895 131.274902,30.094700 
	C131.208969,29.947578 131.338013,29.626001 131.678833,29.148314 
z"/>
<path fill="#3357A0" opacity="1.000000" stroke="none" 
	d="
M110.006088,8.008781 
	C110.093193,7.977793 110.173805,7.938097 110.118378,7.942551 
	C109.982338,7.986700 109.999596,8.000073 110.006088,8.008781 
z"/>
<path fill="#AE8781" opacity="1.000000" stroke="none" 
	d="
M102.688972,100.094002 
	C102.365929,98.903740 100.725929,97.817024 101.641319,96.532677 
	C102.345390,95.544807 103.434578,96.238258 104.634888,96.810379 
	C105.001259,98.401047 104.276199,99.380196 102.688972,100.094002 
z"/>
<path fill="#30435B" opacity="1.000000" stroke="none" 
	d="
M105.129570,51.465889 
	C106.287659,51.186062 107.244560,51.148487 108.560974,51.150101 
	C109.688095,54.413509 106.488991,54.522057 105.022148,56.368927 
	C104.171890,56.647095 103.399971,56.609062 102.269913,56.419937 
	C101.424637,55.732662 101.330170,55.120102 101.773392,54.195683 
	C102.969292,53.200260 103.948837,52.454197 105.129570,51.465889 
z"/>
<path fill="#212F42" opacity="1.000000" stroke="none" 
	d="
M101.614212,53.976665 
	C101.979897,54.531837 101.970055,55.117352 101.935997,55.985855 
	C99.207664,57.202984 96.503555,58.137127 93.413055,59.094463 
	C93.032730,58.401283 93.038795,57.684910 93.068733,56.617416 
	C94.208878,56.104828 95.325150,55.943363 96.691498,55.571274 
	C98.373955,54.909435 99.806313,54.458221 101.614212,53.976665 
z"/>
<path fill="#717283" opacity="1.000000" stroke="none" 
	d="
M96.034317,89.345749 
	C97.514297,89.349747 98.973167,89.729034 100.801247,90.208450 
	C101.451675,90.610283 101.620552,90.967148 101.675430,91.673508 
	C101.576050,92.158875 101.493561,92.342392 101.178352,92.718094 
	C99.509872,92.888962 98.013474,93.277977 96.397079,92.129097 
	C96.053062,91.221825 96.033127,90.471428 96.034317,89.345749 
z"/>
<path fill="#6D646E" opacity="1.000000" stroke="none" 
	d="
M104.759972,90.813309 
	C105.037819,91.445740 105.080872,91.859627 105.166321,92.582062 
	C105.010445,92.918121 104.812172,92.945648 104.084671,92.770020 
	C103.430496,92.148125 103.431602,91.727890 103.726074,91.044189 
	C104.116104,90.719582 104.320633,90.657173 104.759972,90.813309 
z"/>
<path fill="#6D646E" opacity="1.000000" stroke="none" 
	d="
M101.284836,92.944733 
	C100.945633,92.910278 100.990242,92.437523 101.008781,92.200821 
	C101.598534,91.408920 102.221504,91.441971 102.929382,92.408493 
	C102.531708,93.003265 102.077866,92.991226 101.284836,92.944733 
z"/>
<path fill="#6D646E" opacity="1.000000" stroke="none" 
	d="
M104.009842,93.009903 
	C103.845528,93.447266 103.676231,93.879501 103.506927,94.311737 
	C103.346939,94.046501 103.186951,93.781265 103.006256,93.265656 
	C102.985542,93.015297 102.998688,93.002388 102.994415,93.008560 
	C103.161362,92.840279 103.332565,92.665840 103.759933,92.753693 
	C104.016098,93.015984 104.004860,93.004776 104.009842,93.009903 
z"/>
<path fill="#6DABEA" opacity="1.000000" stroke="none" 
	d="
M65.312210,61.868622 
	C66.016312,59.755753 67.179070,57.835911 69.914597,60.618698 
	C68.525253,61.216301 67.091499,61.477428 65.312210,61.868622 
z"/>
<path fill="#D7AEA7" opacity="1.000000" stroke="none" 
	d="
M105.009064,90.662857 
	C104.818298,91.038307 104.641838,91.044762 104.205170,91.100662 
	C103.243187,91.590828 102.587082,91.505272 101.893417,90.623596 
	C101.990799,89.378014 102.164001,88.487495 102.595963,87.382278 
	C103.500305,87.566216 104.145882,87.964867 104.970169,88.591660 
	C105.107033,89.311172 105.065193,89.802521 105.009064,90.662857 
z"/>
<path fill="#454452" opacity="1.000000" stroke="none" 
	d="
M101.655022,90.265823 
	C102.334602,90.514740 102.851624,90.760963 103.656799,91.078644 
	C103.968842,91.564339 103.992729,91.978577 104.016357,92.704391 
	C103.845123,93.018410 103.674141,93.020836 103.246651,93.018997 
	C102.530342,92.688614 102.070541,92.362503 101.319031,92.000259 
	C101.045723,91.593987 101.064117,91.223846 101.126488,90.581146 
	C101.170464,90.308571 101.492455,90.263123 101.655022,90.265823 
z"/>
<path fill="#023075" opacity="1.000000" stroke="none" 
	d="
M90.628922,50.900253 
	C90.198677,50.437584 90.120880,50.027775 90.016861,49.304634 
	C90.440773,48.989143 90.890900,48.986984 91.678780,48.980591 
	C92.791542,49.254395 93.566544,49.532436 94.620621,49.959908 
	C93.843750,51.552357 92.310944,50.780838 90.628922,50.900253 
z"/>
<path fill="#134F9D" opacity="1.000000" stroke="none" 
	d="
M97.990967,48.007473 
	C97.852043,47.858738 97.721046,47.703476 97.590057,47.548210 
	C97.690399,47.594425 97.790741,47.640636 97.951035,47.836426 
	C98.010994,47.985996 97.998886,48.000942 97.990967,48.007473 
z"/>
<path fill="#737685" opacity="1.000000" stroke="none" 
	d="
M115.961967,52.842197 
	C115.890450,53.012234 115.704910,53.017063 115.240723,53.019707 
	C115.166809,52.668472 115.355682,52.278107 115.961967,52.842197 
z"/>
<path fill="#3B496B" opacity="1.000000" stroke="none" 
	d="
M120.931122,47.247910 
	C121.114357,47.263000 121.240005,47.543121 121.204300,47.925735 
	C120.986481,47.856468 120.930008,47.684704 120.931122,47.247910 
z"/>
<path fill="#566387" opacity="1.000000" stroke="none" 
	d="
M118.360405,32.790657 
	C119.320992,32.883923 119.877518,33.435734 119.983307,34.665974 
	C120.652138,35.641323 121.304276,36.290325 121.352432,37.616817 
	C120.990387,38.616158 120.456573,39.005943 119.424316,39.038437 
	C118.108124,37.967621 117.149086,36.998024 117.017960,35.179741 
	C117.422714,34.249363 117.798538,33.668495 118.360405,32.790657 
z"/>
<path fill="#7380A9" opacity="1.000000" stroke="none" 
	d="
M119.082245,39.312927 
	C119.566917,38.677158 120.029938,38.440044 120.733711,38.100418 
	C121.129158,37.863529 121.283852,37.729145 121.740395,37.657791 
	C122.554482,38.105991 122.862755,38.627197 123.090744,39.534298 
	C123.011864,40.153221 122.890953,40.467823 122.673012,40.910568 
	C121.711075,41.361008 120.846161,41.683300 119.525574,42.049812 
	C119.066788,41.299881 119.063690,40.505733 119.082245,39.312927 
z"/>
<path fill="#C2CDF2" opacity="1.000000" stroke="none" 
	d="
M113.847755,40.241714 
	C115.045204,41.145493 115.136574,42.043568 114.062416,42.634480 
	C113.686409,42.841324 112.642265,42.570049 112.437111,42.211571 
	C111.845695,41.178173 112.291191,40.403450 113.847755,40.241714 
z"/>
<path fill="#0F4490" opacity="1.000000" stroke="none" 
	d="
M80.353394,54.125549 
	C80.008629,53.679859 79.986542,53.213154 79.936874,52.398994 
	C80.844139,51.913528 81.778992,51.775517 82.907455,51.846169 
	C82.885704,52.606735 82.670334,53.158634 82.211441,53.891670 
	C81.537300,54.083378 81.106682,54.093956 80.353394,54.125549 
z"/>
<path fill="#397CCE" opacity="1.000000" stroke="none" 
	d="
M77.895294,59.758827 
	C77.692604,59.810638 77.540192,59.629158 77.440773,59.422226 
	C77.418816,59.376507 77.584435,59.240669 77.840477,59.080544 
	C77.999733,59.181961 77.982201,59.349167 77.895294,59.758827 
z"/>
<path fill="#023075" opacity="1.000000" stroke="none" 
	d="
M89.937012,48.836994 
	C90.011398,49.009068 89.539215,48.969082 89.303375,48.957966 
	C89.223274,48.544670 89.434395,48.298656 89.937012,48.836994 
z"/>
<path fill="#B3BAD3" opacity="1.000000" stroke="none" 
	d="
M123.407700,39.740383 
	C122.784882,39.415855 122.436981,38.993095 122.043098,38.286423 
	C121.993385,37.404167 122.147408,36.854614 122.736855,36.193085 
	C123.733788,36.012764 124.496719,36.006721 125.641624,36.009281 
	C125.990555,36.720654 125.957520,37.423424 125.899681,38.472996 
	C125.144127,39.093918 124.413376,39.368034 123.407700,39.740383 
z"/>
<path fill="#9199BD" opacity="1.000000" stroke="none" 
	d="
M122.763443,35.769569 
	C122.807671,36.569405 122.644493,37.119999 122.239212,37.836555 
	C121.826714,38.003971 121.656326,38.005424 121.230202,38.002392 
	C120.654686,37.205212 120.334915,36.412518 120.025742,35.295433 
	C120.876244,35.154140 121.716141,35.337234 122.763443,35.769569 
z"/>
</svg>