<svg version="1.1" id="Layer_1" xmlns="http://www.w3.org/2000/svg" xmlns:xlink="http://www.w3.org/1999/xlink" x="0px" y="0px"
	 width="100%" viewBox="0 0 118 107" enable-background="new 0 0 118 107" xml:space="preserve">
<path fill="#FBF8F8" opacity="0.000000" stroke="none" 
	d="
M118.698578,7.774639 
	C119.000000,40.222431 118.966286,72.444962 119.064240,104.667099 
	C119.072044,107.235977 118.835556,108.201035 115.851624,108.095673 
	C107.888985,107.814514 99.909882,108.000000 91.468658,108.000000 
	C88.843834,105.445091 89.566185,102.345039 89.407990,99.424934 
	C89.120506,94.118164 88.424599,93.400780 83.195625,93.490326 
	C71.447548,93.691498 59.698864,93.538925 47.950539,93.574501 
	C45.968494,93.580505 43.972054,93.646004 41.648232,92.792572 
	C38.548443,89.653893 39.905117,85.782036 38.883934,82.009064 
	C38.864483,80.984314 38.958118,80.413521 39.331390,79.478699 
	C40.109806,78.457420 40.862549,78.186134 42.082466,78.128845 
	C44.536079,78.849388 46.746281,79.382683 47.471783,82.204597 
	C48.174778,80.624039 47.702618,78.784691 49.329716,77.431053 
	C50.242783,76.817307 50.931877,76.555885 51.974617,76.170486 
	C55.012642,75.411980 57.771893,75.793968 60.817352,75.319901 
	C62.527107,74.854317 63.882988,74.391899 65.642204,74.896454 
	C66.744484,75.317955 67.511093,75.699646 68.697685,75.675995 
	C70.043701,75.610458 71.049210,75.283043 72.400589,75.354050 
	C73.085793,75.531418 73.448418,75.699829 74.029274,76.053436 
	C74.846077,76.417595 75.324158,76.245453 75.966415,75.590630 
	C78.709602,73.092201 81.694992,73.582336 85.009079,74.025833 
	C89.289291,77.035110 91.669930,81.313194 95.123734,85.103424 
	C96.001503,86.313454 96.552696,87.323021 97.513069,88.465553 
	C100.219971,91.147949 102.095306,94.099106 104.808029,96.729156 
	C105.965530,97.540688 106.936974,97.598763 108.270538,97.219070 
	C109.410667,97.044487 110.228447,97.113083 111.044601,97.257866 
	C112.168365,97.457222 113.516907,97.954926 114.185616,96.707649 
	C114.907745,95.360710 114.131271,94.183464 112.745354,93.079559 
	C108.780075,89.798668 107.523819,84.571754 102.729355,82.027664 
	C102.226860,81.727982 102.034462,81.592957 101.595436,81.205048 
	C100.147301,79.199730 99.558540,77.163979 98.699509,74.897667 
	C99.110840,73.073357 100.816559,73.225937 101.846870,72.000923 
	C99.830208,70.908775 97.678871,71.475052 95.352425,71.039780 
	C89.068275,66.932388 83.698296,62.369247 80.748642,55.257534 
	C81.174263,54.554359 81.570175,54.285889 82.364655,54.023254 
	C83.373199,53.845760 84.038986,53.880802 84.982681,54.089462 
	C85.545746,54.392200 85.857864,54.458050 86.028664,54.179539 
	C84.588402,52.743851 83.759895,51.155659 82.403458,49.522705 
	C81.800240,48.604946 81.542839,47.927143 81.412567,46.824097 
	C81.652779,44.424572 81.235962,42.506420 80.590256,40.586761 
	C79.419090,37.104908 80.738213,34.633198 84.112495,33.536785 
	C86.666115,32.707024 88.178307,31.339441 89.392311,28.840483 
	C90.884537,25.768797 94.479805,24.490597 96.908585,22.013317 
	C101.565117,17.263798 106.767273,12.844378 112.242088,8.919610 
	C113.939636,7.702681 116.116425,6.970195 118.698578,7.774639 
z"/>
<path fill="#FFFFFF" opacity="0.000000" stroke="none" 
	d="
M40.612045,91.697670 
	C56.097820,91.626350 71.215561,92.740257 86.308197,91.423058 
	C89.518463,91.142883 90.768845,93.384041 90.927582,96.099274 
	C91.140739,99.745178 90.993263,103.412155 91.000305,107.535049 
	C62.453537,108.000000 33.906284,107.897163 5.361520,108.117439 
	C1.353391,108.148361 0.607992,106.931778 0.931331,103.392082 
	C1.247066,99.935600 1.000000,96.427719 1.000000,92.471199 
	C6.122409,88.996353 11.705937,90.836517 17.562809,90.482468 
	C25.444496,90.682510 32.906689,89.299194 40.612045,91.697670 
z"/>
<path fill="#FBF3F6" opacity="0.000000" stroke="none" 
	d="
M46.760780,1.283015 
	C61.020893,1.000000 75.041786,1.000000 89.531342,1.000000 
	C91.536224,2.792510 91.715202,5.334020 90.028259,6.330651 
	C85.350014,9.094520 84.312813,15.599099 78.118774,16.936731 
	C75.342072,17.536375 73.750122,21.029526 72.754745,23.741621 
	C71.190514,28.003672 68.435852,31.099239 64.740234,34.037151 
	C62.148396,34.956337 60.298767,33.371876 57.891869,32.967896 
	C56.456814,32.242161 55.324768,31.671612 53.691689,31.565128 
	C51.091175,30.186174 49.005928,28.441078 45.866131,28.230278 
	C43.640945,27.795568 41.771790,27.340199 39.460899,27.269600 
	C38.573933,27.170115 38.076672,27.049116 37.237625,26.707962 
	C36.226231,26.067566 35.774590,25.444263 35.461098,24.302177 
	C39.635777,16.726587 43.826801,9.518019 46.760780,1.283015 
z"/>
<path fill="#FCF8F9" opacity="0.000000" stroke="none" 
	d="
M63.874992,34.547318 
	C68.981598,28.978962 71.977806,22.423950 75.556335,16.243120 
	C76.106110,15.293541 77.106224,15.040128 78.144257,15.023278 
	C81.429382,14.969949 83.551987,13.476590 83.974403,10.111015 
	C84.175591,8.508110 85.168976,7.626254 86.482246,7.372149 
	C89.738579,6.742084 90.262375,4.576035 89.999939,1.409888 
	C97.723930,1.000000 105.479843,1.427260 113.160721,0.852227 
	C118.423561,0.458222 120.042908,2.104655 119.000000,7.502095 
	C115.321587,9.179253 112.277596,11.320330 109.071022,13.358382 
	C105.339432,15.730121 104.040657,21.217438 98.774124,21.315817 
	C97.798607,21.334040 97.114655,22.467354 97.091843,23.532270 
	C97.037682,26.061174 95.383453,26.876032 93.303818,27.384706 
	C91.218246,27.894827 89.658165,28.815104 89.953285,31.427837 
	C90.171776,33.362202 88.855972,33.699112 87.181702,34.074070 
	C80.870483,35.487480 80.801430,35.789627 82.698784,41.737083 
	C83.203362,43.318752 83.302635,44.991898 82.157776,46.808559 
	C81.676514,47.158802 81.493500,47.260815 80.999207,47.312202 
	C79.720039,46.827404 78.885475,46.180134 77.766006,45.383202 
	C77.366425,45.019047 77.216278,44.861271 76.854172,44.453171 
	C73.744553,41.404827 70.298904,39.400501 66.507896,37.318146 
	C65.974380,37.116829 65.763672,37.026196 65.253265,36.761932 
	C64.380966,36.152847 63.996243,35.592247 63.874992,34.547318 
z"/>
<path fill="#F8EDF1" opacity="0.000000" stroke="none" 
	d="
M18.255512,91.654922 
	C12.642979,91.994263 7.289089,91.997131 1.467600,92.000000 
	C1.000000,74.979103 1.000000,57.958210 1.000000,40.468658 
	C1.789841,39.195965 2.637948,39.437813 3.763561,40.052792 
	C4.492969,40.683216 4.857044,41.203445 5.440037,41.909016 
	C5.900591,42.383434 6.206265,42.417686 6.698759,42.022148 
	C7.013393,41.649834 7.171948,41.521019 7.620242,41.260502 
	C9.023284,40.808163 10.130994,40.841717 11.547815,41.328384 
	C12.036143,41.625359 12.210526,41.775246 12.572113,42.212231 
	C13.346939,44.497383 14.461254,46.081299 16.642426,47.262527 
	C19.810068,50.989410 23.279009,54.170639 23.549915,59.535675 
	C23.116501,69.116219 18.978539,77.738052 19.455359,87.050789 
	C19.530809,88.524399 19.387075,90.019951 18.255512,91.654922 
z"/>
<path fill="#F8EEF1" opacity="0.000000" stroke="none" 
	d="
M46.531342,1.000000 
	C47.934505,5.816132 44.653801,9.459317 43.002155,13.367656 
	C41.428898,17.090511 39.446609,21.053074 35.940044,24.186333 
	C30.882174,25.040312 27.686020,21.704443 23.794586,19.129900 
	C23.358791,18.812365 23.200016,18.670954 22.876408,18.268349 
	C22.713312,17.424002 23.351536,16.601929 21.886868,16.295292 
	C21.513069,15.945227 21.389030,15.775336 21.121548,15.319057 
	C20.900574,14.831817 20.823048,14.630967 20.648981,14.120417 
	C20.102646,12.463781 20.415108,10.774323 18.551186,9.776196 
	C17.786142,9.250472 17.353729,8.812227 16.640436,8.250472 
	C15.439174,7.569162 14.395238,7.872924 13.064430,7.681309 
	C9.801081,5.180709 11.838764,3.386969 13.748869,1.272678 
	C24.687561,1.000000 35.375122,1.000000 46.531342,1.000000 
z"/>
<path fill="#F6E6EB" opacity="0.000000" stroke="none" 
	d="
M13.523338,1.000000 
	C15.555212,3.134066 9.792680,4.611996 13.819075,6.996992 
	C14.532213,7.436492 14.752293,7.884799 14.846466,8.783802 
	C14.736244,10.435942 14.296420,11.622391 13.741949,13.164867 
	C11.421792,18.804668 10.426848,24.405766 9.234089,30.332355 
	C8.929698,31.868380 8.566814,33.016373 8.361940,34.560604 
	C8.250725,35.617744 8.100373,36.306076 7.768658,37.306793 
	C7.233523,38.452816 6.590646,39.118938 5.928207,40.180931 
	C5.426085,40.803814 5.056553,41.057636 4.312023,41.116467 
	C3.207171,40.683784 2.421840,40.367352 1.318255,40.025459 
	C1.000000,27.940428 1.047235,15.880493 0.954726,3.821631 
	C0.938820,1.748176 0.999141,0.636591 3.638773,0.921541 
	C6.741408,1.256472 9.907886,1.000000 13.523338,1.000000 
z"/>
<path fill="#FAF2F4" opacity="0.000000" stroke="none" 
	d="
M18.465803,91.994942 
	C18.285234,85.148872 16.973352,78.194832 20.464972,71.612701 
	C21.516808,69.629868 20.908163,66.746941 20.988369,64.274010 
	C21.052689,62.290867 20.766470,60.216606 23.304562,58.803009 
	C26.145119,58.130478 27.867008,59.543873 29.215952,61.149303 
	C32.881256,65.511513 37.644676,67.773331 43.387802,69.097672 
	C44.638756,69.571419 45.455929,70.065231 46.182865,71.205551 
	C46.302670,72.590370 45.648300,73.314705 44.810425,74.335144 
	C43.897350,75.290962 43.165642,75.909248 42.033913,76.599442 
	C41.258244,76.928329 40.795547,77.055870 39.968601,77.189232 
	C36.377441,77.600777 33.285885,75.933014 29.728561,76.632629 
	C29.240170,76.792404 29.052795,76.864044 28.607986,77.063812 
	C28.198544,77.291634 28.046539,77.391319 27.709251,77.667145 
	C27.168217,78.318031 27.247715,78.750885 27.866947,79.346512 
	C30.052835,82.267548 32.514290,81.523392 35.333500,80.407303 
	C35.876598,80.230034 36.098255,80.168785 36.661797,80.045944 
	C37.705715,79.906250 38.400318,79.942436 39.399567,80.276382 
	C41.133602,83.865196 41.116638,87.470795 40.998207,91.542114 
	C33.643040,91.996651 26.288889,91.997574 18.465803,91.994942 
z"/>
<path fill="#3E1815" opacity="1.000000" stroke="none" 
	d="
M81.080475,54.702724 
	C84.384148,60.974194 89.961212,64.948082 94.566917,70.229347 
	C96.555107,71.274940 97.927246,72.426483 98.509453,74.683533 
	C100.001976,76.597046 99.538559,79.368416 102.181412,80.208611 
	C102.458351,80.042313 102.782692,80.207764 102.858185,80.373428 
	C102.551987,82.331306 104.708015,83.270515 104.439560,85.376747 
	C103.119438,87.807144 104.603630,89.474655 105.194878,91.305801 
	C105.867851,93.390068 107.782280,95.437927 105.340195,97.868668 
	C101.013809,96.592720 99.940910,92.409241 97.372681,89.185089 
	C98.007362,84.519592 94.690125,82.374374 92.601196,79.263596 
	C92.172043,78.904671 92.009659,78.752068 91.633064,78.346252 
	C90.676773,77.037987 90.261543,75.775154 89.103256,74.601730 
	C85.358963,70.985123 82.940643,66.597023 78.717339,63.395874 
	C76.568443,60.020775 72.783058,58.117142 72.449135,53.594704 
	C72.938843,51.063362 70.380859,47.029499 76.013199,47.802650 
	C76.519661,48.045097 76.712746,48.157562 77.167953,48.472927 
	C78.330231,49.596939 79.290962,50.457157 80.353088,51.663151 
	C80.929825,52.699074 81.139893,53.514874 81.080475,54.702724 
z"/>
<path fill="#75292A" opacity="1.000000" stroke="none" 
	d="
M78.694496,62.776756 
	C84.302528,64.693810 85.709724,70.321915 89.754021,73.756210 
	C90.805595,75.045845 90.510406,76.589203 91.763191,77.771629 
	C91.990150,78.008202 92.000000,78.000000 91.995537,78.004913 
	C93.361519,80.208786 95.689690,81.882584 95.350540,85.421844 
	C92.035530,82.553497 89.092651,79.078262 86.021492,75.284393 
	C84.563850,73.837936 82.666924,73.917450 81.064415,72.628357 
	C79.759842,71.365326 79.013664,70.037880 77.664474,68.784378 
	C77.282181,68.371506 77.134666,68.197952 76.790512,67.736496 
	C76.491257,67.235374 76.388626,67.022163 76.187134,66.463303 
	C75.933395,65.129387 76.003654,64.170723 76.709305,62.985001 
	C77.420563,62.510887 77.901443,62.460087 78.694496,62.776756 
z"/>
<path fill="#481A16" opacity="1.000000" stroke="none" 
	d="
M103.834534,86.398041 
	C103.503021,84.412521 101.922073,83.113289 102.716446,80.850723 
	C107.627647,82.937431 109.653473,87.632713 112.716156,91.888718 
	C114.051445,93.328621 115.327385,94.578094 114.040657,96.270569 
	C112.548218,98.233635 110.885483,96.739487 108.964539,96.051270 
	C106.110977,93.302025 104.476891,90.255875 103.834534,86.398041 
z"/>
<path fill="#A5795A" opacity="1.000000" stroke="none" 
	d="
M35.895332,80.811165 
	C33.227726,82.386803 30.272038,84.627289 27.668789,80.092613 
	C26.265934,79.492310 26.448589,78.656128 27.107656,77.641174 
	C27.508478,77.488617 27.486967,77.326385 27.405144,77.326523 
	C27.283510,76.897041 27.432777,76.541267 28.011450,76.098236 
	C31.946104,74.106194 35.575413,75.753189 39.630531,76.183380 
	C40.718681,77.054451 40.787903,77.903671 40.273827,79.241737 
	C40.161308,79.891762 40.085770,80.066330 39.801224,80.310730 
	C39.034332,80.611778 38.355278,80.790527 37.327003,80.932045 
	C36.486095,79.884048 35.498287,80.036499 34.635498,79.895821 
	C34.870712,80.302444 35.370827,80.284294 35.895332,80.811165 
z"/>
<path fill="#7B4836" opacity="1.000000" stroke="none" 
	d="
M81.231346,71.857841 
	C83.257164,72.240685 84.654915,73.013618 85.804184,74.674789 
	C82.671532,74.814285 79.329933,73.887894 76.279984,76.724800 
	C75.646248,77.370216 75.192886,77.492050 74.402069,77.189789 
	C73.835114,76.752464 73.551361,76.553017 73.149673,76.117386 
	C72.646606,75.659996 72.241226,75.484772 71.499847,75.231827 
	C70.303688,74.686966 69.660011,74.061272 69.448341,72.706291 
	C70.110252,70.262848 70.570435,68.109352 71.843338,65.890381 
	C72.900955,65.395164 73.603249,65.532333 74.482056,66.310516 
	C75.487923,69.871567 78.402130,70.538979 81.231346,71.857841 
z"/>
<path fill="#8C6D72" opacity="1.000000" stroke="none" 
	d="
M43.723457,74.237724 
	C44.418468,73.370247 44.957996,72.797684 45.773094,72.109619 
	C46.594803,71.279465 46.960472,70.425179 47.988762,69.675522 
	C48.929665,69.219475 49.598347,69.170647 50.583767,69.495132 
	C51.975864,71.294876 50.462112,72.527016 50.122078,74.260681 
	C49.933594,75.172646 49.931961,75.774574 50.272533,76.654472 
	C50.390835,77.156876 50.399876,77.365829 50.186790,77.796326 
	C48.270489,79.319954 49.910244,81.939713 47.524261,83.312263 
	C47.211956,80.786324 45.117275,80.362724 42.922173,79.479416 
	C42.815506,78.846336 43.020123,78.527359 43.728790,77.965050 
	C44.130173,77.651062 44.386528,77.239296 44.344921,76.987907 
	C43.838306,76.075264 43.380032,75.411758 43.723457,74.237724 
z"/>
<path fill="#22100F" opacity="1.000000" stroke="none" 
	d="
M77.825020,44.378204 
	C79.008362,44.921764 79.845291,45.680038 80.825714,46.750679 
	C81.570335,47.525753 81.786308,48.381294 82.821770,48.806908 
	C84.821320,50.418346 86.266922,52.094193 86.871994,54.678982 
	C86.643738,55.223015 86.465340,55.426605 85.908691,55.482548 
	C84.909027,55.187126 84.287598,55.039349 83.355957,54.814445 
	C82.156502,54.111214 81.268875,53.483559 80.657219,52.149361 
	C79.809883,50.626751 78.160583,50.657936 77.206200,49.246803 
	C77.013077,48.977711 77.004440,49.003674 77.015808,48.994591 
	C76.649590,48.581448 76.420723,48.105553 76.357567,47.152901 
	C76.573059,45.941277 76.930786,45.218487 77.825020,44.378204 
z"/>
<path fill="#220C0B" opacity="1.000000" stroke="none" 
	d="
M103.630623,86.088692 
	C105.491745,88.906578 107.009262,91.766296 108.801895,94.835678 
	C109.555344,96.034492 109.135521,96.801750 108.222145,97.745995 
	C107.243156,98.893204 106.333183,98.849503 105.192474,98.234627 
	C106.761330,94.717949 103.944992,92.447350 103.106155,89.764732 
	C102.685333,88.418938 101.094505,87.265480 103.630623,86.088692 
z"/>
<path fill="#AE622F" opacity="1.000000" stroke="none" 
	d="
M50.491798,77.437607 
	C49.260567,76.942284 47.676125,76.949112 48.920532,75.002243 
	C53.159073,72.713852 57.358345,72.274063 62.122066,73.169571 
	C63.494591,74.000557 63.325169,74.740837 62.348038,75.789291 
	C59.118736,77.427658 55.919399,76.765724 52.492622,77.531639 
	C51.655415,77.494217 51.236710,77.447159 50.491798,77.437607 
z"/>
<path fill="#AA7D57" opacity="1.000000" stroke="none" 
	d="
M98.221001,75.238998 
	C96.992371,73.721603 95.998665,72.374725 94.925491,70.730911 
	C97.941231,71.375366 101.663689,69.083755 104.489655,72.033211 
	C103.181702,74.417763 100.652985,73.060013 99.031830,74.678604 
	C98.754227,75.162872 98.605080,75.286194 98.221001,75.238998 
z"/>
<path fill="#6E433B" opacity="1.000000" stroke="none" 
	d="
M108.363022,97.995621 
	C108.263039,97.202179 108.550423,96.420334 108.957397,95.341919 
	C110.680733,94.523903 111.598694,97.616135 113.363716,95.915977 
	C114.517456,94.804642 113.074112,93.851906 112.948097,92.474930 
	C115.184593,93.118286 116.674042,94.912109 115.466782,97.137497 
	C113.893906,100.036819 111.041336,97.890739 108.363022,97.995621 
z"/>
<path fill="#893E10" opacity="1.000000" stroke="none" 
	d="
M62.298740,76.110794 
	C62.262589,75.505386 62.513908,74.949547 62.842468,74.098045 
	C63.402950,73.303368 64.023216,73.062958 64.992989,72.783165 
	C65.748825,72.577850 66.184074,72.469505 66.952881,72.290161 
	C67.975349,72.106537 68.653336,72.145615 69.584419,72.598557 
	C70.426628,73.321609 70.998932,73.830467 71.751633,74.570572 
	C71.397095,75.734184 70.363945,75.775047 69.181465,76.272270 
	C68.133057,76.501205 67.418327,76.492241 66.369324,76.315247 
	C64.886040,76.176308 63.736126,76.168335 62.298740,76.110794 
z"/>
<path fill="#481A16" opacity="1.000000" stroke="none" 
	d="
M98.037170,75.436829 
	C97.986076,75.068481 98.446205,75.094208 98.674789,75.066879 
	C99.988342,76.533714 101.073318,78.027870 102.308319,79.782173 
	C97.879745,81.849808 99.584770,77.176498 98.037170,75.436829 
z"/>
<path fill="#89624D" opacity="1.000000" stroke="none" 
	d="
M44.834267,77.763550 
	C44.453182,78.369873 43.901230,78.714668 43.016251,79.137268 
	C42.036449,79.298141 41.389679,79.381195 40.429295,79.564491 
	C40.084423,78.822617 40.053162,77.980499 40.031826,76.718872 
	C40.466709,76.203438 40.891674,76.107529 41.644531,75.994835 
	C42.957047,76.331314 43.822353,76.895256 44.834267,77.763550 
z"/>
<path fill="#403232" opacity="1.000000" stroke="none" 
	d="
M80.723541,51.822266 
	C81.956924,52.409401 82.683182,53.068432 83.020004,54.432529 
	C82.608994,54.827080 82.172256,54.916843 81.394928,55.012566 
	C80.072540,54.526920 80.043221,53.614010 80.023552,52.352779 
	C80.177002,51.883461 80.333649,51.756783 80.723541,51.822266 
z"/>
<path fill="#A0705F" opacity="1.000000" stroke="none" 
	d="
M68.770050,76.163612 
	C69.778717,75.453522 70.546509,75.188789 71.623169,74.862946 
	C72.226517,74.999374 72.520988,75.196930 72.923615,75.637833 
	C72.052628,76.126801 71.073509,76.372398 69.806847,76.719650 
	C69.189262,76.750511 68.859215,76.679756 68.770050,76.163612 
z"/>
<path fill="#75292A" opacity="1.000000" stroke="none" 
	d="
M97.242996,89.114601 
	C96.456375,88.292084 95.782951,87.473259 95.043976,86.341576 
	C94.978416,86.028725 95.168159,85.846245 95.264053,85.756073 
	C97.369102,85.329254 97.747253,86.589630 97.660278,88.560181 
	C97.515198,88.956985 97.356186,89.118294 97.242996,89.114601 
z"/>
<path fill="#A0705F" opacity="1.000000" stroke="none" 
	d="
M74.157623,77.242065 
	C74.545006,76.965332 74.971146,76.978745 75.717178,77.012985 
	C75.834869,77.549156 75.632645,78.064507 75.430428,78.579865 
	C75.019073,78.230652 74.607727,77.881439 74.157623,77.242065 
z"/>
<path fill="#443D3F" opacity="1.000000" stroke="none" 
	d="
M85.640167,55.546196 
	C85.735176,55.239140 85.939903,55.143372 86.483383,55.033516 
	C86.984962,55.394234 87.147804,55.769035 87.310638,56.143841 
	C86.790390,56.015060 86.270142,55.886276 85.640167,55.546196 
z"/>
<path fill="#443D3F" opacity="1.000000" stroke="none" 
	d="
M82.981659,48.689091 
	C82.068069,49.057789 81.404991,48.608669 80.991913,47.388817 
	C80.969193,47.063046 81.414246,47.042664 81.636887,47.049725 
	C82.207146,47.507641 82.554756,47.958500 82.981659,48.689091 
z"/>
<path fill="#FAF2F4" opacity="0.000000" stroke="none" 
	d="
M68.632713,75.740967 
	C69.093697,75.902840 69.176476,76.087433 69.389282,76.546661 
	C68.542656,76.769310 67.565994,76.717316 66.312653,76.424805 
	C66.775475,76.044075 67.514984,75.903877 68.632713,75.740967 
z"/>
<path fill="#DAC0AE" opacity="0.000000" stroke="none" 
	d="
M50.109810,77.550827 
	C50.607262,77.385872 51.039875,77.371002 51.768074,77.491669 
	C51.547710,77.790779 51.031757,77.954361 50.240234,78.067909 
	C49.964657,78.017868 50.044971,77.700905 50.109810,77.550827 
z"/>
<path fill="#592F34" opacity="1.000000" stroke="none" 
	d="
M45.649338,27.356617 
	C48.791248,27.635578 51.595177,28.044554 53.728325,30.786079 
	C55.975098,36.504295 61.093620,36.161304 65.800980,37.326553 
	C66.964188,38.021770 67.471779,38.810482 67.810074,40.114220 
	C67.887299,41.862217 67.434250,43.234840 67.711105,44.992126 
	C67.737343,45.826382 67.647110,46.292030 67.272964,47.036308 
	C66.436920,47.740158 65.749107,47.869473 64.681992,47.716728 
	C62.766796,47.120422 61.946987,44.184891 59.324059,46.335487 
	C58.857864,46.640125 58.658775,46.746117 58.140018,46.973686 
	C52.488022,47.924736 52.488022,47.924736 53.075462,42.079987 
	C51.179058,40.863529 49.616623,39.544907 47.152687,40.626083 
	C44.330647,41.629799 41.914658,39.685928 39.066750,40.491264 
	C36.187481,36.667221 36.539513,35.996231 41.753399,34.823257 
	C41.374134,33.224197 39.132759,32.649479 39.556225,30.366192 
	C41.279163,28.589161 43.177464,27.763586 45.649338,27.356617 
z"/>
<path fill="#733F3F" opacity="1.000000" stroke="none" 
	d="
M22.905508,17.838802 
	C26.987280,20.135485 30.584717,23.027025 35.435390,24.439850 
	C36.159981,24.815269 36.527950,25.095224 37.019672,25.573553 
	C37.555962,27.790302 35.901150,27.737394 34.346474,28.223227 
	C33.698078,28.280668 33.439064,28.289806 32.793938,28.289110 
	C31.899977,28.233850 31.396967,28.156942 30.533257,27.964468 
	C29.445768,27.694124 28.748917,27.419394 27.651716,27.173553 
	C26.799534,26.919390 26.339804,26.701920 25.616497,26.169575 
	C23.787851,23.527197 21.653997,21.350550 22.905508,17.838802 
z"/>
<path fill="#684A51" opacity="1.000000" stroke="none" 
	d="
M66.176468,37.636375 
	C63.248352,37.733753 60.409798,37.951077 57.865227,37.188026 
	C55.593033,36.506653 53.593647,34.778236 54.005150,31.387934 
	C54.991707,30.734657 55.997921,30.427813 56.802948,31.836689 
	C59.709084,33.089546 62.358398,34.307217 65.261932,35.793076 
	C65.627792,35.827209 65.854729,35.779175 65.922234,35.873489 
	C66.373802,36.347778 66.508514,36.801754 66.176468,37.636375 
z"/>
<path fill="#6E424E" opacity="1.000000" stroke="none" 
	d="
M45.612358,27.112690 
	C44.399326,28.486376 43.184795,30.424627 40.368053,30.036243 
	C38.508968,31.751230 36.982780,33.387241 34.019596,32.312958 
	C31.307699,26.905031 36.105095,27.952984 38.659843,26.543474 
	C41.092033,26.555517 43.167866,26.770044 45.612358,27.112690 
z"/>
<path fill="#84515D" opacity="1.000000" stroke="none" 
	d="
M38.735748,26.158171 
	C38.768257,27.772173 37.727421,28.043152 36.519230,28.002218 
	C34.246368,27.925207 33.917137,29.372702 33.990086,31.550541 
	C33.409534,32.682583 32.603077,32.895885 31.289799,32.859856 
	C30.600067,32.675308 30.337242,32.555176 29.773052,32.121578 
	C28.738857,30.420242 28.719091,29.033447 29.801083,27.357193 
	C30.522209,27.053108 30.920191,27.039654 31.616776,27.019867 
	C32.104393,27.132286 32.293411,27.251038 32.765884,27.191559 
	C34.287338,26.938663 35.596001,27.263254 36.916195,26.070541 
	C37.580711,25.839735 38.018005,25.907541 38.735748,26.158171 
z"/>
<path fill="#644D53" opacity="1.000000" stroke="none" 
	d="
M65.441612,35.589340 
	C62.276192,36.278473 59.926929,34.136223 57.168312,32.307850 
	C59.516716,31.252312 61.297684,32.854279 63.582573,34.075455 
	C64.369804,34.586372 64.812622,34.968922 65.441612,35.589340 
z"/>
<path fill="#4D3338" opacity="1.000000" stroke="none" 
	d="
M66.092331,38.243057 
	C65.971092,37.504395 65.983200,37.065754 65.992523,36.297462 
	C70.747208,37.107311 73.657043,41.156364 77.879105,43.698303 
	C77.055809,44.709339 76.981949,45.964798 76.117355,47.157410 
	C74.050949,47.667404 72.588905,46.915291 71.049782,45.465698 
	C71.125427,44.711262 70.908966,43.664627 70.500786,43.615223 
	C69.141357,43.450687 68.050606,42.855408 67.159088,41.333138 
	C66.740082,40.180622 66.482887,39.361851 66.092331,38.243057 
z"/>
<path fill="#382727" opacity="1.000000" stroke="none" 
	d="
M76.236053,47.177948 
	C76.062553,45.835934 75.806694,44.538521 77.706635,44.051590 
	C78.050545,43.987614 78.159950,44.041897 78.165688,44.102692 
	C77.977768,44.928772 77.784119,45.694054 77.310760,46.742332 
	C76.850029,47.144844 76.668999,47.264362 76.236053,47.177948 
z"/>
<path fill="#F36056" opacity="1.000000" stroke="none" 
	d="
M44.017994,69.465454 
	C38.222427,69.444351 33.214241,67.266571 29.300594,62.671658 
	C27.959347,61.096939 25.994522,60.053337 24.007841,58.683876 
	C21.416300,55.189747 19.131506,51.778828 16.649353,48.104866 
	C15.601262,47.731071 15.360939,47.115593 15.280832,46.045135 
	C15.392817,45.484322 15.476409,45.269493 15.781845,44.791275 
	C16.910458,43.849899 17.882528,43.270470 19.153881,42.539528 
	C19.939844,42.374107 20.389471,42.433273 21.095535,42.804306 
	C21.683455,43.595516 21.854548,44.189606 21.619890,44.840965 
	C22.181883,44.595684 21.997786,43.961544 22.290958,43.557774 
	C22.905384,42.711552 23.698357,42.299137 25.083149,42.393692 
	C28.061825,45.779503 28.070419,50.312805 30.780748,53.980911 
	C31.342405,57.797314 32.766010,60.032379 36.778629,60.203922 
	C39.847828,60.335129 42.749027,61.263050 42.002388,65.555023 
	C41.746029,67.028687 43.275658,67.738586 44.017994,69.465454 
z"/>
<path fill="#C23728" opacity="1.000000" stroke="none" 
	d="
M11.957243,41.777870 
	C10.429938,41.996853 9.216360,42.125603 7.637421,42.282639 
	C6.816379,42.480480 6.396957,42.405800 5.842692,41.822540 
	C5.704539,41.294472 5.732079,41.067192 6.148519,40.284210 
	C6.731596,39.609684 6.925772,39.490864 7.441181,39.259758 
	C8.204329,39.055775 8.650408,38.996445 9.435773,38.972191 
	C10.214972,38.999683 10.654024,39.066822 11.395107,39.298180 
	C11.877839,39.555340 12.051795,39.691044 12.364960,40.125759 
	C12.548195,40.868210 12.477335,41.290436 11.957243,41.777870 
z"/>
<path fill="#F6E6EB" opacity="0.000000" stroke="none" 
	d="
M16.072578,45.230480 
	C16.094336,46.143051 16.218782,46.701771 16.397610,47.551159 
	C13.857813,47.685764 12.545492,46.138432 12.003779,43.379074 
	C12.196232,42.871319 12.394304,42.733105 12.954566,42.632782 
	C14.474367,43.140648 15.460567,43.832733 16.072578,45.230480 
z"/>
<path fill="#E57E6A" opacity="1.000000" stroke="none" 
	d="
M6.143420,40.836067 
	C6.207626,41.368374 6.478005,41.668701 7.010222,42.139977 
	C7.272059,42.310928 7.194763,42.678677 7.127104,42.853966 
	C6.677132,43.344696 6.235918,43.477100 5.402169,43.344421 
	C4.719472,42.709892 4.378786,42.183437 4.015301,41.328598 
	C4.258872,40.780857 4.525242,40.561501 4.973623,40.152428 
	C5.339471,39.869701 5.523307,39.776691 5.975623,39.838036 
	C6.279266,40.196293 6.314430,40.400188 6.143420,40.836067 
z"/>
<path fill="#30161A" opacity="1.000000" stroke="none" 
	d="
M13.296282,43.049431 
	C12.951531,43.218258 12.478157,43.098698 12.238159,43.054115 
	C11.948254,42.817272 11.898348,42.625011 11.745979,42.150425 
	C11.840634,41.438683 12.037752,41.009262 12.470131,40.313492 
	C15.423919,40.196922 14.655419,41.498161 13.296282,43.049431 
z"/>
<path fill="#F6E6EB" opacity="0.000000" stroke="none" 
	d="
M5.228931,43.421463 
	C5.501819,43.156521 5.943478,43.076691 6.722292,43.013062 
	C7.098832,44.929432 6.043765,43.679371 5.228931,43.421463 
z"/>
<path fill="#A11C10" opacity="1.000000" stroke="none" 
	d="
M23.180101,17.427826 
	C22.772003,20.639986 25.367971,22.564793 26.094734,25.577026 
	C25.814543,26.347301 25.436283,26.654118 24.621346,26.949940 
	C20.576591,27.224787 17.370985,23.967621 13.174955,25.357605 
	C13.279588,21.275448 13.587275,17.354750 12.590704,13.128333 
	C12.900457,11.732107 13.307801,10.659867 13.920973,9.304750 
	C14.535580,8.175220 15.062825,7.473272 16.423450,7.489153 
	C16.911057,7.709534 17.081226,7.842299 17.367947,8.271874 
	C17.756853,9.352595 18.116222,10.091047 18.814991,10.987995 
	C19.130247,11.384133 19.255396,11.543780 19.547955,11.957747 
	C20.045229,13.198580 20.691353,13.957544 21.615486,14.888791 
	C21.775002,15.146330 22.037333,15.543081 22.180304,15.733126 
	C22.454058,16.098682 22.584841,16.274193 22.909393,16.714748 
	C23.103161,16.979792 23.160734,17.277472 23.180101,17.427826 
z"/>
<path fill="#E2CBCD" opacity="0.000000" stroke="none" 
	d="
M19.073700,12.640706 
	C18.712315,12.576506 18.270405,12.343859 18.063251,12.204432 
	C17.565311,11.522286 17.507822,10.933692 17.519754,10.033488 
	C17.549244,9.536777 17.574369,9.338882 17.814966,8.933363 
	C21.689087,8.307207 21.331034,11.163014 21.898777,13.666576 
	C20.393431,15.063860 19.813274,14.086518 19.073700,12.640706 
z"/>
<path fill="#B35C52" opacity="1.000000" stroke="none" 
	d="
M17.152191,7.897128 
	C16.133961,8.310721 15.405266,8.555840 14.401686,8.911415 
	C14.125428,8.586920 14.124055,8.151965 14.146544,7.387430 
	C15.020088,6.503489 15.727408,5.212939 17.129791,6.796108 
	C17.361914,7.289198 17.401819,7.508925 17.152191,7.897128 
z"/>
<path fill="#AE655F" opacity="1.000000" stroke="none" 
	d="
M18.774939,12.891727 
	C20.189262,11.841277 20.113649,14.146831 21.666889,13.950641 
	C21.998619,14.186559 21.997086,14.386731 21.885277,14.866617 
	C20.327896,15.208654 19.156456,14.853448 18.774939,12.891727 
z"/>
<path fill="#E2CBCD" opacity="0.000000" stroke="none" 
	d="
M23.265699,16.865604 
	C22.801949,16.810417 22.500736,16.641043 22.261398,16.197418 
	C22.880882,15.946726 23.459608,15.942109 23.265699,16.865604 
z"/>
<path fill="#F6E6EB" opacity="0.000000" stroke="none" 
	d="
M16.920818,8.269978 
	C16.953991,7.906332 17.045322,7.747060 17.229332,7.328629 
	C17.544205,7.468300 17.766401,7.867129 18.009518,8.495850 
	C18.030436,8.725739 17.923779,8.959745 17.896667,9.085439 
	C17.690752,9.267969 17.511950,9.324806 17.193867,9.137096 
	C17.054585,8.892550 16.978977,8.474352 16.920818,8.269978 
z"/>
<path fill="#4A1C1D" opacity="1.000000" stroke="none" 
	d="
M13.083400,43.531715 
	C13.057811,42.230488 14.560957,41.350414 12.942966,40.147575 
	C12.705390,40.047134 12.341241,39.961807 12.155239,39.981155 
	C11.819199,39.839561 11.669161,39.678616 11.292353,39.278259 
	C9.964020,37.674694 8.573309,36.588470 7.364341,34.939873 
	C6.924850,33.591259 7.091392,32.627338 7.799274,31.449089 
	C8.914622,29.602316 9.601102,27.763981 12.064695,27.113930 
	C13.330579,26.958267 14.140189,27.129557 15.206299,27.846153 
	C16.501579,29.688261 16.301958,31.447784 16.453184,33.577385 
	C16.135900,37.406803 17.515322,40.762951 16.532682,44.537884 
	C16.303879,44.899452 16.038469,45.193855 16.004179,45.389091 
	C14.568615,45.769730 14.056884,44.546200 13.083400,43.531715 
z"/>
<path fill="#EB3228" opacity="1.000000" stroke="none" 
	d="
M12.186916,27.607582 
	C10.799513,28.858789 9.683658,29.889494 8.262473,31.054638 
	C8.646824,25.094776 10.645166,19.302595 12.281130,13.091082 
	C14.865157,16.493389 16.615732,20.217493 13.113173,24.578571 
	C13.639585,25.937138 13.163220,26.691267 12.186916,27.607582 
z"/>
<path fill="#D86068" opacity="1.000000" stroke="none" 
	d="
M7.199051,35.004452 
	C9.679201,34.890987 11.057805,36.525574 12.301983,38.698044 
	C11.703359,39.405579 11.042216,39.473995 10.092907,39.727699 
	C9.440723,39.847538 9.095365,39.847767 8.491777,39.869598 
	C7.891849,39.736012 7.585181,39.528198 7.135584,39.053684 
	C6.900839,38.654987 6.838981,38.477993 6.778904,38.019764 
	C6.888241,36.955624 6.995797,36.172722 7.199051,35.004452 
z"/>
<path fill="#D86068" opacity="1.000000" stroke="none" 
	d="
M6.314537,40.197620 
	C6.094546,40.017731 5.624796,39.984989 5.390216,39.973850 
	C5.519730,39.304848 5.883823,38.646988 6.514301,37.863827 
	C6.780686,37.738529 6.980620,37.992977 7.079038,38.121403 
	C7.392598,38.636711 7.472349,39.051880 7.243219,39.751999 
	C7.049616,40.012859 7.021113,40.026699 7.009279,40.037231 
	C6.843139,40.157681 6.688833,40.267597 6.314537,40.197620 
z"/>
<path fill="#81501D" opacity="1.000000" stroke="none" 
	d="
M36.323582,81.048019 
	C34.290539,80.514503 32.181278,81.916451 30.130917,79.958916 
	C32.386448,78.359726 34.944942,78.840347 37.160538,78.394318 
	C38.149860,78.195145 37.630703,79.592316 37.148426,80.601494 
	C36.977787,80.894814 36.547768,81.027962 36.323582,81.048019 
z"/>
<path fill="#B57E61" opacity="1.000000" stroke="none" 
	d="
M45.005203,78.014084 
	C43.895576,77.878693 42.591709,78.142311 42.044724,76.317200 
	C42.431690,75.368256 42.890949,74.758446 43.614574,74.045723 
	C43.271378,76.174950 47.191540,75.291451 46.167465,77.814209 
	C45.764656,77.860115 45.614792,77.727943 45.244637,77.799011 
	C45.024338,78.002251 45.005276,78.003090 45.005203,78.014084 
z"/>
<path fill="#E2B7B9" opacity="1.000000" stroke="none" 
	d="
M47.831814,69.950485 
	C47.838421,71.076332 47.529179,71.762817 46.343666,71.998032 
	C45.507706,71.510010 44.966747,71.025909 44.236084,70.337723 
	C44.046383,70.133644 43.928131,69.939919 43.902946,69.829269 
	C44.607094,68.996140 45.514343,69.003624 46.772240,69.185577 
	C47.296665,69.398590 47.490574,69.519699 47.831814,69.950485 
z"/>
<path fill="#F8EDF1" opacity="0.000000" stroke="none" 
	d="
M27.130852,77.366302 
	C27.496408,78.077988 27.484341,78.667358 27.448429,79.560028 
	C26.439022,79.886246 25.382769,79.892479 25.241680,78.609947 
	C25.133541,77.626938 25.833786,77.243431 27.130852,77.366302 
z"/>
<path fill="#F8EDF1" opacity="0.000000" stroke="none" 
	d="
M27.998714,76.081680 
	C28.175783,76.360718 28.072977,76.773849 27.646744,77.256821 
	C27.455158,76.956367 27.586998,76.586067 27.998714,76.081680 
z"/>
<path fill="#F8EDF1" opacity="0.000000" stroke="none" 
	d="
M25.470364,75.452782 
	C25.523243,75.421928 25.417484,75.483635 25.470364,75.452782 
z"/>
<path fill="#541C18" opacity="1.000000" stroke="none" 
	d="
M75.644196,46.943245 
	C76.158478,46.981308 76.332817,46.990597 76.769104,47.012604 
	C77.028854,47.460892 77.026657,47.896458 77.025818,48.658760 
	C72.944191,46.999485 73.760834,50.431561 73.123116,52.697388 
	C72.382431,53.648155 71.601273,53.840294 70.334747,53.753868 
	C67.332977,52.523590 66.125267,50.574677 66.722687,47.360306 
	C66.960876,46.573555 66.985901,46.140800 67.029694,45.383469 
	C67.978699,44.033649 69.092888,43.976662 70.668411,44.698997 
	C72.455345,45.610180 73.879799,46.262329 75.644196,46.943245 
z"/>
<path fill="#571911" opacity="1.000000" stroke="none" 
	d="
M69.748756,53.256790 
	C70.741364,52.996666 71.492188,52.997898 72.618240,52.997589 
	C73.466682,57.070801 77.620361,58.769310 78.986458,62.634941 
	C78.442505,63.080551 77.893661,63.161964 76.947296,63.367844 
	C74.641014,64.386665 73.081596,63.878021 71.604942,61.982063 
	C71.181580,58.851048 68.521858,56.613594 69.748756,53.256790 
z"/>
<path fill="#531A1B" opacity="1.000000" stroke="none" 
	d="
M97.797546,88.985306 
	C96.996353,87.971672 97.074074,86.664429 95.644363,85.841537 
	C95.306015,82.839737 91.935898,81.625175 91.993469,78.376740 
	C96.997566,79.654816 97.369896,85.141388 100.384109,88.483665 
	C101.345810,89.550026 98.837654,88.512260 97.797546,88.985306 
z"/>
<path fill="#541C18" opacity="1.000000" stroke="none" 
	d="
M80.914909,51.681961 
	C80.956772,52.014431 80.488319,52.009995 80.254333,52.010071 
	C78.911644,51.376194 77.496460,51.119583 77.049332,49.302090 
	C78.184349,49.956093 80.213448,49.538391 80.914909,51.681961 
z"/>
<path fill="#531A1B" opacity="1.000000" stroke="none" 
	d="
M91.966110,77.674049 
	C89.839500,77.854324 89.992516,76.256004 89.954857,74.398430 
	C91.179077,74.788666 91.574837,76.055702 91.966110,77.674049 
z"/>
<path fill="#403232" opacity="1.000000" stroke="none" 
	d="
M78.554153,55.462845 
	C78.587234,55.517540 78.521072,55.408150 78.554153,55.462845 
z"/>
<path fill="#C7594B" opacity="1.000000" stroke="none" 
	d="
M71.668152,60.946960 
	C72.715034,63.036560 74.403015,63.000034 76.238708,63.391891 
	C76.769600,64.360298 76.989418,65.228287 77.201340,66.439331 
	C76.420380,67.632385 75.488869,67.714844 74.195114,66.923424 
	C73.433044,66.324188 72.940018,66.147385 72.189148,65.922867 
	C71.035027,66.120552 70.156693,66.015503 68.968521,65.614594 
	C67.468109,64.758095 66.178787,64.212288 64.823212,63.102135 
	C64.562187,62.553986 64.521599,62.304001 64.573105,61.677742 
	C65.112083,60.584240 65.793549,60.195850 66.977676,59.855362 
	C68.814240,59.639751 70.204086,59.704613 71.668152,60.946960 
z"/>
<path fill="#F3E0E0" opacity="0.000000" stroke="none" 
	d="
M73.891029,66.954948 
	C74.739975,66.638771 75.553871,66.776558 76.780602,66.848366 
	C77.193436,66.782394 77.194756,66.860092 77.232719,66.851807 
	C77.280273,67.200005 77.430267,67.474297 77.997261,67.639732 
	C79.356277,68.850815 80.462364,70.074677 81.556046,71.662552 
	C77.799995,72.453667 73.824623,73.266571 73.891029,66.954948 
z"/>
<path fill="#C7594B" opacity="1.000000" stroke="none" 
	d="
M78.162605,67.413239 
	C77.943657,67.534004 77.637138,67.441055 77.300652,67.095810 
	C77.611092,66.798431 77.879204,66.917099 78.162605,67.413239 
z"/>
<path fill="#F1E6E5" opacity="0.000000" stroke="none" 
	d="
M68.825729,64.831161 
	C69.870689,65.199707 70.658272,65.347145 71.688583,65.684875 
	C71.509979,68.013077 72.634926,70.578033 70.025162,72.485764 
	C69.152092,72.910927 68.449860,73.009109 67.396713,73.167145 
	C66.709961,73.384583 66.373169,73.540100 65.797256,73.549675 
	C64.891075,73.462585 64.223190,73.519676 63.237514,73.689575 
	C58.626190,74.180565 54.332668,74.558739 49.620678,74.876694 
	C48.985470,73.117729 49.487148,71.695129 51.030949,70.322327 
	C51.543240,69.625519 51.937836,69.311272 52.784431,68.996696 
	C54.368931,68.647743 55.607315,68.720001 57.192879,68.677216 
	C58.676186,68.655220 59.813244,68.732635 61.229778,68.298523 
	C63.639744,67.399017 65.315742,65.894188 67.570847,64.719025 
	C68.115967,64.605812 68.342163,64.607933 68.825729,64.831161 
z"/>
<path fill="#BE452F" opacity="1.000000" stroke="none" 
	d="
M53.201485,69.135712 
	C52.605381,69.895355 52.215874,69.961227 51.531536,70.038879 
	C50.415897,70.056374 49.595085,70.062096 48.376709,70.163986 
	C47.979149,70.260155 47.911461,70.171005 47.917175,70.115326 
	C47.324459,67.105309 47.384129,64.185020 48.591137,61.025738 
	C49.209576,60.462975 49.651337,60.277222 50.490589,60.136055 
	C52.080906,60.136707 53.223228,60.638504 54.794548,60.812538 
	C56.843708,61.355083 57.639545,62.335796 56.867996,64.455627 
	C56.264462,65.567284 55.579746,66.162277 54.739956,67.025383 
	C54.116322,67.607887 53.655010,67.925522 53.201485,69.135712 
z"/>
<path fill="#89624D" opacity="1.000000" stroke="none" 
	d="
M45.246925,78.003395 
	C45.274494,77.890205 45.524651,77.778160 45.844662,77.829193 
	C45.914516,77.992279 45.469509,78.004539 45.246925,78.003395 
z"/>
<path fill="#A16C4F" opacity="1.000000" stroke="none" 
	d="
M65.807861,73.536591 
	C65.886787,73.285667 66.214622,73.165848 66.794128,73.136505 
	C66.716125,73.373894 66.386444,73.520798 65.807861,73.536591 
z"/>
<path fill="#68373F" opacity="1.000000" stroke="none" 
	d="
M52.679443,40.990234 
	C59.466640,42.035786 54.394871,44.412163 53.449055,46.245705 
	C54.913319,47.108147 56.024590,45.703472 57.623348,46.010658 
	C60.129398,49.580509 59.446316,54.594727 56.242241,56.091511 
	C49.909149,53.490856 44.264381,50.302940 38.648731,46.330162 
	C37.917183,45.036362 37.769356,43.987885 37.804295,42.502777 
	C37.942184,41.558395 38.141506,41.057053 38.710579,40.293747 
	C41.401665,36.143749 43.816071,41.204445 46.610619,39.993477 
	C48.770271,40.336746 50.497795,40.965370 52.679443,40.990234 
z"/>
<path fill="#582D30" opacity="1.000000" stroke="none" 
	d="
M55.849251,55.355022 
	C56.731094,54.844982 58.087574,54.875259 58.220005,54.487499 
	C59.012821,52.166073 55.708778,52.854828 55.527996,50.613560 
	C56.569138,49.748249 60.079666,49.816246 58.024101,46.355385 
	C58.149830,46.004826 58.319614,46.002819 58.744087,45.999870 
	C60.882690,45.299122 62.158569,46.621338 63.915749,47.545547 
	C64.368172,47.794571 64.621857,47.871029 64.630875,47.969818 
	C65.019669,52.230400 67.779648,55.938171 67.163887,60.412529 
	C65.803925,60.405792 64.868103,60.715122 63.552448,61.051018 
	C62.135288,61.062145 61.197475,60.719589 60.025360,59.954712 
	C58.526447,58.272007 56.357891,57.757481 55.849251,55.355022 
z"/>
<path fill="#6D292F" opacity="1.000000" stroke="none" 
	d="
M38.720863,39.755924 
	C38.987244,40.439106 38.988747,40.884026 38.989922,41.662560 
	C32.586529,42.103527 29.271454,38.464783 30.767536,32.343903 
	C31.773001,32.000626 32.511925,31.992216 33.619602,31.963177 
	C36.171867,32.522499 37.474152,30.572102 39.647789,30.072386 
	C40.093475,31.527391 40.769276,32.537491 42.255768,32.938427 
	C43.574326,33.294067 45.074986,33.757694 44.502834,35.496418 
	C44.001781,37.019096 42.606586,37.087261 41.178299,36.582413 
	C38.057278,35.479252 37.639935,36.939903 38.720863,39.755924 
z"/>
<path fill="#251411" opacity="1.000000" stroke="none" 
	d="
M66.766968,60.309151 
	C66.197983,57.842121 65.788361,55.583420 64.285698,53.588722 
	C63.344746,52.339664 66.451218,50.315929 64.093567,48.319283 
	C63.843044,47.839886 63.729557,47.643047 63.812817,47.167915 
	C64.741859,46.923237 65.474159,46.956852 66.571152,46.998386 
	C67.531853,48.961254 67.684616,51.132030 69.788788,52.723129 
	C69.173920,55.972023 72.874611,57.693958 72.015800,60.973183 
	C70.616585,61.152676 69.319214,61.012959 67.631546,60.833565 
	C67.008095,60.727482 66.774948,60.661083 66.766968,60.309151 
z"/>
<path fill="#773F48" opacity="1.000000" stroke="none" 
	d="
M52.827229,40.726730 
	C50.994560,42.366428 49.011314,42.804409 47.066864,40.354664 
	C49.209137,36.124313 50.789894,39.858925 52.827229,40.726730 
z"/>
<path fill="#5A3C3E" opacity="1.000000" stroke="none" 
	d="
M71.175140,44.728348 
	C69.967606,44.980919 68.904312,45.003803 67.444748,45.042789 
	C65.579567,44.033092 66.059235,42.829651 66.865601,41.303913 
	C68.462685,41.651848 69.910545,42.348045 71.398247,42.944916 
	C73.007851,43.590702 71.645668,43.999184 71.175140,44.728348 
z"/>
<path fill="#42211E" opacity="1.000000" stroke="none" 
	d="
M63.974220,46.565567 
	C64.003952,47.080807 63.998348,47.271992 63.974640,47.749954 
	C62.194145,48.249218 60.853992,47.405033 59.307888,46.150810 
	C60.899948,40.897491 62.390728,44.153698 63.974220,46.565567 
z"/>
<path fill="#9B3840" opacity="1.000000" stroke="none" 
	d="
M29.932438,26.822136 
	C30.090490,28.428759 30.056753,29.790953 30.032486,31.563244 
	C29.920176,33.717396 30.229486,35.569248 28.489990,37.222725 
	C27.483715,37.813656 26.739204,37.906631 25.607121,37.656754 
	C24.836817,37.236504 24.519543,36.863907 24.238583,36.040436 
	C24.158985,35.447369 24.160313,35.208965 24.239254,34.626205 
	C24.498512,33.862980 24.725916,33.471451 25.227448,32.877327 
	C25.865562,32.202179 26.318813,31.789667 26.697985,30.957430 
	C26.904964,30.298101 27.012646,29.917025 27.176867,29.240566 
	C27.401232,28.149967 27.333797,27.320490 27.796757,26.311813 
	C28.587568,26.250839 29.164108,26.414272 29.932438,26.822136 
z"/>
<path fill="#B22E27" opacity="1.000000" stroke="none" 
	d="
M27.696562,26.050594 
	C28.118961,26.949102 28.226894,27.810799 28.133041,28.836845 
	C26.668715,30.123709 25.265774,30.999857 23.643517,29.886341 
	C22.305872,28.968180 22.547445,27.727320 23.751488,26.283367 
	C24.479538,25.987951 24.947840,25.983723 25.769363,25.965269 
	C26.542423,25.971956 26.962259,25.992868 27.696562,26.050594 
z"/>
<path fill="#9B3840" opacity="1.000000" stroke="none" 
	d="
M32.765850,27.008644 
	C32.746208,27.123690 32.443077,27.234049 32.027664,27.178970 
	C32.104374,27.010342 32.293369,27.007149 32.765850,27.008644 
z"/>
<path fill="#8A3C40" opacity="1.000000" stroke="none" 
	d="
M27.749979,37.266396 
	C28.494190,35.479500 28.999147,33.946686 29.773029,32.193607 
	C30.041956,31.973341 30.537888,31.983290 30.785982,31.996159 
	C29.965364,37.874863 34.097038,39.832310 38.659042,41.855473 
	C39.004044,43.053959 39.018490,44.111744 39.039452,45.566078 
	C36.823261,45.947704 35.118584,47.321014 33.178261,48.084538 
	C29.726521,49.442806 27.467415,48.263802 27.239367,44.670914 
	C27.091230,42.337006 25.660093,39.814980 27.749979,37.266396 
z"/>
<path fill="#A6413D" opacity="1.000000" stroke="none" 
	d="
M27.617760,37.008537 
	C28.089722,39.821671 28.089853,42.640366 28.350031,45.434856 
	C28.431217,46.306816 28.986200,47.704739 30.068569,47.530682 
	C31.595018,47.285213 34.074940,47.688499 34.454929,46.097015 
	C35.586750,41.356670 37.113678,45.545547 38.736740,45.835464 
	C44.654774,48.579399 50.075897,51.535027 55.594917,54.972610 
	C56.522717,57.099720 59.283165,56.515423 60.139908,58.701904 
	C59.236855,60.165157 57.905998,60.229805 56.176491,60.231915 
	C54.329220,60.123535 52.954727,59.285412 51.068237,59.743404 
	C49.149540,59.808781 47.832577,59.325897 46.824005,57.668610 
	C46.833591,56.986050 47.033680,56.744995 47.351505,56.657509 
	C47.493752,56.618355 47.715744,56.711033 47.796394,56.633915 
	C48.108120,56.335854 48.024067,56.277039 47.321423,56.522133 
	C46.842300,56.562244 46.644173,56.598541 46.130394,56.621094 
	C43.669147,56.384403 41.859146,54.489124 39.176147,55.455887 
	C38.404816,55.659042 37.953140,55.678421 37.178703,55.511734 
	C35.187393,54.770218 33.883396,51.722725 31.447067,54.866657 
	C31.007027,55.200096 30.794827,55.283077 30.296650,55.178909 
	C28.081120,51.326942 25.234268,48.020000 25.245682,43.218925 
	C24.825073,42.791306 24.681959,42.634422 24.400578,42.189476 
	C24.178543,41.482113 24.141832,41.059032 24.184341,40.314651 
	C24.308870,39.158199 24.299047,38.301609 24.805525,37.252800 
	C25.759604,37.010563 26.502941,37.007664 27.617760,37.008537 
z"/>
<path fill="#DF523C" opacity="1.000000" stroke="none" 
	d="
M30.008963,55.376919 
	C30.186710,54.972092 30.362747,54.952415 30.802870,54.903465 
	C32.679081,53.453369 33.693092,57.239136 35.728127,55.425125 
	C39.894802,58.006245 44.722477,57.939198 48.749023,60.740227 
	C48.141068,63.783329 50.398460,66.856728 47.991547,69.745773 
	C46.840698,70.006149 45.758507,69.952652 44.277042,69.808884 
	C41.961464,68.100204 38.383118,67.619759 40.974846,63.376175 
	C41.713512,62.166710 37.917374,61.125187 36.254181,61.282158 
	C31.898314,61.693260 30.269598,59.659176 30.008963,55.376919 
z"/>
<path fill="#EE3125" opacity="1.000000" stroke="none" 
	d="
M25.198673,33.730679 
	C24.989340,34.033092 24.959869,34.472614 24.952400,34.692741 
	C24.071945,36.621788 23.114132,38.277027 21.691158,40.006363 
	C20.836403,41.026211 20.141111,41.771152 19.270752,42.765388 
	C18.948256,44.272366 18.352901,45.047695 16.630947,44.934982 
	C15.368603,41.637463 14.351645,38.386814 14.985243,34.486633 
	C15.551344,33.484871 15.500031,32.748169 15.786047,31.745861 
	C16.198080,30.826895 16.511137,30.248230 16.994465,29.804993 
	C18.287851,28.618879 19.645756,26.716202 21.510675,27.821846 
	C23.849943,29.208717 21.460432,30.902618 21.112606,32.722412 
	C20.938799,33.286453 20.973833,33.498344 21.158035,33.611481 
	C21.119724,33.350853 21.163652,33.097187 21.431389,32.568436 
	C22.240711,31.307751 22.939747,30.377674 24.676655,30.606720 
	C25.368114,31.063982 25.572737,31.495054 25.621353,32.347782 
	C25.522299,32.951370 25.465155,33.189819 25.198673,33.730679 
z"/>
<path fill="#B32C2B" opacity="1.000000" stroke="none" 
	d="
M20.647472,40.474178 
	C21.078239,37.835854 22.924673,36.692257 24.652412,35.083000 
	C24.966284,35.379669 24.987637,35.846466 25.012627,36.663364 
	C25.143494,37.867584 25.270725,38.721710 25.232956,39.769112 
	C24.513416,40.384876 24.329107,40.922653 24.770752,41.822075 
	C24.980417,42.054089 24.971794,42.501575 24.969992,42.724884 
	C22.523676,43.220535 22.710836,45.854340 20.980267,47.434860 
	C20.980267,45.935909 20.980267,44.824402 20.956476,43.348385 
	C20.423218,42.336048 20.234961,41.616604 20.647472,40.474178 
z"/>
<path fill="#F26363" opacity="1.000000" stroke="none" 
	d="
M20.510643,40.151943 
	C20.898224,40.851097 20.949005,41.561630 20.966236,42.628021 
	C20.518192,42.986622 20.103699,42.989365 19.379032,42.991470 
	C19.005571,41.879658 18.612549,40.639622 20.510643,40.151943 
z"/>
<path fill="#E84537" opacity="1.000000" stroke="none" 
	d="
M7.348066,40.006447 
	C7.059085,39.617966 7.068554,39.223072 7.127740,38.539001 
	C7.477807,38.631351 7.778157,39.012871 8.156029,39.642796 
	C8.037870,39.927475 7.842193,39.963753 7.348066,40.006447 
z"/>
<path fill="#E84537" opacity="1.000000" stroke="none" 
	d="
M10.148489,39.899780 
	C10.390815,39.583290 10.995545,39.319275 11.944641,39.063324 
	C12.271521,39.238548 12.254038,39.405701 12.102896,39.786674 
	C11.483123,39.984421 10.997008,39.968338 10.148489,39.899780 
z"/>
<path fill="#E84537" opacity="1.000000" stroke="none" 
	d="
M6.038545,40.277813 
	C6.094546,40.017731 6.546896,40.009731 6.772171,40.028748 
	C6.801745,40.318760 6.606046,40.589752 6.173797,40.964397 
	C5.952346,40.891331 5.967444,40.714611 6.038545,40.277813 
z"/>
<path fill="#CE251B" opacity="1.000000" stroke="none" 
	d="
M20.364120,34.100662 
	C19.564325,32.002151 20.658298,30.360794 21.817026,28.519470 
	C18.915010,28.450478 18.272903,30.787624 16.401081,31.901918 
	C14.857645,31.069208 15.988423,29.600866 15.153222,28.280838 
	C14.146829,28.028229 13.404214,27.959377 12.288483,27.859306 
	C12.209998,27.049042 12.504629,26.269997 12.943769,25.205772 
	C16.864206,21.579098 19.927557,25.128071 23.640862,25.982883 
	C22.748989,29.544130 24.588055,29.743622 27.606895,29.009808 
	C27.930008,29.431629 27.928766,29.862061 27.912920,30.615093 
	C27.289501,31.570751 26.559162,31.708546 25.416946,31.233040 
	C23.841585,30.908728 23.152224,31.715935 22.267710,32.816055 
	C21.377546,33.201523 21.251419,33.963764 20.364120,34.100662 
z"/>
<path fill="#AE655F" opacity="1.000000" stroke="none" 
	d="
M16.990124,9.239703 
	C17.054585,8.892550 17.479050,9.008853 17.674303,9.109993 
	C17.895054,9.925480 17.920551,10.639828 17.901072,11.709591 
	C16.923010,11.472842 16.921480,10.530922 16.990124,9.239703 
z"/>
<path fill="#9C2312" opacity="1.000000" stroke="none" 
	d="
M14.932657,28.517967 
	C17.958712,28.253181 15.371091,30.397768 16.084524,31.732609 
	C15.919623,32.613472 15.718780,33.156345 15.285484,33.878063 
	C15.027313,32.350891 15.001592,30.644875 14.932657,28.517967 
z"/>
<path fill="#8C2917" opacity="1.000000" stroke="none" 
	d="
M54.779243,59.185448 
	C56.477745,59.042187 57.908825,59.041626 59.777966,59.040535 
	C60.927685,59.334217 61.639347,59.628429 62.645222,59.949665 
	C63.514229,60.477024 64.295654,60.742680 64.783615,61.747505 
	C64.911987,62.007587 65.017128,62.448444 65.057236,62.671478 
	C65.508591,64.230545 66.977478,63.878559 68.001106,64.836594 
	C67.315361,67.691284 64.539749,67.620552 62.394585,68.959793 
	C59.263287,68.610046 56.479084,69.220245 53.345371,68.966454 
	C52.428490,68.911995 51.617695,68.948311 51.681808,68.213493 
	C51.754414,67.381371 52.621475,67.163773 53.667118,66.958115 
	C53.452793,65.119568 56.782860,68.095718 55.789711,65.250153 
	C55.592335,63.985073 57.470123,62.803356 55.331581,61.961418 
	C54.539543,61.607944 54.003216,61.319546 53.701736,60.444759 
	C53.845036,59.753082 54.114483,59.475571 54.779243,59.185448 
z"/>
<path fill="#70200B" opacity="1.000000" stroke="none" 
	d="
M68.433197,65.098877 
	C66.989883,64.557648 64.741669,66.144905 64.849731,63.124004 
	C66.574425,62.809082 67.865540,63.179787 68.945274,64.729668 
	C69.083107,65.052261 68.650826,65.104088 68.433197,65.098877 
z"/>
<path fill="#9E432E" opacity="1.000000" stroke="none" 
	d="
M65.123764,61.742897 
	C64.339661,61.506638 63.767338,61.005692 63.067223,60.240715 
	C64.020721,59.996391 65.102013,60.016098 66.587708,60.029709 
	C66.992119,60.023617 67.122139,60.407635 67.181694,60.600761 
	C66.606018,61.021996 65.970779,61.250103 65.123764,61.742897 
z"/>
<path fill="#B54023" opacity="1.000000" stroke="none" 
	d="
M53.008083,68.992035 
	C55.897823,67.836464 58.826347,67.078880 61.973816,68.639954 
	C61.161152,70.056442 59.924248,69.914459 58.376915,69.873230 
	C56.624599,69.181625 55.133816,69.645622 53.377678,69.270851 
	C53.054733,69.099579 53.020378,69.029213 53.008083,68.992035 
z"/>
<path fill="#D2553D" opacity="1.000000" stroke="none" 
	d="
M53.034454,69.281616 
	C54.521538,69.182533 55.988346,69.265480 57.737938,69.581627 
	C56.621681,69.861839 55.222633,69.908859 53.409241,69.892685 
	C52.994888,69.829483 53.014172,69.463661 53.034454,69.281616 
z"/>
<path fill="#C36A6F" opacity="1.000000" stroke="none" 
	d="
M49.294304,61.017654 
	C44.627483,59.885044 39.973804,59.616104 36.109543,56.285820 
	C36.048706,55.630405 36.257290,55.368294 36.806644,55.138016 
	C37.479858,55.115974 37.896374,55.126526 38.625011,55.151638 
	C41.126484,54.420769 43.191044,55.686813 45.693161,55.766785 
	C46.044533,55.970043 46.488976,56.002621 46.711414,56.015579 
	C47.132687,56.173813 47.331524,56.319084 47.300827,56.753761 
	C48.055687,57.694889 49.040077,58.346611 50.321968,59.063480 
	C50.832645,59.175385 51.045818,59.222145 51.376198,59.574631 
	C51.468006,60.097149 51.442608,60.313938 51.169102,60.744370 
	C50.487030,60.968952 50.053062,60.979897 49.294304,61.017654 
z"/>
<path fill="#A6413D" opacity="1.000000" stroke="none" 
	d="
M51.252151,61.103771 
	C50.920994,60.958012 50.910229,60.514931 50.916176,60.293404 
	C51.605015,59.412560 52.399982,59.244888 53.633743,59.799995 
	C54.246578,60.530571 54.523888,60.991405 54.923729,61.690922 
	C53.822281,62.057652 52.650204,61.921406 51.252151,61.103771 
z"/>
<path fill="#A6413D" opacity="1.000000" stroke="none" 
	d="
M55.609108,65.010452 
	C56.795120,66.495850 56.284176,67.124237 54.275009,66.943436 
	C54.084782,66.065224 54.374908,65.336632 55.609108,65.010452 
z"/>
<path fill="#B22E27" opacity="1.000000" stroke="none" 
	d="
M25.080452,31.324867 
	C25.798635,30.987501 26.499426,30.977171 27.549267,30.952267 
	C27.936836,31.849047 27.742081,32.622673 26.417862,32.962955 
	C25.920759,33.136978 25.737009,33.262505 25.296463,33.174774 
	C25.047462,32.524982 25.055262,32.088444 25.080452,31.324867 
z"/>
<path fill="#CE251B" opacity="1.000000" stroke="none" 
	d="
M25.016386,33.228912 
	C25.216738,32.970413 25.393808,32.979301 25.837696,32.999821 
	C25.886272,33.273975 25.668037,33.536499 25.219570,33.916058 
	C24.990597,33.854164 24.991852,33.675232 25.016386,33.228912 
z"/>
<path fill="#842E2C" opacity="1.000000" stroke="none" 
	d="
M37.004105,54.749496 
	C36.874100,55.367027 36.641750,55.582077 36.152527,55.859337 
	C34.316299,56.559841 32.927444,56.040955 31.351051,54.968575 
	C31.107580,53.742748 30.571224,51.886818 31.645706,51.688198 
	C33.810371,51.288063 35.759289,52.342346 37.004105,54.749496 
z"/>
<path fill="#CE463C" opacity="1.000000" stroke="none" 
	d="
M45.811306,55.715477 
	C43.875301,55.871319 41.706070,55.772594 39.236988,55.420036 
	C39.110405,53.887165 39.482903,52.898010 41.103107,53.591156 
	C42.589378,54.227005 44.086010,54.838619 45.811306,55.715477 
z"/>
<path fill="#703531" opacity="1.000000" stroke="none" 
	d="
M54.190056,59.944778 
	C53.208279,60.055332 52.447289,60.040928 51.304207,60.049198 
	C50.922119,60.071877 50.796818,59.593468 50.708145,59.361046 
	C51.757332,57.771610 53.051987,57.951168 54.727837,58.892345 
	C54.834721,59.301773 54.622776,59.560791 54.190056,59.944778 
z"/>
<path fill="#752229" opacity="1.000000" stroke="none" 
	d="
M25.006870,41.706001 
	C24.445292,41.797939 23.628689,41.670116 23.439922,41.256065 
	C23.144596,40.608280 23.783760,40.194324 24.751028,39.992508 
	C25.056412,40.427570 25.044868,40.892742 25.006870,41.706001 
z"/>
<path fill="#CA5251" opacity="1.000000" stroke="none" 
	d="
M47.406548,57.039062 
	C47.045990,56.874321 47.020683,56.705475 46.964615,56.282585 
	C47.890640,56.028542 48.847427,56.028542 49.969299,56.028542 
	C49.516514,57.568722 48.427593,56.770489 47.406548,57.039062 
z"/>
<path fill="#C22019" opacity="1.000000" stroke="none" 
	d="
M20.073578,34.275620 
	C20.614809,33.561840 21.163221,33.126446 21.860188,32.849564 
	C21.565495,33.772072 22.327078,36.038666 20.073578,34.275620 
z"/>
<path fill="#A6413D" opacity="1.000000" stroke="none" 
	d="
M58.530846,61.557560 
	C58.471985,61.592125 58.589710,61.522995 58.530846,61.557560 
z"/>
</svg>