<?xml version="1.0" encoding="UTF-8" standalone="no"?>
<svg viewBox="0 0 500 500" version="1.1" xmlns="http://www.w3.org/2000/svg" xmlns:xlink="http://www.w3.org/1999/xlink">
    <!-- Generator: Sketch 39.1 (31720) - http://www.bohemiancoding.com/sketch -->
    <title>CHI</title>
    <desc>Created with Sketch.</desc>
    <defs></defs>
    <g id="Page-1" stroke="none" stroke-width="1" fill="none" fill-rule="evenodd">
        <g id="CHI">
            <g id="Page-1" transform="translate(0.000000, 30.000000)">
                <path d="M82.1722892,157.639342 C80.603012,163.323178 81.7144578,169.880986 82.0668675,171.625918 C99.7746988,170.562082 107.015663,167.289205 107.015663,167.289205 L82.1722892,157.639342 Z" id="Fill-1" fill="#FEFEFE"></path>
                <path d="M58.5039157,311.16137 C56.5701807,312.152877 60.7990964,322.345205 59.398494,329.72274 C60.5701807,333.061918 65.4948795,345.249315 73.7810241,340.993973 C82.0701807,336.744658 75.0641566,325.630137 73.0400602,322.727945 C66.2358434,319.554521 60.4436747,310.169863 58.5039157,311.16137" id="Fill-3" fill="#FEFEFE"></path>
                <path d="M127.929518,188.603288 C121.083133,190.408493 114.842169,197.264658 102.40241,200.549589 C97.8481928,201.752055 93.9837349,201.987123 91.5981928,201.987123 C93.489759,204.509589 99.55,205.889863 99.55,205.889863 C99.55,205.889863 94.9566265,210.084932 94.5590361,213.213151 C96.6313253,212.034795 100.107229,210.335068 104.66747,209.129589 C117.104217,205.847671 125.908434,208.743836 132.763855,206.932603 C135.962651,206.088767 141.905422,204.443288 139.507831,195.347945 C137.110241,186.25863 131.128313,187.753425 127.929518,188.603288" id="Fill-5" fill="#FEFEFE"></path>
                <path d="M299.487048,149.551781 C298.728012,149.166027 297.803313,149.473425 297.420783,150.23589 C291.571386,161.844658 286.450904,172.89589 281.99006,183.187671 L263.962952,191.189041 C262.971988,192.768219 262.023193,194.314247 261.104518,195.827123 L280.203916,187.355616 C275.243072,199.027671 271.152711,209.650959 267.839458,218.884932 L243.791265,228.658356 C243.125602,230.192329 242.568373,231.530411 242.104518,232.669589 L266.462952,222.769589 C258.996084,244.073425 255.941867,257.095616 255.884639,257.333699 C255.691867,258.162466 256.212952,258.991233 257.041265,259.178082 C257.869578,259.373973 258.697892,258.85863 258.887651,258.026849 C258.941867,257.791781 261.878614,245.284932 269.035241,224.743562 L281.941867,246.478356 L284.191867,244.392877 C284.191867,244.392877 284.197892,244.350685 284.212952,244.275342 L270.369578,220.952329 C273.381627,212.526027 277.044277,202.891233 281.453916,192.319178 L291.447892,209.551507 C291.776205,208.116986 292.110542,206.652329 292.462952,205.163562 L282.950904,188.763014 C287.812349,177.313973 293.517169,164.828219 300.173795,151.625205 C300.553313,150.865753 300.249096,149.931507 299.487048,149.551781" id="Fill-7" fill="#FEFEFE"></path>
                <path d="M478.97741,283.140603 C473.606928,282.462521 459.878012,278.88526 444.371988,260.477589 L451.829819,238.18526 L463.621988,257.165534 C464.067771,257.888822 465.019578,258.108822 465.739458,257.662795 C466.465361,257.21074 466.685241,256.261425 466.236446,255.538137 L454.591867,236.792932 L474.378012,240.406356 C480.618976,261.818685 479.685241,277.351288 478.97741,283.140603 M433.670181,245.601973 C428.218373,236.823068 422.664157,226.477041 417.22741,215.425808 L424.847892,194.748822 L449.721386,234.785808 L442.073795,257.647726 C439.302711,254.136767 436.49247,250.143616 433.670181,245.601973 M397.284639,171.05211 L400.203313,155.073479 L422.784639,191.427726 L415.356928,211.586356 C409.025602,198.458685 402.89006,184.496219 397.284639,171.05211 M373.106928,108.445534 C382.170181,116.558411 400.766566,133.682247 419.106928,153.415945 L399.820783,148.621151 L387.414157,128.64937 C386.965361,127.926082 386.016566,127.706082 385.290663,128.15211 C384.570783,128.607178 384.347892,129.553479 384.799699,130.276767 L397.781627,151.176767 L395.10994,165.796219 C385.179217,141.632384 377.158133,119.777041 373.106928,108.445534 M454.947289,198.181425 L425.128012,189.363342 L402.152108,152.379233 L422.896084,157.532658 C434.917169,170.747726 446.534639,184.906082 454.947289,198.181425 M473.365964,237.088274 L452.396084,233.257863 L427.573795,193.296219 L457.368976,202.111288 C464.959337,214.78389 470.02259,226.582521 473.365964,237.088274 M458.35994,197.816767 C434.393072,159.235397 383.444277,113.397041 371.841867,103.192658 C371.10994,104.464438 370.230422,105.633753 369.209337,106.676493 C376.561747,127.41074 404.926205,205.170192 431.052711,247.22937 C456.60994,288.366356 481.606928,286.362247 481.606928,286.362247 C481.606928,286.362247 489.995482,248.739233 458.35994,197.816767" id="Fill-9" fill="#FEFEFE"></path>
                <path d="M252.58253,332.310301 C252.58253,328.874685 253.453012,327.593863 254.380723,327.593863 C259.925904,327.593863 262.43494,338.750575 262.43494,343.198795 C262.43494,344.395233 262.456024,346.643452 262.293373,349.286466 C256.907831,344.090849 252.58253,336.107562 252.58253,332.310301 M305.112651,105.484274 C309.531325,105.484274 308.962048,99.5653699 304.871687,99.5653699 C241.513253,99.5653699 205.245181,107.617973 199.666867,108.953041 C196.166867,77.8757808 178.326506,67.9848219 178.326506,47.8864658 C178.326506,40.084 183.48012,38.5018082 187.706024,38.5018082 C202.492169,38.5018082 213.58253,55.8486575 234.124699,55.8486575 C253.224096,55.8486575 257.329518,42.314137 268.21506,42.314137 C284.546386,42.314137 277.353614,85.7746849 306.314458,85.7746849 C315.483133,85.7746849 321.48012,82.1070137 321.48012,82.1070137 C325.374699,79.9281096 321.660843,75.2719452 318.311446,77.0198904 C318.311446,77.0198904 312.498193,80.0094795 306.814458,80.0094795 C282.338554,80.0094795 293.025301,36.3922192 267.56747,36.3922192 C255.386747,36.3922192 251.31747,49.824274 233.739157,49.824274 C214.118675,49.824274 206.335542,32.2272877 186.865663,32.2272877 C175.829518,32.2272877 171.880723,39.6289315 171.880723,47.0456438 C171.880723,69.2897534 193.826506,86.223726 193.826506,116.734411 C193.826506,147.736329 183.239157,175.049479 183.239157,218.14537 C183.239157,268.392767 230.95,283.190027 230.95,330.028932 C230.95,356.52537 241.100602,372.916877 252.483133,372.916877 C258.739157,372.916877 264.573494,369.234137 267.323494,359.496877 C268.959036,360.202082 270.46506,360.584822 271.736145,360.584822 C274.916867,360.584822 286.778313,357.104 286.778313,343.156603 C286.778313,303.225096 218.224096,282.572219 218.224096,219.998795 C218.224096,189.913041 223.043373,141.78126 230.425904,141.78126 C234.290361,141.78126 239.109639,158.627836 248.344578,158.627836 C259.784337,158.627836 255.787349,125.380712 260.901807,125.380712 C264.98012,125.380712 271.06747,140.90126 278.359639,140.90126 C284.251205,140.90126 286.218072,128.870575 288.781325,119.398521 C289.712048,115.001534 283.46506,113.756877 282.585542,118.229205 C281.007229,125.269205 277.678916,134.569479 277.678916,134.569479 C273.956024,130.844548 267.904819,119.458795 260.591566,119.458795 C248.959036,119.458795 250.651807,152.645644 248.058434,152.645644 C243.181928,152.645644 240.106627,135.431397 229.510241,135.431397 C215.865663,135.431397 211.826506,182.909205 211.826506,220.309205 C211.826506,286.065096 280.425904,308.053041 280.425904,342.535781 C280.425904,351.209205 274.133735,354.16263 271.612651,354.16263 C270.591566,354.16263 269.546386,353.936603 268.498193,353.529753 C268.799398,351.142904 268.971084,348.505918 268.971084,345.588658 C268.971084,325.267288 257.790361,321.454959 253.242169,321.454959 C248.7,321.454959 246.157831,325.405918 246.157831,331.936603 C246.157831,340.700438 253.892771,350.452767 261.437952,356.019068 C260.31747,361.491945 257.925904,366.521808 252.823494,366.521808 C242.943976,366.521808 237.377711,343.638795 237.377711,329.989753 C237.377711,280.595233 189.678916,266.247014 189.678916,216.88263 C189.678916,174.826466 200.263253,147.85989 200.263253,119.889753 C200.263253,118.147836 200.221084,116.48126 200.139759,114.850849 C206.71506,113.274685 247.591566,104.125096 305.112651,105.484274" id="Fill-11" fill="#FFDD00"></path>
                <path d="M338.786145,241.893315 L324.210843,231.131397 C325.262048,214.037699 326.927711,194.713863 329.475904,173.214137 C330.180723,167.174685 333.774096,170.248658 333.891566,173.476329 C334.795181,196.392493 336.819277,220.429753 338.786145,241.893315 M342.915663,288.240986 L322.674699,274.269479 C322.759036,262.953041 323.129518,249.855507 323.98494,234.997973 L339.186747,246.224 C340.686747,262.467836 342.111446,277.033041 342.915663,288.240986 M343.605422,303.011123 C343.605422,312.450027 343.099398,321.08126 342.243976,328.916877 L323.915663,316.723452 C323.304217,308.688932 322.629518,295.832493 322.653614,278.28674 L343.198795,292.469205 C343.454819,296.594959 343.605422,300.145096 343.605422,303.011123 M338.900602,349.563726 C337.228916,350.742082 332.003012,352.574411 323.623494,338.654137 C318.746988,353.439342 312.921687,349.316603 310.76506,347.050301 C309.466867,341.315233 308.262048,335.04674 307.246988,328.30811 L321.722892,319.300164 L341.807229,332.650849 C341.024096,338.825918 340.027108,344.455507 338.900602,349.563726 M304.060241,285.802904 L318.355422,276.017425 C318.26506,294.482356 318.948795,308.074137 319.584337,316.596877 L306.713855,324.607288 C305.099398,312.887014 304.069277,299.84674 304.060241,285.802904 M306.786145,242.697973 L319.801205,232.653315 C318.924699,247.453589 318.506024,260.569205 318.385542,271.964 L304.090361,281.755507 C304.253012,268.36263 305.23494,255.265096 306.786145,242.697973 M321.64759,172.304 C322.298193,169.980438 325.581325,169.36263 325.126506,173.325644 C322.722892,193.637973 321.108434,212.015507 320.060241,228.419068 L307.361446,238.219616 C310.707831,213.407836 316.162651,190.814137 321.64759,172.304 M337.024096,121.122356 C337.024096,121.122356 300.981928,197.121808 300.981928,285.679342 C300.981928,344.325918 319.129518,389.124548 324.159639,389.124548 C328.120482,389.124548 346.683735,361.232767 346.683735,303.011123 C346.683735,279.453041 333.939759,190.09989 337.024096,121.122356" id="Fill-13" fill="#FFDD00"></path>
                <path d="M365.396084,109.626301 C363.947289,110.458082 362.368976,111.087945 360.691265,111.473699 C363.362952,117.118356 368.763554,128.856712 374.989458,144.066849 C370.706325,130.080274 367.49247,118.028493 365.396084,109.626301" id="Fill-15" fill="#FFDD00"></path>
                <path d="M418.698193,253.606959 C417.526506,251.852986 416.363855,250.041753 415.198193,248.158192 C410.041566,239.864493 405.234337,230.974082 400.764458,221.815452 C402.436145,228.882575 403.86988,235.907507 404.954217,242.775726 C415.101807,307.021753 395.683133,335.019014 395.683133,335.019014 C395.683133,335.019014 367.589759,308.185041 355.890964,234.06011 C347.725301,182.375178 351.960241,125.003397 353.140964,111.556274 C351.526506,111.215726 350.00241,110.649151 348.586747,109.895726 C343.210241,234.620658 355.550602,256.216822 357.824699,291.805589 C389.315663,341.474356 390.421084,355.97326 390.421084,355.97326 C390.421084,355.97326 427.186145,330.182027 418.698193,253.606959" id="Fill-17" fill="#FFDD00"></path>
                <path d="M368.855422,195.590247 L359.150602,134.143945 C358.713855,131.362301 355.027108,131.693808 354.861446,135.699014 C354.054217,154.362849 353.713855,180.666411 355.98494,207.548603 L368.855422,195.590247 Z" id="Fill-19" fill="#FFDD00"></path>
                <path d="M379.088554,260.417014 L374.293373,230.047973 L360.793373,243.428795 C362.922892,254.742219 365.440964,264.829068 368.142771,273.764685 L379.088554,260.417014 Z" id="Fill-21" fill="#FFDD00"></path>
                <path d="M356.351205,211.630055 C357.043976,218.971425 357.938554,226.324849 359.08012,233.551699 C359.40241,235.594986 359.739759,237.599096 360.086145,239.570055 L373.673494,226.107863 L369.465663,199.442658 L356.351205,211.630055 Z" id="Fill-23" fill="#FFDD00"></path>
                <path d="M362.348795,133.638548 C362.348795,133.638548 367.36988,165.433068 372.183133,195.913616 L393.896988,208.137178 C385.791566,179.100192 374.472289,150.729233 366.324699,131.860466 C365.396988,129.473616 361.773494,129.97389 362.348795,133.638548" id="Fill-25" fill="#FFDD00"></path>
                <path d="M387.493675,295.551315 C387.249699,294.559808 381.689458,271.743096 379.921386,264.504192 L369.29488,277.463096 C373.120181,289.442548 377.249699,299.222 381.153313,307.042548 C383.210542,303.308575 387.081024,296.298712 387.493675,295.551315" id="Fill-27" fill="#FFDD00"></path>
                <path d="M372.823193,199.987233 C374.217771,208.805315 375.606325,217.59326 376.87741,225.65189 L401.136446,239.523945 C399.594277,230.684767 397.515964,221.595452 395.094277,212.530247 L372.823193,199.987233 Z" id="Fill-29" fill="#FFDD00"></path>
                <path d="M377.526807,229.747507 C379.782831,244.065589 381.593072,255.532712 382.276807,259.836274 L404.532831,271.866959 C404.267771,263.401479 403.436446,254.007781 401.815964,243.640658 L377.526807,229.747507 Z" id="Fill-31" fill="#FFDD00"></path>
                <path d="M401.724398,308.618712 L389.670181,298.302822 L382.938253,310.517342 C387.89006,319.886932 392.323795,326.010767 395.055723,329.401178 C396.899096,325.561726 399.646084,318.714603 401.724398,308.618712" id="Fill-33" fill="#FFDD00"></path>
                <path d="M404.615964,275.588575 L383.125,263.973781 C384.760542,270.676247 389.480422,290.027205 390.661145,294.891315 L402.420181,304.951041 C403.814759,296.973781 404.75753,287.215425 404.615964,275.588575" id="Fill-35" fill="#FFDD00"></path>
                <path d="M188.067771,339.135123 C180.489458,336.93211 177.179217,325.41074 180.670181,313.416219 C184.158133,301.412658 193.131024,293.477589 200.706325,295.68663 C208.287651,297.895671 211.600904,309.408 208.106928,321.402521 C204.615964,333.406082 195.643072,341.341151 188.067771,339.135123 L188.067771,339.135123 Z M157.956325,275.763068 C120.016566,264.534027 144.137048,217.607726 161.700301,222.291014 C138.715361,243.148822 150.302711,267.372932 157.956325,275.763068 L157.956325,275.763068 Z M94.5948795,214.28663 C95.6159639,218.159233 102.019578,218.129096 107.076807,216.791014 C112.14006,215.452932 115.260542,213.671836 117.27259,213.141425 C121.368976,212.059507 125.718373,212.698411 126.576807,215.974301 C128.164157,222.01074 120.570783,224.605534 116.212349,225.756767 C94.5436747,231.47074 85.9774096,226.097315 84.3569277,219.943342 C82.7334337,213.786356 88.064759,208.919233 88.064759,208.919233 C88.064759,208.919233 81.0316265,207.312932 79.4081325,201.158959 C77.7876506,195.001973 82.5888554,186.108548 104.260542,180.388548 C108.615964,179.237315 116.50753,177.754575 118.097892,183.784986 C118.965361,187.060877 115.49247,189.764164 111.393072,190.840055 C109.387048,191.370466 105.790663,191.358411 100.72741,192.693479 C95.6701807,194.031562 90.0798193,197.159781 91.1009036,201.026356 C91.1912651,201.36389 91.371988,201.683342 91.5978916,201.984712 C93.9834337,201.984712 97.8478916,201.752658 102.402108,200.550192 C114.841867,197.26526 121.082831,190.409096 127.929217,188.60389 C131.131024,187.754027 137.10994,186.259233 139.50753,195.348548 C141.90512,204.44389 135.962349,206.08937 132.763554,206.933205 C125.908133,208.741425 117.103916,205.848274 104.667169,209.127178 C100.106928,210.335671 96.6310241,212.035397 94.5587349,213.213753 C94.5105422,213.590466 94.5105422,213.955123 94.5948795,214.28663 L94.5948795,214.28663 Z M70.1009036,189.688822 C66.8840361,189.688822 68.998494,181.771836 68.9623494,178.830466 C51.0406627,178.571288 49.0496988,172.137041 69.6792169,171.962247 C69.0677711,169.29211 66.938253,158.680877 70.1701807,152.972932 L60.0978916,149.055123 C51.8870482,145.770192 67.5105422,140.360603 65.248494,135.463342 C65.248494,135.463342 60.5948795,131.922247 60.5948795,127.926082 C60.5948795,123.935945 66.811747,119.204438 78.8237952,119.204438 C101.236446,119.204438 107.091867,138.374575 124.962349,138.374575 C128.441265,138.374575 137.784639,136.475945 137.784639,140.291288 C137.784639,144.097589 130.251506,148.069644 123.459337,148.069644 C107.832831,148.069644 96.0105422,136.295123 88.1581325,136.295123 C87.4171687,136.295123 85.9201807,136.539233 85.3268072,138.00389 L83.2003012,142.880055 C81.6430723,146.457315 84.0256024,147.879781 84.0256024,147.879781 L111.673193,164.156767 C117.468373,167.56526 114.402108,170.298685 111.459337,171.157589 C111.459337,171.157589 94.498494,176.335123 79.4653614,178.191562 C77.8237952,185.713753 73.4894578,189.688822 70.1009036,189.688822 L70.1009036,189.688822 Z M109.760542,89.1789589 L128.540663,75.1441644 C129.552711,74.387726 130.932229,74.3666301 131.968373,75.0869041 C145.745482,84.7186849 153.384036,94.1425205 153.706325,94.5373151 C154.718373,95.8000548 154.516566,97.638411 153.260542,98.6540274 C152.004518,99.6666301 150.158133,99.4707397 149.146084,98.2140274 C149.076807,98.1236164 142.299699,89.8118356 130.326807,81.1173151 C129.450301,81.7743014 127.784639,83.0189589 125.847892,84.4685479 C131.754518,89.4773151 148.103916,103.753205 158.971386,117.263616 C159.989458,118.526356 159.793675,120.364712 158.531627,121.380329 C157.269578,122.392932 155.429217,122.197041 154.417169,120.940329 C143.281627,107.098411 125.585843,91.9093699 121.028614,88.0699178 C119.230422,89.4110137 117.537651,90.6767671 116.287651,91.6110137 C126.998494,100.456219 134.706325,109.587726 135.058735,110.00663 C136.293675,111.426082 135.652108,113.372932 134.697289,114.12937 C133.459337,115.169096 131.618976,115.00937 130.576807,113.773753 C130.486446,113.662247 121.447289,102.957589 109.721386,93.8411507 C108.371988,92.6929315 108.025602,90.477863 109.760542,89.1789589 L109.760542,89.1789589 Z M80.814759,322.897315 C78.1762048,324.247452 75.5436747,323.891836 73.0406627,322.728548 C75.061747,325.63074 82.0707831,336.74526 73.7816265,340.994575 C65.4954819,345.246904 60.5707831,333.059507 59.3990964,329.723342 C58.8840361,332.435671 57.628012,334.783342 54.9954819,336.136493 C52.0527108,337.643342 48.4322289,336.350466 46.7906627,333.14389 C44.7183735,329.087452 49.4292169,315.860329 47.2123494,309.398959 C45.1551205,303.398685 50.1340361,304.489644 54.0587349,302.476493 C57.9834337,300.46937 60.0045181,295.786082 63.6731928,300.960603 C67.621988,306.532932 81.1009036,310.438685 83.1792169,314.489096 C84.8207831,317.695671 83.7545181,321.390466 80.814759,322.897315 L80.814759,322.897315 Z M208.010542,331.311562 C219.079819,314.22389 212.75753,284.819233 191.64006,292.968274 C179.432229,273.014575 165.615964,246.044986 165.615964,212.671288 C165.615964,177.124712 172.871988,167.788274 172.871988,136.400603 C172.871988,82.8893699 148.143072,72.2841644 132.230422,61.5162192 C94.4412651,87.1386849 44.2695783,122.242247 44.2695783,140.903068 C44.2695783,146.436219 46.7063253,151.568548 46.7063253,156.993205 C46.7063253,176.308 9.10090361,213.831562 9.10090361,231.995123 C9.10090361,238.803068 14.5316265,244.526082 23.2665663,244.526082 C32.001506,244.526082 54.2575301,241.280329 62.6159639,240.38526 C70.9713855,239.493205 71.9051205,235.475945 71.9051205,233.31211 C71.9051205,227.893479 63.3087349,220.347178 56.811747,220.347178 C51.3960843,220.347178 50.8960843,223.535671 50.8960843,224.340329 C50.8960843,227.899507 56.0256024,228.930192 56.0256024,228.930192 C62.501506,228.035123 62.5316265,233.740055 56.3448795,233.740055 C51.2454819,233.740055 45.564759,229.981973 45.564759,223.493479 C45.564759,216.995945 50.7816265,215.377589 54.6490964,215.377589 C70.8810241,215.377589 80.2304217,230.063342 77.5466867,239.408822 C97.6822289,249.414301 97.1039157,264.124164 93.8237952,264.124164 C86.8599398,264.124164 91.6972892,245.598959 65.4442771,245.598959 C58.0737952,245.598959 42.685241,247.811014 39.061747,248.178685 C35.4442771,248.546356 34.3539157,249.064712 33.9201807,252.054301 C33.4864458,255.046904 29.6671687,265.887178 29.6671687,272.544438 C29.6671687,282.411288 36.2213855,283.06526 40.4472892,283.06526 C51.4864458,283.06526 70.1942771,280.416219 70.1942771,275.986082 C70.1942771,273.156219 65.4533133,273.960877 63.7033133,273.960877 C60.4051205,273.960877 58.9021084,271.905534 58.9021084,270.727178 C58.9021084,267.794849 63.6490964,266.36937 69.3237952,266.36937 C78.7334337,266.36937 79.7213855,272.490192 79.2454819,275.359233 C78.1942771,281.697041 88.4081325,280.17211 88.4081325,293.598137 C88.4081325,295.086904 88.2816265,298.941425 85.0737952,298.941425 C81.8629518,298.941425 81.8177711,294.921151 81.8177711,292.660877 C81.8177711,290.403616 78.1340361,286.883616 74.9954819,286.883616 C71.6551205,286.883616 59.5768072,293.124986 33.5557229,290.738137 C23.3027108,303.633753 35.4081325,304.561973 35.4081325,317.596219 C35.4081325,332.188548 30.9894578,331.188 30.9894578,340.096493 C30.9894578,357.786904 50.3900602,362.406904 69.7033133,362.406904 C109.748494,362.406904 154.893072,353.076493 170.784639,324.419233 C165.311747,349.782521 144.923193,358.880877 110.245482,366.755671 C114.161145,394.843342 119.980422,401.361973 124.221386,408.935397 C128.456325,416.511836 129.375,427.186356 136.820783,427.186356 C145.754518,427.186356 198.432229,408.178959 233.875,386.814849 L208.010542,331.311562 Z" id="Fill-37" fill="#E7A613"></path>
                <path d="M79.5927711,134.321452 L68.3909639,137.302 C66.0325301,137.928849 65.896988,139.315151 68.0927711,140.382 L76.6228916,144.513781 C77.4993976,144.941726 78.5355422,144.555973 78.9271084,143.660904 L81.8548193,136.955425 C82.7313253,134.93926 81.713253,133.754877 79.5927711,134.321452" id="Fill-39" fill="#E7A613"></path>
                <path d="M198.400904,303.618384 C194.196084,302.391808 188.982229,307.572356 186.768373,315.187973 C184.548494,322.806603 186.162952,329.976192 190.373795,331.202767 C194.581627,332.432356 199.79247,327.245781 202.006325,319.627151 C204.226205,312.011534 202.605723,304.841945 198.400904,303.618384" id="Fill-41" fill="#E7A613"></path>
                <polygon id="Fill-43" fill="#F58426" points="366.396084 55.6003288 338.52259 55.6003288 356.317771 74.888 366.396084 74.888"></polygon>
                <path d="M469.589759,194.333534 C439.29759,145.57189 386.324699,104.570521 374.125904,95.4902466 C373.972289,98.2839452 373.16506,100.902849 371.839759,103.19326 C383.442169,113.397644 434.393976,159.236 458.357831,197.814356 C489.996386,248.739836 481.607831,286.362849 481.607831,286.362849 C481.607831,286.362849 456.607831,288.366959 431.053614,247.229973 C404.924096,205.170795 376.562651,127.411342 369.207229,106.677096 C368.086747,107.831342 366.803614,108.822849 365.396988,109.627507 C367.493373,118.029699 370.704217,130.081479 374.987349,144.065041 C381.342771,159.597644 388.526506,178.707507 394.511446,198.625041 C401.41506,215.109973 409.403012,231.540658 418.466265,246.129973 C455.990361,306.533534 493.562651,298.221753 493.562651,298.221753 C487.113855,287.839562 506.03253,252.995178 469.589759,194.333534" id="Fill-45" fill="#F58426"></path>
                <path d="M373.105723,108.446137 C377.15994,119.777644 385.178012,141.632986 395.108735,165.796822 L397.780422,151.17737 L384.798494,130.27737 C384.346687,129.554082 384.569578,128.604767 385.289458,128.152712 C386.018373,127.706685 386.964157,127.926685 387.412952,128.649973 L399.82259,148.621753 L419.105723,153.416548 C400.765361,133.682849 382.171988,116.556 373.105723,108.446137" id="Fill-47" fill="#F58426"></path>
                <path d="M402.150904,152.380137 L425.126807,189.361233 L454.946084,198.179315 C446.533434,184.906986 434.915964,170.74863 422.89488,157.533562 L402.150904,152.380137 Z" id="Fill-49" fill="#F58426"></path>
                <path d="M397.285843,171.050904 C402.888253,184.495014 409.026807,198.460493 415.358133,211.585151 L422.782831,191.429534 L400.204518,155.072274 L397.285843,171.050904 Z" id="Fill-51" fill="#F58426"></path>
                <path d="M478.97741,283.140603 C479.685241,277.351288 480.618976,261.818685 474.378012,240.406356 L454.591867,236.792932 L466.236446,255.538137 C466.685241,256.261425 466.465361,257.21074 465.739458,257.662795 C465.019578,258.108822 464.067771,257.888822 463.621988,257.165534 L451.829819,238.18526 L444.371988,260.477589 C459.878012,278.88526 473.606928,282.462521 478.97741,283.140603" id="Fill-53" fill="#F58426"></path>
                <path d="M427.57259,193.297425 L452.397892,233.259068 L473.364759,237.086466 C470.021386,226.583726 464.961145,214.785096 457.367771,202.112493 L427.57259,193.297425 Z" id="Fill-55" fill="#F58426"></path>
                <path d="M442.07259,257.647726 L449.720181,234.785808 L424.849699,194.748822 L417.226205,215.425808 C422.662952,226.477041 428.217169,236.823068 433.668976,245.601973 C436.491265,250.143616 439.304518,254.136767 442.07259,257.647726" id="Fill-57" fill="#F58426"></path>
                <path d="M202.007229,319.628658 C199.793373,327.244274 194.58253,332.430849 190.374699,331.204274 C186.163855,329.977699 184.549398,322.80811 186.766265,315.186466 C188.983133,307.573863 194.193976,302.390301 198.401807,303.61989 C202.606627,304.843452 204.224096,312.013041 202.007229,319.628658 M200.706024,295.687836 C193.130723,293.475781 184.157831,301.413863 180.66988,313.414411 C177.178916,325.411945 180.489157,336.930301 188.06747,339.136329 C195.642771,341.339342 204.615663,333.404274 208.106627,321.403726 C211.600602,309.406192 208.287349,297.893863 200.706024,295.687836" id="Fill-59" fill="#E21836"></path>
                <path d="M63.673494,300.960904 C60.0048193,295.786384 57.9837349,300.469671 54.0590361,302.476795 C50.1343373,304.489945 45.1554217,303.398986 47.2126506,309.39926 C49.4295181,315.86063 44.7186747,329.087753 46.7909639,333.144192 C48.4325301,336.350767 52.053012,337.643644 54.9957831,336.136795 C57.6283133,334.783644 58.8843373,332.435973 59.3993976,329.723644 C60.8,322.34611 56.5680723,312.153781 58.5048193,311.162274 C60.4445783,310.170767 66.236747,319.555425 73.0379518,322.728849 C75.5409639,323.892137 78.173494,324.247753 80.8120482,322.897616 C83.7548193,321.390767 84.8180723,317.695973 83.1795181,314.489397 C81.1012048,310.438986 67.6222892,306.533233 63.673494,300.960904" id="Fill-61" fill="#E21836"></path>
                <path d="M117.271386,213.14263 C115.259337,213.673041 112.141867,215.454137 107.075602,216.792219 C102.021386,218.127288 95.6177711,218.160438 94.5966867,214.287836 C94.5093373,213.956329 94.5093373,213.588658 94.5575301,213.211945 C94.9581325,210.083726 99.548494,205.891671 99.548494,205.891671 C99.548494,205.891671 93.4912651,204.511397 91.5996988,201.985918 C91.3707831,201.681534 91.1930723,201.365096 91.1027108,201.024548 C90.0816265,197.157973 95.6689759,194.029753 100.729217,192.694685 C105.789458,191.356603 109.388855,191.368658 111.39488,190.84126 C115.491265,189.762356 118.964157,187.062082 118.096687,183.786192 C116.506325,177.755781 108.617771,179.238521 104.262349,180.389753 C82.5906627,186.10674 77.7864458,195.000164 79.4069277,201.157151 C81.0304217,207.311123 88.0665663,208.920438 88.0665663,208.920438 C88.0665663,208.920438 82.735241,213.787562 84.3587349,219.944548 C85.9792169,226.098521 94.5424699,231.471945 116.211145,225.757973 C120.569578,224.60674 128.165964,222.008932 126.575602,215.972493 C125.717169,212.696603 121.370783,212.060712 117.271386,213.14263" id="Fill-63" fill="#E21836"></path>
                <path d="M287.328614,246.107973 L254.647892,276.395644 L236.699096,237.603315 C236.699096,237.603315 257.093675,175.463863 331.187048,103.499753 C303.114759,154.202219 287.328614,246.107973 287.328614,246.107973 M339.391867,93.2350959 C276.111747,140.610438 242.054518,211.254548 231.744277,235.436466 C231.744277,235.436466 230.373795,238.27537 231.967169,241.379479 L252.015361,280.385781 C252.852711,282.013178 254.647892,282.341671 256.009337,281.112082 L288.979217,251.321671 C291.256325,249.269342 291.988253,245.963315 291.988253,245.963315 C307.012349,159.940301 327.319578,117.866055 339.882831,98.804411 C339.536446,97.4271507 339.331627,95.9926301 339.331627,94.5068767 C339.331627,94.0819452 339.361747,93.6600274 339.391867,93.2350959" id="Fill-65" fill="#E21836"></path>
                <path d="M281.989759,183.188274 C286.450602,172.896493 291.574096,161.84526 297.420482,150.233479 C297.806024,149.471014 298.727711,149.16663 299.486747,149.552384 C300.248795,149.93211 300.553012,150.863342 300.173494,151.622795 C293.516867,164.828822 287.81506,177.314575 282.950602,188.763616 L292.462651,205.164164 C298.827108,178.101151 308.501807,142.795671 320.233735,118.746356 C294.312048,146.713479 276.263855,171.558411 263.962651,191.18663 L281.989759,183.188274 Z" id="Fill-67" fill="#E21836"></path>
                <path d="M258.889157,258.027452 C258.699398,258.856219 257.868072,259.371562 257.042771,259.178685 C256.211446,258.988822 255.690361,258.163068 255.886145,257.334301 C255.940361,257.093205 258.994578,244.074027 266.461446,222.770192 L242.106024,232.670192 C240.859036,235.747178 240.328916,237.380603 240.328916,237.380603 L255.765663,270.742247 L281.943373,246.478959 L269.036747,224.744164 C261.877108,245.282521 258.943373,257.792384 258.889157,258.027452" id="Fill-69" fill="#E21836"></path>
                <path d="M280.204217,187.355616 L261.104819,195.827123 C252.351807,210.268767 246.903012,221.521918 243.791566,228.658356 L267.839759,218.884932 C271.153012,209.650959 275.243373,199.027671 280.204217,187.355616" id="Fill-71" fill="#E21836"></path>
                <path d="M270.371084,220.953534 L284.214458,244.273534 C284.473494,242.829973 287.051807,228.692712 291.449398,209.552712 L281.455422,192.320384 C277.045783,202.892438 273.38012,212.524219 270.371084,220.953534" id="Fill-73" fill="#E21836"></path>
                <path d="M356.75994,86.0435068 C352.091265,86.0435068 348.302108,89.8287123 348.302108,94.5089863 C348.302108,99.1802192 352.091265,102.965425 356.75994,102.965425 C361.428614,102.965425 365.214759,99.1802192 365.214759,94.5089863 C365.214759,89.8287123 361.428614,86.0435068 356.75994,86.0435068" id="Fill-75" fill="#E21836"></path>
                <polygon id="Fill-77" fill="#008752" points="391.870783 68.0026027 374.912952 79.3160274 378.819578 92.2357534 397.928012 87.980411"></polygon>
                <path d="M346.684036,303.012027 C346.684036,361.230658 328.120783,389.122438 324.156928,389.122438 C319.129819,389.122438 300.982229,344.326822 300.982229,285.680247 C300.982229,197.119699 337.024398,121.120247 337.024398,121.120247 C333.94006,190.097781 346.684036,279.453945 346.684036,303.012027 M345.232229,107.552575 C343.985241,106.446548 342.900904,105.171753 342.009337,103.755315 C321.720181,136.273123 295.90994,217.624904 295.90994,287.286548 C295.90994,358.518329 317.70512,396.373397 325.578614,396.373397 C331.647892,396.373397 352.985241,358.195863 352.985241,309.081616 C352.985241,295.679699 341.744277,241.815863 341.744277,140.706274 C341.744277,119.007644 343.39488,113.209288 345.232229,107.552575" id="Fill-79" fill="#008752"></path>
                <path d="M319.800602,232.65211 L306.785542,242.696767 C305.234337,255.26389 304.25241,268.364438 304.089759,281.754301 L318.38494,271.962795 C318.505422,260.571014 318.924096,247.452384 319.800602,232.65211" id="Fill-81" fill="#008752"></path>
                <path d="M329.476506,173.214137 C326.928313,194.713863 325.262651,214.037699 324.211446,231.131397 L338.786747,241.893315 C336.81988,220.429753 334.795783,196.392493 333.892169,173.476329 C333.774699,170.248658 330.178313,167.174685 329.476506,173.214137" id="Fill-83" fill="#008752"></path>
                <path d="M322.674398,274.270082 L342.915361,288.241589 C342.114157,277.033644 340.686446,262.468438 339.186446,246.221589 L323.984639,234.998575 C323.129217,249.853096 322.758735,262.953644 322.674398,274.270082" id="Fill-85" fill="#008752"></path>
                <path d="M325.126205,173.325945 C325.581024,169.362932 322.297892,169.98074 321.647289,172.304301 C316.162349,190.814438 310.70753,213.408137 307.361145,238.219918 L320.05994,228.41937 C321.108133,212.015808 322.72259,193.638274 325.126205,173.325945" id="Fill-87" fill="#008752"></path>
                <path d="M307.246386,328.307808 C308.261446,335.046438 309.466265,341.314932 310.764458,347.05 C312.921084,349.316301 318.746386,353.439041 323.622892,338.653836 C332.00241,352.57411 337.231325,350.741781 338.9,349.563425 C340.026506,344.455205 341.023494,338.825616 341.806627,332.650548 L321.725301,319.299863 L307.246386,328.307808 Z" id="Fill-89" fill="#008752"></path>
                <path d="M323.917169,316.723753 L342.245482,328.917178 C343.097892,321.081562 343.603916,312.450329 343.603916,303.011425 C343.603916,300.145397 343.453313,296.59526 343.197289,292.469507 L322.65512,278.287041 C322.631024,295.829781 323.302711,308.689233 323.917169,316.723753" id="Fill-91" fill="#008752"></path>
                <path d="M318.356325,276.018329 L304.061145,285.803808 C304.070181,299.847644 305.100301,312.884904 306.714759,324.608192 L319.582229,316.597781 C318.946687,308.075041 318.265964,294.48326 318.356325,276.018329" id="Fill-93" fill="#008752"></path>
                <path d="M292.464157,205.163863 C292.111747,206.65263 291.774398,208.117288 291.449096,209.551808 C287.051506,228.694822 284.473193,242.829068 284.214157,244.275644 C284.199096,244.350986 284.193072,244.393178 284.193072,244.393178 L281.943072,246.478658 L255.765361,270.741945 L240.328614,237.383315 C240.328614,237.383315 240.858735,235.746877 242.105723,232.66989 C242.566566,231.530712 243.126807,230.19263 243.789458,228.658658 C246.903916,221.522219 252.352711,210.266055 261.102711,195.824411 C262.021386,194.314548 262.973193,192.768521 263.964157,191.186329 C276.262349,171.55811 294.313554,146.713178 320.232229,118.746055 C308.503313,142.79537 298.828614,178.100849 292.464157,205.163863 M236.699096,237.603315 L254.647892,276.395644 L287.328614,246.107973 C287.328614,246.107973 303.114759,154.202219 331.184036,103.499753 C257.093675,175.463863 236.699096,237.603315 236.699096,237.603315" id="Fill-95" fill="#008752"></path>
                <path d="M356.75994,102.966027 C352.091265,102.966027 348.302108,99.1808219 348.302108,94.5065753 C348.302108,89.8293151 352.091265,86.0441096 356.75994,86.0441096 C361.428614,86.0441096 365.214759,89.8293151 365.214759,94.5065753 C365.214759,99.1808219 361.428614,102.966027 356.75994,102.966027 M356.75994,81.2854795 C349.458735,81.2854795 343.546084,87.2073973 343.546084,94.5065753 C343.546084,101.80274 349.458735,107.724658 356.75994,107.724658 C364.052108,107.724658 369.964759,101.80274 369.964759,94.5065753 C369.964759,87.2073973 364.052108,81.2854795 356.75994,81.2854795" id="Fill-97" fill="#008752"></path>
                <path d="M402.421687,304.951644 L390.662651,294.891918 C389.478916,290.027808 384.762048,270.676849 383.126506,263.974384 L404.61747,275.589178 C404.756024,287.216027 403.816265,296.97137 402.421687,304.951644 L402.421687,304.951644 Z M395.057229,329.401781 C392.322289,326.01137 387.891566,319.887534 382.936747,310.517945 L389.671687,298.303425 L401.722892,308.619315 C399.644578,318.712192 396.900602,325.562329 395.057229,329.401781 L395.057229,329.401781 Z M369.292169,277.463699 L379.921687,264.504795 C381.689759,271.740685 387.25,294.560411 387.493976,295.551918 C387.081325,296.299315 383.210843,303.309178 381.153614,307.043151 C377.25,299.222603 373.120482,289.440137 369.292169,277.463699 L369.292169,277.463699 Z M360.792169,243.43 L374.295181,230.046164 L379.087349,260.418219 L368.144578,273.762877 C365.439759,264.82726 362.921687,254.743425 360.792169,243.43 L360.792169,243.43 Z M359.081325,233.55411 C357.939759,226.324247 357.045181,218.970822 356.35241,211.629452 L369.463855,199.442055 L373.674699,226.10726 L360.087349,239.572466 C359.740964,237.598493 359.400602,235.594384 359.081325,233.55411 L359.081325,233.55411 Z M354.861446,135.699315 C355.027108,131.69411 358.713855,131.359589 359.150602,134.144247 L368.855422,195.590548 L355.98494,207.548904 C353.713855,180.666712 354.054217,154.363151 354.861446,135.699315 L354.861446,135.699315 Z M366.325301,131.859863 C374.472892,150.72863 385.792169,179.099589 393.89759,208.136575 L372.180723,195.913014 C367.370482,165.432466 362.349398,133.637945 362.349398,133.637945 C361.771084,129.973288 365.39759,129.473014 366.325301,131.859863 L366.325301,131.859863 Z M395.093373,212.530548 C397.51506,221.595753 399.593373,230.685068 401.135542,239.524247 L376.876506,225.649178 C375.605422,217.593562 374.216867,208.805616 372.822289,199.987534 L395.093373,212.530548 Z M404.533133,271.864247 L382.277108,259.836575 C381.593373,255.53 379.783133,244.06589 377.527108,229.747808 L401.816265,243.640959 C403.436747,254.008082 404.268072,263.401781 404.533133,271.864247 L404.533133,271.864247 Z M404.954819,242.776027 C403.86747,235.907808 402.436747,228.882877 400.76506,221.815753 C398.936747,214.076575 396.819277,206.292192 394.512048,198.625342 C388.527108,178.707808 381.340361,159.594932 374.987952,144.065342 C368.76506,128.855205 363.364458,117.119863 360.692771,111.475205 C359.427711,111.767534 358.114458,111.942329 356.759036,111.942329 C355.518072,111.942329 354.310241,111.806712 353.141566,111.556575 C351.960843,125.003699 347.725904,182.375479 355.888554,234.057397 C367.590361,308.185342 395.683735,335.016301 395.683735,335.016301 C395.683735,335.016301 415.10241,307.019041 404.954819,242.776027 L404.954819,242.776027 Z" id="Fill-99" fill="#193989"></path>
                <path d="M254.379819,327.592658 C253.452108,327.592658 252.581627,328.876493 252.581627,332.309096 C252.581627,336.106356 256.906928,344.092658 262.29247,349.28526 C262.458133,346.642247 262.437048,344.394027 262.437048,343.200603 C262.437048,338.74937 259.925,327.592658 254.379819,327.592658" id="Fill-101" fill="#221F20"></path>
                <g id="Group-105" transform="translate(0.000000, 0.003014)" fill="#221F20">
                    <path d="M418.465964,246.125452 C409.402711,231.536137 401.414759,215.105452 394.511145,198.620521 C396.818373,206.28737 398.935843,214.071753 400.767169,221.813945 C405.234036,230.972575 410.041265,239.862986 415.197892,248.156685 C416.363554,250.040247 417.526205,251.848466 418.697892,253.602438 C427.188855,330.180521 390.420783,355.96874 390.420783,355.96874 C390.420783,355.96874 389.315361,341.472849 357.824398,291.801068 C355.550301,256.215315 343.20994,234.619151 348.586446,109.894219 C350.002108,110.647644 351.526205,111.211205 353.143675,111.554767 C354.309337,111.804904 355.520181,111.940521 356.761145,111.940521 C358.113554,111.940521 359.426807,111.765726 360.691867,111.470384 C362.369578,111.08463 363.94488,110.454767 365.396687,109.622986 C366.803313,108.818329 368.086446,107.826822 369.206928,106.675589 C370.228012,105.629836 371.10753,104.460521 371.84247,103.18874 C373.164759,100.898329 373.975,98.2794247 374.125602,95.4887397 C386.324398,104.566 439.297289,145.570384 469.589458,194.329014 C506.032229,252.990658 487.113554,287.838055 493.562349,298.217233 C493.562349,298.217233 455.99006,306.529014 418.465964,246.125452 L418.465964,246.125452 Z M325.580422,396.370384 C317.706928,396.370384 295.911747,358.515315 295.911747,287.283534 C295.911747,217.62189 321.721988,136.27011 342.011145,103.752301 C342.902711,105.16874 343.984036,106.443534 345.231024,107.549562 C343.396687,113.206274 341.746084,119.00463 341.746084,140.70326 C341.746084,241.812849 352.987048,295.676685 352.987048,309.078603 C352.987048,358.192849 331.646687,396.370384 325.580422,396.370384 L325.580422,396.370384 Z M288.978012,251.321068 L256.008133,281.108466 C254.646687,282.341068 252.854518,282.009562 252.014157,280.382164 L231.968976,241.375863 C230.37259,238.274767 231.743072,235.432849 231.743072,235.432849 C242.056325,211.250932 276.113554,140.606822 339.393675,93.2344932 C339.363554,93.656411 339.330422,94.0783288 339.330422,94.5032603 C339.330422,95.9890137 339.535241,97.4235342 339.884639,98.8007945 C327.321386,117.862438 307.011145,159.936685 291.987048,245.959699 C291.987048,245.959699 291.25512,249.265726 288.978012,251.321068 L288.978012,251.321068 Z M271.737048,360.582712 C270.465964,360.582712 268.95994,360.199973 267.324398,359.494767 C264.574398,369.232027 258.74006,372.911753 252.484036,372.911753 C241.101506,372.911753 230.950904,356.52326 230.950904,330.026822 C230.950904,283.187918 183.237048,268.390658 183.237048,218.14326 C183.237048,175.04737 193.82741,147.734219 193.82741,116.729288 C193.82741,86.2186027 171.878614,69.2846301 171.878614,47.0435342 C171.878614,39.6268219 175.830422,32.2221644 186.863554,32.2221644 C206.336446,32.2221644 214.119578,49.8191507 233.737048,49.8191507 C251.318373,49.8191507 255.384639,36.3870959 267.568373,36.3870959 C293.026205,36.3870959 282.339458,80.0073699 306.815361,80.0073699 C312.496084,80.0073699 318.312349,77.0177808 318.312349,77.0177808 C321.658735,75.2698356 325.375602,79.926 321.481024,82.1018904 C321.481024,82.1018904 315.484036,85.7725753 306.315361,85.7725753 C277.354518,85.7725753 284.547289,42.3120274 268.215964,42.3120274 C257.330422,42.3120274 253.225,55.8435342 234.12259,55.8435342 C213.583434,55.8435342 202.493072,38.4966849 187.706928,38.4966849 C183.478012,38.4966849 178.324398,40.0818904 178.324398,47.8843562 C178.324398,67.9827123 196.167771,77.8736712 199.664759,108.947918 C205.246084,107.615863 241.514157,99.5602466 304.87259,99.5602466 C308.962952,99.5602466 309.532229,105.482164 305.113554,105.482164 C247.59247,104.122986 206.715964,113.272575 200.140663,114.845726 C200.221988,116.476137 200.264157,118.145726 200.264157,119.88463 C200.264157,147.857781 189.679819,174.824356 189.679819,216.880521 C189.679819,266.244904 237.378614,280.59011 237.378614,329.98463 C237.378614,343.633671 242.94488,366.516685 252.824398,366.516685 C257.926807,366.516685 260.318373,361.486822 261.438855,356.016959 C253.890663,350.447644 246.158735,340.698329 246.158735,331.934493 C246.158735,325.403808 248.700904,321.452849 253.243072,321.452849 C257.791265,321.452849 268.971988,325.265178 268.971988,345.586548 C268.971988,348.503808 268.800301,351.140795 268.496084,353.527644 C269.547289,353.931479 270.59247,354.160521 271.613554,354.160521 C274.134639,354.160521 280.423795,351.204082 280.423795,342.530658 C280.423795,308.050932 211.82741,286.062986 211.82741,220.307096 C211.82741,182.904082 215.866566,135.429288 229.511145,135.429288 C240.10753,135.429288 243.182831,152.640521 248.059337,152.640521 C250.652711,152.640521 248.95994,119.456685 260.59247,119.456685 C267.905723,119.456685 273.956928,130.842438 277.676807,134.564356 C277.676807,134.564356 281.008133,125.264082 282.586446,118.227096 C283.465964,113.754767 289.70994,114.996411 288.782229,119.393397 C286.218976,128.868466 284.252108,140.899151 278.360542,140.899151 C271.068373,140.899151 264.978012,125.378603 260.899699,125.378603 C255.788253,125.378603 259.782229,158.625726 248.345482,158.625726 C239.110542,158.625726 234.291265,141.779151 230.426807,141.779151 C223.044277,141.779151 218.225,189.910932 218.225,219.996685 C218.225,282.57011 286.779217,303.219973 286.779217,343.151479 C286.779217,357.098877 274.917771,360.582712 271.737048,360.582712 L271.737048,360.582712 Z M136.821386,427.182438 C129.37259,427.182438 128.456928,416.507918 124.221988,408.931479 C119.978012,401.358055 114.161747,394.842438 110.243072,366.751753 C144.923795,358.876959 165.312349,349.781616 170.785241,324.418329 C154.893675,353.072575 109.749096,362.402986 69.7039157,362.402986 C50.3906627,362.402986 30.9900602,357.786 30.9900602,340.095589 C30.9900602,331.187096 35.4087349,332.187644 35.4087349,317.592301 C35.4087349,304.561068 23.3033133,303.629836 33.5533133,290.737233 C59.5774096,293.124082 71.6527108,286.879699 74.9960843,286.879699 C78.1346386,286.879699 81.8153614,290.399699 81.8153614,292.656959 C81.8153614,294.917233 81.8635542,298.937507 85.0713855,298.937507 C88.2792169,298.937507 88.4087349,295.082986 88.4087349,293.594219 C88.4087349,280.168192 78.1948795,281.693123 79.2460843,275.355315 C79.721988,272.486274 78.7340361,266.365452 69.3243976,266.365452 C63.6496988,266.365452 58.9027108,267.790932 58.9027108,270.72326 C58.9027108,271.90463 60.4057229,273.956959 63.7039157,273.956959 C65.4539157,273.956959 70.1948795,273.155315 70.1948795,275.982164 C70.1948795,280.412301 51.4870482,283.061342 40.4478916,283.061342 C36.221988,283.061342 29.664759,282.40737 29.664759,272.543534 C29.664759,265.886274 33.4870482,255.042986 33.9207831,252.053397 C34.3545181,249.063808 35.4418675,248.542438 39.0623494,248.177781 C42.6858434,247.81011 58.0743976,245.595041 65.4448795,245.595041 C91.6978916,245.595041 86.8605422,264.12326 93.8243976,264.12326 C97.1045181,264.12326 97.6828313,249.410384 77.5442771,239.404904 C80.2310241,230.059425 70.8816265,215.373671 54.6466867,215.373671 C50.7822289,215.373671 45.5653614,216.992027 45.5653614,223.489562 C45.5653614,229.981068 51.2460843,233.739151 56.3454819,233.739151 C62.5322289,233.739151 62.5021084,228.031205 56.0231928,228.926274 C56.0231928,228.926274 50.8966867,227.895589 50.8966867,224.336411 C50.8966867,223.531753 51.3966867,220.34326 56.8123494,220.34326 C63.3093373,220.34326 71.9027108,227.889562 71.9027108,233.308192 C71.9027108,235.472027 70.971988,239.489288 62.6135542,240.384356 C54.2581325,241.279425 32.0021084,244.522164 23.2671687,244.522164 C14.5322289,244.522164 9.10150602,238.799151 9.10150602,231.994219 C9.10150602,213.827644 46.7069277,176.304082 46.7069277,156.992301 C46.7069277,151.56463 44.2701807,146.432301 44.2701807,140.899151 C44.2701807,122.241342 94.4418675,87.1347671 132.231024,61.5123014 C148.140663,72.2802466 172.87259,82.8854521 172.87259,136.396685 C172.87259,167.784356 165.616566,177.123808 165.616566,212.66737 C165.616566,246.044082 179.432831,273.010658 191.637651,292.964356 C212.758133,284.815315 219.080422,314.222986 208.008133,331.310658 L233.87259,386.813945 C198.432831,408.175041 145.75512,427.182438 136.821386,427.182438 L136.821386,427.182438 Z M366.396687,55.596411 L366.396687,74.8870959 L356.318373,74.8870959 L338.520181,55.596411 L366.396687,55.596411 Z M356.761145,81.2821644 C364.053313,81.2821644 369.962952,87.2040822 369.962952,94.5032603 C369.962952,101.799425 364.053313,107.721342 356.761145,107.721342 C349.456928,107.721342 343.544277,101.799425 343.544277,94.5032603 C343.544277,87.2040822 349.456928,81.2821644 356.761145,81.2821644 L356.761145,81.2821644 Z M391.869578,68.0007945 L397.926807,87.975589 L378.821386,92.2339452 L374.911747,79.3112055 L391.869578,68.0007945 Z M496.532229,286.421616 C496.532229,268.239973 514.381627,200.600521 384.661747,98.4451781 L406.453916,93.596137 L395.231024,56.5396986 L373.589458,70.9783288 L373.589458,48.5202466 L331.104518,48.5202466 C303.441867,28.5786027 290.089458,3.01038356 246.423795,3.01038356 C228.188855,3.01038356 209.044277,6.63586301 204.884639,6.63586301 C201.691867,6.63586301 191.975,4.57750685 175.438855,4.57750685 C127.752108,4.57750685 123.375602,40.1632603 129.34247,52.6731233 C66.6286145,95.636411 35.5533133,126.638329 35.5533133,137.807096 C35.5533133,142.125726 38.1075301,147.746274 38.1075301,155.844082 C38.1075301,173.498329 -0.000903614457,212.369014 -0.000903614457,232.943534 C-0.000903614457,252.167918 24.4599398,253.466822 24.4599398,253.466822 C25.8364458,259.141616 16.3665663,277.947096 24.8756024,287.563808 C13.1165663,300.353945 26.8364458,306.730932 26.8364458,316.917233 C26.8364458,323.818603 22.0653614,325.937233 22.0653614,338.649014 C22.0653614,353.147918 28.8876506,370.681616 64.6587349,370.681616 C78.8093373,370.681616 91.3213855,368.457507 101.288253,368.457507 C104.050301,398.498055 116.869578,410.30874 118.981024,417.852027 C120.676807,423.900521 124.616566,436.986 132.580422,436.986 C142.965964,436.986 200.237048,418.195589 243.731024,391.792575 C265.547289,399.908466 293.258133,397.232301 303.32741,397.232301 C314.312349,397.232301 318.863554,403.949836 325.324398,403.949836 C329.218976,403.949836 358.791265,370.925726 356.917771,298.602986 C375.441867,329.972575 386.435843,350.396411 387.535241,362.065452 C411.535241,353.488466 431.74006,296.613945 422.950904,260.40737 C422.950904,260.40737 453.234036,309.599973 499.146687,302.333945 C499.146687,302.333945 496.532229,293.368192 496.532229,286.421616 L496.532229,286.421616 Z" id="Fill-103"></path>
                </g>
                <path d="M157.95753,275.762164 C150.303916,267.372027 138.716566,243.150932 161.698494,222.293123 C144.138253,217.606822 120.017771,264.533123 157.95753,275.762164" id="Fill-106" fill="#221F20"></path>
                <path d="M130.577108,113.773151 C131.619277,115.008767 133.459639,115.168493 134.69759,114.128767 C135.649398,113.372329 136.290964,111.428493 135.059036,110.006027 C134.706627,109.587123 126.995783,100.455616 116.287952,91.610411 C117.537952,90.6761644 119.230723,89.410411 121.028916,88.0723288 C125.586145,91.9087671 143.281928,107.097808 154.414458,120.939726 C155.429518,122.196438 157.26988,122.392329 158.531928,121.379726 C159.793976,120.367123 159.989759,118.525753 158.971687,117.263014 C148.104217,103.752603 131.754819,89.4767123 125.848193,84.4679452 C127.78494,83.0183562 129.450602,81.7736986 130.327108,81.1167123 C142.3,89.8112329 149.077108,98.1260274 149.143373,98.2134247 C150.158434,99.470137 152.004819,99.6660274 153.260843,98.6534247 C154.516867,97.6378082 154.718675,95.7994521 153.706627,94.5367123 C153.384337,94.1419178 145.745783,84.7180822 131.968675,75.0863014 C130.93253,74.3660274 129.553012,74.390137 128.540964,75.1465753 L109.760843,89.1783562 C108.025904,90.480274 108.372289,92.6923288 109.721687,93.8405479 C121.44759,102.956986 130.486747,113.661644 130.577108,113.773151" id="Fill-108" fill="#221F20"></path>
                <path d="M107.014458,167.289808 C107.014458,167.289808 99.776506,170.562685 82.0656627,171.623507 C81.713253,169.881589 80.6018072,163.323781 82.1710843,157.639945 L107.014458,167.289808 Z M78.9271084,143.659397 C78.5355422,144.557479 77.4993976,144.943233 76.6228916,144.512274 L68.0927711,140.380493 C65.896988,139.316658 66.0325301,137.930356 68.3909639,137.303507 L79.5927711,134.319945 C81.713253,133.75337 82.7313253,134.940767 81.8548193,136.953918 L78.9271084,143.659397 Z M124.960241,138.37337 C107.089759,138.37337 101.237349,119.206247 78.8246988,119.206247 C66.8126506,119.206247 60.5927711,123.93474 60.5927711,127.924877 C60.5927711,131.924055 65.2463855,135.462137 65.2463855,135.462137 C67.5084337,140.359397 51.8879518,145.768986 60.0957831,149.053918 L70.1710843,152.971726 C66.9391566,158.679671 69.0686747,169.290904 69.6801205,171.964055 C49.0506024,172.135836 51.0415663,178.570082 68.963253,178.82926 C68.9963855,181.773644 66.8849398,189.69063 70.1018072,189.69063 C73.4903614,189.69063 77.8246988,185.712548 79.4662651,178.190356 C94.4993976,176.336932 111.460241,171.156384 111.460241,171.156384 C114.403012,170.297479 117.469277,167.567068 111.674096,164.155562 L84.026506,147.878575 C84.026506,147.878575 81.6439759,146.459123 83.2012048,142.878849 L85.3246988,138.002685 C85.9210843,136.538027 87.4180723,136.296932 88.1560241,136.296932 C96.0114458,136.296932 107.830723,148.068438 123.457229,148.068438 C130.249398,148.068438 137.78253,144.099397 137.78253,140.290082 C137.78253,136.47474 128.442169,138.37337 124.960241,138.37337 L124.960241,138.37337 Z" id="Fill-110" fill="#221F20"></path>
            </g>
        </g>
    </g>
</svg>