<?xml version="1.0" encoding="UTF-8" standalone="no"?>
<svg  viewBox="0 0 500 500" version="1.1" xmlns="http://www.w3.org/2000/svg" xmlns:xlink="http://www.w3.org/1999/xlink">
    <!-- Generator: Sketch 39.1 (31720) - http://www.bohemiancoding.com/sketch -->
    <title>CLB</title>
    <desc>Created with Sketch.</desc>
    <defs>
        <polygon id="path-1" points="0.000299401198 434.006849 498.58982 434.006849 498.58982 2.98476986 0.000299401198 2.98476986"></polygon>
    </defs>
    <g id="Page-1" stroke="none" stroke-width="1" fill="none" fill-rule="evenodd">
        <g id="CLB">
            <g id="Page-1" transform="translate(0.000000, 32.000000)">
                <path d="M156.252695,264.32394 C195.522156,264.32394 228.378443,257.307995 245.432335,252.803303 C268.135928,242.387138 297.399401,227.981104 326.797605,210.779467 C302.094012,220.145036 223.914371,248.002289 168.534132,248.002289 C84.5221557,248.002289 58.2736527,199.354611 58.2736527,171.901433 C58.2736527,147.351611 73.9413174,128.829995 73.9413174,128.829995 C73.9413174,128.829995 44.9922156,149.045734 44.9922156,182.718679 C44.9922156,238.115912 100.351497,264.32394 156.252695,264.32394" id="Fill-1" fill="#FEFEFE"></path>
                <path d="M188.564072,290.253903 C32.4502994,290.253903 25.5161677,207.119143 25.851497,189.058472 C22.7646707,198.199554 20.8634731,208.319397 20.8634731,219.382082 C20.8634731,219.382082 22.4862275,311.370582 200.842515,311.370582 C258.908383,311.370582 311.177844,299.128595 327.746707,294.824445 C302.887425,292.310198 280.794611,288.871068 262.366467,285.390034 C249.989222,287.335582 225.357485,290.253903 188.564072,290.253903" id="Fill-3" fill="#FEFEFE"></path>
                <path d="M367.567365,254.558187 C356.821856,261.349646 345.043413,259.679468 341.285928,250.819742 C337.495509,241.954029 343.142216,229.257084 353.896707,222.477598 C364.63024,215.704098 376.348802,217.356317 380.172156,226.242982 C383.923653,235.072776 378.30988,247.763735 367.567365,254.558187 M385.007485,223.564112 C379.929641,212.914482 365.121257,211.070701 351.911677,219.409618 C338.708084,227.781461 332.085329,243.163262 337.16018,253.812892 C342.202096,264.474495 356.998503,266.318276 370.217066,257.964392 C383.441617,249.586564 390.019461,234.213742 385.007485,223.564112" id="Fill-5" fill="#FEFEFE"></path>
                <polygon id="Fill-7" fill="#FEFEFE" points="252.859281 263.251195 252.757485 259.515742 249.464072 263.625338 244.320359 264.298797 247.520958 266.028838 244.320359 270.195304 249.796407 267.327866 253.58982 270.04864 252.907186 265.582859 258 262.685489"></polygon>
                <polygon id="Fill-9" fill="#FEFEFE" points="292.48024 244.485636 292.360479 240.666376 288.944311 244.919643 283.576048 245.596095 286.872455 247.421917 283.567066 251.732054 289.297605 248.750876 293.195808 251.591376 292.543114 246.937027 297.806587 243.919931"></polygon>
                <polygon id="Fill-11" fill="#FEFEFE" points="321.288922 247.56918 321.184132 244.058214 318.079341 247.913392 313.223054 248.54794 316.232036 250.218118 313.223054 254.130166 318.375749 251.424358 321.953593 253.986495 321.357784 249.784112 326.112275 247.033406"></polygon>
                <polygon id="Fill-13" fill="#FEFEFE" points="281.533533 269.164463 281.533533 265.689415 278.353892 269.49371 273.488623 269.9786 276.461677 271.714627 273.332934 275.599737 278.572455 273.004675 282.087425 275.653614 281.578443 271.400347 286.416766 268.748415"></polygon>
                <polygon id="Fill-15" fill="#FEFEFE" points="310.052695 273.177679 310.022754 269.669707 306.831138 273.497947 301.953892 273.98583 304.923952 275.718864 301.849102 279.592001 307.055689 276.967008 310.567665 279.627919 310.061677 275.404584 314.902994 272.722721"></polygon>
                <polygon id="Fill-17" fill="#FEFEFE" points="333.59521 219.704444 333.445509 215.262608 329.535329 220.183348 323.331737 220.958574 327.152096 223.077725 323.331737 228.028396 329.900599 224.598245 334.442515 227.878738 333.64012 222.506033 339.747904 219.00704"></polygon>
                <polygon id="Fill-19" fill="#FEFEFE" points="372.455988 196.647605 368.911078 203.106825 376.315269 198.207037 382.961976 201.622222 380.551796 195.246811 387.357186 190.302126 379.719461 191.840605 378.369162 186.491845 374.683533 192.906167 367.03982 194.546414"></polygon>
                <polygon id="Fill-21" fill="#FEFEFE" points="434.359581 164.763666 425.206886 165.80229 424.428443 159.037769 419.147006 166.532618 409.964371 167.741851 416.015269 170.938536 410.928443 178.553112 420.338623 173.297139 427.59012 178.268762 425.70988 170.127392"></polygon>
                <polygon id="Fill-23" fill="#FEFEFE" points="385.908683 276.562634 385.872754 271.183942 380.959581 277.038545 373.444611 277.828736 378.046407 280.462709 373.238024 286.434045 381.255988 282.429209 386.702096 286.478942 385.917665 279.977818 393.390719 275.889175"></polygon>
                <polygon id="Fill-25" fill="#FEFEFE" points="400.244311 241.144682 400.118563 236.220949 395.696407 241.686442 388.81018 242.590373 393.112575 244.919045 388.79521 250.45338 396.136527 246.652079 401.208383 250.29175 400.334132 244.311435 407.082635 240.399387"></polygon>
                <polygon id="Fill-27" fill="#FEFEFE" points="412.597605 206.305305 412.441916 200.923621 407.660479 206.87999 400.178443 207.843785 404.822156 210.370004 400.178443 216.419162 408.130539 212.261675 413.618563 216.230593 412.699401 209.735456 420.040719 205.485182"></polygon>
                <polygon id="Fill-29" fill="#FEFEFE" points="346.09491 272.64849 342.418263 277.069374 336.792515 277.620114 340.202695 279.616545 336.627844 284.079333 342.663772 281.071216 346.750599 284.115251 346.13982 279.26036 351.702695 276.204353 346.118862 276.680264"></polygon>
                <polygon id="Fill-31" fill="#FEFEFE" points="243.687425 76.8222055 225.510778 159.388267 261.154491 136.263185"></polygon>
                <path d="M372.423952,114.812471 L225.510778,159.389464 C225.510778,159.389464 279.48982,171.161526 281.130539,171.391999 C282.79521,171.631451 372.423952,114.812471 372.423952,114.812471" id="Fill-33" fill="#FEFEFE"></path>
                <path d="M254.128443,205.051475 L225.508683,159.387968 L225.508683,211.181447 C234.945808,209.496303 244.514671,207.431029 254.128443,205.051475" id="Fill-35" fill="#FEFEFE"></path>
                <path d="M169.968563,216.041725 C171.591317,216.068664 173.247006,216.089616 174.962575,216.089616 C179.621257,216.089616 184.345808,215.939958 189.148204,215.646629 L225.510479,159.387369 L182.827844,190.797492 L169.968563,216.041725 Z" id="Fill-37" fill="#FEFEFE"></path>
                <polygon id="Fill-39" fill="#FEFEFE" points="210.089521 150.935011 130.903892 172.312093 225.508683 159.387668"></polygon>
                <path d="M329.633533,341.228158 L349.157485,356.675808 L334.609581,333.460932 C332.480838,335.220904 330.834132,337.588486 329.633533,341.228158" id="Fill-41" fill="#FEFEFE"></path>
                <path d="M99.6853293,354.08344 L114.715269,330.823666 C113.855988,330.524351 112.92485,330.281906 111.882934,330.117283 L99.6853293,354.08344 Z" id="Fill-43" fill="#FEFEFE"></path>
                <g id="Group-47" transform="translate(0.000000, 0.008979)">
                    <mask id="mask-2" fill="white">
                        <use xlink:href="#path-1"></use>
                    </mask>
                    <g id="Clip-46"></g>
                    <path d="M388.697904,411.780311 L300.647006,333.551325 C276.009281,337.538201 246.973353,340.351763 213.985329,340.351763 C187.655988,340.351763 164.338623,338.741448 143.775749,335.766256 L64.3715569,400.005256 L98.4553892,325.76614 C32.4823353,305.140338 8.39850299,265.041099 8.39850299,221.269263 C8.39850299,143.168982 106.431437,74.4941329 221.658982,57.9988795 L217.09012,67.3045849 L211.829641,78.0200644 L186.72485,129.17301 L110.182934,160.565174 L192.652994,137.149756 L246.712874,25.1041534 L256.772754,54.6465507 C262.521257,54.374174 268.284731,54.2334959 274.063174,54.2334959 C343.20988,54.2334959 384.350599,77.1909616 384.350599,77.1909616 L287.191916,116.317427 L460.811677,71.8661466 L304.614072,180.170311 L307.814671,188.997112 C398.895509,157.551071 480.67994,109.942016 480.67994,109.942016 L395.126048,306.759633 C395.126048,306.759633 381.404491,313.640886 355.793713,321.174647 L388.697904,411.780311 Z M401.617066,312.898585 L498.59012,89.8011055 C498.59012,89.8011055 428.410479,131.34903 348.227844,163.106359 L486.006287,60.6987014 L399.284731,75.6165644 C386.874551,68.1845712 343.736826,45.8347151 274.063174,45.8347151 C274.063174,45.8347151 267.955389,45.9783863 262.742814,46.1040986 C260.182934,38.5882973 248.057186,2.98476986 248.057186,2.98476986 L225.823653,49.0673178 C98.8416168,65.3889685 0.000299401198,140.3644 0.000299401198,221.269263 C0.000299401198,257.420537 15.5182635,304.969729 86.9763473,330.650962 L50.9284431,419.71216 L146.290719,344.533195 C166.784731,347.295873 189.476347,348.741564 213.985329,348.741564 C242.670958,348.741564 270.877545,346.57153 297.961377,342.408058 L402.311677,434.007448 L366.703892,326.604222 C366.703892,326.604222 387.697904,319.824736 401.617066,312.898585 L401.617066,312.898585 Z" id="Fill-45" fill="#B1B7BB" mask="url(#mask-2)"></path>
                </g>
                <path d="M149.451796,214.708875 L156.263174,199.868834 L116.391916,188.907916 C116.391916,188.907916 105.047605,209.168553 149.451796,214.708875" id="Fill-48" fill="#B1B7BB"></path>
                <path d="M225.50988,211.180849 L225.50988,159.387369 L189.147605,215.646629 C200.908084,214.940246 213.096707,213.389794 225.50988,211.180849" id="Fill-50" fill="#B1B7BB"></path>
                <path d="M266.060479,134.84084 L243.686228,64.9208397 L208.246108,149.486326 L111.883832,173.593162 L179.338922,190.100388 L166.398802,215.96121 C167.563473,215.985155 168.75509,216.015086 169.967665,216.042025 L182.826946,190.794799 L225.509581,159.387668 L130.901796,172.312093 L210.090419,150.935011 L225.509581,159.387668 L243.686228,76.8216068 L261.153293,136.265579 L225.509581,159.387668 L372.422754,114.813668 C372.422754,114.813668 282.794012,171.632648 281.129341,171.393196 C279.488623,171.162723 225.509581,159.387668 225.509581,159.387668 L254.129341,205.051175 C266.820958,201.92034 279.596407,198.232778 292.279042,194.174066 L284.967665,174.733552 L393.084431,104.077237 L266.060479,134.84084 Z" id="Fill-52" fill="#B1B7BB"></path>
                <path d="M334.60988,333.46153 L349.157784,356.676407 L329.633832,341.228756 C329.214671,342.512818 328.840419,343.946537 328.529042,345.565832 L357.97515,368.792681 L343.067964,329.169352 C339.657784,330.435455 336.867365,331.60877 334.60988,333.46153" id="Fill-54" fill="#B1B7BB"></path>
                <path d="M114.713772,330.82217 L99.6838323,354.081944 L111.884431,330.118779 C111.1,329.999053 110.258683,329.927218 109.366467,329.897286 L93.345509,361.894067 L123.441317,339.484348 C121.531138,335.985355 119.309581,332.45643 114.713772,330.82217" id="Fill-56" fill="#B1B7BB"></path>
                <path d="M355.880838,76.3750288 C355.880838,76.3750288 323.198204,60.4724192 259.467665,62.5706178 L262.398802,71.1849055 C269.449701,70.3707685 307.823952,66.7221178 355.880838,76.3750288" id="Fill-58" fill="#E21836"></path>
                <path d="M188.564072,290.253903 C225.357485,290.253903 249.989222,287.335582 262.366467,285.390034 C225.091018,278.344157 202.788623,271.133657 202.788623,271.133657 C202.788623,271.133657 219.998204,264.46791 245.432335,252.803602 C228.378443,257.308294 195.522156,264.324239 156.252695,264.324239 C100.351497,264.324239 44.9922156,238.116212 44.9922156,182.718979 C44.9922156,149.046034 73.9413174,128.830294 73.9413174,128.830294 C73.9413174,128.830294 39.0580838,149.920034 25.851497,189.058472 C25.5161677,207.119143 32.4502994,290.253903 188.564072,290.253903" id="Fill-60" fill="#E21836"></path>
                <path d="M168.532934,248.00199 C223.913174,248.00199 302.092814,220.144736 326.796407,210.779168 C350.443114,196.953805 374.179641,181.326565 394.673653,164.496079 C394.673653,164.496079 275.377246,229.570168 176.287425,229.570168 C109.724551,229.570168 78.9191617,198.704798 78.9191617,178.001175 C78.9191617,116.321318 187.520958,84.4053527 211.829341,78.0299418 L217.08982,67.3144623 C112.739521,87.847476 73.9401198,128.829695 73.9401198,128.829695 C73.9401198,128.829695 58.2754491,147.351312 58.2754491,171.901134 C58.2754491,199.354312 84.5209581,248.00199 168.532934,248.00199" id="Fill-62" fill="#E21836"></path>
                <path d="M200.841317,311.369684 C22.488024,311.369684 20.8652695,219.384177 20.8652695,219.384177 C20.8652695,266.541266 51.7814371,328.215136 210.290419,328.215136 C322.709581,328.215136 382.553892,298.403355 382.553892,298.403355 C363.170659,297.840642 344.805389,296.553588 327.748503,294.82654 C311.176647,299.127697 258.91018,311.369684 200.841317,311.369684" id="Fill-64" fill="#E21836"></path>
                <path d="M353.895509,222.478197 C343.141018,229.257683 337.494311,241.954628 341.284731,250.82034 C345.042216,259.680066 356.823653,261.347251 367.566168,254.558786 C378.308683,247.764334 383.922455,235.073375 380.170958,226.24358 C376.347605,217.356916 364.629042,215.701703 353.895509,222.478197" id="Fill-66" fill="#E21836"></path>
                <path d="M357.974251,368.791783 L328.528144,345.564934 C328.842515,343.945639 329.216766,342.514913 329.632934,341.227858 C330.836527,337.588187 332.48024,335.220605 334.608982,333.460632 C336.866467,331.607872 339.65988,330.43755 343.067066,329.171447 L357.974251,368.791783 Z M93.345509,361.892571 L109.366467,329.898783 C110.258683,329.928714 111.1,329.997557 111.884431,330.117283 C112.923353,330.281906 113.857485,330.524351 114.713772,330.820673 C119.309581,332.454934 121.531138,335.983858 123.441317,339.482851 L93.345509,361.892571 Z M381.255689,282.427413 L373.237725,286.432249 L378.046108,280.460913 L373.444311,277.82694 L380.959281,277.039742 L385.872455,271.185139 L385.908383,276.563831 L393.390419,275.890372 L385.917365,279.976023 L386.701796,286.480139 L381.255689,282.427413 Z M337.15988,253.812892 C332.088024,243.163262 338.710778,227.781461 351.914371,219.409618 C365.120958,211.070701 379.929341,212.914482 385.007186,223.564112 C390.019162,234.213742 383.441317,249.586564 370.216766,257.964392 C356.998204,266.318276 342.201796,264.474495 337.15988,253.812892 L337.15988,253.812892 Z M346.749701,284.11555 L342.662874,281.071516 L336.626946,284.079632 L340.201796,279.616845 L336.794611,277.620413 L342.420359,277.06668 L346.094012,272.64879 L346.117964,276.680564 L351.701796,276.204653 L346.138922,279.26066 L346.749701,284.11555 Z M329.899401,224.596749 L323.333533,228.029892 L327.150898,223.076228 L323.333533,220.957077 L329.534132,220.184845 L333.447305,215.261112 L333.594012,219.70594 L339.746707,219.005543 L333.638922,222.507529 L334.444311,227.880235 L329.899401,224.596749 Z M321.953293,253.986495 L318.375449,251.424358 L313.222754,254.130166 L316.231737,250.218118 L313.222754,248.54794 L318.079042,247.913392 L321.183832,244.058214 L321.288623,247.56918 L326.111976,247.033406 L321.357485,249.784112 L321.953293,253.986495 Z M310.567066,279.628817 L307.05509,276.964913 L301.848503,279.589906 L304.923353,275.716769 L301.953293,273.986728 L306.830539,273.498845 L310.022156,269.670605 L310.052096,273.178577 L314.902395,272.720625 L310.061078,275.405482 L310.567066,279.628817 Z M293.195808,251.591975 L289.297605,248.751475 L283.567066,251.732653 L286.872455,247.422516 L283.576048,245.596694 L288.944311,244.917249 L292.360479,240.663982 L292.48024,244.486235 L297.806587,243.917536 L292.543114,246.937625 L293.195808,251.591975 Z M282.088024,275.653913 L278.573054,273.004975 L273.333533,275.600036 L276.459281,271.711934 L273.489222,269.978899 L278.354491,269.494009 L281.534132,265.689714 L281.534132,269.164762 L286.417365,268.748714 L281.576048,271.400646 L282.088024,275.653913 Z M374.683832,192.905269 L378.369461,186.49394 L379.71976,191.839708 L387.357485,190.301228 L380.552096,195.248906 L382.962275,201.624317 L376.315569,198.209132 L368.911377,203.10892 L372.456287,196.646708 L367.037126,194.545516 L374.683832,192.905269 Z M388.809581,242.591571 L395.698802,241.684646 L400.117964,236.222146 L400.243713,241.145879 L407.082036,240.400584 L400.333533,244.309639 L401.210778,250.289954 L396.135928,246.650283 L388.794611,250.454577 L393.111976,244.917249 L388.809581,242.591571 Z M400.177844,207.844084 L407.65988,206.88029 L412.441317,200.92392 L412.597006,206.305605 L420.04012,205.482488 L412.698802,209.735755 L413.617964,216.230892 L408.12994,212.261975 L400.177844,216.419461 L404.824551,210.370303 L400.177844,207.844084 Z M419.147904,166.532618 L424.426347,159.037769 L425.207784,165.80229 L434.360479,164.763666 L425.710778,170.127392 L427.591018,178.268762 L420.339521,173.297139 L410.929341,178.553112 L416.016168,170.938536 L409.962275,167.741851 L419.147904,166.532618 Z M253.591018,270.047742 L249.794611,267.329961 L244.318563,270.197399 L247.519162,266.02794 L244.318563,264.297899 L249.465269,263.62444 L252.755689,259.514845 L252.860479,263.250297 L257.998204,262.684591 L252.905389,265.584954 L253.591018,270.047742 Z M254.12994,205.051475 C244.516168,207.431029 234.944311,209.496303 225.51018,211.181447 C213.094012,213.390392 200.908383,214.940845 189.147904,215.647228 C184.345509,215.940557 179.620958,216.087221 174.962275,216.087221 C173.246707,216.087221 171.591018,216.069262 169.968263,216.042324 C168.755689,216.015386 167.561078,215.985454 166.399401,215.958516 L179.339521,190.100687 L111.884431,173.593461 L208.246707,149.483632 L243.686826,64.921139 L266.061078,134.841139 L393.08503,104.077536 L284.968263,174.733851 L292.279641,194.174365 C279.597006,198.233077 266.821557,201.920639 254.12994,205.051475 L254.12994,205.051475 Z M149.453293,214.707379 C105.049102,209.17005 116.393413,188.90642 116.393413,188.90642 L156.261677,199.870331 L149.453293,214.707379 Z M355.881437,76.3759267 C307.824551,66.7230158 269.450299,70.3716664 262.399401,71.1828103 L259.468263,62.5685226 C323.198802,60.470324 355.881437,76.3759267 355.881437,76.3759267 L355.881437,76.3759267 Z M395.126946,306.767714 L480.677844,109.953091 C480.677844,109.953091 398.896407,157.562146 307.815569,189.008187 L304.61497,180.178392 L460.812575,71.8772212 L287.18982,116.325509 L384.351497,77.1990432 C384.351497,77.1990432 343.207784,54.2415774 274.064072,54.2415774 C268.285629,54.2415774 262.519162,54.3822555 256.773653,54.6546322 L246.713772,25.1122349 L192.653892,137.157838 L110.180838,160.576249 L186.725749,129.181091 L211.827545,78.0281459 C187.519162,84.4035568 78.9203593,116.319523 78.9203593,178.002372 C78.9203593,198.705995 109.725749,229.568372 176.285629,229.568372 C275.375449,229.568372 394.67485,164.497276 394.67485,164.497276 C374.177844,181.324769 350.441317,196.955002 326.797605,210.780365 C297.399401,227.982002 268.135928,242.388036 245.432335,252.804201 C219.998204,264.468509 202.788623,271.134255 202.788623,271.134255 C202.788623,271.134255 225.091018,278.341762 262.366467,285.390632 C280.794611,288.871666 302.887425,292.310797 327.746707,294.825043 C344.806587,296.552091 363.168862,297.842139 382.55509,298.401858 C382.55509,298.401858 322.710778,328.213639 210.291617,328.213639 C51.7826347,328.213639 20.8634731,266.542762 20.8634731,219.38268 C20.8634731,208.319995 22.7646707,198.200153 25.851497,189.059071 C39.0580838,149.920632 73.9413174,128.830892 73.9413174,128.830892 C73.9413174,128.830892 112.740719,87.8486733 217.088024,67.3126664 L221.65988,58.006961 C106.429341,74.5052075 8.3994012,143.177064 8.3994012,221.277345 C8.3994012,265.04918 32.4832335,305.14842 98.4532934,325.774221 L64.3724551,400.016331 L143.776647,335.774338 C164.339521,338.749529 187.653892,340.359845 213.986228,340.359845 C246.974251,340.359845 276.01018,337.549276 300.647904,333.562399 L388.698802,411.788392 L355.791617,321.182728 C381.402395,313.648968 395.126946,306.767714 395.126946,306.767714 L395.126946,306.767714 Z" id="Fill-68" fill="#002D62"></path>
            </g>
        </g>
    </g>
</svg>