<?xml version="1.0" encoding="UTF-8" standalone="no"?>
<svg  viewBox="0 0 500 500" version="1.1" xmlns="http://www.w3.org/2000/svg" xmlns:xlink="http://www.w3.org/1999/xlink">
    <!-- Generator: Sketch 39.1 (31720) - http://www.bohemiancoding.com/sketch -->
    <title>STL</title>
    <desc>Created with Sketch.</desc>
    <defs>
        <polygon id="path-1" points="496.941718 398.930377 496.941718 1.58038168 0.000613496932 1.58038168 0.000613496932 398.930377 496.941718 398.930377"></polygon>
    </defs>
    <g id="Page-1" stroke="none" stroke-width="1" fill="none" fill-rule="evenodd">
        <g id="STL">
            <g id="Page-1" transform="translate(0.000000, 49.000000)">
                <path d="M428.537423,67.6722504 L451.21227,67.6722504 C447.328834,89.7331511 407.604908,109.216342 407.604908,109.216342 L426.22454,109.216342 C415.497546,137.954739 365.288957,150.754296 365.288957,150.754296 L385.549693,150.754296 C385.549693,150.754296 363.16319,188.870647 288.822699,188.870647 C287.206135,188.870647 285.706135,188.852235 284.310429,188.821548 L301.503681,207.061915 C255.669325,211.060434 220.586503,206.840968 220.586503,206.840968 C224.887117,214.288708 234.568098,226.262785 234.568098,226.262785 C213.23681,228.518281 182.399387,217.73793 182.399387,217.73793 L231.325767,297.708311 C236.190798,305.683869 238.660123,314.156556 238.660123,322.883945 C238.660123,358.91051 195.469939,388.228892 142.384049,388.228892 C89.2920245,388.228892 46.1018405,358.91051 46.1018405,322.883945 C46.1018405,286.845105 89.2920245,257.529792 142.384049,257.529792 C152.577301,257.529792 162.460736,258.656006 171.957669,260.733518 L21.7490798,15.2588153 L58.4944785,15.2588153 L92.5680982,70.9312122 C134.7,73.2388763 130.534356,48.6524336 108.598773,15.2588153 L478.696933,15.2588153 C468.144785,45.3136855 428.537423,67.6722504 428.537423,67.6722504 M486.776687,10.2292122 L99.6325153,10.2292122 C131.362577,58.306571 121.991411,66.0550443 95.4699387,66.0550443 L61.3134969,10.2292122 L12.7766871,10.2292122 L161.859509,253.865762 C155.488344,253.0188 149.006748,252.500189 142.384049,252.500189 C85.5742331,252.500189 41.0742331,283.411227 41.0742331,322.883945 C41.0742331,362.344388 85.5742331,393.258495 142.384049,393.258495 C199.184663,393.258495 243.68773,362.344388 243.68773,322.883945 C243.68773,313.217533 240.973006,303.867197 235.61411,295.08764 L193.402454,226.097075 C193.402454,226.097075 222.764417,235.781899 243.359509,229.356037 L230.344172,212.594785 C230.344172,212.594785 278.825767,216.62706 311.252147,210.072311 L295.816564,193.703853 C295.816564,193.703853 368.022086,192.988846 394.960736,148.385258 L382.607975,148.385258 C382.607975,148.385258 416.647853,143.631838 433.828834,106.847304 L421.246012,106.847304 C421.246012,106.847304 450.534356,93.3450137 458.491411,62.6426473 L444.887117,62.6426473 C444.887117,62.6426473 475.288957,42.4505863 486.776687,10.2292122" id="Fill-1" fill="#FEFEFE"></path>
                <path d="M416.258282,68.6339817 L137.460736,68.6339817 L140.13865,73.0099511 L443.497546,73.0099511 C437.301227,89.3845466 394.227607,110.178073 394.227607,110.178073 L162.880982,110.178073 L165.552761,114.547905 L416.899387,114.547905 C401.969939,139.898455 340.104908,151.716027 340.104908,151.716027 L188.29816,151.716027 L190.973006,156.08586 L373.942331,156.08586 C373.942331,156.08586 350.356442,183.53847 288.822699,183.53847 C276.635583,183.53847 270.960736,182.442944 270.960736,182.442944 L289.973006,202.607386 C255.003681,205.3416 211.338037,200.634211 211.338037,200.634211 C215.969939,211.153722 223.62638,220.927539 223.62638,220.927539 C206.810429,220.927539 170.353374,208.272211 170.353374,208.272211 L226.77362,300.483646 C231.000613,307.409707 233.322699,314.967921 233.322699,322.885173 C233.322699,356.024089 192.607975,382.896715 142.384049,382.896715 C92.1478528,382.896715 51.4331288,356.024089 51.4331288,322.885173 C51.4331288,289.730913 92.1478528,262.861356 142.384049,262.861356 C157.166258,262.861356 171.123313,265.199707 183.469939,269.333249 L31.2613497,20.5903786 L55.509816,20.5903786 L89.4760736,76.1093405 C118.071166,78.9969893 147.28589,68.2626687 118.117178,20.5903786 L470.12638,20.5903786 C456.884049,47.4906229 416.258282,68.6339817 416.258282,68.6339817 M478.696933,15.2600427 L108.598773,15.2600427 C130.534356,48.6505924 134.7,73.2401038 92.5680982,70.9324397 L58.4944785,15.2600427 L21.7490798,15.2600427 L171.957669,260.734745 C162.460736,258.657234 152.577301,257.53102 142.384049,257.53102 C89.2920245,257.53102 46.1018405,286.843264 46.1018405,322.885173 C46.1018405,358.911737 89.2920245,388.230119 142.384049,388.230119 C195.469939,388.230119 238.660123,358.911737 238.660123,322.885173 C238.660123,314.157783 236.190798,305.682027 231.325767,297.709539 L182.399387,217.739157 C182.399387,217.739157 213.23681,228.519508 234.568098,226.260944 C234.568098,226.260944 224.887117,214.289936 220.586503,206.839127 C220.586503,206.839127 255.669325,211.058592 301.503681,207.060073 L284.310429,188.819707 C285.709202,188.853463 287.206135,188.871875 288.822699,188.871875 C363.16319,188.871875 385.549693,150.755524 385.549693,150.755524 L365.288957,150.755524 C365.288957,150.755524 415.497546,137.955966 426.22454,109.217569 L407.604908,109.217569 C407.604908,109.217569 447.328834,89.7343786 451.21227,67.6734779 L428.537423,67.6734779 C428.537423,67.6734779 468.144785,45.3118443 478.696933,15.2600427" id="Fill-3" fill="#FDBB30"></path>
                <g id="Group-7" transform="translate(0.000000, 1.488321)">
                    <mask id="mask-2" fill="white">
                        <use xlink:href="#path-1"></use>
                    </mask>
                    <g id="Clip-6"></g>
                    <path d="M444.887117,61.1552473 L458.491411,61.1552473 C450.534356,91.8576137 421.246012,105.356835 421.246012,105.356835 L433.828834,105.356835 C416.647853,142.144438 382.607975,146.894789 382.607975,146.894789 L394.960736,146.894789 C368.022086,191.501446 295.816564,192.216453 295.816564,192.216453 L311.252147,208.584911 C278.825767,215.13966 230.344172,211.104316 230.344172,211.104316 L243.359509,227.868637 C222.764417,234.294499 193.402454,224.609675 193.402454,224.609675 L235.61411,293.60024 C240.969939,302.376728 243.68773,311.727064 243.68773,321.396545 C243.68773,360.856988 199.184663,391.768026 142.384049,391.768026 C85.5742331,391.768026 41.0742331,360.856988 41.0742331,321.396545 C41.0742331,281.920759 85.5742331,251.012789 142.384049,251.012789 C149.006748,251.012789 155.488344,251.5314 161.859509,252.378362 L12.7766871,8.74181221 L61.3134969,8.74181221 L95.4699387,64.5645756 C121.991411,64.5645756 131.362577,56.819171 99.6325153,8.74181221 L486.776687,8.74181221 C475.288957,40.9631863 444.887117,61.1552473 444.887117,61.1552473 M496.942331,1.57946107 L86.3257669,1.57946107 C113.528221,44.0226824 122.568098,57.9852779 99.4331288,57.3193695 L65.3226994,1.57946107 L0.000613496932,1.57946107 L148.377914,244.065247 C146.374847,243.976255 144.347239,243.850438 142.384049,243.850438 C81.5650307,243.850438 33.9177914,277.909965 33.9177914,321.396545 C33.9177914,364.873919 81.5650307,398.930377 142.384049,398.930377 C203.203067,398.930377 250.838037,364.873919 250.838037,321.396545 C250.838037,310.395247 247.77362,299.789812 241.730675,289.868698 L208.485276,235.534255 C208.485276,235.534255 235.246012,240.916759 255.334969,231.637003 L245.641718,219.144316 C245.641718,219.144316 286.448466,222.937232 324.043558,211.724194 L311.295092,198.203492 C311.295092,198.203492 368.519018,196.751995 408.18773,145.851431 L404.239877,145.851431 C404.239877,145.851431 433.77362,131.597308 446.221472,100.075598 L442.371779,100.075598 C442.371779,100.075598 461.307362,85.9718427 467.74908,56.9971557 L462.178528,56.9971557 C462.178528,56.9971557 492.242945,35.7801481 496.942331,1.57946107" id="Fill-5" fill="#002D62" mask="url(#mask-2)"></path>
                </g>
                <path d="M118.117791,20.5897649 C147.286503,68.262055 118.068712,78.9963756 89.4766871,76.1087267 L55.5104294,20.5897649 L31.2619632,20.5897649 L183.470552,269.335704 C171.120859,265.199093 157.163804,262.860742 142.384663,262.860742 C92.1484663,262.860742 51.4337423,289.730299 51.4337423,322.884559 C51.4337423,356.026544 92.1484663,382.896101 142.384663,382.896101 C192.608589,382.896101 233.323313,356.026544 233.323313,322.884559 C233.323313,314.967307 230.99816,307.409093 226.771166,300.483032 L170.35092,208.271597 C170.35092,208.271597 206.811043,220.926925 223.626994,220.926925 C223.626994,220.926925 215.967485,211.156177 211.33865,200.633597 C211.33865,200.633597 255.001227,205.340986 289.97362,202.606773 L270.96135,182.44233 C270.96135,182.44233 276.636196,183.540925 288.823313,183.540925 C350.353988,183.540925 373.942945,156.085246 373.942945,156.085246 L190.970552,156.085246 L188.295706,151.715414 L340.105521,151.715414 C340.105521,151.715414 401.970552,139.897841 416.9,114.547292 L165.553374,114.547292 L162.878528,110.17746 L394.228221,110.17746 C394.228221,110.17746 437.30184,89.3839328 443.49816,73.0093374 L140.139264,73.0093374 L137.46135,68.6333679 L416.258896,68.6333679 C416.258896,68.6333679 456.884663,47.4930779 470.123926,20.5897649 L118.117791,20.5897649 Z" id="Fill-8" fill="#002D62"></path>
            </g>
        </g>
    </g>
</svg>