<?xml version="1.0" encoding="UTF-8" standalone="no"?>
<svg  viewBox="0 0 500 500" version="1.1" xmlns="http://www.w3.org/2000/svg" xmlns:xlink="http://www.w3.org/1999/xlink">
    <!-- Generator: Sketch 39.1 (31720) - http://www.bohemiancoding.com/sketch -->
    <title>BOS</title>
    <desc>Created with Sketch.</desc>
    <defs>
        <polygon id="path-1" points="500 249.999653 500 0 0 0 0 249.999653 0 499.999306 500 499.999306"></polygon>
    </defs>
    <g id="Page-1" stroke="none" stroke-width="1" fill="none" fill-rule="evenodd">
        <g id="BOS">
            <g id="Page-1">
                <path d="M316.533333,388.600694 L274.765972,388.600694 L274.765972,453.427083 C312.814583,448.84375 347.634028,433.84375 376.325,411.354167 L335.304167,370.329861 L316.533333,388.600694 Z" id="Fill-1" fill="#FEFEFE"></path>
                <path d="M225.233333,111.402778 L225.233333,46.5729167 C187.184722,51.1597222 152.365278,66.15625 123.674306,88.6493056 L146.427778,111.402778 L225.233333,111.402778 Z" id="Fill-3" fill="#FEFEFE"></path>
                <path d="M152.303125,274.770139 L46.5739583,274.770139 C51.1607639,312.815278 66.1572917,347.634722 88.6538194,376.329167 L152.303125,312.679861 L152.303125,274.770139 Z" id="Fill-5" fill="#FEFEFE"></path>
                <path d="M364.976736,329.955903 L411.348264,376.327431 C433.844792,347.636458 448.841319,312.817014 453.428125,274.768403 L364.976736,274.768403 L364.976736,329.955903 Z" id="Fill-7" fill="#FEFEFE"></path>
                <path d="M225.233333,388.600694 L146.427778,388.600694 L123.674306,411.354167 C152.365278,433.84375 187.184722,448.84375 225.233333,453.427083 L225.233333,388.600694 Z" id="Fill-9" fill="#FEFEFE"></path>
                <path d="M335.305208,129.669097 L376.326042,88.6517361 C347.638542,66.1552083 312.815625,51.1586806 274.767014,46.571875 L274.767014,111.401736 L316.534375,111.401736 L335.305208,129.669097 Z" id="Fill-11" fill="#FEFEFE"></path>
                <path d="M152.303125,187.327083 L88.6503472,123.674306 C66.1572917,152.365278 51.1607639,187.184722 46.5739583,225.233333 L152.303125,225.233333 L152.303125,187.327083 Z" id="Fill-13" fill="#FEFEFE"></path>
                <path d="M364.976736,170.047222 L364.976736,225.234722 L453.428125,225.234722 C448.841319,187.186111 433.848264,152.363194 411.348264,123.675694 L364.976736,170.047222 Z" id="Fill-15" fill="#FEFEFE"></path>
                <polygon id="Fill-17" fill="#FEFEFE" points="286.892361 207.353472 286.892361 191.266667 281.309028 185.836111 227.732639 185.836111 227.732639 212.784028 281.309028 212.784028"></polygon>
                <polygon id="Fill-19" fill="#FEFEFE" points="286.892361 308.732639 286.892361 292.645833 281.309028 287.21875 227.732639 287.21875 227.732639 314.166667 281.309028 314.166667"></polygon>
                <g id="Group-23">
                    <mask id="mask-2" fill="white">
                        <use xlink:href="#path-1"></use>
                    </mask>
                    <g id="Clip-22"></g>
                    <path d="M250,9.29097222 C382.940972,9.29097222 490.711806,117.054861 490.711806,249.999306 C490.711806,382.936806 382.940972,490.711111 250,490.711111 C117.055556,490.711111 9.29166667,382.936806 9.29166667,249.999306 C9.29166667,117.054861 117.055556,9.29097222 250,9.29097222 M250,499.999306 C388.072917,499.999306 500,388.06875 500,249.999306 C500,111.929861 388.072917,-0.000694444444 250,-0.000694444444 C111.927083,-0.000694444444 0,111.929861 0,249.999306 C0,388.06875 111.927083,499.999306 250,499.999306" id="Fill-21" fill="#FDBB30" mask="url(#mask-2)"></path>
                </g>
                <path d="M350.911458,250 L364.873264,263.579861 L454.473958,263.579861 C454.765625,259.086806 454.970486,254.565972 454.970486,250 C454.970486,245.434028 454.765625,240.916667 454.473958,236.423611 L364.869792,236.423611 L350.911458,250 Z" id="Fill-24" fill="#FDBB30"></path>
                <path d="M263.580208,45.5253472 C259.083681,45.2336806 254.566319,45.0288194 250.000347,45.0288194 C245.430903,45.0288194 240.917014,45.2336806 236.423958,45.5253472 L236.423958,111.403819 L263.580208,111.403819 L263.580208,45.5253472 Z" id="Fill-26" fill="#FDBB30"></path>
                <path d="M236.422917,454.471181 C240.915972,454.766319 245.433333,454.971181 249.999306,454.971181 C254.56875,454.971181 259.082639,454.766319 263.579167,454.471181 L263.579167,388.599653 L236.422917,388.599653 L236.422917,454.471181 Z" id="Fill-28" fill="#FDBB30"></path>
                <path d="M115.022569,404.181597 L135.026042,384.178125 L135.026042,345.778819 L95.8211806,384.983681 C101.793403,391.796181 108.206597,398.209375 115.022569,404.181597" id="Fill-30" fill="#FDBB30"></path>
                <path d="M343.324306,362.525 L384.980556,404.18125 C391.793056,398.209028 398.20625,391.795833 404.178472,384.983333 L362.786111,343.590972 L343.324306,362.525 Z" id="Fill-32" fill="#FDBB30"></path>
                <path d="M152.303125,236.422917 L45.5288194,236.422917 C45.2336806,240.915972 45.0288194,245.433333 45.0288194,249.999306 C45.0288194,254.56875 45.2336806,259.086111 45.5288194,263.579167 L152.303125,263.579167 L152.303125,236.422917 Z" id="Fill-34" fill="#FDBB30"></path>
                <path d="M135.026736,115.824306 L115.023264,95.8208333 C108.203819,101.793056 101.794097,108.20625 95.821875,115.022222 L135.026736,154.227083 L135.026736,115.824306 Z" id="Fill-36" fill="#FDBB30"></path>
                <path d="M404.183333,115.020833 C398.211111,108.204861 391.797917,101.791667 384.978472,95.8194444 L343.325694,137.475694 L362.790972,156.413194 L404.183333,115.020833 Z" id="Fill-38" fill="#FDBB30"></path>
                <path d="M217.222569,223.297222 L217.222569,175.325 L285.580208,175.325 L297.406597,186.825 L297.406597,211.790278 L285.580208,223.297222 L217.222569,223.297222 Z M306.087153,215.456944 L306.087153,183.161806 L289.107986,166.644444 L208.542014,166.644444 L208.542014,231.977778 L289.107986,231.977778 L306.087153,215.456944 Z" id="Fill-40" fill="#FDBB30"></path>
                <path d="M154.21875,155.788889 L154.21875,130.597917 L308.732639,130.597917 L345.78125,166.643056 L345.78125,228.209028 L323.392361,250.000694 L345.78125,271.792361 L345.78125,333.358333 L308.732639,369.403472 L154.21875,369.403472 L154.21875,344.215972 L171.496528,327.403472 L171.496528,172.597917 L154.21875,155.788889 Z M162.815972,323.733333 L145.538194,340.549306 L145.538194,378.084028 L312.260417,378.084028 L354.461806,337.021528 L354.461806,268.122222 L335.833333,250.000694 L354.461806,231.875694 L354.461806,162.976389 L312.260417,121.917361 L145.538194,121.917361 L145.538194,159.455556 L162.815972,176.261111 L162.815972,323.733333 Z" id="Fill-42" fill="#FDBB30"></path>
                <path d="M217.222569,324.676389 L217.222569,276.707639 L285.580208,276.707639 L297.406597,288.207639 L297.406597,313.176389 L285.580208,324.676389 L217.222569,324.676389 Z M306.087153,316.839583 L306.087153,284.540972 L289.107986,268.027083 L208.542014,268.027083 L208.542014,333.356944 L289.107986,333.356944 L306.087153,316.839583 Z" id="Fill-44" fill="#FDBB30"></path>
                <path d="M152.303125,274.770139 L152.303125,312.679861 L88.6538194,376.329167 C66.1572917,347.634722 51.1607639,312.815278 46.5739583,274.770139 L152.303125,274.770139 Z M45.0288194,249.999306 C45.0288194,245.433333 45.2336806,240.915972 45.5288194,236.422917 L152.303125,236.422917 L152.303125,263.579167 L45.5288194,263.579167 C45.2336806,259.086111 45.0288194,254.56875 45.0288194,249.999306 L45.0288194,249.999306 Z M88.6503472,123.672917 L152.303125,187.325694 L152.303125,225.231944 L46.5739583,225.231944 C51.1607639,187.183333 66.1572917,152.363889 88.6503472,123.672917 L88.6503472,123.672917 Z M115.021875,95.8222222 L135.025347,115.825694 L135.025347,154.225 L95.8204861,115.020139 C101.792708,108.204167 108.205903,101.794444 115.021875,95.8222222 L115.021875,95.8222222 Z M225.233681,46.5722222 L225.233681,111.402083 L146.428125,111.402083 L123.674653,88.6486111 C152.365625,66.1555556 187.185069,51.1625 225.233681,46.5722222 L225.233681,46.5722222 Z M250.001042,45.0305556 C254.567014,45.0305556 259.084375,45.2354167 263.580903,45.5270833 L263.580903,111.402083 L236.424653,111.402083 L236.424653,45.5270833 C240.917708,45.2354167 245.431597,45.0305556 250.001042,45.0305556 L250.001042,45.0305556 Z M376.327431,88.6486111 L335.306597,129.669444 L316.532292,111.402083 L274.768403,111.402083 L274.768403,46.5722222 C312.817014,51.1590278 347.636458,66.1555556 376.327431,88.6486111 L376.327431,88.6486111 Z M404.185069,115.020139 L362.789236,156.4125 L343.327431,137.475 L384.980208,95.81875 C391.796181,101.794444 398.209375,108.204167 404.185069,115.020139 L404.185069,115.020139 Z M453.428125,225.231944 L364.976736,225.231944 L364.976736,170.047917 L411.348264,123.672917 C433.848264,152.363889 448.841319,187.183333 453.428125,225.231944 L453.428125,225.231944 Z M454.969792,249.999306 C454.969792,254.56875 454.764931,259.086111 454.473264,263.579167 L364.872569,263.579167 L350.910764,249.999306 L364.869097,236.422917 L454.473264,236.422917 C454.764931,240.915972 454.969792,245.433333 454.969792,249.999306 L454.969792,249.999306 Z M411.348264,376.329167 L364.976736,329.957639 L364.976736,274.770139 L453.428125,274.770139 C448.841319,312.815278 433.844792,347.634722 411.348264,376.329167 L411.348264,376.329167 Z M384.980208,404.183333 L343.323958,362.523611 L362.789236,343.589583 L404.181597,384.981944 C398.205903,391.794444 391.796181,398.211111 384.980208,404.183333 L384.980208,404.183333 Z M274.768403,453.426389 L274.768403,388.6 L316.532292,388.6 L335.306597,370.332639 L376.327431,411.353472 C347.632986,433.846528 312.817014,448.843056 274.768403,453.426389 L274.768403,453.426389 Z M250.001042,454.968056 C245.431597,454.968056 240.917708,454.766667 236.424653,454.471528 L236.424653,388.6 L263.580903,388.6 L263.580903,454.471528 C259.084375,454.766667 254.567014,454.968056 250.001042,454.968056 L250.001042,454.968056 Z M123.674653,411.353472 L146.428125,388.6 L225.233681,388.6 L225.233681,453.426389 C187.185069,448.843056 152.365625,433.846528 123.674653,411.353472 L123.674653,411.353472 Z M145.539236,159.454167 L145.539236,121.919444 L312.261458,121.919444 L354.462847,162.978472 L354.462847,231.877778 L335.834375,249.999306 L354.462847,268.124306 L354.462847,337.023611 L312.261458,378.086111 L145.539236,378.086111 L145.539236,340.547917 L162.813542,323.735417 L162.813542,176.263194 L145.539236,159.454167 Z M95.8204861,384.981944 L135.025347,345.777083 L135.025347,384.179861 L115.021875,404.183333 C108.205903,398.211111 101.792708,391.794444 95.8204861,384.981944 L95.8204861,384.981944 Z M250.001042,490.711111 C382.938542,490.711111 490.712847,382.936806 490.712847,249.999306 C490.712847,117.054861 382.938542,9.29097222 250.001042,9.29097222 C117.056597,9.29097222 9.28923611,117.054861 9.28923611,249.999306 C9.28923611,382.936806 117.056597,490.711111 250.001042,490.711111 L250.001042,490.711111 Z" id="Fill-46" fill="#221F20"></path>
                <path d="M286.892361,308.732639 L281.309028,314.166667 L227.732639,314.166667 L227.732639,287.21875 L281.309028,287.21875 L286.892361,292.645833 L286.892361,308.732639 Z M297.40625,288.208333 L285.579861,276.704861 L217.222222,276.704861 L217.222222,324.677083 L285.579861,324.677083 L297.40625,313.173611 L297.40625,288.208333 Z" id="Fill-48" fill="#221F20"></path>
                <path d="M286.892361,207.353472 L281.309028,212.784028 L227.732639,212.784028 L227.732639,185.836111 L281.309028,185.836111 L286.892361,191.266667 L286.892361,207.353472 Z M297.40625,186.825694 L285.579861,175.322222 L217.222222,175.322222 L217.222222,223.297917 L285.579861,223.297917 L297.40625,211.790972 L297.40625,186.825694 Z" id="Fill-50" fill="#221F20"></path>
                <path d="M208.542014,268.025694 L289.107986,268.025694 L306.087153,284.543056 L306.087153,316.841667 L289.107986,333.355556 L208.542014,333.355556 L208.542014,268.025694 Z M208.542014,166.64375 L289.107986,166.64375 L306.087153,183.164583 L306.087153,215.45625 L289.107986,231.977083 L208.542014,231.977083 L208.542014,166.64375 Z M154.219097,344.213194 L154.219097,369.404167 L308.732986,369.404167 L345.781597,333.355556 L345.781597,271.793056 L323.392708,250.001389 L345.781597,228.209722 L345.781597,166.64375 L308.732986,130.598611 L154.219097,130.598611 L154.219097,155.789583 L171.493403,172.598611 L171.493403,327.404167 L154.219097,344.213194 Z" id="Fill-52" fill="#221F20"></path>
            </g>
        </g>
    </g>
</svg>