<?xml version="1.0" encoding="UTF-8" standalone="no"?>
<svg  viewBox="0 0 500 500" version="1.1" xmlns="http://www.w3.org/2000/svg" xmlns:xlink="http://www.w3.org/1999/xlink">
    <!-- Generator: Sketch 39.1 (31720) - http://www.bohemiancoding.com/sketch -->
    <title>MON</title>
    <desc>Created with Sketch.</desc>
    <defs>
        <polygon id="path-1" points="498.168009 343.630137 0 343.630137 0 2.36595545 498.168009 2.36595545"></polygon>
    </defs>
    <g id="Page-1" stroke="none" stroke-width="1" fill="none" fill-rule="evenodd">
        <g id="MON">
            <g id="Page-1" transform="translate(0.000000, 77.000000)">
                <polygon id="Fill-1" fill="#FEFEFE" points="255.699763 201.126008 233.972275 201.126008 233.972275 219.544584 255.699763 219.525625"></polygon>
                <g id="Group-23" transform="translate(0.000000, 0.004740)">
                    <g id="Group-4">
                        <mask id="mask-2" fill="white">
                            <use xlink:href="#path-1"></use>
                        </mask>
                        <g id="Clip-3"></g>
                        <path d="M9.33862559,172.162253 C9.71777251,83.6668288 109.08981,11.9381849 239.864692,11.7083082 C278.336256,11.6372123 335.840995,22.247089 362.73673,31.1245959 L370.904976,23.5505137 L450.59455,47.211226 L468.627725,130.364979 L431.23436,169.645459 L485.345735,251.038404 C442.295972,281.2115 340.423934,334.286952 240.995024,334.286952 C98.9097156,334.286952 8.94052133,264.930541 9.33862559,172.162253 L9.33862559,172.162253 Z M443.141943,170.685829 L478.803081,133.218295 L458.547156,39.8314726 L368.459479,13.0804589 L360.357583,20.5952945 C330.227251,11.6064041 276.047156,2.29995205 239.848104,2.36630822 C105.758057,2.60092466 0.404976303,77.1686644 -0.000236966825,172.117226 C-0.000236966825,253.3585 70.0613744,343.631322 240.995024,343.631322 C376.431043,343.631322 498.168009,253.458034 498.168009,253.458034 L443.141943,170.685829 Z" id="Fill-2" fill="#FEFEFE" mask="url(#mask-2)"></path>
                    </g>
                    <path d="M387.849289,176.635844 C370.967773,161.764953 346.380095,146.192584 315.252133,138.623241 L315.252133,207.579145 C338.745024,201.080981 364.522275,190.056378 387.849289,176.635844" id="Fill-5" fill="#FEFEFE"></path>
                    <path d="M173.316825,210.278893 L173.316825,135.545263 C151.736256,141.787482 127.551422,154.004126 127.551422,173.342208 C127.551422,186.585003 147.98981,202.569729 173.316825,210.278893" id="Fill-7" fill="#FEFEFE"></path>
                    <polygon id="Fill-9" fill="#FEFEFE" points="234.454976 144.564014 255.575829 144.564014 255.575829 127.057836 234.454976 126.204685"></polygon>
                    <path d="M189.806161,115.526082 L189.806161,230.25589 C170.972038,230.25589 110.867773,208.156918 110.867773,173.33889 C110.867773,130.297438 172.289573,118.410205 189.806161,115.526082 L189.806161,115.526082 Z M267.519431,187.330562 L267.519431,232.421945 C254.794313,233.941027 235.391469,234.315466 222.272986,233.346192 L222.272986,187.330562 L267.519431,187.330562 Z M222.272986,157.707274 L222.272986,112.919233 C237.905687,112.137178 255.249289,112.952411 267.519431,114.412247 L267.519431,157.707274 L222.272986,157.707274 Z M228.23981,305.608055 C116.754028,305.608055 38.2066351,246.686151 38.2066351,171.542534 C38.2066351,99.6077123 128.412796,40.1857671 231.280095,40.1857671 C299.45782,40.1857671 343.777725,54.7248767 369.995735,65.2304795 L378.680569,55.4168767 L426.524171,69.3990685 L437.6,121.882055 L405.156872,154.955863 C366.190047,116.538014 293.223223,100.325781 232.709005,100.325781 C142.775355,100.325781 98.7492891,134.828616 98.7492891,171.035384 C98.7492891,211.192712 146.737441,244.904014 231.009953,245.702658 C290.964929,246.264315 340.109479,237.841822 413.953081,194.475699 L446.000474,242.868301 C407.66872,262.983699 341.303791,305.608055 228.23981,305.608055 L228.23981,305.608055 Z M417.246919,178.303753 C417.246919,178.303753 360.81564,216.814027 298.6,228.433466 L298.6,119.099836 C366.159242,127.595795 406.175829,171.767671 406.175829,171.767671 L451.190047,125.237781 L436.735071,59.9717534 L375.223223,41.9797534 L367.419905,50.4899315 C342.46019,40.7308356 290.964929,28.094726 233.879621,28.094726 C119.583412,28.094726 26.2445498,92.8559726 26.0763033,172.784342 C25.9127962,250.622493 105.135545,318.009548 233.012322,318.009548 C351.147393,318.009548 436.419905,261.725301 463.128436,246.641123 L417.246919,178.303753 Z" id="Fill-11" fill="#FEFEFE"></path>
                    <path d="M413.953791,194.474514 C340.11019,237.843007 290.96564,246.26313 231.010664,245.701473 C146.738152,244.902829 98.75,211.193897 98.75,171.034199 C98.75,134.827432 142.776066,100.324596 232.709716,100.324596 C293.223934,100.324596 366.188389,116.536829 405.157583,154.954678 L437.600711,121.88087 L426.522512,69.4002534 L378.67891,55.4156918 L369.996445,65.2316644 C343.776066,54.7236918 299.458531,40.1845822 231.280806,40.1845822 C128.413507,40.1845822 38.207346,99.6088973 38.207346,171.541349 C38.207346,246.684966 116.75237,305.60687 228.240521,305.60687 C341.304502,305.60687 407.667062,262.982514 445.998815,242.869486 L413.953791,194.474514 Z" id="Fill-13" fill="#C4112F"></path>
                    <path d="M387.849289,176.635844 C364.522275,190.056378 338.745024,201.080981 315.252133,207.579145 L315.252133,138.623241 C346.380095,146.192584 370.967773,161.764953 387.849289,176.635844 L387.849289,176.635844 Z M233.012796,318.007652 C105.136019,318.007652 25.9132701,250.622967 26.0767773,172.784816 C26.2450237,92.8540767 119.583886,28.0928301 233.880095,28.0928301 C290.965403,28.0928301 342.460664,40.7313096 367.418009,50.4904055 L375.223697,41.9802274 L436.733175,59.9698575 L451.190521,125.238255 L406.176303,171.768145 C406.176303,171.768145 366.159716,127.596268 298.600474,119.10031 L298.600474,228.43157 C360.816114,216.814501 417.247393,178.304227 417.247393,178.304227 L463.12891,246.641597 C436.420379,261.723405 351.147867,318.007652 233.012796,318.007652 L233.012796,318.007652 Z M431.235545,169.647118 L468.62654,130.364268 L450.593365,47.2128849 L370.906161,23.5498027 L362.737915,31.1262548 C335.83981,22.2487479 278.335071,11.6365014 239.863507,11.7075973 C109.088626,11.937474 9.71658768,83.6684877 9.33981043,172.161542 C8.94170616,264.92983 98.9085308,334.286241 240.996209,334.286241 C340.425118,334.286241 442.294787,281.210789 485.34455,251.040063 L431.235545,169.647118 Z" id="Fill-15" fill="#013A80"></path>
                    <path d="M233.971327,201.121268 L255.698815,201.121268 L255.698815,219.520885 L233.971327,219.539844 L233.971327,201.121268 Z M222.272275,233.346666 C235.390758,234.31594 254.793602,233.941501 267.52109,232.422419 L267.52109,187.331036 L222.272275,187.331036 L222.272275,233.346666 Z" id="Fill-17" fill="#013A80"></path>
                    <path d="M234.454976,126.204448 L255.575829,127.057599 L255.575829,144.563777 L234.454976,144.563777 L234.454976,126.204448 Z M222.272512,112.921366 L222.272512,157.707037 L267.521327,157.707037 L267.521327,114.41201 C255.248815,112.952174 237.905213,112.136941 222.272512,112.921366 L222.272512,112.921366 Z" id="Fill-19" fill="#013A80"></path>
                    <path d="M173.316825,135.545026 L173.316825,210.278656 C147.98981,202.569492 127.551422,186.584766 127.551422,173.341971 C127.551422,154.003889 151.736256,141.787245 173.316825,135.545026 M110.866588,173.337232 C110.866588,208.157629 170.973223,230.256601 189.804976,230.256601 L189.804976,115.526793 C172.288389,118.410916 110.866588,130.298149 110.866588,173.337232" id="Fill-21" fill="#013A80"></path>
                </g>
            </g>
        </g>
    </g>
</svg>