<?xml version="1.0" encoding="UTF-8" standalone="no"?>
<svg viewBox="0 0 500 500" version="1.1" xmlns="http://www.w3.org/2000/svg" xmlns:xlink="http://www.w3.org/1999/xlink">
    <!-- Generator: Sketch 39.1 (31720) - http://www.bohemiancoding.com/sketch -->
    <title>PHI</title>
    <desc>Created with Sketch.</desc>
    <defs>
        <polygon id="path-1" points="249.999383 351.913043 0 351.913043 0 1.3273913 249.999383 1.3273913 499.998765 1.3273913 499.998765 351.913043 249.999383 351.913043"></polygon>
    </defs>
    <g id="Page-1" stroke="none" stroke-width="1" fill="none" fill-rule="evenodd">
        <g id="PHI">
            <g id="Page-1" transform="translate(0.000000, 73.000000)">
                <path d="M300.075926,162.401696 C300.075926,139.956435 318.27037,121.755739 340.714815,121.755739 C363.159259,121.755739 381.353704,139.956435 381.353704,162.401696 C381.353704,184.846957 363.159259,203.047652 340.714815,203.047652 C318.27037,203.047652 300.075926,184.846957 300.075926,162.401696 M340.714815,305.627217 C291.838272,305.627217 248.690123,281.132217 222.850617,243.752261 L270.091358,163.861826 C270.869136,202.208 302.190123,233.059043 340.714815,233.059043 C379.730247,233.059043 411.353704,201.423913 411.353704,162.401696 C411.353704,123.379478 379.730247,91.7505217 340.714815,91.7505217 C314.810494,91.7505217 292.168519,105.694304 279.875309,126.488043 L155.032716,337.586478 L88.2518519,337.586478 C50.0851852,337.586478 19.1469136,304.247348 19.1469136,263.119826 L113.205556,263.119826 C115.097531,263.119826 116.628395,261.591783 116.628395,259.699478 C116.628395,257.807174 115.097531,256.26987 113.205556,256.26987 L88.2518519,256.26987 C50.0851852,256.26987 19.1469136,222.927652 19.1469136,181.806304 L161.295062,181.806304 C163.187037,181.806304 164.720988,180.272087 164.720988,178.38287 C164.720988,176.487478 163.187037,174.953261 161.295062,174.953261 L88.2518519,174.953261 C50.0851852,174.953261 19.1469136,141.617217 19.1469136,100.489696 L209.384568,100.489696 C211.273457,100.489696 212.810494,98.9554783 212.810494,97.0662609 C212.810494,95.1739565 211.273457,93.6428261 209.384568,93.6428261 L88.2518519,93.6428261 C50.0851852,93.6428261 19.1469136,60.3006087 19.1469136,19.173087 L340.714815,19.173087 C419.801235,19.173087 483.915432,83.2984348 483.915432,162.401696 C483.915432,241.504957 419.801235,305.627217 340.714815,305.627217 M340.714815,8.56630435 L5.47716049,8.56630435 L5.47716049,19.173087 C5.47716049,48.6226522 19.5759259,74.6086522 40.937037,89.882913 L5.47716049,89.882913 L5.47716049,100.489696 C5.47716049,129.933087 19.5759259,155.919087 40.937037,171.196435 L5.47716049,171.196435 L5.47716049,181.806304 C5.47716049,211.249696 19.5759259,237.235696 40.937037,252.51613 L5.47716049,252.51613 L5.47716049,263.119826 C5.47716049,310.02613 41.2364198,348.196348 85.187037,348.196348 L161.082099,348.196348 L217.066667,253.528652 C246.041975,292.788565 291.810494,316.237087 340.714815,316.237087 C425.523457,316.237087 494.523457,247.228174 494.523457,162.401696 C494.523457,77.5752174 425.523457,8.56630435 340.714815,8.56630435" id="Fill-1" fill="#FEFEFE"></path>
                <path d="M340.714815,121.755739 C318.273457,121.755739 300.075926,139.956435 300.075926,162.401696 C300.075926,184.850043 318.273457,203.047652 340.714815,203.047652 C363.162346,203.047652 381.353704,184.850043 381.353704,162.401696 C381.353704,139.956435 363.162346,121.755739 340.714815,121.755739" id="Fill-3" fill="#F37735"></path>
                <g id="Group-7" transform="translate(0.000000, 1.759565)">
                    <mask id="mask-2" fill="white">
                        <use xlink:href="#path-1"></use>
                    </mask>
                    <g id="Clip-6"></g>
                    <path d="M340.714815,314.477522 C291.810494,314.477522 246.041975,291.029 217.066667,251.769087 L161.082099,346.436783 L85.187037,346.436783 C41.2364198,346.436783 5.47716049,308.266565 5.47716049,261.360261 L5.47716049,250.756565 L40.937037,250.756565 C19.5759259,235.47613 5.47716049,209.49013 5.47716049,180.046739 L5.47716049,169.43687 L40.937037,169.43687 C19.5759259,154.159522 5.47716049,128.173522 5.47716049,98.7301304 L5.47716049,88.1233478 L40.937037,88.1233478 C19.5759259,72.849087 5.47716049,46.863087 5.47716049,17.4135217 L5.47716049,6.80673913 L340.714815,6.80673913 C425.526543,6.80673913 494.523457,75.8156522 494.523457,160.64213 C494.523457,245.468609 425.526543,314.477522 340.714815,314.477522 M340.714815,1.3273913 L-0.0012345679,1.3273913 L-0.0012345679,17.4135217 C-0.0012345679,42.3098261 9.73024691,65.6935217 26.3814815,82.640913 L-0.0012345679,82.640913 L-0.0012345679,98.7301304 C-0.0012345679,123.623348 9.73024691,147.01013 26.3814815,163.960609 L-0.0012345679,163.960609 L-0.0012345679,180.046739 C-0.0012345679,204.943043 9.73024691,228.320565 26.3814815,245.277217 L-0.0012345679,245.277217 L-0.0012345679,261.360261 C-0.0012345679,311.29487 38.2148148,351.913043 85.187037,351.913043 L164.205556,351.913043 L217.835185,261.230609 C248.004938,298.024043 293.230247,319.953783 340.714815,319.953783 C428.545062,319.953783 499.998765,248.487652 499.998765,160.64213 C499.998765,72.7966087 428.545062,1.3273913 340.714815,1.3273913" id="Fill-5" fill="#221F20" mask="url(#mask-2)"></path>
                </g>
                <path d="M340.714815,19.1718522 L19.1469136,19.1718522 C19.1469136,60.2993739 50.0851852,93.6415913 88.2518519,93.6415913 L209.384568,93.6415913 C211.273457,93.6415913 212.810494,95.1727217 212.810494,97.0650261 C212.810494,98.9573304 211.273457,100.491548 209.384568,100.491548 L19.1469136,100.491548 C19.1469136,141.615983 50.0851852,174.955113 88.2518519,174.955113 L161.295062,174.955113 C163.187037,174.955113 164.720988,176.48933 164.720988,178.381635 C164.720988,180.273939 163.187037,181.808157 161.295062,181.808157 L19.1469136,181.808157 C19.1469136,222.929504 50.0851852,256.271722 88.2518519,256.271722 L113.205556,256.271722 C115.097531,256.271722 116.628395,257.809026 116.628395,259.698243 C116.628395,261.590548 115.097531,263.118591 113.205556,263.118591 L19.1469136,263.118591 C19.1469136,304.2492 50.0851852,337.585243 88.2518519,337.585243 L155.032716,337.585243 L279.875309,126.489896 C292.168519,105.69307 314.810494,91.7523739 340.714815,91.7523739 C379.730247,91.7523739 411.353704,123.38133 411.353704,162.400461 C411.353704,201.422678 379.730247,233.057809 340.714815,233.057809 C302.190123,233.057809 270.869136,202.209852 270.091358,163.860591 L222.850617,243.751026 C248.690123,281.130983 291.838272,305.62907 340.714815,305.62907 C419.801235,305.62907 483.915432,241.503722 483.915432,162.400461 C483.915432,83.2972 419.801235,19.1718522 340.714815,19.1718522" id="Fill-8" fill="#221F20"></path>
            </g>
        </g>
    </g>
</svg>