<?xml version="1.0" encoding="UTF-8" standalone="no"?>
<svg  viewBox="0 0 500 500" version="1.1" xmlns="http://www.w3.org/2000/svg" xmlns:xlink="http://www.w3.org/1999/xlink">
    <!-- Generator: Sketch 39.1 (31720) - http://www.bohemiancoding.com/sketch -->
    <title>CAR</title>
    <desc>Created with Sketch.</desc>
    <defs>
        <polygon id="path-1" points="499.998143 1.82363636 0.000622714443 1.82363636 0.000622714443 302.908914 499.998143 302.908914 499.998143 1.82363636"></polygon>
    </defs>
    <g id="Page-1" stroke="none" stroke-width="1" fill="none" fill-rule="evenodd">
        <g id="CAR">
            <g id="Page-1" transform="translate(0.000000, 97.000000)">
                <path d="M191.869753,47.8896182 C315.02716,8.94107273 396.598148,20.9554364 396.598148,20.9554364 C396.598148,20.9554364 338.752469,24.4018 270.008642,46.1463455 C143.912963,86.0252545 103.008642,141.105255 109.891358,189.236891 C115.104321,225.691073 154.326543,233.606891 154.326543,233.606891 C154.326543,233.606891 117.814198,246.211618 78.9808642,243.479255 C78.9808642,243.479255 161.017901,273.414709 278.045679,231.483436 C278.045679,231.483436 255.446914,242.567436 220.888272,253.499982 C156.379012,273.899982 31.5055556,290.992709 19.9623457,210.289073 C10.2092593,142.100527 77.8975309,83.9327091 191.869753,47.8896182 M250.150617,200.4878 C195.826543,217.670164 149.446914,215.222164 146.561111,195.023073 C143.672222,174.820891 185.366667,144.520709 239.690741,127.338345 C286.629012,112.4958 327.607407,112.319618 339.755556,125.570345 C333.051852,110.273436 297.483951,105.621618 239.218519,124.046527 C161.946914,148.483255 142.860494,182.755255 142.860494,182.755255 L158.582716,146.267073 C166.40679,128.107982 189.048765,110.783436 232.335802,97.0907091 C307.610494,73.2876182 358.823457,81.2467091 364.724691,122.507255 C371.082716,166.957618 283.446914,208.601436 263.916049,214.780164 C288.369753,199.844891 316.233951,177.732527 330.82963,157.174891 C314.857407,172.919982 285.135185,189.422345 250.150617,200.4878 M480.039506,96.9763455 C489.789506,165.158709 422.104321,223.329618 308.132099,259.372709 C184.977778,298.321255 103.40679,286.306891 103.40679,286.306891 C103.40679,286.306891 161.249383,282.860527 229.996296,261.115982 C356.088889,221.240164 396.996296,166.153982 390.11358,118.025436 C384.900617,81.5681636 345.678395,73.6585273 345.678395,73.6585273 C345.678395,73.6585273 382.190741,61.0568909 421.020988,63.7830727 C421.020988,63.7830727 338.983951,33.8507091 221.956173,75.7788909 C221.956173,75.7788909 244.558025,64.6948909 279.11358,53.7654364 C343.625926,33.3654364 468.499383,16.2727091 480.039506,96.9763455 M94.8635802,278.400345 L72.3512346,293.227436 C72.3512346,293.227436 178.804938,310.536527 309.53642,269.192527 C424.971605,232.682709 503.508642,172.558345 492.153704,93.1498 C483.107407,29.9283455 405.141358,28.8681636 405.141358,28.8681636 L427.650617,14.0379818 C427.650617,14.0379818 321.196914,-3.27110909 190.465432,38.0759818 C75.0302469,74.5827091 -3.50679012,134.710164 7.85123457,214.118709 C16.8944444,277.337073 94.8635802,278.400345 94.8635802,278.400345" id="Fill-1" fill="#FEFEFE"></path>
                <g id="Group-5" transform="translate(0.000000, 1.268200)">
                    <mask id="mask-2" fill="white">
                        <use xlink:href="#path-1"></use>
                    </mask>
                    <g id="Clip-4"></g>
                    <path d="M309.53642,267.923091 C178.804938,309.267091 72.3512346,291.958 72.3512346,291.958 L94.8635802,277.130909 C94.8635802,277.130909 16.8944444,276.070727 7.84814815,212.852364 C-3.50679012,133.440727 75.0302469,73.3132727 190.465432,36.8096364 C321.196914,-4.53745455 427.650617,12.7685455 427.650617,12.7685455 L405.141358,27.5987273 C405.141358,27.5987273 483.107407,28.6589091 492.150617,91.8803636 C503.508642,171.288909 424.971605,231.413273 309.53642,267.923091 M425.147531,22.4276364 L446.61358,8.28981818 C446.61358,8.28981818 334.490123,-16.0789091 189.459259,29.7870909 C56.9654321,71.6905455 -9.89876543,137.452727 1.18765432,214.957273 C8.02407407,262.773636 49.758642,277.644 74.8512346,282.302 L53.3851852,296.442909 C53.3851852,296.442909 165.508642,320.808545 310.539506,274.942545 C443.033333,233.042182 509.897531,167.28 498.811111,89.7723636 C491.971605,41.9590909 450.240123,27.0825455 425.147531,22.4276364" id="Fill-3" fill="#B1B7BB" mask="url(#mask-2)"></path>
                </g>
                <path d="M308.132099,259.3724 C422.104321,223.329309 489.789506,165.161491 480.039506,96.9760364 C468.499383,16.2724 343.62284,33.3651273 279.11358,53.7682182 C244.558025,64.6945818 221.956173,75.7816727 221.956173,75.7816727 C338.983951,33.8504 421.020988,63.7827636 421.020988,63.7827636 C382.190741,61.0565818 345.678395,73.6582182 345.678395,73.6582182 C345.678395,73.6582182 384.897531,81.5709455 390.11358,118.028218 C396.996296,166.153673 356.088889,221.239855 229.996296,261.115673 C161.249383,282.860218 103.40679,286.306582 103.40679,286.306582 C103.40679,286.306582 184.977778,298.324036 308.132099,259.3724" id="Fill-6" fill="#E21836"></path>
                <path d="M241.401852,150.281855 C264.077778,143.107855 283.367901,143.611673 284.482099,151.400764 C285.596296,159.196036 268.114815,171.327855 245.438889,178.498764 C222.759877,185.669673 203.469753,185.165855 202.358642,177.376764 C201.244444,169.581491 218.72284,157.449673 241.401852,150.281855 M250.151852,200.487491 C285.133333,189.422036 314.855556,172.919673 330.830864,157.177673 C339.664198,148.470582 344.309259,140.001491 343.281481,132.808945 C342.88642,130.061127 341.667284,127.6564 339.75679,125.570036 C327.608642,112.319309 286.62716,112.495491 239.688889,127.338036 C185.367901,144.5204 143.67037,174.823673 146.559259,195.022764 C149.448148,215.221855 195.827778,217.669855 250.151852,200.487491" id="Fill-8" fill="#E21836"></path>
                <path d="M220.887963,253.498436 C255.446605,242.568982 278.048457,231.484982 278.048457,231.484982 C161.017593,273.413164 78.9805556,243.4808 78.9805556,243.4808 C117.813889,246.213164 154.326235,233.605345 154.326235,233.605345 C154.326235,233.605345 115.104012,225.692618 109.891049,189.238436 C103.008333,141.1068 143.912654,86.0237091 270.008333,46.1448 C338.75216,24.4033455 396.59784,20.9569818 396.59784,20.9569818 C396.59784,20.9569818 315.026852,8.94261818 191.869444,47.8880727 C77.8972222,83.9342545 10.2089506,142.102073 19.962037,210.287527 C31.5052469,290.994255 156.378704,273.901527 220.887963,253.498436" id="Fill-10" fill="#221F20"></path>
                <path d="M364.724383,122.506018 C358.823148,81.2454727 307.610185,73.2863818 232.335494,97.0894727 C189.048457,110.7822 166.406481,128.106745 158.582407,146.265836 L142.860185,182.754018 C142.860185,182.754018 161.946605,148.482018 239.21821,124.045291 C297.483642,105.620382 333.051543,110.2722 339.755247,125.569109 C341.665741,127.655473 342.887963,130.0602 343.283025,132.808018 C344.310802,140.000564 339.662654,148.469655 330.832407,157.176745 C316.233642,177.731291 288.369444,199.843655 263.915741,214.782018 C283.446605,208.6002 371.082407,166.959473 364.724383,122.506018" id="Fill-12" fill="#221F20"></path>
                <path d="M241.401852,150.281855 C218.72284,157.449673 201.244444,169.581491 202.358642,177.376764 C203.469753,185.165855 222.759877,185.669673 245.438889,178.498764 C268.114815,171.327855 285.596296,159.196036 284.482099,151.400764 C283.367901,143.611673 264.077778,143.107855 241.401852,150.281855" id="Fill-14" fill="#221F20"></path>
            </g>
        </g>
    </g>
</svg>