<?xml version="1.0" encoding="UTF-8" standalone="no"?>
<svg  viewBox="0 0 500 500" version="1.1" xmlns="http://www.w3.org/2000/svg" xmlns:xlink="http://www.w3.org/1999/xlink">
    <!-- Generator: Sketch 39.1 (31720) - http://www.bohemiancoding.com/sketch -->
    <title>WPG</title>
    <desc>Created with Sketch.</desc>
    <defs>
        <polygon id="path-1" points="0.000469673699 498.293515 498.894198 498.293515 498.894198 0.125009961 0.000469673699 0.125009961 0.000469673699 498.293515"></polygon>
    </defs>
    <g id="Page-1" stroke="none" stroke-width="1" fill="none" fill-rule="evenodd">
        <g id="WPG">
            <g id="Page-1">
                <path d="M354.5157,265.959556 C354.345051,275.754778 354.959386,285.602901 354.106143,295.379352 C349.549829,293.160922 345.07884,289.560239 339.686348,290.568771 C334.413311,291.266724 328.38942,290.345222 323.645392,292.701877 C318.287031,298.007338 312.450853,302.785495 306.66587,307.614846 C310.181229,312.326451 314.089078,316.727474 317.484983,321.539761 C309.498635,322.819625 301.546416,324.201877 293.560068,325.415188 C298.252901,332.563652 303.577133,339.288908 308.065188,346.573891 C308.867235,355.328157 308.116382,364.169454 308.423549,372.973208 C295.556655,366.951024 282.945734,360.415188 270.147099,354.236007 C266.478157,353.077304 266.034471,348.964676 264.618089,345.942491 C264.310922,346.352048 263.713652,347.189932 263.423549,347.599488 C258.95256,370.106314 254.345051,392.616553 249.430375,415.038055 C247.604437,410.908362 247.22901,406.352048 246.375768,401.983447 C242.314334,383.367406 238.406485,364.696758 234.874061,345.978328 C233.525939,348.179693 232.519113,350.55 231.358703,352.855461 C217.809215,359.747952 204.072014,366.30256 190.488396,373.128498 C190.556655,365.345222 190.437201,357.580717 190.471331,349.817918 C190.130034,346.932253 192.007167,344.61314 193.508874,342.375939 C197.467918,336.761604 201.392833,331.097782 205.386007,325.500512 C197.467918,323.877645 189.242662,323.536348 181.546416,320.993686 C185.437201,316.795734 188.91843,312.222355 192.467918,307.718942 C186.324573,302.427133 180.181229,297.154096 174.123208,291.780375 C167.843345,291.249659 161.580546,290.328157 155.283618,290.601195 C151.461092,291.60802 148.099317,293.792321 144.532765,295.415188 C144.208532,285.481741 144.464505,275.55 144.362116,265.601195 C134.959386,257.650683 125.522526,249.698464 116.580546,241.215529 C125.778498,241.029522 134.993515,241.164334 144.191468,241.14727 C144.174403,240.466382 144.123208,239.099488 144.106143,238.416894 C137.553242,222.307679 131.563481,205.942491 125.556655,189.611433 C142.621502,195.73942 159.345051,202.819625 176.563481,208.416894 C176.819454,199.38959 176.768259,190.362287 177.604437,181.386177 C180.880887,184.594369 184.106143,187.870819 187.160751,191.317918 C191.444027,194.954437 195.693174,198.89471 199.089078,203.3657 C203.901365,206.812799 207.177816,211.966382 212.211945,215.089249 C207.553242,189.526109 203.38942,163.86058 199.157338,138.213823 C210.027645,145.242833 221.000341,152.155802 231.614676,159.594369 C237.945734,132.700171 243.031058,105.532935 249.362116,78.655802 C255.386007,105.737713 261.307509,132.855461 267.160751,159.971502 C277.911604,152.36058 289.174403,145.447611 300.130034,138.126792 C296.000341,163.89471 291.495222,189.594369 287.160751,215.311092 C299.140273,204.474915 310.198294,192.614846 321.751195,181.317918 C322.075427,190.396416 322.689761,199.45785 322.79215,208.553413 C339.891126,202.666041 356.66587,195.823038 373.662457,189.645563 C367.536177,206.522696 361.409898,223.416894 354.5157,239.98686 L354.5157,241.283788 C363.935495,241.249659 373.35529,241.215529 382.775085,241.300853 C373.423549,249.594369 364.003754,257.819625 354.5157,265.959556 M368.611263,127.853754 C342.979863,102.648976 309.174403,85.9083618 273.594198,80.8076792 C271.10273,80.771843 270.966212,77.6489761 269.976451,76.0107509 C263.133447,58.6046075 256.358703,41.1472696 249.208532,23.8793515 C241.273379,42.76843 233.38942,61.712116 225.300683,80.5517065 C201.000341,83.8776451 177.416724,92.444198 156.717065,105.618259 C122.22901,127.324744 95.8979522,161.677986 84.1914676,200.737713 C71.3245734,242.804266 75.3006826,289.884471 95.6590444,328.945904 C115.437201,367.650683 150.454266,398.230887 191.409898,412.717235 C229.566894,426.369113 272.587372,425.993686 310.420137,411.420307 C344.310922,398.536348 373.833106,374.493686 393.269966,343.877645 C415.164164,310.123379 424.276792,268.433959 419.020819,228.589249 C414.259727,190.601195 396.13686,154.474915 368.611263,127.853754" id="Fill-1" fill="#FFFFFF"></path>
                <g id="Group-5" transform="translate(0.000000, 1.581911)" fill="#FFFFFF">
                    <path d="M497.365529,273.303242 C492.655631,324.019966 471.717065,373.132594 438.269966,411.562628 C402.928669,452.893686 353.679522,482.262287 300.317747,493.064334 C254.225597,502.620648 205.351877,499.10529 161.324573,482.296416 C106.853584,462.023379 60.1641638,421.750341 31.8535836,371.016553 C8.88430034,330.641126 -1.93481229,283.627474 0.283617747,237.279352 C3.03105802,163.798123 41.0003413,92.7742321 100.112969,49.2076792 C136.751195,21.4943686 181.341638,4.61723549 227.058362,0.658191126 C240.624915,-0.109726962 254.225597,0.0950511945 267.79215,0.385153584 C314.737543,3.6274744 360.624915,20.8117747 398.252901,49.0540956 C445.60785,84.0711604 479.635154,136.494369 492.502048,193.951706 C497.945734,219.941468 500.880887,246.835666 497.365529,273.303242" id="Fill-3"></path>
                </g>
                <path d="M393.269966,343.877816 C373.833106,374.49215 344.310922,398.536519 310.420137,411.420478 C272.587372,425.993857 229.566894,426.369283 191.409898,412.717406 C150.454266,398.231058 115.437201,367.650853 95.6590444,328.946075 C75.3006826,289.884642 71.3245734,242.80273 84.1914676,200.737884 C95.8979522,161.676451 122.22901,127.324915 156.717065,105.61843 C177.416724,92.4443686 201.000341,83.8778157 225.300683,80.5518771 C233.38942,61.7105802 241.273379,42.7686007 249.208532,23.8795222 C256.358703,41.1474403 263.133447,58.6047782 269.976451,76.0109215 C270.966212,77.6491468 271.10273,80.7720137 273.594198,80.8061433 C309.174403,85.9085324 342.979863,102.649147 368.611263,127.853925 C396.13686,154.475085 414.259727,190.601365 419.020819,228.58942 C424.276792,268.43413 415.164164,310.123549 393.269966,343.877816 M347.484983,39.6969283 C307.246075,20.6696246 261.426962,14.0996587 217.382594,20.1235495 C186.375768,24.4580205 156.205119,34.9358362 129.430375,51.1832765 C87.9457338,76.0791809 54.4986348,114.202048 35.5566553,158.760068 C14.925256,206.249829 11.1027304,260.772014 24.6010239,310.737884 C38.6283276,364.184983 72.7580205,411.932423 118.474744,442.888055 C158.935495,470.703754 208.508874,484.867577 257.519113,483.06041 C303.38942,481.522867 348.645392,465.959727 385.744369,438.946075 C428.696587,407.990444 460.488396,361.915358 473.986689,310.705461 C488.423549,256.86587 482.86041,197.80273 457.996928,147.853925 C434.839932,100.669625 395.215358,61.7617747 347.484983,39.6969283" id="Fill-6" fill="#012E62"></path>
                <g id="Group-10" transform="translate(0.000000, 1.581911)">
                    <mask id="mask-2" fill="white">
                        <use xlink:href="#path-1"></use>
                    </mask>
                    <g id="Clip-9"></g>
                    <path d="M473.987201,309.122867 C460.488908,360.334471 428.697099,406.409556 385.744881,437.363481 C348.645904,464.37884 303.389932,479.94198 257.519625,481.477816 C208.509386,483.286689 158.936007,469.122867 118.475256,441.307167 C72.7585324,410.349829 38.6288396,362.604096 24.6015358,309.156997 C11.1032423,259.18942 14.9257679,204.668942 35.5571672,157.177474 C54.4991468,112.62116 87.9462457,74.4982935 129.430887,49.6006826 C156.205631,33.3549488 186.37628,22.8771331 217.383106,18.5426621 C261.427474,12.5170648 307.246587,19.0887372 347.485495,38.1143345 C395.21587,60.1808874 434.840444,99.0887372 457.99744,146.273038 C482.860922,196.221843 488.424061,255.283276 473.987201,309.122867 M398.253413,49.0546075 C360.625427,20.8122867 314.738055,3.62798635 267.792662,0.385665529 C254.226109,0.0955631399 240.625427,-0.109215017 227.058874,0.658703072 C181.34215,4.61774744 136.751706,21.4948805 100.113481,49.2064846 C41.0008532,92.774744 3.03156997,163.798635 0.284129693,237.279863 C-1.93430034,283.627986 8.88481229,330.639932 31.8540956,371.017065 C60.1646758,421.750853 106.854096,462.023891 161.325085,482.296928 C205.352389,499.105802 254.226109,502.62116 300.318259,493.064846 C353.680034,482.262799 402.929181,452.894198 438.270478,411.561433 C471.717577,373.133106 492.656143,324.020478 497.366041,273.303754 C500.881399,246.836177 497.946246,219.94198 492.50256,193.952218 C479.635666,136.494881 445.608362,84.0716724 398.253413,49.0546075" id="Fill-8" fill="#A8A9AD" mask="url(#mask-2)"></path>
                </g>
                <path d="M249.481911,107.428157 C249.379522,105.551024 248.935836,103.74215 248.167918,102.001536 C242.468259,129.134642 236.751536,156.284812 231.324915,183.467406 C229.567235,204.237031 227.911945,225.039078 225.932423,245.789932 C223.389761,240.192662 223.048464,233.963993 221.973379,227.991297 C210.830034,232.05273 200.488737,237.888908 189.754949,242.853072 C178.645734,247.940102 167.638908,253.264334 156.666212,258.656826 C153.577474,253.400853 152.144027,247.394027 149.05529,242.138055 C148.696928,257.394027 149.02116,272.667065 148.901706,287.921331 C155.77884,284.90256 163.338567,286.214846 170.556997,286.899147 C188.52628,288.434983 206.615017,288.554437 224.533106,290.721672 C224.225939,296.933276 226.580887,304.219966 222.126962,309.441809 C213.253242,322.119283 204.174744,334.680717 195.625256,347.564676 C194.243003,353.298464 195.249829,359.424744 194.942662,365.329181 C201.785666,363.228498 207.826621,359.288225 214.294198,356.301877 C218.799317,353.963993 223.748123,352.341126 227.843686,349.254096 C232.041638,342.818942 233.52628,335.039078 232.280546,327.46058 C238.116724,339.578328 242.741297,352.272867 248.867577,364.254096 C249.806143,357.786519 249.481911,351.267747 249.396587,344.783106 C249.533106,265.668771 249.362457,186.540785 249.481911,107.428157" id="Fill-11" fill="#A8A9AD"></path>
                <path d="M248.867918,364.254096 C242.741638,352.272867 238.117065,339.578328 232.280887,327.46058 C233.526621,335.039078 232.04198,342.818942 227.844027,349.254096 C223.748464,352.342833 218.799659,353.963993 214.294539,356.301877 C207.826962,359.288225 201.786007,363.228498 194.943003,365.329181 C195.250171,359.424744 194.243345,353.298464 195.625597,347.564676 C204.175085,334.680717 213.253584,322.12099 222.127304,309.441809 C226.581229,304.219966 224.22628,296.933276 224.533447,290.721672 C206.615358,288.554437 188.526621,288.434983 170.557338,286.899147 C163.338908,286.216553 155.779181,284.90256 148.902048,287.923038 C149.021502,272.667065 148.69727,257.394027 149.055631,242.138055 C152.144369,247.394027 153.577816,253.400853 156.666553,258.656826 C167.639249,253.264334 178.646075,247.940102 189.75529,242.853072 C200.489078,237.888908 210.830375,232.05273 221.97372,227.991297 C223.048805,233.963993 223.390102,240.192662 225.932765,245.789932 C227.912287,225.039078 229.567577,204.237031 231.325256,183.469113 C236.751877,156.284812 242.468601,129.134642 248.168259,102.001536 C248.936177,103.74215 249.379863,105.551024 249.482253,107.428157 C249.362799,186.540785 249.533447,265.668771 249.396928,344.783106 C249.482253,351.267747 249.806485,357.786519 248.867918,364.254096 M354.516382,241.284812 L354.516382,239.987884 C354.379863,232.752389 354.465188,225.499829 354.072696,218.281399 C349.379863,229.680717 345.147782,241.301877 340.045392,252.530546 C332.076109,248.603925 324.038567,244.817235 315.9157,241.216553 C312.724573,239.731911 309.601706,238.144881 306.461775,236.574915 C296.188737,231.370137 285.489078,227.035666 275.454949,221.370137 C273.765529,206.899147 273.748464,192.189249 271.018089,177.837713 C269.78942,172.68413 268.492491,167.530546 267.57099,162.308703 C267.468601,161.728498 267.263823,160.551024 267.161433,159.970819 C261.308191,132.854778 255.386689,105.738737 249.362799,78.6568259 C243.031741,105.533959 237.946416,132.701195 231.615358,159.595392 L231.325256,161.353072 C229.123891,173.298464 226.256997,185.141468 225.642662,197.325768 C224.908874,204.373549 224.635836,211.455461 223.799659,218.486177 C223.850853,222.12099 219.840614,223.21314 217.366212,224.851365 C204.089761,231.114164 190.9157,237.581741 177.605119,243.74215 C171.256997,246.643174 164.994198,249.714846 158.594881,252.462287 C153.748464,241.916212 150.250171,230.755802 144.738225,220.533959 C144.499317,226.48959 144.311604,232.462287 144.106826,238.417918 C144.123891,239.100512 144.175085,240.4657 144.19215,241.148294 C144.772355,249.288225 144.601706,257.462287 144.362799,265.600512 C144.465188,275.551024 144.209215,285.482765 144.533447,295.414505 C148.1,293.793345 151.461775,291.609044 155.2843,290.602218 C161.581229,290.329181 167.844027,291.250683 174.123891,291.779693 C189.601706,292.274573 205.062457,293.417918 220.523208,294.542491 C220.216041,298.400853 221.120478,302.735324 218.902048,306.182423 C214.823549,312.905973 209.891809,319.066382 205.386689,325.499829 C201.393515,331.097099 197.468601,336.762628 193.509556,342.376962 C192.00785,344.612457 190.130717,346.933276 190.472014,349.817235 C190.437884,357.581741 190.557338,365.346246 190.489078,373.127816 C204.072696,366.301877 217.809898,359.74727 231.359386,352.854778 C232.519795,350.551024 233.526621,348.17901 234.874744,345.977645 C240.625597,355.772867 244.75529,366.387201 249.277474,376.779693 C254.362799,367.240444 257.280887,356.539078 263.424232,347.598805 C263.714334,347.189249 264.311604,346.353072 264.618771,345.943515 C266.035154,348.963993 266.47884,353.076621 270.147782,354.237031 C282.946416,360.414505 295.557338,366.950341 308.424232,372.972526 C308.117065,364.168771 308.867918,355.329181 308.06587,346.574915 C303.577816,339.288225 298.253584,332.564676 293.560751,325.414505 C289.294539,319.032253 284.652901,312.940102 280.386689,306.574915 C277.912287,303.127816 278.953242,298.622696 278.680205,294.663652 C293.646075,294.047611 308.69727,291.404266 323.646075,292.701195 C328.390102,290.344539 334.413993,291.266041 339.687031,290.568089 C345.079522,289.559556 349.550512,293.161945 354.106826,295.380375 C354.960068,285.602218 354.345734,275.755802 354.516382,265.958874 C354.413993,257.735324 354.533447,249.510068 354.516382,241.284812" id="Fill-13" fill="#717075"></path>
                <path d="M144.191468,241.147952 C134.993515,241.165017 125.778498,241.028498 116.580546,241.216212 C125.522526,249.69744 134.959386,257.649659 144.362116,265.601877 C144.601024,257.461945 144.771672,249.287884 144.191468,241.147952" id="Fill-15" fill="#C41230"></path>
                <path d="M249.276962,376.779352 C244.754778,366.38686 240.625085,355.772526 234.874232,345.977304 C238.406655,364.69744 242.314505,383.366382 246.375939,401.98413 C252.143857,394.953413 248.509044,385.106997 249.276962,376.779352" id="Fill-17" fill="#C41230"></path>
                <path d="M220.522526,294.543174 C205.061775,293.418601 189.601024,292.275256 174.123208,291.780375 C180.181229,297.154096 186.324573,302.427133 192.467918,307.718942 C188.91843,312.222355 185.437201,316.795734 181.546416,320.993686 C189.242662,323.536348 197.467918,323.877645 205.386007,325.500512 C209.891126,319.065358 214.822867,312.906655 218.901365,306.181399 C221.119795,302.736007 220.215358,298.401536 220.522526,294.543174" id="Fill-19" fill="#C41230"></path>
                <path d="M213.372526,170.721331 C217.195051,179.69744 220.317918,189.066041 225.64215,197.325427 C226.256485,185.141126 229.123379,173.298123 231.324744,161.35273 C221.307679,155.994369 212.143857,149.270819 202.536348,143.263993 C205.505631,152.649659 210.044881,161.438055 213.372526,170.721331" id="Fill-21" fill="#C41230"></path>
                <path d="M178.52628,211.796075 C162.4,206.84727 147.144027,199.406997 130.983618,194.543515 C146.23959,211.198805 161.734471,227.649317 177.604778,243.741468 C190.915358,237.581058 204.08942,231.113481 217.36587,224.850683 C211.751536,217.239761 202.092833,212.751706 199.08942,203.366041 C195.693515,198.895051 191.444369,194.953072 187.161092,191.318259 C184.567235,190.226109 181.939249,189.253413 179.328328,188.246587 C179.396587,196.113481 179.191809,203.963311 178.52628,211.796075" id="Fill-23" fill="#C41230"></path>
                <path d="M368.662628,194.612116 C355.778669,198.383447 343.509044,203.946587 330.795734,208.263993 C326.580717,209.868089 321.597782,211.062628 319.174573,215.26058 C314.618259,222.188908 311.154096,229.748635 306.461263,236.574573 C309.601195,238.144539 312.724061,239.73157 315.915188,241.216212 C327.348635,232.888567 337.280375,222.700853 347.89471,213.400512 C354.771843,207.086519 362.195051,201.369795 368.662628,194.612116" id="Fill-25" fill="#C41230"></path>
                <path d="M267.570819,162.30802 C268.492321,167.529863 269.789249,172.683447 271.017918,177.837031 C278.406997,166.983788 287.50256,157.290956 293.970137,145.823379 C284.516212,150.209044 276.444539,156.915529 267.570819,162.30802" id="Fill-27" fill="#C41230"></path>
                <path d="M158.594198,252.462628 C164.993515,249.715188 171.256314,246.643515 177.604437,243.742491 C161.73413,227.650341 146.239249,211.198123 130.983276,194.544539 C147.143686,199.40802 162.399659,206.848294 178.525939,211.795392 C179.191468,203.964334 179.396246,196.114505 179.327986,188.247611 C181.938908,189.254437 184.566894,190.227133 187.160751,191.317577 C184.106143,187.870478 180.880887,184.595734 177.604437,181.387543 C176.768259,190.361945 176.819454,199.389249 176.563481,208.416553 C159.345051,202.82099 142.621502,195.739078 125.556655,189.611092 C131.563481,205.943857 137.553242,222.309044 144.106143,238.418259 C144.310922,232.462628 144.498635,226.489932 144.737543,220.5343 C150.249488,230.756143 153.747782,241.914846 158.594198,252.462628" id="Fill-29" fill="#820225"></path>
                <path d="M278.679693,294.66314 C278.95273,298.622184 277.911775,303.127304 280.386177,306.574403 C284.652389,312.93959 289.294027,319.031741 293.560239,325.413993 C301.546587,324.202389 309.498805,322.820137 317.485154,321.540273 C314.089249,316.727986 310.181399,312.326962 306.666041,307.615358 C312.451024,302.786007 318.287201,298.00785 323.645563,292.702389 C308.696758,291.403754 293.645563,294.048805 278.679693,294.66314" id="Fill-31" fill="#820225"></path>
                <path d="M354.5157,241.284642 C354.532765,249.509898 354.413311,257.735154 354.5157,265.96041 C364.003754,257.820478 373.423549,249.595222 382.775085,241.301706 C373.35529,241.216382 363.935495,241.250512 354.5157,241.284642" id="Fill-33" fill="#820225"></path>
                <path d="M293.969795,145.824061 C287.502218,157.291638 278.406655,166.984471 271.017577,177.837713 C273.747952,192.189249 273.765017,206.899147 275.454437,221.370137 C285.488567,227.035666 296.188225,231.370137 306.461263,236.574915 C311.154096,229.748976 314.618259,222.189249 319.174573,215.260922 C321.597782,211.062969 326.580717,209.86843 330.795734,208.264334 C343.509044,203.945222 355.778669,198.383788 368.662628,194.612457 C362.195051,201.370137 354.771843,207.08686 347.89471,213.400853 C337.280375,222.701195 327.348635,232.888908 315.915188,241.216553 C324.038055,244.817235 332.075597,248.603925 340.044881,252.530546 C345.14727,241.301877 349.379352,229.680717 354.072184,218.281399 C354.464676,225.499829 354.379352,232.752389 354.51587,239.987884 C361.410068,223.417918 367.536348,206.52372 373.662628,189.646587 C356.666041,195.824061 339.891297,202.665358 322.792321,208.554437 C322.689932,199.458874 322.075597,190.39744 321.751365,181.318942 C310.198464,192.61587 299.140444,204.475939 287.160922,215.312116 C291.495392,189.595392 296.000512,163.895734 300.130205,138.127816 C289.174573,145.448635 277.911775,152.359898 267.160922,159.970819 C267.263311,160.551024 267.468089,161.728498 267.570478,162.308703 C276.444198,156.916212 284.51587,150.209727 293.969795,145.824061" id="Fill-35" fill="#820225"></path>
                <path d="M217.366212,224.850512 C219.840614,223.212287 223.850853,222.120137 223.799659,218.487031 C224.635836,211.454608 224.908874,204.372696 225.642662,197.324915 C220.31843,189.065529 217.195563,179.696928 213.373038,170.720819 C210.045392,161.437543 205.506143,152.650853 202.53686,143.265188 C212.144369,149.270307 221.308191,155.993857 231.325256,161.352218 L231.615358,159.594539 C221.001024,152.154266 210.028328,145.243003 199.15802,138.212287 C203.390102,163.860751 207.553925,189.52628 212.212628,215.08942 C207.178498,211.966553 203.902048,206.812969 199.089761,203.36587 C202.093174,212.751536 211.751877,217.23959 217.366212,224.850512" id="Fill-37" fill="#820225"></path>
                <path d="M246.376451,401.983276 C247.229693,406.353584 247.605119,410.908191 249.431058,415.037884 C254.345734,392.616382 258.953242,370.106143 263.424232,347.599317 C257.280887,356.53959 254.362799,367.240956 249.277474,376.778498 C248.509556,385.106143 252.144369,394.954266 246.376451,401.983276" id="Fill-39" fill="#820225"></path>
            </g>
        </g>
    </g>
</svg>