<?xml version="1.0" encoding="UTF-8" standalone="no"?>
<svg  viewBox="0 0 500 500" version="1.1" xmlns="http://www.w3.org/2000/svg" xmlns:xlink="http://www.w3.org/1999/xlink">
    <!-- Generator: Sketch 39.1 (31720) - http://www.bohemiancoding.com/sketch -->
    <title>TOR</title>
    <desc>Created with Sketch.</desc>
    <defs></defs>
    <g id="Page-1" stroke="none" stroke-width="1" fill="none" fill-rule="evenodd">
        <g id="TOR">
            <g id="download-(4)" transform="translate(26.000000, 0.000000)">
                <g id="Group">
                    <path d="M234.329075,310.195496 L227.185313,310.195496 L227.185313,323.620391 L234.329075,323.620391 C235.689791,323.620391 236.772179,322.506805 236.772179,321.176689 L236.772179,312.670131 C236.803104,311.309082 235.689791,310.195496 234.329075,310.195496 L234.329075,310.195496 Z M181.508537,260.579065 C183.920716,260.146003 186.363821,259.743875 188.806925,259.37268 C189.734687,259.218015 190.538746,258.723088 191.095403,257.980698 C191.65206,257.238307 191.868537,256.310319 191.71391,255.382331 L190.105791,245.483791 C189.796537,243.627815 188.002866,242.266766 186.085493,242.545162 C183.642388,242.916357 181.199284,243.318486 178.787104,243.751547 L178.199522,243.844345 L180.920955,260.671863 L181.508537,260.579065 L181.508537,260.579065 Z M222.762985,270.570403 L228.020299,270.570403 C229.937672,270.570403 231.514866,269.023756 231.514866,267.074981 L231.514866,243.101955 C231.514866,241.15318 229.937672,239.5756 228.020299,239.5756 L222.762985,239.5756 C220.814687,239.5756 219.268418,241.184113 219.268418,243.101955 L219.268418,267.074981 C219.237493,268.992824 220.814687,270.570403 222.762985,270.570403 L222.762985,270.570403 Z M223.443343,363.987874 L219.175642,380.846325 L227.74197,380.846325 L223.443343,363.987874 Z M189.858388,327.82727 L197.435104,327.82727 L193.662209,310.999753 L189.858388,327.82727 Z M347.299463,269.858946 C345.753194,269.054689 344.176,268.250433 342.629731,267.446177 C342.134925,267.198713 341.578269,267.074981 341.052537,267.074981 C339.722746,267.074981 338.516657,267.817372 337.898149,268.992824 L326.888716,290.274684 C326.455761,291.109874 326.39391,292.037862 326.672239,292.934917 C326.950567,293.831972 327.569075,294.54343 328.40406,294.976491 C329.950328,295.780747 331.527522,296.585004 333.073791,297.38926 C333.568597,297.636724 334.125254,297.791388 334.712836,297.791388 C336.011701,297.791388 337.217791,297.079931 337.805373,295.904479 L348.814806,274.622618 C349.711642,272.890374 349.031284,270.756001 347.299463,269.858946 L347.299463,269.858946 Z" id="Shape" fill="#00205B"></path>
                    <path d="M231.48394,498.174957 C230.772657,498.174957 230.123224,497.89656 229.628418,497.3707 C223.659821,490.936649 219.144716,484.255135 215.804776,476.985895 C213.980179,472.964613 212.495761,468.7268 211.413373,464.30339 C210.330985,459.87998 209.588776,455.147241 209.217672,450.259837 C197.744358,455.734967 185.374209,460.591438 172.354627,464.705518 C159.304119,468.850532 145.294925,472.376887 130.698149,475.160851 C130.574448,475.191784 130.419821,475.191784 130.265194,475.191784 C129.55391,475.191784 128.873552,474.851522 128.471522,474.263796 C128.038567,473.67607 127.945791,472.93368 128.131343,472.284088 C131.131104,462.756743 134.563821,455.023509 138.955224,448.063598 C128.378746,450.352635 114.58603,452.425142 96.8967164,454.342984 L96.6493134,454.342984 C95.9071045,454.342984 95.2267463,453.971789 94.8247164,453.384063 C94.3917612,452.796338 94.2989851,452.023014 94.5463881,451.342489 C97.0204179,444.599109 99.7109254,438.319723 102.494209,432.628062 C89.4746269,436.092551 73.9191642,438.907449 53.7248955,441.474882 C53.6321194,441.474882 53.5393433,441.505815 53.4465672,441.505815 C52.6115821,441.505815 51.8693731,441.041821 51.4673433,440.299431 C51.0962388,439.55704 51.1271642,438.659985 51.6219701,437.979461 C65.4456119,418.213314 80.1660896,402.004454 96.5565373,388.486761 C85.3306269,383.970552 74.5376716,377.691166 61.7345672,368.163821 C61.1160597,367.699827 60.7758806,366.988369 60.8377313,366.215046 C60.8995821,365.441722 61.3016119,364.792131 61.9819701,364.420935 C76.640597,356.25464 91.4538507,349.789656 107.133015,344.685721 C93.1856716,341.93269 81.9597612,338.344469 72.9295522,333.673596 C72.3110448,333.426132 71.8780896,332.869339 71.7543881,332.188815 C71.6306866,331.50829 71.7853134,330.827765 72.2182687,330.301905 L72.2182687,330.301905 C76.4859701,325.167038 80.6299701,321.08389 85.176,317.557535 C78.1250149,314.618906 71.3523582,311.154417 65.0745075,307.256867 C58.6111045,303.235585 52.4260299,298.657511 46.6739104,293.584509 C45.7770746,292.780252 45.6533731,291.38827 46.4265075,290.460282 C50.3849552,285.758476 55.1474627,281.242267 61.054209,276.602326 C53.5702687,271.683989 46.2409552,266.363524 39.3136716,260.764662 C32.1699104,255.011136 25.1807761,248.793615 18.5936716,242.328632 C18.1607164,241.926503 17.9442388,241.338778 17.9442388,240.720119 C17.9442388,240.132393 18.1607164,239.5756 18.5936716,239.142539 C21.9026866,235.925513 25.582806,233.04875 29.479403,230.635981 C24.5622687,226.429102 19.8616119,221.603563 15.5011343,216.283098 C10.9860299,210.746102 6.68740299,204.497649 2.72895522,197.723336 C2.41970149,197.13561 2.35785075,196.455085 2.57432836,195.836427 C2.79080597,195.217768 3.28561194,194.722841 3.9041194,194.475377 C10.5221493,192.000742 16.6144478,190.330364 22.4902687,189.433309 C17.9133134,180.060629 14.480597,168.924771 11.7282388,154.571888 C11.6045373,153.922296 11.7591642,153.241772 12.1921194,152.715912 C12.6250746,152.190052 13.2435821,151.911656 13.8930149,151.911656 C14.0785672,151.911656 14.2641194,151.942588 14.4496716,151.973521 L14.480597,151.973521 C27.8712836,155.468943 42.2206567,161.810195 50.0757015,165.522148 C51.8384478,157.788914 53.8176716,150.334076 57.5905672,143.652561 C57.992597,142.941104 58.734806,142.508043 59.5388657,142.508043 C60.0027463,142.508043 60.4666269,142.662707 60.8377313,142.941104 L60.8377313,142.941104 C66.775403,147.240782 72.4347463,151.787924 77.6611343,156.458797 C82.7019701,160.975006 87.495403,165.738679 91.886806,170.626083 C94.4226866,166.666667 97.5152239,163.418708 101.288119,160.69661 L101.288119,160.69661 C101.690149,160.418213 102.123104,160.263549 102.586985,160.263549 C103.267343,160.263549 103.885851,160.572878 104.318806,161.067805 C117.709493,177.709725 138.213015,200.692898 160.788537,216.963623 C155.252896,199.703044 147.274149,183.184855 139.419104,167.903984 C139.109851,167.285325 139.078925,166.573868 139.388179,165.955209 C139.666507,165.33655 140.223164,164.903489 140.872597,164.748825 L140.872597,164.748825 C143.686806,164.099233 147.521552,163.635239 152.222209,163.325909 C143.099224,149.437021 135.027701,131.712447 129.49206,113.183618 C129.306507,112.534026 129.430209,111.822569 129.832239,111.265776 C130.234269,110.708983 130.914627,110.368721 131.594985,110.368721 L131.687761,110.368721 C140.285015,110.739916 150.27391,112.626825 158.654687,115.379856 C157.603224,108.760208 157.232119,101.460035 157.541373,93.6030685 C157.850627,86.2719624 158.778388,78.4149963 160.262806,70.2796338 C160.448358,69.2279139 161.376119,68.4545904 162.427582,68.4545904 C162.70591,68.4545904 162.953313,68.5164563 163.200716,68.6092551 C168.86006,70.7436278 175.416239,73.9606533 181.725015,77.6726058 C181.35391,71.3932195 181.477612,64.711705 182.096119,57.8445929 C182.714627,50.9156149 183.82794,43.986637 185.312358,37.7691166 C185.559761,36.7792626 186.425672,36.0987379 187.415284,36.0987379 C187.662687,36.0987379 187.91009,36.1296709 188.126567,36.2224697 C191.992239,37.5835189 196.754746,39.9034892 202.290388,43.1514477 C207.176597,29.16976 214.877015,15.7448651 222.453731,3.34075724 C222.855761,2.66023262 223.567045,2.25810443 224.371104,2.25810443 C225.144239,2.25810443 225.855522,2.66023262 226.288478,3.34075724 C231.205612,11.352388 234.731104,17.5389755 237.792716,23.4162336 C241.472836,30.4998763 244.31797,36.9648602 246.482746,43.1514477 C251.987463,39.9034892 256.74997,37.552586 260.646567,36.2224697 C260.863045,36.1296709 261.110448,36.0987379 261.357851,36.0987379 C262.347463,36.0987379 263.213373,36.7792626 263.460776,37.7691166 C264.945194,43.986637 266.058507,50.9156149 266.677015,57.8445929 C267.295522,64.742638 267.419224,71.3932195 267.048119,77.6726058 C273.356896,73.9297204 279.882149,70.7436278 285.572418,68.6092551 C285.819821,68.5164563 286.098149,68.4545904 286.345552,68.4545904 C287.42794,68.4545904 288.324776,69.2279139 288.510328,70.2796338 C289.994746,78.4149963 290.922507,86.2719624 291.231761,93.6030685 C291.57194,101.460035 291.200836,108.760208 290.149373,115.379856 C298.530149,112.626825 308.519045,110.739916 317.116299,110.368721 L317.209075,110.368721 C317.889433,110.368721 318.538866,110.708983 318.971821,111.234843 C319.373851,111.791636 319.497552,112.503093 319.312,113.152685 C313.776358,131.681514 305.704836,149.406088 296.550925,163.264044 C301.282507,163.573373 305.086328,164.037367 307.900537,164.686959 L307.900537,164.686959 C308.54997,164.841623 309.106627,165.274684 309.384955,165.893343 C309.663284,166.512002 309.663284,167.22346 309.35403,167.842118 L309.35403,167.842118 C301.52991,183.122989 293.551164,199.610245 288.015522,216.870824 C312.570269,198.867854 331.032716,177.647859 344.454328,161.036872 C344.856358,160.511012 345.505791,160.232616 346.155224,160.232616 C346.619104,160.232616 347.05206,160.38728 347.423164,160.634744 L347.423164,160.634744 C351.226985,163.356842 354.288597,166.635734 356.824478,170.564217 C361.215881,165.676813 366.009313,160.91314 371.050149,156.396931 C376.276537,151.726058 381.935881,147.178916 387.842627,142.879238 L387.842627,142.879238 C388.213731,142.600841 388.677612,142.446177 389.172418,142.446177 C389.976478,142.446177 390.718687,142.879238 391.120716,143.559762 C394.924537,150.27221 396.872836,157.727048 398.635582,165.429349 C406.490627,161.717397 420.870925,155.376145 434.230687,151.880723 L434.230687,151.880723 C434.416239,151.84979 434.601791,151.818857 434.787343,151.818857 C435.436776,151.818857 436.086209,152.128186 436.519164,152.623113 C436.952119,153.148973 437.106746,153.829498 436.983045,154.479089 C434.199761,168.831972 430.767045,179.96783 426.221015,189.34051 C432.096836,190.268498 438.189134,191.907944 444.807164,194.382579 C445.425672,194.630042 445.920478,195.094036 446.136955,195.743628 C446.353433,196.362287 446.291582,197.042811 445.982328,197.630537 L446.044179,197.723336 C442.085731,204.497649 437.787104,210.746102 433.272,216.283098 C428.911522,221.603563 424.210866,226.429102 419.262806,230.635981 C423.190328,233.079683 426.839522,235.925513 430.148537,239.142539 C430.581493,239.5756 430.828896,240.132393 430.828896,240.720119 C430.828896,241.307845 430.581493,241.89557 430.179463,242.328632 C423.592358,248.824548 416.603224,255.011136 409.459463,260.764662 C402.532179,266.363524 395.202866,271.683989 387.718925,276.602326 C393.625672,281.242267 398.388179,285.789409 402.315701,290.460282 L402.315701,290.460282 C403.088836,291.38827 402.99606,292.780252 402.099224,293.553576 L402.099224,293.553576 C396.37803,298.626578 390.192955,303.235585 383.698627,307.256867 C377.420776,311.154417 370.679045,314.618906 363.597134,317.557535 C368.143164,321.08389 372.256239,325.167038 376.554866,330.301905 L376.554866,330.301905 C376.987821,330.827765 377.142448,331.50829 377.018746,332.188815 C376.895045,332.869339 376.46209,333.426132 375.843582,333.704529 C366.813373,338.344469 355.587463,341.963623 341.640119,344.716654 C357.319284,349.789656 372.132537,356.25464 386.791164,364.451868 C387.440597,364.823064 387.873552,365.503588 387.935403,366.245979 C387.997254,367.019302 387.657075,367.73076 387.038567,368.194754 C374.235463,377.722098 363.411582,384.032418 352.216597,388.517694 C368.607045,402.035387 383.296597,418.213314 397.151164,438.010393 C397.615045,438.690918 397.676896,439.587973 397.305791,440.330364 C396.903761,441.072754 396.161552,441.536748 395.326567,441.536748 L395.326567,441.536748 C395.233791,441.536748 395.141015,441.536748 395.048239,441.505815 C374.85397,438.938382 359.298507,436.123484 346.278925,432.658995 C349.062209,438.350656 351.721791,444.660975 354.226746,451.373422 C354.474149,452.053947 354.381373,452.82727 353.948418,453.414996 C353.515463,454.002722 352.835104,454.373917 352.123821,454.373917 L351.876418,454.373917 C334.187104,452.456075 320.394388,450.414501 309.81791,448.094531 C314.178388,455.054442 317.64203,462.787676 320.641791,472.345954 C320.858269,473.026479 320.734567,473.768869 320.301612,474.325662 C319.899582,474.882455 319.219224,475.222717 318.538866,475.222717 C318.384239,475.222717 318.260537,475.222717 318.10591,475.191784 L318.10591,475.191784 C301.375284,471.974759 284.242627,466.963623 272.800239,463.313536 C258.296239,458.704529 244.781851,453.724326 235.720716,449.610245 C235.597015,449.548379 235.504239,449.548379 235.380537,449.548379 C235.040358,449.548379 234.669254,449.76491 234.576478,450.167038 C233.617791,454.806978 235.256836,460.684237 239.462687,467.67508 C242.864478,473.366741 246.977552,478.068547 248.523821,479.831725 L248.585672,479.893591 C249.513433,480.945311 249.420657,482.553823 248.400119,483.512744 L233.246687,497.494432 C232.751881,497.958426 232.133373,498.174957 231.48394,498.174957 L231.48394,498.174957 Z" id="Shape" fill="#00205B"></path>
                    <path d="M224.40203,3.74288542 C224.649433,3.74288542 224.927761,3.86661717 225.051463,4.11408067 C233.15391,17.3843108 240.668776,30.7164068 245.369433,44.450631 C245.462209,44.7599604 245.771463,44.976491 246.080716,44.976491 C246.204418,44.976491 246.359045,44.945558 246.482746,44.8527592 C251.461731,41.8831972 256.688119,39.1610987 261.110448,37.6144519 C261.203224,37.5835189 261.265075,37.5835189 261.357851,37.5835189 C261.667104,37.5835189 261.976358,37.8000495 262.038209,38.1403118 C264.945194,50.2660233 266.460537,65.3303638 265.501851,78.9717892 C265.470925,79.4357832 265.84203,79.7760455 266.24406,79.7760455 C266.367761,79.7760455 266.491463,79.7451126 266.64609,79.6523138 C273.016716,75.8166295 280.005851,72.2902747 286.098149,70.0012373 C286.190925,69.9703044 286.283701,69.9393714 286.345552,69.9393714 C286.685731,69.9393714 287.02591,70.1868349 287.087761,70.5580302 C289.840119,85.6223707 291.015284,101.862163 288.510328,116.36971 C288.417552,116.833705 288.788657,117.2049 289.221612,117.2049 C289.314388,117.2049 289.376239,117.2049 289.469015,117.173967 C298.128119,114.173472 308.54997,112.224697 317.209075,111.853502 L317.24,111.853502 C317.734806,111.853502 318.074985,112.317496 317.920358,112.78149 C312.910448,129.547142 304.993552,148.199703 294.664478,163.54244 C294.355224,164.006434 294.664478,164.656026 295.221134,164.686959 C299.581612,164.934422 304.158567,165.367483 307.591284,166.140807 C308.055164,166.264538 308.302567,166.790398 308.08609,167.22346 C299.921791,183.184855 291.51009,200.538233 285.943522,218.757733 C285.788896,219.221727 286.190925,219.623855 286.592955,219.623855 C286.716657,219.623855 286.840358,219.592923 286.96406,219.500124 C311.518806,201.930215 330.506985,180.71022 345.629493,161.995793 C345.784119,161.810195 346.000597,161.717397 346.217075,161.717397 C346.371701,161.717397 346.526328,161.74833 346.65003,161.872061 C350.701254,164.779757 353.793791,168.275179 356.144119,172.17273 C356.298746,172.420193 356.546149,172.543925 356.793552,172.543925 C357.01003,172.543925 357.195582,172.451126 357.350209,172.296461 C366.504119,162.026726 377.018746,152.654046 388.801313,144.147488 C388.925015,144.054689 389.110567,143.992824 389.265194,143.992824 C389.543522,143.992824 389.790925,144.116555 389.945552,144.394952 C393.934925,151.447661 395.883224,159.552091 397.491343,166.759465 C397.584119,167.099728 397.862448,167.316258 398.202627,167.316258 C398.295403,167.316258 398.419104,167.285325 398.511881,167.254392 C409.645015,161.933927 423.004776,156.458797 434.663642,153.427369 C434.725493,153.396437 434.787343,153.396437 434.849194,153.396437 C435.313075,153.396437 435.715104,153.829498 435.622328,154.324425 C433.117373,167.285325 429.746507,179.256372 424.551045,189.680772 C424.303642,190.144766 424.612896,190.701559 425.107701,190.763425 C431.447403,191.66048 437.694328,193.392725 444.343284,195.86736 C444.807164,196.052957 444.992716,196.578817 444.745313,197.011878 C436.952119,210.436773 427.92191,221.510765 417.56191,230.171987 C417.159881,230.512249 417.221731,231.130908 417.654687,231.409305 C421.891463,233.945805 425.695284,236.884435 429.128,240.225192 C429.437254,240.534521 429.437254,241.029448 429.128,241.338778 C415.984716,254.268745 401.666269,265.806731 386.110806,275.952734 C385.646925,276.262064 385.646925,276.880723 386.048955,277.220985 C391.770149,281.675328 396.84191,286.253403 401.171463,291.450136 C401.449791,291.759465 401.38794,292.254392 401.078687,292.532789 C389.790925,302.524128 376.895045,310.597624 361.896239,316.722346 C361.339582,316.938877 361.246806,317.681267 361.741612,318.052462 C367.060776,322.073744 371.390328,326.497154 375.379701,331.291759 C375.688955,331.662955 375.565254,332.250681 375.132299,332.467211 C364.432119,337.973274 351.412537,341.530562 337.929075,343.974264 C337.310567,344.097996 337.279642,344.933185 337.867224,345.118782 C355.092657,350.439248 370.895522,357.337293 386.048955,365.781985 C386.543761,366.060381 386.574687,366.740906 386.141731,367.081168 C375.039522,375.340262 363.720836,382.516704 350.546627,387.651571 C349.98997,387.868102 349.866269,388.57956 350.330149,388.950755 C368.328716,403.612967 383.049194,420.502351 395.883224,438.876516 C396.254328,439.402376 395.852299,440.113833 395.233791,440.113833 L395.141015,440.113833 C376.802269,437.793863 359.731463,434.9171 345.010985,430.895818 C344.949134,430.864885 344.856358,430.864885 344.794507,430.864885 C344.268776,430.864885 343.897672,431.421678 344.145075,431.947538 C347.299463,438.226924 350.144597,444.939371 352.742328,451.961148 C352.927881,452.487008 352.525851,453.012868 352.000119,453.012868 L351.907343,453.012868 C335.362269,451.218758 320.332537,449.115318 308.333493,446.39322 C308.271642,446.39322 308.209791,446.362287 308.14794,446.362287 C307.560358,446.362287 307.189254,447.011878 307.529433,447.537738 C312.601194,455.270973 316.219463,463.653799 319.095522,472.840881 C319.250149,473.335808 318.879045,473.830735 318.384239,473.830735 L318.229612,473.830735 C289.809194,468.355605 253.626507,456.260827 236.153672,448.372927 C235.844418,448.218263 235.535164,448.156397 235.194985,448.156397 C234.143522,448.156397 233.184836,448.867854 232.968358,449.950507 C230.525254,461.859688 244.31797,477.511755 247.317731,480.914378 C247.719761,481.378372 247.688836,482.089829 247.224955,482.52289 L232.071522,496.504578 C231.855045,496.690176 231.607642,496.782975 231.329313,496.782975 C231.050985,496.782975 230.772657,496.659243 230.556179,496.442712 C219.763224,484.811928 211.877254,470.366246 210.485612,449.579312 C210.454687,449.022519 209.990806,448.651324 209.496,448.651324 C209.341373,448.651324 209.217672,448.682257 209.063045,448.744123 C185.652537,459.972779 159.273194,468.262806 130.265194,473.799802 L130.110567,473.799802 C129.615761,473.799802 129.213731,473.304875 129.368358,472.779015 C132.244418,463.591933 135.862687,455.209107 140.934448,447.475872 C141.274627,446.950012 140.903522,446.300421 140.31594,446.300421 C140.25409,446.300421 140.192239,446.300421 140.130388,446.331354 C128.131343,449.053452 113.101612,451.156892 96.5565373,452.951002 L96.4637612,452.951002 C95.9380299,452.951002 95.536,452.425142 95.7215522,451.899282 C98.3192836,444.877506 101.164418,438.195991 104.318806,431.885672 C104.566209,431.359812 104.195104,430.803019 103.669373,430.803019 C103.607522,430.803019 103.545672,430.803019 103.452896,430.833952 C88.7324179,434.855234 71.6616119,437.731997 53.3228657,440.051967 L53.2300896,440.051967 C52.6115821,440.051967 52.2404776,439.34051 52.5806567,438.81465 C65.4456119,420.440485 80.1660896,403.551101 98.1337313,388.888889 C98.5976119,388.517694 98.4739104,387.806236 97.9172537,387.589706 C84.7430448,382.454838 73.4243582,375.278396 62.3221493,367.019302 C61.8582687,366.67904 61.9201194,365.998515 62.4149254,365.720119 C77.5683582,357.275427 93.3712239,350.408315 110.596657,345.056917 C111.184239,344.871319 111.153313,344.03613 110.534806,343.912398 C97.0513433,341.468696 84.0626866,337.911408 73.3315821,332.405345 C72.8986269,332.188815 72.7749254,331.601089 73.0841791,331.229894 C77.0735522,326.435288 81.4031045,322.011878 86.7222687,317.990596 C87.2170746,317.619401 87.1242985,316.877011 86.5676418,316.66048 C71.8471642,310.535758 58.9203582,302.462262 47.6635224,292.470923 C47.3233433,292.192527 47.2924179,291.728533 47.5707463,291.38827 C51.9002985,286.22247 56.9411343,281.613462 62.6932537,277.159119 C63.126209,276.818857 63.0952836,276.169265 62.631403,275.890869 C47.0759403,265.744865 32.7574925,254.206879 19.614209,241.276912 C19.3049552,240.998515 19.3049552,240.503588 19.614209,240.194259 C23.0469254,236.853502 26.8507463,233.88394 31.0875224,231.378372 C31.5204776,231.099975 31.5823284,230.481317 31.1802985,230.141054 C20.8202985,221.510765 11.7900896,210.40584 3.99689552,196.980945 C3.74949254,196.547884 3.93504478,196.022024 4.39892537,195.836427 C11.0478806,193.330859 17.294806,191.629547 23.6345075,190.732492 C24.1602388,190.670626 24.4385672,190.113833 24.1911642,189.649839 C19.0266269,179.225439 15.6557612,167.285325 13.150806,154.293492 C13.0580299,153.798565 13.4291343,153.365504 13.9239403,153.365504 C13.985791,153.365504 14.0476418,153.365504 14.1094925,153.396437 C25.7992836,156.427864 39.1590448,161.933927 50.2612537,167.22346 C50.3849552,167.285325 50.4777313,167.316258 50.6014328,167.316258 C50.9416119,167.316258 51.2199403,167.099728 51.3127164,166.759465 C52.9208358,159.521158 54.8691343,151.416729 58.8585075,144.364019 C59.0131343,144.116555 59.2605373,143.961891 59.5388657,143.961891 C59.6934925,143.961891 59.8481194,144.023756 60.0027463,144.116555 C71.7543881,152.623113 82.2690149,161.995793 91.4538507,172.265528 C91.6084776,172.451126 91.8249552,172.512992 92.0105075,172.512992 C92.2579104,172.512992 92.5053134,172.38926 92.6599403,172.141797 C95.0102687,168.244246 98.102806,164.748825 102.15403,161.841128 C102.277731,161.779263 102.432358,161.717397 102.586985,161.717397 C102.803463,161.717397 103.01994,161.810195 103.174567,161.995793 C119.286687,182.071269 140.161313,204.373917 161.901851,219.56199 C162.025552,219.654788 162.149254,219.685721 162.272955,219.685721 C162.674985,219.685721 163.04609,219.283593 162.891463,218.850532 C157.29397,200.600099 148.913194,183.215788 140.71797,167.22346 C140.501493,166.790398 140.748896,166.264538 141.212776,166.140807 C144.645493,165.367483 149.253373,164.934422 153.582925,164.686959 C154.170507,164.656026 154.479761,164.006434 154.139582,163.54244 C143.810507,148.199703 135.893612,129.547142 130.883701,112.78149 C130.76,112.317496 131.100179,111.822569 131.594985,111.822569 L131.62591,111.822569 C140.285015,112.193764 150.706866,114.142539 159.36597,117.143034 C159.458746,117.173967 159.520597,117.173967 159.613373,117.173967 C160.046328,117.173967 160.386507,116.802772 160.324657,116.338778 C157.788776,101.83123 158.96394,85.5914378 161.747224,70.5270973 C161.809075,70.155902 162.149254,69.9084385 162.489433,69.9084385 C162.582209,69.9084385 162.674985,69.9084385 162.736836,69.9703044 C168.829134,72.2593417 175.818269,75.7856966 182.188896,79.6213808 C182.312597,79.6832467 182.436299,79.7451126 182.590925,79.7451126 C182.992955,79.7451126 183.36406,79.4048503 183.333134,78.9408562 C182.374448,65.3303638 183.889791,50.2660233 186.796776,38.1093789 C186.889552,37.7691166 187.167881,37.552586 187.477134,37.552586 C187.56991,37.552586 187.631761,37.552586 187.724537,37.5835189 C192.177791,39.1301658 197.373254,41.8522643 202.352239,44.8218263 C202.47594,44.8836922 202.599642,44.945558 202.754269,44.945558 C203.063522,44.945558 203.341851,44.7599604 203.465552,44.4196981 C208.166209,30.6854739 215.681075,17.3533779 223.783522,4.08314774 C223.876299,3.86661717 224.123701,3.74288542 224.40203,3.74288542 L224.40203,3.74288542 Z M224.40203,0.83518931 C223.783522,0.83518931 223.19594,0.989853997 222.639284,1.26825043 C222.051701,1.57757981 221.587821,2.04157387 221.247642,2.59836674 C216.330507,10.6409305 212.77409,16.8893838 209.712478,22.7666419 C206.341612,29.2934917 203.651104,35.2944816 201.548179,41.017075 C196.569194,38.1712447 192.239642,36.0987379 188.652299,34.8304875 C188.281194,34.7067558 187.879164,34.6139569 187.446209,34.6139569 C186.642149,34.6758228 185.83809,34.9232863 185.219582,35.4182133 C184.570149,35.9131403 184.106269,36.6245979 183.920716,37.4288542 C182.405373,43.7082405 181.29206,50.6990844 180.673552,57.6899282 C180.147821,63.6599852 179.962269,69.5063103 180.178746,75.074239 C174.519403,71.8881465 168.798209,69.1351151 163.757373,67.217273 L163.757373,67.217273 L163.757373,67.217273 C163.355343,67.0626083 162.922388,66.9698095 162.489433,66.9698095 C160.726687,66.9698095 159.211343,68.2380599 158.871164,69.9703044 L158.840239,70.0321703 L158.840239,70.0321703 C157.324896,78.2293987 156.42806,86.1482306 156.118806,93.5412027 C155.840478,100.593912 156.087881,107.213561 156.89194,113.30735 C148.882269,110.894581 139.728358,109.286068 131.749612,108.914873 L131.594985,108.914873 C130.450746,108.914873 129.337433,109.471665 128.657075,110.399654 C127.976716,111.296709 127.760239,112.503093 128.100418,113.616679 C130.790925,122.587231 134.069015,131.434051 137.872836,139.878743 C141.491104,147.95224 145.449552,155.376145 149.686328,162.026726 C146.006209,162.336055 142.944597,162.769117 140.563343,163.325909 L140.563343,163.325909 L140.563343,163.325909 C139.45003,163.573373 138.553194,164.315763 138.058388,165.33655 C137.594507,166.357337 137.594507,167.532789 138.120239,168.553576 L138.120239,168.553576 L138.120239,168.553576 C145.264,182.504331 152.531463,197.475872 157.943403,213.066073 C136.945075,197.13561 118.018746,175.822816 105.432119,160.17075 L105.432119,160.17075 L105.432119,160.17075 C104.720836,159.304628 103.700299,158.809701 102.586985,158.809701 C101.813851,158.809701 101.102567,159.026231 100.48406,159.490225 L100.453134,159.490225 L100.453134,159.490225 C98.3192836,161.036872 96.3400597,162.769117 94.6082388,164.686959 C93.5877015,165.800544 92.6290149,167.006929 91.7321791,168.275179 C87.6500299,163.820836 83.2586269,159.521158 78.6507463,155.376145 C73.3625075,150.674338 67.6722388,146.096263 61.7036418,141.765652 C61.0851343,141.301658 60.312,141.054195 59.5388657,141.054195 C58.2090746,141.054195 56.9720597,141.765652 56.3226269,142.910171 C54.4361791,146.250928 52.8280597,150.086612 51.4054925,154.602821 C50.4777313,157.572383 49.7355224,160.541945 49.0551642,163.418708 C43.7669254,160.975006 38.5405373,158.716902 33.4378507,156.737194 C26.665194,154.076961 20.3873433,152.004454 14.8207761,150.581539 L14.8207761,150.581539 L14.8207761,150.581539 C14.5115224,150.48874 14.2022687,150.457807 13.9239403,150.457807 C12.8106269,150.457807 11.7900896,150.952734 11.078806,151.787924 C10.3675224,152.654046 10.089194,153.767632 10.2747463,154.850285 L10.2747463,154.850285 L10.2747463,154.850285 C11.6354627,161.933927 13.150806,168.120515 14.8826269,173.781242 C16.4907463,179.101707 18.2844179,183.896313 20.3254925,188.319723 C14.9444776,189.309577 9.37791045,190.887157 3.37838806,193.114328 L3.37838806,193.114328 L3.37838806,193.114328 C2.35785075,193.516456 1.55379104,194.320713 1.18268657,195.3415 C0.842507463,196.39322 0.935283582,197.506805 1.4919403,198.465726 L1.4919403,198.465726 L1.4919403,198.465726 C5.48131343,205.332838 9.81086567,211.643158 14.3878209,217.211086 C18.3462687,222.067558 22.6139701,226.521901 27.0672239,230.450384 C23.6654328,232.677555 20.5110448,235.244989 17.5731343,238.090819 L17.5731343,238.090819 C16.8618507,238.771344 16.4598209,239.730265 16.4598209,240.720119 C16.4598209,241.709973 16.8618507,242.668894 17.5731343,243.380351 C24.1911642,249.907201 31.2112239,256.124722 38.3859104,261.909181 C44.8493134,267.105914 51.6219701,272.086117 58.5492537,276.695125 C56.415403,278.458302 54.4671045,280.159614 52.6115821,281.891858 C49.9210746,284.397426 47.5398209,286.902994 45.3441194,289.532294 C44.7256119,290.274684 44.4163582,291.202673 44.478209,292.192527 C44.5709851,293.151448 45.0039403,294.01757 45.7152239,294.667162 L45.7152239,294.667162 C48.5912836,297.203662 51.6219701,299.678297 54.6835821,301.936402 C57.7761194,304.256372 61.0232836,306.452611 64.3013731,308.494185 C67.6103881,310.566691 71.1049552,312.515466 74.6304478,314.309577 C77.135403,315.577827 79.7331343,316.815145 82.361791,317.959663 C78.465194,321.207622 74.816,324.888641 71.1049552,329.40485 L71.1049552,329.373917 L71.1049552,329.373917 C70.3936716,330.24004 70.1153433,331.384558 70.3318209,332.467211 C70.5482985,333.549864 71.2595821,334.477852 72.249194,335.003712 L72.249194,335.003712 C77.4755821,337.694878 83.5369552,340.076714 90.3096119,342.118288 C93.8660299,343.20094 97.608,344.159861 101.597373,345.056917 C95.9071045,347.036625 90.3096119,349.20193 84.8358209,351.552833 C76.9189254,354.955457 69.0020299,358.853007 61.2706866,363.183618 L61.2397612,363.183618 L61.2397612,363.183618 C60.1573731,363.802277 59.4460896,364.915862 59.3533134,366.15318 C59.2605373,367.42143 59.817194,368.596882 60.8377313,369.339272 C67.0537313,373.979213 72.7130746,377.753031 78.0940896,380.970057 C83.351403,384.094284 88.5159403,386.723583 93.7423284,388.919822 C78.0013134,402.190052 63.7756418,418.027716 50.4158806,437.144271 C49.6118209,438.28879 49.5190448,439.742638 50.1684776,440.949023 C50.8179104,442.18634 52.0549254,442.928731 53.4465672,442.928731 C53.601194,442.928731 53.7558209,442.928731 53.9413731,442.897798 C63.8993433,441.629547 72.5893731,440.330364 80.5062687,438.907449 C87.6191045,437.639198 93.9897313,436.278149 99.8655522,434.793368 C97.5461493,439.773571 95.3195224,445.124969 93.216597,450.81663 L93.216597,450.81663 L93.216597,450.81663 C92.8145672,451.961148 92.969194,453.229399 93.6495522,454.219253 C94.3299104,455.209107 95.4741493,455.796832 96.6802388,455.796832 C96.8039403,455.796832 96.9585672,455.796832 97.0822687,455.7659 L97.0822687,455.7659 C106.019701,454.806978 113.751045,453.817124 120.678328,452.796338 C126.368597,451.961148 131.440358,451.064093 136.017313,450.167038 C134.532896,452.765405 133.172179,455.45657 131.873313,458.333333 C130.017791,462.478347 128.347821,466.901757 126.801552,471.851027 C126.461373,472.964613 126.646925,474.20193 127.358209,475.129918 C128.038567,476.088839 129.182806,476.645632 130.327045,476.645632 C130.574448,476.645632 130.790925,476.614699 131.007403,476.583766 L131.007403,476.583766 C138.305791,475.191784 145.511403,473.614204 152.407761,471.88196 C159.36597,470.149715 166.231403,468.20094 172.818507,466.097501 C179.436537,463.994061 185.961791,461.674091 192.177791,459.230389 C197.558806,457.126949 202.847045,454.837911 207.949731,452.456075 C208.351761,456.662955 209.063045,460.746102 210.021731,464.61272 C211.135045,469.097996 212.650388,473.45954 214.50591,477.542687 C217.876776,484.966592 222.484657,491.771839 228.576955,498.298688 C229.319164,499.102945 230.401552,499.566939 231.48394,499.566939 C232.473552,499.566939 233.432239,499.195744 234.174448,498.515219 L234.174448,498.515219 L234.174448,498.515219 L249.327881,484.533531 L249.327881,484.533531 L249.327881,484.533531 C250.101015,483.822074 250.564896,482.83222 250.626746,481.7805 C250.688597,480.697847 250.348418,479.67706 249.637134,478.872804 L249.575284,478.810938 C236.772179,464.179659 235.318687,455.487503 235.844418,451.249691 C244.936478,455.301905 258.172537,460.18931 272.367284,464.674585 C280.129552,467.14922 287.860896,469.376392 295.282985,471.3561 C303.385433,473.490473 310.962149,475.25365 317.827582,476.583766 C318.074985,476.614699 318.291463,476.645632 318.538866,476.645632 C319.683104,476.645632 320.796418,476.088839 321.476776,475.160851 C322.157134,474.232863 322.373612,472.995546 322.033433,471.88196 L322.033433,471.88196 L322.033433,471.88196 C320.456239,466.901757 318.817194,462.478347 316.961672,458.364266 C315.662806,455.487503 314.30209,452.765405 312.786746,450.197971 C317.363701,451.125959 322.435463,451.992081 328.125731,452.82727 C335.053015,453.848057 342.784358,454.837911 351.721791,455.796832 C351.845493,455.796832 352.000119,455.827765 352.123821,455.827765 C353.32991,455.827765 354.474149,455.24004 355.154507,454.250186 C355.834866,453.260332 356.020418,451.992081 355.587463,450.847562 L355.587463,450.847562 L355.587463,450.847562 C353.484537,445.155902 351.25791,439.804504 348.938507,434.824301 C354.814328,436.309082 361.215881,437.639198 368.297791,438.938382 C376.214687,440.361297 384.904716,441.66048 394.862687,442.928731 L394.862687,442.928731 C395.017313,442.959663 395.17194,442.959663 395.326567,442.959663 C396.718209,442.959663 397.955224,442.18634 398.604657,440.979955 C399.25409,439.742638 399.130388,438.28879 398.357254,437.175204 L398.357254,437.175204 C384.966567,418.027716 370.771821,402.220985 355.030806,388.950755 C360.257194,386.723583 365.390806,384.125217 370.679045,381.00099 C376.06006,377.814897 381.719403,374.010146 387.935403,369.370205 L387.935403,369.370205 L387.935403,369.370205 C388.95594,368.627815 389.481672,367.42143 389.419821,366.15318 C389.327045,364.884929 388.646687,363.771344 387.533373,363.183618 C379.80203,358.88394 371.885134,354.955457 363.968239,351.552833 C358.494448,349.20193 352.896955,347.036625 347.206687,345.056917 C351.19606,344.159861 354.93803,343.20094 358.494448,342.118288 C365.236179,340.076714 371.328478,337.694878 376.554866,335.003712 C377.544478,334.508785 378.255761,333.580797 378.472239,332.467211 C378.688716,331.353625 378.410388,330.24004 377.699104,329.373917 L377.699104,329.373917 L377.699104,329.373917 C373.957134,324.888641 370.30794,321.176689 366.442269,317.959663 C369.070925,316.815145 371.668657,315.577827 374.173612,314.309577 C377.699104,312.515466 381.193672,310.566691 384.502687,308.494185 C387.780776,306.452611 391.02794,304.256372 394.120478,301.936402 C397.18209,299.647365 400.212776,297.203662 403.088836,294.667162 L403.088836,294.667162 L403.088836,294.667162 C403.800119,294.01757 404.233075,293.151448 404.325851,292.192527 C404.387701,291.233606 404.109373,290.274684 403.490866,289.532294 C401.295164,286.902994 398.91391,284.397426 396.223403,281.891858 C394.367881,280.159614 392.419582,278.458302 390.254806,276.726058 C397.18209,272.086117 403.985672,267.136847 410.418149,261.940114 C417.623761,256.155655 424.612896,249.907201 431.230925,243.411284 L431.230925,243.411284 L431.230925,243.411284 C431.942209,242.73076 432.344239,241.771839 432.313313,240.781985 C432.313313,239.761198 431.911284,238.802277 431.2,238.090819 L431.2,238.090819 L431.2,238.090819 C428.293015,235.244989 425.107701,232.677555 421.70591,230.450384 C426.159164,226.521901 430.426866,222.067558 434.416239,217.211086 C438.993194,211.612225 443.322746,205.301905 447.312119,198.465726 L447.312119,198.465726 L447.312119,198.465726 C447.868776,197.537738 447.961552,196.39322 447.590448,195.372433 C447.219343,194.351646 446.415284,193.547389 445.425672,193.145261 L445.425672,193.145261 L445.425672,193.145261 C439.426149,190.887157 433.859582,189.309577 428.478567,188.350656 C430.519642,183.927246 432.313313,179.13264 433.921433,173.812175 C435.653254,168.151448 437.137672,161.96486 438.529313,154.881218 L438.498388,154.850285 L438.498388,154.850285 C438.714866,153.767632 438.436537,152.654046 437.725254,151.787924 C437.01397,150.921802 435.993433,150.457807 434.880119,150.457807 C434.570866,150.457807 434.261612,150.48874 433.983284,150.581539 L433.952358,150.581539 L433.952358,150.581539 C428.385791,152.035387 422.10794,154.107894 415.335284,156.737194 C410.263522,158.716902 405.006209,160.975006 399.71797,163.449641 C399.037612,160.572878 398.295403,157.603316 397.367642,154.633754 C395.945075,150.117545 394.367881,146.281861 392.450507,142.941104 C391.801075,141.796585 390.56406,141.085127 389.234269,141.085127 C388.430209,141.085127 387.688,141.332591 387.069493,141.796585 C381.100896,146.127196 375.410627,150.705271 370.153313,155.407077 C365.545433,159.521158 361.15403,163.851769 357.071881,168.306112 C356.175045,167.037862 355.216358,165.86241 354.195821,164.717892 C352.464,162.800049 350.484776,161.067805 348.381851,159.521158 L348.381851,159.521158 L348.381851,159.521158 C347.701493,159.057164 346.959284,158.809701 346.217075,158.809701 C345.103761,158.809701 344.052299,159.304628 343.37194,160.17075 C334.21803,171.492205 326.084657,180.71022 317.765731,189.123979 C312.724896,194.258847 307.560358,199.084385 302.457672,203.538728 C298.653851,206.848552 294.788179,210.003712 290.891582,212.973274 C296.272597,197.414006 303.54006,182.504331 310.652896,168.553576 L310.652896,168.553576 L310.652896,168.553576 C311.178627,167.532789 311.178627,166.357337 310.714746,165.33655 C310.250866,164.315763 309.323104,163.573373 308.209791,163.325909 L308.209791,163.325909 L308.209791,163.325909 C305.828537,162.800049 302.766925,162.366988 299.086806,162.057659 C303.323582,155.407077 307.28203,147.983172 310.900299,139.909676 C314.704119,131.464984 317.982209,122.618164 320.672716,113.616679 C321.012896,112.503093 320.796418,111.327642 320.11606,110.399654 C319.435701,109.471665 318.353313,108.945805 317.209075,108.945805 L317.054448,108.945805 L317.054448,108.945805 C309.075701,109.286068 299.921791,110.894581 291.912119,113.338283 C292.716179,107.244494 292.994507,100.624845 292.685254,93.5721356 C292.376,86.1791636 291.448239,78.2603316 289.963821,70.0631032 L289.963821,70.0631032 C289.654567,68.3308587 288.139224,67.0626083 286.345552,67.0626083 C285.912597,67.0626083 285.479642,67.1554071 285.077612,67.3100718 L285.077612,67.3100718 L285.077612,67.3100718 C280.036776,69.2279139 274.315582,71.9500124 268.656239,75.1670379 C268.841791,69.5991091 268.687164,63.7837169 268.161433,57.782727 C267.542925,50.7918832 266.398687,43.7701064 264.914269,37.5216531 L264.914269,37.5216531 L264.914269,37.5216531 C264.512239,35.8822074 263.058746,34.7376887 261.388776,34.7376887 L261.388776,34.7376887 C260.986746,34.7376887 260.584716,34.7995546 260.213612,34.9542193 L260.213612,34.9542193 C256.595343,36.2224697 252.265791,38.2949765 247.317731,41.1408067 C245.214806,35.3872804 242.524299,29.3862905 239.153433,22.8903737 C236.091821,16.9821826 232.535403,10.7646622 227.618269,2.72209849 C227.27809,2.16530562 226.783284,1.70131156 226.226627,1.39198218 C225.608119,0.989853997 224.989612,0.83518931 224.40203,0.83518931 L224.40203,0.83518931 L224.40203,0.83518931 Z" id="Shape" fill="#FFFFFF"></path>
                    <path d="M303.94209,251.670379 C300.725851,250.618659 297.447761,249.597872 294.231522,248.608018 L296.705552,241.276912 C306.168716,244.153675 315.631881,247.339767 324.909493,250.74239 L322.435463,258.073497 C319.250149,256.898045 316.03391,255.753526 312.848597,254.639941 L312.261015,254.454343 L299.921791,291.17174 C297.354985,290.274684 294.757254,289.408562 292.221373,288.573373 L304.560597,251.855976 L303.94209,251.670379 L303.94209,251.670379 Z M289.49994,302.585994 L312.848597,302.585994 L312.848597,310.195496 L297.447761,310.195496 L297.447761,319.011383 L307.931463,319.011383 L307.931463,326.620886 L297.447761,326.620886 L297.447761,335.436773 L312.848597,335.436773 L312.848597,343.015343 L289.49994,343.015343 L289.49994,302.585994 Z M285.325015,384.248948 L293.334687,384.248948 L293.334687,385.95026 C293.334687,387.311309 294.448,388.424895 295.808716,388.424895 L302.364896,388.424895 C303.725612,388.424895 304.838925,387.311309 304.838925,385.95026 L304.838925,383.444692 C304.838925,382.516704 304.189493,381.619649 303.509134,381.279386 C303.323582,381.186587 289.159761,374.876268 289.159761,374.876268 C286.469254,373.515219 285.29409,370.762188 285.29409,367.761693 L285.29409,363.585746 C285.29409,359.162336 288.912358,355.605048 293.365612,355.605048 L304.746149,355.605048 C309.199403,355.605048 312.817672,359.193269 312.817672,363.585746 L312.817672,367.328632 L304.808,367.328632 L304.808,365.62732 C304.808,364.266271 303.694687,363.183618 302.33397,363.183618 L295.777791,363.183618 C294.417075,363.183618 293.303761,364.297204 293.303761,365.658253 L293.303761,366.555308 C293.303761,367.483296 293.953194,368.380351 294.633552,368.720614 C294.819104,368.813413 308.982925,375.123732 308.982925,375.123732 C311.673433,376.484781 312.848597,379.237812 312.848597,382.238307 L312.848597,388.022767 C312.848597,392.446177 309.230328,396.003464 304.777075,396.003464 L293.396537,396.003464 C288.943284,396.003464 285.325015,392.415244 285.325015,388.022767 L285.325015,384.248948 L285.325015,384.248948 L285.325015,384.248948 L285.325015,384.248948 Z M271.965254,263.022767 L276.418507,236.698837 C279.109015,237.193764 281.768597,237.719624 284.397254,238.245484 L276.634985,284.057164 C274.53206,283.624103 272.429134,283.221975 270.295284,282.819847 C267.326448,274.034892 264.326687,265.126206 261.296,256.341252 L260.522866,254.083148 L256.069612,280.407077 C253.379104,279.974016 250.688597,279.602821 248.029015,279.231626 L255.791284,233.419946 C257.925134,233.729275 260.058985,234.007671 262.192836,234.347934 C265.192597,243.071022 268.223284,251.979708 271.192119,260.764662 L271.965254,263.022767 L271.965254,263.022767 Z M269.831403,372.030438 L269.831403,379.609008 L257.461254,379.609008 L257.461254,396.034397 L249.482507,396.034397 L249.482507,355.605048 L274.810388,355.605048 L274.810388,363.214551 L257.461254,363.214551 L257.461254,372.030438 L269.831403,372.030438 Z M256.719045,343.015343 L256.719045,302.585994 L264.63594,302.585994 L264.63594,335.436773 L279.263642,335.436773 L279.263642,343.015343 L256.719045,343.015343 Z M178.941731,152.808711 C189.889313,169.2341 204.207761,182.906459 221.464119,193.45459 C221.495045,193.485523 221.556896,193.45459 221.587821,193.423658 C221.587821,193.423658 221.618746,193.392725 221.618746,193.330859 C221.464119,180.803019 221.587821,168.089582 221.958925,155.561742 C221.958925,155.128681 221.773373,154.726553 221.433194,154.479089 C211.815403,147.11705 203.991284,137.899035 198.239164,127.072507 L198.455642,126.948775 C204.94997,136.940114 213.052418,145.508537 221.835224,151.726058 C221.928,151.787924 222.113552,151.726058 222.113552,151.571393 C222.268179,146.993318 222.422806,143.188567 222.608358,139.600346 C223.257791,129.114081 223.752597,118.225687 224.154627,107.213561 C224.154627,106.811433 224.030925,106.440238 223.783522,106.130908 C215.804776,96.5416976 209.681552,87.5402128 205.073672,78.6624598 L205.290149,78.538728 C210.856716,87.2308834 217.196418,95.335313 224.061851,102.57362 C224.092776,102.604553 224.154627,102.604553 224.154627,102.604553 C224.216478,102.604553 224.309254,102.542687 224.309254,102.449889 C224.834985,85.467706 225.020537,68.4545904 224.896836,51.8436031 L225.144239,51.8436031 C226.535881,67.4956694 227.185313,100.810443 226.690507,129.392477 C226.690507,129.454343 226.721433,129.516209 226.752358,129.547142 C226.814209,129.609008 226.93791,129.639941 226.999761,129.609008 C234.452776,125.927988 242.029493,120.731255 250.07009,113.647612 L250.255642,113.83321 C242.926328,121.690176 235.318687,127.783964 226.999761,132.454838 C226.783284,132.57857 226.628657,132.826033 226.628657,133.073497 C226.566806,135.579065 226.535881,137.868102 226.443104,140.033408 C225.700896,156.149468 225.700896,175.23509 226.412179,198.40386 C226.412179,198.558525 226.597731,198.620391 226.721433,198.558525 C245.647761,185.040831 259.811582,170.533284 268.841791,155.407077 L269.058269,155.530809 C261.69803,170.81168 246.297194,188.041326 226.814209,202.82727 C226.659582,202.951002 226.566806,203.1366 226.566806,203.322197 C226.690507,206.941351 226.845134,210.591438 226.999761,214.241524 C226.999761,214.334323 226.968836,214.427122 226.906985,214.519921 C226.845134,214.581787 226.752358,214.643653 226.628657,214.643653 L226.628657,214.643653 L226.628657,214.643653 L222.515582,214.643653 C222.33003,214.643653 222.175403,214.488988 222.144478,214.30339 C221.958925,209.13759 221.804299,203.817124 221.711522,198.063598 C221.711522,197.908933 221.618746,197.754269 221.495045,197.692403 C204.14591,186.680277 188.559522,170.378619 178.725254,152.963375 L178.941731,152.808711 L178.941731,152.808711 Z M192.456119,372.030438 L192.456119,379.609008 L180.08597,379.609008 L180.08597,388.424895 L197.435104,388.424895 L197.435104,396.034397 L172.076299,396.034397 L172.076299,355.605048 L197.435104,355.605048 L197.435104,363.214551 L180.08597,363.214551 L180.08597,372.030438 L192.456119,372.030438 Z M188.157493,335.436773 L186.456597,343.015343 L178.323224,343.015343 L188.250269,302.585994 L199.043224,302.585994 L209.001194,343.015343 L200.867821,343.015343 L199.166925,335.436773 L188.157493,335.436773 Z M218.000478,355.605048 L228.917134,355.605048 L239.833791,396.034397 L231.607642,396.034397 L229.690269,388.424895 L217.227343,388.424895 L215.279045,396.034397 L207.052896,396.034397 L218.000478,355.605048 Z M210.887642,269.704281 L210.887642,240.874783 C210.887642,235.956446 214.84609,231.904232 219.701373,231.842366 C221.587821,231.811433 223.474269,231.811433 225.391642,231.811433 C227.27809,231.811433 229.195463,231.811433 231.08191,231.842366 C235.937194,231.904232 239.895642,235.956446 239.895642,240.874783 L239.895642,269.704281 C239.895642,274.529819 236.091821,278.334571 231.08191,278.334571 C224.86591,278.272705 220.536358,278.334571 219.577672,278.334571 C214.691463,278.334571 210.887642,274.560752 210.887642,269.704281 L210.887642,269.704281 Z M236.710328,331.198961 L227.185313,331.198961 L227.185313,343.015343 L219.268418,343.015343 L219.268418,302.585994 L236.710328,302.585994 C241.132657,302.585994 244.689075,306.143281 244.689075,310.566691 L244.689075,323.218263 C244.689075,327.641673 241.132657,331.198961 236.710328,331.198961 L236.710328,331.198961 Z M187.600836,234.502598 C188.033791,234.440732 188.466746,234.4098 188.899701,234.4098 C193.229254,234.4098 197.033075,237.657758 197.744358,241.988369 L200.125612,256.712447 C200.744119,260.609998 198.641194,264.445682 194.992,265.992329 L194.311642,266.301658 L194.744597,266.920317 C197.620657,271.003464 200.496716,275.117545 203.403701,279.231626 C200.775045,279.571888 198.146388,279.943083 195.486806,280.345212 C192.548896,276.200198 189.610985,272.055184 186.704,267.972037 L186.487522,267.662707 L186.116418,267.724573 C185.003104,267.910171 183.858866,268.095768 182.745552,268.281366 L182.15797,268.374165 L184.384597,282.139322 C181.725015,282.603316 179.034507,283.098243 176.374925,283.59317 L168.952836,237.719624 C175.106985,236.482306 181.384836,235.430586 187.600836,234.502598 L187.600836,234.502598 Z M161.561672,388.424895 L161.561672,396.034397 L137.903761,396.034397 L137.903761,355.605048 L145.913433,355.605048 L145.913433,388.424895 L161.561672,388.424895 Z M160.139104,343.015343 L160.139104,324.362781 L152.995343,340.540708 L145.851582,324.362781 L145.851582,343.015343 L137.903761,343.015343 L137.903761,302.585994 L144.212537,302.585994 L152.995343,322.847068 L161.747224,302.585994 L168.056,302.585994 L168.056,343.015343 L160.139104,343.015343 Z M81.7432836,227.449889 C81.6195821,227.295224 81.4340299,227.233358 81.2484776,227.233358 L80.0423881,227.233358 C68.1361194,227.233358 57.4050149,224.20193 47.1996418,217.953477 L47.3233433,217.736946 C56.9720597,222.345954 66.0022687,224.573125 74.9397015,224.573125 C76.2076418,224.573125 77.5065075,224.51126 78.7744478,224.418461 C76.5478209,222.191289 74.5067463,220.211581 72.5893731,218.417471 C59.569791,205.796832 48.8386866,194.351646 39.7466269,183.525118 L39.9321791,183.370453 C50.7251343,194.660975 60.1264478,203.971789 68.6309254,211.797822 L68.7546269,211.735956 C69.929791,204.559515 69.342209,197.785202 66.9918806,191.041821 L67.2083582,190.949023 C70.5792239,197.878 71.9399403,205.487503 71.2595821,213.530067 C71.2286567,213.839396 71.3523582,214.148726 71.5997612,214.365256 C79.3001791,221.139569 86.5676418,227.975749 93.2475224,234.62633 C93.2784478,234.62633 93.2784478,234.62633 93.2784478,234.595397 C93.2784478,225.160851 90.7425672,216.716159 85.4543284,208.766394 L85.6398806,208.61173 C92.6290149,216.778025 96.278209,226.460035 96.4637612,237.348429 C96.4637612,237.657758 96.5874627,237.967087 96.8039403,238.183618 C97.855403,239.266271 98.9068657,240.348924 99.8964776,241.400643 C99.9583284,241.462509 99.9892537,241.586241 99.9892537,241.67904 C100.020179,241.802772 99.9583284,241.89557 99.8655522,241.957436 L97.0513433,243.287553 C96.9894925,243.287553 96.9585672,243.318486 96.8967164,243.318486 C96.8039403,243.318486 96.6802388,243.287553 96.6183881,243.194754 C90.9281194,236.977233 86.0419104,231.811433 81.7432836,227.449889 L81.7432836,227.449889 Z M119.781493,305.029696 L101.999403,270.632269 L101.442746,270.910666 C98.4429851,272.488245 95.4432239,274.127691 92.4743881,275.767137 L88.9179701,268.900025 C97.5461493,264.105419 106.421731,259.496412 115.328239,255.227666 L118.884657,262.094779 C115.823045,263.548627 112.761433,265.064341 109.730746,266.610987 L109.205015,266.889384 L127.01803,301.28681 C124.605851,302.524128 122.162746,303.761445 119.781493,305.029696 L119.781493,305.029696 Z M133.852537,247.89656 C137.408955,246.659243 141.027224,245.421925 144.614567,244.246474 C145.480478,243.968077 146.408239,243.813413 147.305075,243.813413 C151.108896,243.813413 154.634388,246.349913 155.840478,249.969067 L165.087164,277.282851 C165.829373,279.479089 165.674746,281.829993 164.654209,283.871566 C163.633672,285.975006 161.809075,287.521653 159.551522,288.264044 C155.964179,289.439495 152.314985,290.676813 148.758567,291.91413 C147.799881,292.254392 146.810269,292.43999 145.789731,292.43999 C142.109612,292.43999 138.831522,290.089087 137.656358,286.593665 L128.409672,259.279881 C126.832478,254.609008 129.275582,249.505073 133.852537,247.89656 L133.852537,247.89656 Z M282.82006,428.173719 C277.995701,428.173719 273.542448,427.709725 269.336597,426.998268 C269.274746,426.998268 269.212896,427.060134 269.274746,427.122 C273.387821,431.112348 281.583045,435.195496 286.221851,437.020539 L288.417552,437.886662 L286.098149,437.484534 C280.686209,436.587478 269.367522,431.205147 263.213373,425.853749 C263.151522,425.791883 263.058746,425.76095 262.96597,425.730017 C252.884299,423.44098 244.256119,420.378619 235.62794,420.378619 C224.40203,420.378619 216.237731,422.946053 212.186507,434.112843 C211.97003,431.607275 212.217433,429.380104 212.805015,427.431329 C212.83594,427.33853 212.805015,427.276664 212.743164,427.214798 C210.547463,425.76095 202.228537,420.59515 193.971463,420.59515 C181.570388,420.59515 165.612896,434.514972 153.366448,435.937887 C159.304119,433.927246 165.953075,429.472903 172.663881,425.389755 C172.725731,425.358822 172.694806,425.266023 172.632955,425.23509 C161.314269,423.007919 147.088597,425.451621 131.997015,429.287305 C146.439164,423.688443 161.221493,420.687949 176.622328,422.976986 C176.715104,422.976986 176.776955,422.976986 176.838806,422.91512 C182.621851,419.636229 188.37397,417.099728 193.631284,417.099728 C203.403701,417.099728 211.815403,422.17273 214.351284,423.843108 C214.413134,423.874041 214.50591,423.874041 214.536836,423.812175 C218.433433,418.089582 226.47403,415.769611 234.916657,415.769611 C248.307343,415.769611 268.934567,425.699084 285.386866,425.699084 C303.416358,425.699084 308.54997,424.059639 313.930985,422.91512 C308.859224,424.956694 300.787701,428.173719 282.82006,428.173719 L282.82006,428.173719 Z M357.257433,276.478594 L344.021373,302.091067 C342.536955,304.96783 339.62997,306.76194 336.382806,306.76194 C334.960239,306.76194 333.506746,306.390745 332.238806,305.71022 C328.898866,303.91611 325.497075,302.183865 322.126209,300.482554 C319.992358,299.430834 318.415164,297.605791 317.703881,295.378619 C316.992597,293.182381 317.178149,290.86241 318.260537,288.789903 L331.496597,263.177431 C333.042866,260.207869 336.197254,258.290027 339.537194,258.290027 C340.928836,258.290027 342.227701,258.599357 343.464716,259.218015 C346.835582,260.919327 350.237373,262.651571 353.546388,264.445682 C357.845015,266.703786 359.514985,272.086117 357.257433,276.478594 L357.257433,276.478594 Z M363.844537,229.398664 C365.019701,229.46053 366.225791,229.522395 367.400955,229.522395 C375.627104,229.522395 383.605851,227.697352 392.512358,223.737936 L392.63606,223.954467 C383.482149,229.553328 373.184,232.368226 361.215881,232.491957 C360.844776,232.491957 360.473672,232.646622 360.226269,232.925019 C356.793552,236.513239 353.824716,239.668399 351.134209,242.637961 C351.041433,242.73076 350.948657,242.792626 350.824955,242.792626 C350.763104,242.792626 350.701254,242.761693 350.639403,242.73076 L347.763343,241.245979 C347.670567,241.184113 347.608716,241.122247 347.608716,240.998515 C347.577791,240.905716 347.608716,240.812918 347.701493,240.720119 C354.968955,233.203415 362.916776,225.593912 371.359403,218.077209 C371.606806,217.860678 371.761433,217.520416 371.730507,217.180153 C371.050149,208.147736 372.008836,200.197971 374.668418,192.866865 L374.915821,192.928731 C373.431403,200.476367 373.184,208.209602 374.235463,215.293244 C374.235463,215.35511 374.297313,215.386043 374.328239,215.386043 C374.359164,215.386043 374.39009,215.386043 374.39009,215.35511 C385.523224,204.806978 395.852299,194.722841 405.995821,184.514972 L406.181373,184.669636 C397.615045,194.691908 388.275582,204.837911 378.410388,214.798317 C373.555104,219.407325 368.63797,224.263796 363.813612,229.213066 C363.782687,229.243999 363.782687,229.305865 363.782687,229.305865 C363.782687,229.336798 363.813612,229.398664 363.844537,229.398664 L363.844537,229.398664 Z" id="Shape" fill="#00205B"></path>
                    <path d="M148.016358,283.778768 L148.016358,283.778768 C148.418388,283.778768 148.789493,283.716902 149.160597,283.59317 C150.799642,283.005444 152.469612,282.448651 154.139582,281.891858 C155.036418,281.582529 155.747701,280.96387 156.180657,280.128681 C156.582687,279.293492 156.644537,278.334571 156.366209,277.468448 L148.665791,254.763672 C148.170985,253.309824 146.841194,252.350903 145.325851,252.350903 C144.954746,252.350903 144.583642,252.412769 144.212537,252.536501 C142.542567,253.093294 140.872597,253.650087 139.202627,254.237812 C137.37803,254.856471 136.419343,256.867112 137.037851,258.692155 L144.738269,281.396931 C145.202149,282.819847 146.53194,283.778768 148.016358,283.778768 L148.016358,283.778768 Z" id="Shape" fill="#00205B"></path>
                    <path d="M221.495045,197.630537 C221.618746,197.723336 221.711522,197.847068 221.711522,198.001732 C221.804299,203.755259 221.958925,209.075724 222.144478,214.241524 C222.144478,214.427122 222.299104,214.581787 222.515582,214.581787 L226.628657,214.581787 L226.628657,214.581787 L226.628657,214.581787 C226.721433,214.581787 226.814209,214.550854 226.906985,214.458055 C226.968836,214.396189 227.030687,214.272457 226.999761,214.179659 C226.845134,210.560505 226.690507,206.879485 226.566806,203.260332 C226.566806,203.074734 226.659582,202.889136 226.814209,202.765405 C246.297194,188.010393 261.69803,170.780747 269.058269,155.468943 L268.841791,155.345212 C259.811582,170.471418 245.616836,184.978966 226.721433,198.496659 C226.597731,198.558525 226.412179,198.496659 226.412179,198.341995 C225.66997,175.204157 225.700896,156.118535 226.443104,139.971542 C226.504955,137.806236 226.566806,135.517199 226.628657,133.011631 C226.628657,132.764167 226.783284,132.516704 226.999761,132.392972 C235.318687,127.722098 242.926328,121.62831 250.255642,113.771344 L250.07009,113.709478 C241.998567,120.762188 234.452776,125.989854 226.999761,129.670874 C226.906985,129.701806 226.814209,129.701806 226.752358,129.609008 C226.721433,129.578075 226.690507,129.516209 226.690507,129.454343 C227.185313,100.872309 226.535881,67.5575353 225.144239,51.9054689 L224.896836,51.9054689 C225.051463,68.5164563 224.834985,85.5295719 224.309254,102.511755 C224.309254,102.604553 224.216478,102.666419 224.154627,102.666419 C224.154627,102.666419 224.092776,102.666419 224.061851,102.635486 C217.196418,95.366246 210.887642,87.2927493 205.290149,78.6005939 L205.073672,78.7243257 C209.681552,87.6020787 215.804776,96.6035635 223.783522,106.192774 C224.030925,106.502103 224.154627,106.873299 224.154627,107.275427 C223.783522,118.287553 223.257791,129.175947 222.608358,139.662212 C222.422806,143.250433 222.268179,147.055184 222.113552,151.633259 C222.113552,151.787924 221.928,151.84979 221.835224,151.787924 C213.052418,145.53947 204.980896,136.971047 198.455642,127.010641 L198.239164,127.134373 C204.022209,137.960901 211.815403,147.178916 221.433194,154.540955 C221.773373,154.788419 221.958925,155.190547 221.958925,155.623608 C221.587821,168.151448 221.464119,180.833952 221.618746,193.392725 C221.618746,193.423658 221.587821,193.45459 221.587821,193.485523 C221.556896,193.516456 221.495045,193.516456 221.464119,193.516456 C204.207761,182.906459 189.889313,169.2341 178.941731,152.808711 L178.725254,152.932442 C188.559522,170.347686 204.14591,186.618411 221.495045,197.630537 L221.495045,197.630537 Z M96.8967164,243.318486 C96.9585672,243.318486 97.0204179,243.318486 97.0513433,243.287553 L99.8655522,241.957436 C99.9583284,241.89557 100.020179,241.833705 100.051104,241.709973 C100.08203,241.617174 100.051104,241.493442 99.9583284,241.431576 C98.9687164,240.379856 97.9172537,239.328137 96.865791,238.245484 C96.6183881,237.99802 96.4946866,237.719624 96.4946866,237.379362 C96.3091343,226.460035 92.6599403,216.808958 85.670806,208.642663 L85.4852537,208.797327 C90.7734925,216.747092 93.3093731,225.191784 93.3093731,234.62633 C93.3093731,234.657263 93.2784478,234.657263 93.2784478,234.657263 C86.5985672,227.975749 79.3001791,221.139569 71.6306866,214.365256 C71.3832836,214.148726 71.2595821,213.839396 71.2905075,213.530067 C71.9399403,205.487503 70.5792239,197.878 67.2083582,190.949023 L66.9918806,191.041821 C69.342209,197.785202 69.929791,204.559515 68.7546269,211.735956 L68.6309254,211.766889 C60.1264478,203.940856 50.7560597,194.660975 39.9321791,183.33952 L39.7466269,183.525118 C48.8386866,194.351646 59.569791,205.796832 72.5584478,218.479337 C74.4758209,220.273447 76.4859701,222.222222 78.7435224,224.480327 C77.4755821,224.542193 76.1767164,224.604058 74.9087761,224.604058 C65.9713433,224.604058 56.9411343,222.376887 47.2924179,217.767879 L47.1996418,217.98441 C57.4050149,224.232863 68.1361194,227.264291 80.0423881,227.264291 L81.2484776,227.264291 C81.4340299,227.264291 81.6195821,227.326157 81.7432836,227.449889 C86.0419104,231.842366 90.9281194,236.977233 96.6183881,243.194754 C96.6802388,243.25662 96.7730149,243.318486 96.8967164,243.318486 L96.8967164,243.318486 Z M378.379463,214.82925 C388.244657,204.837911 397.584119,194.722841 406.150448,184.700569 L405.964896,184.545904 C395.821373,194.753774 385.461373,204.837911 374.359164,215.386043 C374.328239,215.416976 374.297313,215.416976 374.297313,215.416976 C374.266388,215.416976 374.204537,215.386043 374.204537,215.324177 C373.153075,208.240535 373.400478,200.5073 374.884896,192.959663 L374.637493,192.897798 C371.97791,200.228904 371.019224,208.178669 371.699582,217.211086 C371.730507,217.551349 371.575881,217.891611 371.328478,218.108142 C362.885851,225.655778 354.93803,233.265281 347.670567,240.751052 C347.608716,240.812918 347.577791,240.936649 347.577791,241.029448 C347.608716,241.122247 347.639642,241.215046 347.732418,241.276912 L350.608478,242.761693 C350.670328,242.792626 350.732179,242.823559 350.79403,242.823559 C350.917731,242.823559 351.041433,242.761693 351.103284,242.668894 C353.793791,239.730265 356.762627,236.544172 360.195343,232.955951 C360.442746,232.677555 360.813851,232.52289 361.184955,232.52289 C373.153075,232.368226 383.420299,229.584261 392.605134,223.9854 L392.481433,223.768869 C383.544,227.697352 375.565254,229.553328 367.37003,229.553328 C366.194866,229.553328 365.019701,229.522395 363.813612,229.429597 C363.751761,229.429597 363.720836,229.367731 363.720836,229.367731 C363.720836,229.336798 363.68991,229.305865 363.751761,229.274932 C368.607045,224.294729 373.524179,219.438258 378.379463,214.82925 L378.379463,214.82925 Z M234.916657,415.738679 C226.443104,415.738679 218.433433,418.058649 214.536836,423.781242 C214.50591,423.843108 214.413134,423.874041 214.351284,423.812175 C211.815403,422.141797 203.403701,417.068795 193.631284,417.068795 C188.37397,417.068795 182.621851,419.636229 176.838806,422.884187 C176.776955,422.91512 176.684179,422.946053 176.622328,422.946053 C161.221493,420.687949 146.47009,423.657511 131.997015,429.256372 C147.088597,425.451621 161.314269,423.007919 172.632955,425.204157 C172.694806,425.204157 172.725731,425.296956 172.663881,425.358822 C165.953075,429.44197 159.304119,433.896313 153.366448,435.906954 C165.612896,434.484039 181.570388,420.564217 193.971463,420.564217 C202.228537,420.564217 210.547463,425.730017 212.743164,427.183865 C212.805015,427.245731 212.83594,427.307597 212.805015,427.400396 C212.186507,429.349171 211.97003,431.54541 212.186507,434.08191 C216.206806,422.91512 224.40203,420.347686 235.62794,420.347686 C244.256119,420.347686 252.884299,423.410047 262.96597,425.699084 C263.058746,425.730017 263.151522,425.76095 263.213373,425.822816 C269.367522,431.174214 280.686209,436.556545 286.098149,437.453601 L288.417552,437.855729 L286.221851,436.989607 C281.61397,435.195496 273.418746,431.112348 269.274746,427.091067 C269.212896,427.029201 269.274746,426.967335 269.336597,426.967335 C273.542448,427.678792 277.995701,428.142786 282.82006,428.142786 C300.756776,428.142786 308.859224,424.925761 313.930985,422.853254 C308.519045,423.997773 303.385433,425.637219 285.386866,425.637219 C268.965493,425.668151 248.307343,415.738679 234.916657,415.738679 L234.916657,415.738679 Z M109.761672,266.610987 C112.792358,265.095273 115.85397,263.57956 118.915582,262.094779 L115.328239,255.227666 C106.421731,259.496412 97.5461493,264.105419 88.9179701,268.900025 L92.4743881,275.767137 C95.4432239,274.127691 98.4429851,272.488245 101.442746,270.910666 L101.999403,270.632269 L119.812418,305.029696 C122.193672,303.761445 124.605851,302.524128 127.01803,301.28681 L109.205015,266.889384 L109.761672,266.610987 L109.761672,266.610987 Z M145.789731,292.43999 C146.779343,292.43999 147.799881,292.254392 148.758567,291.91413 C152.314985,290.64588 155.964179,289.439495 159.551522,288.264044 C161.809075,287.521653 163.633672,285.975006 164.685134,283.871566 C165.705672,281.829993 165.860299,279.479089 165.11809,277.282851 L155.871403,249.969067 C154.634388,246.349913 151.108896,243.813413 147.305075,243.813413 C146.377313,243.813413 145.480478,243.968077 144.614567,244.246474 C141.027224,245.421925 137.408955,246.659243 133.852537,247.89656 C129.275582,249.505073 126.801552,254.609008 128.409672,259.279881 L137.656358,286.593665 C138.831522,290.089087 142.109612,292.43999 145.789731,292.43999 L145.789731,292.43999 Z M139.202627,254.237812 C140.872597,253.650087 142.511642,253.093294 144.181612,252.536501 C144.552716,252.412769 144.923821,252.350903 145.294925,252.350903 C146.810269,252.350903 148.170985,253.309824 148.634866,254.763672 L156.335284,277.468448 C156.644537,278.365504 156.582687,279.293492 156.149731,280.128681 C155.778627,280.96387 155.036418,281.582529 154.139582,281.891858 C152.500537,282.448651 150.830567,283.005444 149.160597,283.562237 C148.789493,283.685969 148.418388,283.747835 148.016358,283.747835 L148.016358,283.747835 C146.53194,283.747835 145.202149,282.788914 144.707343,281.396931 L137.037851,258.692155 C136.419343,256.867112 137.37803,254.856471 139.202627,254.237812 L139.202627,254.237812 Z M231.08191,278.334571 C236.060896,278.334571 239.895642,274.560752 239.895642,269.704281 L239.895642,240.874783 C239.895642,235.956446 235.937194,231.904232 231.08191,231.842366 C229.195463,231.811433 227.309015,231.811433 225.391642,231.811433 C223.505194,231.811433 221.618746,231.811433 219.701373,231.842366 C214.84609,231.904232 210.887642,235.956446 210.887642,240.874783 L210.887642,269.704281 C210.887642,274.529819 214.722388,278.334571 219.577672,278.334571 C220.505433,278.334571 224.834985,278.272705 231.08191,278.334571 L231.08191,278.334571 Z M219.237493,243.101955 C219.237493,241.15318 220.814687,239.5756 222.73206,239.5756 L227.989373,239.5756 C229.906746,239.5756 231.48394,241.184113 231.48394,243.101955 L231.48394,267.074981 C231.48394,268.992824 229.906746,270.570403 227.989373,270.570403 L222.73206,270.570403 C220.783761,270.570403 219.206567,269.023756 219.206567,267.074981 L219.206567,243.101955 L219.237493,243.101955 L219.237493,243.101955 Z M217.227343,388.424895 L229.690269,388.424895 L231.607642,396.034397 L239.833791,396.034397 L228.886209,355.605048 L218.000478,355.605048 L207.052896,396.034397 L215.279045,396.034397 L217.227343,388.424895 L217.227343,388.424895 Z M223.443343,363.987874 L227.74197,380.846325 L219.144716,380.846325 L223.443343,363.987874 L223.443343,363.987874 Z M244.689075,323.218263 L244.689075,310.566691 C244.689075,306.143281 241.101731,302.585994 236.710328,302.585994 L219.268418,302.585994 L219.268418,343.015343 L227.185313,343.015343 L227.185313,331.198961 L236.710328,331.198961 C241.132657,331.198961 244.689075,327.641673 244.689075,323.218263 L244.689075,323.218263 Z M236.803104,321.145756 C236.803104,322.506805 235.689791,323.589458 234.36,323.589458 L227.216239,323.589458 L227.216239,310.164563 L234.36,310.164563 C235.720716,310.164563 236.803104,311.278149 236.803104,312.608265 L236.803104,321.114823 L236.803104,321.114823 L236.803104,321.145756 Z M137.903761,355.605048 L137.903761,396.034397 L161.561672,396.034397 L161.561672,388.424895 L145.913433,388.424895 L145.913433,355.605048 L137.903761,355.605048 Z M168.056,302.585994 L161.747224,302.585994 L152.995343,322.847068 L144.212537,302.585994 L137.903761,302.585994 L137.903761,343.015343 L145.851582,343.015343 L145.851582,324.362781 L152.995343,340.540708 L160.139104,324.362781 L160.139104,343.015343 L168.056,343.015343 L168.056,302.585994 Z M184.353672,282.108389 L182.127045,268.343232 L182.714627,268.250433 C183.82794,268.064835 184.972179,267.879238 186.085493,267.69364 L186.456597,267.631774 L186.673075,267.941104 C189.610985,272.055184 192.51797,276.200198 195.455881,280.314279 C198.084537,279.91215 200.744119,279.540955 203.341851,279.200693 C200.465791,275.086612 197.558806,270.972532 194.682746,266.889384 L194.249791,266.270725 L194.930149,265.961396 C198.579343,264.414749 200.713194,260.579065 200.063761,256.681514 L197.682507,241.957436 C196.971224,237.626825 193.167403,234.378867 188.837851,234.378867 C188.404896,234.378867 187.97194,234.4098 187.538985,234.471665 C181.322985,235.399654 175.045134,236.482306 168.86006,237.657758 L176.282149,283.531304 C179.003582,283.06731 181.69409,282.572383 184.353672,282.108389 L184.353672,282.108389 Z M178.756179,243.751547 C181.199284,243.318486 183.642388,242.916357 186.054567,242.545162 C187.97194,242.235833 189.765612,243.596882 190.074866,245.483791 L191.682985,255.382331 C191.837612,256.310319 191.621134,257.238307 191.064478,257.980698 C190.507821,258.723088 189.703761,259.218015 188.776,259.37268 C186.332896,259.743875 183.920716,260.146003 181.477612,260.579065 L180.859104,260.671863 L178.137672,243.844345 L178.756179,243.751547 L178.756179,243.751547 Z M200.867821,343.015343 L209.001194,343.015343 L199.043224,302.585994 L188.250269,302.585994 L178.292299,343.015343 L186.425672,343.015343 L188.126567,335.40584 L199.105075,335.40584 L200.867821,343.015343 L200.867821,343.015343 Z M189.858388,327.82727 L193.631284,310.96882 L197.404179,327.82727 L189.858388,327.82727 L189.858388,327.82727 Z M274.810388,363.214551 L274.810388,355.605048 L249.482507,355.605048 L249.482507,396.034397 L257.461254,396.034397 L257.461254,379.609008 L269.831403,379.609008 L269.831403,372.030438 L257.461254,372.030438 L257.461254,363.214551 L274.810388,363.214551 Z M255.822209,233.389013 L248.05994,279.200693 C250.719522,279.571888 253.41003,279.974016 256.100537,280.376145 L260.553791,254.052215 L261.326925,256.310319 C264.326687,265.095273 267.357373,274.003959 270.326209,282.788914 C272.429134,283.191042 274.562985,283.59317 276.66591,284.026231 L284.428179,238.214551 C281.799522,237.688691 279.13994,237.162831 276.449433,236.667904 L271.996179,262.991834 L271.223045,260.702796 C268.254209,251.917842 265.254448,243.009156 262.223761,234.286068 C260.08991,233.976738 257.95606,233.667409 255.822209,233.389013 L255.822209,233.389013 Z M293.396537,396.034397 L304.777075,396.034397 C309.230328,396.034397 312.848597,392.446177 312.848597,388.0537 L312.848597,382.26924 C312.848597,379.268745 311.673433,376.515714 308.982925,375.154665 C308.982925,375.154665 294.819104,368.844345 294.633552,368.751547 C293.953194,368.380351 293.303761,367.483296 293.303761,366.586241 L293.303761,365.689186 C293.303761,364.328137 294.417075,363.214551 295.777791,363.214551 L302.33397,363.214551 C303.694687,363.214551 304.808,364.328137 304.808,365.658253 L304.808,367.359564 L312.817672,367.359564 L312.817672,363.616679 C312.817672,359.193269 309.199403,355.635981 304.746149,355.635981 L293.365612,355.635981 C288.912358,355.635981 285.29409,359.224202 285.29409,363.616679 L285.29409,367.792626 C285.29409,370.793121 286.469254,373.546152 289.159761,374.907201 C289.159761,374.907201 303.323582,381.21752 303.509134,381.310319 C304.189493,381.681514 304.838925,382.57857 304.838925,383.475625 L304.838925,385.981193 C304.838925,387.342242 303.725612,388.455828 302.364896,388.455828 L295.808716,388.455828 C294.448,388.455828 293.334687,387.342242 293.334687,385.981193 L293.334687,384.279881 L285.325015,384.279881 L285.325015,388.0537 C285.325015,392.446177 288.943284,396.034397 293.396537,396.034397 L293.396537,396.034397 Z M312.848597,335.436773 L297.447761,335.436773 L297.447761,326.620886 L307.931463,326.620886 L307.931463,319.011383 L297.447761,319.011383 L297.447761,310.195496 L312.848597,310.195496 L312.848597,302.585994 L289.49994,302.585994 L289.49994,343.015343 L312.848597,343.015343 L312.848597,335.436773 Z M279.263642,335.436773 L264.63594,335.436773 L264.63594,302.585994 L256.719045,302.585994 L256.719045,343.015343 L279.263642,343.015343 L279.263642,335.436773 Z M299.890866,291.17174 L312.23009,254.454343 L312.817672,254.639941 C316.002985,255.753526 319.219224,256.898045 322.404537,258.073497 L324.878567,250.74239 C315.600955,247.339767 306.137791,244.122742 296.674627,241.276912 L294.200597,248.608018 C297.416836,249.597872 300.694925,250.618659 303.911164,251.670379 L304.498746,251.855976 L292.159522,288.573373 C294.757254,289.408562 297.32406,290.274684 299.890866,291.17174 L299.890866,291.17174 Z M197.435104,363.214551 L197.435104,355.605048 L172.076299,355.605048 L172.076299,396.034397 L197.435104,396.034397 L197.435104,388.424895 L180.08597,388.424895 L180.08597,379.609008 L192.456119,379.609008 L192.456119,372.030438 L180.08597,372.030438 L180.08597,363.214551 L197.435104,363.214551 Z M353.546388,264.414749 C350.237373,262.651571 346.835582,260.888394 343.464716,259.187082 C342.227701,258.568424 340.928836,258.259094 339.537194,258.259094 C336.166328,258.259094 333.01194,260.176936 331.496597,263.146498 L318.260537,288.758971 C317.209075,290.831477 316.992597,293.151448 317.703881,295.347686 C318.415164,297.574858 319.992358,299.399901 322.126209,300.451621 C325.497075,302.152932 328.898866,303.885177 332.238806,305.679287 C333.537672,306.359812 334.960239,306.731007 336.382806,306.731007 C339.599045,306.731007 342.536955,304.936897 344.021373,302.060134 L357.257433,276.447661 C359.514985,272.086117 357.845015,266.703786 353.546388,264.414749 L353.546388,264.414749 Z M348.814806,274.622618 L337.805373,295.904479 C337.217791,297.079931 336.011701,297.791388 334.712836,297.791388 C334.156179,297.791388 333.599522,297.667657 333.073791,297.38926 C331.527522,296.585004 329.950328,295.780747 328.40406,294.976491 C327.569075,294.54343 326.950567,293.831972 326.672239,292.934917 C326.39391,292.037862 326.455761,291.109874 326.888716,290.274684 L337.898149,268.992824 C338.516657,267.817372 339.722746,267.074981 341.052537,267.074981 C341.609194,267.074981 342.165851,267.198713 342.629731,267.446177 C344.206925,268.250433 345.753194,269.054689 347.299463,269.858946 C349.031284,270.756001 349.711642,272.890374 348.814806,274.622618 L348.814806,274.622618 Z" id="Shape" fill="#FFFFFF"></path>
                </g>
            </g>
        </g>
    </g>
</svg>