<?xml version="1.0" encoding="UTF-8" standalone="no"?>
<svg  viewBox="0 0 500 500" version="1.1" xmlns="http://www.w3.org/2000/svg" xmlns:xlink="http://www.w3.org/1999/xlink">
    <!-- Generator: Sketch 39.1 (31720) - http://www.bohemiancoding.com/sketch -->
    <title>PIT</title>
    <desc>Created with Sketch.</desc>
    <defs></defs>
    <g id="Page-1" stroke="none" stroke-width="1" fill="none" fill-rule="evenodd">
        <g id="PIT">
            <g id="download-(1)" transform="translate(0.000000, 17.000000)">
                <g id="Group">
                    <path d="M407.220238,173.822252 L418.452381,177.534945 L418.389456,184.771551 C412.411565,184.551307 407.597789,183.41862 407.597789,200.912328 C407.597789,213.969682 410.083333,218.185792 410.083333,221.867022 C410.083333,228.128259 409.548469,229.638507 389.915816,229.638507 C389.915816,229.638507 386.832483,225.89435 376.103741,221.741168 C376.103741,221.741168 375.883503,220.734336 375.443027,218.909453 L458.598639,74.2717263 L433.397109,74.2717263 C435.284864,70.6848869 433.428571,64.7382847 428.772109,60.0502226 C423.423469,54.7328905 416.470238,53.0653248 413.229592,56.3060657 C411.75085,57.7848504 411.278912,60.0187591 411.719388,62.5358394 L401.39966,73.3907482 C401.651361,71.754646 402.217687,63.133646 385.982993,58.4770474 C381.106293,48.7862883 376.984694,36.6728394 367.262755,36.6728394 C359.302721,36.6728394 352.412415,42.7138321 352.412415,42.7138321 C352.412415,42.7138321 322.711735,15.0574124 293.829082,15.0574124 C268.721939,15.0574124 234.144558,39.6618723 218.885204,39.6618723 C202.65051,39.6618723 188.272109,0.332492701 165.461735,0.332492701 C153.159864,0.332492701 138.687075,10.1805693 123.081633,19.7140109 C107.47619,29.1845255 104.581633,40.7945584 100.77466,50.2965365 C98.2576531,56.5892372 90.2661565,65.0529197 80.9532313,74.2402628 L9.06122449,74.2402628 L155.142007,328.276591 C154.040816,328.496836 152.971088,328.62269 151.964286,328.62269 L43.1037415,328.62269 L22.9991497,364.805719 L151.901361,364.805719 C157.37585,364.805719 164.895408,361.533515 168.607993,357.474723 L170.653061,355.272277 L233.861395,465.205759 L292.287415,363.610106 L341.557823,363.610106 L341.557823,353.353004 L329.727891,353.353004 L327.651361,346.777131 L329.444728,346.777131 L337.971088,342.81273 C337.971088,332.964653 326.109694,319.120712 326.109694,319.120712 L324.159014,308.077022 L340.362245,279.94865 L415.872449,252.071985 C429.244048,247.132215 430.754252,227.624843 430.754252,227.624843 C430.754252,227.624843 443.056122,233.414128 449.789116,218.406036 C449.789116,218.406036 463.443878,222.779464 470.837585,222.779464 C477.255952,222.779464 486.254252,219.318478 486.254252,209.659182 C486.254252,209.659182 496.133503,203.71258 499.405612,193.549869 L410.460884,164.068566 L407.220238,173.822252 L407.220238,173.822252 Z" id="Shape" fill="#000000"></path>
                    <g transform="translate(0.000000, 80.784672)" id="Shape" fill="#FCB514">
                        <path d="M294.489796,187.616872 C294.489796,186.075161 271.364796,179.939777 262.272109,176.447328 C253.903061,179.719533 264.72619,181.387099 264.72619,192.17908 C264.72619,198.566172 261.579932,206.054485 261.579932,206.054485 L256.986395,207.375953 C256.986395,207.375953 247.767857,224.366245 241.884354,221.849164 C233.420918,236.731401 229.991497,240.12946 216.556973,240.12946 C212.246599,240.12946 208.471088,238.902383 205.136054,236.794328 L175.87585,268.698321 L233.798469,369.475923 L283.666667,282.793971 L247.79932,282.793971 C247.79932,273.543701 253.682823,265.960996 253.682823,265.960996 C253.682823,251.236077 262.744048,248.152653 269.508503,247.523383 C283.792517,246.264843 289.644558,247.49192 289.644558,240.507022 C289.644558,235.567252 289.204082,229.71504 289.204082,229.71504 L294.489796,229.71504 C294.489796,210.490839 289.078231,205.771314 289.078231,195.986164 C289.078231,192.210544 294.489796,190.637369 294.489796,187.616872 L294.489796,187.616872 Z M317.457483,224.051609 L328.658163,204.512774 L316.136054,210.648157 L317.457483,224.051609 Z M355.055272,25.737146 L352.412415,19.8220073 C338.789116,22.1188431 326.613095,15.2283358 323.120748,13.4034526 C319.659864,11.6414964 323.466837,4.02732847 323.466837,4.02732847 C323.466837,4.02732847 322.522959,2.39122628 320.352041,0.880978102 L306.130952,0.880978102 C303.456633,3.27220438 302.827381,6.98489781 304.998299,9.25027007 C320.10034,24.9190949 332.244898,41.7520693 341.903912,57.9557737 L357.698129,41.3745073 L355.055272,25.737146 L355.055272,25.737146 Z M290.305272,271.246865 L293.357143,265.960996 L288.354592,265.960996 L290.305272,271.246865 Z M414.802721,0.912441606 L412.789116,3.17781387 C421.063776,12.9629635 417.634354,22.9368942 417.634354,22.9368942 C417.634354,30.488135 413.638605,30.362281 413.638605,30.362281 C413.638605,47.9503796 404.420068,44.8354927 404.420068,44.8354927 C404.420068,67.9611679 378.935374,58.6165073 378.935374,58.6165073 C374.75085,58.0816277 371.289966,56.9174781 368.489796,55.5645474 L351.216837,74.8202117 C362.417517,96.5929562 369.087585,115.943011 372.705782,127.993533 L445.761905,0.912441606 L414.802721,0.912441606 L414.802721,0.912441606 Z M185.912415,196.835679 C181.255952,185.571745 183.30102,183.023201 183.30102,183.023201 C183.30102,183.023201 168.32483,170.720971 172.761054,155.398245 C172.761054,155.398245 134.187925,99.4875985 134.187925,66.3250657 C134.187925,49.1774562 142.494048,50.8450219 142.494048,36.8122993 C142.494048,25.2966569 134.628401,16.7071204 128.965136,16.7071204 C122.483844,16.7071204 102.284864,30.047646 72.710034,47.478427 L83.8792517,21.804208 L56.9472789,49.4606277 C56.9472789,49.4606277 51.6930272,22.4649416 66.1972789,7.96026642 C68.5884354,5.60050365 70.9795918,3.24074088 73.3707483,0.912441606 L21.8979592,0.912441606 L162.346939,245.16362 C164.926871,243.936544 167.286565,242.426296 168.922619,240.75873 L191.072279,218.419642 C187.517007,210.144741 185.912415,201.555204 185.912415,196.835679 L185.912415,196.835679 Z"></path>
                        <polygon points="268.784864 272.536869 273.661565 272.536869 275.769558 265.960996 265.072279 265.960996"></polygon>
                    </g>
                    <path d="M301.946429,346.745668 L298.139456,353.32154 L313.65051,353.32154 L315.506803,346.745668 L301.946429,346.745668 Z M471.655612,195.123044 L467.785714,200.471839 L477.696429,203.744044 L476.312075,196.696219 L471.655612,195.123044 Z M433.711735,182.569106 L430.062075,187.949365 L455.609694,196.444511 L455.452381,189.742785 L433.711735,182.569106 Z" id="Shape" fill="#FFFFFF"></path>
                    <ellipse id="Oval" fill="#FFFFFF" transform="translate(477.516059, 199.371865) rotate(256.545000) translate(-477.516059, -199.371865) " cx="465.088338" cy="189.555252" rx="3.30357143" ry="5.91513869"></ellipse>
                    <ellipse id="Oval" fill="#FFFFFF" transform="translate(248.896624, 333.079846) rotate(142.064000) translate(-248.896624, -333.079846) " cx="239.080298" cy="320.651762" rx="5.91496599" ry="3.30366788"></ellipse>
                    <path d="M172.10034,324.721215 C167.443878,329.440741 158.571429,333.153434 151.932823,333.153434 L151.272109,333.153434 L138.970238,360.337901 L151.869898,360.337901 C156.117347,360.337901 162.378401,357.569113 165.241497,354.422763 L201.045918,315.376555 L192.897109,303.766522 L172.10034,324.721215 L172.10034,324.721215 Z M30.6130952,360.337901 L48.1692177,360.337901 L63.2712585,333.153434 L45.7151361,333.153434 L30.6130952,360.337901 Z M319.125,346.745668 L316.261905,356.782526 L288.354592,356.782526 L284.673469,346.745668 L279.387755,346.745668 L276.210034,356.782526 L266.771259,356.782526 L261.076531,346.745668 L258.056122,346.745668 C257.143707,347.783964 252.959184,352.849588 251.57483,360.117657 L338.065476,360.117657 L338.065476,356.813989 L327.147959,356.813989 L323.907313,346.777131 L319.125,346.777131 L319.125,346.745668 Z M421.818878,185.243504 L426.60119,186.816679 L432.327381,178.447387 L458.818878,187.225704 L459.133503,197.577197 L464.356293,199.30769 L470.334184,191.032788 L479.269558,193.990358 L481.440476,204.97112 L485.121599,206.198197 C486.946429,204.939657 491.886054,201.1955 494.780612,195.62646 L412.631803,168.441993 L411.593537,171.619807 L421.944728,175.049328 L421.818878,185.243504 L421.818878,185.243504 Z M248.77466,236.623405 L323.970238,157.618547 C296.471939,119.453318 256.388605,85.063708 220.17517,85.063708 C187.894558,85.063708 166.090986,108.818653 166.090986,133.957993 C166.090986,179.233974 206.772109,214.441635 248.77466,236.623405 L248.77466,236.623405 Z M269.697279,246.597336 C295.056122,257.515172 318.432823,263.304456 330.703231,263.304456 C342.029762,263.304456 357.540816,260.158106 357.540816,235.585109 C357.540816,219.475796 348.82568,196.790609 334.82483,173.885179 L269.697279,246.597336 L269.697279,246.597336 Z M66.1658163,94.6915401 C60.9115646,100.606679 60.2508503,117.722825 60.2508503,117.722825 L103.039966,80.879062 L85.8928571,112.436956 C85.8928571,112.436956 114.838435,99.2852117 117.481293,92.7093394 C117.481293,92.7093394 111.534864,78.2361277 98.3835034,65.0529197 C98.3835034,65.0529197 71.4515306,88.7764015 66.1658163,94.6915401 L66.1658163,94.6915401 Z M125.032313,45.3253029 C125.032313,40.6687044 131.607993,35.9806423 132.42602,33.7467336 C132.42602,33.7467336 128.178571,27.9889124 122.169218,30.8835547 C121.256803,44.0038358 117.890306,50.2336095 116.411565,58.1938759 C121.319728,62.2526679 119.683673,52.0270292 126.731293,52.0270292 C129.090986,52.0270292 132.520408,54.953135 132.520408,58.3197299 C132.520408,62.2526679 130.380952,64.3292591 130.380952,64.3292591 L135.320578,63.9202336 C135.320578,63.9202336 137.428571,61.8121788 137.428571,57.5960693 C137.460034,48.0311642 125.032313,47.8423832 125.032313,45.3253029 L125.032313,45.3253029 Z M362.354592,123.512109 L241.412415,250.624664 C237.007653,255.218336 248.617347,263.272993 252.707483,258.584931 L368.521259,129.332858 C372.768707,124.581869 366.822279,119.044292 362.354592,123.512109 L362.354592,123.512109 Z M211.460034,260.850303 C211.460034,260.850303 213.253401,254.242967 208.093537,254.242967 C197.522109,254.242967 187.391156,262.989821 187.391156,267.489102 C187.391156,269.817401 188.335034,271.862529 188.335034,271.862529 C188.335034,271.862529 202.115646,258.616394 211.460034,260.850303 L211.460034,260.850303 Z M232.162415,260.567131 C232.162415,255.97346 228.166667,255.218336 223.82483,255.218336 C219.482993,255.218336 217.217687,258.144442 217.217687,259.969325 C217.217687,264.720314 222.062925,269.911792 224.202381,269.911792 C225.397959,269.943255 232.162415,266.199099 232.162415,260.567131 L232.162415,260.567131 Z M238.738095,262.140307 C236.063776,262.140307 234.553571,265.349584 234.553571,270.855697 C234.553571,272.68058 236.818878,274.064974 238.140306,274.064974 C239.021259,274.064974 241.066327,272.05131 241.066327,265.821536 C241.066327,263.902263 240.405612,262.140307 238.738095,262.140307 L238.738095,262.140307 Z M248.491497,267.489102 C243.897959,267.489102 245.565476,277.714741 245.565476,281.112799 C245.565476,284.447931 244.27551,286.178423 244.27551,286.178423 C245.219388,287.877453 245.093537,292.628442 248.176871,292.628442 C249.938776,292.628442 252.487245,289.985507 252.487245,283.378172 C252.487245,273.435704 252.644558,267.489102 248.491497,267.489102 L248.491497,267.489102 Z M256.420068,270.132036 L255.759354,276.204493 L259.880952,276.865226 L260.95068,273.372777 C259.818027,272.743507 258.842687,269.471303 256.420068,270.132036 L256.420068,270.132036 Z M191.544218,279.634015 C193.809524,305.717259 209.477891,316.823876 209.477891,316.823876 L212.561224,315.219237 C212.561224,315.219237 204.695578,300.274073 196.07483,272.523263 L191.544218,279.634015 L191.544218,279.634015 Z M202.367347,269.062277 C209.22619,297.127723 217.626701,313.520208 221.15051,314.43265 C221.15051,314.43265 223.541667,310.373858 223.541667,286.14696 C223.541667,286.14696 217.532313,260.692985 202.367347,269.062277 L202.367347,269.062277 Z M229.613946,279.634015 C230.872449,308.360193 226.278912,307.856777 226.278912,312.261668 C226.278912,319.403883 238.486395,310.279467 238.486395,292.156489 C238.454932,270.729843 229.613946,279.634015 229.613946,279.634015 L229.613946,279.634015 Z M179.210884,235.113157 C171.093537,246.345628 184.402211,258.050051 184.402211,258.050051 C184.402211,258.050051 189.278912,258.39615 191.984694,255.690288 C191.984694,255.690288 187.80017,240.367562 179.210884,235.113157 L179.210884,235.113157 Z M198.654762,245.496113 C198.654762,243.860011 196.357993,244.048792 196.357993,232.124124 C196.357993,222.653609 185.692177,226.208985 185.692177,231.243146 C185.692177,236.277307 194.344388,242.475617 194.344388,246.156847 C194.344388,246.156847 198.654762,247.761485 198.654762,245.496113 L198.654762,245.496113 Z M207.118197,239.266339 C207.118197,220.262383 200.605442,223.534588 200.605442,230.362168 C200.605442,237.976336 204.884354,241.468785 207.118197,239.266339 L207.118197,239.266339 Z M213.379252,225.390934 C211.019558,230.613876 212.718537,238.353898 212.718537,243.702693 C212.718537,249.24027 216.39966,249.051489 218.130102,248.107584 C216.022109,243.891474 221.748299,229.386799 213.379252,225.390934 L213.379252,225.390934 Z M221.842687,228.22265 C220.741497,234.987303 222.880952,247.037825 222.880952,247.037825 C222.880952,247.037825 227.254252,248.894172 228.764456,246.597336 C228.418367,244.206109 228.418367,238.82585 228.418367,235.648036 C228.418367,227.530453 221.842687,228.22265 221.842687,228.22265 L221.842687,228.22265 Z M233.92432,234.483887 C232.256803,244.992697 235.875,250.530274 235.875,250.530274 C237.196429,249.77515 238.171769,250.278566 238.171769,241.374394 C238.171769,232.501686 233.92432,234.483887 233.92432,234.483887 L233.92432,234.483887 Z M393.282313,77.3551496 C400.770408,73.5480657 392.936224,63.7314526 387.587585,66.7834124 C365.343537,81.2251606 362.983844,103.31254 362.983844,103.31254 C362.983844,103.31254 364.965986,106.553281 370.314626,105.672303 C370.314626,105.672303 382.207483,82.7668723 393.282313,77.3551496 L393.282313,77.3551496 Z M375.914966,105.861084 C375.914966,105.861084 376.44983,108.504018 379.784864,108.504018 C386.108844,108.504018 398.945578,94.8803212 398.945578,83.8051679 C398.945578,81.5397956 395.579082,81.4454051 395.579082,81.4454051 C383.843537,89.0281095 375.914966,105.861084 375.914966,105.861084 L375.914966,105.861084 Z M405.269558,79.4632044 C413.229592,79.4632044 419.490646,71.2197664 419.490646,69.4892737 C419.490646,67.758781 417.728741,66.5631679 414.613946,66.5631679 C411.49915,66.5631679 403.22449,75.4988029 403.22449,78.0158832 C403.193027,78.5507628 403.602041,79.4632044 405.269558,79.4632044 L405.269558,79.4632044 Z M360.687075,119.327464 C360.687075,119.327464 362.983844,117.628434 366.790816,117.848679 C364.39966,110.265974 360.120748,112.122321 360.120748,112.122321 C358.421769,114.670865 360.687075,119.327464 360.687075,119.327464 L360.687075,119.327464 Z M390.859694,139.149471 C393.628401,127.161876 381.357993,114.702328 381.357993,114.702328 C372.705782,114.041595 372.454082,117.093555 372.454082,117.093555 C372.454082,117.093555 378.620748,139.149471 390.859694,139.149471 L390.859694,139.149471 Z M387.807823,110.863781 C387.807823,110.863781 390.702381,129.458712 399.071429,129.458712 C399.857993,126.595533 396.460034,110.863781 387.807823,110.863781 L387.807823,110.863781 Z M395.201531,104.382299 C395.201531,104.382299 400.015306,118.194777 405.143707,118.194777 C405.143707,118.194777 407.094388,109.007434 398.410714,101.582047 C395.704932,101.582047 395.201531,104.382299 395.201531,104.382299 L395.201531,104.382299 Z M414.110544,108.000602 C414.110544,101.298876 403.381803,89.4685985 403.381803,89.4685985 L400.801871,94.6286131 L411.153061,110.171584 C411.153061,110.203047 414.110544,111.650369 414.110544,108.000602 L414.110544,108.000602 Z M405.772959,85.1580985 L415.494898,102.211318 C415.494898,102.211318 415.243197,92.4890949 407.912415,83.6478504 C407.912415,83.6478504 405.772959,83.3961423 405.772959,85.1580985 L405.772959,85.1580985 Z M349.329082,96.5793504 C349.329082,96.5793504 337.215986,90.1922591 327.682823,87.4863978 L327.022109,89.437135 C327.053571,89.4685985 332.307823,97.428865 349.329082,96.5793504 L349.329082,96.5793504 Z M354.960884,93.7790985 C355.841837,94.1566606 358.547619,91.3564088 356.691327,90.1293321 C354.457483,88.6820109 337.467687,79.2744234 332.276361,77.7956387 C329.381803,80.753208 330.986395,82.5466277 330.986395,82.5466277 L354.960884,93.7790985 L354.960884,93.7790985 Z M359.05102,86.0076131 C360.403912,86.7312737 362.606293,82.3578467 361.190476,81.4139416 C352.758503,75.813438 344.483844,70.5275693 335.139456,66.3114599 C332.811224,69.4263467 333.566327,72.195135 333.566327,72.195135 L359.05102,86.0076131 L359.05102,86.0076131 Z M365.595238,75.876365 C365.595238,71.502938 346.497449,56.7780182 343.508503,56.7780182 C340.519558,56.7780182 339.166667,60.4592482 339.166667,60.4592482 L363.392857,77.7641752 C364.179422,78.3305182 365.595238,76.379781 365.595238,75.876365 L365.595238,75.876365 Z M371.82483,70.2129343 L354.079932,49.8875109 C351.720238,47.2131131 347.630102,52.2787372 347.630102,52.2787372 L367.703231,71.943427 C369.559524,73.7368467 372.80017,71.1568394 371.82483,70.2129343 L371.82483,70.2129343 Z M376.57568,62.6302299 L361.662415,42.3362701 C357.886905,42.3362701 357.10034,45.5770109 357.10034,45.5770109 L373.335034,62.8504745 C375.411565,65.0529197 376.57568,62.6302299 376.57568,62.6302299 L376.57568,62.6302299 Z M376.795918,51.8382482 L372.107993,41.769927 C371.636054,40.7945584 368.363946,40.9518759 368.363946,42.8711496 C368.332483,44.3184708 371.761905,51.8382482 376.795918,51.8382482 L376.795918,51.8382482 Z" id="Shape" fill="#FFFFFF"></path>
                </g>
            </g>
        </g>
    </g>
</svg>