<?xml version="1.0" encoding="UTF-8" standalone="no"?>
<svg  viewBox="0 0 500 500" version="1.1" xmlns="http://www.w3.org/2000/svg" xmlns:xlink="http://www.w3.org/1999/xlink">
    <!-- Generator: Sketch 39.1 (31720) - http://www.bohemiancoding.com/sketch -->
    <title>NSH</title>
    <desc>Created with Sketch.</desc>
    <defs>
        <polygon id="path-1" points="0.000563599942 289.374302 498.529221 289.374302 498.529221 0.466575419 0.000563599942 0.466575419 0.000563599942 289.374302"></polygon>
    </defs>
    <g id="Page-1" stroke="none" stroke-width="1" fill="none" fill-rule="evenodd">
        <g id="NSH">
            <g id="Page-1" transform="translate(0.000000, 105.000000)">
                <path d="M157.963636,74.3691955 C157.963636,74.3691955 138.676299,82.1953073 125.423052,102.219034 C131.436039,100.578704 138.082143,98.8765978 145.299675,97.1793687 C151.199026,83.4666034 157.963636,74.3691955 157.963636,74.3691955" id="Fill-1" fill="#FEFEFE"></path>
                <path d="M431.695942,116.093718 C443.713799,119.389009 453.12289,123.67435 453.12289,123.67435 C453.12289,123.67435 469.411851,133.997534 476.695942,120.762724 L451.809578,109.033311 C444.848539,113.06992 438.01737,115.183327 431.695942,116.093718" id="Fill-3" fill="#FEFEFE"></path>
                <path d="M94.4094156,73.7850821 L182.758442,53.9840765 C182.758442,53.9840765 186.253571,65.3607134 201.325,74.4841324 L201.062013,77.2787078 C194.063636,78.6946911 183.08961,83.2027525 172.612338,91.428786 C188.391558,88.4830207 205.902922,85.8591436 224.729221,84.0221045 L229.196753,73.5493559 C201.484091,77.6217302 188.995455,54.008462 188.995455,54.008462 L186.876948,46.8001156 L26.0344156,82.8402218 C43.3883117,84.0432385 62.5149351,89.5706128 79.9467532,98.4696855 C84.1025974,84.5667134 94.4094156,73.7850821 94.4094156,73.7850821" id="Fill-5" fill="#FEFEFE"></path>
                <path d="M363.720292,117.950916 C356.329058,121.646128 349.931331,126.697173 342.692695,132.876453 L351.041721,117.164078 C351.041721,117.164078 329.020617,116.273196 307.929708,116.671492 L294.163474,131.839257 C289.02711,130.281838 283.605032,129.408838 277.989773,129.282034 C277.658604,121.610363 280.666721,112.881989 287.405357,104.508017 C278.483279,111.244911 273.095292,119.887123 271.968669,129.46086 C268.041721,129.76324 264.215422,130.450911 260.52224,131.471849 C258.590422,125.094235 258.806331,117.240486 261.746266,108.703944 C256.546591,116.635726 254.410227,125.042212 255.478409,133.100799 C251.783604,134.492397 248.25276,136.249777 244.919968,138.314413 C241.666721,133.364162 239.681331,126.760575 239.530357,118.887318 C237.655357,126.952408 238.174838,134.474514 241.020617,140.941542 C229.25276,149.72519 223.949188,160.355631 223.949188,160.355631 C186.559578,153.607358 163.931331,184.934564 163.135877,206.920508 C160.76737,191.666581 165.6375,164.684866 195.74789,151.848352 L205.741396,128.454553 C206.364773,126.963788 207.181331,125.655101 208.163474,124.481346 C174.583929,130.754916 153.765747,144.075888 153.765747,144.075888 C153.765747,144.075888 144.725162,160.292229 148.592045,176.861346 C148.592045,176.861346 142.692695,168.827145 139.207305,155.140391 C137.674838,156.590514 136.398864,157.913832 135.434578,158.975413 C136.660227,163.818369 137.317695,168.827145 137.317695,173.970855 C137.317695,198.481508 127.083929,213.90776 127.083929,213.90776 L161.330682,220.864123 C161.330682,220.864123 174.280357,239.736855 202.085552,239.736855 C210.88263,239.736855 222.437825,238.761436 222.437825,233.143022 C222.437825,228.898324 212.028734,223.140101 212.028734,210.84657 C212.028734,190.894374 237.062825,170.184603 263.916721,161.31967 C295.303084,150.968849 343.244643,138.909419 367.363149,138.909419 C435.76737,138.909419 433.515747,184.136346 433.515747,184.136346 L436.835552,183.980279 C452.062825,175.411223 465.541721,173.779022 469.471916,173.476642 C476.064448,148.904212 463.546591,126.741067 363.720292,117.950916" id="Fill-7" fill="#FEFEFE"></path>
                <path d="M417.602435,72.2830994 L414.186851,85.5049039 C414.186851,75.497105 408.274513,69.7567642 390.784253,59.4465855 L417.602435,72.2830994 Z M280.05211,69.9729821 C265.571591,70.582619 254.211201,75.8303732 245.561851,82.3624291 C256.89789,81.6715073 268.620292,81.2975966 280.64789,81.3219821 C286.53263,73.5348872 290.040747,65.0113508 290.040747,56.0943955 C290.040747,40.7169151 282.175487,31.7105464 282.175487,31.7105464 L320.235552,23.2585408 L332.074838,29.0736637 C332.074838,29.0736637 304.107305,39.8357866 304.107305,70.1973285 C304.107305,74.5168089 304.742045,78.4379933 305.740422,81.9755128 C325.865422,82.9850715 346.6625,85.2074011 367.795617,89.0424235 C367.795617,89.0424235 374.630032,105.653809 393.444968,105.653809 C402.548864,105.653809 409.508279,100.599513 409.508279,100.599513 C429.90763,116.040396 448.592695,107.516859 448.592695,107.516859 L441.599188,101.706613 L434.920617,105.263641 L439.071591,99.0258369 L436.519643,96.1190883 L427.498539,100.779965 L433.14789,92.2011553 L431.186851,89.9365575 L423.574838,93.2936246 L427.935227,85.8528034 L424.868669,81.1301497 C422.005032,93.7081777 410.805357,95.2135743 401.183604,94.4559989 L400.678734,88.8928592 C398.594318,90.1999207 396.121916,90.9607475 393.477435,90.9607475 C385.966071,90.9607475 379.880032,84.8627531 379.880032,77.3504011 C379.880032,73.0423006 358.688474,54.065524 358.688474,54.065524 L386.112175,62.5451665 C409.086201,69.6575966 408.084578,81.0699989 408.349188,87.2622838 C412.216071,88.969267 420.931981,90.2194291 424.868669,81.1301497 L421.967695,66.0192838 L403.716071,57.1559765 L391.180357,45.4086804 L320.966071,16.9865966 L251.857305,32.3380659 C268.143019,36.2641274 281.618669,44.7762838 281.618669,44.7762838 C281.618669,44.7762838 286.79724,56.6991553 280.05211,69.9729821 L280.05211,69.9729821 Z" id="Fill-9" fill="#FEFEFE"></path>
                <path d="M89.2840909,103.660378 C92.650974,105.699003 95.9220779,107.870936 99.0714286,110.163171 C101.939935,109.20726 105.326299,108.106663 109.191558,106.919903 C115.13474,84.1568749 127.310065,69.0557631 127.310065,69.0557631 C102.074675,78.5026961 91.3717532,99.1360592 89.2840909,103.660378" id="Fill-11" fill="#FEFEFE"></path>
                <path d="M193.979058,51.7087492 C193.979058,51.7087492 204.065097,68.905386 222.04724,68.905386 L240.725812,67.6129559 L256.069968,51.5575592 L277.02289,48.330548 C269.258279,43.6176486 260.498539,40.2248162 251.566721,37.8122799 L234.05211,62.3115536 L245.181981,36.2532352 C241.931981,35.5460564 238.683604,34.9461737 235.474188,34.4503358 L220.383279,55.5145089 L229.724188,33.656995 C225.7875,33.1741626 221.948214,32.8360173 218.28263,32.6035425 L206.737175,48.7223413 L213.725812,32.3645648 C197.423864,31.6785201 185.521266,33.0018385 185.521266,33.0018385 L189.53263,36.4662017 L193.979058,51.7087492 Z" id="Fill-13" fill="#FEFEFE"></path>
                <path d="M217.583117,213.138642 C219.784416,223.117178 226.44513,225.937765 227.08474,229.667117 C227.08474,229.667117 244.393182,226.103586 255.885065,208.970351 C233.501948,220.254323 217.583117,213.138642 217.583117,213.138642" id="Fill-15" fill="#FEFEFE"></path>
                <path d="M420.157955,171.781852 C420.157955,162.006528 404.00211,152.634377 396.391721,152.634377 C365.042695,152.634377 365.469643,219.325399 254.940422,275.833047 C349.076786,262.212947 420.157955,198.090528 420.157955,171.781852" id="Fill-17" fill="#FEFEFE"></path>
                <g id="Group-21" transform="translate(0.000000, 1.159123)">
                    <mask id="mask-2" fill="white">
                        <use xlink:href="#path-1"></use>
                    </mask>
                    <g id="Clip-20"></g>
                    <path d="M472.803409,178.714642 C472.803409,178.714642 459.558279,177.900168 439.694643,188.990682 L423.066396,188.990682 L420.007955,187.342223 C375.069643,245.397536 311.040422,275.724939 223.058279,283.221034 C223.058279,283.221034 252.912175,270.056128 269.0875,261.506581 L234.186526,269.374961 C234.186526,269.374961 328.769318,228.290313 349.446266,147.135453 C349.446266,147.135453 300.647565,156.106056 265.918669,167.624128 C231.540422,179.026777 222.170292,204.026765 222.170292,204.026765 C234.412175,202.885525 240.733604,197.587374 244.468994,197.587374 C248.915422,197.587374 250.60211,202.196229 249.430032,204.811978 C251.481981,203.934101 254.003084,202.453089 255.861851,202.453089 C258.111851,202.453089 261.236851,204.366536 261.236851,207.375704 C261.236851,214.873425 244.551786,228.431749 232.22224,232.419587 C232.22224,236.995927 230.421916,248.764358 202.394318,248.764358 C178.303409,248.764358 162.97224,234.750838 162.97224,234.750838 L101.321266,223.609927 C101.321266,223.609927 118.923539,198.774134 118.923539,172.639408 C118.923539,101.775218 6.12646104,87.2008324 6.12646104,87.2008324 L21.6881494,66.7170335 L180.71737,34.9053687 L172.394318,27.7327877 C172.394318,27.7327877 196.361851,24.2082737 223.115097,26.4208492 L322.129708,6.61821788 L394.228734,38.018581 L406.399188,50.2633408 L425.538799,61.1538939 L429.720617,79.9908603 L442.858604,96.2966145 L452.016071,103.352145 L478.793669,116.299207 L492.366721,149.569123 C492.366721,149.569123 482.243344,159.487508 472.803409,178.714642 L472.803409,178.714642 Z M484.47711,113.969581 C483.902435,112.560101 482.829383,111.41886 481.459253,110.758827 L455.259578,98.0848827 L447.176786,91.8649609 L435.408929,77.2466816 L431.535552,59.8175698 C431.157305,58.1187151 430.085877,56.6637151 428.57289,55.8053464 L410.160552,45.3293464 L398.579383,33.6779665 C398.035552,33.1268547 397.389448,32.6846648 396.675162,32.3757821 L324.57776,0.977044693 C323.426786,0.476329609 322.154058,0.33977095 320.928409,0.583625698 L222.678409,20.235067 C195.928409,18.144419 172.491721,21.5047374 171.499838,21.6445475 C165.47224,22.6492291 165.439773,29.1682793 167.532305,31.2638045 L20.4819805,60.6856927 C19.0209416,60.9766927 17.7027597,61.7992961 16.8001623,62.9893073 L1.23685065,83.4763575 C-1.52613636,87.1211732 0.558279221,92.6810615 5.34237013,93.3037039 C6.42191558,93.4451397 112.782305,108.029279 112.782305,172.639408 C112.782305,196.429877 96.475487,219.82205 96.3099026,220.059402 C93.9511364,223.405089 95.3845779,228.787777 100.230357,229.665654 L160.309903,240.525318 C164.860227,244.17176 180.150812,254.925754 202.394318,254.925754 C228.736851,254.925754 236.194643,244.947218 237.905682,236.76833 C250.9625,231.203564 267.378084,218.017525 267.378084,207.375704 C267.378084,200.749358 261.425162,196.29657 255.861851,196.29657 C255.230357,196.29657 254.662175,196.529045 254.056656,196.626587 C254.056656,196.626587 251.249838,191.434106 244.468994,191.434106 C241.571266,191.434106 238.417045,192.88748 235.956006,193.93443 C241.97711,187.008955 251.933279,178.747156 267.85211,173.471765 C292.404058,165.315637 324.410552,158.408045 340.444643,155.174531 C316.07289,226.097246 232.613474,263.350123 231.733604,263.728911 C226.764448,265.892715 227.668669,272.193922 229.7125,273.502609 L220.58263,277.59124 C214.095617,280.454095 216.860227,289.922162 223.58263,289.349916 C311.663799,281.848944 376.444643,250.968804 421.550162,195.148827 L439.694643,195.148827 C440.748214,195.148827 441.775812,194.875709 442.694643,194.379872 C460.443019,184.445229 472.361851,184.853279 472.47711,184.859782 C474.920292,184.967078 477.240097,183.621 478.314773,181.436061 C487.110227,163.53062 496.581006,154.041419 496.670292,153.956883 C497.980357,152.638441 499.243344,150.170631 498.056656,147.239497 L484.47711,113.969581 Z" id="Fill-19" fill="#FDBB30" mask="url(#mask-2)"></path>
                </g>
                <path d="M453.123377,123.674512 C453.123377,123.674512 443.717532,119.389172 431.699675,116.095507 C413.037338,118.776283 398.831169,110.927412 398.831169,110.927412 C383.357143,110.927412 372.793831,113.419607 363.724026,117.950428 C463.547078,126.742205 476.064935,148.90535 469.465909,173.47778 C470.219156,173.419255 470.621753,173.409501 470.621753,173.409501 C470.621753,173.409501 477.373377,160.792456 485.204545,151.643026 C485.204545,151.643026 475.040584,130.300859 439.37987,128.525596 L453.123377,123.674512 Z" id="Fill-22" fill="#FDBB30"></path>
                <path d="M145.3,97.1806693 C138.082468,98.8762726 131.436364,100.580004 125.423377,102.217083 C121.298377,108.443507 117.764286,115.848563 115.569481,124.559055 C125.127922,134.68553 132.233442,146.29139 135.43474,158.976714 C136.403896,157.916759 137.675,156.590189 139.207468,155.146569 C137.743182,149.411105 136.704221,142.703474 136.704221,135.166736 C136.704221,121.12558 140.744805,107.77372 145.3,97.1806693" id="Fill-24" fill="#FDBB30"></path>
                <path d="M367.796104,89.0442117 C346.662987,85.205938 325.865909,82.9819827 305.739286,81.9756754 C309.711688,96.0948654 319.611039,103.81043 319.611039,103.81043 L307.929221,116.671329 C329.02013,116.274659 351.03474,117.165541 351.03474,117.165541 L342.692208,132.87629 L364.422727,108.933005 L367.796104,89.0442117 Z" id="Fill-26" fill="#FDBB30"></path>
                <path d="M223.058766,110.510095 L212.360714,113.01367 L224.732468,84.0225922 C205.902922,85.8596313 188.391558,88.4835084 172.615584,91.4325251 C157.729221,103.11967 143.854221,122.320793 143.854221,150.850173 C143.854221,165.156318 148.596104,176.861346 148.596104,176.861346 C144.727597,160.292229 153.768182,144.074263 153.768182,144.074263 C153.768182,144.074263 174.58474,130.756542 208.167532,124.482972 C210.514935,121.668888 213.948377,119.701793 218.906169,118.412615 C243.006818,112.145547 267.633442,98.5352011 280.648052,81.323933 C268.618831,81.2995475 256.893182,81.668581 245.566883,82.3627542 C229.769805,94.2970056 223.058766,110.510095 223.058766,110.510095" id="Fill-28" fill="#FDBB30"></path>
                <path d="M107.171266,116.557205 C107.69724,113.214769 108.388799,109.999138 109.190747,106.920065 C105.325487,108.111702 101.939123,109.204172 99.075487,110.161708 C101.875812,112.200334 104.581981,114.329998 107.171266,116.557205" id="Fill-30" fill="#FDBB30"></path>
                <path d="M395.349188,86.7604307 C398.211201,86.7604307 400.321591,85.4127268 400.321591,85.4127268 C400.136526,84.3999168 399.910877,83.4423804 399.6625,82.5222352 C398.962825,82.9627994 397.967695,83.4001123 396.795617,83.4001123 C393.701461,83.4001123 391.790747,81.0233413 391.790747,78.3978385 C391.790747,76.1690061 393.318344,74.1531402 395.500162,73.5841458 C392.768019,69.7117324 390.034253,68.0779056 390.034253,68.0779056 C390.034253,68.0779056 385.259903,70.7489279 385.259903,76.6420844 C385.259903,82.5368665 390.201461,86.7604307 395.349188,86.7604307" id="Fill-32" fill="#FDBB30"></path>
                <path d="M485.200812,151.638312 C477.37289,160.792619 470.626136,173.409664 470.626136,173.409664 C470.626136,173.409664 470.215422,173.421044 469.471916,173.477943 C465.541721,173.788451 452.062825,175.415775 436.835552,183.986457 L433.515747,184.131144 C433.515747,184.131144 435.76737,138.909094 367.363149,138.909094 C343.244643,138.909094 295.303084,150.971775 263.916721,161.320971 C237.062825,170.184278 212.028734,190.898926 212.028734,210.846245 C212.028734,223.131647 222.437825,228.897999 222.437825,233.142697 C222.437825,238.761111 210.88263,239.733278 202.085552,239.733278 C174.280357,239.733278 161.330682,220.867049 161.330682,220.867049 L127.083929,213.907435 C127.083929,213.907435 137.317695,198.481183 137.317695,173.97053 C137.317695,168.82682 136.660227,163.821295 135.434578,158.976714 C132.233279,146.288139 125.124513,134.687155 115.569318,124.56068 C117.760877,115.843686 121.301461,108.443507 125.423214,102.218708 C138.676461,82.1933564 157.958929,74.3688704 157.958929,74.3688704 C157.958929,74.3688704 151.199188,83.4662782 145.299838,97.182295 C140.743019,107.776971 136.707305,121.127206 136.707305,135.168362 C136.707305,142.703474 137.746266,149.415982 139.207305,155.146569 C142.692695,168.823569 148.592045,176.862647 148.592045,176.862647 C148.592045,176.862647 143.855032,165.157619 143.855032,150.851474 C143.855032,122.317217 157.731656,103.119345 172.611526,91.4289486 C183.088799,83.2045408 194.062825,78.698105 201.062825,77.2788704 L201.325812,74.4826693 C186.254383,65.3625017 182.75763,53.9842391 182.75763,53.9842391 L94.4102273,73.7852447 C94.4102273,73.7852447 84.1034091,84.5685017 79.9459416,98.469848 C62.5189935,89.5707754 43.3891234,84.0417754 26.0336039,82.8436358 L186.876136,46.8019039 L188.994643,54.011876 C188.994643,54.011876 201.484903,77.6186413 229.197565,73.5495184 L224.733279,84.0190156 L212.364773,113.016597 L223.059578,110.50977 C223.059578,110.50977 229.768994,94.2983061 245.562825,82.3624291 C254.210552,75.8303732 265.570942,70.582619 280.053084,69.9713564 C286.796591,56.6991553 281.619643,44.7779095 281.619643,44.7779095 C281.619643,44.7779095 268.14237,36.2625017 251.858279,32.3364402 L320.965422,16.9849709 L391.179708,45.4086804 L403.717045,57.1576022 L421.968669,66.0241609 L424.868019,81.1334011 L427.936201,85.849552 L423.570942,93.2936246 L431.187825,89.9414346 L433.148864,92.2011553 L427.49789,100.781591 L436.520617,96.1174626 L439.074188,99.0290883 L434.919968,105.262016 L441.600162,101.709865 L448.595292,107.521736 C448.595292,107.521736 429.903734,116.03877 409.50763,100.602764 C409.50763,100.602764 402.548214,105.652183 393.445942,105.652183 C374.631006,105.652183 367.796591,89.0473006 367.796591,89.0473006 L364.428084,108.932842 L342.692695,132.879379 C349.931331,126.695222 356.329058,121.645803 363.720292,117.948965 C372.790097,113.416518 383.358279,110.930826 398.827435,110.930826 C398.827435,110.930826 413.036851,118.77482 431.695942,116.094044 C438.01737,115.183653 444.848539,113.068619 451.809578,109.033636 L476.695942,120.763049 C469.410227,133.997859 453.12289,123.674675 453.12289,123.674675 L439.379383,128.527384 C475.040097,130.301021 485.200812,151.638312 485.200812,151.638312 L485.200812,151.638312 Z M254.936201,275.830284 C365.470292,219.325887 365.038474,152.633239 396.395617,152.633239 C403.99789,152.633239 420.153734,162.013518 420.153734,171.779088 C420.153734,198.08939 349.077435,262.213435 254.936201,275.830284 L254.936201,275.830284 Z M255.884253,208.971815 C244.39237,226.103423 227.085552,229.663703 227.085552,229.663703 C226.442695,225.927848 219.785227,223.117016 217.583929,213.138479 C217.583929,213.138479 233.501136,220.254161 255.884253,208.971815 L255.884253,208.971815 Z M107.171591,116.557368 C104.582305,114.330161 101.876136,112.200496 99.0758117,110.160245 C95.9215909,107.871261 92.6521104,105.70258 89.2836039,103.660703 C91.3712662,99.1347587 102.074188,78.5030212 127.309578,69.0560883 C127.309578,69.0560883 115.134253,84.1555743 109.195942,106.920228 C108.389123,109.999301 107.697565,113.214932 107.171591,116.557368 L107.171591,116.557368 Z M213.726786,32.3608257 L206.738149,48.7234793 L218.281981,32.6030547 C221.947565,32.8355296 225.786851,33.1736749 229.723539,33.6532559 L220.374513,55.5172726 L235.473539,34.4465966 C238.687825,34.945686 241.924838,35.5455687 245.182955,36.2527475 L234.051461,62.3143173 L251.566071,37.8134179 C260.49789,40.2259542 269.259253,43.6171609 277.023864,48.331686 L256.067695,51.5586972 L240.725162,67.6140939 L222.049838,68.9048983 C204.064448,68.9048983 193.978409,51.7098872 193.978409,51.7098872 L189.531981,36.4640883 L185.52224,33.0013508 C185.52224,33.0013508 197.419968,31.6780324 213.726786,32.3608257 L213.726786,32.3608257 Z M452.01737,104.507692 L442.858279,97.4554123 L429.723539,81.1496581 L425.538474,62.3143173 L406.395617,51.4205128 L394.233279,39.1773788 L322.13263,7.77376425 L223.111526,27.5780212 C196.361526,25.3670715 172.395617,28.8948369 172.395617,28.8948369 L180.718669,36.0641665 L21.6862013,67.8742056 L6.12775974,88.3645073 C6.12775974,88.3645073 118.926461,102.937267 118.926461,173.798206 C118.926461,199.924803 101.320942,224.768725 101.320942,224.768725 L162.971916,235.909636 C162.971916,235.909636 178.303084,249.923155 202.393994,249.923155 C230.423214,249.923155 232.226786,238.162854 232.226786,233.578384 C244.551461,229.590546 261.241396,216.032222 261.241396,208.534502 C261.241396,205.52696 258.111526,203.611887 255.866396,203.611887 C254.00276,203.611887 251.481656,205.088021 249.428084,205.974027 C250.601786,203.355027 248.921591,198.747798 244.468669,198.747798 C240.733279,198.747798 234.416721,204.044323 222.166721,205.187189 C222.166721,205.187189 231.540097,180.1872 265.918344,168.782926 C300.64724,157.261602 349.442695,148.297502 349.442695,148.297502 C328.775487,229.449111 234.186201,270.533759 234.186201,270.533759 L269.087175,262.665379 C252.911851,271.221429 223.059578,284.379831 223.059578,284.379831 C311.040097,276.880485 375.069318,246.554708 420.00763,188.496144 L423.062825,190.149479 L439.699188,190.149479 C459.557955,179.062217 472.807955,179.87344 472.807955,179.87344 C482.243019,160.649558 492.361526,150.726295 492.361526,150.726295 L478.791721,117.458004 L452.01737,104.507692 Z" id="Fill-34" fill="#002D62"></path>
                <path d="M395.349188,86.7604307 C390.201461,86.7604307 385.259903,82.5368665 385.259903,76.6420844 C385.259903,70.7489279 390.034253,68.0779056 390.034253,68.0779056 C390.034253,68.0779056 392.768019,69.7117324 395.500162,73.5841458 C393.318344,74.1531402 391.790747,76.1690061 391.790747,78.3978385 C391.790747,81.0233413 393.701461,83.4001123 396.795617,83.4001123 C397.967695,83.4001123 398.962825,82.9627994 399.6625,82.5222352 C399.910877,83.4423804 400.136526,84.3999168 400.321591,85.4127268 C400.321591,85.4127268 398.211201,86.7604307 395.349188,86.7604307 M408.349188,87.2660229 C408.084578,81.0704866 409.086201,69.654833 386.108929,62.5456542 L358.688474,54.064386 C358.688474,54.064386 379.884903,73.0427883 379.884903,77.3492631 C379.884903,84.8648665 385.966071,90.9596095 393.477435,90.9596095 C396.126786,90.9596095 398.594318,90.2004084 400.678734,88.8933469 L401.180357,94.459738 C410.808604,95.2108106 422.005032,93.7070397 424.865422,81.1338888 C420.931981,90.2215425 412.216071,88.9681291 408.349188,87.2660229" id="Fill-36" fill="#002D62"></path>
                <path d="M414.187662,85.5053916 L417.598377,72.2835872 L390.785065,59.4454475 C408.276948,69.7588777 414.187662,75.5024698 414.187662,85.5053916" id="Fill-38" fill="#002D62"></path>
                <path d="M332.075487,29.074314 L320.236201,23.2591911 L282.176136,31.7111966 C282.176136,31.7111966 290.041396,40.7175654 290.041396,56.0950458 C290.041396,65.0087497 286.531656,73.5371631 280.646916,81.3242581 C267.633929,98.5339006 243.007305,112.145873 218.906656,118.411314 C213.94724,119.700493 210.515422,121.667588 208.168019,124.480046 C207.18263,125.652174 206.369318,126.959236 205.745942,128.453253 L195.742695,151.8438 C165.637175,164.690068 160.767045,191.670158 163.137175,206.919208 C163.926136,184.934889 186.5625,153.607683 223.94724,160.355956 C223.94724,160.355956 229.249188,149.728766 241.020292,140.940241 C238.174513,134.471588 237.655032,126.952733 239.533279,118.889269 C239.681006,126.756023 241.671266,133.35961 244.916396,138.314739 C248.252435,136.250102 251.780032,134.492722 255.478084,133.099498 C254.405032,125.042537 256.54789,116.634426 261.741071,108.702644 C258.806006,117.240811 258.593344,125.096185 260.521916,131.472174 C264.215097,130.451236 268.044643,129.763565 271.966721,129.461185 C273.094968,119.885822 278.482955,111.246861 287.405032,104.509968 C280.669643,112.882314 277.659903,121.605811 277.987825,129.282359 C283.609578,129.410789 289.030032,130.282163 294.164773,131.837956 L307.929383,116.671817 L319.611201,103.814169 C319.611201,103.814169 309.711851,96.0953531 305.736201,81.9761631 C304.745942,78.4370179 304.107955,74.5158335 304.107955,70.1979788 C304.107955,39.8380626 332.075487,29.074314 332.075487,29.074314" id="Fill-40" fill="#002D62"></path>
            </g>
        </g>
    </g>
</svg>