<?xml version="1.0" encoding="UTF-8"?>
<svg  viewBox="0 0 500 500" version="1.1" xmlns="http://www.w3.org/2000/svg" xmlns:xlink="http://www.w3.org/1999/xlink">
    <title>Team Logos / NHL / Light / BUF</title>
    <defs>
        <polygon id="path-1" points="0.00029411765 0.829705882 495.229412 0.829705882 495.229412 496.058824 0.00029411765 496.058824"></polygon>
    </defs>
    <g id="Team-Logos-/-NHL-/-Light-/-BUF" stroke="none" stroke-width="1" fill="none" fill-rule="evenodd">
        <g id="Group-34" transform="translate(2.000000, 1.000000)">
            <g id="Group-3" transform="translate(0.000000, 0.111765)">
                <mask id="mask-2" fill="white">
                    <use xlink:href="#path-1"></use>
                </mask>
                <g id="Clip-2"></g>
                <path d="M247.615,496.059118 C110.859118,496.059118 0.00029411765,385.197353 0.00029411765,248.444412 C0.00029411765,111.685588 110.859118,0.829705882 247.615,0.829705882 C384.370882,0.829705882 495.229706,111.685588 495.229706,248.444412 C495.229706,385.197353 384.370882,496.059118 247.615,496.059118" id="Fill-1" fill="#FCB61B" mask="url(#mask-2)"></path>
            </g>
            <path d="M247.457059,481.920294 C118.633529,481.920294 14.1952941,377.485 14.1952941,248.658529 C14.1952941,119.835 118.633529,15.3997059 247.457059,15.3997059 C376.283529,15.3997059 480.718824,119.835 480.718824,248.658529 C480.718824,377.485 376.283529,481.920294 247.457059,481.920294" id="Fill-4" fill="#254C8F"></path>
            <path d="M335.027353,57.4632353 C354.459706,63.8426471 370.380294,69.775 369.645,71.5514706 C368.912647,73.3279412 352.477353,68.6397059 333.042059,62.2602941 C303.800882,52.6632353 267.759706,39.2367647 268.174412,38.2426471 C268.583235,37.2514706 305.783235,47.8661765 335.027353,57.4632353" id="Fill-6" fill="#FEFEFE"></path>
            <path d="M349.698824,220.116765 C350.554706,221.290294 310.928235,237.466765 278.319412,249.060882 C256.642941,256.763824 238.072353,262.443235 236.537059,260.340294 C235.004706,258.240294 252.510588,251.093235 274.184118,243.390294 C306.792941,231.796176 348.84,218.946176 349.698824,220.116765" id="Fill-8" fill="#FEFEFE"></path>
            <path d="M93.9429412,116.382941 C105.916471,112.797647 114.357647,114.950588 114.357647,121.094706 C114.357647,124.912353 111.49,126.938824 111.49,130.782941 C111.49,134.285882 114.519412,136.000588 117.934118,136.000588 C125.901765,136.000588 132.628235,129.318235 132.628235,120.750588 C132.628235,112.585882 126.463529,105.874118 115.495882,105.874118 C107.007647,105.874118 98.1517647,110.541765 93.9429412,116.382941 M131.951765,166.438824 C131.951765,162.68 129.563529,159.806471 126.495882,158.824118 C126.795882,155.218235 128.404706,151.841765 130.34,150.285882 C128.616471,149.518235 125.554706,149.782941 123.79,151.868235 C122.269412,153.656471 121.64,156.565294 121.145882,159.709412 C120.766471,162.085882 120.472353,164.600588 119.928235,166.862353 C119.016471,170.659412 117.263529,172.591765 115.922353,172.891765 C117.142941,173.694706 119.175294,174.215294 120.787059,173.491765 C123.49,172.282941 124.795882,169.377059 125.295882,165.659412 C126.516471,166.28 127.666471,167.771176 127.666471,169.391765 C127.666471,171.621176 125.869412,173.388824 123.431176,174.068235 C128.160588,174.347647 131.951765,170.794706 131.951765,166.438824 M88.3841176,155.915294 C86.4723529,152.18 84.3341176,142.735882 84.3341176,132.950588 C84.3341176,105.568235 102.825294,96.4447059 129.94,91.2064706 C134.504706,90.3211765 135.237059,89.8064706 138.363529,85.2447059 C158.869412,55.3094118 184.754706,40.4123529 213.466471,40.4123529 C231.210588,40.4123529 242.787059,44.5064706 297.110588,63.8182353 C311.807647,69.0476471 329.334118,75.5035294 351.063529,83.2535294 C361.475294,86.9682353 372.854706,90.9770588 385.348824,95.2947059 C402.337059,101.162353 407.675294,103.947647 407.675294,107.050588 C407.675294,110.727059 401.134118,111.488824 401.134118,114.456471 C401.134118,116.788824 409.928235,119.397647 418.075294,120.23 C410.325294,126.441765 385.857647,122.724118 385.857647,116.727059 C385.857647,113.550588 390.851765,111.921176 390.851765,109.403529 C390.851765,105.712353 375.766471,98.2388235 360.028235,96.5594118 C366.204706,117.421176 360.910588,125.391765 360.910588,130.006471 C360.910588,134.444706 367.848824,136.656471 376.484118,134.921176 C380.801765,139.93 387.675294,144.371176 393.010588,146.268235 C392.151765,147.677059 391.675294,150.309412 392.210588,151.894706 C394.431176,151.003529 397.901765,150.285882 400.222353,150.285882 C404.916471,155.482941 406.966471,165.915294 406.028235,172.388824 C400.607647,170.532941 393.625294,169.48 389.004706,169.377059 C384.24,162.335882 376.592941,155.744706 368.778235,151.694706 C355.278235,149.732941 334.284118,153.635882 322.363529,158.065294 C328.663529,159.003529 341.04,158.697647 346.945882,157.924118 C349.660588,160.241765 354.910588,163.056471 358.160588,164.550588 C357.266471,166.194706 357.213529,168.574118 357.760588,169.977059 C360.148824,168.591765 363.075294,167.491765 365.369412,167.165294 C370.507647,171.062353 375.034118,179.93 375.987059,187.459412 C371.007647,186.562353 364.828235,186.18 360.566471,186.450588 C352.398824,178.565294 339.737059,170.938824 330.681176,170.938824 C320.795882,170.938824 311.754706,176.021176 305.498824,176.021176 C295.966471,176.021176 286.413529,165.48 271.369412,165.48 C267.172353,165.48 263.128235,166.28 259.022353,167.768235 C259.907647,176.350588 264.892941,185.78 268.242941,190.344706 C265.522353,190.685882 261.231176,190.562353 258.631176,190.347647 C260.960588,193.741765 264.204706,195.865294 266.234118,196.397647 C260.395882,199.882941 256.848824,203.409412 254.816471,209.956471 C259.401765,211.141765 264.266471,210.635882 267.037059,209.356471 C268.875294,206.938824 271.857647,204.800588 274.757647,203.965294 C282.772353,208.562353 287.248824,215.738824 287.863529,220.806471 C282.137059,221.353529 276.531176,223.43 273.642941,225.227059 C268.331176,223.600588 264.245882,223.062353 260.79,223.062353 C254.39,223.062353 249.225294,225.068235 244.475294,225.068235 C239.634118,225.068235 236.410588,222.344706 235.592941,219.603529 C236.995882,215.244706 238.222353,208.338824 238.222353,202.662353 C238.222353,187.024118 224.142941,174.206471 201.251765,172.627059 C206.613529,175.153529 212.987059,179.638824 215.160588,183.035882 C210.513529,185.165294 205.460588,190.827059 205.460588,195.712353 C205.460588,199.788824 208.719412,203.562353 212.157647,204.732941 C213.99,203.324118 216.945882,201.900588 219.166471,201.318235 C225.022353,206.556471 228.469412,214.403529 228.578235,220.406471 C224.413529,219.959412 217.234118,220.98 213.160588,221.812353 C209.387059,218.638824 206.181176,216.732941 203.325294,215.553529 C197.695882,213.221176 193.163529,213.974118 188.725294,212.794706 C185.09,211.824118 182.472353,209.365294 182.113529,207.347647 C186.728235,203.188824 191.351765,195.274118 191.351765,187.253529 C191.351765,176.044706 184.672353,169.574118 178.666471,169.574118 C173.963529,169.574118 170.181176,173.512353 170.181176,179.218235 C170.181176,185.574118 175.454706,191.93 183.454706,192.541765 C178.757647,197.332941 173.178235,200.738824 166.416471,200.738824 C162.301765,200.738824 159.175294,199.509412 157.481176,199.509412 C154.463529,199.509412 151.057647,200.850588 149.534118,200.850588 C148.831176,200.850588 148.428235,200.500588 148.428235,199.735882 C148.428235,197.306471 152.892941,191.756471 155.478235,189.265294 C150.972353,188.909412 147.860588,189.612353 144.819412,192.009412 C140.542941,195.374118 138.657647,200.574118 133.419412,200.574118 C128.428235,200.574118 126.357647,194.615294 122.428235,190.944706 C119.595882,188.291765 117.613529,188.285882 113.219412,184.238824 C106.195882,177.782941 104.563529,170.988824 103.366471,169.391765 C101.195882,166.500588 91.6694118,162.324118 88.3841176,155.915294" id="Fill-10" fill="#FEFEFE"></path>
            <path d="M310.204118,381.817059 C310.16,382.222941 310.112941,382.643529 310.062941,383.105294 C310.012941,383.546471 309.96,383.987647 309.907059,384.428824 C309.812941,387.114118 314.015882,389.564118 316.368824,385.634706 C316.251176,386.617059 316.133529,387.605294 316.015882,388.584706 C315.930588,391.258235 320.127647,393.693529 322.498235,389.77 C322.383529,390.749412 322.262941,391.725882 322.148235,392.705294 C322.062941,395.375882 326.304118,397.778824 328.648235,393.852353 C328.533529,394.831765 328.418824,395.808235 328.304118,396.784706 C328.221765,399.452353 332.471765,401.822941 334.827647,397.902353 C334.712941,398.878824 334.601176,399.855294 334.486471,400.828824 C334.174706,403.478824 338.668824,405.828824 341.036471,401.908235 L340.692353,404.831765 C340.624706,407.472941 344.886471,409.808235 347.26,405.881765 L346.927647,408.793529 C346.851176,411.758235 351.677647,413.446471 353.768824,409.97 C353.668824,410.77 353.598235,411.217059 353.498235,412.022941 C353.021765,416.143529 357.651176,418.478824 360.701176,416.172941 C362.733529,414.640588 365.46,412.005294 367.174706,409.831765 C369.795294,406.499412 365.186471,403.649412 362.61,405.749412 C361.936471,406.290588 361.26,406.825882 360.586471,407.364118 C360.633529,406.196471 360.677647,405.031765 360.718824,403.861176 C360.771765,401.443529 356.504118,398.772941 354.289412,404.158235 C354.345294,402.758235 354.401176,401.355294 354.454118,399.949412 C354.512941,397.505294 350.26,394.82 348.045294,400.222941 C348.104118,398.814118 348.162941,397.405294 348.215882,395.996471 C348.277647,393.543529 344.033529,390.843529 341.827647,396.234706 C341.883529,394.822941 341.945294,393.411176 342.007059,391.999412 C342.065882,389.555294 337.868824,386.808235 335.630588,392.211176 C335.692353,390.793529 335.754118,389.378824 335.815882,387.961176 C335.886471,385.502353 331.695294,382.749412 329.457059,388.152353 C329.521765,386.731765 329.586471,385.314118 329.657059,383.893529 C329.727647,381.434706 325.554118,378.643529 323.315882,384.049412 C323.383529,382.628824 323.448235,381.205294 323.515882,379.781765 C323.595294,377.308235 319.427647,374.487647 317.195294,379.908235 C317.265882,378.481765 317.333529,377.052353 317.401176,375.628824 C317.486471,373.240588 313.695294,371.02 311.851176,374.202353 C311.692353,374.472941 311.489412,374.808235 311.280588,375.261176 C311.362941,373.990588 311.448235,372.717059 311.533529,371.446471 C311.642353,368.372941 306.454118,367.031765 305.404118,370.122941 C304.730588,372.108235 304.06,377.281765 304.042315,380.234706 C304.027647,383.087647 308.257059,385.108235 310.204118,381.817059 M309.674706,362.937647 C313.030588,366.143529 325.268824,375.228824 339.283529,384.328824 C353.292353,393.428824 366.571765,400.914118 370.865882,402.672941 C371.812941,403.061176 372.386471,403.108235 372.527647,402.893529 C372.671765,402.667059 372.604118,402.440588 371.433529,401.711176 C361.686471,395.617059 350.977647,388.82 340.698235,382.143529 C330.418824,375.467059 319.854118,368.452353 310.321765,362.025882 C309.180588,361.255294 308.942353,361.287647 308.798235,361.508235 C308.657059,361.725882 308.936471,362.231765 309.674706,362.937647 M380.889412,404.267059 C376.442353,404.267059 373.171765,407.928824 370.401176,411.414118 C362.051176,421.931765 353.445294,427.652353 340.112941,427.652353 C319.542353,427.652353 299.577647,410.252353 299.577647,388.793529 C299.577647,375.740588 305.383529,361.32 305.383529,350.487647 C305.383529,342.146471 300.21,337.731765 294.480588,337.731765 C291.868824,337.731765 289.998235,339.217059 289.998235,340.331765 C289.998235,342.211176 296.218824,339.761176 296.218824,348.596471 C296.218824,358.881765 289.292353,374.208235 289.292353,390.302353 C289.292353,416.134706 313.571765,436.958235 338.754118,436.958235 C353.839412,436.958235 365.068824,429.778824 373.307059,418.796471 C374.495294,421.37 377.215882,423.278824 380.645294,423.278824 C385.654118,423.278824 389.495294,419.114118 389.495294,413.672941 C389.495294,408.893529 385.751176,404.267059 380.889412,404.267059" id="Fill-12" fill="#FCB61B"></path>
            <path d="M183.697647,371.446765 C183.78,372.720294 183.868235,373.990882 183.947647,375.264412 C183.747647,374.811471 183.535882,374.476176 183.38,374.202647 C181.538824,371.020294 177.744706,373.237941 177.827059,375.626176 C177.897647,377.055588 177.965294,378.482059 178.032941,379.908529 C175.806471,374.490882 171.635882,377.311471 171.715294,379.782059 C171.782941,381.205588 171.847647,382.626176 171.915294,384.049706 C169.674118,378.643824 165.500588,381.435 165.574118,383.890882 C165.641765,385.311471 165.709412,386.732059 165.774118,388.149706 C163.535882,382.749706 159.341765,385.505588 159.412353,387.964412 C159.477059,389.382059 159.538824,390.793824 159.600588,392.211471 C157.362353,386.808529 153.162353,389.555588 153.224118,392.002647 C153.285882,393.411471 153.344706,394.820294 153.403529,396.235 C151.194706,390.846765 146.950588,393.543824 147.012353,395.993824 C147.071176,397.405588 147.127059,398.814412 147.185882,400.220294 C144.971176,394.817353 140.715294,397.508529 140.774118,399.949706 C140.83,401.352647 140.885882,402.755588 140.938824,404.158529 C138.724118,398.770294 134.456471,401.446765 134.512353,403.861471 C134.553529,405.032059 134.597647,406.193824 134.638824,407.364412 C133.968235,406.826176 133.294706,406.287941 132.621176,405.752647 C130.044706,403.649706 125.435882,406.496765 128.056471,409.829118 C129.771176,412.008529 132.497647,414.640882 134.53,416.173235 C137.58,418.476176 142.209412,416.143824 141.73,412.020294 C141.63,411.217353 141.562353,410.773235 141.462353,409.967353 C143.553529,413.446765 148.374118,411.758529 148.303529,408.790882 C148.191765,407.820294 148.08,406.852647 147.971176,405.882059 C150.341765,409.805588 154.609412,407.476176 154.538824,404.832059 L154.194706,401.908529 C156.559412,405.829118 161.059412,403.479118 160.741765,400.829118 C160.63,399.852647 160.515294,398.879118 160.403529,397.899706 C162.756471,401.823235 167.003529,399.452647 166.93,396.785 L166.58,393.852647 C168.927059,397.776176 173.168235,395.376176 173.085882,392.708529 C172.965294,391.726176 172.850588,390.746765 172.732941,389.767353 C175.103529,393.693824 179.303529,391.255588 179.215294,388.587941 C179.097647,387.602647 178.98,386.620294 178.862353,385.635 C181.215294,389.567353 185.418235,387.111471 185.321176,384.426176 L185.168235,383.108529 C185.118235,382.640882 185.071176,382.226176 185.027059,381.817353 C186.977059,385.105588 191.206471,383.087941 191.188879,380.235 C191.171176,377.279118 190.500588,372.105588 189.827059,370.126176 C188.777059,367.035 183.588824,368.373235 183.697647,371.446765 M124.362353,402.673235 C128.662353,400.911471 141.935882,393.429118 155.950588,384.329118 C169.962353,375.229118 182.197647,366.143824 185.556471,362.935 C186.294706,362.229118 186.574118,361.723235 186.432941,361.508529 C186.288824,361.282059 186.050588,361.255588 184.909412,362.026176 C175.374118,368.449706 164.812353,375.470294 154.53,382.146765 C144.250588,388.820294 133.544706,395.617353 123.794706,401.711471 C122.63,402.443824 122.556471,402.670294 122.703529,402.893824 C122.844706,403.111471 123.421176,403.058529 124.362353,402.673235 M199.012353,348.596765 C199.012353,339.761471 205.23,342.214412 205.23,340.332059 C205.23,339.217353 203.359412,337.732059 200.747647,337.732059 C195.021176,337.732059 189.850588,342.149706 189.850588,350.487941 C189.850588,361.323235 195.656471,375.740882 195.656471,388.787941 C195.656471,410.249706 175.688824,427.655588 155.115294,427.655588 C141.785882,427.655588 133.18,421.932059 124.827059,411.414412 C122.059412,407.932059 118.788824,404.270294 114.341765,404.270294 C109.48,404.270294 105.732941,408.890882 105.732941,413.670294 C105.732941,419.117353 109.574118,423.276176 114.585882,423.276176 C118.015294,423.276176 120.735882,421.373235 121.927059,418.799706 C130.162353,429.779118 141.391765,436.955588 156.477059,436.955588 C181.656471,436.955588 205.938824,416.132059 205.938824,390.302647 C205.938824,374.202647 199.012353,358.879118 199.012353,348.596765" id="Fill-14" fill="#FCB61B"></path>
            <path d="M52.0355882,144.483529 C54.7620588,151.798235 64.5679412,167.962941 79.6561765,184.454118 C111.473824,219.227647 171.967941,271.665882 241.209118,323.86 C243.332647,322.292353 245.470882,320.704118 247.617941,319.101176 C179.594412,268.345294 100.417941,202.133529 52.0355882,144.483529" id="Fill-16" fill="#FEFEFE"></path>
            <path d="M79.6535294,184.452353 C64.5682353,167.964118 54.7652941,151.799412 52.0329412,144.481765 C52.7976471,153.581765 59.6005882,172.605294 75.4947059,189.975882 C117.462353,235.843529 178.565294,286.184706 234.421176,328.855294 C236.668235,327.208235 238.93,325.543529 241.209412,323.861176 C171.965294,271.664118 111.471176,219.228824 79.6535294,184.452353" id="Fill-18" fill="#FEFEFE"></path>
            <path d="M443.196176,144.483529 C383.984412,215.033529 278.652059,298.412941 204.093235,350.586471 C203.737353,352.789412 204.125588,357.783529 204.540294,360.015882 C293.572647,297.015882 376.352059,227.315882 415.575588,184.454118 C430.663824,167.962941 440.466765,151.798235 443.196176,144.483529" id="Fill-20" fill="#FEFEFE"></path>
            <path d="M443.196176,144.483529 C440.466765,151.798235 430.663824,167.962941 415.575588,184.454118 C376.352059,227.315882 293.572647,297.015882 204.540294,360.015882 C205.319706,362.21 207.763824,365.686471 209.540294,367.11 C275.546176,318.901176 364.319706,250.536471 419.737353,189.977647 C435.631471,172.607059 442.431471,153.583529 443.196176,144.483529" id="Fill-22" fill="#FEFEFE"></path>
            <path d="M291.138235,350.587059 C281.488235,343.837059 271.323529,336.554706 260.808824,328.854706 C258.667647,330.49 256.532353,332.116471 254.408824,333.728235 C266.320588,342.560588 278.45,351.348824 290.691176,360.016471 C291.1,357.784118 291.497059,352.792941 291.138235,350.587059" id="Fill-24" fill="#FEFEFE"></path>
            <path d="M254.409412,333.728529 C252.132941,335.455 249.871176,337.166765 247.612353,338.869706 C260.838824,348.840294 273.644706,358.310882 285.691765,367.110882 C287.471176,365.687353 289.912353,362.210882 290.688824,360.016765 C278.444706,351.349118 266.318235,342.560882 254.409412,333.728529" id="Fill-26" fill="#FEFEFE"></path>
            <path d="M123.433824,174.067647 C125.872059,173.391176 127.663235,171.620588 127.663235,169.394118 C127.663235,167.770588 126.519118,166.282353 125.298529,165.658824 C124.795588,169.376471 123.492647,172.282353 120.789706,173.494118 C121.283824,173.708824 122.327941,173.985294 123.433824,174.067647" id="Fill-28" fill="#D91A32"></path>
            <path d="M424.701765,462.254118 C419.595882,462.254118 415.451765,458.112941 415.451765,453.001176 C415.451765,447.889412 419.595882,443.748235 424.701765,443.748235 C429.822353,443.748235 433.957647,447.889412 433.957647,453.001176 C433.957647,458.112941 429.822353,462.254118 424.701765,462.254118 M424.701765,441.233529 C418.210588,441.233529 412.934118,446.501176 412.934118,453.001176 C412.934118,459.501176 418.210588,464.774706 424.701765,464.774706 C431.210588,464.774706 436.481176,459.501176 436.481176,453.001176 C436.481176,446.501176 431.210588,441.233529 424.701765,441.233529" id="Fill-30" fill="#254C8F"></path>
            <path d="M425.547647,451.734412 L422.400588,451.734412 L422.400588,448.796176 L425.547647,448.796176 C426.359412,448.796176 427.015294,449.455 427.015294,450.275588 C427.015294,451.078529 426.359412,451.734412 425.547647,451.734412 M429.538824,450.275588 C429.538824,448.057941 427.753529,446.272647 425.547647,446.272647 L419.871176,446.269706 L419.871176,459.725588 L422.400588,459.725588 L422.400588,454.249118 L424.203529,454.249118 L426.756471,459.725588 L429.538824,459.725588 L426.885882,454.028529 C428.435882,453.475588 429.538824,452.005 429.538824,450.275588" id="Fill-32" fill="#254C8F"></path>
        </g>
    </g>
</svg>