<svg version="1.1" id="Layer_1" xmlns="http://www.w3.org/2000/svg" xmlns:xlink="http://www.w3.org/1999/xlink" x="0px" y="0px"
	 width="100%" viewBox="0 0 1124 1124" enable-background="new 0 0 1024 1024" xml:space="preserve">
<path fill="#FFFFFF" opacity="0.000000" stroke="none" 
	d="
M679.000000,1165.000000 
	C454.166656,1165.000000 229.833328,1164.989136 5.500043,1165.093506 
	C1.750793,1165.095215 0.906033,1164.249023 0.907001,1160.500000 
	C1.006394,775.500000 1.006394,390.500000 0.907001,5.500024 
	C0.906033,1.750928 1.750927,0.906035 5.500024,0.907002 
	C390.500000,1.006378 775.500000,1.006378 1160.500000,0.907003 
	C1164.249023,0.906035 1165.093994,1.750927 1165.093018,5.500023 
	C1164.993652,390.500000 1164.993652,775.500000 1165.093018,1160.500000 
	C1165.093994,1164.249023 1164.249390,1165.096558 1160.499878,1165.093994 
	C1000.166687,1164.984863 839.833313,1165.000000 679.000000,1165.000000 
z"/>
<path fill="#010101" opacity="1.000000" stroke="none" 
	d="
M141.519012,764.808350 
	C142.130280,767.591675 141.233719,770.664734 146.007309,770.349854 
	C147.495941,770.251648 147.894257,774.771301 145.995895,775.714539 
	C143.975174,776.718506 144.642776,776.630005 145.439346,778.028198 
	C161.354294,805.962952 177.156479,833.961914 193.000946,861.936829 
	C198.306442,871.304138 203.639511,880.656250 209.032486,889.973328 
	C209.758148,891.227051 210.845947,892.296936 211.874374,893.345703 
	C233.370285,915.265137 256.400330,935.315002 281.892029,952.573059 
	C294.175232,960.888977 306.564362,968.949829 319.551575,976.089844 
	C320.607025,976.670166 322.444611,980.228760 323.304749,975.549255 
	C323.515015,974.405273 325.456360,976.025024 326.419800,976.578796 
	C344.162262,986.776062 362.493591,995.768555 381.397858,1003.594421 
	C406.996857,1014.191711 433.356659,1022.453064 460.515228,1027.815796 
	C475.494690,1030.773682 490.694489,1032.578857 505.929443,1034.209351 
	C529.942078,1036.779297 553.984375,1036.502441 577.950500,1035.701294 
	C598.390991,1035.018188 618.724365,1032.013916 638.972046,1028.277710 
	C664.856750,1023.501282 690.163025,1016.846863 714.777527,1007.852905 
	C761.410461,990.813660 804.470154,967.188416 842.857056,935.441833 
	C926.166809,866.543396 979.146790,779.175720 1001.681580,673.497131 
	C1011.409729,627.876648 1013.548157,581.693542 1008.785217,535.308228 
	C1002.298523,472.135223 983.545959,412.765594 952.196228,357.462830 
	C950.672119,354.774323 949.910950,352.125702 949.943665,349.006287 
	C950.076599,336.341522 950.116211,323.672729 949.919312,311.009644 
	C949.868591,307.748016 950.729858,306.832733 954.005676,306.918335 
	C962.999146,307.153320 972.005676,307.126099 981.000732,306.922668 
	C983.719788,306.861145 985.086304,307.829712 986.477966,310.047852 
	C1017.960693,360.226837 1040.150757,414.216614 1052.896118,472.054901 
	C1063.065918,518.205505 1066.996216,564.931213 1063.809448,612.075684 
	C1055.851074,729.810791 1013.429565,833.504883 934.714050,921.583984 
	C865.284607,999.272400 779.549927,1050.735840 678.466492,1076.359131 
	C644.472290,1084.976074 609.903259,1089.511841 574.865845,1091.253906 
	C555.060364,1092.238770 535.271362,1092.183350 515.501831,1091.790649 
	C502.983032,1091.542114 490.464752,1089.747314 477.964783,1088.242554 
	C457.023865,1085.721436 436.525818,1081.355591 416.224609,1075.942627 
	C397.474945,1070.943359 379.154877,1064.651001 361.219604,1057.136963 
	C348.472565,1051.796631 335.821381,1046.259888 323.621643,1039.833130 
	C307.107452,1031.133423 290.985840,1021.716675 275.564362,1011.128662 
	C257.841370,998.960449 240.906113,985.868958 224.801437,971.580811 
	C216.147293,963.902893 207.829727,955.835999 199.683380,947.737915 
	C184.609695,932.753662 171.603760,915.807312 157.856964,899.568481 
	C146.406403,886.042053 138.756592,870.323181 129.116852,855.785217 
	C119.420746,841.162354 112.325249,825.011963 104.044914,809.554810 
	C96.155487,794.827393 86.850090,780.815308 79.618530,765.790222 
	C71.652557,749.239136 66.963570,731.346741 62.187428,713.613403 
	C48.484673,662.736389 42.619099,610.898987 45.337864,558.319031 
	C51.308510,442.848724 91.052132,340.253937 165.788345,251.943253 
	C236.268570,168.661560 324.972656,113.871971 430.750427,86.838943 
	C480.842987,74.037056 531.719055,69.573509 583.291321,72.141472 
	C597.175720,72.832825 610.965515,74.624397 624.858948,75.426476 
	C636.893982,76.121262 648.713074,80.517998 660.633057,83.254547 
	C677.734558,87.180656 695.001587,90.525581 711.842834,95.356491 
	C716.588867,96.717865 721.531860,98.452927 726.216919,100.310570 
	C731.922058,102.572639 737.902466,103.721924 743.598083,105.894157 
	C751.088989,108.751114 758.367859,112.111923 766.449829,113.491547 
	C771.498596,114.353394 768.546021,119.253830 768.855286,122.263245 
	C769.184753,125.468925 766.160278,123.925766 764.750488,123.927406 
	C691.420105,124.012650 618.087402,123.690880 544.760986,124.234245 
	C527.651550,124.361031 510.504822,126.942589 493.477173,129.172760 
	C449.348907,134.952347 406.854736,146.866867 366.495880,165.650177 
	C257.150452,216.540298 178.770599,297.625519 132.283173,408.903290 
	C103.784760,477.120453 93.819878,548.511292 100.232407,622.088013 
	C104.316505,668.948547 115.333366,714.196350 133.945862,757.499329 
	C134.926758,759.781372 135.724640,762.123047 138.606186,763.337585 
	C139.723633,763.833435 140.648270,763.870422 141.519012,764.808350 
z"/>
<path fill="#313131" opacity="1.000000" stroke="none" 
	d="
M141.795319,764.665527 
	C140.643143,765.318420 139.744110,765.021912 138.968933,763.854248 
	C140.760147,763.001160 140.161377,760.732422 141.859818,759.490845 
	C141.859818,761.274231 141.859818,762.771545 141.795319,764.665527 
z"/>
<path fill="#FFFFFF" opacity="0.000000" stroke="none" 
	d="
M642.000000,1165.000000 
	C429.500000,1165.000000 217.500000,1164.988525 5.500046,1165.093628 
	C1.750773,1165.095459 0.906033,1164.249023 0.907001,1160.500000 
	C1.006394,775.500000 1.006394,390.500000 0.907001,5.500024 
	C0.906033,1.750928 1.750927,0.906035 5.500024,0.907002 
	C390.500000,1.006378 775.500000,1.006378 1160.500000,0.907003 
	C1164.249023,0.906035 1165.093994,1.750927 1165.093018,5.500023 
	C1164.993652,390.500000 1164.993652,775.500000 1165.093018,1160.500000 
	C1165.093994,1164.249023 1164.249268,1165.096313 1160.500000,1165.093872 
	C987.833313,1164.985962 815.166687,1165.000000 642.000000,1165.000000 
z"/>
<path fill="#030202" opacity="1.000000" stroke="none" 
	d="
M820.000000,114.074432 
	C916.825134,114.048409 1013.150391,114.054436 1109.475342,113.889923 
	C1113.735962,113.882652 1115.422607,115.095490 1116.518799,119.201126 
	C1127.666870,160.955750 1125.113525,201.100128 1101.672607,238.334259 
	C1084.928101,264.931702 1060.073120,281.922699 1031.492554,293.778412 
	C1013.965332,301.049042 995.746582,305.892029 976.839661,308.024017 
	C968.322571,308.984406 962.037354,314.112579 961.034058,324.262482 
	C960.773071,326.902161 959.089478,328.843048 957.651123,330.560608 
	C952.013367,337.292847 949.013062,345.297546 945.990723,353.281311 
	C888.900574,504.091766 832.397888,655.127563 774.604980,805.668030 
	C739.340820,897.525208 672.653198,955.981262 577.615662,980.749695 
	C508.768036,998.692505 440.727325,994.108582 374.357941,967.699158 
	C357.399872,960.951294 340.199585,954.805359 323.045105,948.562866 
	C318.938751,947.068542 314.490662,948.055725 310.213348,948.089539 
	C307.520813,948.110779 306.939606,947.250977 306.943726,944.708618 
	C307.015747,900.211670 307.036774,855.714355 306.912842,811.217651 
	C306.903595,807.900635 308.379822,807.802612 310.787170,807.984192 
	C326.664124,809.181458 342.538025,810.428040 358.423553,811.500793 
	C381.028687,813.027405 403.644257,814.777039 426.280273,812.005920 
	C442.279816,810.047363 456.249054,804.349121 467.419891,791.944031 
	C480.795074,777.091003 494.950836,762.940552 508.787598,748.504150 
	C510.301056,746.925049 511.682587,745.800171 510.166138,743.073486 
	C493.040497,712.280212 476.079193,681.395569 459.060059,650.543030 
	C458.922272,650.293213 458.596252,650.147278 458.062164,649.711182 
	C452.020599,665.654297 446.017365,681.474915 440.029694,697.301514 
	C427.983337,729.142456 415.892365,760.966736 403.980408,792.857910 
	C402.690979,796.310059 401.486542,797.403687 397.610809,796.296875 
	C384.660065,792.598083 371.356720,791.460754 357.890717,790.820312 
	C343.630707,790.142212 329.392609,788.733398 315.121216,787.885559 
	C305.949951,787.340698 296.785126,786.523376 287.610382,785.885254 
	C272.689178,784.847534 257.774414,783.775513 242.842468,782.868591 
	C234.006134,782.331909 225.180099,781.468750 216.330002,780.890930 
	C201.572601,779.927307 186.800491,779.012268 172.073380,777.780273 
	C162.899048,777.012756 153.473358,777.511292 144.515076,774.306396 
	C140.128891,772.737244 139.280045,771.083008 140.305527,766.205200 
	C144.210526,747.630371 152.460052,730.594177 159.082138,713.009705 
	C199.875229,604.686523 240.838867,496.427063 282.013336,388.248260 
	C292.613800,360.397430 306.624420,334.344177 327.721863,312.807800 
	C367.575531,272.125031 424.124146,266.480438 471.489655,298.158783 
	C487.572632,308.915192 501.272217,322.194031 513.229492,337.315308 
	C549.178406,382.776550 585.080872,428.274597 621.005066,473.755402 
	C621.822937,474.790802 622.684509,475.791626 623.900757,477.261963 
	C645.025940,421.449646 665.998596,366.040253 687.159485,310.133667 
	C675.320801,309.097900 663.843506,307.733643 652.598938,304.979309 
	C630.002869,299.444427 609.096191,290.430603 591.569580,274.717316 
	C568.161255,253.730774 558.390198,226.717300 557.343689,196.008636 
	C556.590454,173.906799 560.107361,152.456528 569.422852,132.355820 
	C571.926819,126.952705 575.034424,122.190430 574.011597,115.979393 
	C573.765320,114.483658 574.550110,113.894615 576.021790,113.983925 
	C577.184021,114.054459 578.354126,113.996071 579.520691,113.996452 
	C659.513794,114.022339 739.506897,114.048393 820.000000,114.074432 
z"/>
<path fill="#C8102E" opacity="1.000000" stroke="none" 
	d="
M839.866699,571.833008 
	C814.833740,638.022217 789.961548,703.856873 764.970703,769.646484 
	C756.526733,791.875732 749.058472,814.530212 736.934387,835.199707 
	C700.583191,897.172241 647.786987,937.991638 578.835327,957.867188 
	C545.732666,967.409180 511.808899,970.369080 477.504395,968.802612 
	C444.605103,967.300232 413.142883,959.135681 382.526733,947.297485 
	C363.911469,940.099487 345.486145,932.355042 326.299347,926.734863 
	C323.416199,925.890320 322.950348,924.376953 322.957581,921.736389 
	C323.036499,892.906311 323.047943,864.075928 322.950531,835.245972 
	C322.939453,831.971191 323.636932,831.278442 327.149414,831.515076 
	C353.390198,833.282593 379.583588,836.296082 405.934418,835.702148 
	C423.127441,835.314697 440.146667,833.503723 456.271545,826.789734 
	C468.104980,821.862671 477.241669,813.512268 485.869476,804.317932 
	C502.286652,786.822632 518.926819,769.536499 535.499878,752.187927 
	C537.143311,750.467529 538.596802,749.234985 536.981873,746.317139 
	C509.892517,697.372192 482.941498,648.350830 455.947144,599.353333 
	C455.720673,598.942322 455.322418,598.625916 454.523254,597.719910 
	C453.596344,599.912170 452.743134,601.757263 452.025085,603.653503 
	C431.462585,657.955139 410.862671,712.242798 390.466156,766.606689 
	C388.952026,770.642395 387.314453,771.323853 383.239685,770.483887 
	C352.535919,764.154358 321.527618,760.271423 290.137970,759.901611 
	C272.668488,759.695801 255.263123,758.106628 237.784119,757.781006 
	C224.250092,757.528809 210.651978,756.817444 197.167023,755.702759 
	C187.303268,754.887512 177.258514,756.524109 167.241837,753.190857 
	C171.905167,740.798279 176.668564,728.077576 181.476196,715.373596 
	C220.988815,610.963318 260.530090,506.563812 300.012634,402.142120 
	C309.008667,378.349854 319.636383,355.442230 336.176392,335.818970 
	C352.015228,317.027649 371.173187,303.694702 396.294098,300.598755 
	C420.312592,297.638611 441.689667,304.512390 461.399933,317.814026 
	C478.507477,329.359192 491.479980,344.933258 504.084991,360.964996 
	C545.574585,413.733795 587.221008,466.379242 628.813110,519.067444 
	C629.217346,519.579468 629.701904,520.028137 630.678894,521.073303 
	C634.136902,512.093689 637.480347,503.541534 640.729614,494.953735 
	C665.987610,428.196808 691.224670,361.431946 716.477112,294.672913 
	C719.017883,287.955933 719.044006,287.872467 712.048767,287.983459 
	C691.033875,288.316895 670.074585,288.236237 649.692505,281.969086 
	C624.533936,274.233246 603.087524,261.520782 589.983704,237.596375 
	C581.328125,221.793457 578.631531,204.639603 579.241577,186.926895 
	C579.802124,170.652634 583.308044,154.964493 590.034180,140.029663 
	C591.388306,137.022827 592.980591,135.922043 596.372803,135.923981 
	C762.021545,136.018707 927.670288,136.021378 1093.319092,135.921188 
	C1097.357300,135.918747 1098.610840,137.150818 1099.192139,141.102921 
	C1102.706055,164.989624 1101.127563,188.321960 1091.643188,210.690659 
	C1079.595337,239.104950 1057.499268,257.363373 1030.072998,269.789368 
	C1005.050171,281.126526 978.525940,286.320282 951.230164,287.806030 
	C947.988464,287.982483 946.689941,289.148743 945.608276,292.016632 
	C939.104309,309.260345 933.059570,326.691620 926.366760,343.840698 
	C910.350220,384.880096 895.121094,426.213287 879.366760,467.348633 
	C866.096313,501.998352 853.099243,536.752808 839.866699,571.833008 
z"/>
<path fill="#3B3B3B" opacity="1.000000" stroke="none" 
	d="
M303.206726,764.671204 
	C304.704651,763.672119 306.435486,763.837830 308.374176,764.435669 
	C306.659882,765.401001 305.032135,764.913940 303.206726,764.671204 
z"/>
</svg>