<svg viewBox="0 0 500 508" fill="none" xmlns="http://www.w3.org/2000/svg">
<g id="Color=Dark">
<g id="Ottawa Senators (OTT)">
<g id="Frame" clip-path="url(#clip0_37:9814)">
<path id="Vector" d="M453.38 163.83C423.923 134.204 383.929 117.453 342.151 117.242C345.563 102.189 350.271 87.459 356.224 73.2179L356.353 72.9278C356.961 71.4277 357.196 69.8027 357.038 68.1919C356.88 66.5811 356.334 65.0327 355.446 63.6792C354.559 62.3258 353.356 61.2077 351.942 60.4208C350.528 59.6339 348.944 59.2017 347.326 59.1611H347.035C345.166 59.1611 343.247 59.1611 341.329 59.1611C313.821 59.2543 286.542 64.1646 260.728 73.6693C225.393 86.9685 197.118 108.408 176.71 137.425C164.705 154.422 155.899 173.465 150.724 193.62C149.853 197.069 149.112 200.551 148.354 204.017C147.193 204.017 146.033 204.017 144.856 204.017C128.106 203.775 111.399 202.245 94.8834 199.439C77.8283 196.715 49.4406 187.22 43.2988 184.931C39.0431 183.319 34.5939 181.513 30.0803 179.547L24.9218 177.274L0 166.215L14.9757 195.393C19.4075 205.149 24.4135 214.633 29.9674 223.797C39.4366 238.92 51.4961 252.256 65.5931 263.194L79.2307 288.439C86.0361 301.507 94.393 313.707 104.12 324.774C108.414 329.43 113.036 333.772 117.951 337.766C123.131 342.013 128.701 345.759 134.587 348.954L141.68 364.332C146.913 373.778 153.422 382.457 161.025 390.125C168.899 397.481 177.893 403.538 187.671 408.067L188.51 408.421C201.486 413.971 215.488 416.718 229.6 416.481C233.678 416.481 237.95 416.256 242.335 415.82H242.883C246.107 420.012 247.896 423.155 248.138 425.38C248.315 426.992 247.703 428.491 246.526 431.183C245.397 432.909 244.035 434.471 242.48 435.826V435.826C241.384 436.922 240.142 438.147 238.917 439.501L238.563 439.904C237.274 441.344 236.43 443.127 236.133 445.037C235.835 446.946 236.097 448.901 236.886 450.666C237.675 452.43 238.958 453.928 240.58 454.979C242.202 456.03 244.094 456.589 246.026 456.588H246.655H247.187C260.995 455.219 273.721 448.509 282.651 437.889C285.377 434.543 287.748 430.923 289.728 427.088C323.745 438.606 360.658 438.281 394.467 426.166C428.276 414.052 456.994 390.859 475.955 360.358C494.915 329.857 503.004 293.841 498.905 258.161C494.807 222.482 478.763 189.237 453.38 163.83" fill="white"/>
<path id="Vector_2" d="M449.447 167.779C435.222 153.478 418.302 142.141 399.666 134.424C381.03 126.707 361.048 122.762 340.878 122.819C339.072 122.819 337.202 122.819 335.348 122.916C338.821 105.145 344.081 87.7702 351.049 71.0574L351.178 70.7673C351.447 70.1031 351.551 69.3838 351.48 68.6709C351.41 67.9579 351.168 67.2726 350.775 66.6737C350.382 66.0747 349.85 65.5799 349.224 65.2316C348.598 64.8833 347.897 64.6919 347.181 64.6738H346.874C345.053 64.6738 343.199 64.6738 341.329 64.6738C314.489 64.7387 287.868 69.5128 262.679 78.779C228.391 91.6751 201.003 112.454 181.239 140.519C169.639 156.961 161.123 175.374 156.108 194.86C154.851 199.842 153.819 204.678 152.965 209.369H152.481C149.998 209.481 147.435 209.546 144.872 209.546C127.825 209.292 110.822 207.735 94.013 204.887C76.5548 202.098 47.5868 192.426 41.3806 190.073C36.5445 188.219 31.3538 186.123 26.147 183.834L23.7773 182.786L12.4932 177.757L19.038 191.282C23.6514 201.445 28.9176 211.299 34.8035 220.782C50.0532 244.591 68.9461 261.727 92.5783 273.156C106.538 279.911 122.723 282.828 131.122 284.054C138.442 285.016 145.809 285.586 153.19 285.762H154.093C154.528 287.471 155.012 289.196 155.528 290.953H154.625C144.907 290.946 135.205 290.175 125.609 288.648C117.048 287.368 108.594 285.455 100.316 282.925C96.8592 281.907 93.4585 280.707 90.128 279.33L77.7477 273.914L84.1958 285.794C90.7666 298.465 98.8421 310.297 108.247 321.033C112.36 325.488 116.783 329.646 121.482 333.478C126.497 337.581 131.896 341.192 137.602 344.262C152.356 352.567 169.033 356.847 185.963 356.675H189.557C190.879 358.368 192.233 360.044 193.587 361.704C191.975 361.817 190.363 361.866 188.751 361.866C186.462 361.866 183.915 361.769 180.53 361.576C171.599 361.044 156.914 357.819 152.868 355.901L141.245 350.324L146.645 362.043C151.595 370.878 157.705 379.01 164.813 386.223C172.193 393.064 180.589 398.72 189.702 402.988L190.557 403.343C202.844 408.607 216.106 411.211 229.471 410.984V410.984C233.356 410.984 237.45 410.758 241.642 410.355L244.995 410.017C245.701 410.71 246.369 411.442 246.994 412.209C255.892 423.493 254.135 427.491 251.459 433.552C250.08 435.919 248.321 438.043 246.252 439.839V439.839C245.156 440.919 244.028 442.031 242.915 443.256L242.561 443.659C241.992 444.298 241.62 445.086 241.489 445.931C241.358 446.776 241.474 447.64 241.823 448.421C242.173 449.201 242.74 449.863 243.457 450.329C244.174 450.794 245.01 451.042 245.865 451.043H246.155H246.671C258.976 449.823 270.308 443.813 278.218 434.31C281.746 429.999 284.619 425.192 286.746 420.043C319.582 432.361 355.645 433.07 388.94 422.053C422.235 411.035 450.757 388.956 469.766 359.484C488.774 330.011 497.124 294.922 493.428 260.046C489.731 225.171 474.211 192.611 449.447 167.779" fill="black"/>
<path id="Vector_3" d="M489.973 276.332C489.95 300.447 484.084 324.198 472.878 345.551C461.671 366.904 445.457 385.223 425.624 398.942C405.791 412.66 382.93 421.369 358.996 424.322C335.063 427.276 310.77 424.386 288.197 415.901C288.906 413.773 289.486 411.725 289.986 409.775C290.779 406.364 291.318 402.9 291.598 399.41C294.261 398.556 296.862 397.522 299.384 396.315C304.22 394.106 307.444 392.575 308.041 392.333C318.718 395.33 329.756 396.848 340.845 396.847C365.212 396.831 389.002 389.431 409.078 375.621C429.154 361.811 444.573 342.241 453.301 319.491C462.03 296.741 463.658 271.88 457.971 248.186C452.284 224.492 439.55 203.078 421.446 186.768C421.423 185.127 421.668 183.494 422.172 181.932C422.365 181.32 422.542 180.659 422.736 180.014C422.929 179.369 423.107 178.724 423.268 178.16C432.376 187.252 437.679 185.575 437.857 185.479C438.206 185.28 438.6 185.174 439.001 185.172C440.571 185.46 441.99 186.287 443.015 187.51L443.176 187.349L443.321 187.187C443.063 186.881 440.903 184.302 441.919 182.351C442.016 182.126 444.16 176.709 434.536 166.505L434.294 166.247L434.165 166.57C433.615 168.547 433.615 170.637 434.165 172.615V172.873C434.303 174.13 433.97 175.393 433.23 176.419C432.861 176.806 432.411 177.106 431.912 177.298C431.413 177.49 430.878 177.57 430.345 177.531L429.313 177.451C427.825 176.958 426.27 176.697 424.703 176.677H423.784C423.945 176.242 424.155 175.79 424.38 175.307C424.797 174.456 425.126 173.564 425.363 172.647L425.976 172.55C427.431 172.744 428.794 173.367 429.893 174.34V174.34L430.022 174.162L430.151 173.969C429.877 173.727 427.362 171.454 428.088 169.31C428.088 169.068 429.523 163.41 418.577 154.625L418.303 154.399V154.737C418.022 156.776 418.295 158.853 419.093 160.75V160.992C419.266 161.63 419.307 162.297 419.213 162.951C419.119 163.605 418.891 164.233 418.545 164.796C418.089 165.294 417.525 165.68 416.896 165.923C416.266 166.167 415.589 166.261 414.918 166.199C413.976 166.028 413.021 165.942 412.064 165.941C410.703 165.884 409.345 166.12 408.083 166.634L407.776 166.795L408.05 167.005C409.934 168.528 411.951 169.877 414.079 171.035L413.499 171.261L411.887 171.857C410.501 172.357 409.13 172.937 408.212 173.34C407.335 173.731 406.48 174.167 405.648 174.646C386.286 162.265 363.779 155.696 340.797 155.721C338.137 155.721 335.461 155.817 332.737 155.995C332.386 146.417 333.023 136.828 334.639 127.381C336.735 127.285 338.846 127.236 340.942 127.236C380.471 127.262 418.372 142.981 446.317 170.938C474.263 198.895 489.965 236.803 489.973 276.332Z" fill="#AF8439"/>
<path id="Vector_4" d="M308.137 318.713C315.133 326.176 321.308 332.753 323.693 338.057C323.806 338.331 323.935 338.605 324.032 338.863C324.129 339.121 324.257 339.491 324.354 339.798C324.451 340.104 324.483 340.265 324.532 340.491C324.725 341.361 324.886 342.216 324.999 343.038C325.112 343.86 325.192 344.65 325.257 345.391C325.321 346.133 325.257 346.858 325.257 347.552C325.257 348.245 325.257 348.986 325.176 349.647C325.096 350.308 325.08 350.695 325.031 351.179C325.023 351.334 325.023 351.49 325.031 351.646C324.806 353.258 324.467 354.741 324.177 356.031C326.514 354.112 329.787 351.195 332.334 348.873L333.011 348.245L335.219 346.214L336.17 345.359L337.154 344.473L339.233 342.667C341.893 340.346 344.601 337.992 346.713 335.719C347.857 334.527 348.853 333.201 349.679 331.77L349.872 331.399C350.672 330.206 351.103 328.805 351.114 327.369C351.105 326.937 351.067 326.506 351.001 326.079C350.888 325.248 350.666 324.435 350.34 323.661C349.709 322.274 348.902 320.974 347.938 319.793C346.799 318.288 345.67 316.869 344.553 315.537C343.715 314.537 342.941 313.57 342.086 312.651L340.587 310.943L338.862 309.073C338.524 308.686 338.169 308.315 337.831 307.944L337.009 307.058L336.025 306.01C335.962 305.955 335.903 305.896 335.848 305.832L335.219 305.155L334.526 304.43C329.996 299.594 326.821 296.064 325.45 292.13C325.209 291.478 325.036 290.803 324.935 290.115C324.927 289.97 324.927 289.825 324.935 289.68C324.935 289.68 324.935 289.599 324.935 289.551C324.791 288.483 324.764 287.402 324.854 286.327C326.305 276.349 338.782 269.659 347.616 280.749L351.065 285.054C351.065 285.054 367.315 305.558 376.003 316.069L380.469 321.356L380.888 321.791C388.222 330.4 401.57 337.218 404.778 338.685L403.988 337.734C401.795 335.076 399.826 332.24 398.104 329.255C397.588 328.32 397.089 327.369 396.653 326.402L396.395 325.822C396.089 325.161 395.799 324.5 395.509 323.807L394.928 322.436C393.894 319.903 393.054 317.295 392.414 314.634C392.172 313.602 391.962 312.587 391.785 311.604C391.688 311.088 391.608 310.55 391.543 309.991V309.734C391.543 309.202 391.398 308.67 391.35 308.122C391.301 307.573 391.269 307.412 391.237 307.074C391.205 306.735 391.14 306.026 391.108 305.462V305.349C391.108 304.833 391.108 304.333 391.027 303.834C391.027 303.044 391.027 302.222 391.027 301.561C391.027 300.9 391.027 300.158 391.027 299.513C391.027 297.901 391.237 296.499 391.382 295.483C391.374 295.441 391.374 295.397 391.382 295.354C391.479 294.613 391.575 294.049 391.64 293.742C390.998 293.6 390.368 293.411 389.754 293.178C387.467 292.353 385.375 291.064 383.612 289.39C382.449 288.294 381.46 287.027 380.678 285.634C377.84 280.724 376.277 275.182 376.132 269.514L374.665 270.61C372.381 272.484 369.9 274.106 367.266 275.446C364.791 276.613 362.147 277.38 359.432 277.719C358.655 277.803 357.875 277.846 357.094 277.848C356.443 277.848 355.792 277.816 355.144 277.751C354.51 277.678 353.88 277.57 353.258 277.429C345.198 275.543 340.12 271.771 337.492 265.564C336.888 264.161 336.46 262.688 336.219 261.18C336.219 260.809 336.122 260.422 336.09 260.051C336.057 259.68 336.09 259.294 336.09 258.907C336.033 258.139 336.033 257.369 336.09 256.601C336.252 254.787 336.576 252.99 337.057 251.233C337.17 250.83 337.283 250.427 337.428 250.024C337.573 249.621 337.702 249.218 337.863 248.815C338.339 247.602 338.939 246.441 339.652 245.35C339.894 244.995 340.136 244.64 340.41 244.286C341.101 243.409 341.885 242.609 342.747 241.9C343.294 241.467 343.87 241.074 344.472 240.723L345.101 240.368C345.54 240.138 345.992 239.934 346.455 239.756C346.779 239.614 347.113 239.495 347.454 239.401C348.504 239.105 349.588 238.954 350.679 238.95C352.587 238.895 354.481 239.307 356.194 240.15C357.908 240.992 359.39 242.241 360.512 243.786C360.512 243.625 360.625 243.431 360.705 243.238C361.173 241.835 361.769 239.724 362.446 237.241C364.298 230.19 366.543 223.247 369.168 216.446C369.604 215.366 370.039 214.254 370.474 213.141L371.49 210.562C373.892 204.533 376.519 198.52 380.436 193.717C375.783 190.434 370.672 187.854 365.267 186.059L364.155 185.689C359.466 184.194 354.568 183.459 349.647 183.513H348.792C340.574 183.497 332.408 184.815 324.612 187.414L323.145 187.929C320.969 188.735 318.825 189.654 316.697 190.686L314.65 191.718L313.683 192.217C307.685 195.47 302.194 199.581 297.385 204.42V204.42C290.73 211.109 285.384 218.982 281.62 227.633C280.111 231.118 278.871 234.712 277.912 238.386C276.758 242.557 275.95 246.816 275.494 251.121C275.026 255.607 275.124 260.135 275.784 264.597C275.929 265.677 276.123 266.773 276.364 267.821C276.671 269.433 277.074 271.045 277.557 272.657L277.847 273.608C279.46 278.774 281.588 283.764 284.199 288.503C285.561 290.99 287.057 293.401 288.68 295.725C294.607 303.828 301.121 311.484 308.17 318.632" fill="#AF8439"/>
<path id="Vector_5" d="M431.441 308.331L429.829 315.311L434.343 334.317C434.343 334.317 421.14 336.396 415.256 337.283C413.451 343.344 404.391 367.153 404.391 367.153L402.57 366.267C401.264 353.258 394.51 346.6 386.756 341.619C382.366 338.948 377.646 336.862 372.715 335.413C366.259 333.456 359.655 332.028 352.968 331.141C353.971 328.548 353.971 325.674 352.968 323.081C351.599 320.145 349.8 317.428 347.632 315.021C355.902 313.618 356.853 307.783 356.514 304.22C355.483 306.042 351.066 313.505 344.553 312.038C331.157 296.257 328.868 295.402 327.579 290.308C327.174 288.241 327.395 286.1 328.213 284.159C329.032 282.218 330.41 280.565 332.173 279.411C339.169 275.059 343.457 279.411 350.598 288.374C354.37 293.097 367.944 311.12 376.874 321.243C383.066 328.343 390.578 334.173 398.991 338.411C402.235 340.061 405.584 341.494 409.018 342.699L410.13 340.926C405.831 336.464 402.184 331.417 399.297 325.934C397.258 321.879 395.699 317.6 394.655 313.183C393.224 306.057 393.191 298.721 394.558 291.582C394.558 291.582 388.287 292.614 382.452 284.005C380.672 280.617 379.515 276.937 379.034 273.14C378.716 271.08 378.522 269.002 378.454 266.918C389.19 257.117 403.795 239.61 409.389 238.305C411.081 241.819 435.503 293.613 435.503 293.613L430.023 296.241V302.205L415.724 312.683L431.441 308.331Z" fill="white"/>
<path id="Vector_6" d="M265.773 429.475C265.829 429.171 265.867 428.864 265.886 428.556C266.417 423.112 265.293 417.634 262.662 412.838C260.951 409.481 258.781 406.378 256.214 403.618C252.534 399.589 248.426 395.973 243.963 392.833C243.463 392.495 195.199 357.562 174.388 306.929C161.764 276.71 158.398 243.422 164.716 211.288C166.182 203.962 168.093 196.732 170.439 189.638V189.397C176.952 168.972 187.547 150.083 201.583 133.879C232.082 99.3169 281.055 78.5218 336.219 76.6357C331.656 88.486 327.997 100.665 325.273 113.067C324.661 115.743 319.421 139.23 320.743 158.349C304.099 163.213 288.683 171.572 275.526 182.868C266.255 190.923 258.569 200.638 252.861 211.513C247.698 221.673 244.551 232.736 243.592 244.092C243.479 245.06 243.366 245.995 243.237 246.881C241.625 258.423 245.478 287.746 261.566 306.413C265.983 311.539 272.109 319.132 279.863 328.739L279.959 328.868C285.118 335.316 290.959 342.522 297.482 350.486C292.199 355.897 288.05 362.309 285.279 369.346C283.106 374.34 281.647 379.615 280.943 385.015C280.717 386.966 280.556 389.013 280.394 391.157C280.108 397.604 279.086 403.996 277.348 410.211C276.175 414.172 274.496 417.965 272.351 421.495C270.528 424.463 268.316 427.174 265.773 429.555" fill="#E90012"/>
<path id="Vector_7" d="M347.067 69.1074H346.745C344.988 69.1074 343.15 69.1074 341.329 69.1074C315.02 69.1633 288.925 73.8281 264.226 82.8902C230.809 95.4639 204.098 115.711 184.866 143.035C173.575 159.032 165.284 176.948 160.396 195.909C150.724 234.436 153.948 263.614 156.769 277.638C160.076 292.919 165.337 307.709 172.421 321.646C173.824 324.371 180.949 336.928 185.688 343.779C190.53 350.808 195.772 357.552 201.389 363.978C206.471 369.84 211.851 375.436 217.509 380.743C218.831 381.984 219.96 383.064 221.04 384.144C226.294 389.227 231.884 393.95 237.773 398.282C243.173 402.441 247.832 406.019 250.556 409.453C261.131 422.833 258.616 428.668 255.569 435.407C253.988 438.272 251.915 440.837 249.444 442.983C248.38 444.047 247.267 445.127 246.22 446.207L245.865 446.594H246.397C257.454 445.498 267.64 440.109 274.768 431.586C280.063 424.983 283.794 417.268 285.682 409.018C286.686 404.394 287.332 399.7 287.616 394.977C287.89 391.979 288.164 388.884 288.583 385.837C289.274 380.918 290.669 376.124 292.726 371.603C295.188 365.893 298.649 360.669 302.947 356.176C301.802 354.999 300.69 353.79 299.577 352.565C295.021 357.547 291.278 363.215 288.487 369.362C285.646 375.546 283.942 382.192 283.457 388.98C283.36 390.109 283.28 391.06 283.135 391.995C282.99 392.93 282.893 394.268 282.78 395.751C282.497 404.651 280.199 413.37 276.058 421.253C272.378 428.15 266.779 433.833 259.938 437.615C262.384 433.632 263.428 428.945 262.904 424.3C261.856 412.677 252.845 403.682 245.478 398.185C223.968 382.378 205.197 363.149 189.912 341.265C175.71 320.631 166.296 299.191 161.911 277.541C156.578 251.112 157.472 223.803 164.522 197.779C171.115 173.125 183.363 150.346 200.293 131.251C233.082 94.803 281.555 74.9591 340.539 73.8307L339.862 75.7651C336.638 84.7279 333.414 94.0131 330.705 104.233C328.61 112.148 326.901 120.16 325.466 128.704C323.798 138.28 323.257 148.018 323.854 157.72L328.449 156.672C326.724 125.883 337.573 92.2721 346.971 69.3331L347.067 69.1074Z" fill="#AF8439"/>
<path id="Vector_8" d="M400.748 396.444L400.667 396.315L400.764 396.525L400.748 396.444Z" fill="#AF8439"/>
<path id="Vector_9" d="M426.073 291.565L415.127 298.191L415.401 298.852L433.649 294.467L426.073 291.565Z" fill="black"/>
<path id="Vector_10" d="M413.983 266.773C413.921 265.427 413.609 264.104 413.064 262.872C412.338 261.76 416.288 260.051 416.288 260.051L414.208 258.906L413.709 259.809L404.327 263.033L396.492 269.481L403.198 267.321L416.997 269.078L413.983 266.773Z" fill="black"/>
<path id="Vector_11" d="M376.197 148.338C376.503 147.857 376.941 147.474 377.458 147.234C377.975 146.994 378.55 146.907 379.115 146.984C379.971 146.995 380.822 147.119 381.646 147.354V147.354V147.145V146.919C381.275 146.79 378.067 145.742 377.858 143.486C377.858 143.244 376.794 137.505 363.237 133.814L362.898 133.717V134.055C363.469 136.052 364.585 137.85 366.122 139.246L366.267 139.423C366.678 139.944 366.98 140.542 367.157 141.181C367.335 141.821 367.383 142.489 367.299 143.147C367.087 143.786 366.729 144.366 366.253 144.842C365.777 145.318 365.197 145.676 364.558 145.888C362.251 146.316 360.13 147.441 358.481 149.112L358.255 149.386L358.594 149.466C361.603 150.306 364.707 150.761 367.831 150.82C374.021 150.82 375.971 148.451 376.068 148.322" fill="black"/>
<path id="Vector_12" d="M395.702 153.335C396.816 153.384 397.911 153.646 398.926 154.109V154.109L399.023 153.915V153.69C398.684 153.529 395.638 152.078 395.799 149.773C395.799 149.531 395.573 143.695 382.645 138.231L382.322 138.102V138.456C382.595 140.496 383.427 142.42 384.724 144.018L384.853 144.227C385.194 144.796 385.414 145.428 385.5 146.086C385.586 146.743 385.536 147.411 385.353 148.048C385.054 148.651 384.618 149.176 384.081 149.582C383.544 149.987 382.92 150.263 382.258 150.385C379.926 150.479 377.678 151.277 375.81 152.674L375.552 152.9L375.874 153.045C379.568 154.731 383.553 155.689 387.61 155.866C391.688 155.866 393.252 154.415 393.332 154.254C393.603 153.913 393.953 153.643 394.352 153.469C394.751 153.295 395.187 153.221 395.621 153.255" fill="black"/>
<path id="Vector_13" d="M412.693 158.477C412.693 158.236 413.322 152.448 401.264 145.243L400.974 145.065V145.42C400.975 147.475 401.532 149.491 402.586 151.256L402.683 151.481C402.941 152.091 403.074 152.746 403.074 153.408C403.074 154.07 402.941 154.725 402.683 155.334C402.302 155.888 401.798 156.346 401.211 156.673C400.624 157 399.969 157.187 399.297 157.22H398.701C396.567 157.098 394.443 157.584 392.575 158.622L392.301 158.816L392.591 158.993C399.04 162.765 403.327 163.555 405.826 163.555C407.186 163.653 408.544 163.345 409.727 162.669C409.958 162.424 410.239 162.233 410.55 162.108C410.862 161.982 411.197 161.926 411.533 161.943C412.846 162.061 414.112 162.492 415.224 163.201V163.201L415.353 163.007L415.434 162.798C415.111 162.588 412.323 160.702 412.726 158.461" fill="black"/>
<path id="Vector_14" d="M449.414 199.729L450.269 199.552C452.235 199.552 454.041 202.147 454.234 202.453L454.412 202.324L454.573 202.163C454.363 201.841 452.574 198.939 453.847 197.118C453.976 196.892 456.846 191.83 448.737 180.385L448.544 180.095L448.367 180.401C447.519 182.284 447.212 184.366 447.48 186.414V186.64C447.48 186.817 447.383 190.782 443.821 190.782C443.216 190.77 442.615 190.684 442.031 190.524C440.229 189.59 438.241 189.072 436.212 189.009C435.922 188.985 435.631 188.985 435.341 189.009H435.003L435.196 189.299C441.886 198.617 446.932 199.616 448.786 199.616L449.414 199.729Z" fill="black"/>
<path id="Vector_15" d="M458.861 215.333H459.409C461.521 215.333 463.085 218.412 463.246 218.767L463.456 218.67L463.633 218.541C463.472 218.186 462.021 215.107 463.633 213.431C463.794 213.237 467.341 208.595 460.876 196.15L460.715 195.844L460.506 196.118C459.407 197.861 458.816 199.876 458.797 201.937V202.179C458.797 202.34 458.2 205.822 455.202 205.822C454.394 205.795 453.6 205.609 452.865 205.274C451.02 203.901 448.823 203.079 446.529 202.904H446.094L446.255 203.227C452.462 215.027 458.136 215.365 458.765 215.365L458.861 215.333Z" fill="black"/>
<path id="Vector_16" d="M466.035 232.099H466.309C468.581 232.099 469.791 235.629 469.919 236.048H470.129L470.339 235.935C470.226 235.564 469.275 232.324 471.032 230.873C471.209 230.712 475.352 226.618 470.677 213.383L470.564 213.061L470.306 213.302C468.984 214.881 468.125 216.795 467.824 218.832L467.743 219.057C467.743 219.057 466.792 222.201 464.181 222.201C463.207 222.157 462.264 221.844 461.456 221.298C459.805 219.648 457.701 218.526 455.411 218.074H455.073L455.186 218.412C459.941 231.615 465.744 232.147 466.018 232.163" fill="black"/>
<path id="Vector_17" d="M467.824 238.337C466.412 236.477 464.483 235.075 462.278 234.307L461.94 234.226V234.581C464.825 248.315 470.5 249.637 470.774 249.702C473.24 249.702 473.998 253.667 474.078 254.135H474.288L474.514 254.054C474.514 253.683 473.966 250.33 475.884 249.137C476.093 248.992 480.72 245.527 477.963 231.776V231.438L477.689 231.631C476.165 233.018 475.05 234.797 474.465 236.773L474.369 236.983C474.369 236.983 473.143 239.643 470.838 239.643C469.718 239.569 468.657 239.107 467.84 238.337" fill="black"/>
<path id="Vector_18" d="M360.157 142.615C360.641 135.281 338.121 141.132 338.121 141.132C338.121 141.132 359.674 149.708 360.157 142.615Z" fill="black"/>
<path id="Vector_19" d="M346.971 410.13V410.34V409.904H346.777C346.052 409.904 342.425 409.791 341.941 407.502C341.845 407.277 339.41 401.973 325.386 401.86H325.047L325.192 402.183C326.354 404.19 328.096 405.797 330.19 406.793C330.761 407.163 331.237 407.662 331.579 408.25C331.92 408.838 332.118 409.499 332.156 410.178C332.069 410.836 331.849 411.469 331.511 412.039C331.173 412.61 330.724 413.106 330.19 413.499L330.077 413.596C328.218 414.551 326.669 416.016 325.612 417.819L325.45 418.126H325.934C339.862 418.126 342.328 412.903 342.425 412.661C343.215 410.549 346.584 410.356 346.971 410.34V410.13Z" fill="black"/>
<path id="Vector_20" d="M365.509 408.292V408.066V408.275L365.429 407.84V407.985V407.776C364.928 407.864 364.421 407.907 363.913 407.905C362.495 407.905 360.689 407.598 360.141 406.083C360.045 405.938 357.804 402.392 348.68 402.392C346.766 402.407 344.855 402.542 342.957 402.795H342.619L342.796 403.101C344.24 404.912 346.186 406.257 348.39 406.97C349.007 407.27 349.545 407.713 349.957 408.263C350.369 408.812 350.644 409.452 350.759 410.129C350.762 410.79 350.632 411.444 350.377 412.053C350.123 412.662 349.748 413.214 349.276 413.676L349.083 413.869C347.425 415.073 346.127 416.706 345.327 418.592L345.23 418.931H345.569C359.464 417.029 361.205 411.467 361.27 411.225C361.753 409.017 365.058 408.372 365.461 408.308L365.509 408.292Z" fill="black"/>
<path id="Vector_21" d="M383.499 403.294C382.656 403.544 381.783 403.68 380.904 403.697C380.344 403.77 379.775 403.681 379.264 403.441C378.753 403.201 378.321 402.82 378.018 402.343C377.938 402.247 376.036 399.974 370.087 399.974C366.855 400.043 363.645 400.542 360.544 401.457L360.222 401.553L360.447 401.827C362.122 403.433 364.238 404.5 366.525 404.89C367.173 405.088 367.765 405.436 368.253 405.907C368.74 406.378 369.109 406.957 369.33 407.598C369.426 408.255 369.391 408.924 369.225 409.566C369.058 410.209 368.765 410.811 368.362 411.338L368.217 411.5C366.725 412.93 365.655 414.742 365.122 416.739V417.093L365.461 416.997C378.969 413.192 379.969 407.437 379.969 407.179C380.146 404.939 383.354 403.842 383.709 403.713V403.504L383.822 403.713L383.499 403.294Z" fill="black"/>
<path id="Vector_22" d="M400.732 396.299L400.812 396.412V396.492L400.716 396.299C399.701 396.767 398.607 397.04 397.491 397.105C397.061 397.138 396.63 397.065 396.234 396.894C395.838 396.723 395.489 396.458 395.219 396.122C395.219 396.122 393.607 394.671 389.722 394.671C385.591 394.86 381.541 395.874 377.809 397.653L377.486 397.782L377.744 398.024C379.628 399.379 381.873 400.143 384.192 400.216C384.873 400.32 385.52 400.583 386.08 400.984C386.64 401.384 387.098 401.911 387.416 402.521C387.598 403.156 387.652 403.821 387.574 404.477C387.497 405.133 387.29 405.767 386.965 406.342L386.884 406.487C385.579 408.121 384.753 410.085 384.499 412.161V412.5L384.821 412.355C397.717 406.729 397.814 400.909 397.814 400.651C397.685 398.395 400.699 396.863 401.038 396.702L400.957 396.492L401.07 396.67L400.732 396.299Z" fill="black"/>
<path id="Vector_23" d="M416.852 387.013L416.933 387.126L416.82 386.949C415.706 387.686 414.426 388.135 413.096 388.255C412.76 388.269 412.425 388.213 412.111 388.091C411.797 387.969 411.513 387.783 411.275 387.545C410.144 386.919 408.856 386.633 407.567 386.723C405.052 386.723 400.684 387.545 394.235 391.463L393.929 391.656L394.235 391.849C396.038 392.821 398.075 393.273 400.119 393.155H400.909C401.589 393.166 402.256 393.339 402.856 393.658C403.455 393.978 403.971 394.435 404.359 394.993C404.623 395.601 404.759 396.256 404.759 396.919C404.759 397.582 404.623 398.238 404.359 398.846V398.991C403.273 400.782 402.714 402.844 402.747 404.939V405.278L403.037 405.1C414.982 397.749 414.321 391.962 414.321 391.704C413.886 389.496 416.659 387.545 416.981 387.336L416.852 387.158L417.013 387.32L416.852 387.013Z" fill="black"/>
<path id="Vector_24" d="M431.441 375.584C430.345 376.579 428.974 377.219 427.508 377.422C426.981 377.428 426.468 377.252 426.057 376.922C425.316 376.619 424.519 376.482 423.72 376.519C421.044 376.519 416.433 377.68 409.711 383.16L409.437 383.386L409.759 383.531C410.962 384.013 412.253 384.232 413.548 384.176C414.559 384.174 415.569 384.077 416.562 383.886H416.691C417.348 383.822 418.011 383.913 418.627 384.151C419.242 384.389 419.794 384.767 420.238 385.256C420.59 385.814 420.825 386.437 420.927 387.089C421.03 387.74 420.998 388.406 420.834 389.044V389.189C420.034 391.12 419.777 393.233 420.092 395.299L420.189 395.638L420.447 395.412C431.28 386.481 429.829 380.904 429.748 380.597C429.007 378.469 431.489 376.164 431.78 375.906L431.635 375.745L431.812 375.89L431.441 375.584Z" fill="black"/>
<path id="Vector_25" d="M444.385 362.237C443.373 363.483 441.95 364.329 440.371 364.623C439.97 364.622 439.575 364.517 439.227 364.317C438.811 364.211 438.383 364.162 437.953 364.172C435.68 364.172 430.844 365.284 423.913 372.748L423.671 373.006L423.993 373.118C424.672 373.292 425.372 373.374 426.073 373.36C427.675 373.334 429.263 373.056 430.78 372.538C431.472 372.347 432.202 372.337 432.899 372.509C433.596 372.682 434.238 373.03 434.762 373.521C435.518 374.528 435.864 375.784 435.729 377.036V377.294C435.213 379.286 435.252 381.382 435.842 383.355L435.987 383.677L436.212 383.419C445.707 373.07 443.483 367.686 443.386 367.444C442.354 365.445 444.498 362.818 444.74 362.527L444.579 362.382L444.772 362.495L444.385 362.237Z" fill="black"/>
<path id="Vector_26" d="M455.347 347.262C455.137 347.568 453.364 350.212 451.381 350.212L450.527 350.034H450.027C448.577 350.034 443.305 350.792 436.503 360.529L436.309 360.819H436.648C436.905 360.837 437.164 360.837 437.421 360.819C439.474 360.734 441.481 360.183 443.289 359.207C443.899 359.008 444.534 358.9 445.175 358.884C448.673 358.884 448.818 362.818 448.818 362.979V363.382C448.581 365.442 448.915 367.528 449.786 369.411L449.963 369.717L450.156 369.427C458.12 357.869 455.186 352.839 454.992 352.63C453.687 350.792 455.444 347.907 455.653 347.568L455.476 347.455L455.669 347.536L455.347 347.262Z" fill="black"/>
<path id="Vector_27" d="M464.536 331.141L464.326 331.061H464.552L464.149 330.867C463.988 331.222 462.456 334.349 460.344 334.349H459.764C459.135 334.349 453.477 334.688 447.4 346.649L447.271 346.971H447.481C449.771 346.793 451.961 345.953 453.784 344.553C454.533 344.186 455.352 343.983 456.185 343.957C459.152 343.957 459.764 347.39 459.78 347.535V347.793C459.827 349.849 460.44 351.852 461.553 353.581L461.779 353.855L461.924 353.548C468.227 341.007 464.616 336.429 464.455 336.219C462.843 334.607 464.262 331.48 464.455 331.125" fill="black"/>
<path id="Vector_28" d="M470.839 314.376H470.645H470.855L470.436 314.247C470.307 314.65 469.114 318.213 466.825 318.213H466.534C466.293 318.213 460.489 318.809 455.831 332.06L455.718 332.382H456.072C458.34 331.921 460.421 330.799 462.053 329.158C462.87 328.589 463.831 328.259 464.826 328.207C467.405 328.207 468.388 331.302 468.388 331.334V331.463C468.687 333.537 469.57 335.483 470.935 337.073L471.177 337.315L471.29 336.993C475.884 323.726 471.709 319.663 471.516 319.486C469.775 318.068 470.677 314.827 470.79 314.441" fill="black"/>
<path id="Vector_29" d="M476.271 301.883C474.353 300.691 474.853 297.338 474.901 296.967H474.691H474.885H474.45C474.369 297.418 473.611 301.352 471.097 301.416C470.871 301.416 465.197 302.802 462.327 316.537L462.247 316.875L462.585 316.795C464.787 316.055 466.711 314.66 468.098 312.797C468.924 312.004 470.003 311.53 471.145 311.459C473.434 311.459 474.659 314.086 474.675 314.119V314.248C475.247 316.253 476.363 318.061 477.899 319.471L478.173 319.68V319.326C480.978 305.575 476.287 302.109 476.078 301.964" fill="black"/>
<path id="Vector_30" d="M303.333 404.504C303.333 404.504 323.548 416.03 324.983 408.808C326.369 401.844 303.333 404.504 303.333 404.504Z" fill="black"/>
<path id="Vector_31" d="M476.207 268.53C474.855 268.53 473.533 268.931 472.409 269.682C471.285 270.433 470.409 271.501 469.892 272.75C469.375 273.999 469.239 275.373 469.503 276.699C469.767 278.025 470.418 279.242 471.374 280.198C472.329 281.154 473.547 281.805 474.873 282.069C476.199 282.333 477.573 282.197 478.822 281.68C480.071 281.163 481.139 280.287 481.89 279.163C482.641 278.039 483.042 276.717 483.042 275.365C483.042 273.552 482.321 271.814 481.04 270.532C479.758 269.25 478.019 268.53 476.207 268.53" fill="black"/>
<path id="Vector_32" d="M419.512 181.224C420.182 178.839 421.078 176.523 422.188 174.308C422.633 173.594 422.934 172.8 423.075 171.971V171.874H422.994L422.398 171.777C418.916 171.777 404.101 175.904 389.754 188.526C382.794 194.796 377.546 202.734 374.504 211.594L374.118 212.561C368.738 226.316 364.521 240.498 361.512 254.957C360.641 251.621 359.384 247.703 358.046 246.075C357.216 244.943 356.134 244.019 354.887 243.376C353.639 242.733 352.26 242.388 350.856 242.368C350.262 242.37 349.669 242.418 349.083 242.513C347.226 242.931 345.508 243.821 344.096 245.098C342.684 246.374 341.626 247.994 341.023 249.799V249.912C339.778 252.844 339.195 256.014 339.314 259.197C339.357 261.488 339.943 263.737 341.023 265.758C342.627 268.582 344.975 270.911 347.812 272.492C350.649 274.072 353.866 274.843 357.111 274.721C358.03 274.721 359.013 274.721 359.996 274.576C363.104 274.18 366.069 273.034 368.637 271.239C375.214 266.854 380.517 261.212 386.143 255.248C389.367 251.879 392.591 248.38 396.186 245.124C400.032 241.495 404.227 238.255 408.712 235.452C412.322 233.267 416.24 231.637 420.334 230.616L420.931 230.277L420.802 229.504L420.673 229.165C419.155 224.863 418.075 220.418 417.449 215.898C416.555 210.504 416.247 205.029 416.53 199.569C416.936 193.372 417.935 187.229 419.512 181.224" fill="#AF8439"/>
<path id="Vector_33" d="M310.765 380.566C315.021 378.631 319.406 376.633 324.032 374.666C332.731 370.873 341.703 367.742 350.872 365.3C360.817 362.316 371.12 360.689 381.501 360.464H381.71C385.379 360.493 389.033 360.925 392.608 361.754C388.416 349.26 373.731 344.973 368.169 343.344C361.085 341.576 353.898 340.252 346.649 339.379H346.069L346.536 339.04C347.68 338.183 348.685 337.155 349.518 335.994L350.26 335.091V334.994H350.389C357.488 335.829 364.5 337.285 371.345 339.347C377.36 341.123 383.029 343.908 388.11 347.584C390.765 349.641 393.035 352.151 394.816 354.999C397.427 358.997 398.33 365.236 398.314 369.379V369.83L397.976 369.62C395.117 367.662 391.856 366.368 388.432 365.832C386.006 365.515 383.561 365.359 381.114 365.365C373.785 365.475 366.493 366.433 359.384 368.218C351.505 370.111 343.743 372.463 336.138 375.262C327.272 378.486 320.292 381.565 310.652 385.886L306.252 387.885C301.658 390.089 296.956 392.058 292.163 393.784C292.324 391.995 292.485 390.19 292.695 388.384C299.143 385.821 305.043 383.129 310.765 380.518" fill="#AF8439"/>
<path id="Vector_34" d="M229.552 406.503C216.78 406.725 204.106 404.241 192.362 399.217L191.492 398.846C182.903 394.804 174.986 389.465 168.021 383.016C161.284 376.19 155.479 368.504 150.756 360.157L150.498 359.609L151.046 359.883C156.028 362.253 171.358 365.445 180.353 365.977C183.77 366.186 186.462 366.267 188.832 366.267C191.848 366.268 194.861 366.106 197.859 365.783L198.472 366.477C199.713 367.911 200.89 369.217 201.986 370.442C198.891 370.748 195.296 370.926 190.589 371.039H189.783C183.915 371.039 167.296 369.797 162.379 368.572C171.777 380.743 180.208 389.029 194.974 395.171C200.4 397.397 206.054 399.019 211.836 400.007C218.535 401.076 225.315 401.566 232.099 401.474H235.629C237.644 403.086 239.562 404.488 241.271 405.874C237.372 406.276 233.455 406.48 229.536 406.487" fill="#AF8439"/>
<path id="Vector_35" d="M159.123 300.287C158.059 300.287 156.898 300.287 155.641 300.287C143.953 300.106 132.296 299.029 120.773 297.063C110.004 295.257 102.251 293.355 98.2044 291.533C98.4785 291.953 98.7848 292.452 99.1394 293.033C102.799 298.981 111.375 312.877 122.465 322.049C132.137 330.109 144.26 338.927 160.122 343.457C167.769 345.647 175.635 346.977 183.577 347.422C184.652 349.002 185.78 350.566 186.962 352.113H185.947C169.757 352.278 153.809 348.186 139.698 340.249C134.233 337.31 129.061 333.856 124.255 329.932C119.734 326.231 115.473 322.224 111.504 317.938C102.344 307.461 94.4753 295.922 88.0648 283.57L87.7747 283.006L88.3389 283.264C91.8231 284.714 95.3858 285.968 99.0104 287.02C107.499 289.62 116.168 291.587 124.948 292.904C134.758 294.463 144.676 295.25 154.609 295.257H157.414C157.946 296.869 158.494 298.481 159.026 300.19" fill="#AF8439"/>
<path id="Vector_36" d="M116.162 217.349H115.807C96.7033 215.109 77.827 211.231 59.3867 205.758C49.7146 202.857 40.4778 199.649 31.9824 196.28L31.66 196.135C34.6486 202.593 38.0629 208.845 41.8802 214.85C51.3798 230.281 63.8248 243.69 78.5053 254.313C91.9411 263.461 106.989 269.981 122.852 273.528V273.447H123.158L123.9 273.592C132.479 275.304 141.189 276.285 149.934 276.526C150.837 276.526 151.691 276.526 152.513 276.526C152.626 277.123 152.739 277.703 152.835 278.251C153.045 279.283 153.271 280.347 153.513 281.475H153.093C145.918 281.316 138.756 280.778 131.637 279.863C123.577 278.718 107.828 275.849 94.4159 269.369C71.5414 258.294 53.2288 241.69 38.4305 218.59C32.3314 208.968 27.1038 198.82 22.81 188.268L22.5843 187.704V187.607L22.3264 187.107L22.8261 187.333H22.9229C28.6778 189.896 34.336 192.169 39.7362 194.281C46.0553 196.667 75.4586 206.484 93.2553 209.321C110.303 212.216 127.549 213.796 144.84 214.044C147.532 214.044 150.16 214.044 152.642 213.867C152.384 215.479 152.158 216.946 151.949 218.445C147.967 218.896 143.963 219.116 139.955 219.106C132.007 218.98 124.071 218.442 116.178 217.494" fill="#AF8439"/>
<path id="Vector_37" d="M467.098 391.076C465.451 391.079 463.841 391.571 462.473 392.489C461.104 393.406 460.038 394.709 459.41 396.232C458.782 397.755 458.619 399.431 458.942 401.046C459.266 402.662 460.061 404.145 461.227 405.309C462.393 406.473 463.878 407.265 465.494 407.586C467.111 407.906 468.786 407.74 470.307 407.109C471.829 406.477 473.13 405.409 474.045 404.039C474.96 402.669 475.449 401.058 475.449 399.41C475.449 398.315 475.232 397.229 474.813 396.217C474.393 395.205 473.777 394.286 473.002 393.511C472.226 392.737 471.306 392.124 470.293 391.706C469.28 391.288 468.194 391.074 467.098 391.076V391.076ZM467.098 405.955C465.805 405.952 464.541 405.565 463.467 404.844C462.392 404.123 461.556 403.1 461.063 401.904C460.57 400.708 460.443 399.392 460.697 398.124C460.952 396.855 461.576 395.69 462.492 394.777C463.408 393.863 464.574 393.241 465.843 392.99C467.113 392.739 468.428 392.869 469.623 393.365C470.818 393.861 471.839 394.7 472.557 395.776C473.276 396.852 473.659 398.117 473.659 399.41C473.659 400.271 473.489 401.124 473.159 401.919C472.83 402.714 472.346 403.436 471.737 404.044C471.127 404.652 470.404 405.134 469.608 405.462C468.812 405.79 467.959 405.957 467.098 405.955Z" fill="black"/>
<path id="Vector_38" d="M470.532 397.475C470.532 397.104 470.459 396.735 470.316 396.392C470.173 396.049 469.964 395.737 469.7 395.475C469.437 395.213 469.124 395.005 468.78 394.864C468.435 394.724 468.067 394.652 467.695 394.654H463.681V404.198H465.471V400.296H466.76L468.566 404.181H470.532L468.646 400.135C469.197 399.942 469.675 399.582 470.012 399.105C470.35 398.629 470.532 398.059 470.532 397.475V397.475ZM467.695 398.523H465.471V396.428H467.695C467.973 396.428 468.24 396.538 468.436 396.734C468.633 396.931 468.743 397.197 468.743 397.475C468.743 397.753 468.633 398.02 468.436 398.216C468.24 398.413 467.973 398.523 467.695 398.523Z" fill="black"/>
</g>
</g>
</g>
<defs>
<clipPath id="clip0_37:9814">
<rect width="500" height="397.637" fill="white" transform="translate(0 59)"/>
</clipPath>
</defs>
</svg>
