<?xml version="1.0" encoding="UTF-8" standalone="no"?>
<svg  viewBox="0 0 500 500" version="1.1" xmlns="http://www.w3.org/2000/svg" xmlns:xlink="http://www.w3.org/1999/xlink">
    <!-- Generator: Sketch 39.1 (31720) - http://www.bohemiancoding.com/sketch -->
    <title>MIN</title>
    <desc>Created with Sketch.</desc>
    <defs>
        <polygon id="path-1" points="500 322.530528 500 0.0242765957 0.00138888889 0.0242765957 0.00138888889 322.530528 500 322.530528"></polygon>
    </defs>
    <g id="Page-1" stroke="none" stroke-width="1" fill="none" fill-rule="evenodd">
        <g id="MIN">
            <g id="Page-1" transform="translate(0.000000, 87.000000)">
                <path d="M267.964583,92.1178894 C207.613889,94.0669532 153.325694,109.097634 153.31875,109.097634 C152.905556,106.409868 152.495833,103.808804 152.072222,101.103698 C150.200694,104.27006 148.419444,107.29423 146.547917,110.425911 C146.544444,110.425911 119.252778,120.4244 101.242361,129.874932 C124.339583,121.919145 143.089583,117.01874 143.089583,117.01874 C141.204167,121.065996 139.391667,124.887826 137.485417,128.876123 C140.957639,125.78606 144.252778,122.827783 147.721528,119.730783 C150.207639,121.052123 152.586111,122.352655 155.086111,123.6844 C154.738889,120.73306 154.4125,117.868421 154.051389,114.878932 C154.072222,114.871996 214.954167,97.9546766 267.964583,92.1178894" id="Fill-1" fill="#FEFEFE"></path>
                <g id="Group-5" transform="translate(0.000000, 3.444502)">
                    <mask id="mask-2" fill="white">
                        <use xlink:href="#path-1"></use>
                    </mask>
                    <g id="Clip-4"></g>
                    <path d="M398.015278,195.855251 L286.615972,311.082379 C286.615972,311.082379 257.355556,263.711804 162.272222,284.437081 C162.272222,284.437081 128.931944,275.562251 119.994444,263.71874 L127.970139,259.081911 C122.063889,256.92823 114.699306,249.215209 114.699306,245.37257 C114.699306,244.446591 115.574306,243.732166 117.015278,243.732166 C120.775694,243.732166 128.626389,248.431421 145.178472,248.431421 C163.650694,248.431421 179.508333,244.782996 179.508333,234.10823 C179.508333,226.738549 159.258333,226.44723 159.258333,220.974591 C159.258333,213.906634 189.060417,210.05706 204.244444,210.05706 C204.244444,210.05706 183.372917,208.777336 164.931944,208.777336 C134.133333,208.777336 126.032639,213.84074 126.032639,217.457953 C126.032639,222.417315 139.504861,223.7664 139.504861,228.195145 C139.504861,230.764996 132.157639,231.548783 125.577778,231.548783 C107.591667,231.548783 90.7444444,224.862315 90.7444444,224.862315 C90.7444444,224.862315 85.4597222,227.820591 80.5777778,228.937315 C80.5777778,228.937315 46.6506944,215.748187 31.1993056,205.014464 C31.1993056,205.014464 14.5395833,183.553953 8.85555556,165.786953 C8.85555556,165.786953 49.08125,133.297932 87.89375,114.219996 L72.8034722,102.858549 C72.8034722,102.858549 134.754861,65.0529532 200.58125,52.0961872 C200.58125,52.0961872 214.9875,9.19597447 263.070833,9.19597447 C312.817361,9.19597447 323.053472,47.9587617 323.053472,47.9587617 C323.053472,47.9587617 374.192361,43.245634 448.865972,58.1896128 L435.039583,68.8505064 C435.039583,68.8505064 457.26875,73.4769319 473.904167,79.7749745 L371.813889,195.855251 L398.015278,195.855251 Z M500.001389,74.0595702 C500.001389,74.0595702 482.188889,68.1360809 466.76875,65.1812723 C466.966667,65.1465915 483.990972,51.555166 483.990972,51.555166 C483.990972,51.555166 415.317361,33.4378894 333.58125,38.8585064 C333.58125,38.8585064 321.685417,0.0228893617 266.727083,0.0228893617 C225.827778,0.0228893617 202.4875,25.6312298 195.230556,45.5727191 C118.115972,62.8091021 59.4319444,102.216953 59.4319444,102.216953 L73.5951389,112.881315 C37.3069444,132.191613 0.00138888889,162.859889 0.00138888889,162.859889 C0.00138888889,162.859889 3.65416667,181.24074 25.9423611,210.521783 C25.9423611,210.521783 40.8590278,221.917911 80.1576389,236.743974 C80.1576389,236.743974 87.6715278,234.853868 91.4041667,232.946421 C96.7930556,234.753294 102.355556,236.268847 107.838194,237.274591 C107.6125,242.216613 106.181944,249.288038 115.317361,257.691209 L108.678472,261.204379 C108.678472,261.204379 116.890278,281.510017 162.095139,292.177847 C179.3625,288.012677 257.904167,273.190081 285.004861,322.530528 L421.626389,188.332974 L392.539583,188.332974 L500.001389,74.0595702 Z" id="Fill-3" fill="#EEE1C6" mask="url(#mask-2)"></path>
                </g>
                <path d="M307.571528,64.4644191 C276.939583,63.4690787 246.172222,65.2794191 216.755556,69.7740574 C216.533333,71.6329511 216.397917,73.5195894 216.397917,75.4339723 C216.397917,77.5599085 216.557639,79.6546319 216.831944,81.7077383 C245.463889,78.6523553 277.0125,77.618866 308.557639,80.9551638 C308.769444,79.1413553 308.894444,77.3032702 308.894444,75.4339723 C308.894444,71.6502915 308.436111,67.9810574 307.571528,64.4644191" id="Fill-6" fill="#EEB110"></path>
                <path d="M262.649653,121.633721 C279.677431,121.633721 294.545486,112.429423 302.573264,98.7374234 C277.472569,101.945402 253.430903,106.124445 232.351042,110.324296 C240.469097,117.36104 251.055903,121.633721 262.649653,121.633721" id="Fill-8" fill="#EEB110"></path>
                <path d="M262.649653,29.2449745 C239.021181,29.2449745 219.548958,46.9391447 216.753819,69.7764851 C216.753819,69.7764851 239.951736,59.3444851 303.055903,52.9944213 C295.160069,38.8342298 280.031597,29.2449745 262.649653,29.2449745" id="Fill-10" fill="#EEB110"></path>
                <path d="M307.571528,64.4644191 C308.436111,67.9810574 308.894444,71.6502915 308.894444,75.4339723 C308.894444,77.3032702 308.769444,79.1413553 308.557639,80.9551638 C328.620139,83.0706957 348.696528,86.9584191 368.002083,93.2252489 C346.206944,93.960483 324.005556,95.999717 302.571528,98.7395043 C294.547222,112.428036 279.675694,121.632334 262.647917,121.632334 C251.054167,121.632334 240.470833,117.363121 232.352778,110.326377 C187.675694,119.222015 156.297222,128.197419 156.297222,128.197419 C178.404861,129.182355 190.904861,134.304717 190.904861,134.304717 C133.741667,145.846504 80.5993056,167.851504 63.3458333,175.373781 C67.4638889,181.928462 72.8423611,189.582526 72.8423611,189.582526 L64.2972222,200.128972 C79.5645833,202.899972 98.4638889,201.287313 98.4638889,201.287313 L126.818056,183.953823 L149.057639,190.619483 L155.759028,181.46027 L148.45,181.46027 L163.10625,157.877291 L175.41875,181.453334 L169.908333,181.453334 L173.6375,189.582526 L188.998611,186.856611 L195.54375,178.533206 L189.689583,178.533206 L198.425694,165.122121 L191.852778,165.122121 L205.679167,141.74376 L217.484722,165.881632 L212.252083,165.878164 L220.179167,179.968994 L213.929167,179.968994 L226.724306,203.257185 L239.509028,185.320249 L230.745139,185.320249 L243.956944,165.455057 L235.467361,165.455057 L254.536806,132.771823 L271.061111,165.874696 L264.179167,165.874696 L275.446528,185.309845 L267.488194,185.309845 L278.404861,209.426909 L296.91875,179.226823 L286.703472,179.226823 L301.821528,154.651972 L292.536806,154.651972 L312.779861,113.586377 L334.022917,156.601036 L326.568056,156.601036 L340.252083,179.219887 L330.890972,179.219887 L341.370139,201.623717 L358.463889,175.626951 L349.276389,175.626951 L369.134028,147.046462 L358.463889,147.046462 L390.259028,103.209866 L407.019444,133.35793 L442.682639,89.5456106 C401.599306,74.195866 354.741667,65.9973128 307.571528,64.4644191" id="Fill-12" fill="#C4112F"></path>
                <path d="M216.398611,75.4343191 C216.398611,73.5199362 216.530556,71.6332979 216.75625,69.7744043 C173.770139,76.3429574 133.676389,88.630383 101.134722,106.220511 C101.134722,106.220511 151.353472,88.6858723 216.832639,81.7080851 C216.558333,79.6549787 216.398611,77.5602553 216.398611,75.4343191" id="Fill-14" fill="#C4112F"></path>
                <path d="M155.086806,123.686134 C152.583333,122.350921 150.208333,121.050389 147.71875,119.729049 C144.253472,122.829517 140.958333,125.787794 137.486111,128.874389 C139.392361,124.88956 141.201389,121.064262 143.090278,117.017006 C143.090278,117.017006 124.340278,121.917411 101.243056,129.873198 C119.253472,120.426134 146.545139,110.427645 146.548611,110.427645 C148.420139,107.292496 150.201389,104.268326 152.072917,101.101964 C152.493056,103.810538 152.90625,106.411602 153.315972,109.099368 C153.326389,109.099368 207.611111,94.0686872 267.965278,92.1196234 C214.954861,97.9564106 154.072917,114.87373 154.052083,114.880666 C154.413194,117.866687 154.736111,120.731326 155.086806,123.686134 L155.086806,123.686134 Z M358.465278,175.627645 L341.368056,201.624411 L330.892361,179.220581 L340.25,179.220581 L326.565972,156.60173 L334.024306,156.60173 L312.78125,113.58707 L292.538194,154.652666 L301.819444,154.652666 L286.701389,179.227517 L296.916667,179.227517 L278.40625,209.427602 L267.489583,185.310538 L275.444444,185.310538 L264.180556,165.875389 L271.0625,165.875389 L254.538194,132.772517 L235.465278,165.455751 L243.958333,165.455751 L230.743056,185.320943 L239.510417,185.320943 L226.725694,203.254411 L213.930556,179.969687 L220.180556,179.969687 L212.25,165.878857 L217.482639,165.882326 L205.677083,141.744453 L191.850694,165.122815 L198.423611,165.122815 L189.6875,178.530432 L195.545139,178.530432 L189,186.857304 L173.638889,189.583219 L169.90625,181.454028 L175.420139,181.454028 L163.104167,157.874517 L148.447917,181.460964 L155.756944,181.460964 L149.059028,190.620177 L126.815972,183.954517 L98.4618056,201.288006 C98.4618056,201.288006 79.5625,202.900666 64.2986111,200.129666 L72.8402778,189.583219 C72.8402778,189.583219 67.4652778,181.929155 63.3472222,175.371006 C80.6006944,167.84873 133.743056,145.847198 190.90625,134.305411 C190.90625,134.305411 178.402778,129.183049 156.295139,128.198113 C156.295139,128.198113 187.673611,119.222709 232.354167,110.32707 C253.430556,106.127219 277.472222,101.944709 302.572917,98.7401979 C324.003472,96.0004106 346.204861,93.9611766 368,93.2259426 C348.694444,86.9591128 328.621528,83.0713894 308.559028,80.9558574 C277.010417,77.6195596 245.461806,78.6530489 216.833333,81.7084319 C151.350694,88.6862191 101.135417,106.220857 101.135417,106.220857 C133.677083,88.6307298 173.770833,76.3433043 216.753472,69.7747511 C219.548611,46.9374106 239.020833,29.2467085 262.649306,29.2467085 C280.03125,29.2467085 295.159722,38.8324957 303.055556,52.9926872 C239.951389,59.3427511 216.753472,69.7747511 216.753472,69.7747511 C246.170139,65.2801128 276.940972,63.4697723 307.572917,64.4651128 C354.743056,65.9980064 401.600694,74.1965596 442.680556,89.5463043 L407.017361,133.358623 L390.260417,103.21056 L358.465278,147.043687 L369.131944,147.043687 L349.277778,175.627645 L358.465278,175.627645 Z M473.902778,83.220517 C457.267361,76.9224745 435.038194,72.2960489 435.038194,72.2960489 L448.864583,61.6316872 C374.194444,46.6911766 323.052083,51.4043043 323.052083,51.4043043 C323.052083,51.4043043 312.815972,12.641517 263.072917,12.641517 C214.986111,12.641517 200.583333,55.5417298 200.583333,55.5417298 C134.753472,68.4984957 72.8055556,106.300623 72.8055556,106.300623 L87.8923611,117.665538 C49.0798611,136.743474 8.85416667,169.232496 8.85416667,169.232496 C14.5381944,186.999496 31.1979167,208.456538 31.1979167,208.456538 C46.6493056,219.19373 80.5763889,232.382857 80.5763889,232.382857 C85.4618056,231.266134 90.7465278,228.307857 90.7465278,228.307857 C90.7465278,228.307857 107.59375,234.994326 125.576389,234.994326 C132.15625,234.994326 139.506944,234.210538 139.506944,231.640687 C139.506944,227.211943 126.03125,225.862857 126.03125,220.903496 C126.03125,217.286283 134.131944,212.219411 164.930556,212.219411 C183.371528,212.219411 204.246528,213.502602 204.246528,213.502602 C189.0625,213.502602 159.256944,217.352177 159.256944,224.420134 C159.256944,229.892772 179.510417,230.184091 179.510417,237.553772 C179.510417,248.228538 163.652778,251.876964 145.177083,251.876964 C128.625,251.876964 120.774306,247.17424 117.017361,247.17424 C115.576389,247.17424 114.697917,247.892134 114.697917,248.818113 C114.697917,252.660751 122.0625,260.373772 127.96875,262.527453 L119.993056,267.164283 C128.934028,279.007794 162.270833,287.882623 162.270833,287.882623 C257.354167,267.157347 286.614583,314.524453 286.614583,314.524453 L398.013889,199.300794 L371.8125,199.300794 L473.902778,83.220517 Z" id="Fill-16" fill="#00502F"></path>
            </g>
        </g>
    </g>
</svg>