<?xml version="1.0" encoding="UTF-8" standalone="no"?>
<svg viewBox="0 0 500 500" version="1.1" xmlns="http://www.w3.org/2000/svg" xmlns:xlink="http://www.w3.org/1999/xlink">
    <!-- Generator: Sketch 39.1 (31720) - http://www.bohemiancoding.com/sketch -->
    <title>COL</title>
    <desc>Created with Sketch.</desc>
    <defs>
        <polygon id="path-1" points="0.000925925926 413.911111 500 413.911111 500 0.9452 0.000925925926 0.9452 0.000925925926 413.911111"></polygon>
    </defs>
    <g id="Page-1" stroke="none" stroke-width="1" fill="none" fill-rule="evenodd">
        <g id="COL">
            <g id="Page-1" transform="translate(0.000000, 42.000000)">
                <g id="Group-3" transform="translate(0.000000, 2.143689)">
                    <mask id="mask-2" fill="white">
                        <use xlink:href="#path-1"></use>
                    </mask>
                    <g id="Clip-2"></g>
                    <path d="M380.170679,406.918793 C348.494753,406.918793 330.075,387.891238 319.917593,367.560171 L313.49784,354.710393 C311.025617,349.755816 311.692284,343.874571 311.908333,342.410438 C276.127469,357.057949 237.374383,367.189504 198.720062,370.920882 L191.621296,389.726038 C94.5132716,394.961704 10.1459877,407.215327 10.1459877,407.215327 L50.9854938,340.445904 C29.9268519,323.821504 18.7015432,301.856416 18.7015432,277.166927 C18.7015432,208.596682 98.6212963,137.422504 197.374383,101.087904 L252.642901,10.72246 L277.037963,49.3273933 C290.093519,51.6595044 309.707716,59.6689933 318.399074,76.7011267 C321.815741,76.5961044 325.229321,76.5188822 328.630556,76.5188822 C422.423765,76.5188822 476.334259,117.687593 476.334259,171.872882 C476.334259,195.635704 466.720062,219.704327 450.068827,242.528127 C475.923765,262.120949 494.809568,291.999771 494.809568,333.180838 C494.809568,333.180838 468.676852,406.918793 380.170679,406.918793 M457.071914,241.471727 C473.216975,218.05486 481.49784,194.665793 481.49784,171.872882 C481.49784,111.750749 420.068827,71.35426 328.636728,71.35426 C328.636728,71.35426 324.266358,71.4222156 321.229321,71.4716378 C311.979321,56.3082822 294.750926,47.8509044 280.263272,44.7589267 L252.571914,0.943037778 L193.874383,96.9209933 C87.6182099,136.520549 13.537963,210.443838 13.537963,277.166927 C13.537963,302.106616 24.2324074,324.216882 44.287963,341.493038 L0.000925925926,413.912038 C0.000925925926,413.912038 77.7046296,401.519416 195.260185,394.705327 L202.436111,375.705571 C236.874383,372.063771 272.726235,363.192482 306.849691,349.925704 C307.158333,352.223838 307.686111,354.633171 308.880556,357.02706 L315.300309,369.867571 C324.920679,389.126793 343.991667,412.086504 380.173765,412.086504 C472.439198,412.086504 499.976235,334.073527 499.976235,334.073527 C501.167593,272.694216 457.071914,241.471727 457.071914,241.471727" id="Fill-1" fill="#FFFFFF" mask="url(#mask-2)"></path>
                </g>
                <path d="M212.862037,335.595731 L207.133642,350.780709 C241.149074,349.600753 275.559568,342.656931 307.457716,331.546198 C272.473148,315.301731 218.395988,333.640464 212.862037,335.595731" id="Fill-4" fill="#FFFFFF"></path>
                <path d="M176.10679,125.014438 C100.319753,154.497882 41.5481481,207.293171 41.5481481,260.36646 C41.5481481,283.298371 51.7950617,301.158327 68.017284,314.733993 L77.0419753,299.98146 C71.6962963,289.717082 68.65,277.787793 68.65,264.533371 C68.65,181.840727 159.329012,133.289571 176.10679,125.014438" id="Fill-6" fill="#FFFFFF"></path>
                <path d="M439.983642,237.749924 C449.023765,222.824413 454.08858,207.296569 454.08858,191.737836 C454.08858,132.545458 385.807716,107.13008 322.637963,102.110636 C322.230556,107.012702 321.116358,112.325591 319.141049,118.089458 L381.671914,217.035836 C401.196605,219.673747 421.789198,226.463124 439.983642,237.749924" id="Fill-8" fill="#FFFFFF"></path>
                <path d="M227.263272,103.012282 C227.263272,103.012282 282.278704,67.5518378 308.374383,94.9626378 C299.948457,87.5678378 277.516358,79.33286 222.698457,109.99626 L227.263272,103.012282 Z M242.692284,83.0395267 C242.692284,83.0395267 286.485494,68.6236822 305.007099,86.2766822 C305.007099,86.2766822 285.602778,71.2739489 241.513272,87.7500822 L242.692284,83.0395267 Z M294.683025,92.2104378 C303.578086,94.1101044 310.448457,99.2500156 314.562654,108.232504 C319.689198,88.6613044 313.284877,59.8975711 269.346605,52.1135711 C266.544136,51.6193489 263.584259,51.2116156 260.470062,50.8965489 C257.877469,50.6309044 255.207716,50.4115933 252.386728,50.2787711 L249.007099,66.6066378 L237.544136,70.1372378 L230.491667,95.73486 L221.229321,103.231593 L207.707716,125.292438 C237.436111,104.278727 265.528704,91.4104156 286.044136,91.3609933 C289.099691,91.3579044 291.985494,91.6328156 294.683025,92.2104378 L294.683025,92.2104378 Z" id="Fill-10" fill="#FFFFFF"></path>
                <path d="M438.17963,279.748311 L435.210494,301.864756 L421.352469,287.238867 L414.571605,290.781822 C405.250617,278.963733 369.309259,249.023133 327.232099,249.023133 C266.864815,249.023133 215.21358,292.647511 163.509877,292.647511 C107.074691,292.647511 104.806173,258.932289 104.806173,245.575933 C104.806173,220.803044 119.290741,193.806156 119.290741,193.806156 C114.330864,208.960244 93.1858025,283.590889 167.435802,283.590889 C225.867901,283.590889 257.182716,243.206756 325.296914,243.206756 C390.830864,243.206756 417.284568,280.591578 417.284568,280.591578 L422.383333,277.382222 L432.056173,287.801044 L432.796914,277.011556 L438.747531,266.586556 C424.985185,239.416689 394.232099,229.862756 394.232099,229.862756 C434.509877,237.436711 446.580864,266.867644 446.580864,266.867644 L438.17963,279.748311 Z M363.42963,221.167533 C298.500617,221.167533 227.158025,271.803689 171.148765,271.803689 C154.522222,271.803689 149.509877,265.625911 149.509877,265.625911 L147.083951,269.403622 C147.083951,269.403622 78.4358025,236.417378 172.176543,134.317244 C172.176543,134.317244 91.4666667,176.437333 85.0345679,261.656689 L89.917284,257.579356 C89.917284,257.579356 87.3740741,314.930756 152.266049,314.930756 C204.454321,314.930756 222.960494,295.544889 271.38642,295.544889 C374.685802,295.544889 391.241358,354.4778 391.241358,354.4778 C391.241358,354.4778 323.540741,374.450556 319.077778,337.037933 C319.077778,337.037933 308.75679,380.869267 395.516049,358.811511 C395.516049,358.811511 400.997531,350.227489 400.346296,339.027178 C400.346296,339.027178 408.346296,347.086089 409.738272,353.229889 C409.738272,353.229889 416.306173,345.708444 405.769136,325.457689 C405.769136,325.457689 414.759877,333.686489 420.617901,345.689911 L424.247531,342.622644 C424.247531,342.622644 424.522222,333.865644 407.083951,310.322133 L395.232099,317.772533 C395.232099,317.772533 367.617901,265.564133 264.957407,272.267022 C264.957407,272.267022 350.454321,241.912511 400.182716,303.718089 L410.904938,296.378889 C410.904938,296.378889 440.741358,325.395911 448.414198,359.386044 L450.074691,359.225422 L450.12716,333.470267 L450.191975,302.698756 L458.837037,312.824133 C458.837037,312.824133 463.019136,305.210022 458.003704,289.296067 C458.003704,289.296067 478.09321,308.932133 484.077778,345.591067 L485.624074,325.195133 C485.624074,307.610089 456.47284,221.167533 363.42963,221.167533 L363.42963,221.167533 Z" id="Fill-12" fill="#FFFFFF"></path>
                <path d="M372.989506,216.118436 L294.680864,92.2107467 C291.983333,91.6331244 289.100617,91.3551244 286.045062,91.3582133 L364.674691,215.77248 C367.406173,215.803369 370.177778,215.917658 372.989506,216.118436" id="Fill-14" fill="#B1B7BB"></path>
                <path d="M134.56821,232.172318 L252.830556,38.8047844 L260.472531,50.8977844 C263.583642,51.2128511 266.543519,51.6205844 269.345988,52.1148067 L252.741049,25.8438067 L133.497222,220.805207 C133.506481,223.162029 133.685494,227.316584 134.56821,232.172318" id="Fill-16" fill="#B1B7BB"></path>
                <path d="M238.073148,238.86594 C243.073148,225.565184 248.329321,211.578696 252.937346,199.325073 C256.063889,209.367051 259.298457,219.748807 262.153395,228.925896 L238.073148,238.86594 Z M253.54537,178.237229 L229.242901,242.893851 C229.242901,242.893851 195.403395,255.68494 173.079321,259.348362 C217.84784,262.739962 295.600926,212.026584 346.415741,212.026584 C323.539198,204.875807 268.585494,226.553629 268.585494,226.553629 L253.54537,178.237229 Z" id="Fill-18" fill="#B1B7BB"></path>
                <path d="M222.7,109.995333 C277.514815,79.3319333 299.946914,87.5669111 308.37284,94.9617111 C282.27716,67.5509111 227.264815,103.011356 227.264815,103.011356 L222.7,109.995333 Z" id="Fill-20" fill="#B1B7BB"></path>
                <path d="M404.171914,379.422431 L408.128704,372.886342 C354.520679,390.65672 332.372531,372.271653 332.372531,372.271653 C350.508333,392.667587 389.489815,383.740698 404.171914,379.422431" id="Fill-22" fill="#B1B7BB"></path>
                <path d="M340.460185,383.162767 C355.898457,402.094567 402.89537,400.1393 439.69784,378.100078 L442.463272,370.8103 C419.392284,386.659389 368.095988,401.322344 340.460185,383.162767" id="Fill-24" fill="#B1B7BB"></path>
                <path d="M181.954012,378.698396 C97.333642,383.730196 36.929321,391.823084 36.929321,391.823084 L85.4108025,312.546751 C99.5805556,329.551084 121.367593,339.491129 145.484877,339.491129 C166.907716,339.491129 183.90463,335.515729 199.978704,330.95344 L181.954012,378.698396 Z M265.898457,310.091084 C220.98179,310.091084 190.926235,332.596729 150.006481,332.596729 C93.0558642,332.596729 75.5929012,292.36704 75.5929012,264.533062 C75.5929012,178.763884 176.623765,127.062062 176.623765,127.062062 L178.61142,123.809462 C178.271914,123.966996 177.401543,124.374729 176.108333,125.014129 C159.330556,133.289262 68.6515432,181.840418 68.6515432,264.533062 C68.6515432,277.787484 71.6978395,289.716773 77.0435185,299.981151 C78.2472222,302.29164 79.5651235,304.51564 80.9972222,306.646973 L23.583642,400.518307 C23.583642,400.518307 94.4262346,390.402196 186.787346,385.277729 L208.194753,328.565729 C226.932407,323.055151 245.213272,317.510596 268.799691,317.510596 C318.765741,317.510596 350.879938,344.294351 350.879938,344.294351 C350.879938,344.294351 332.583642,310.091084 265.898457,310.091084 L265.898457,310.091084 Z" id="Fill-26" fill="#B1B7BB"></path>
                <path d="M252.937346,199.325691 C248.329321,211.579313 243.073148,225.565802 238.073148,238.866558 L262.153395,228.926513 C259.298457,219.746336 256.063889,209.367669 252.937346,199.325691" id="Fill-28" fill="#005695"></path>
                <path d="M305.007099,86.2766822 C286.485494,68.6236822 242.689198,83.0395267 242.689198,83.0395267 L241.513272,87.7500822 C285.602778,71.2739489 305.007099,86.2766822 305.007099,86.2766822" id="Fill-30" fill="#005695"></path>
                <path d="M458.836728,312.824442 L450.191667,302.699064 L450.126852,333.470576 C452.849074,330.560842 462.092901,320.491064 467.741049,311.876153 C467.741049,311.876153 478.345988,331.462798 479.19784,345.402953 L484.077469,345.588287 C478.092901,308.932442 458.003395,289.296376 458.003395,289.296376 C463.018827,305.210331 458.836728,312.824442 458.836728,312.824442" id="Fill-32" fill="#005695"></path>
                <path d="M337.830247,385.733031 L323.324074,363.397276 C323.324074,363.397276 371.638889,391.221987 436.027778,345.985209 L444.901235,359.730764 L448.41358,359.387898 C440.740741,325.397764 410.904321,296.377653 410.904321,296.377653 L400.182099,303.716853 C350.453704,241.911276 264.95679,272.268876 264.95679,272.268876 C367.617284,265.565987 395.231481,317.771298 395.231481,317.771298 L407.083333,310.323987 C424.521605,333.864409 424.246914,342.624498 424.246914,342.624498 L420.617284,345.688676 C414.759259,333.685253 405.771605,325.456453 405.771605,325.456453 C416.305556,345.707209 409.737654,353.231742 409.737654,353.231742 C408.345679,347.084853 400.345679,339.025942 400.345679,339.025942 C400.996914,350.226253 395.515432,358.810276 395.515432,358.810276 C308.756173,380.87112 319.07716,337.036698 319.07716,337.036698 C323.540123,374.452409 391.240741,354.479653 391.240741,354.479653 C391.240741,354.479653 374.685185,295.546742 271.385802,295.546742 C222.959877,295.546742 204.45679,314.92952 152.265432,314.92952 C87.3765432,314.92952 89.9166667,257.581209 89.9166667,257.581209 L85.0339506,261.655453 C91.4660494,176.436098 172.179012,134.316009 172.179012,134.316009 C78.4351852,236.416142 147.083333,269.405476 147.083333,269.405476 L149.509259,265.624676 C149.509259,265.624676 154.521605,271.802453 171.151235,271.802453 C227.157407,271.802453 298.5,221.169387 363.432099,221.169387 C456.472222,221.169387 485.623457,307.608853 485.623457,325.193898 L484.07716,345.589831 C448.092593,406.938253 363.67284,418.892253 337.830247,385.733031 L337.830247,385.733031 Z M268.799383,317.511831 C245.212963,317.511831 226.932099,323.056387 208.194444,328.566964 L186.787037,385.278964 C94.4259259,390.403431 23.5833333,400.519542 23.5833333,400.519542 L80.9969136,306.64512 C79.5648148,304.516876 78.2469136,302.289787 77.0432099,299.979298 L68.0185185,314.73492 C51.7962963,301.159253 41.5493827,283.299298 41.5493827,260.367387 C41.5493827,207.291009 100.320988,154.498809 176.108025,125.015364 C177.401235,124.375964 178.271605,123.968231 178.611111,123.810698 L176.623457,127.063298 C176.623457,127.063298 75.5925926,178.76512 75.5925926,264.534298 C75.5925926,292.365187 93.0555556,332.597964 150.006173,332.597964 C190.925926,332.597964 220.981481,310.09232 265.898148,310.09232 C332.583333,310.09232 350.87963,344.295587 350.87963,344.295587 C350.87963,344.295587 318.765432,317.511831 268.799383,317.511831 L268.799383,317.511831 Z M207.132716,350.782253 L212.861111,335.597276 C218.398148,333.642009 272.475309,315.300187 307.45679,331.547742 C275.558642,342.658476 241.148148,349.602298 207.132716,350.782253 L207.132716,350.782253 Z M252.740741,25.8434978 L269.345679,52.1144978 C313.283951,59.8984978 319.691358,88.6591422 314.561728,108.233431 C310.447531,99.2509422 303.57716,94.1110311 294.682099,92.2113644 L372.990741,216.119053 C370.179012,215.915187 367.407407,215.803987 364.675926,215.773098 C364.246914,215.770009 363.811728,215.748387 363.385802,215.748387 C304.117284,215.748387 226.209877,265.609231 172.308642,265.609231 C145.395062,265.609231 137.089506,246.025676 134.567901,232.172009 C133.685185,227.316276 133.506173,223.16172 133.496914,220.804898 L252.740741,25.8434978 Z M454.08642,191.738453 C454.08642,207.294098 449.021605,222.825031 439.984568,237.750542 C421.790123,226.460653 401.197531,219.674364 381.67284,217.036453 L319.138889,118.090076 C321.117284,112.326209 322.228395,107.01332 322.638889,102.111253 C385.808642,107.130698 454.08642,132.546076 454.08642,191.738453 L454.08642,191.738453 Z M450.070988,244.672742 C466.719136,221.845853 476.33642,197.777231 476.33642,174.017498 C476.33642,119.832209 422.42284,78.6634978 328.632716,78.6634978 C325.228395,78.6634978 321.817901,78.7376311 318.401235,78.8426533 C309.70679,61.8136089 290.095679,53.80412 277.037037,51.4720089 L252.641975,12.8670756 L197.376543,103.23252 C98.6234568,139.56712 18.7006173,210.741298 18.7006173,279.311542 C18.7006173,304.001031 29.9259259,325.963031 50.9845679,342.587431 L10.1481481,409.356853 C10.1481481,409.356853 94.5154321,397.10632 191.62037,391.867564 L198.719136,373.062409 C237.373457,369.331031 276.12963,359.202564 311.910494,344.555053 C311.691358,346.019187 311.024691,351.900431 313.5,356.85192 L319.916667,369.704787 C330.074074,390.035853 348.493827,409.063409 380.169753,409.063409 C468.679012,409.063409 494.808642,335.325453 494.808642,335.325453 C494.808642,294.144387 475.92284,264.265564 450.070988,244.672742 L450.070988,244.672742 Z" id="Fill-34" fill="#005695"></path>
                <path d="M394.231481,229.861829 C394.231481,229.861829 424.984568,239.418851 438.746914,266.588718 L432.799383,277.013718 L432.055556,287.803207 L422.382716,277.384384 L417.283951,280.59374 C417.283951,280.59374 390.830247,243.205829 325.296296,243.205829 C257.185185,243.205829 225.867284,283.593051 167.435185,283.593051 C93.1851852,283.593051 114.330247,208.959318 119.290123,193.805229 C119.290123,193.805229 104.808642,220.802118 104.808642,245.575007 C104.808642,258.931362 107.074074,292.646584 163.512346,292.646584 C215.212963,292.646584 266.864198,249.022207 327.231481,249.022207 C369.308642,249.022207 405.25,278.962807 414.570988,290.783984 L421.354938,287.23794 L435.209877,301.866918 L438.179012,279.747384 L446.580247,266.866718 C446.580247,266.866718 434.512346,237.435784 394.231481,229.861829" id="Fill-36" fill="#005695"></path>
                <path d="M173.080556,259.348053 C195.40463,255.684631 229.241049,242.893542 229.241049,242.893542 L253.546605,178.23692 L268.586728,226.55332 C268.586728,226.55332 323.537346,204.875498 346.416975,212.029364 C295.60216,212.029364 217.849074,262.739653 173.080556,259.348053 L173.080556,259.348053 Z M286.046605,91.3588311 C265.528086,91.4113422 237.43858,104.279653 207.707099,125.293364 L221.23179,103.23252 L230.491049,95.7326978 L237.546605,70.1381644 L249.006481,66.6075644 L252.386111,50.2766089 C255.207099,50.4094311 257.876852,50.6318311 260.472531,50.8974756 L252.830556,38.8075644 L134.56821,232.172009 C137.086728,246.028764 145.39537,265.609231 172.308951,265.609231 C226.207099,265.609231 304.117593,215.748387 363.386111,215.748387 C363.812037,215.748387 364.247222,215.770009 364.676235,215.773098 L286.046605,91.3588311 Z" id="Fill-38" fill="#860037"></path>
                <path d="M85.4101852,312.546751 L36.9287037,391.823084 C36.9287037,391.823084 97.3330247,383.730196 181.953395,378.698396 L199.978086,330.95344 C183.904012,335.515729 166.907099,339.491129 145.484259,339.491129 C121.366975,339.491129 99.5799383,329.551084 85.4101852,312.546751" id="Fill-40" fill="#860037"></path>
                <path d="M439.698765,378.101313 C402.896296,400.140536 355.899383,402.092713 340.461111,383.164002 C368.096914,401.320491 419.39321,386.657536 442.464198,370.811536 L439.698765,378.101313 Z M332.371605,372.269491 C332.371605,372.269491 354.52284,390.654558 408.127778,372.88418 L404.170988,379.423358 C389.488889,383.738536 350.507407,392.668513 332.371605,372.269491 L332.371605,372.269491 Z M467.738889,311.875536 C462.090741,320.493536 452.85,330.560224 450.127778,333.469958 L450.075309,359.225113 L448.414815,359.385736 L444.902469,359.731691 L436.029012,345.983047 C371.637037,391.222913 323.325309,363.395113 323.325309,363.395113 L337.831481,385.733958 C363.670988,418.89318 448.090741,406.93918 484.075309,345.590758 L479.195679,345.402336 C478.346914,331.46218 467.738889,311.875536 467.738889,311.875536 L467.738889,311.875536 Z" id="Fill-42" fill="#221F20"></path>
            </g>
        </g>
    </g>
</svg>