<?xml version="1.0" encoding="UTF-8" standalone="no"?>
<svg  viewBox="0 0 500 500" version="1.1" xmlns="http://www.w3.org/2000/svg" xmlns:xlink="http://www.w3.org/1999/xlink">
    <!-- Generator: Sketch 39.1 (31720) - http://www.bohemiancoding.com/sketch -->
    <title>VAN</title>
    <desc>Created with Sketch.</desc>
    <defs>
        <polygon id="path-1" points="498.477876 242.196832 498.477876 482.572727 0 482.572727 0 242.196832 0 1.82093727 498.477876 1.82093727 498.477876 242.196832"></polygon>
    </defs>
    <g id="Page-1" stroke="none" stroke-width="1" fill="none" fill-rule="evenodd">
        <g id="VAN">
            <g id="Page-1" transform="translate(0.000000, 7.000000)">
                <path d="M273.668584,105.472689 C269.434071,100.14668 264.487168,46.9751345 264.487168,46.9751345 C264.487168,46.9751345 263.633186,101.262353 260.504867,106.08808 C257.376549,110.918235 241.836726,119.87018 241.836726,119.87018 C241.836726,119.87018 259.071239,114.247544 267.54469,113.738407 C273.761504,113.366516 293.557965,117.413044 293.557965,117.413044 C293.557965,117.413044 277.898673,110.807553 273.668584,105.472689" id="Fill-1" fill="#FEFEFE"></path>
                <path d="M146.456195,285.935852 C148.602212,283.766488 192.779204,239.750543 239.080088,230.276179 L275.195133,202.344515 C188.94292,207.413743 148.65531,281.760934 146.456195,285.935852" id="Fill-3" fill="#FEFEFE"></path>
                <path d="M479.3,226.064072 C479.3,215.097717 464.826549,207.651045 452.574336,197.809217 C404.176106,192.359245 390.928319,180.702235 390.928319,173.255563 C390.928319,170.333563 393.406195,169.647335 395.746903,169.647335 C406.755752,169.647335 421.211504,177.434908 429.485841,186.280599 C424.680531,173.609745 395.614159,158.667699 376.777876,158.667699 C373.233628,158.667699 367.99469,159.787799 367.99469,165.472417 C367.99469,177.390635 385.923894,192.514199 432.065487,196.264099 C456.8,202.112526 482.468142,215.943326 477.561062,233.740963 C478.472566,231.94349 479.3,229.402235 479.3,226.064072" id="Fill-5" fill="#FEFEFE"></path>
                <path d="M388.537611,225.97287 L406.493363,232.35257 C409.816372,230.904852 413.378319,229.182643 413.692478,228.731061 C413.926991,228.235206 413.913717,227.836752 413.15708,227.163806 C412.608407,226.681234 404.581858,223.670688 399.568584,221.851079 L388.537611,225.97287 Z" id="Fill-7" fill="#FEFEFE"></path>
                <path d="M403.663717,220.287809 C408.446903,222.209245 415.088496,224.843473 415.60177,224.949727 C416.371681,225.104682 417.610619,225.157809 418.380531,224.958582 C418.946903,224.808055 422.902655,222.815782 425.783186,221.332645 C422.964602,219.955764 417.362832,217.365809 413.610619,217.365809 C409.986726,217.365809 403.663717,220.287809 403.663717,220.287809" id="Fill-9" fill="#FEFEFE"></path>
                <path d="M421.421239,226.470495 C421.279646,226.899941 421.40354,227.125732 422.023009,227.595023 C422.704425,228.104159 432.023009,232.921032 432.761947,233.040568 C433.50531,233.111405 434.142478,233.129114 434.890265,232.943168 C435.39469,232.814777 438.620354,230.725105 440.837168,229.233114 L428.407965,222.552359 C425.177876,224.146177 421.726549,226.018914 421.421239,226.470495" id="Fill-11" fill="#FEFEFE"></path>
                <path d="M430.285841,236.371205 C430.50708,235.928478 430.595575,235.592005 430.476106,235.171415 C429.861062,234.476333 420.626549,229.686024 419.622124,229.548778 C418.586726,229.393824 417.976106,229.393824 417.055752,229.818842 C416.254867,230.190733 411.551327,232.816105 409.874336,233.759115 L424.334513,240.342469 C427.046903,238.655678 430.00708,236.725387 430.285841,236.371205" id="Fill-13" fill="#FEFEFE"></path>
                <path d="M447.984956,241.455485 C448.330088,241.535176 449.268142,241.31824 450.272566,240.937495 C450.781416,240.747122 452.90531,239.016058 454.352212,237.789704 L443.228319,230.670649 C440.555752,232.384004 437.728319,234.30544 437.427434,234.690613 C437.418584,234.779158 437.476106,235.058076 438.051327,235.881549 L447.984956,241.455485 Z" id="Fill-15" fill="#FEFEFE"></path>
                <path d="M452.606195,242.588425 C452.278761,243.239234 452.234513,243.482734 452.376106,243.673106 C452.743363,244.049425 458.526549,247.896725 462.469027,250.491106 L466.977876,246.001852 L456.69469,239.338806 C454.79646,240.702406 452.787611,242.251952 452.606195,242.588425" id="Fill-17" fill="#FEFEFE"></path>
                <path d="M446.232743,244.490824 C446.445133,244.136642 446.316814,243.640787 445.900885,243.220196 C445.338938,242.688924 436.423009,237.867624 435.750442,237.739233 C435.015929,237.588705 433.639823,237.796787 432.923009,238.004869 C432.524779,238.119978 429.923009,239.926305 427.49823,241.68836 L441.135398,248.045924 C443.493805,246.514087 446.011504,244.791878 446.232743,244.490824" id="Fill-19" fill="#FEFEFE"></path>
                <path d="M448.598673,246.28077 C448.226991,246.409161 445.656195,248.366015 443.740265,249.875715 L456.080973,257.521615 L460.691593,252.474525 C456.939381,249.88457 451.483628,246.178943 451.023451,245.98857 C450.585398,245.846897 449.222566,246.063834 448.598673,246.28077" id="Fill-21" fill="#FEFEFE"></path>
                <path d="M351.638053,228.619051 C418.164602,246.306005 446.523009,269.363242 446.523009,269.363242 L453.60708,261.376442 C450.29292,258.932587 425.766372,242.007124 377.757522,226.263742 C392.049558,220.60126 409.359292,213.907224 414.045133,213.907224 C424.655752,213.907224 446.461062,227.698178 469.854867,243.060815 L475.2,237.035296 C454.70885,222.907869 430.695575,206.159496 413.368142,206.159496 C399.341593,206.159496 379.10708,214.863515 351.638053,228.619051" id="Fill-23" fill="#FEFEFE"></path>
                <g id="Group-27" transform="translate(0.000000, 2.607664)">
                    <mask id="mask-2" fill="white">
                        <use xlink:href="#path-1"></use>
                    </mask>
                    <g id="Clip-26"></g>
                    <path d="M289.641593,369.798137 C367.199115,369.798137 430.513274,340.095565 430.513274,340.095565 L464.380531,415.908183 C464.380531,415.908183 391.911504,471.47931 272.084071,471.47931 C37.8451327,471.47931 11.3141593,286.215655 11.3141593,286.215655 C11.3141593,286.215655 37.1238938,197.014965 124.495575,148.762119 L125.380531,151.825792 L135.725664,152.985737 C102.699115,168.259828 50.7522124,204.474919 19.8761062,287.065692 C19.8761062,287.065692 48.2831858,463.160465 272.084071,463.160465 C381.561947,463.160465 453.973451,412.999465 453.973451,412.999465 L426.331858,351.119474 C426.331858,351.119474 366.783186,378.116983 289.641593,378.116983 C182.933628,378.116983 152.756637,314.27571 146.455752,283.329074 C145.455752,278.397092 145.026549,274.208892 145.026549,271.353301 C145.026549,251.479274 148.893805,241.208001 148.893805,241.208001 L97.7212389,261.82581 L104.995575,269.356601 C104.995575,269.356601 97.2964602,271.592374 71.8982301,283.090001 L89.5,251.249055 L76.1504425,250.208646 L125.561947,212.222646 L108.393805,206.316665 L138.743363,201.29171 L132.672566,186.185855 L149.668142,195.044828 L162.721239,154.212092 L174.597345,142.289446 L180.893805,135.967301 L174.716814,131.79681 C195.376106,123.845428 214.331858,116.190674 216.862832,112.989755 C227.19469,101.810892 231.376106,37.2833918 231.376106,15.0584827 C231.376106,15.0584827 244.880531,12.9112555 255.269912,12.9112555 C266.128319,12.9112555 287.836283,12.9112555 295.225664,34.6314555 C304.469027,64.6793555 310.783186,89.3569736 315.712389,99.6636645 C328.022124,125.408255 439.30531,135.334201 459.477876,189.900337 C469.146018,196.864437 487.393805,209.110274 487.393805,221.35611 C487.393805,234.416565 481.190265,240.198583 481.190265,240.198583 L447.477876,278.18901 C447.477876,278.18901 426.230088,255.694037 352.557522,234.885855 L243.831858,289.226201 C222.809735,294.870974 157,290.921846 157,290.921846 C157,290.921846 174.115044,369.798137 289.641593,369.798137 L289.641593,369.798137 Z M100.283186,302.556719 L91.0973451,337.673846 L111.911504,327.871865 L122.929204,367.075365 L146.314159,366.787592 L146.80531,392.39051 C146.80531,392.39051 185.464602,416.510292 244.747788,422.814728 C322.384956,431.062737 407.769912,397.530574 407.769912,397.530574 C407.769912,397.530574 336.168142,424.851274 256.176991,417.710083 C195.610619,412.299955 159.862832,387.489519 159.862832,387.489519 L153.535398,359.115128 L134.561947,361.558983 L118.646018,321.137983 L102.119469,326.034546 L110.075221,298.474774 L71.5132743,291.333583 L90.4867257,278.87081 L112.522124,270.910574 L108.853982,262.94591 L137.088496,253.599937 C136.473451,258.425665 136.017699,264.322792 136.017699,271.353301 C136.017699,303.008301 166.884956,387.126483 289.641593,387.126483 C351.849558,387.126483 402.358407,370.254146 421.676991,362.776483 L442.548673,409.506346 C422.986726,421.057101 359.29646,454.14211 272.084071,454.14211 C70.0619469,454.14211 33.4247788,308.896574 29.1946903,287.920155 C64.2168142,196.434992 124.681416,165.395383 152.827434,155.588974 L143.517699,184.702719 L120.137168,171.363346 L133.336283,198.033237 L95.3849558,205.378083 L118.646018,214.564674 L65.1814159,254.37471 L77.9690265,254.055946 L68.4469027,273.159628 L60.2831858,297.655728 L100.283186,302.556719 Z M115.336283,99.4732918 L171.690265,138.424437 L160.115044,154.012865 L131.482301,146.973501 L115.336283,99.4732918 Z M247.676991,299.678992 L353.70354,246.764228 C426.309735,267.142965 447.823009,294.702737 447.823009,294.702737 L489.371681,247.676246 C491.628319,245.289946 498.477876,236.763019 498.477876,221.35611 C498.477876,204.656437 481.070796,191.719946 468.867257,182.989365 C448.212389,128.666728 333.787611,112.972046 325.336283,94.0631645 C322.429204,87.5462191 305.725664,31.0586464 305.725664,31.0586464 C295.774336,1.82093727 266.349558,1.82093727 255.269912,1.82093727 C244.128319,1.82093727 220.292035,5.58854636 220.292035,5.58854636 C220.292035,46.3061736 214.761062,95.9624645 208.995575,105.016237 C208.995575,105.016237 188.336283,115.876337 164.10177,124.63791 L106.234513,85.58051 L121.424779,138.145519 C23.7699115,191.852765 0,285.418746 0,285.418746 C0,285.418746 25.079646,482.574055 272.084071,482.574055 C402.685841,482.574055 478.079646,419.379165 478.079646,419.379165 L436.017699,325.255346 C436.017699,325.255346 371.738938,358.703392 289.641593,358.703392 C213.933628,358.703392 184.336283,323.373755 173.526549,302.809074 C237.628319,304.721655 247.676991,299.678992 247.676991,299.678992 L247.676991,299.678992 Z" id="Fill-25" fill="#ADAFB1" mask="url(#mask-2)"></path>
                </g>
                <path d="M191.69115,195.816502 L212.806195,208.146456 L176.79292,203.781165 L191.69115,195.816502 Z M195.164602,189.746711 L167.412389,205.259875 L222.584956,212.684411 L195.164602,189.746711 Z" id="Fill-28" fill="#ADAFB1"></path>
                <path d="M155.009735,229.920226 L115.726549,236.051999 L159.089381,206.637199 L155.009735,229.920226 Z M159.368142,233.169845 L164.204425,198.929317 L100.142478,242.059808 L159.368142,233.169845 Z" id="Fill-30" fill="#ADAFB1"></path>
                <path d="M174.039823,165.802692 L203.371681,149.262401 L178.066372,183.569337 L174.039823,165.802692 Z M213.380531,138.287192 L167.057522,164.217728 L179.097345,193.008283 L213.380531,138.287192 Z" id="Fill-32" fill="#ADAFB1"></path>
                <path d="M462.469027,250.491549 C458.526549,247.897167 452.743363,244.049867 452.376106,243.673549 C452.234513,243.483176 452.278761,243.239676 452.606195,242.588867 C452.787611,242.252395 454.79646,240.702849 456.69469,239.334822 L466.977876,246.002295 L462.469027,250.491549 Z M456.084071,257.522058 L443.743363,249.876158 C445.659292,248.366458 448.225664,246.409604 448.597345,246.281213 C449.221239,246.064276 450.584071,245.84734 451.022124,245.984585 C451.486726,246.174958 456.938053,249.885013 460.69469,252.474967 L456.084071,257.522058 Z M427.495575,241.690131 C429.920354,239.923649 432.526549,238.117322 432.924779,238.00664 C433.641593,237.798558 435.017699,237.590476 435.752212,237.736576 C436.424779,237.864967 445.336283,242.686267 445.89823,243.21754 C446.318584,243.638131 446.446903,244.133985 446.234513,244.492595 C446.00885,244.793649 443.495575,246.515858 441.137168,248.043267 L427.495575,241.690131 Z M409.871681,233.760885 C411.548673,232.817876 416.252212,230.188076 417.053097,229.816185 C417.973451,229.391167 418.588496,229.391167 419.623894,229.550549 C420.628319,229.687795 429.858407,234.478104 430.473451,235.168758 C430.597345,235.593776 430.504425,235.930249 430.287611,236.372976 C430.004425,236.727158 427.044248,238.653022 424.336283,240.34424 L409.871681,233.760885 Z M388.539823,225.973313 L399.570796,221.851522 C404.579646,223.666704 412.610619,226.681676 413.159292,227.159822 C413.911504,227.837195 413.924779,228.235649 413.69469,228.731504 C413.380531,229.183085 409.814159,230.905295 406.49115,232.348585 L388.539823,225.973313 Z M413.610619,217.366695 C417.362832,217.366695 422.964602,219.956649 425.778761,221.333531 C422.902655,222.816667 418.946903,224.804513 418.380531,224.95504 C417.610619,225.154267 416.371681,225.105567 415.60177,224.946185 C415.088496,224.844358 408.446903,222.205704 403.663717,220.288695 C403.663717,220.288695 409.986726,217.366695 413.610619,217.366695 L413.610619,217.366695 Z M440.836283,229.231785 C438.619469,230.723776 435.393805,232.817876 434.893805,232.94184 C434.141593,233.127785 433.504425,233.110076 432.761062,233.043667 C432.026549,232.919704 422.707965,228.102831 422.022124,227.593695 C421.402655,227.128831 421.278761,226.898613 421.420354,226.469167 C421.725664,226.022013 425.176991,224.144849 428.40708,222.551031 L440.836283,229.231785 Z M454.349558,237.789704 C452.902655,239.016058 450.778761,240.747122 450.274336,240.937495 C449.269912,241.31824 448.331858,241.535176 447.986726,241.455485 L438.053097,235.881549 C437.473451,235.058076 437.420354,234.779158 437.424779,234.690613 C437.725664,234.30544 440.553097,232.384004 443.225664,230.670649 L454.349558,237.789704 Z M459.477876,192.507558 C439.30531,137.941422 328.022124,128.015476 315.712389,102.270885 C310.783186,91.9641945 304.469027,67.2865764 295.225664,37.2386764 C287.836283,15.5184764 266.128319,15.5184764 255.269912,15.5184764 C244.880531,15.5184764 231.376106,17.6657036 231.376106,17.6657036 C231.376106,39.8906127 227.19469,104.418113 216.862832,115.596976 C214.331858,118.797895 195.376106,126.452649 174.716814,134.404031 L180.893805,138.574522 L174.597345,144.896667 C195.119469,134.067558 212.300885,130.308804 222.548673,121.706613 C237.659292,106.441376 239.690265,33.1965764 239.690265,24.9308582 C239.690265,24.9308582 269.641593,20.8400582 281.323009,29.8229945 C291.929204,37.99574 302.495575,97.6930855 308.867257,107.00364 C331.849558,140.588931 434.026549,144.347685 452.575221,197.811431 C464.827434,207.648831 479.300885,215.099931 479.300885,226.061858 C479.300885,229.400022 478.469027,231.945704 477.561947,233.743176 C476.442478,235.956813 475.199115,237.037067 475.199115,237.037067 L469.853982,243.058158 C446.460177,227.699949 424.654867,213.904567 414.044248,213.904567 C409.358407,213.904567 392.048673,220.598604 377.756637,226.261085 C425.769912,242.008895 450.292035,258.929931 453.610619,261.378213 L446.522124,269.365013 C446.522124,269.365013 418.163717,246.307776 351.637168,228.620822 C323,242.960758 286.5,262.790513 240.915929,284.014858 C226.446903,288.158785 167.455752,285.648522 167.455752,285.648522 L239.079646,230.276622 C192.778761,239.750985 148.60177,283.766931 146.455752,285.936295 C152.756637,316.882931 182.933628,380.724204 289.641593,380.724204 C366.783186,380.724204 426.331858,353.726695 426.331858,353.726695 L453.973451,415.606685 C453.973451,415.606685 381.561947,465.767685 272.084071,465.767685 C48.2831858,465.767685 19.8761062,289.672913 19.8761062,289.672913 C50.7522124,207.08214 102.69469,170.867049 135.725664,155.592958 L125.380531,154.433013 L124.495575,151.36934 C37.1238938,199.622185 11.3141593,288.822876 11.3141593,288.822876 C11.3141593,288.822876 37.8451327,474.086531 272.084071,474.086531 C391.911504,474.086531 464.380531,418.515404 464.380531,418.515404 L430.513274,342.702785 C430.513274,342.702785 367.199115,372.405358 289.641593,372.405358 C174.115044,372.405358 157,293.529067 157,293.529067 C157,293.529067 222.809735,297.478195 243.831858,291.833422 L352.557522,237.493076 C426.230088,258.301258 447.477876,280.796231 447.477876,280.796231 L481.185841,242.805804 C481.185841,242.805804 487.393805,237.023785 487.393805,223.963331 C487.393805,211.717495 469.146018,199.476085 459.477876,192.507558 L459.477876,192.507558 Z" id="Fill-34" fill="#003E7E"></path>
                <polygon id="Fill-36" fill="#003E7E" points="159.088938 206.638527 115.726106 236.053327 155.009292 229.921555"></polygon>
                <polygon id="Fill-38" fill="#003E7E" points="212.808407 208.147342 191.693363 195.817387 176.790708 203.782051"></polygon>
                <polygon id="Fill-40" fill="#003E7E" points="178.066814 183.568009 203.372124 149.261073 174.040265 165.801364"></polygon>
                <path d="M108.854425,265.554902 L112.522566,273.519565 L90.4871681,281.479802 L71.5137168,293.942575 L110.075664,301.079338 L102.115487,328.643538 L118.64646,323.742547 L134.557965,364.163547 L153.535841,361.72412 L159.863274,390.098511 C159.863274,390.098511 195.611062,414.90452 256.177434,420.319075 C336.164159,427.455838 407.770354,400.135138 407.770354,400.135138 C407.770354,400.135138 322.385398,433.671729 244.74823,425.419293 C185.465044,419.119284 146.805752,394.995075 146.805752,394.995075 L146.314602,369.396584 L122.929646,369.684356 L111.911947,330.480856 L91.0977876,340.282838 L100.283628,305.165711 L60.2836283,300.26472 L68.4473451,275.76862 L77.969469,256.664938 L65.1818584,256.979275 L118.64646,217.173665 L95.3853982,207.987075 L133.336726,200.642229 L120.137611,173.967911 L143.518142,187.311711 L152.827876,158.197965 C124.681858,168.004375 64.2172566,199.039556 29.190708,290.529147 C33.4252212,311.505565 70.0623894,456.751102 272.084513,456.751102 C359.296903,456.751102 422.987168,423.666093 442.549115,412.115338 L421.677434,365.385475 C402.35885,372.858711 351.85,389.735475 289.642035,389.735475 C166.885398,389.735475 136.018142,305.617293 136.018142,273.957865 C136.018142,266.931784 136.473894,261.034656 137.088938,256.208929 L108.854425,265.554902 Z" id="Fill-42" fill="#003E7E"></path>
                <polygon id="Fill-44" fill="#003E7E" points="171.69115 141.033429 115.337168 102.082284 131.483186 149.582493 160.111504 156.617429"></polygon>
                <path d="M267.543363,113.739293 C259.074336,114.248429 241.835398,119.871065 241.835398,119.871065 C241.835398,119.871065 257.375221,110.914693 260.50354,106.084538 C263.631858,101.263238 264.485841,46.97602 264.485841,46.97602 C264.485841,46.97602 269.432743,100.147565 273.667257,105.473575 C277.897345,110.808438 293.556637,117.413929 293.556637,117.413929 C293.556637,117.413929 273.760177,113.367402 267.543363,113.739293 L267.543363,113.739293 Z M167.410619,205.259875 L195.162832,189.746711 L222.583186,212.684411 L167.410619,205.259875 Z M213.379646,138.28852 L179.09646,193.005184 L167.056637,164.214629 L213.379646,138.28852 Z M159.366372,233.173829 L100.140708,242.059365 L164.202655,198.928875 L159.366372,233.173829 Z M432.065487,196.268084 C385.923894,192.513756 367.99469,177.390193 367.99469,165.476402 C367.99469,159.787356 373.233628,158.667256 376.777876,158.667256 C395.614159,158.667256 424.680531,173.609302 429.485841,186.280156 C421.215929,177.434465 406.755752,169.646893 395.746903,169.646893 C393.406195,169.646893 390.928319,170.33312 390.928319,173.25512 C390.928319,180.701793 404.176106,192.358802 452.574336,197.808775 C434.025664,144.349456 331.853097,140.586275 308.866372,107.005411 C302.49469,97.6948564 291.928319,37.9975109 281.322124,29.8247655 C269.640708,20.8418291 239.693805,24.9282018 239.693805,24.9282018 C239.693805,33.1983473 237.662832,106.443147 222.547788,121.708384 C212.3,130.310575 195.118584,134.069329 174.59646,144.898438 L162.724779,156.816656 L149.667257,197.65382 L132.676106,188.794847 L138.742478,203.900702 L108.39292,208.925656 L125.565487,214.831638 L76.1495575,252.817638 L89.499115,253.85362 L71.8973451,285.698993 C97.2955752,274.201365 104.99469,271.961165 104.99469,271.961165 L97.7247788,264.434802 L148.89292,243.816993 C148.89292,243.816993 145.025664,254.088265 145.025664,273.957865 C145.025664,276.817884 145.454867,281.006084 146.454867,285.938065 C148.653982,281.75872 188.941593,207.411529 275.193805,202.346729 L239.078761,230.273965 L167.454867,285.645865 C167.454867,285.645865 226.446018,288.156129 240.915044,284.016629 C286.50354,262.792284 323.00354,242.962529 351.636283,228.618165 C379.10531,214.862629 399.344248,206.158611 413.366372,206.158611 C430.69823,206.158611 454.70708,222.906984 475.19823,237.038838 C475.19823,237.038838 476.441593,235.954156 477.561062,233.74052 C482.468142,215.942884 456.8,202.112084 432.065487,196.268084 L432.065487,196.268084 Z" id="Fill-46" fill="#002C55"></path>
            </g>
        </g>
    </g>
</svg>