<?xml version="1.0" encoding="UTF-8" standalone="no"?>
<svg  viewBox="0 0 500 500" version="1.1" xmlns="http://www.w3.org/2000/svg" xmlns:xlink="http://www.w3.org/1999/xlink">
    <!-- Generator: Sketch 39.1 (31720) - http://www.bohemiancoding.com/sketch -->
    <title>WAS</title>
    <desc>Created with Sketch.</desc>
    <defs>
        <polygon id="path-1" points="497.379121 395.999175 497.379121 0 0.000308889183 0 0.000308889183 395.999175"></polygon>
    </defs>
    <g id="Page-1" stroke="none" stroke-width="1" fill="none" fill-rule="evenodd">
        <g id="WAS">
            <g id="Page-1" transform="translate(0.000000, 52.000000)">
                <g id="Group-3">
                    <mask id="mask-2" fill="white">
                        <use xlink:href="#path-1"></use>
                    </mask>
                    <g id="Clip-2"></g>
                    <path d="M434.480495,151.166675 C478.038187,121.887425 482.903571,100.151425 482.903571,100.151425 C494.420055,149.750425 460.502473,188.445675 460.502473,188.445675 C468.972253,257.379925 383.782692,298.649175 359.782692,317.910175 C335.782692,337.171175 310.016209,380.051925 310.016209,380.051925 C307.859615,372.849675 303.398077,369.271925 301.024451,367.806175 C298.230495,349.540675 285.722253,320.302675 262.571154,312.731925 C262.134341,310.542925 260.807418,307.237425 257.307418,304.718425 L248.689286,246.110425 L240.071154,304.718425 C236.573901,307.237425 235.244231,310.542925 234.807418,312.731925 C211.659066,320.302675 199.148077,349.540675 196.354121,367.806175 C193.983242,369.271925 189.521703,372.849675 187.362363,380.051925 C187.362363,380.051925 161.595879,337.171175 137.595879,317.910175 C113.595879,298.649175 28.4090659,257.379925 36.8760989,188.445675 C36.8760989,188.445675 2.95851648,149.750425 14.4777473,100.151425 C14.4777473,100.151425 19.3403846,121.887425 62.8980769,151.166675 C62.8980769,151.166675 -16.5304945,88.890175 13.2277473,18.699175 C40.8596154,105.549675 162.170055,114.940925 183.582143,172.759675 L203.469505,226.453425 L220.996978,156.628175 C223.389835,147.091175 229.909066,140.799175 248.689286,140.799175 C271.672802,140.799175 276.887088,150.044675 276.887088,150.044675 C276.887088,150.044675 293.087637,151.414175 293.087637,167.647425 C293.087637,176.760925 286.343132,186.572925 286.343132,186.572925 C278.889835,178.020425 273.159066,182.453425 273.159066,182.453425 L292.843132,229.340925 L313.796429,172.759675 C335.208516,114.940925 456.521703,105.549675 484.153571,18.699175 C513.909066,88.890175 434.480495,151.166675 434.480495,151.166675 M307.705769,170.499175 L292.464011,211.652925 L283.211264,189.611675 C283.211264,189.611675 286.796429,192.468925 288.323901,195.169425 C288.323901,195.169425 299.58489,181.636675 299.58489,167.644675 C299.58489,152.118175 288.282692,145.746425 280.359615,144.024925 C276.66456,140.205175 267.854121,134.298175 248.689286,134.298175 C229.046429,134.298175 218.246978,140.889925 214.69478,155.044175 L202.277198,204.522175 L189.678297,170.499175 C165.387088,104.908925 35.1096154,103.401925 14.0958791,-0.000825 C-14.5909341,50.016175 9.38983516,93.191175 9.38983516,93.191175 C-6.01401099,147.899675 30.2442308,190.598925 30.2442308,190.598925 C21.7195055,260.000675 109.582143,303.761425 133.53544,322.986675 C159.972253,344.202925 189.367857,395.999175 189.367857,395.999175 C189.367857,395.999175 190.91456,377.200175 202.321154,371.766175 C202.321154,371.766175 208.043681,326.179425 240.433791,317.734175 C240.433791,317.734175 240.282692,311.323925 246.095879,308.392425 L248.689286,264.799425 L251.282692,308.392425 C257.095879,311.323925 256.94478,317.734175 256.94478,317.734175 C289.337637,326.179425 295.057418,371.766175 295.057418,371.766175 C306.464011,377.200175 308.010714,395.999175 308.010714,395.999175 C308.010714,395.999175 337.406319,344.202925 363.845879,322.986675 C387.796429,303.761425 475.659066,260.000675 467.134341,190.598925 C467.134341,190.598925 503.39533,147.899675 487.988736,93.191175 C487.988736,93.191175 511.975,50.016175 483.282692,-0.000825 C462.268956,103.401925 331.991484,104.908925 307.705769,170.499175" id="Fill-1" fill="#FEFEFE" mask="url(#mask-2)"></path>
                </g>
                <path d="M252.971429,159.7255 L242.792857,157.48975 C242.792857,157.48975 252.25989,155.49325 263.191209,160.589 C256.312088,166.4685 252.971429,159.7255 252.971429,159.7255 M284.443956,177.771 C284.443956,177.771 285.987912,172.139 285.987912,168.34675 C285.987912,155.85625 272.095055,156.88475 272.095055,156.88475 C272.095055,153.65625 266.726923,148.11225 248.688462,148.11225 C231.095055,148.11225 228.83956,154.374 227.97967,157.795 L203.696703,254.551 L246.520879,191.5155 L294.498901,254.5455 L264.012637,178.90675 C264.012637,178.90675 276.740659,168.96275 284.443956,177.771" id="Fill-4" fill="#FEFEFE"></path>
                <path d="M13.3513736,43.666975 C14.8678571,93.329225 46.6508242,127.486975 80.5986264,153.765975 L52.4804945,84.724475 C33.7854396,71.972725 19.2662088,58.492225 13.3513736,43.666975" id="Fill-6" fill="#E21836"></path>
                <path d="M74.7340659,153.672475 L82.0637363,171.693225 C53.4016484,155.088725 27.1021978,137.480475 18.9895604,117.254225 C20.9620879,181.048725 77.3494505,217.384475 117.231319,244.900975 L93.1846154,185.850225 C135.8,209.874225 178.731319,232.701975 195.017033,257.058725 C170.286264,216.020475 135.371429,196.770475 74.7340659,153.672475" id="Fill-8" fill="#E21836"></path>
                <path d="M42.8401099,197.871025 C44.8428571,261.401525 121.298901,289.349775 144.930769,313.005275 L128.208242,271.884525 C148.210989,283.709525 166.430769,295.432775 179.485714,307.362275 C132.757692,242.731775 60.1120879,235.829275 42.8401099,197.871025" id="Fill-10" fill="#E21836"></path>
                <path d="M444.898077,84.72365 L416.782692,153.76515 C450.730495,127.4889 482.510714,93.3284 484.027198,43.66615 C478.112363,58.4914 463.593132,71.9719 444.898077,84.72365" id="Fill-12" fill="#E21836"></path>
                <path d="M302.361538,257.0579 C318.647253,232.7039 361.578571,209.87615 404.193956,185.8494 L380.147253,244.90015 C420.029121,217.38365 476.416484,181.0479 478.389011,117.2534 C470.279121,137.4824 443.97967,155.0879 415.314835,171.6924 L422.644505,153.67165 C362.007143,196.76965 327.095055,216.01965 302.361538,257.0579" id="Fill-14" fill="#E21836"></path>
                <path d="M454.539011,197.871025 C437.267033,235.829275 364.624176,242.731775 317.893407,307.362275 C330.948352,295.432775 349.168132,283.709525 369.170879,271.884525 L352.448352,313.005275 C376.08022,289.349775 452.536264,261.401525 454.539011,197.871025" id="Fill-16" fill="#E21836"></path>
                <path d="M242.792582,157.48865 L252.971154,159.7244 C252.971154,159.7244 256.311813,166.47015 263.190934,160.5879 C252.259615,155.49215 242.792582,157.48865 242.792582,157.48865" id="Fill-18" fill="#002D62"></path>
                <path d="M416.781593,153.76625 L444.896978,84.72475 C463.592033,71.973 478.111264,58.4925 484.028846,43.66725 C482.509615,93.3295 450.729396,127.48725 416.781593,153.76625 L416.781593,153.76625 Z M478.388736,117.2545 C476.416209,181.049 420.028846,217.38475 380.146978,244.90125 L404.193681,185.8505 C361.578297,209.8745 318.646978,232.70225 302.361264,257.059 C327.09478,216.02075 362.009615,196.77075 422.644231,153.67275 L415.31456,171.6935 C443.979396,155.089 470.278846,137.48075 478.388736,117.2545 L478.388736,117.2545 Z M352.449176,313.005 L369.171703,271.88425 C349.168956,283.70925 330.949176,295.4325 317.891484,307.362 C364.622253,242.7315 437.267857,235.829 454.539835,197.87075 C452.537088,261.40125 376.081044,289.3495 352.449176,313.005 L352.449176,313.005 Z M246.520604,191.5155 L203.696429,254.551 L227.979396,157.795 C228.839286,154.374 231.09478,148.11225 248.690934,148.11225 C266.726648,148.11225 272.09478,153.65625 272.09478,156.88475 C272.09478,156.88475 285.987637,155.85625 285.987637,168.34675 C285.987637,172.139 284.443681,177.771 284.443681,177.771 C276.740385,168.96275 264.012363,178.90675 264.012363,178.90675 L294.498626,254.5455 L246.520604,191.5155 Z M93.1854396,185.8505 L117.232143,244.90125 C77.3502747,217.38475 20.9629121,181.049 18.9903846,117.2545 C27.1002747,137.48075 53.4024725,155.089 82.0645604,171.6935 L74.7348901,153.67275 C135.372253,196.77075 170.284341,216.02075 195.017857,257.059 C178.732143,232.70225 135.800824,209.8745 93.1854396,185.8505 L93.1854396,185.8505 Z M128.210165,271.88425 L144.929945,313.005 C121.298077,289.3495 44.842033,261.40125 42.8392857,197.87075 C60.1112637,235.829 132.756868,242.7315 179.487637,307.362 C166.429945,295.4325 148.210165,283.70925 128.210165,271.88425 L128.210165,271.88425 Z M13.3502747,43.66725 C19.2678571,58.4925 33.7870879,71.973 52.4821429,84.72475 L80.5975275,153.76625 C46.6497253,127.48725 14.8695055,93.3295 13.3502747,43.66725 L13.3502747,43.66725 Z M313.79533,172.75775 L292.842033,229.34175 L273.157967,182.45425 C273.157967,182.45425 278.888736,178.0185 286.34478,186.57375 C286.34478,186.57375 293.086538,176.759 293.086538,167.64825 C293.086538,151.415 276.885989,150.0455 276.885989,150.0455 C276.885989,150.0455 271.671703,140.8 248.690934,140.8 C229.910714,140.8 223.391484,147.08925 220.995879,156.629 L203.468407,226.45425 L183.583791,172.75775 C162.171703,114.94175 40.8612637,105.5505 13.2266484,18.7 C-16.5288462,88.88825 62.8997253,151.1675 62.8997253,151.1675 C19.342033,121.8855 14.4766484,100.15225 14.4766484,100.15225 C2.95741758,149.75125 36.875,188.44375 36.875,188.44375 C28.407967,257.38075 113.597527,298.65 137.597527,317.911 C161.597527,337.16925 187.364011,380.05 187.364011,380.05 C189.520604,372.8505 193.982143,369.27 196.353022,367.807 C199.146978,349.5415 211.657967,320.3035 234.809066,312.73275 C235.245879,310.54375 236.572802,307.23825 240.070055,304.71925 L248.690934,246.11125 L257.309066,304.71925 C260.806319,307.23825 262.135989,310.54375 262.570055,312.73275 C285.721154,320.3035 298.232143,349.5415 301.026099,367.807 C303.396978,369.27 307.858516,372.8505 310.01511,380.05 C310.01511,380.05 335.781593,337.16925 359.784341,317.911 C383.781593,298.65 468.971154,257.38075 460.504121,188.44375 C460.504121,188.44375 494.421703,149.75125 482.902473,100.15225 C482.902473,100.15225 478.037088,121.8855 434.479396,151.1675 C434.479396,151.1675 513.910714,88.88825 484.152473,18.7 C456.520604,105.5505 335.210165,114.94175 313.79533,172.75775 L313.79533,172.75775 Z" id="Fill-20" fill="#002D62"></path>
            </g>
        </g>
    </g>
</svg>