<svg viewBox="0 0 500 500" fill="none" xmlns="http://www.w3.org/2000/svg">
<g id="Property 1=Dark, Property 2=ARI">
<g id="Frame" clip-path="url(#clip0)">
<path id="Vector" d="M479.569 482.136C477.8 482.136 476.072 482.66 474.601 483.642C473.131 484.625 471.985 486.021 471.308 487.655C470.631 489.289 470.454 491.087 470.799 492.821C471.144 494.556 471.996 496.149 473.246 497.399C474.497 498.65 476.09 499.502 477.824 499.847C479.559 500.192 481.357 500.014 482.99 499.338C484.624 498.661 486.021 497.515 487.003 496.045C487.986 494.574 488.51 492.845 488.51 491.077C488.51 488.706 487.568 486.431 485.891 484.754C484.214 483.078 481.94 482.136 479.569 482.136ZM479.569 498.094C478.176 498.098 476.813 497.688 475.653 496.916C474.493 496.145 473.589 495.046 473.054 493.76C472.519 492.473 472.378 491.057 472.649 489.691C472.92 488.324 473.59 487.069 474.575 486.084C475.56 485.099 476.816 484.428 478.182 484.157C479.549 483.886 480.965 484.027 482.251 484.562C483.538 485.097 484.636 486.001 485.408 487.161C486.18 488.321 486.59 489.684 486.586 491.077C486.581 492.937 485.84 494.719 484.526 496.034C483.211 497.349 481.428 498.09 479.569 498.094V498.094Z" fill="black"/>
<path id="Vector_2" d="M483.234 489.007C483.237 488.608 483.16 488.213 483.009 487.844C482.859 487.475 482.636 487.14 482.355 486.857C482.074 486.574 481.74 486.35 481.372 486.197C481.004 486.044 480.61 485.965 480.211 485.965H475.905V496.171H477.829V492.011H479.203L481.145 496.171H483.234L481.219 491.847C481.805 491.636 482.313 491.251 482.673 490.744C483.034 490.236 483.229 489.629 483.234 489.007V489.007ZM480.211 490.106H477.811V487.871H480.211C480.358 487.873 480.503 487.904 480.637 487.963C480.772 488.021 480.894 488.105 480.996 488.211C481.098 488.316 481.178 488.441 481.232 488.577C481.286 488.714 481.313 488.86 481.31 489.007C481.293 489.276 481.176 489.53 480.984 489.719C480.791 489.908 480.536 490.02 480.266 490.033L480.211 490.106Z" fill="black"/>
<path id="Vector_3" d="M454.064 472.81V449.339L399.848 420.407L390.54 394.756L356.003 351.149L365.842 342.501L373.006 346.696L393.362 328.374L399.628 384.789L422.293 329.345L459.414 394.371L449.355 302.979L405.968 255.158L384.457 272.601L382.625 270.988L380.371 233.684L279.855 190.535L269.081 181.63L311.717 185.697L265.6 151.361L268.257 148.741L263.016 62.7909L212.465 122.797H207.554L209.625 75.8181L166.659 0.0183105L173.053 70.0832L166.934 80.6552L111.325 49.3789L152.954 103.851L133.477 136.593L122.484 229.836L73.7826 262.615L106.342 317.087L25.5581 375.169L60.7371 425.373L21.0874 449.082V473.139L12.0361 498.369L185.696 498.479L234.507 456.667L251.088 458.243L280.258 434.168L277.399 419.858L291.215 407.582L333.521 453.589L333.613 480.725L340.942 499.047L466.688 499.175L454.064 472.81ZM187.638 439.06H180.602H165.303H155.537H151.873L131.077 399.593L149.894 388.05L191.522 414.526L186.502 423.321L193.501 434.021L187.638 439.06ZM320.164 326.963L313.861 325.131L329.802 303.144L331.249 317.637L320.164 326.963Z" fill="#E3D7B0"/>
<path id="Vector_4" d="M391.072 428.011L382.497 404.192L380.848 404.559L361.994 408.864L364.358 408.351L382.149 427.15L375.278 428.781L357.652 409.835L348.344 411.961L350.891 411.411L368.645 430.228L361.792 431.841L344.166 412.914L333.796 415.259L337.515 414.453L355.288 433.288L348.435 434.9L330.791 415.955L318.46 418.758L316.261 419.253L344.038 449.339V473.836H346.053L441.605 473.799H443.309V455.788L391.072 428.011Z" fill="#B83D00"/>
<path id="Vector_5" d="M362.673 328.631L371.577 333.504L396.349 311.371L396.129 309.081L394.847 295.907L385.484 287.79L372.347 276.393L370.881 256.459L370.02 244.842L368.554 246.363L358.862 256.459L338.432 277.786L342.39 317.509L362.673 328.631Z" fill="#B83D00"/>
<path id="Vector_6" d="M297.719 300.194L295.008 279.673L284.014 305.215L270.914 282.183L270.987 317.912L299.13 326.267L327.347 287.405L297.719 300.194Z" fill="#B83D00"/>
<path id="Vector_7" d="M215.47 421.195L243.119 398.183L196.305 356.041L158.396 377.973L156.619 378.999L206.566 410.807L199.658 422.918L209.314 437.704L219.41 453.15L220.326 454.561L227.471 448.184L226.848 446.773L215.47 421.195Z" fill="#B83D00"/>
<path id="Vector_8" d="M263.842 415.845L255.652 409.634L227.252 432.372L232.272 443.915L233.042 445.711L247.315 447.177L268.404 429.844L265.637 417.201L263.842 415.845Z" fill="#B83D00"/>
<path id="Vector_9" d="M117.116 400.583L105.426 401.425L120.322 422.386L113.323 423.046L98.5183 401.92L91.3543 402.451L106.269 423.412L99.2512 424.072L84.465 402.946L77.4109 403.459L92.3986 424.457L85.3812 425.116L70.5583 403.954L61.4155 404.614L59.0885 404.778L76.1833 428.653L32.0996 454.945L32.1179 474.092H33.5471L84.6116 474.055L94.6889 444.263L140.22 444.373H142.144L118.984 400.436L117.116 400.583Z" fill="#B83D00"/>
<path id="Vector_10" d="M173.805 239.51L170.892 222.416L187.914 224.248L188.005 224.138L184.762 209.865L199.017 211.972L199.164 211.807L195.572 199.751L208.288 201.583L238.63 208.491L222.268 185.331L257.209 187.988L259.957 188.208L234.947 167.558L274.359 171.369L249.257 152.607L257.227 144.49L254.021 90.421L217.559 133.772L200.904 133.186L198.797 135.201L182.967 150.354L186.869 163.985L155.062 237.275L173.805 239.51ZM249.385 111.254L250.649 134.431L229.89 134.083L249.385 111.254ZM206.144 159.277C208.794 159.277 211.384 160.063 213.587 161.535C215.79 163.008 217.507 165.101 218.52 167.549C219.533 169.997 219.798 172.691 219.279 175.29C218.761 177.889 217.484 180.275 215.609 182.148C213.734 184.02 211.345 185.294 208.746 185.809C206.147 186.324 203.453 186.056 201.006 185.039C198.559 184.023 196.469 182.303 194.999 180.098C193.53 177.893 192.747 175.302 192.751 172.652C192.756 169.103 194.169 165.701 196.68 163.193C199.191 160.685 202.595 159.277 206.144 159.277" fill="#B83D00"/>
<path id="Vector_11" d="M155.062 237.238L155.868 241.929L155.062 237.238Z" fill="#B83D00"/>
<path id="Vector_12" d="M158.433 256.807L158.744 256.459L171.423 242.442L158.707 256.459L158.433 256.77V256.807Z" fill="#B83D00"/>
<path id="Vector_13" d="M343.562 355.455L297.426 395.874L296.107 397.01L312.029 414.379L314.026 413.921L378.1 399.062L379.785 398.677L344.716 354.447L343.562 355.455Z" fill="#01301C"/>
<path id="Vector_14" d="M270.767 324.123L270.73 375.261L316.078 337.352L270.767 324.123Z" fill="#01301C"/>
<path id="Vector_15" d="M116.859 324.911L115.943 323.372L40.1978 377.845L55.2221 399.099L57.4391 398.934L114.11 394.921L117.848 394.665L147.53 376.47L146.651 374.986L116.859 324.911Z" fill="#01301C"/>
<path id="Vector_16" d="M411.227 323.427L405.254 322.438L404.264 322.273L404.942 329.693L405.932 340.54L406.06 340.247L410.64 329.235L412.949 323.702L412.912 323.684L411.227 323.427Z" fill="#01301C"/>
<path id="Vector_17" d="M443.547 345.341L440.799 321.265L438.857 322.016L433.635 324.013L432.224 324.545L437.391 334.109L443.584 345.542L443.547 345.341Z" fill="#01301C"/>
<path id="Vector_18" d="M161.933 98.2081L163.032 96.3576L164.681 93.6092L165.231 92.6931L148.411 82.0111L161.933 98.2081Z" fill="#01301C"/>
<path id="Vector_19" d="M98.0601 282H98.0967L98.0601 281.927L100.039 282.11L173.402 288.816L182.142 313.386H182.16L183.955 318.608H183.827L194.802 350.049L153.009 374.198L121.604 321.503L98.0601 282Z" fill="#E3D7B0"/>
<path id="Vector_20" d="M183.827 318.608L121.916 318.681H119.956L121.623 321.503L153.027 374.18L194.821 350.031L183.827 318.608Z" fill="#680014"/>
<path id="Vector_21" d="M439.259 307.138L421.23 288.358L420.094 289.329L403.183 303.804L402.303 304.537L404.942 329.693L404.264 322.291L405.253 322.438L411.226 323.409L412.912 323.702L417.364 312.782L417.438 308.219L417.621 295.027L420.406 300.964L427.313 315.713L437.391 334.109L432.224 324.545L433.634 324.013L438.856 322.016L440.799 321.265L443.547 345.341L443.693 345.615L439.259 307.138Z" fill="#680014"/>
<path id="Vector_22" d="M406.078 340.393L410.641 329.235L406.06 340.247L406.078 340.393Z" fill="#680014"/>
<path id="Vector_23" d="M271.354 256.459L271.372 199.623V198.542L297.151 209.627L302.245 211.752L312.029 216.021L333.778 225.366L334.474 225.677L366.74 239.547L365.476 240.885L350.671 256.459L332.074 276.045L318.186 273.645V273.682L316.866 273.425L290.207 268.808V268.863L288.027 268.441L271.354 265.565V256.459Z" fill="#E3D7B0"/>
<path id="Vector_24" d="M333.925 227.308L324.031 256.459L318.186 273.645L332.074 276.045L350.672 256.459L365.476 240.885L366.74 239.547L334.475 225.677L333.925 227.308Z" fill="#680014"/>
<path id="Vector_25" d="M286.799 256.459L296.034 211.019L296.382 209.297L297.151 209.627L271.372 198.542V199.623L271.354 256.459V265.565L288.027 268.441L284.509 267.764L286.799 256.459Z" fill="#680014"/>
<path id="Vector_26" d="M252.536 217.945L210.505 208.252L166.641 256.459L159.22 264.667L142.437 256.459L125.159 248.177L125.727 242.808L125.947 240.628L102.274 256.55L88.3311 265.931L94.3774 275.752L96.2097 275.917L178.001 283.429L190.075 317.454H265.069V256.459V194.492L234.361 192.257L252.536 217.945ZM250.356 272.912C250.345 279.405 248.409 285.749 244.793 291.142C241.177 296.535 236.043 300.735 230.041 303.211C224.038 305.686 217.436 306.327 211.07 305.051C204.703 303.775 198.858 300.639 194.273 296.042C189.688 291.444 186.569 285.59 185.311 279.22C184.053 272.85 184.711 266.25 187.204 260.254C189.696 254.258 193.91 249.136 199.313 245.535C204.716 241.934 211.066 240.016 217.559 240.023C218.53 240.023 219.483 240.023 220.436 240.17H221.113C229.154 241.069 236.584 244.892 241.989 250.912C247.395 256.933 250.399 264.73 250.429 272.821" fill="#680014"/>
<path id="Vector_27" d="M206.126 180.054C207.575 180.054 208.992 179.624 210.198 178.819C211.403 178.014 212.342 176.869 212.897 175.53C213.452 174.191 213.597 172.717 213.314 171.295C213.031 169.874 212.333 168.568 211.308 167.543C210.283 166.518 208.977 165.82 207.556 165.537C206.134 165.254 204.66 165.399 203.321 165.954C201.982 166.509 200.837 167.448 200.032 168.653C199.227 169.859 198.797 171.276 198.797 172.725C198.797 174.669 199.569 176.533 200.944 177.908C202.318 179.282 204.182 180.054 206.126 180.054Z" fill="#680014"/>
<path id="Vector_28" d="M185 74.4255L195.536 114.075L197.001 119.535L198.889 78.2182L181.94 48.4626L184.084 70.9809L185 74.4255Z" fill="#680014"/>
<path id="Vector_29" d="M182.123 313.386L182.141 313.46H181.995L118.709 313.386H116.767L119.919 318.682H121.861L183.79 318.608H183.937L182.141 313.386H182.123Z" fill="#210D81"/>
<path id="Vector_30" d="M296.345 209.297L295.997 211.019L286.781 256.459L284.491 267.764L288.009 268.441L290.171 268.863L290.189 268.826V268.79L292.791 256.459L301.86 213.529L302.227 211.807V211.752L297.133 209.627L296.345 209.297Z" fill="#210D81"/>
<path id="Vector_31" d="M334.456 225.677L333.742 225.365L328.575 223.203L328.043 224.797L317.709 256.459L312.469 272.582L316.83 273.425L318.149 273.682L318.168 273.645L323.994 256.459L333.888 227.308L334.456 225.677Z" fill="#210D81"/>
<path id="Vector_32" d="M77.3558 403.423L70.4849 403.862L70.5398 403.954L85.3627 425.116L92.3618 424.457L77.3741 403.459L77.3558 403.423Z" fill="#210D81"/>
<path id="Vector_33" d="M91.2447 402.323L84.3555 402.836L84.4288 402.946L99.2149 424.072L106.232 423.412L91.318 402.451L91.2447 402.323Z" fill="#210D81"/>
<path id="Vector_34" d="M105.39 401.425L105.298 401.297L98.4087 401.81L98.5003 401.92L113.286 423.046L120.304 422.386L105.39 401.425Z" fill="#210D81"/>
<path id="Vector_35" d="M333.778 415.259L330.736 415.918L330.773 415.955L348.399 434.9L355.27 433.288L337.497 414.471L333.778 415.259Z" fill="#210D81"/>
<path id="Vector_36" d="M348.308 411.961L344.112 412.877L344.148 412.895L361.775 431.859L368.627 430.228L350.854 411.411L348.308 411.961Z" fill="#210D81"/>
<path id="Vector_37" d="M364.34 408.351L361.976 408.846L357.597 409.799L357.634 409.835L375.26 428.781L382.113 427.15L364.34 408.351Z" fill="#210D81"/>
<path id="Vector_38" d="M249.367 111.327L229.872 134.157L250.631 134.505L249.367 111.327Z" fill="#210D81"/>
<path id="Vector_39" d="M208.325 201.638L195.609 199.751L199.145 211.789L199.163 211.825L208.398 201.656L208.325 201.638Z" fill="#210D81"/>
<path id="Vector_40" d="M198.998 211.954L184.744 209.846L187.987 224.12V224.156L199.035 211.972L198.998 211.954Z" fill="#210D81"/>
<path id="Vector_41" d="M187.913 224.23L188.005 224.248L187.986 224.156L187.913 224.23Z" fill="#210D81"/>
<path id="Vector_42" d="M199.163 211.825L199.035 211.972L199.2 211.99L199.163 211.825Z" fill="#210D81"/>
<path id="Vector_43" d="M170.874 222.416L173.787 239.51L155.043 237.22V237.238L155.85 241.929L158.341 256.459L158.396 256.788V256.77L158.69 256.459L171.405 242.442L187.914 224.23H187.877L170.874 222.416Z" fill="#210D81"/>
<path id="Vector_44" d="M202.901 256.459C201.97 259.233 201.518 262.145 201.563 265.07C201.573 271.598 204.17 277.856 208.786 282.472C213.402 287.088 219.66 289.686 226.188 289.696C239.161 289.696 244.951 283.558 244.969 269.816C244.841 268.681 244.645 267.556 244.383 266.444C243.206 261.554 240.72 257.075 237.192 253.489C233.664 249.903 229.227 247.345 224.356 246.088C222.985 245.738 221.588 245.499 220.179 245.374C211.311 245.612 205.392 249.46 202.901 256.367" fill="#210D81"/>
<path id="Vector_45" d="M187.913 224.23H187.931L188.023 224.156L188.005 224.12L187.913 224.23Z" fill="black"/>
<path id="Vector_46" d="M199.017 211.953L199.072 211.972L199.182 211.825V211.789L199.017 211.953Z" fill="black"/>
<path id="Vector_47" d="M192.769 172.725C192.765 175.376 193.548 177.968 195.019 180.173C196.489 182.379 198.581 184.098 201.029 185.114C203.477 186.13 206.171 186.397 208.771 185.881C211.371 185.365 213.759 184.089 215.633 182.214C217.508 180.34 218.784 177.952 219.3 175.352C219.816 172.752 219.549 170.058 218.533 167.61C217.517 165.161 215.798 163.07 213.592 161.6C211.387 160.129 208.795 159.346 206.144 159.35C202.597 159.35 199.195 160.759 196.687 163.267C194.178 165.776 192.769 169.178 192.769 172.725ZM206.126 165.506C207.576 165.506 208.993 165.936 210.198 166.741C211.403 167.547 212.342 168.691 212.897 170.031C213.452 171.37 213.597 172.843 213.314 174.265C213.031 175.687 212.333 176.993 211.308 178.018C210.283 179.043 208.978 179.74 207.556 180.023C206.134 180.306 204.661 180.161 203.321 179.606C201.982 179.052 200.838 178.112 200.032 176.907C199.227 175.702 198.797 174.285 198.797 172.835C198.797 170.891 199.569 169.027 200.944 167.653C202.318 166.278 204.182 165.506 206.126 165.506Z" fill="black"/>
<path id="Vector_48" d="M217.559 305.728C225.95 305.708 234.015 302.477 240.101 296.7C246.186 290.922 249.83 283.035 250.284 274.656C250.739 266.277 247.97 258.041 242.546 251.639C237.122 245.237 229.453 241.153 221.113 240.225H220.435C219.482 240.133 218.603 240.078 217.559 240.078C208.846 240.078 200.49 243.54 194.329 249.701C188.168 255.861 184.707 264.218 184.707 272.93C184.707 281.643 188.168 289.999 194.329 296.16C200.49 302.321 208.846 305.783 217.559 305.783V305.728ZM245.042 269.852C245.042 283.612 239.216 289.75 226.262 289.75C219.734 289.741 213.476 287.143 208.86 282.527C204.244 277.911 201.646 271.653 201.636 265.125C201.591 262.2 202.044 259.288 202.974 256.514C205.466 249.514 211.384 245.667 220.252 245.52C221.656 245.644 223.047 245.883 224.411 246.235C229.265 247.488 233.687 250.035 237.208 253.603C240.728 257.172 243.214 261.629 244.401 266.499C244.662 267.605 244.857 268.724 244.987 269.852H245.042ZM198.998 252.428C198.374 253.743 197.865 255.11 197.477 256.514C196.727 259.322 196.357 262.218 196.378 265.125C196.383 273.035 199.527 280.619 205.12 286.212C210.713 291.805 218.297 294.949 226.207 294.954C229.47 295.001 232.721 294.543 235.844 293.598C230.737 298.135 224.129 300.619 217.298 300.57C210.466 300.521 203.895 297.943 198.853 293.333C193.81 288.724 190.654 282.41 189.994 275.61C189.334 268.81 191.217 262.007 195.279 256.514C196.359 255.031 197.587 253.662 198.943 252.428" fill="black"/>
<path id="Vector_49" d="M264.923 368.354V373.795H264.886L264.868 380.19L247.809 394.39L201.912 353.073L191.835 323.39L191.798 323.354H191.816V323.335H203.029L216.148 323.299L216.13 323.335H221.187L240.352 323.244L240.279 323.335H240.444L240.371 323.225L264.703 323.262L264.648 323.335H264.904L264.886 357.452H264.923V362.912H264.886V368.354H264.923Z" fill="#E3D7B0"/>
<path id="Vector_50" d="M449.283 473.89V452.197L396.001 423.797L386.327 397.065L349.481 350.507L365.329 336.564L372.457 340.742L397.119 318.553L402.341 365.55L421.616 318.407L452.086 371.945L444.757 304.976L405.437 261.735L384.293 278.812L377.807 273.315L376.781 256.44L375.608 236.89L277.345 194.639L253.984 175.382L295.136 179.303L258.29 151.819L263.347 146.799L258.968 74.9385L214.683 127.524H202.553L204.789 76.954L173.585 21.657L178.093 71.1275L168.932 87.1046L129.3 64.9528L158.799 103.43L138.187 138.059L127.028 232.493L91.5194 256.312L80.2695 263.897L112.755 318.242L32.1365 376.159L67.5537 426.692L25.8703 451.794V473.982L18.8345 493.587L183.938 493.697L232.95 451.702L249.568 453.296L275 432.299L272.16 418.099L291.6 400.857L338.341 451.702V479.79L344.075 494.283L458.993 494.412L449.283 473.89ZM421.231 288.358L439.26 307.157L443.694 345.634L443.548 345.377V345.56L437.428 334.109L427.332 315.786L420.443 301.129L417.658 295.192L417.475 308.384V312.928L413.004 323.922L410.714 329.418L406.133 340.577V340.43L406.023 340.723L405.034 329.876L402.396 304.738L403.275 303.987L420.187 289.512L421.231 288.358ZM369.928 244.842L370.789 256.459L372.274 276.393L385.411 287.79L394.773 295.907L396.056 309.08L396.276 311.389L371.504 333.504L362.599 328.631L342.316 317.509L338.487 277.804L358.935 256.459L368.627 246.363L369.928 244.842ZM271.281 256.459V198.541L297.06 209.535L302.154 211.679L311.938 215.929L333.668 225.292L334.383 225.585L366.649 239.474L365.384 240.793L350.58 256.367L331.964 275.972L318.094 273.572L316.775 273.315L290.134 268.716L287.972 268.295L271.299 265.418L271.281 256.459ZM336.197 319.634L321.209 332.222L305.928 327.769L333.247 290.135L336.197 319.634ZM325.203 281.377L302.868 291.015L301.036 277.2L315.694 279.728L322.4 281.029V280.882L325.203 281.377ZM289.896 275.331L283.172 290.96L272.526 272.252L286.818 274.726L289.896 275.331ZM283.96 305.251L294.953 279.71L297.646 300.231L327.292 287.405L299.057 326.285L270.914 317.93V282.202L283.96 305.251ZM270.694 324.123L316.005 337.352L270.694 375.279V324.123ZM217.559 133.772L254.076 90.421L257.282 144.49L249.312 152.607L274.359 171.369L234.947 167.558L260.049 188.244L257.301 188.043L222.36 185.368L238.722 208.509L208.398 201.62L199.237 211.807V211.953H199.054L188.06 224.138V224.229L171.57 242.424L158.873 256.44L158.579 256.788V256.459L156.088 241.947L155.281 237.238L187.089 163.949L183.186 150.317L199.017 135.164L201.124 133.149L217.559 133.772ZM198.889 78.2183L197.056 119.554L195.609 114.057L185.074 74.3889L184.158 70.9443L181.94 48.4627L198.889 78.2183ZM148.392 82.011L165.212 92.6929L164.662 93.6091L163.032 96.3757L161.932 98.208L148.392 82.011ZM94.3777 275.66L88.3497 265.84L102.275 256.459L125.947 240.536L125.727 242.717L125.159 248.085L142.437 256.459L159.221 264.612L166.641 256.459L210.505 208.252L252.537 217.945L234.379 192.294L265.088 194.529V256.495V317.509H190.076L178.148 283.392L96.3749 275.88L94.3777 275.66ZM264.923 368.372V373.869V380.245L247.864 394.463L202.058 353.128L191.908 323.409H221.224H240.407H240.572L240.481 323.299H264.831H265.088V357.433V362.93V368.427L264.923 368.372ZM98.0422 282V281.908L100.039 282.092L173.329 288.798L182.069 313.368L183.901 318.608H183.754L194.748 350.031L152.973 374.18L121.586 321.466L98.0422 282ZM199.878 434.937L189.398 443.842H174.117H165.34H155.556H149.07L124.83 397.853L150.06 382.407L150.737 382.828L197.973 412.895L192.146 423.119L199.878 434.937ZM55.2228 399.098L40.1984 377.863L115.943 323.299L116.859 324.838L146.652 374.913L147.531 376.397L117.83 394.756L114.166 395.013L57.4947 399.043L55.2228 399.098ZM33.529 474.092H32.0999V454.963L76.1836 428.671L59.0705 404.852L61.4157 404.668L70.5769 404.009L77.4662 403.569L84.502 403.056V402.946L91.3912 402.451V402.561L98.5736 402.048V401.92L105.444 401.407L105.554 401.535L117.226 400.692L119.058 400.564L142.218 444.538H140.294L94.6709 444.227L84.6119 474.019L33.529 474.092ZM220.326 454.56L219.391 453.15L209.314 437.704L199.658 422.936L206.547 410.806L156.601 379.017L158.433 377.991L196.342 356.004L243.156 398.146L215.507 421.177L226.867 446.737L227.508 448.148L220.326 454.56ZM247.296 447.231L233.042 445.747L232.254 443.915L227.252 432.39L255.633 409.652L263.842 415.863L265.674 417.219L268.459 429.843L247.296 447.231ZM312.03 414.416L296.107 397.065L297.427 395.91L343.562 355.491L344.717 354.483L379.767 398.714L378.1 399.117L313.972 413.958L312.03 414.416ZM343.984 473.836V449.338L316.207 419.253L318.424 418.758L330.755 415.955L333.797 415.314L344.167 412.95L348.363 412.034L357.689 409.927L362.068 408.993L380.922 404.705L382.571 404.32L391.127 428.139L443.383 455.916V473.945H343.984V473.836Z" fill="black"/>
<path id="Vector_51" d="M132.286 238.301L143.939 140.093L166.934 101.488L169.884 96.5407L180.236 79.1527L180.877 81.5529L194.161 131.445L175.399 148.576L179.906 163.601L148.63 234.893L131.572 244.293L132.286 238.301Z" fill="#E3D7B0"/>
<path id="Vector_52" d="M181.794 487.742H158.543V487.779H153.229H128.952L128.916 487.742H86.481L87.0856 485.947L98.9402 450.218H143.317H155.593L165.377 450.181L165.359 450.218H191.761L203.689 440.067L204.697 441.588L214.921 456.997L215.965 458.573L181.794 487.742Z" fill="#E3D7B0"/>
<path id="Vector_53" d="M80.7827 485.928L80.288 487.596L27.6294 487.541L30.3778 479.937H31.8802L82.56 479.974L80.7827 485.928Z" fill="#E3D7B0"/>
<path id="Vector_54" d="M344.46 479.827H346.677L443.602 479.809H446.076L450.144 488.347H348.051L344.46 479.827Z" fill="#E3D7B0"/>
<path id="Vector_55" d="M143.335 450.273H141.356L129.557 485.965L128.97 487.742L128.952 487.761H153.229L153.248 487.742L153.797 485.983L164.736 451.977L165.285 450.273H165.34L165.359 450.218L165.377 450.181L155.593 450.218L143.335 450.273Z" fill="#680014"/>
<path id="Vector_56" d="M165.267 450.273L164.735 451.959L153.797 485.983L153.229 487.742V487.779H158.543V487.742L159.129 485.983L170.159 451.977L170.709 450.236L165.34 450.273H165.267Z" fill="#210D81"/>
<path id="Vector_57" d="M127.046 485.965L128.915 487.742L128.952 487.761L128.97 487.742L129.538 485.965L135.108 469.017L116.309 475.741L127.046 485.965Z" fill="#210D81"/>
<path id="Vector_58" d="M135.035 468.998L141.357 450.255L122.375 456.979L135.035 468.998Z" fill="#210D81"/>
<path id="Vector_59" d="M269.246 412.62L267.89 411.576L255.56 402.048L224.65 426.857L222.817 422.771L252.811 398.017L341.29 323.665L357.908 332.808L359.484 333.688L339.898 350.837L293.414 391.495L269.246 412.62Z" fill="#E3D7B0"/>
<path id="Vector_60" d="M404.795 269.907L417.291 283.649L415.99 284.785L403.769 295.394L390.193 283.979L388.855 282.843L404.795 269.907Z" fill="#E3D7B0"/>
<path id="Vector_61" d="M171.185 157.628L152.606 151.416L149.986 158.324L168.29 164.297L171.185 157.628Z" fill="black"/>
<path id="Vector_62" d="M175.033 99.0875L155.996 131.207H166.806L175.033 99.0875Z" fill="black"/>
<path id="Vector_63" d="M146.303 230.477C146.828 230.477 147.342 230.322 147.779 230.03C148.216 229.738 148.556 229.323 148.757 228.837C148.958 228.352 149.011 227.818 148.908 227.302C148.806 226.787 148.553 226.314 148.181 225.942C147.81 225.571 147.336 225.317 146.821 225.215C146.306 225.112 145.772 225.165 145.286 225.366C144.801 225.567 144.386 225.908 144.094 226.345C143.802 226.782 143.646 227.295 143.646 227.821C143.646 228.525 143.926 229.201 144.424 229.699C144.922 230.198 145.598 230.477 146.303 230.477" fill="black"/>
<path id="Vector_64" d="M147.549 221.719C148.254 221.719 148.93 221.439 149.428 220.941C149.926 220.443 150.206 219.767 150.206 219.063C150.206 218.358 149.926 217.682 149.428 217.184C148.93 216.686 148.254 216.406 147.549 216.406C146.845 216.406 146.169 216.686 145.671 217.184C145.172 217.682 144.893 218.358 144.893 219.063C144.893 219.767 145.172 220.443 145.671 220.941C146.169 221.439 146.845 221.719 147.549 221.719" fill="black"/>
<path id="Vector_65" d="M148.795 212.961C149.321 212.961 149.836 212.805 150.273 212.512C150.71 212.219 151.051 211.803 151.251 211.317C151.452 210.83 151.503 210.295 151.399 209.779C151.295 209.264 151.04 208.79 150.667 208.419C150.294 208.049 149.819 207.797 149.302 207.697C148.785 207.596 148.251 207.651 147.766 207.855C147.28 208.059 146.867 208.403 146.577 208.842C146.287 209.281 146.135 209.797 146.138 210.323C146.138 210.671 146.207 211.015 146.341 211.337C146.475 211.658 146.671 211.95 146.917 212.195C147.164 212.44 147.457 212.634 147.78 212.766C148.102 212.897 148.447 212.964 148.795 212.961" fill="black"/>
<path id="Vector_66" d="M138.864 234.325C139.391 234.325 139.905 234.169 140.342 233.876C140.78 233.583 141.12 233.167 141.321 232.681C141.521 232.194 141.573 231.659 141.469 231.143C141.365 230.628 141.11 230.154 140.736 229.783C140.363 229.413 139.888 229.161 139.371 229.061C138.855 228.96 138.32 229.015 137.835 229.219C137.35 229.423 136.936 229.767 136.646 230.206C136.357 230.645 136.204 231.161 136.208 231.687C136.208 232.035 136.276 232.379 136.41 232.701C136.544 233.022 136.74 233.314 136.987 233.559C137.234 233.804 137.527 233.998 137.849 234.13C138.171 234.261 138.516 234.328 138.864 234.325Z" fill="black"/>
<path id="Vector_67" d="M140.11 225.567C140.636 225.567 141.151 225.411 141.588 225.118C142.025 224.825 142.366 224.409 142.566 223.923C142.767 223.436 142.818 222.901 142.714 222.385C142.61 221.869 142.355 221.396 141.982 221.025C141.609 220.654 141.133 220.403 140.617 220.302C140.1 220.202 139.566 220.257 139.08 220.461C138.595 220.665 138.182 221.008 137.892 221.448C137.602 221.887 137.45 222.402 137.453 222.929C137.453 223.277 137.522 223.621 137.656 223.943C137.79 224.264 137.985 224.556 138.232 224.801C138.479 225.046 138.772 225.24 139.095 225.372C139.417 225.503 139.762 225.569 140.11 225.567" fill="black"/>
<path id="Vector_68" d="M141.356 216.827C141.882 216.827 142.396 216.671 142.832 216.379C143.269 216.087 143.61 215.673 143.811 215.187C144.012 214.702 144.065 214.167 143.962 213.652C143.86 213.137 143.607 212.663 143.235 212.292C142.863 211.92 142.39 211.667 141.875 211.565C141.359 211.462 140.825 211.515 140.34 211.716C139.854 211.917 139.439 212.258 139.147 212.694C138.856 213.131 138.7 213.645 138.7 214.17C138.7 214.875 138.98 215.551 139.478 216.049C139.976 216.547 140.652 216.827 141.356 216.827Z" fill="black"/>
<path id="Vector_69" d="M216.093 323.354L216.111 323.336L216.13 323.299L202.993 323.336L191.798 323.354H191.779L191.798 323.39L203.89 339.826L216.02 323.445L228.076 339.881L240.26 323.336L240.334 323.244L221.15 323.336L216.093 323.354Z" fill="#210D81"/>
<path id="Vector_70" d="M240.334 323.225L240.407 323.335L252.445 339.771L264.629 323.335L264.684 323.262L240.334 323.225Z" fill="#210D81"/>
<path id="Vector_71" d="M236.193 357.452L236.138 362.967L264.886 362.912H264.904L264.923 357.452H264.886H236.193Z" fill="#680014"/>
<path id="Vector_72" d="M236.193 368.354L236.138 373.869L264.886 373.795H264.904L264.923 368.354H264.886H236.193Z" fill="#680014"/>
<g id="Group">
<path id="Vector_73" d="M179.87 72.0803L197.02 67.3897L181.409 45.9342L179.87 72.0803Z" fill="#01301C"/>
</g>
<path id="Vector_74" d="M98.0602 281.927L173.402 288.816L171.203 282.66L94.3774 275.642L98.0602 281.927Z" fill="#210D81"/>
</g>
</g>
<defs>
<clipPath id="clip0">
<rect width="476.566" height="500" fill="white" transform="translate(12)"/>
</clipPath>
</defs>
</svg>
