<?xml version="1.0" encoding="UTF-8" standalone="no"?>
<svg  viewBox="0 0 500 500" version="1.1" xmlns="http://www.w3.org/2000/svg" xmlns:xlink="http://www.w3.org/1999/xlink">
    <!-- Generator: Sketch 39.1 (31720) - http://www.bohemiancoding.com/sketch -->
    <title>ANA</title>
    <desc>Created with Sketch.</desc>
    <defs>
        <polygon id="path-1" points="500 283.913053 500 2.10775269 0.000925925926 2.10775269 0.000925925926 283.913053"></polygon>
    </defs>
    <g id="Page-1" stroke="none" stroke-width="1" fill="none" fill-rule="evenodd">
        <g id="ANA">
            <g id="Page-1" transform="translate(0.000000, 107.000000)">
                <path d="M123.048457,243.678122 C158.634877,231.337122 214.613272,206.355777 214.613272,171.218337 C214.613272,155.411734 198.560802,146.027143 186.866358,141.277756 C204.813889,132.173992 237.869444,111.824767 237.869444,85.4022505 C237.869444,52.9403903 178.585494,50.5456376 178.585494,50.5456376 C208.641049,42.0806806 258.59784,30.3815731 305.483642,30.3815731 C406.943519,30.3815731 472.591667,85.6337022 472.591667,104.754691 C472.591667,125.866165 344.733642,243.678122 123.048457,243.678122 M305.483642,25.5766376 C230.724383,25.5766376 149.26142,54.5790677 149.26142,54.5790677 C149.26142,54.5790677 233.063889,50.3635624 233.063889,85.4022505 C233.063889,118.061616 173.857099,142.027659 173.857099,142.027659 C173.857099,142.027659 209.80463,150.440154 209.80463,171.218337 C209.80463,218.43138 93.2891975,247.764014 93.2891975,247.764014 C337.789198,259.614337 477.397222,128.93367 477.397222,104.754691 C477.397222,82.310057 409.397222,25.5766376 305.483642,25.5766376" id="Fill-1" fill="#FEFEFE"></path>
                <path d="M417.136728,108.387556 C369.457716,149.845169 305.655247,172.107728 265.287963,182.800792 C265.287963,182.800792 342.025617,145.805567 368.11821,123.863954 L274.821914,126.916029 L370.91142,102.03961 C343.266358,81.0145452 292.575,68.0501688 292.575,68.0501688 C323.325,67.3897602 374.645988,72.8890505 417.136728,108.387556 M264.541049,65.7263946 C264.541049,65.7263946 330.053395,80.4806634 359.337346,100.0769 L231.615123,133.12819 L352.707716,129.174997 C325.729321,148.88233 227.315741,196.095373 227.315741,196.095373 C227.315741,196.095373 348.263272,178.100782 424.729321,108.267201 C356.673765,47.1547172 264.541049,65.7263946 264.541049,65.7263946" id="Fill-3" fill="#FEFEFE"></path>
                <g id="Group-7" transform="translate(0.000000, 0.979503)">
                    <mask id="mask-2" fill="white">
                        <use xlink:href="#path-1"></use>
                    </mask>
                    <g id="Clip-6"></g>
                    <path d="M153.828086,277.910741 C91.0811728,277.910741 43.3311728,265.242623 19.4453704,257.252913 C72.3589506,242.356687 177.365123,208.84558 177.365123,177.482343 C177.365123,160.46602 144.334259,153.716891 116.19537,151.035139 C150.442284,136.638848 199.45463,112.53702 199.45463,92.4655366 C199.45463,60.2845043 85.4083333,68.3143323 85.4083333,68.3143323 C122.522531,47.5886118 205.920679,8.11222473 303.084259,8.11222473 C394.899074,8.11222473 493.991667,48.7829022 493.991667,114.490472 C493.991667,182.827332 322.578086,277.910741 153.828086,277.910741 M303.084259,2.10682688 C168.522531,2.10682688 61.383642,75.7578161 61.383642,75.7578161 C61.383642,75.7578161 193.448457,65.126472 193.448457,92.4655366 C193.448457,116.428494 88.8959877,155.417289 88.8959877,155.417289 C88.8959877,155.417289 171.358951,157.56516 171.358951,177.482343 C171.358951,211.104547 0.000925925926,256.339451 0.000925925926,256.339451 C0.000925925926,256.339451 60.0533951,283.913053 153.828086,283.913053 C321.769444,283.913053 500.000926,188.690773 500.000926,114.490472 C500.000926,46.1597839 399.735494,2.10682688 303.084259,2.10682688" id="Fill-5" fill="#B1B7BB" mask="url(#mask-2)"></path>
                </g>
                <path d="M227.314506,196.095065 C227.314506,196.095065 325.728086,148.882022 352.706481,129.174688 L231.613889,133.127882 L359.336111,100.076591 C330.05216,80.4803548 264.542901,65.726086 264.542901,65.726086 C264.542901,65.726086 356.675617,47.1544086 424.728086,108.266892 C348.265123,178.100473 227.314506,196.095065 227.314506,196.095065 M305.484259,30.3818817 C258.598457,30.3818817 208.641667,42.0809892 178.583025,50.5459462 C178.583025,50.5459462 237.870062,52.9406989 237.870062,85.4025591 C237.870062,111.825075 204.814506,132.174301 186.866975,141.278065 C198.56142,146.027452 214.610802,155.412043 214.610802,171.218645 C214.610802,206.356086 158.635494,231.33743 123.049074,243.67843 C344.734259,243.67843 472.592284,125.866473 472.592284,104.755 C472.592284,85.6340108 406.944136,30.3818817 305.484259,30.3818817" id="Fill-8" fill="#D59F0F"></path>
                <path d="M122.376235,256.902341 L102.583025,262.164008 C102.583025,262.164008 120.286728,264.126717 148.197222,264.126717 C348.413272,264.126717 481.351543,142.333792 481.351543,122.941233 C481.351543,120.799534 480.64784,118.994212 480.64784,118.994212 C409.697222,203.418502 268.771296,261.614696 122.376235,256.902341" id="Fill-10" fill="#F47D30"></path>
                <path d="M292.575309,68.049243 C292.575309,68.049243 343.266667,81.0136194 370.911728,102.04177 L274.822222,126.915103 L368.118519,123.863028 C342.02284,145.804641 265.288272,182.802953 265.288272,182.802953 C305.655556,172.109888 369.458025,149.844243 417.137037,108.38663 C374.64321,72.8881247 323.325309,67.3888344 292.575309,68.049243" id="Fill-12" fill="#221F20"></path>
                <path d="M93.2904321,247.76494 C93.2904321,247.76494 209.805864,218.432305 209.805864,171.219262 C209.805864,150.44108 173.858333,142.025499 173.858333,142.025499 C173.858333,142.025499 233.065123,118.062542 233.065123,85.4031763 C233.065123,50.3644882 149.262654,54.5769075 149.262654,54.5769075 C149.262654,54.5769075 230.722531,25.5775634 305.484877,25.5775634 C409.398457,25.5775634 477.398457,82.3109828 477.398457,104.755617 C477.398457,128.934596 337.787346,259.615262 93.2904321,247.76494 M481.35216,122.941542 C481.35216,142.334101 348.413889,264.127026 148.194753,264.127026 C120.287346,264.127026 102.583642,262.164316 102.583642,262.164316 L122.376852,256.902649 C268.768827,261.615004 409.69784,203.418811 480.648457,118.99452 C480.648457,118.99452 481.35216,120.799843 481.35216,122.941542 M303.083642,9.09203656 C205.923148,9.09203656 122.521914,48.5684237 85.407716,69.2941441 C85.407716,69.2941441 199.454012,61.2643161 199.454012,93.4453484 C199.454012,113.516832 150.444753,137.61866 116.194753,152.014951 C144.333642,154.696703 177.364506,161.445832 177.364506,178.462155 C177.364506,209.825391 72.3583333,243.336499 19.4447531,258.232725 C43.3305556,266.222434 91.083642,278.890553 153.827469,278.890553 C322.577469,278.890553 493.994136,183.807144 493.994136,115.470284 C493.994136,49.762714 394.898457,9.09203656 303.083642,9.09203656" id="Fill-14" fill="#221F20"></path>
            </g>
        </g>
    </g>
</svg>