<?xml version="1.0" encoding="UTF-8" standalone="no"?>
<svg  viewBox="0 0 500 500" version="1.1" xmlns="http://www.w3.org/2000/svg" xmlns:xlink="http://www.w3.org/1999/xlink">
    <!-- Generator: Sketch 39.1 (31720) - http://www.bohemiancoding.com/sketch -->
    <title>CGY</title>
    <desc>Created with Sketch.</desc>
    <defs></defs>
    <g id="Page-1" stroke="none" stroke-width="1" fill="none" fill-rule="evenodd">
        <g id="CGY">
            <g id="Page-1" transform="translate(-1.000000, 36.000000)">
                <path d="M83.2918182,252.81081 C91.0281818,251.090922 95.6312121,238.458223 103.088788,238.458223 C111.143333,238.458223 111.80697,249.913041 144.491818,260.728957 C141.482727,262.112741 131.000909,270.86358 115.537273,270.86358 C92.1493939,270.86358 83.2918182,252.81081 83.2918182,252.81081 L83.2918182,252.81081 Z M360.673636,104.137384 C302.203939,104.137384 256.519091,179.391573 256.519091,237.770873 C256.519091,278.696943 276.852424,308.361985 315.90697,308.361985 C356.049394,308.361985 373.149394,261.800859 373.149394,261.800859 L465.131212,261.800859 C457.534242,305.497524 392.746364,396.609202 303.725152,396.609202 C263.228182,396.609202 240.349394,372.954685 210.061515,372.954685 C169.137273,372.954685 164.088788,409.720321 136.628182,409.720321 C128.346364,409.720321 122.885758,407.076901 122.885758,407.076901 C155.355455,391.867398 136.261515,351.32588 183.788788,337.793873 C169.067576,329.845447 154.449394,337.024769 134.082727,337.024769 C95.2190909,337.024769 73.1857576,292.168391 74.740303,258.636629 C74.740303,258.636629 86.9039394,281.079957 115.582727,281.079957 C140.940303,281.079957 146.552424,266.739482 174.937273,263.980999 C168.955455,254.212762 153.00697,250.515608 139.570606,247.802545 C122.828182,244.414244 114.61303,226.649132 101.643333,226.649132 C87.9463636,226.649132 86.5069697,247.009216 67.5281818,245.885838 C67.5281818,245.885838 76.8039394,241.40444 79.8706061,223.760447 C82.9221212,206.195181 93.1493939,192.978083 112.100909,192.978083 C131.164545,192.978083 150.228182,207.354894 156.619091,205.389741 C128.970606,185.880517 132.461515,169.126748 109.146364,169.126748 C86.4251515,169.126748 86.2251515,184.693552 54.4463636,184.693552 C40.9706061,184.693552 32.3463636,178.250027 32.3463636,178.250027 C77.6039394,167.658181 64.9645455,129.542069 122.764545,129.542069 C151.773636,129.542069 160.903939,142.27772 184.61,142.27772 C143.328182,113.045678 145.41,79.444272 111.849394,79.444272 C98.4069697,79.444272 89.340303,88.2011671 89.340303,88.2011671 C89.340303,88.2011671 102.41,60.9524469 136.982727,60.9524469 C171.867576,60.9524469 183.70697,91.0171811 228.846364,93.1397895 C191.603939,77.8939503 190.576667,49.3432021 190.576667,49.3432021 C190.576667,49.3432021 199.464545,62.0304049 213.282727,62.0304049 C250.043333,62.0304049 295.467576,17.1588874 353.01303,17.1588874 C427.349394,17.1588874 483.043333,70.893279 483.043333,136.669915 C483.043333,152.263971 480.358485,161.774831 480.358485,161.774831 L397.219091,161.774831 C397.219091,161.774831 399.822121,155.494817 399.822121,145.496454 C399.822121,126.096237 386.240303,104.137384 360.673636,104.137384 L360.673636,104.137384 Z M105.673636,378.701776 C73.1766667,378.701776 66.2190909,334.217838 66.2190909,322.61465 C66.2190909,316.171125 61.3554545,305.724622 61.3554545,305.724622 C82.179697,312.434608 83.1190909,348.658237 113.41303,348.658237 C130.452424,348.658237 142.337273,334.808293 161.303939,341.751433 C132.158485,357.082055 132.916061,378.701776 105.673636,378.701776 L105.673636,378.701776 Z M37.2857576,121.299929 C56.5281818,119.243936 66.31,92.8067126 98.3978788,92.8067126 C123.882727,92.8067126 139.961515,114.517272 139.961515,114.517272 C100.803939,102.638538 105.837273,133.187748 63.8251515,133.187748 C43.7130303,133.187748 37.2857576,121.299929 37.2857576,121.299929 L37.2857576,121.299929 Z M490.285758,173.511251 C490.285758,173.511251 494.567576,157.499335 494.567576,136.669915 C494.567576,62.5451601 436.71303,5.90694336 353.01303,5.90694336 C292.700909,5.90694336 241.458485,50.6391741 213.91,50.6391741 C202.152424,50.6391741 187.61,30.5334399 187.61,30.5334399 C187.61,30.5334399 171.603939,41.2827406 183.167576,65.7215028 C183.167576,65.7215028 164.216061,50.3454608 135.440303,50.3454608 C93.2857576,50.3454608 79.8736364,84.0649573 79.8736364,84.0649573 C47.8069697,95.2896497 50.1736364,113.2213 24.2342424,115.265181 C24.2342424,115.265181 27.1009091,143.610027 62.1190909,144.691013 C48.7493939,169.399265 7.95848485,173.084307 7.95848485,173.084307 C7.95848485,173.084307 19.5130303,194.716139 55.2948485,194.716139 C78.3918182,194.716139 94.4736364,185.795734 94.4736364,185.795734 C58.6342424,205.068776 81.71,231.820908 46.3645455,249.225692 C46.3645455,249.225692 54.1645455,253.628363 63.5918182,255.172629 C63.5918182,255.172629 64.2706061,277.419139 71.4433333,298.633111 C71.4433333,298.633111 61.5251515,290.506034 41.9918182,293.924615 C41.9918182,293.924615 55.1615152,308.791957 56.1645455,327.692559 C57.7706061,357.996503 74.1281818,389.351153 105.397879,389.351153 C122.749394,389.351153 132.270606,380.990922 132.270606,380.990922 C128.043333,396.787852 101.046364,407.167741 101.046364,407.167741 C101.046364,407.167741 115.349394,420.542293 136.628182,420.542293 C169.834242,420.542293 174.561515,385.451125 210.061515,385.451125 C237.231212,385.451125 260.70697,408.881573 303.861515,408.881573 C413.022121,408.881573 475.773636,294.085097 480.873636,250.067468 L364.773636,250.067468 C364.773636,250.067468 349.71,296.047223 315.90697,296.047223 C285.467576,296.047223 268.982727,273.210258 268.982727,237.831433 C268.982727,193.002307 305.070606,116.582349 360.767576,116.582349 C381.11,116.582349 386.846364,133.187748 386.846364,146.680391 C386.846364,161.350915 382.237273,173.511251 382.237273,173.511251 L490.285758,173.511251 Z" id="Fill-1" fill="#FDBD57"></path>
                <path d="M480.359091,161.77362 C480.359091,161.77362 483.043939,152.26276 483.043939,136.668704 C483.043939,70.8920678 427.35,17.1576762 353.013636,17.1576762 C295.465152,17.1576762 250.043939,62.0322217 213.280303,62.0322217 C199.465152,62.0322217 190.577273,49.3419909 190.577273,49.3419909 C190.577273,49.3419909 191.604545,77.8957671 228.84697,93.1385783 C183.704545,91.0189979 171.865152,60.9512357 136.983333,60.9512357 C102.407576,60.9512357 89.3409091,88.1999559 89.3409091,88.1999559 C89.3409091,88.1999559 98.4075758,79.4460888 111.85,79.4460888 C145.410606,79.4460888 143.325758,113.044466 184.607576,142.276508 C160.904545,142.276508 151.771212,129.540858 122.765152,129.540858 C64.9651515,129.540858 77.6045455,167.65697 32.3439394,178.248816 C32.3439394,178.248816 40.9712121,184.692341 54.4469697,184.692341 C86.2257576,184.692341 86.4257576,169.128564 109.14697,169.128564 C132.459091,169.128564 128.971212,185.882334 156.619697,205.388529 C150.228788,207.356711 131.165152,192.9799 112.101515,192.9799 C93.15,192.9799 82.9227273,206.196998 79.8712121,223.762264 C76.8045455,241.406257 67.5287879,245.884627 67.5287879,245.884627 C86.5045455,247.008005 87.9469697,226.650949 101.640909,226.650949 C114.613636,226.650949 122.828788,244.413033 139.571212,247.801334 C153.007576,250.517424 168.95303,254.21155 174.937879,263.982816 C146.55303,266.738271 140.940909,281.078746 115.583333,281.078746 C86.9045455,281.078746 74.7378788,258.635417 74.7378788,258.635417 C73.1863636,292.16718 95.2166667,337.026585 134.083333,337.026585 C154.45,337.026585 169.065152,329.844236 183.789394,337.79569 C136.259091,351.327697 155.356061,391.866187 122.886364,407.078718 C122.886364,407.078718 128.34697,409.722138 136.625758,409.722138 C164.089394,409.722138 169.137879,372.953473 210.062121,372.953473 C240.35,372.953473 263.228788,396.611019 303.725758,396.611019 C392.74697,396.611019 457.534848,305.499341 465.131818,261.799648 L373.15,261.799648 C373.15,261.799648 356.04697,308.360774 315.904545,308.360774 C276.85303,308.360774 256.519697,278.695732 256.519697,237.77269 C256.519697,179.390362 302.204545,104.139201 360.674242,104.139201 C386.237879,104.139201 399.822727,126.098054 399.822727,145.495243 C399.822727,155.496634 397.216667,161.77362 397.216667,161.77362 L480.359091,161.77362 Z" id="Fill-3" fill="#E21836"></path>
                <path d="M139.962121,114.517878 C139.962121,114.517878 123.880303,92.8073182 98.3984848,92.8073182 C66.3075758,92.8073182 56.5287879,119.241514 37.2863636,121.300535 C37.2863636,121.300535 43.7136364,133.188353 63.8257576,133.188353 C105.837879,133.188353 100.804545,102.639143 139.962121,114.517878" id="Fill-5" fill="#E21836"></path>
                <path d="M161.304242,341.751736 C142.337576,334.808596 130.449697,348.65854 113.413333,348.65854 C83.1193939,348.65854 82.18,312.43491 61.3557576,305.724924 C61.3557576,305.724924 66.2193939,316.171428 66.2193939,322.614952 C66.2193939,334.218141 73.1769697,378.702078 105.673939,378.702078 C132.916364,378.702078 132.158788,357.07933 161.304242,341.751736" id="Fill-7" fill="#E21836"></path>
                <g id="Group-11" transform="translate(0.000000, 0.756993)" fill="#221F20">
                    <path d="M360.768788,115.82475 C305.068788,115.82475 268.983939,192.244708 268.983939,237.073834 C268.983939,272.455687 285.465758,295.292652 315.905152,295.292652 C349.708182,295.292652 364.771818,249.309869 364.771818,249.309869 L480.874848,249.309869 C475.771818,293.327499 413.020303,408.123974 303.862727,408.123974 C260.705152,408.123974 237.229394,384.693527 210.062727,384.693527 C174.562727,384.693527 169.832424,419.784694 136.626364,419.784694 C115.350606,419.784694 101.047576,406.410142 101.047576,406.410142 C101.047576,406.410142 128.041515,396.030254 132.271818,380.233324 C132.271818,380.233324 122.750606,388.593555 105.396061,388.593555 C74.1263636,388.593555 57.7718182,357.241932 56.1627273,326.937988 C55.159697,308.037387 41.9930303,293.167016 41.9930303,293.167016 C61.5263636,289.748436 71.4415152,297.875513 71.4415152,297.875513 C64.2687879,276.661541 63.5930303,254.418058 63.5930303,254.418058 C54.1627273,252.870764 46.3627273,248.471121 46.3627273,248.471121 C81.7081818,231.066338 58.6354545,204.314205 94.4748485,185.038135 C94.4748485,185.038135 78.39,193.961569 55.2930303,193.961569 C19.5142424,193.961569 7.95666667,172.326708 7.95666667,172.326708 C7.95666667,172.326708 48.7475758,168.641666 62.1172727,143.933415 C27.1021212,142.852429 24.2324242,114.507583 24.2324242,114.507583 C50.1748485,112.463701 47.8081818,94.532051 79.8748485,83.3103867 C79.8748485,83.3103867 93.2839394,49.5878622 135.441515,49.5878622 C164.217273,49.5878622 183.168788,64.9639042 183.168788,64.9639042 C171.602121,40.525142 187.608182,29.7758413 187.608182,29.7758413 C187.608182,29.7758413 202.150606,49.8815755 213.908182,49.8815755 C241.459697,49.8815755 292.702121,5.14934476 353.011212,5.14934476 C436.711212,5.14934476 494.565758,61.7875615 494.565758,135.912317 C494.565758,156.744764 490.283939,172.753652 490.283939,172.753652 L382.238485,172.753652 C382.238485,172.753652 386.844545,160.593317 386.844545,145.922792 C386.844545,132.430149 381.111212,115.82475 360.768788,115.82475 L360.768788,115.82475 Z M494.408182,177.9981 C494.408182,177.9981 500.123333,161.619799 500.123333,135.912317 C500.123333,58.4386245 438.474848,0.271281818 353.011212,0.271281818 C287.580909,0.271281818 240.702121,44.413058 213.368788,44.413058 C202.117273,44.413058 188.79303,21.7819951 188.79303,21.7819951 C188.79303,21.7819951 170.199091,31.0385056 173.699091,52.9882748 C173.699091,52.9882748 158.929394,44.2677154 135.023333,44.2677154 C105.826364,44.2677154 82.5627273,62.8594636 75.7384848,79.1590371 C41.49,92.3246594 47.4839394,107.927799 18.1718182,110.665086 C18.1718182,110.665086 19.3748485,141.529205 52.0566667,148.369394 C35.3142424,165.098939 0.999090909,168.335841 0.999090909,168.335841 C0.999090909,178.876212 24.8142424,205.988673 72.0293939,198.203757 C59.9051515,215.584317 69.9021212,232.395617 37.4051515,247.895806 C37.4051515,247.895806 41.4506061,254.505869 58.2809091,258.832841 C58.2809091,258.832841 58.9506061,273.557869 63.09,288.425212 C63.09,288.425212 45.259697,284.004373 31.9263636,290.626548 C31.9263636,290.626548 49.1687879,303.764918 50.8748485,328.188541 C52.8021212,355.755198 67.7566667,398.119555 113.965758,393.553373 C106.968788,398.864436 93.0506061,404.048324 93.0506061,404.048324 C93.0506061,404.048324 105.708182,425.192652 137.447576,425.192652 C169.980909,425.192652 178.744545,390.479981 210.602121,390.479981 C240.623333,390.479981 254.971818,412.90817 303.862727,412.90817 C406.405152,412.90817 479.08697,311.283373 487.238485,243.744457 L360.899091,243.744457 C360.899091,243.744457 347.535455,289.95131 315.905152,289.95131 C295.414242,289.95131 274.414242,275.768289 274.414242,237.073834 C274.414242,195.560338 309.653636,121.635429 360.514242,121.635429 C375.629394,121.635429 380.662727,133.495995 380.662727,147.233904 C380.662727,162.089135 374.814242,177.9981 374.814242,177.9981 L494.408182,177.9981 Z" id="Fill-9"></path>
                </g>
                <path d="M132.779697,260.806776 C132.779697,260.806776 124.119091,265.703007 115.143333,265.703007 C97.9069697,265.703007 90.5736364,254.272413 90.5736364,254.272413 C96.0251515,253.088476 98.179697,244.289189 103.834242,244.289189 C108.594848,244.289189 110.116061,255.423042 132.779697,260.806776 M83.2918182,252.809902 C83.2918182,252.809902 92.1493939,270.862671 115.537273,270.862671 C131.000909,270.862671 141.482727,262.11486 144.491818,260.731077 C111.80697,249.912133 111.143333,238.457315 103.088788,238.457315 C95.6312121,238.457315 91.0281818,251.090014 83.2918182,252.809902" id="Fill-12" fill="#221F20"></path>
            </g>
        </g>
    </g>
</svg>