<?xml version="1.0" encoding="UTF-8"?>
<svg  viewBox="0 0 500 500" version="1.1" xmlns="http://www.w3.org/2000/svg" xmlns:xlink="http://www.w3.org/1999/xlink">
    <!-- Generator: Sketch 58 (84663) - https://sketch.com -->
    <title>Team Logos / NHL / Dark / LA</title>
    <desc>Created with Sketch.</desc>
    <g id="Team-Logos-/-NHL-/-Dark-/-LA" stroke="none" stroke-width="1" fill="none" fill-rule="evenodd">
        <g id="NHL_Kings_Primary_091719" transform="translate(41.000000, 1.000000)">
            <path d="M408.127148,10.5945017 L408.127148,341.668385 L209.812715,485.19244 L10.9484536,341.668385 L10.9484536,10.5945017 L408.127148,10.5945017 Z M0.604810997,0.250859107 L0.604810997,346.955326 L209.814433,497.953608 L418.469072,346.955326 L418.469072,0.250859107 L0.604810997,0.250859107 L0.604810997,0.250859107 Z" id="Fill-302" fill="#1A1919"></path>
            <path d="M32.7079038,251.360825 L386.953608,251.360825 L386.953608,329.360825 L209.831615,457.38488 L209.829897,457.38488 L32.7079038,329.360825 L32.7079038,251.360825 Z M32.7079038,240.429553 L386.953608,240.429553 L386.953608,31.3780069 L32.7079038,31.3780069 L32.7079038,240.429553 Z M209.814433,473.230241 L398.431271,336.713058 L398.431271,20.290378 L20.6426117,20.290378 L20.6426117,336.714777 L209.814433,473.230241 L209.814433,473.230241 Z" id="Fill-303" fill="#FFFFFE"></path>
            <path d="M20.6426117,336.068729 L20.6426117,20.290378 L398.431271,20.290378 L398.431271,336.714777 L209.814433,473.230241 L20.6426117,336.714777 L20.6426117,336.068729 Z M10.9484536,341.668385 L209.812715,485.19244 L408.127148,341.668385 L408.127148,10.5945017 L10.9484536,10.5945017 L10.9484536,341.668385 L10.9484536,341.668385 Z" id="Fill-304" fill="#AAAEAE"></path>
            <path d="M239.773196,129.33677 L338.013746,129.33677 L338.013746,91.0051546 L239.773196,91.0051546 L239.773196,129.33677 Z M221.085911,177.953608 C219.536082,184.634021 217.857388,189.360825 216.560137,192.391753 L239.773196,192.391753 L239.773196,146.19244 L239.774914,146.19244 L239.774914,146.185567 L338.015464,146.185567 L338.015464,192.391753 L361.209622,192.391753 C360.536082,190.805842 359.752577,188.735395 358.939863,186.195876 C356.723368,179.28866 354.290378,168.670103 353.085911,153.417526 C352.613402,147.426117 352.319588,140.757732 352.319588,133.273196 C352.319588,126.982818 352.5189,121.238832 352.862543,116.008591 C353.977663,99.0738832 356.61512,87.5463918 358.9811,80.2113402 C359.780069,77.7302405 360.54811,75.7044674 361.21134,74.1443299 L216.560137,74.1443299 C217.87457,77.2182131 219.580756,82.032646 221.147766,88.8591065 C223.455326,98.8900344 225.458763,113.30756 225.458763,133.273196 C225.458763,153.414089 223.419244,167.910653 221.085911,177.953608 L221.085911,177.953608 Z" id="Fill-305" fill="#FFFFFE"></path>
            <path d="M67.3127148,133.268041 L67.3127148,133.269759 C67.3127148,148.469072 66.1494845,160.446735 64.580756,169.737113 C63.2061856,177.876289 61.5257732,183.931271 60.024055,188.226804 C59.4587629,189.848797 58.9158076,191.252577 58.4295533,192.391753 L187.293814,192.391753 C188.249141,190.886598 190.015464,187.816151 191.790378,183.487973 C193.24055,179.955326 194.69244,175.579038 195.723368,170.505155 C196.216495,168.075601 196.616838,165.496564 196.867698,162.764605 C195.565292,163.652921 193.998282,164.630584 192.180412,165.632302 C188.225086,167.814433 183.034364,170.123711 176.45189,171.963918 C168.979381,174.054983 159.733677,175.537801 148.52921,175.537801 L81.6597938,175.537801 L81.6597938,133.268041 C81.6597938,117.895189 82.8522337,105.823024 84.4501718,96.4879725 C85.7199313,89.0601375 87.2439863,83.371134 88.6426117,79.2027491 C89.3213058,77.1786942 89.9707904,75.4914089 90.5429553,74.1477663 L58.4295533,74.1477663 C59.0034364,75.4914089 59.652921,77.1786942 60.3333333,79.2027491 C61.7319588,83.371134 63.2560137,89.0601375 64.5257732,96.4879725 C66.1219931,105.823024 67.3127148,117.895189 67.3127148,133.268041" id="Fill-306" fill="#FFFFFE"></path>
            <path d="M257.628866,383.17354 C257.628866,383.17354 243.627148,386.670103 220.027491,387.328179 C220.027491,387.328179 220.061856,387.324742 220.068729,387.323024 C220.053265,387.324742 220.039519,387.324742 220.024055,387.324742 C220.024055,387.324742 236.065292,385.82646 245.585911,382.187285 C244.714777,382.310997 243.761168,382.439863 242.756014,382.572165 C239.517182,383 235.642612,383.446735 231.544674,383.793814 C227.429553,384.142612 223.097938,384.391753 218.927835,384.391753 C218.927835,384.391753 218.95189,384.390034 218.955326,384.390034 C218.946735,384.390034 218.939863,384.390034 218.93299,384.390034 C218.93299,384.390034 225.436426,383.706186 232.305842,382.149485 C235.14433,381.506873 238.042955,380.716495 240.573883,379.756014 C238.43299,380.044674 235.977663,380.345361 233.365979,380.620275 C228.0189,381.185567 221.967354,381.640893 216.233677,381.640893 C216.233677,381.640893 216.256014,381.639175 216.25945,381.637457 C216.252577,381.637457 216.245704,381.639175 216.238832,381.639175 C216.238832,381.639175 228.910653,380.323024 237.539519,377.159794 C234.256014,376.457045 230.623711,375.823024 226.742268,375.316151 C221.527491,374.639175 215.848797,374.197595 209.831615,374.197595 C202.402062,374.197595 195.496564,374.860825 189.350515,375.824742 C186.793814,376.226804 184.357388,376.67354 182.089347,377.158076 C190.74055,380.323024 203.424399,381.639175 203.424399,381.639175 C203.417526,381.639175 203.408935,381.637457 203.402062,381.637457 C203.40378,381.639175 203.427835,381.640893 203.427835,381.640893 C197.757732,381.640893 191.780069,381.197595 186.482818,380.640893 C183.802405,380.360825 181.283505,380.053265 179.092784,379.757732 C181.558419,380.694158 184.376289,381.469072 187.149485,382.106529 C194.085911,383.69244 200.714777,384.390034 200.714777,384.390034 C200.702749,384.390034 200.69244,384.390034 200.682131,384.390034 C200.683849,384.390034 200.709622,384.391753 200.709622,384.391753 C196.56701,384.391753 192.261168,384.146048 188.168385,383.798969 C184.223368,383.467354 180.501718,383.041237 177.335052,382.628866 C176.170103,382.475945 175.054983,382.32646 174.061856,382.187285 C183.591065,385.82646 199.623711,387.324742 199.623711,387.324742 C199.611684,387.324742 199.601375,387.324742 199.589347,387.324742 C199.594502,387.324742 199.627148,387.328179 199.627148,387.328179 C176.0189,386.670103 162.010309,383.17354 162.010309,383.17354 L151.189003,320.213058 L151.19244,320.218213 L151.19244,320.216495 L162.151203,334.90378 C163.35567,332.938144 164.845361,331.06701 166.587629,329.314433 C171.814433,324.046392 179.324742,319.823024 188.328179,317.201031 L186.582474,312.955326 L185.012027,309.140893 L201.975945,316.754296 L201.975945,312.573883 L209.82646,299.085911 L209.828179,299.089347 L209.831615,299.084192 L217.658076,312.580756 L217.658076,316.756014 L234.634021,309.140893 L234.632302,309.14433 L234.637457,309.142612 L233.396907,312.156357 L231.323024,317.202749 C231.391753,317.223368 231.45189,317.247423 231.5189,317.268041 C232.871134,317.666667 234.189003,318.103093 235.47079,318.572165 C235.609966,318.621993 235.749141,318.67354 235.886598,318.725086 C237.156357,319.201031 238.388316,319.709622 239.582474,320.252577 C239.713058,320.310997 239.845361,320.371134 239.975945,320.431271 C241.164948,320.9811 242.314433,321.563574 243.420962,322.176976 C243.530928,322.237113 243.642612,322.298969 243.752577,322.360825 C244.867698,322.987973 245.939863,323.647766 246.963918,324.335052 C247.042955,324.390034 247.121993,324.441581 247.201031,324.494845 C248.243986,325.204467 249.237113,325.946735 250.176976,326.714777 C250.221649,326.750859 250.266323,326.786942 250.309278,326.823024 C251.268041,327.613402 252.171821,328.43299 253.015464,329.280069 C253.037801,329.302405 253.058419,329.323024 253.080756,329.343643 C253.93299,330.204467 254.725086,331.094502 255.45189,332.008591 C255.465636,332.024055 255.477663,332.039519 255.489691,332.054983 C256.214777,332.969072 256.87457,333.908935 257.465636,334.869416 C257.472509,334.881443 257.482818,334.891753 257.489691,334.90378 L268.465636,320.213058 L268.463918,320.223368 L268.469072,320.216495 L257.628866,383.17354 Z M200.498282,310.498282 L208.92268,295.963918 L206.558419,291.910653 L204.790378,288.902062 L203.934708,288.032646 L203.792096,287.890034 L203.792096,287.888316 L203.78866,287.88488 L204.297251,287.149485 L204.487973,286.871134 L204.491409,286.871134 L204.494845,286.865979 L205.398625,286.938144 L206.012027,286.982818 L206.268041,288.225086 L208.07732,291.38488 L209.819588,294.407216 L213.381443,288.225086 L213.570447,287.281787 L213.627148,286.986254 L213.630584,286.986254 L213.630584,286.982818 L214.180412,286.943299 L215.151203,286.865979 L215.154639,286.871134 L215.161512,286.871134 L215.774914,287.776632 L215.848797,287.88488 L215.852234,287.890034 L214.872852,288.898625 L210.719931,295.963918 L219.161512,310.498282 L225.824742,310.498282 L225.006873,312.092784 L218.269759,312.092784 L212.910653,302.85567 L209.821306,297.549828 L201.714777,311.508591 L201.378007,312.091065 L201.376289,312.091065 L201.37457,312.092784 L194.630584,312.092784 L193.829897,310.498282 L200.498282,310.498282 Z M269.484536,314.383162 C269.469072,314.407216 259.429553,327.80756 257.561856,330.30756 C257.561856,330.30756 257.561856,330.305842 257.560137,330.305842 C257.560137,330.30756 257.556701,330.310997 257.556701,330.312715 C255.881443,328.261168 253.560137,326.010309 250.714777,323.823024 C246.560137,320.632302 241.257732,317.57732 234.948454,315.487973 C234.950172,315.487973 234.950172,315.486254 234.950172,315.484536 C235.534364,314.072165 237.56701,309.118557 238.75945,306.213058 C239.280069,304.938144 239.639175,304.060137 239.646048,304.042955 C239.634021,304.04811 238.604811,304.465636 237.228522,305.024055 C235.292096,305.814433 232.66323,306.886598 231.180412,307.494845 C231.182131,307.491409 231.182131,307.489691 231.183849,307.486254 C231.180412,307.487973 231.176976,307.489691 231.17354,307.491409 C231.427835,306.958763 231.69244,306.463918 231.701031,306.45189 C231.646048,306.455326 229.357388,306.572165 226.90378,306.699313 C224.472509,306.828179 221.888316,306.965636 221.182131,307.008591 C221.080756,306.824742 220.886598,306.4811 220.640893,306.041237 C219.838488,304.616838 218.405498,302.080756 217.149485,299.85567 C216.049828,297.910653 215.089347,296.209622 214.823024,295.735395 C215.039519,295.350515 215.434708,294.658076 215.859107,293.92268 C216.572165,292.671821 217.360825,291.292096 217.493127,291.09622 C217.635739,290.953608 218.225086,290.445017 218.810997,289.943299 C219.47079,289.37457 220.121993,288.814433 220.121993,288.814433 L217.108247,283.089347 L214.099656,283.295533 L210.69244,283.532646 C210.69244,283.539519 210.680412,283.87457 210.664948,284.324742 C210.632302,285.250859 210.582474,286.709622 210.572165,287.085911 L210.120275,287.821306 L209.835052,288.300687 L209.829897,288.292096 L209.82646,288.297251 L209.42268,287.635739 L209.080756,287.082474 C209.065292,286.522337 208.953608,283.551546 208.95189,283.532646 L206.159794,283.33677 L202.534364,283.089347 L201.19244,285.634021 L199.522337,288.814433 C199.522337,288.814433 201.840206,290.795533 202.168385,291.091065 C202.369416,291.412371 204.245704,294.699313 204.847079,295.735395 C204.17354,296.920962 199.209622,305.702749 198.487973,307.008591 C197.704467,306.962199 194.726804,306.802405 192.132302,306.666667 C189.900344,306.551546 187.950172,306.45189 187.950172,306.45189 C187.950172,306.45189 188.103093,306.738832 188.293814,307.116838 C188.353952,307.235395 188.417526,307.362543 188.479381,307.491409 C188.479381,307.489691 188.477663,307.489691 188.477663,307.489691 C188.477663,307.491409 188.477663,307.493127 188.479381,307.494845 C187.876289,307.245704 187.079038,306.920962 186.218213,306.568729 C183.486254,305.455326 180.101375,304.080756 180.015464,304.046392 C180.032646,304.091065 181.025773,306.520619 182.108247,309.171821 C183.159794,311.731959 184.292096,314.487973 184.704467,315.484536 C184.702749,315.484536 184.702749,315.484536 184.701031,315.486254 C184.702749,315.486254 184.702749,315.487973 184.702749,315.487973 C175.43299,318.553265 168.302405,323.689003 163.88488,328.293814 C163.860825,328.319588 163.831615,328.343643 163.809278,328.367698 C163.752577,328.427835 163.709622,328.484536 163.654639,328.542955 C163.089347,329.142612 162.558419,329.737113 162.091065,330.312715 C161.975945,330.158076 161.829897,329.962199 161.659794,329.733677 C159.02921,326.223368 150.17354,314.381443 150.17354,314.381443 L147.623711,315.487973 L159.924399,386.079038 C159.924399,386.079038 177.453608,390.561856 209.82646,390.561856 C242.190722,390.561856 259.719931,386.079038 259.719931,386.079038 L272.02921,315.487973 L270.493127,314.819588 L269.484536,314.383162 L269.484536,314.383162 Z" id="Fill-307" fill="#FFFFFE"></path>
            <path d="M167.099656,341.479381 C170.714777,334.400344 176.134021,330.45189 180.668385,328.269759 C180.689003,328.25945 180.71134,328.245704 180.731959,328.235395 C180.795533,328.204467 180.853952,328.183849 180.917526,328.152921 C181.467354,327.893471 182.005155,327.659794 182.524055,327.450172 C182.998282,327.257732 183.45189,327.091065 183.891753,326.934708 C183.929553,326.920962 183.974227,326.90378 184.013746,326.890034 C186.907216,325.883162 188.915808,325.654639 188.915808,325.654639 C188.912371,325.656357 188.907216,325.659794 188.90378,325.661512 L188.917526,325.658076 C187.228522,326.283505 185.683849,326.962199 184.250859,327.678694 C175.151203,332.243986 171.065292,338.515464 169.575601,344.670103 C169.568729,344.701031 169.560137,344.730241 169.551546,344.75945 L170.652921,346.24055 L172.348797,348.510309 C172.348797,348.510309 172.187285,353.097938 172.697595,357.376289 C172.943299,359.419244 173.340206,361.395189 173.986254,362.762887 C174.235395,362.666667 174.513746,362.565292 174.793814,362.465636 C175.216495,362.312715 175.66323,362.154639 176.159794,361.991409 C174.190722,353.867698 174.768041,347.768041 176.517182,343.197595 C176.766323,342.54811 177.037801,341.929553 177.329897,341.338488 C177.54811,340.902062 177.785223,340.496564 178.022337,340.091065 C178.106529,339.948454 178.180412,339.795533 178.264605,339.656357 C178.517182,339.249141 178.785223,338.872852 179.054983,338.5 C179.135739,338.38488 179.21134,338.257732 179.295533,338.147766 C179.56701,337.785223 179.850515,337.45189 180.135739,337.120275 C180.225086,337.015464 180.309278,336.898625 180.400344,336.797251 C180.687285,336.475945 180.9811,336.182131 181.276632,335.888316 C181.369416,335.795533 181.458763,335.694158 181.553265,335.603093 C181.848797,335.319588 182.147766,335.063574 182.446735,334.80756 C182.541237,334.725086 182.635739,334.635739 182.730241,334.556701 C183.032646,334.30756 183.333333,334.082474 183.632302,333.859107 C183.725086,333.790378 183.819588,333.713058 183.910653,333.646048 C184.213058,333.429553 184.508591,333.235395 184.804124,333.044674 C184.891753,332.987973 184.9811,332.924399 185.068729,332.867698 C185.372852,332.676976 185.668385,332.505155 185.962199,332.340206 C186.032646,332.298969 186.108247,332.252577 186.178694,332.21134 C186.487973,332.041237 186.785223,331.888316 187.075601,331.743986 C187.121993,331.719931 187.171821,331.694158 187.218213,331.671821 C187.541237,331.512027 187.848797,331.371134 188.140893,331.245704 C188.146048,331.242268 188.152921,331.238832 188.158076,331.237113 C189.697595,330.568729 190.737113,330.323024 190.737113,330.323024 C190.733677,330.324742 190.730241,330.32646 190.726804,330.328179 C190.728522,330.328179 190.738832,330.32646 190.738832,330.32646 C185.151203,333.204467 181.853952,336.929553 180.075601,340.939863 C177.343643,347.103093 178.204467,353.931271 179.841924,359.379725 C179.979381,359.83677 180.118557,360.293814 180.264605,360.730241 C181.42268,360.42268 182.689003,360.091065 184.06701,359.769759 C184.16323,359.745704 184.249141,359.721649 184.347079,359.699313 L186.601375,348.616838 C185.402062,348.151203 184.414089,347.242268 183.841924,346.091065 C183.498282,345.400344 183.304124,344.623711 183.304124,343.802405 C183.304124,342.286942 183.974227,340.938144 185.020619,339.996564 C185.934708,339.171821 187.130584,338.656357 188.453608,338.656357 C190.137457,338.656357 191.604811,339.450172 192.551546,340.678694 C193.226804,341.106529 193.781787,341.689003 194.176976,342.37457 C194.185567,342.386598 194.197595,342.396907 194.204467,342.412371 C194.603093,343.11512 194.828179,343.926117 194.828179,344.792096 C194.828179,345.252577 194.766323,345.697595 194.647766,346.120275 C194.297251,347.38488 193.455326,348.434708 192.319588,349.060137 L196.967354,357.530928 L197.056701,357.69244 C198.59622,357.534364 200.171821,357.412371 201.757732,357.314433 C202.747423,357.252577 203.737113,357.190722 204.738832,357.149485 L189.474227,319.987973 C181.80756,322.230241 175.230241,325.695876 170.386598,329.934708 C167.743986,332.247423 165.608247,334.785223 164.108247,337.486254 L167.099656,341.479381" id="Fill-308" fill="#FFFFFE"></path>
            <path d="M217.323024,357.281787 C218.249141,357.33677 219.164948,357.402062 220.075601,357.477663 C220.915808,357.546392 221.762887,357.609966 222.580756,357.694158 L227.776632,348.228522 C227.493127,348.060137 227.247423,347.843643 227.001718,347.628866 C225.931271,346.69244 225.237113,345.338488 225.237113,343.805842 C225.237113,340.967354 227.553265,338.656357 230.400344,338.656357 C231.197595,338.656357 231.948454,338.848797 232.62543,339.175258 C233.060137,339.383162 233.455326,339.654639 233.812715,339.972509 C234.058419,340.190722 234.295533,340.419244 234.498282,340.678694 C235.860825,341.551546 236.783505,343.060137 236.783505,344.792096 C236.783505,347.036082 235.268041,348.912371 233.214777,349.474227 L233.704467,351.893471 L235.28866,359.699313 C235.92268,359.845361 236.515464,359.994845 237.099656,360.140893 C237.895189,360.341924 238.659794,360.539519 239.376289,360.728522 C242.405498,351.697595 243.78866,338 228.900344,330.32646 L228.908935,330.328179 C228.905498,330.32646 228.902062,330.323024 228.898625,330.321306 C228.898625,330.321306 230.670103,330.735395 233.025773,331.972509 C233.037801,331.977663 233.04811,331.986254 233.060137,331.991409 C233.378007,332.158076 233.706186,332.340206 234.044674,332.539519 C234.087629,332.565292 234.134021,332.59622 234.178694,332.623711 C234.486254,332.80756 234.797251,333 235.116838,333.21134 C235.175258,333.252577 235.235395,333.298969 235.295533,333.340206 C235.601375,333.54811 235.907216,333.762887 236.218213,333.998282 C236.295533,334.056701 236.371134,334.123711 236.446735,334.182131 C236.742268,334.412371 237.037801,334.64433 237.331615,334.902062 C237.427835,334.984536 237.5189,335.07732 237.61512,335.16323 C237.890034,335.412371 238.166667,335.658076 238.438144,335.931271 C238.539519,336.032646 238.637457,336.147766 238.738832,336.254296 C239,336.527491 239.262887,336.797251 239.517182,337.094502 C239.613402,337.209622 239.704467,337.33677 239.800687,337.453608 C240.053265,337.761168 240.305842,338.06701 240.546392,338.398625 C240.642612,338.530928 240.730241,338.682131 240.824742,338.817869 C241.056701,339.152921 241.28866,339.486254 241.506873,339.847079 C241.812715,340.353952 242.104811,340.886598 242.378007,341.446735 C244.685567,346.168385 245.713058,352.786942 243.479381,361.989691 C243.798969,362.094502 244.091065,362.199313 244.381443,362.300687 C244.83677,362.460481 245.268041,362.61512 245.659794,362.762887 C247.66323,358.534364 247.302405,348.517182 247.302405,348.517182 L247.304124,348.513746 L250.094502,344.75945 C249.752577,343.309278 249.256014,341.853952 248.591065,340.412371 C246.912371,336.769759 244.104811,333.235395 239.670103,330.194158 C237.213058,328.508591 234.269759,326.972509 230.721649,325.658076 C230.721649,325.658076 230.743986,325.661512 230.745704,325.661512 C230.738832,325.659794 230.733677,325.656357 230.726804,325.654639 C230.726804,325.654639 232.218213,325.828179 234.479381,326.522337 C234.512027,326.532646 234.54811,326.544674 234.580756,326.553265 C234.862543,326.640893 235.149485,326.733677 235.45189,326.838488 C235.522337,326.862543 235.599656,326.891753 235.671821,326.917526 C235.945017,327.013746 236.221649,327.111684 236.508591,327.221649 C236.609966,327.262887 236.718213,327.30756 236.819588,327.347079 C237.087629,327.453608 237.35567,327.560137 237.634021,327.680412 C237.762887,327.733677 237.895189,327.797251 238.025773,327.85567 C238.28866,327.972509 238.551546,328.087629 238.821306,328.216495 C238.958763,328.281787 239.099656,328.357388 239.238832,328.426117 C239.508591,328.560137 239.778351,328.69244 240.054983,328.840206 C240.199313,328.914089 240.345361,329.003436 240.491409,329.084192 C240.766323,329.237113 241.041237,329.38488 241.319588,329.551546 C241.463918,329.635739 241.611684,329.735395 241.757732,329.824742 C242.039519,329.998282 242.323024,330.171821 242.608247,330.359107 C242.742268,330.448454 242.876289,330.549828 243.010309,330.640893 C243.30756,330.847079 243.604811,331.04811 243.90378,331.269759 C244.335052,331.589347 244.766323,331.926117 245.194158,332.281787 C247.895189,334.52921 250.508591,337.494845 252.549828,341.479381 L252.790378,341.156357 L255.537801,337.482818 C254.161512,335.008591 252.256014,332.670103 249.914089,330.515464 C245.015464,326.013746 238.185567,322.328179 230.175258,319.984536 L214.907216,357.149485 C215.716495,357.182131 216.5189,357.235395 217.323024,357.281787" id="Fill-309" fill="#FFFFFE"></path>
            <path d="M188.45189,347.726804 C186.302405,347.726804 184.537801,345.953608 184.537801,343.805842 L184.537801,343.802405 C184.537801,341.654639 186.302405,339.905498 188.45189,339.905498 C190.623711,339.905498 192.364261,341.654639 192.364261,343.802405 L192.364261,343.805842 C192.364261,345.953608 190.623711,347.726804 188.45189,347.726804 Z M190.283505,339.810997 C189.725086,339.556701 189.108247,339.40378 188.453608,339.40378 C186.039519,339.40378 184.06701,341.383162 184.06701,343.805842 C184.06701,346.235395 186.039519,348.223368 188.453608,348.223368 C189.546392,348.223368 190.532646,347.809278 191.304124,347.149485 C192.242268,346.333333 192.845361,345.142612 192.845361,343.805842 C192.845361,342.034364 191.798969,340.510309 190.283505,339.810997 L190.283505,339.810997 Z" id="Fill-310" fill="#FFFFFE"></path>
            <path d="M234.317869,343.805842 C234.317869,345.953608 232.561856,347.726804 230.395189,347.726804 C228.247423,347.726804 226.482818,345.953608 226.482818,343.805842 L226.482818,343.802405 C226.482818,341.654639 228.247423,339.905498 230.395189,339.905498 C232.561856,339.905498 234.317869,341.654639 234.317869,343.802405 L234.317869,343.805842 Z M234.790378,343.805842 C234.790378,343.156357 234.640893,342.542955 234.388316,341.986254 C233.690722,340.469072 232.166667,339.40378 230.400344,339.40378 C227.977663,339.40378 225.989691,341.383162 225.989691,343.805842 C225.989691,346.235395 227.977663,348.223368 230.400344,348.223368 C232.189003,348.223368 233.737113,347.128866 234.419244,345.573883 C234.654639,345.02921 234.790378,344.43299 234.790378,343.805842 L234.790378,343.805842 Z" id="Fill-311" fill="#FFFFFE"></path>
            <path d="M160.587629,355.015464 C160.587629,354.522337 160.402062,354.082474 160.116838,353.743986 C159.783505,353.35567 159.312715,353.103093 158.785223,353.101375 C158.666667,353.101375 158.56701,353.12543 158.462199,353.146048 C158.407216,353.158076 158.341924,353.149485 158.292096,353.171821 L158.93299,356.92268 C159.867698,356.833333 160.587629,356.032646 160.587629,355.015464" id="Fill-312" fill="#FFFFFE"></path>
            <path d="M163.938144,355.015464 C163.938144,351.955326 161.639175,349.494845 158.786942,349.491409 C158.395189,349.491409 158.036082,349.546392 157.659794,349.627148 L157.797251,350.331615 C158.116838,350.245704 158.445017,350.204467 158.781787,350.204467 C158.783505,350.204467 158.785223,350.204467 158.786942,350.204467 C158.78866,350.204467 158.790378,350.204467 158.792096,350.204467 C160.171821,350.204467 161.388316,350.898625 162.202749,351.967354 C162.841924,352.798969 163.238832,353.850515 163.238832,355.015464 C163.238832,356.154639 162.859107,357.190722 162.243986,358.010309 C161.554983,358.936426 160.563574,359.589347 159.424399,359.771478 L159.544674,360.477663 C162.02921,360.082474 163.938144,357.781787 163.938144,355.015464" id="Fill-313" fill="#FFFFFE"></path>
            <path d="M260,353.357388 C259.445017,353.685567 259.051546,354.292096 259.051546,355.015464 C259.051546,356.034364 259.781787,356.835052 260.709622,356.92268 L260.895189,355.852234 L261.353952,353.171821 C261.204467,353.109966 261.037801,353.101375 260.85567,353.101375 C260.539519,353.103093 260.257732,353.207904 260,353.357388" id="Fill-314" fill="#FFFFFE"></path>
            <path d="M260.848797,349.491409 C258.001718,349.491409 255.701031,351.95189 255.701031,355.013746 C255.701031,357.087629 256.783505,358.907216 258.369416,359.845361 C258.896907,360.158076 259.4811,360.372852 260.103093,360.472509 L260.168385,360.111684 L260.214777,359.771478 C258.073883,359.426117 256.405498,357.438144 256.405498,355.015464 C256.405498,353.017182 257.527491,351.30756 259.127148,350.579038 C259.654639,350.335052 260.235395,350.201031 260.840206,350.201031 C261.199313,350.201031 261.532646,350.249141 261.852234,350.328179 L261.969072,349.630584 C261.750859,349.57732 261.512027,349.56701 261.278351,349.542955 C261.134021,349.52921 261.001718,349.491409 260.848797,349.491409" id="Fill-315" fill="#FFFFFE"></path>
            <path d="M209.812715,319.457045 C208.699313,319.457045 207.785223,318.565292 207.785223,317.443299 C207.785223,316.312715 208.699313,315.396907 209.812715,315.396907 C210.936426,315.396907 211.850515,316.312715 211.850515,317.443299 C211.850515,318.565292 210.936426,319.457045 209.812715,319.457045 Z M209.814433,315.130584 C208.563574,315.130584 207.52921,316.171821 207.52921,317.448454 C207.52921,318.079038 207.800687,318.658076 208.228522,319.07732 C208.640893,319.4811 209.199313,319.737113 209.812715,319.737113 C210.402062,319.737113 210.92268,319.5 211.329897,319.140893 C211.809278,318.718213 212.123711,318.118557 212.123711,317.448454 C212.123711,316.171821 211.097938,315.130584 209.814433,315.130584 L209.814433,315.130584 Z" id="Fill-316" fill="#FFFFFE"></path>
            <path d="M222.195876,323.867698 C221.073883,323.867698 220.142612,322.962199 220.142612,321.829897 C220.142612,320.701031 221.073883,319.810997 222.195876,319.810997 C223.310997,319.810997 224.225086,320.701031 224.225086,321.829897 C224.225086,322.962199 223.310997,323.867698 222.195876,323.867698 Z M224.465636,321.829897 C224.463918,320.572165 223.446735,319.537801 222.195876,319.537801 C220.920962,319.537801 219.90378,320.572165 219.90378,321.829897 C219.90378,323.089347 220.920962,324.121993 222.195876,324.121993 C223.446735,324.121993 224.463918,323.089347 224.465636,321.829897 L224.465636,321.829897 Z" id="Fill-317" fill="#FFFFFE"></path>
            <path d="M196.285223,323.867698 C195.16323,323.867698 194.257732,322.962199 194.257732,321.829897 C194.257732,320.701031 195.16323,319.810997 196.285223,319.810997 C197.408935,319.810997 198.323024,320.701031 198.323024,321.829897 C198.323024,322.962199 197.408935,323.867698 196.285223,323.867698 Z M196.285223,319.537801 C195.027491,319.537801 193.993127,320.572165 193.993127,321.829897 C193.993127,323.089347 195.027491,324.121993 196.285223,324.121993 C197.544674,324.121993 198.579038,323.089347 198.579038,321.829897 C198.579038,320.572165 197.544674,319.537801 196.285223,319.537801 L196.285223,319.537801 Z" id="Fill-318" fill="#FFFFFE"></path>
            <path d="M375.797251,323.635739 L209.829897,443.575601 L209.82646,443.575601 L43.8659794,323.635739 L43.8659794,270.783505 L375.797251,270.783505 L375.797251,323.635739 Z M386.943299,251.362543 L32.7147766,251.362543 L32.7147766,329.362543 L209.831615,457.383162 L386.943299,329.362543 L386.943299,251.362543 L386.943299,251.362543 Z" id="Fill-319" fill="#AAAEAE"></path>
            <path d="M43.862543,42.5721649 L43.862543,42.5721649 L43.862543,42.5687285 L375.785223,42.5687285 L375.785223,223.972509 L375.785223,223.972509 L375.785223,223.975945 L43.862543,223.975945 L43.862543,42.5721649 Z M32.7079038,240.429553 L386.945017,240.429553 L386.945017,31.3780069 L32.7079038,31.3780069 L32.7079038,240.429553 Z" id="Fill-320" fill="#AAAEAE"></path>
            <path d="M242.652921,126.465636 L335.134021,126.465636 L335.134021,93.8694158 L242.652921,93.8694158 L242.652921,126.465636 Z M239.773196,129.33677 L338.013746,129.33677 L338.013746,91.0051546 L239.773196,91.0051546 L239.773196,129.33677 Z" id="Fill-321" fill="#AAAEAE"></path>
            <path d="M221.147766,88.8591065 C219.580756,82.032646 217.87457,77.2182131 216.560137,74.1443299 L361.221649,74.1443299 C360.553265,75.7044674 359.781787,77.7302405 358.9811,80.2113402 C356.61512,87.5463918 353.977663,99.0738832 352.862543,116.008591 C352.5189,121.237113 352.321306,126.979381 352.321306,133.268041 C352.321306,140.754296 352.613402,147.424399 353.085911,153.417526 C354.290378,168.670103 356.723368,179.28866 358.939863,186.195876 C359.756014,188.737113 360.541237,190.80756 361.221649,192.391753 L338.015464,192.391753 L338.015464,146.185567 L239.774914,146.185567 L239.774914,192.391753 L216.560137,192.391753 C217.857388,189.360825 219.536082,184.634021 221.085911,177.953608 C223.415808,167.910653 225.453608,153.410653 225.453608,133.268041 C225.453608,113.305842 223.45189,98.8900344 221.147766,88.8591065 Z M213.59622,192.008591 C212.604811,194.238832 211.943299,195.257732 211.934708,195.271478 L242.646048,195.271478 L242.646048,149.080756 L335.135739,149.080756 L335.135739,195.271478 L365.831615,195.271478 C365.800687,195.221649 356.201031,180.388316 355.278351,139.62543 C355.231959,137.565292 355.199313,135.460481 355.199313,133.268041 C355.199313,128.139175 355.340206,123.400344 355.57732,118.993127 C357.460481,84.1512027 365.833333,71.2594502 365.833333,71.2594502 L211.934708,71.2594502 C211.975945,71.3230241 222.582474,87.6804124 222.582474,133.268041 C222.582474,167.52921 216.591065,185.276632 213.59622,192.008591 L213.59622,192.008591 Z" id="Fill-322" fill="#AAAEAE"></path>
            <path d="M60.3333333,79.2027491 C59.652921,77.1786942 59.0034364,75.4914089 58.4295533,74.1477663 C58.4295533,74.1460481 58.4295533,74.1460481 58.4295533,74.1443299 L90.5446735,74.1443299 C90.5429553,74.1460481 90.5429553,74.1460481 90.5429553,74.1477663 C89.9707904,75.4914089 89.3213058,77.1786942 88.6426117,79.2027491 C87.2439863,83.3728522 85.7199313,89.0618557 84.4501718,96.4879725 C82.8522337,105.823024 81.6597938,117.895189 81.6597938,133.268041 L81.6597938,175.536082 L148.52921,175.536082 C159.733677,175.536082 168.979381,174.053265 176.45189,171.963918 C183.034364,170.123711 188.225086,167.814433 192.180412,165.632302 C193.998282,164.628866 195.565292,163.651203 196.867698,162.761168 L196.867698,162.764605 C196.616838,165.496564 196.216495,168.075601 195.723368,170.505155 C194.69244,175.580756 193.24055,179.955326 191.790378,183.487973 C190.015464,187.816151 188.249141,190.886598 187.293814,192.391753 L58.4295533,192.391753 C58.9140893,191.254296 59.4587629,189.850515 60.024055,188.226804 C61.5257732,183.931271 63.2061856,177.876289 64.580756,169.737113 C66.1494845,160.445017 67.3127148,148.467354 67.3127148,133.269759 L67.3127148,133.268041 C67.3127148,117.895189 66.1219931,105.823024 64.5257732,96.4879725 C63.2560137,89.0618557 61.7319588,83.3728522 60.3333333,79.2027491 Z M53.8333333,195.271478 L188.840206,195.271478 C188.840206,195.269759 188.848797,195.25945 188.848797,195.25945 C188.939863,195.134021 200.091065,179.852234 200.091065,156.620275 C199.955326,156.761168 184.541237,172.675258 148.551546,172.675258 L84.5360825,172.675258 L84.5360825,133.269759 C84.5360825,91.862543 93.2560137,74.5687285 94.8848797,71.6993127 C95.0498282,71.4072165 95.1426117,71.266323 95.1460481,71.2594502 L53.8350515,71.2594502 C53.8762887,71.3230241 64.4501718,87.6804124 64.4501718,133.268041 C64.4501718,178.943299 53.8333333,195.271478 53.8333333,195.271478 L53.8333333,195.271478 Z" id="Fill-323" fill="#AAAEAE"></path>
            <path d="M199.594502,322.408935 C199.585911,322.713058 199.525773,323 199.420962,323.268041 C199.402062,323.314433 199.38488,323.357388 199.362543,323.402062 C199.249141,323.651203 199.09622,323.878007 198.910653,324.073883 C198.87457,324.113402 198.838488,324.149485 198.800687,324.187285 C198.597938,324.378007 198.364261,324.536082 198.106529,324.651203 C198.073883,324.666667 198.042955,324.682131 198.008591,324.694158 C197.725086,324.809278 197.419244,324.87457 197.09622,324.878007 C197.084192,324.878007 197.075601,324.88488 197.063574,324.88488 C196.544674,324.88488 196.058419,324.723368 195.642612,324.420962 C195.408935,324.365979 195.195876,324.25945 194.989691,324.14433 C194.170103,323.690722 193.599656,322.829897 193.599656,321.828179 C193.599656,320.786942 194.209622,319.898625 195.084192,319.462199 C195.448454,319.276632 195.853952,319.16323 196.28866,319.16323 C197.085911,319.16323 197.792096,319.515464 198.281787,320.075601 C198.323024,320.121993 198.372852,320.159794 198.410653,320.207904 C199.12543,320.642612 199.606529,321.460481 199.606529,322.350515 C199.606529,322.371134 199.594502,322.390034 199.594502,322.408935 Z M201.9811,346.723368 L201.9811,318.290378 L200.54811,317.646048 L187.659794,311.862543 L201.9811,346.723368 L201.9811,346.723368 Z" id="Fill-324" fill="#AAAEAE"></path>
            <path d="M221.541237,324.424399 C221.247423,324.35567 220.974227,324.235395 220.728522,324.075601 C219.996564,323.603093 219.517182,322.766323 219.517182,321.828179 C219.517182,320.721649 220.187285,319.776632 221.151203,319.37457 C221.472509,319.238832 221.82646,319.16323 222.199313,319.16323 C222.649485,319.16323 223.068729,319.281787 223.443299,319.482818 C223.776632,319.66323 224.073883,319.905498 224.312715,320.207904 C225.025773,320.642612 225.508591,321.460481 225.508591,322.350515 C225.508591,322.369416 225.498282,322.38488 225.496564,322.400344 C225.489691,322.706186 225.429553,322.996564 225.323024,323.266323 C225.305842,323.316151 225.285223,323.359107 225.262887,323.405498 C225.149485,323.649485 225,323.867698 224.821306,324.061856 C224.778351,324.108247 224.737113,324.151203 224.690722,324.194158 C224.491409,324.378007 224.266323,324.530928 224.0189,324.64433 C223.9811,324.66323 223.945017,324.680412 223.905498,324.695876 C223.623711,324.809278 223.316151,324.87457 222.996564,324.878007 C222.986254,324.878007 222.977663,324.88488 222.965636,324.88488 C222.556701,324.88488 222.187285,324.761168 221.843643,324.57732 C221.743986,324.525773 221.632302,324.491409 221.541237,324.424399 Z M231.986254,311.864261 L222.57732,316.084192 L217.666667,318.290378 L217.666667,346.71134 L231.986254,311.864261 L231.986254,311.864261 Z" id="Fill-325" fill="#AAAEAE"></path>
            <path d="M209.814433,320.085911 L209.812715,320.085911 C208.338488,320.085911 207.134021,318.891753 207.134021,317.448454 C207.134021,315.957045 208.338488,314.752577 209.812715,314.752577 L209.814433,314.752577 C211.298969,314.752577 212.501718,315.957045 212.501718,317.448454 C212.501718,318.891753 211.298969,320.085911 209.814433,320.085911 Z M216.228522,317.687285 L209.821306,309.33677 L203.424399,317.687285 L209.823024,325.269759 L216.228522,317.687285 L216.228522,317.687285 Z" id="Fill-326" fill="#AAAEAE"></path>
            <path d="M256.833333,364.329897 L256.953608,360.890034 L256.957045,360.891753 L256.958763,360.890034 L258.74055,361.664948 L259.262887,361.891753 L257.793814,363.365979 L256.838488,364.329897 L256.838488,364.32646 L256.833333,364.329897 Z M252.367698,360.544674 L254.364261,357.756014 L255.735395,359.888316 L252.367698,360.544674 Z M250.747423,355.886598 L253.835052,354.353952 L253.835052,354.357388 L253.83677,354.357388 L254.044674,356.891753 L250.749141,355.890034 L250.752577,355.888316 L250.747423,355.886598 Z M255.154639,350.848797 L254.993127,351.178694 L254.06701,353.113402 L254.053265,353.097938 L254.04811,353.111684 L251.714777,350.575601 L255.154639,350.848797 Z M255.278351,346.536082 L256.517182,347.415808 L258.075601,348.513746 L256.829897,349.321306 L255.984536,349.872852 L255.984536,349.871134 L255.974227,349.878007 L255.276632,346.541237 L255.280069,346.542955 L255.278351,346.536082 Z M260.256014,345.262887 L260.393471,344.860825 L260.395189,344.862543 L260.395189,344.860825 L260.621993,345.365979 L261.797251,347.979381 L261.790378,347.979381 L261.790378,347.9811 L259.273196,348.085911 L260.256014,345.262887 Z M243.530928,370.881443 C243.121993,371.54811 242.424399,372.0189 241.582474,372.0189 C241.369416,372.0189 241.170103,371.984536 240.982818,371.929553 C240.828179,371.88488 240.678694,371.831615 240.546392,371.75945 L240.558419,371.75945 C240.554983,371.757732 240.549828,371.757732 240.54811,371.756014 L240.594502,371.756014 C242.015464,371.756014 243.161512,370.584192 243.161512,369.164948 C243.161512,368.733677 243.02921,368.352234 242.850515,368.001718 C242.771478,367.853952 242.706186,367.69244 242.599656,367.56701 C242.606529,367.570447 242.609966,367.573883 242.616838,367.57732 C242.613402,367.573883 242.611684,367.56701 242.608247,367.561856 C242.996564,367.762887 243.324742,368.060137 243.554983,368.42268 C243.786942,368.783505 243.92268,369.209622 243.92268,369.666667 C243.92268,370.120275 243.757732,370.520619 243.530928,370.881443 Z M238.484536,369.16323 C238.484536,367.993127 239.431271,367.085911 240.587629,367.085911 C240.589347,367.085911 240.592784,367.087629 240.594502,367.087629 C241.735395,367.087629 242.664948,367.994845 242.664948,369.164948 C242.664948,370.295533 241.735395,371.274914 240.594502,371.274914 C240.592784,371.274914 240.591065,371.273196 240.587629,371.273196 C239.431271,371.273196 238.484536,370.302405 238.484536,369.16323 Z M222.391753,368.295533 C222.130584,368.398625 221.850515,368.467354 221.551546,368.467354 C221.436426,368.467354 221.32646,368.438144 221.213058,368.419244 C221.080756,368.393471 220.95189,368.362543 220.828179,368.316151 C220.723368,368.278351 220.613402,368.242268 220.515464,368.195876 L220.522337,368.195876 C220.520619,368.194158 220.5189,368.194158 220.517182,368.19244 L220.556701,368.19244 C221.094502,368.19244 221.592784,368.032646 222.008591,367.756014 C222.699313,367.290378 223.154639,366.503436 223.154639,365.597938 C223.152921,365.166667 223.012027,364.785223 222.817869,364.429553 C222.74055,364.286942 222.680412,364.139175 222.57732,364.008591 C222.580756,364.010309 222.582474,364.013746 222.585911,364.015464 C223.35567,364.400344 223.908935,365.202749 223.908935,366.099656 C223.908935,367.108247 223.274914,367.953608 222.391753,368.295533 Z M218.642612,366.42268 C218.537801,366.170103 218.479381,365.891753 218.479381,365.59622 C218.479381,365.030928 218.709622,364.513746 219.084192,364.137457 C219.460481,363.761168 219.979381,363.522337 220.556701,363.522337 C220.95189,363.522337 221.302405,363.664948 221.618557,363.857388 C222.226804,364.221649 222.658076,364.853952 222.658076,365.59622 C222.658076,366.482818 222.123711,367.216495 221.371134,367.52921 C221.120275,367.634021 220.845361,367.69244 220.556701,367.69244 C219.690722,367.69244 218.955326,367.176976 218.642612,366.42268 Z M211.737113,350.256014 C211.689003,350.281787 211.652921,350.324742 211.601375,350.347079 C211.317869,350.467354 211.005155,350.536082 210.676976,350.536082 C210.348797,350.536082 210.030928,350.453608 209.74055,350.314433 C209.723368,350.314433 209.707904,350.319588 209.690722,350.319588 L209.651203,350.278351 C209.678694,350.293814 209.71134,350.300687 209.74055,350.314433 C211.14433,350.286942 212.281787,349.130584 212.281787,347.680412 C212.281787,347.154639 212.087629,346.671821 211.802405,346.273196 C211.769759,346.231959 211.754296,346.175258 211.719931,346.135739 C211.719931,346.135739 211.721649,346.135739 211.721649,346.137457 C211.721649,346.135739 211.721649,346.134021 211.719931,346.132302 C212.482818,346.477663 213.042955,347.280069 213.042955,348.201031 C213.042955,349.103093 212.501718,349.869416 211.737113,350.256014 Z M207.597938,347.682131 C207.597938,346.551546 208.536082,345.621993 209.690722,345.621993 C210.852234,345.621993 211.792096,346.551546 211.792096,347.682131 C211.792096,348.563574 211.261168,349.316151 210.503436,349.634021 C210.252577,349.743986 209.979381,349.802405 209.690722,349.802405 C209.40378,349.802405 209.128866,349.742268 208.879725,349.634021 C208.127148,349.314433 207.597938,348.561856 207.597938,347.682131 Z M198.640893,368.467354 C198.517182,368.467354 198.405498,368.438144 198.292096,368.419244 C198.147766,368.391753 198.008591,368.357388 197.87457,368.305842 C197.780069,368.269759 197.678694,368.238832 197.589347,368.195876 L197.591065,368.195876 C197.589347,368.194158 197.587629,368.194158 197.585911,368.19244 L197.62543,368.19244 C199.053265,368.19244 200.216495,367.046392 200.216495,365.603093 C200.216495,365.134021 200.054983,364.719931 199.833333,364.338488 C199.766323,364.228522 199.723368,364.111684 199.642612,364.008591 C199.647766,364.010309 199.651203,364.015464 199.654639,364.017182 C199.654639,364.017182 199.654639,364.015464 199.652921,364.015464 C199.719931,364.04811 199.773196,364.101375 199.835052,364.139175 C200.512027,364.561856 200.958763,365.278351 200.958763,366.103093 C200.958763,367.402062 199.915808,368.467354 198.640893,368.467354 Z M195.539519,365.599656 C195.539519,364.469072 196.47079,363.522337 197.62543,363.522337 C198.771478,363.522337 199.709622,364.469072 199.709622,365.599656 C199.709622,366.778351 198.771478,367.69244 197.62543,367.69244 C196.47079,367.69244 195.539519,366.778351 195.539519,365.599656 Z M178.649485,372.0189 C178.484536,372.0189 178.323024,371.993127 178.166667,371.955326 C177.972509,371.912371 177.785223,371.848797 177.611684,371.75945 L177.616838,371.75945 C177.613402,371.757732 177.609966,371.757732 177.606529,371.756014 L177.66323,371.756014 C178.498282,371.756014 179.24055,371.338488 179.71134,370.709622 C180.036082,370.274914 180.235395,369.743986 180.235395,369.168385 C180.235395,368.90378 180.178694,368.656357 180.106529,368.419244 C180.092784,368.372852 180.092784,368.323024 180.07732,368.280069 C179.9811,368.015464 179.845361,367.773196 179.67354,367.56701 C179.675258,367.568729 179.678694,367.570447 179.680412,367.572165 C179.678694,367.568729 179.676976,367.565292 179.675258,367.561856 C180.453608,367.962199 180.991409,368.749141 180.991409,369.670103 C180.991409,370.953608 179.948454,372.0189 178.649485,372.0189 Z M175.560137,369.16323 C175.560137,367.993127 176.505155,367.085911 177.652921,367.085911 C177.656357,367.085911 177.658076,367.089347 177.661512,367.089347 L177.66323,367.087629 C177.745704,367.087629 177.817869,367.127148 177.898625,367.135739 C178.931271,367.25945 179.745704,368.080756 179.745704,369.16323 C179.745704,369.960481 179.271478,370.654639 178.597938,371.012027 C178.312715,371.164948 178.003436,371.274914 177.66323,371.274914 C177.659794,371.274914 177.658076,371.273196 177.654639,371.273196 L177.652921,371.273196 C176.505155,371.273196 175.560137,370.302405 175.560137,369.16323 Z M165.599656,356.893471 L165.675258,356.032646 L165.817869,354.353952 L168.890034,355.886598 L168.888316,355.886598 L168.895189,355.890034 L165.599656,356.893471 Z M163.910653,359.888316 L165.281787,357.756014 L165.283505,357.752577 L166.298969,359.182131 L167.269759,360.544674 L163.910653,359.888316 Z M164.503436,350.848797 L167.927835,350.57732 L167.926117,350.57732 L167.927835,350.57732 L165.601375,353.113402 L165.601375,353.111684 L164.503436,350.848797 Z M163.670103,349.872852 L163.668385,349.871134 L163.666667,349.87457 L162.457045,349.092784 L161.560137,348.517182 L161.563574,348.515464 L161.556701,348.512027 L164.290378,346.59622 L164.376289,346.536082 L163.670103,349.872852 Z M160.365979,348.084192 L159.012027,348.02921 L157.850515,347.982818 L157.852234,347.979381 L157.840206,347.979381 L158.616838,346.273196 L159.245704,344.864261 L159.250859,344.878007 L159.25945,344.860825 L160.091065,347.285223 L160.369416,348.080756 L160.364261,348.080756 L160.365979,348.084192 Z M162.804124,364.329897 L160.774914,362.28866 L160.378007,361.891753 L161.517182,361.398625 L162.683849,360.890034 L162.683849,360.891753 L162.687285,360.890034 L162.823024,364.329897 L162.804124,364.309278 L162.804124,364.329897 Z M259.975945,361.17354 C259.628866,361.11512 259.28866,361.022337 258.960481,360.902062 C258.04811,360.565292 257.243986,359.986254 256.59622,359.254296 C255.608247,358.140893 254.986254,356.658076 254.986254,355.015464 C254.986254,351.56701 257.62543,348.768041 260.864261,348.768041 C261.151203,348.768041 261.434708,348.809278 261.716495,348.859107 C261.845361,348.881443 261.974227,348.900344 262.099656,348.926117 L266.065292,325.768041 L257.024055,337.853952 L248.731959,348.946735 C248.774914,350.271478 248.771478,351.496564 248.735395,352.637457 C248.486254,361.054983 246.369416,364.554983 246.369416,364.554983 L246.367698,364.554983 L246.365979,364.558419 C246.365979,364.558419 243.627148,363.453608 239.82646,362.333333 C239.816151,362.329897 239.80756,362.32646 239.797251,362.323024 C239.78866,362.321306 239.781787,362.319588 239.773196,362.316151 C238.041237,361.809278 236.089347,361.298969 234.07732,360.890034 L231.80756,349.66323 C231.316151,349.656357 230.845361,349.570447 230.400344,349.426117 C229.95189,349.283505 229.527491,349.079038 229.134021,348.824742 C229.134021,348.824742 229.113402,348.785223 229.084192,348.774914 C229.082474,348.774914 229.080756,348.773196 229.080756,348.773196 L223.386598,359.182131 L223.38488,359.182131 L223.383162,359.185567 C223.383162,359.185567 221.694158,359.024055 219.544674,358.857388 C217.252577,358.682131 214.438144,358.5 212.57732,358.5 L212.579038,358.494845 C212.57732,358.494845 212.575601,358.494845 212.573883,358.494845 L215.797251,348.513746 L215.317869,347.269759 L209.821306,333.116838 L206.022337,342.88488 L203.845361,348.517182 L207.060137,358.5 C205.364261,358.5 202.864261,358.652921 200.69244,358.812715 C198.274914,358.993127 196.271478,359.185567 196.271478,359.185567 L196.268041,359.180412 C196.266323,359.180412 196.250859,359.182131 196.250859,359.182131 L192.709622,352.704467 L190.9811,349.560137 C190.656357,349.630584 190.314433,349.66323 189.979381,349.66323 C189.460481,349.66323 188.982818,349.556701 188.520619,349.412371 C188.319588,349.352234 188.11512,349.300687 187.924399,349.218213 L187.171821,352.912371 L185.561856,360.890034 C183.357388,361.338488 181.237113,361.905498 179.388316,362.458763 C175.80756,363.534364 173.264605,364.558419 173.264605,364.558419 C173.264605,364.558419 172.106529,362.613402 171.407216,358.178694 C171.034364,355.828179 170.783505,352.78866 170.902062,348.941581 L153.554983,325.75945 L157.563574,348.924399 C157.676976,348.902062 157.792096,348.886598 157.905498,348.865979 C158.195876,348.812715 158.493127,348.768041 158.792096,348.768041 C160.415808,348.768041 161.890034,349.482818 162.953608,350.628866 C164.001718,351.754296 164.656357,353.302405 164.656357,355.012027 C164.656357,356.12543 164.365979,357.164948 163.878007,358.070447 C163.001718,359.694158 161.465636,360.871134 159.658076,361.175258 L160.563574,366.443299 L163.116838,381.209622 C164.441581,380.702749 166.534364,379.946735 169.250859,379.092784 C177.754296,376.417526 192.493127,372.774914 209.810997,372.774914 C219.496564,372.774914 228.365979,373.917526 235.804124,375.390034 C241.323024,376.482818 246.042955,377.750859 249.706186,378.881443 C252.75945,379.821306 255.09622,380.66323 256.525773,381.209622 L257.647766,374.713058 L259.975945,361.17354 L259.975945,361.17354 Z" id="Fill-327" fill="#AAAEAE"></path>
            <path d="M259.719931,386.079038 C259.719931,386.079038 242.190722,390.561856 209.82646,390.561856 C177.453608,390.561856 159.924399,386.079038 159.924399,386.079038 L147.623711,315.487973 L150.17354,314.381443 C150.17354,314.381443 159.02921,326.223368 161.659794,329.733677 C161.829897,329.960481 161.975945,330.156357 162.089347,330.30756 C162.558419,329.733677 163.091065,329.140893 163.654639,328.542955 C163.709622,328.484536 163.752577,328.427835 163.809278,328.367698 C163.831615,328.343643 163.860825,328.319588 163.88488,328.293814 C168.302405,323.689003 175.43299,318.553265 184.702749,315.487973 C184.702749,315.487973 184.702749,315.486254 184.701031,315.486254 C184.285223,314.487973 183.154639,311.731959 182.108247,309.171821 C181.025773,306.520619 180.032646,304.091065 180.015464,304.046392 L180.012027,304.037801 C180.012027,304.037801 183.457045,305.438144 186.218213,306.568729 C187.079038,306.920962 187.876289,307.245704 188.479381,307.494845 C188.477663,307.493127 188.477663,307.491409 188.475945,307.489691 C188.414089,307.360825 188.352234,307.233677 188.293814,307.116838 C188.103093,306.738832 187.950172,306.45189 187.950172,306.45189 C187.950172,306.45189 189.900344,306.551546 192.132302,306.666667 C194.726804,306.800687 197.704467,306.957045 198.479381,307.005155 C199.201031,305.706186 204.149485,296.924399 204.829897,295.730241 C204.252577,294.702749 202.352234,291.407216 202.159794,291.09622 C201.847079,290.790378 199.513746,288.817869 199.513746,288.817869 L202.534364,283.089347 L202.537801,283.085911 L206.159794,283.33677 L208.95189,283.532646 L208.960481,283.532646 C208.960481,283.532646 209.063574,286.525773 209.089347,287.085911 L209.42268,287.635739 L209.82646,288.297251 L209.829897,288.292096 L210.120275,287.821306 L210.572165,287.085911 C210.582474,286.709622 210.632302,285.250859 210.664948,284.324742 C210.680412,283.871134 210.69244,283.532646 210.69244,283.532646 L214.099656,283.295533 L217.11512,283.085911 L220.139175,288.817869 C220.139175,288.817869 219.475945,289.376289 218.810997,289.943299 C218.225086,290.445017 217.635739,290.953608 217.493127,291.09622 C217.360825,291.292096 216.572165,292.671821 215.859107,293.92268 C215.439863,294.658076 215.046392,295.350515 214.829897,295.730241 C215.092784,296.207904 216.051546,297.910653 217.149485,299.85567 C218.405498,302.080756 219.838488,304.616838 220.640893,306.041237 C220.886598,306.479381 221.079038,306.821306 221.180412,307.005155 C221.886598,306.960481 224.472509,306.824742 226.90378,306.699313 C229.357388,306.572165 231.646048,306.455326 231.701031,306.45189 L231.709622,306.45189 C231.709622,306.45189 231.431271,306.943299 231.183849,307.486254 C231.182131,307.489691 231.182131,307.491409 231.180412,307.494845 C232.66323,306.886598 235.292096,305.814433 237.228522,305.024055 C238.613402,304.458763 239.647766,304.037801 239.647766,304.037801 L239.646048,304.042955 C239.639175,304.060137 239.280069,304.938144 238.75945,306.213058 C237.568729,309.118557 235.542955,314.068729 234.950172,315.484536 C234.950172,315.486254 234.950172,315.487973 234.948454,315.487973 C241.257732,317.57732 246.560137,320.632302 250.714777,323.823024 C253.560137,326.008591 255.883162,328.256014 257.560137,330.305842 C257.561856,330.305842 257.561856,330.30756 257.561856,330.30756 C259.429553,327.80756 269.469072,314.407216 269.484536,314.383162 L269.486254,314.381443 L272.02921,315.487973 L259.719931,386.079038 Z M375.793814,270.783505 L43.8659794,270.783505 L43.8659794,323.635739 L209.82646,443.575601 L209.828179,443.575601 L375.793814,323.635739 L375.793814,270.783505 L375.793814,270.783505 Z" id="Fill-328" fill="#1A1919"></path>
            <path d="M53.8230241,71.2594502 L95.1460481,71.2594502 C95.1460481,71.2594502 95.0532646,71.4037801 94.8848797,71.6993127 C93.2560137,74.5687285 84.5360825,91.862543 84.5360825,133.269759 L84.5360825,172.675258 L148.551546,172.675258 C184.541237,172.675258 199.955326,156.761168 200.091065,156.620275 L200.097938,156.613402 C200.097938,179.833333 188.958763,195.108247 188.848797,195.25945 C188.848797,195.25945 188.840206,195.269759 188.840206,195.271478 L188.838488,195.273196 L53.8230241,195.273196 C53.8230241,195.273196 64.4484536,178.946735 64.4484536,133.269759 C64.4484536,87.5945017 53.8230241,71.2594502 53.8230241,71.2594502 Z M211.93299,71.2594502 L365.833333,71.2594502 C365.833333,71.2594502 357.460481,84.1512027 355.57732,118.993127 C355.340206,123.400344 355.199313,128.140893 355.199313,133.269759 C355.199313,135.462199 355.231959,137.565292 355.278351,139.62543 C356.201031,180.388316 365.800687,195.221649 365.831615,195.271478 L365.833333,195.273196 L335.135739,195.273196 L335.135739,149.084192 L242.654639,149.084192 L242.654639,195.273196 L211.93299,195.273196 L211.934708,195.271478 C211.943299,195.257732 212.604811,194.238832 213.59622,192.008591 C216.589347,185.274914 222.573883,167.527491 222.573883,133.269759 C222.573883,87.5945017 211.93299,71.2594502 211.93299,71.2594502 Z M375.785223,223.972509 L375.785223,223.972509 L375.785223,42.5687285 L43.8642612,42.5687285 L43.8642612,223.972509 L375.785223,223.972509 L375.785223,223.972509 Z" id="Fill-329" fill="#1A1919"></path>
            <polygon id="Fill-330" fill="#1A1919" points="242.652921 126.465636 335.134021 126.465636 335.134021 93.8694158 242.652921 93.8694158"></polygon>
            <path d="M188.45189,347.723368 C190.623711,347.723368 192.364261,345.953608 192.364261,343.804124 L192.364261,343.802405 C192.364261,341.654639 190.623711,339.905498 188.45189,339.905498 C186.302405,339.905498 184.537801,341.654639 184.537801,343.802405 L184.537801,343.804124 C184.539519,345.953608 186.302405,347.723368 188.45189,347.723368" id="Fill-331" fill="#1A1919"></path>
            <path d="M230.395189,339.905498 C228.247423,339.905498 226.482818,341.654639 226.482818,343.802405 L226.482818,343.804124 C226.484536,345.953608 228.247423,347.723368 230.395189,347.723368 C232.560137,347.723368 234.316151,345.953608 234.317869,343.804124 L234.317869,343.802405 C234.317869,341.654639 232.561856,339.905498 230.395189,339.905498" id="Fill-332" fill="#1A1919"></path>
            <path d="M256.525773,381.214777 C255.09622,380.666667 252.75945,379.821306 249.706186,378.881443 C246.042955,377.750859 241.323024,376.482818 235.804124,375.390034 C228.369416,373.919244 219.508591,372.778351 209.831615,372.778351 C192.503436,372.778351 177.762887,376.417526 169.250859,379.092784 C166.534364,379.946735 164.441581,380.702749 163.116838,381.209622 C163.113402,381.21134 163.108247,381.213058 163.104811,381.214777 L159.658076,361.175258 C161.465636,360.871134 163.001718,359.694158 163.878007,358.070447 C164.364261,357.166667 164.652921,356.128866 164.652921,355.015464 C164.652921,353.305842 164.001718,351.756014 162.953608,350.628866 C161.890034,349.482818 160.415808,348.768041 158.792096,348.768041 C158.493127,348.768041 158.195876,348.812715 157.905498,348.865979 C157.792096,348.886598 157.67354,348.90378 157.563574,348.929553 L157.563574,348.924399 L153.554983,325.75945 L153.554983,325.756014 L170.924399,348.946735 C170.792096,352.790378 171.037801,355.828179 171.407216,358.178694 C172.106529,362.613402 173.264605,364.558419 173.264605,364.558419 C173.264605,364.558419 175.80756,363.534364 179.388316,362.458763 C181.235395,361.905498 183.352234,361.33677 185.549828,360.886598 L187.924399,349.218213 C188.11512,349.300687 188.319588,349.352234 188.520619,349.412371 C188.982818,349.554983 189.463918,349.659794 189.984536,349.659794 C190.321306,349.659794 190.666667,349.627148 190.979381,349.554983 L190.9811,349.560137 L196.268041,359.180412 L196.271478,359.185567 C196.271478,359.185567 198.274914,358.993127 200.69244,358.812715 C202.860825,358.649485 205.359107,358.494845 207.056701,358.494845 L203.833333,348.513746 L209.821306,333.116838 L209.831615,333.092784 L215.317869,347.269759 L215.797251,348.513746 L212.573883,358.494845 C212.575601,358.494845 212.57732,358.494845 212.579038,358.494845 C214.445017,358.496564 217.256014,358.680412 219.544674,358.857388 C221.694158,359.024055 223.383162,359.185567 223.383162,359.185567 L223.38488,359.182131 L229.07732,348.768041 C229.080756,348.768041 229.079038,348.773196 229.084192,348.774914 C229.113402,348.785223 229.134021,348.824742 229.134021,348.824742 C229.527491,349.079038 229.95189,349.283505 230.400344,349.426117 C230.850515,349.568729 231.323024,349.651203 231.810997,349.659794 L234.09622,360.886598 C236.101375,361.297251 238.046392,361.80756 239.773196,362.316151 C239.781787,362.319588 239.78866,362.321306 239.797251,362.323024 C239.80756,362.32646 239.816151,362.329897 239.82646,362.333333 C243.627148,363.453608 246.365979,364.558419 246.365979,364.558419 L246.367698,364.554983 C246.391753,364.515464 248.479381,361.003436 248.735395,352.637457 C248.771478,351.496564 248.774914,350.271478 248.731959,348.946735 L266.068729,325.756014 L266.065292,325.768041 L262.099656,348.926117 L262.099656,348.929553 C261.974227,348.902062 261.845361,348.881443 261.716495,348.859107 C261.434708,348.809278 261.151203,348.768041 260.864261,348.768041 C257.62543,348.768041 254.986254,351.56701 254.986254,355.015464 C254.986254,356.658076 255.608247,358.140893 256.59622,359.254296 C257.247423,359.986254 258.049828,360.563574 258.960481,360.902062 C259.28866,361.022337 259.628866,361.11512 259.975945,361.17354 C259.979381,361.17354 259.9811,361.17354 259.982818,361.175258 L256.525773,381.209622 L256.525773,381.214777 Z M159.544674,360.477663 L159.424399,359.771478 C160.563574,359.589347 161.554983,358.936426 162.243986,358.010309 C162.857388,357.190722 163.233677,356.154639 163.233677,355.015464 C163.233677,353.850515 162.83677,352.798969 162.202749,351.967354 C161.388316,350.898625 160.171821,350.204467 158.792096,350.204467 C158.790378,350.204467 158.78866,350.204467 158.786942,350.204467 C158.436426,350.206186 158.116838,350.245704 157.797251,350.331615 L157.659794,349.627148 C158.036082,349.546392 158.395189,349.491409 158.786942,349.491409 C158.78866,349.491409 158.790378,349.491409 158.792096,349.491409 C161.637457,349.491409 163.946735,351.953608 163.946735,355.015464 C163.946735,357.781787 162.030928,360.084192 159.544674,360.477663 Z M158.927835,356.924399 L158.285223,353.171821 C158.338488,353.149485 158.405498,353.158076 158.462199,353.146048 C158.56701,353.12543 158.666667,353.101375 158.785223,353.101375 C158.786942,353.101375 158.78866,353.099656 158.792096,353.099656 C159.32646,353.099656 159.790378,353.353952 160.116838,353.743986 C160.402062,354.082474 160.587629,354.522337 160.587629,355.015464 C160.587629,356.032646 159.867698,356.833333 158.93299,356.92268 C158.931271,356.92268 158.929553,356.924399 158.927835,356.924399 Z M191.304124,347.149485 C190.532646,347.809278 189.546392,348.223368 188.453608,348.223368 C186.039519,348.223368 184.06701,346.235395 184.06701,343.805842 C184.06701,341.383162 186.039519,339.40378 188.453608,339.40378 C189.108247,339.40378 189.725086,339.556701 190.283505,339.810997 C191.804124,340.510309 192.864261,342.034364 192.864261,343.805842 C192.864261,345.146048 192.250859,346.33677 191.304124,347.149485 Z M164.108247,337.486254 C165.608247,334.785223 167.743986,332.247423 170.386598,329.934708 C175.230241,325.694158 181.802405,322.223368 189.472509,319.9811 L189.474227,319.987973 L204.738832,357.149485 C203.737113,357.190722 202.747423,357.252577 201.757732,357.314433 C200.168385,357.415808 198.591065,357.536082 197.058419,357.694158 L196.967354,357.530928 L192.319588,349.060137 L192.317869,349.058419 C193.448454,348.43299 194.295533,347.38488 194.647766,346.120275 C194.766323,345.697595 194.828179,345.252577 194.828179,344.792096 C194.828179,343.926117 194.603093,343.11512 194.204467,342.412371 C194.197595,342.396907 194.185567,342.386598 194.176976,342.37457 C193.781787,341.689003 193.226804,341.106529 192.551546,340.678694 C191.604811,339.450172 190.137457,338.656357 188.453608,338.656357 C187.130584,338.656357 185.934708,339.171821 185.020619,339.996564 C183.975945,340.939863 183.304124,342.290378 183.304124,343.805842 C183.304124,344.62543 183.498282,345.400344 183.841924,346.091065 C184.414089,347.242268 185.402062,348.151203 186.601375,348.616838 L184.347079,359.699313 C184.249141,359.721649 184.16323,359.745704 184.06701,359.769759 C182.697595,360.092784 181.434708,360.426117 180.266323,360.733677 C180.266323,360.731959 180.264605,360.731959 180.264605,360.730241 C180.118557,360.293814 179.979381,359.83677 179.841924,359.379725 C178.202749,353.926117 177.341924,347.101375 180.075601,340.939863 C181.853952,336.929553 185.151203,333.204467 190.738832,330.32646 C190.738832,330.32646 190.728522,330.328179 190.726804,330.328179 C190.67354,330.341924 189.656357,330.587629 188.158076,331.237113 C188.152921,331.238832 188.146048,331.242268 188.140893,331.245704 C187.848797,331.371134 187.541237,331.512027 187.218213,331.671821 C187.171821,331.694158 187.121993,331.719931 187.075601,331.743986 C186.785223,331.888316 186.487973,332.041237 186.178694,332.21134 C186.108247,332.252577 186.032646,332.298969 185.962199,332.340206 C185.668385,332.505155 185.372852,332.676976 185.068729,332.867698 C184.9811,332.924399 184.891753,332.987973 184.804124,333.044674 C184.508591,333.235395 184.213058,333.429553 183.910653,333.646048 C183.819588,333.713058 183.725086,333.790378 183.632302,333.859107 C183.333333,334.082474 183.032646,334.30756 182.730241,334.556701 C182.635739,334.635739 182.541237,334.725086 182.446735,334.80756 C182.147766,335.063574 181.848797,335.321306 181.553265,335.603093 C181.458763,335.694158 181.369416,335.795533 181.276632,335.888316 C180.9811,336.182131 180.687285,336.475945 180.400344,336.797251 C180.309278,336.898625 180.225086,337.015464 180.135739,337.120275 C179.850515,337.450172 179.56701,337.785223 179.295533,338.147766 C179.21134,338.257732 179.135739,338.38488 179.054983,338.5 C178.785223,338.872852 178.517182,339.249141 178.264605,339.656357 C178.180412,339.795533 178.106529,339.948454 178.022337,340.091065 C177.785223,340.496564 177.54811,340.902062 177.329897,341.338488 C177.037801,341.929553 176.766323,342.54811 176.517182,343.197595 C174.768041,347.768041 174.190722,353.867698 176.159794,361.991409 C175.666667,362.156357 175.218213,362.312715 174.793814,362.465636 C174.513746,362.565292 174.235395,362.666667 173.986254,362.762887 C173.340206,361.395189 172.943299,359.419244 172.697595,357.376289 C172.183849,353.099656 172.343643,348.513746 172.343643,348.513746 L169.551546,344.75945 C169.560137,344.730241 169.568729,344.701031 169.575601,344.670103 C171.049828,338.5189 175.139175,332.24055 184.250859,327.678694 C185.683849,326.962199 187.228522,326.283505 188.917526,325.658076 L188.90378,325.661512 C188.843643,325.668385 186.860825,325.900344 184.013746,326.890034 C183.974227,326.90378 183.929553,326.920962 183.891753,326.934708 C183.45189,327.091065 182.998282,327.257732 182.524055,327.450172 C182.005155,327.659794 181.467354,327.893471 180.917526,328.152921 C180.853952,328.183849 180.795533,328.204467 180.731959,328.235395 C180.71134,328.245704 180.689003,328.25945 180.668385,328.269759 C176.134021,330.45189 170.714777,334.400344 167.099656,341.479381 L164.405498,337.883162 L164.106529,337.486254 L164.108247,337.486254 Z M187.659794,311.862543 L187.659794,311.859107 L200.54811,317.646048 L201.9811,318.290378 L201.9811,346.725086 L187.659794,311.862543 Z M209.821306,309.33677 L209.831615,309.323024 L216.238832,317.687285 L209.831615,325.281787 L209.823024,325.269759 L203.424399,317.687285 L209.821306,309.33677 Z M230.400344,348.223368 C227.977663,348.223368 225.989691,346.235395 225.989691,343.805842 C225.989691,341.383162 227.977663,339.40378 230.400344,339.40378 C232.166667,339.40378 233.690722,340.469072 234.388316,341.986254 C234.642612,342.542955 234.795533,343.156357 234.795533,343.805842 C234.795533,344.434708 234.658076,345.02921 234.419244,345.573883 C233.737113,347.128866 232.189003,348.223368 230.400344,348.223368 Z M230.175258,319.984536 L230.175258,319.9811 C238.187285,322.324742 245.015464,326.010309 249.914089,330.515464 C252.256014,332.670103 254.161512,335.008591 255.537801,337.482818 C255.537801,337.484536 255.539519,337.486254 255.539519,337.486254 L252.790378,341.156357 L252.549828,341.479381 C250.508591,337.494845 247.895189,334.52921 245.194158,332.281787 C244.766323,331.926117 244.335052,331.589347 243.90378,331.269759 C243.604811,331.04811 243.30756,330.847079 243.010309,330.640893 C242.876289,330.549828 242.742268,330.448454 242.608247,330.359107 C242.323024,330.171821 242.039519,329.998282 241.757732,329.824742 C241.611684,329.735395 241.463918,329.635739 241.319588,329.551546 C241.041237,329.38488 240.766323,329.235395 240.491409,329.084192 C240.345361,329.003436 240.199313,328.914089 240.054983,328.840206 C239.778351,328.69244 239.508591,328.560137 239.238832,328.426117 C239.099656,328.357388 238.958763,328.281787 238.821306,328.216495 C238.551546,328.087629 238.28866,327.972509 238.025773,327.85567 C237.895189,327.797251 237.762887,327.733677 237.634021,327.680412 C237.35567,327.560137 237.087629,327.453608 236.819588,327.347079 C236.718213,327.30756 236.609966,327.262887 236.508591,327.221649 C236.221649,327.113402 235.945017,327.013746 235.671821,326.917526 C235.599656,326.891753 235.522337,326.862543 235.45189,326.838488 C235.149485,326.735395 234.860825,326.640893 234.580756,326.553265 C234.54811,326.544674 234.512027,326.532646 234.479381,326.522337 C232.290378,325.848797 230.829897,325.671821 230.745704,325.661512 C230.743986,325.661512 230.721649,325.658076 230.721649,325.658076 C234.269759,326.972509 237.213058,328.508591 239.670103,330.194158 C244.106529,333.233677 246.915808,336.768041 248.591065,340.412371 C249.256014,341.853952 249.752577,343.309278 250.094502,344.75945 L247.304124,348.513746 C247.304124,348.517182 247.664948,358.537801 245.659794,362.762887 C245.268041,362.61512 244.83677,362.460481 244.381443,362.300687 C244.091065,362.201031 243.800687,362.097938 243.479381,361.991409 L243.479381,361.989691 C245.713058,352.786942 244.685567,346.168385 242.378007,341.446735 C242.104811,340.886598 241.812715,340.353952 241.506873,339.847079 C241.28866,339.486254 241.056701,339.152921 240.824742,338.817869 C240.730241,338.682131 240.642612,338.530928 240.546392,338.398625 C240.305842,338.06701 240.053265,337.761168 239.800687,337.453608 C239.704467,337.33677 239.613402,337.209622 239.517182,337.094502 C239.262887,336.797251 239,336.527491 238.738832,336.254296 C238.637457,336.147766 238.539519,336.032646 238.438144,335.931271 C238.166667,335.659794 237.890034,335.412371 237.61512,335.16323 C237.5189,335.07732 237.427835,334.984536 237.331615,334.902062 C237.037801,334.64433 236.742268,334.412371 236.446735,334.182131 C236.371134,334.123711 236.295533,334.056701 236.218213,333.998282 C235.907216,333.762887 235.599656,333.54811 235.295533,333.340206 C235.235395,333.298969 235.175258,333.252577 235.116838,333.21134 C234.797251,333 234.486254,332.80756 234.178694,332.623711 C234.134021,332.59622 234.087629,332.565292 234.044674,332.539519 C233.706186,332.340206 233.378007,332.158076 233.060137,331.991409 C233.04811,331.986254 233.037801,331.977663 233.025773,331.972509 C230.713058,330.75945 228.965636,330.341924 228.908935,330.328179 L228.900344,330.32646 C243.78866,338 242.405498,351.697595 239.376289,360.728522 C239.37457,360.730241 239.37457,360.731959 239.37457,360.733677 C238.661512,360.544674 237.896907,360.343643 237.099656,360.140893 C236.515464,359.994845 235.92268,359.845361 235.28866,359.699313 C235.286942,359.699313 235.285223,359.699313 235.283505,359.699313 L233.214777,349.474227 C235.268041,348.912371 236.783505,347.036082 236.783505,344.792096 C236.783505,343.060137 235.860825,341.551546 234.498282,340.678694 C234.295533,340.419244 234.058419,340.190722 233.812715,339.972509 C233.455326,339.654639 233.060137,339.383162 232.62543,339.175258 C231.948454,338.848797 231.197595,338.656357 230.400344,338.656357 C227.553265,338.656357 225.237113,340.967354 225.237113,343.805842 C225.237113,345.338488 225.931271,346.69244 227.001718,347.628866 C227.247423,347.843643 227.493127,348.058419 227.778351,348.223368 L222.582474,357.694158 L222.580756,357.694158 C221.762887,357.609966 220.915808,357.546392 220.075601,357.477663 C219.164948,357.402062 218.249141,357.33677 217.323024,357.281787 C216.5189,357.235395 215.716495,357.182131 214.907216,357.149485 L230.175258,319.984536 Z M217.666667,346.71134 L217.666667,318.290378 L222.57732,316.084192 L231.987973,311.859107 L231.986254,311.864261 L217.666667,346.725086 L217.666667,346.71134 Z M261.969072,349.630584 L261.852234,350.328179 L261.850515,350.331615 C261.530928,350.245704 261.201031,350.204467 260.848797,350.204467 C260.237113,350.204467 259.656357,350.338488 259.127148,350.579038 C257.527491,351.30756 256.405498,353.017182 256.405498,355.015464 C256.405498,357.438144 258.073883,359.426117 260.214777,359.771478 L260.118557,360.477663 C260.113402,360.475945 260.108247,360.474227 260.103093,360.472509 C259.4811,360.372852 258.896907,360.158076 258.369416,359.845361 C256.773196,358.905498 255.701031,357.091065 255.701031,355.015464 L255.701031,355.013746 C255.701031,351.95189 258.001718,349.491409 260.848797,349.491409 C261.001718,349.491409 261.134021,349.52921 261.278351,349.542955 C261.510309,349.56701 261.749141,349.57732 261.97079,349.627148 L261.969072,349.630584 Z M260.895189,355.852234 L260.71134,356.924399 C260.71134,356.924399 260.71134,356.924399 260.709622,356.92268 C259.781787,356.835052 259.051546,356.034364 259.051546,355.015464 C259.051546,354.292096 259.445017,353.685567 260,353.357388 C260.257732,353.207904 260.536082,353.099656 260.848797,353.099656 C260.852234,353.099656 260.853952,353.101375 260.85567,353.101375 C261.037801,353.101375 261.204467,353.109966 261.353952,353.171821 L260.895189,355.852234 Z M268.463918,320.223368 L268.465636,320.213058 L257.489691,334.90378 L257.487973,334.90378 C257.4811,334.893471 257.472509,334.881443 257.465636,334.869416 C256.87457,333.908935 256.214777,332.969072 255.489691,332.054983 C255.477663,332.039519 255.465636,332.024055 255.45189,332.008591 C254.725086,331.094502 253.93299,330.204467 253.080756,329.343643 C253.058419,329.323024 253.037801,329.302405 253.015464,329.280069 C252.171821,328.43299 251.268041,327.613402 250.309278,326.823024 C250.266323,326.786942 250.221649,326.750859 250.176976,326.714777 C249.237113,325.946735 248.243986,325.204467 247.201031,324.494845 C247.121993,324.441581 247.042955,324.390034 246.963918,324.335052 C245.939863,323.647766 244.867698,322.987973 243.752577,322.360825 C243.642612,322.298969 243.530928,322.237113 243.420962,322.176976 C242.314433,321.563574 241.164948,320.9811 239.975945,320.431271 C239.845361,320.371134 239.713058,320.310997 239.582474,320.252577 C238.388316,319.709622 237.156357,319.201031 235.886598,318.725086 C235.749141,318.67354 235.609966,318.621993 235.47079,318.572165 C234.189003,318.103093 232.871134,317.666667 231.5189,317.268041 C231.453608,317.247423 231.388316,317.226804 231.323024,317.206186 L231.323024,317.202749 L233.396907,312.156357 L234.632302,309.14433 L234.634021,309.140893 L217.658076,316.756014 L217.658076,312.580756 L209.831615,299.084192 L209.828179,299.089347 L201.9811,312.580756 L201.9811,316.756014 L201.975945,316.754296 L185.012027,309.140893 L188.331615,317.206186 C179.329897,319.828179 171.816151,324.051546 166.587629,329.314433 C164.845361,331.06701 163.35567,332.938144 162.151203,334.90378 L151.19244,320.218213 L151.189003,320.213058 L162.015464,383.171821 C162.015464,383.171821 176.003436,386.66323 199.589347,387.324742 C199.601375,387.324742 199.611684,387.324742 199.623711,387.324742 C199.623711,387.324742 183.591065,385.82646 174.061856,382.187285 C174.058419,382.185567 174.054983,382.183849 174.049828,382.183849 C175.04811,382.324742 176.164948,382.475945 177.335052,382.628866 C180.501718,383.041237 184.223368,383.467354 188.168385,383.798969 C192.250859,384.142612 196.544674,384.388316 200.682131,384.390034 C200.69244,384.390034 200.702749,384.390034 200.714777,384.390034 C200.714777,384.390034 194.085911,383.69244 187.149485,382.106529 C184.367698,381.469072 181.536082,380.69244 179.061856,379.754296 C179.072165,379.754296 179.082474,379.756014 179.092784,379.757732 C181.283505,380.053265 183.802405,380.360825 186.482818,380.640893 C191.774914,381.194158 197.745704,381.637457 203.402062,381.637457 C203.408935,381.637457 203.417526,381.639175 203.424399,381.639175 C203.424399,381.639175 190.74055,380.323024 182.089347,377.158076 C182.087629,377.158076 182.087629,377.158076 182.085911,377.156357 C184.35567,376.67354 186.793814,376.226804 189.350515,375.824742 C195.496564,374.860825 202.402062,374.197595 209.831615,374.197595 C215.848797,374.197595 221.527491,374.639175 226.742268,375.316151 C230.627148,375.821306 234.25945,376.453608 237.544674,377.156357 C237.542955,377.158076 237.541237,377.158076 237.539519,377.159794 C228.910653,380.323024 216.238832,381.639175 216.238832,381.639175 C216.245704,381.639175 216.252577,381.637457 216.25945,381.637457 C221.9811,381.637457 228.025773,381.183849 233.365979,380.620275 C235.977663,380.345361 238.43299,380.044674 240.573883,379.756014 C240.579038,379.756014 240.585911,379.754296 240.592784,379.754296 C238.056701,380.714777 235.151203,381.505155 232.305842,382.149485 C225.436426,383.706186 218.93299,384.390034 218.93299,384.390034 C218.939863,384.390034 218.946735,384.390034 218.955326,384.390034 C223.11512,384.388316 227.436426,384.140893 231.544674,383.793814 C235.642612,383.446735 239.517182,383 242.756014,382.572165 C243.764605,382.438144 244.721649,382.309278 245.59622,382.183849 C245.592784,382.183849 245.589347,382.185567 245.585911,382.187285 C236.065292,385.82646 220.024055,387.324742 220.024055,387.324742 C220.039519,387.324742 220.053265,387.324742 220.068729,387.323024 C243.656357,386.661512 257.62543,383.171821 257.62543,383.171821 L268.463918,320.223368 L268.463918,320.223368 Z" id="Fill-333" fill="#1A1919"></path>
            <polyline id="Fill-334" fill="#1A1919" points="193.831615 310.501718 194.632302 312.091065 201.378007 312.091065 201.714777 311.508591 209.812715 297.536082 209.821306 297.549828 218.290378 312.091065 224.993127 312.091065 225.819588 310.501718 219.139175 310.501718 210.719931 295.963918 214.872852 288.898625 215.852234 287.890034 215.848797 287.88488 215.774914 287.776632 215.161512 286.871134 215.154639 286.871134 214.180412 286.943299 213.630584 286.982818 213.630584 286.986254 213.570447 287.281787 213.381443 288.225086 209.819588 294.407216 209.812715 294.415808 206.268041 288.225086 206.012027 286.982818 205.398625 286.938144 204.491409 286.871134 204.487973 286.871134 204.297251 287.149485 203.792096 287.888316 203.792096 287.890034 204.800687 288.898625 208.92268 295.963918 200.498282 310.498282 200.494845 310.501718 193.831615 310.501718"></polyline>
            <path d="M200.953608,366.099656 C200.953608,365.280069 200.5,364.554983 199.835052,364.139175 C199.773196,364.101375 199.719931,364.04811 199.652921,364.015464 C199.654639,364.015464 199.654639,364.017182 199.654639,364.017182 C199.730241,364.116838 199.771478,364.231959 199.833333,364.338488 C200.054983,364.719931 200.216495,365.134021 200.216495,365.603093 C200.216495,367.046392 199.053265,368.19244 197.62543,368.19244 L197.585911,368.19244 C197.587629,368.194158 197.589347,368.194158 197.591065,368.195876 C197.682131,368.24055 197.780069,368.271478 197.87457,368.305842 C198.008591,368.357388 198.147766,368.391753 198.292096,368.419244 C198.40378,368.438144 198.515464,368.465636 198.635739,368.465636 C199.919244,368.465636 200.953608,367.407216 200.953608,366.099656" id="Fill-335" fill="#1A1919"></path>
            <path d="M180.987973,369.666667 C180.987973,368.756014 180.455326,367.974227 179.680412,367.572165 C179.678694,367.570447 179.675258,367.568729 179.67354,367.56701 C179.845361,367.773196 179.9811,368.015464 180.07732,368.280069 C180.092784,368.323024 180.092784,368.372852 180.106529,368.419244 C180.178694,368.656357 180.235395,368.90378 180.235395,369.168385 C180.235395,369.743986 180.036082,370.274914 179.71134,370.709622 C179.24055,371.340206 178.498282,371.75945 177.652921,371.75945 L177.611684,371.75945 C177.785223,371.848797 177.972509,371.912371 178.166667,371.955326 C178.319588,371.991409 178.477663,372.015464 178.639175,372.015464 C179.946735,372.015464 180.987973,370.957045 180.987973,369.666667" id="Fill-336" fill="#1A1919"></path>
            <path d="M222.585911,364.015464 L222.585911,364.015464 C222.682131,364.142612 222.742268,364.290378 222.817869,364.429553 C223.012027,364.785223 223.152921,365.166667 223.154639,365.597938 C223.154639,365.599656 223.154639,365.601375 223.154639,365.603093 C223.154639,366.505155 222.699313,367.292096 222.008591,367.756014 C221.592784,368.032646 221.094502,368.19244 220.556701,368.19244 L220.517182,368.19244 C220.5189,368.194158 220.520619,368.194158 220.522337,368.195876 C220.620275,368.243986 220.725086,368.278351 220.828179,368.316151 C220.95189,368.362543 221.080756,368.393471 221.213058,368.419244 C221.324742,368.438144 221.436426,368.465636 221.551546,368.465636 C221.848797,368.465636 222.128866,368.396907 222.391753,368.295533 C223.274914,367.953608 223.908935,367.108247 223.908935,366.099656 C223.908935,365.202749 223.35567,364.400344 222.585911,364.015464" id="Fill-337" fill="#1A1919"></path>
            <path d="M242.616838,367.57732 C242.609966,367.573883 242.606529,367.570447 242.599656,367.56701 C242.706186,367.69244 242.771478,367.853952 242.850515,368.001718 C243.036082,368.352234 243.168385,368.735395 243.168385,369.168385 C243.168385,370.580756 242.013746,371.75945 240.587629,371.75945 L240.546392,371.75945 C240.678694,371.831615 240.828179,371.88488 240.982818,371.929553 C241.170103,371.9811 241.369416,372.015464 241.572165,372.015464 C242.410653,372.015464 243.11512,371.54811 243.530928,370.881443 C243.757732,370.520619 243.92268,370.120275 243.92268,369.666667 C243.92268,369.209622 243.786942,368.783505 243.554983,368.42268 C243.324742,368.068729 243.001718,367.778351 242.616838,367.57732" id="Fill-338" fill="#1A1919"></path>
            <path d="M211.719931,346.132302 C211.721649,346.134021 211.721649,346.135739 211.721649,346.137457 C211.756014,346.176976 211.771478,346.231959 211.802405,346.273196 C212.087629,346.671821 212.281787,347.154639 212.281787,347.680412 C212.281787,349.130584 211.14433,350.286942 209.74055,350.314433 C210.030928,350.453608 210.348797,350.536082 210.676976,350.536082 C211.005155,350.536082 211.317869,350.467354 211.601375,350.347079 C211.652921,350.324742 211.689003,350.281787 211.737113,350.256014 C212.501718,349.869416 213.042955,349.103093 213.042955,348.201031 C213.042955,347.280069 212.482818,346.477663 211.719931,346.132302" id="Fill-339" fill="#1A1919"></path>
            <path d="M209.690722,350.319588 C209.707904,350.319588 209.723368,350.314433 209.74055,350.314433 C209.71134,350.300687 209.678694,350.293814 209.651203,350.278351 L209.690722,350.319588" id="Fill-340" fill="#1A1919"></path>
            <path d="M199.709622,365.599656 C199.709622,364.469072 198.771478,363.522337 197.62543,363.522337 C196.47079,363.522337 195.539519,364.469072 195.539519,365.599656 C195.539519,366.778351 196.47079,367.69244 197.62543,367.69244 C198.771478,367.69244 199.709622,366.778351 199.709622,365.599656" id="Fill-341" fill="#1A1919"></path>
            <path d="M177.654639,371.273196 C178,371.273196 178.310997,371.164948 178.597938,371.012027 C179.271478,370.654639 179.745704,369.960481 179.745704,369.16323 C179.745704,368.080756 178.931271,367.25945 177.898625,367.135739 C177.817869,367.12543 177.745704,367.089347 177.661512,367.089347 C177.658076,367.089347 177.656357,367.085911 177.652921,367.085911 C176.505155,367.085911 175.560137,367.993127 175.560137,369.16323 C175.560137,370.302405 176.505155,371.273196 177.652921,371.273196 L177.654639,371.273196" id="Fill-342" fill="#1A1919"></path>
            <path d="M221.371134,367.52921 C222.118557,367.216495 222.649485,366.482818 222.649485,365.599656 C222.649485,364.857388 222.223368,364.225086 221.618557,363.857388 C221.302405,363.664948 220.95189,363.522337 220.556701,363.522337 C219.979381,363.522337 219.460481,363.761168 219.084192,364.137457 C218.71134,364.515464 218.479381,365.034364 218.479381,365.599656 C218.479381,365.893471 218.537801,366.171821 218.642612,366.42268 C218.955326,367.176976 219.690722,367.69244 220.556701,367.69244 C220.845361,367.69244 221.120275,367.634021 221.371134,367.52921" id="Fill-343" fill="#1A1919"></path>
            <path d="M240.587629,371.273196 C241.718213,371.273196 242.66323,370.302405 242.66323,369.16323 C242.66323,367.996564 241.721649,367.092784 240.594502,367.087629 C240.592784,367.087629 240.589347,367.085911 240.587629,367.085911 C239.431271,367.085911 238.484536,367.993127 238.484536,369.16323 C238.484536,370.302405 239.431271,371.273196 240.587629,371.273196" id="Fill-344" fill="#1A1919"></path>
            <path d="M210.503436,349.634021 C211.252577,349.314433 211.783505,348.561856 211.783505,347.685567 C211.783505,346.554983 210.838488,345.623711 209.690722,345.623711 C208.544674,345.623711 207.606529,346.554983 207.606529,347.685567 C207.606529,348.561856 208.132302,349.312715 208.879725,349.634021 C209.128866,349.742268 209.40378,349.802405 209.690722,349.802405 C209.979381,349.802405 210.252577,349.743986 210.503436,349.634021" id="Fill-345" fill="#1A1919"></path>
            <polyline id="Fill-346" fill="#1A1919" points="160.091065 347.285223 159.250859 344.878007 159.245704 344.864261 158.616838 346.273196 157.852234 347.979381 157.850515 347.982818 159.012027 348.02921 160.364261 348.080756 160.369416 348.080756 160.091065 347.285223"></polyline>
            <polyline id="Fill-347" fill="#1A1919" points="164.290378 346.59622 161.556701 348.512027 161.563574 348.515464 162.457045 349.092784 163.666667 349.87457 163.668385 349.871134 164.372852 346.537801 164.290378 346.59622"></polyline>
            <polyline id="Fill-348" fill="#1A1919" points="165.601375 353.111684 167.926117 350.57732 167.927835 350.57732 164.503436 350.848797 165.601375 353.111684"></polyline>
            <polyline id="Fill-349" fill="#1A1919" points="165.823024 354.359107 165.599656 356.893471 168.895189 355.890034 168.888316 355.886598 165.823024 354.359107"></polyline>
            <polyline id="Fill-350" fill="#1A1919" points="167.264605 360.542955 166.298969 359.182131 165.283505 357.752577 165.281787 357.756014 163.912371 359.886598 167.264605 360.542955"></polyline>
            <polyline id="Fill-351" fill="#1A1919" points="162.687285 360.890034 162.683849 360.891753 161.517182 361.398625 160.378007 361.891753 160.774914 362.28866 162.804124 364.309278 162.823024 364.329897 162.687285 360.890034"></polyline>
            <polyline id="Fill-352" fill="#1A1919" points="261.790378 347.979381 260.621993 345.365979 260.395189 344.860825 260.395189 344.862543 259.273196 348.085911 261.790378 347.9811 261.790378 347.979381"></polyline>
            <polyline id="Fill-353" fill="#1A1919" points="255.974227 349.878007 255.984536 349.871134 256.829897 349.321306 258.075601 348.513746 256.517182 347.415808 255.280069 346.542955 255.276632 346.541237 255.974227 349.878007"></polyline>
            <polyline id="Fill-354" fill="#1A1919" points="254.053265 353.097938 255.154639 350.848797 251.714777 350.575601 254.04811 353.111684 254.053265 353.097938"></polyline>
            <polyline id="Fill-355" fill="#1A1919" points="254.044674 356.891753 253.83677 354.357388 253.835052 354.357388 250.752577 355.888316 250.749141 355.890034 254.044674 356.891753"></polyline>
            <polyline id="Fill-356" fill="#1A1919" points="252.367698 360.544674 255.735395 359.888316 254.364261 357.756014 252.367698 360.544674"></polyline>
            <polyline id="Fill-357" fill="#1A1919" points="257.793814 363.365979 259.25945 361.891753 258.74055 361.664948 256.958763 360.890034 256.957045 360.891753 256.838488 364.32646 256.838488 364.329897 257.793814 363.365979"></polyline>
            <path d="M209.814433,319.74055 C209.201031,319.74055 208.640893,319.482818 208.228522,319.07732 C207.800687,318.658076 207.52921,318.079038 207.52921,317.448454 C207.52921,316.171821 208.563574,315.130584 209.814433,315.130584 C211.097938,315.130584 212.123711,316.171821 212.123711,317.448454 C212.123711,318.118557 211.809278,318.718213 211.329897,319.140893 C210.92268,319.501718 210.40378,319.74055 209.814433,319.74055 Z M212.501718,317.448454 C212.501718,315.957045 211.298969,314.752577 209.814433,314.752577 C208.347079,314.752577 207.135739,315.957045 207.135739,317.448454 C207.135739,318.891753 208.347079,320.085911 209.814433,320.085911 C211.298969,320.085911 212.501718,318.891753 212.501718,317.448454 L212.501718,317.448454 Z" id="Fill-358" fill="#1A1919"></path>
            <path d="M219.90378,321.829897 L219.90378,321.828179 C219.90378,320.568729 220.920962,319.536082 222.195876,319.536082 C223.446735,319.536082 224.465636,320.568729 224.465636,321.828179 L224.465636,321.829897 C224.463918,323.089347 223.446735,324.121993 222.195876,324.121993 C220.920962,324.121993 219.90378,323.089347 219.90378,321.829897 Z M222.996564,324.878007 C223.316151,324.87457 223.623711,324.809278 223.905498,324.695876 C223.945017,324.680412 223.9811,324.66323 224.0189,324.64433 C224.266323,324.530928 224.491409,324.378007 224.690722,324.194158 C224.737113,324.151203 224.778351,324.108247 224.821306,324.061856 C225,323.867698 225.149485,323.649485 225.262887,323.405498 C225.285223,323.359107 225.305842,323.316151 225.323024,323.266323 C225.429553,322.996564 225.489691,322.706186 225.496564,322.400344 C225.498282,322.38488 225.508591,322.369416 225.508591,322.350515 C225.508591,321.460481 225.025773,320.642612 224.312715,320.207904 C224.073883,319.905498 223.776632,319.66323 223.443299,319.482818 C223.068729,319.283505 222.649485,319.166667 222.195876,319.166667 C221.824742,319.166667 221.472509,319.24055 221.151203,319.37457 C220.187285,319.776632 219.517182,320.721649 219.517182,321.828179 C219.517182,322.766323 219.996564,323.603093 220.728522,324.075601 C220.974227,324.233677 221.245704,324.350515 221.539519,324.419244 C221.632302,324.487973 221.742268,324.524055 221.843643,324.57732 C222.187285,324.761168 222.556701,324.88488 222.965636,324.88488 C222.977663,324.88488 222.986254,324.878007 222.996564,324.878007 L222.996564,324.878007 Z" id="Fill-359" fill="#1A1919"></path>
            <path d="M198.579038,321.829897 C198.579038,323.089347 197.544674,324.121993 196.285223,324.121993 C195.027491,324.121993 193.993127,323.089347 193.993127,321.829897 L193.993127,321.828179 C193.993127,320.568729 195.027491,319.536082 196.285223,319.536082 C197.544674,319.536082 198.579038,320.568729 198.579038,321.828179 L198.579038,321.829897 Z M198.410653,320.207904 C198.372852,320.159794 198.323024,320.121993 198.281787,320.075601 C197.785223,319.5189 197.085911,319.166667 196.285223,319.166667 C195.852234,319.166667 195.448454,319.278351 195.084192,319.462199 C194.209622,319.898625 193.599656,320.786942 193.599656,321.828179 C193.599656,322.829897 194.170103,323.690722 194.989691,324.14433 C195.194158,324.257732 195.40378,324.364261 195.635739,324.419244 C195.637457,324.419244 195.640893,324.420962 195.642612,324.420962 C196.058419,324.723368 196.544674,324.88488 197.063574,324.88488 C197.075601,324.88488 197.084192,324.878007 197.09622,324.878007 C197.419244,324.87457 197.725086,324.809278 198.008591,324.694158 C198.042955,324.682131 198.073883,324.666667 198.106529,324.651203 C198.364261,324.536082 198.597938,324.378007 198.800687,324.187285 C198.838488,324.149485 198.87457,324.113402 198.910653,324.073883 C199.09622,323.878007 199.249141,323.651203 199.362543,323.402062 C199.38488,323.357388 199.402062,323.314433 199.420962,323.268041 C199.525773,323 199.585911,322.713058 199.594502,322.408935 C199.594502,322.390034 199.606529,322.371134 199.606529,322.350515 C199.606529,321.460481 199.12543,320.642612 198.410653,320.207904 L198.410653,320.207904 Z" id="Fill-360" fill="#1A1919"></path>
            <path d="M209.810997,315.402062 C208.695876,315.402062 207.790378,316.316151 207.790378,317.448454 C207.790378,318.561856 208.695876,319.45189 209.810997,319.45189 C210.941581,319.45189 211.848797,318.561856 211.848797,317.448454 C211.848797,316.316151 210.941581,315.402062 209.810997,315.402062" id="Fill-361" fill="#1A1919"></path>
            <path d="M222.195876,319.810997 C221.073883,319.810997 220.142612,320.701031 220.142612,321.829897 C220.142612,322.962199 221.073883,323.867698 222.195876,323.867698 C223.310997,323.867698 224.225086,322.962199 224.225086,321.829897 C224.225086,320.701031 223.310997,319.810997 222.195876,319.810997" id="Fill-362" fill="#1A1919"></path>
            <path d="M196.285223,319.810997 C195.16323,319.810997 194.257732,320.701031 194.257732,321.829897 C194.257732,322.962199 195.16323,323.867698 196.285223,323.867698 C197.408935,323.867698 198.323024,322.962199 198.323024,321.829897 C198.323024,320.701031 197.408935,319.810997 196.285223,319.810997" id="Fill-363" fill="#1A1919"></path>
        </g>
    </g>
</svg>