<svg viewBox="0 0 500 500" fill="none" xmlns="http://www.w3.org/2000/svg">
<g clip-path="url(#clip0)">
<path d="M51 407.091C148.459 415.624 210.272 443.117 240.23 500C343.188 483.314 438.372 417.33 438.372 332.196C438.372 218.809 300.905 200.986 297.303 167.994C355.133 188.851 418.653 166.856 448.99 94.8048C359.305 88.1685 293.51 55.366 265.069 0.189697C155.096 19.5299 67.1168 90.823 67.1168 167.804C67.1168 280.243 211.599 310.011 227.906 333.902C148.838 303.944 80.9583 338.074 51 407.091Z" fill="#030A12"/>
<path d="M221.838 162.116C209.513 149.602 204.394 139.742 204.394 126.849C204.394 112.059 211.599 104.854 211.599 96.5112C211.599 89.3061 207.048 83.8074 198.516 82.1009C203.636 76.6022 210.461 73.3789 216.908 73.3789C253.692 73.3789 264.5 154.532 341.102 151.688C368.406 149.033 394.193 135.76 410.499 112.438C343.567 103.716 282.323 75.275 252.555 26.9246C221.648 32.6128 91.5764 77.3607 94.9893 171.028C98.4023 268.677 242.885 295.98 283.271 337.884C315.126 371.066 292.752 404.247 272.084 416.382C240.42 333.902 136.135 328.024 94.6101 387.562C161.542 396.284 222.786 424.725 252.555 473.076C326.502 457.528 361.959 392.871 348.497 346.037C326.123 268.677 180.314 255.214 141.633 182.784C120.966 142.017 138.031 98.5969 175.763 73.1893C160.973 92.3398 153.958 114.334 154.147 135.002C157.56 138.604 158.888 147.137 158.888 147.327C159.457 150.36 160.215 156.617 158.698 160.41C160.405 164.771 162.49 168.942 164.955 172.924C170.075 174.251 175.763 180.698 175.763 180.887C181.262 187.334 182.21 191.316 182.399 192.833C185.812 195.867 189.604 198.9 193.397 201.744C196.62 201.365 201.55 202.882 206.669 206.105C212.547 209.898 215.391 213.69 216.15 216.534C220.132 218.809 224.303 221.274 228.664 223.55C231.887 222.601 237.196 223.739 242.695 226.394C248.004 229.238 251.986 232.84 253.124 236.064C257.295 238.149 261.656 240.235 266.017 242.51C269.24 241.562 274.739 242.51 280.048 245.355C285.357 248.009 289.149 251.801 290.477 254.835C294.838 257.11 299.199 259.386 303.56 261.851C307.541 261.092 313.988 263.557 317.401 265.453C322.521 268.487 326.123 272.469 327.071 275.692C331.432 278.536 335.604 281.38 339.585 284.414C342.998 284.225 347.928 286.121 352.668 290.102C357.598 294.463 360.253 299.204 360.442 302.617C363.855 306.409 367.079 310.201 369.923 314.183C374.094 315.131 378.266 319.871 380.541 324.801C383.764 331.817 383.385 336.746 382.437 339.211C387.936 356.466 389.453 378.271 380.541 403.299C380.541 403.489 380.351 403.868 380.162 404.247C398.744 383.959 411.447 358.931 410.31 328.972C406.897 231.134 262.225 204.02 221.838 162.116Z" fill="#A9DED6"/>
<path d="M277.394 172.355C260.898 153.394 250.28 119.644 232.077 106.561C223.924 135.381 240.989 167.236 277.394 172.355Z" fill="#E90012"/>
<path d="M264.311 444.824C258.433 462.268 252.744 473.076 252.744 473.076C222.786 424.725 161.542 396.284 94.6101 387.562C163.818 352.863 235.49 389.268 264.311 444.824ZM410.499 112.249C341.292 146.947 269.62 110.353 240.989 54.9869C246.866 37.5428 252.555 26.7351 252.555 26.7351C223.355 32.0442 91.5764 76.4128 94.9893 170.838C98.4023 268.487 242.885 295.791 283.271 337.695C315.126 370.876 292.752 404.058 272.084 416.193C269.809 426.811 266.965 436.481 264.121 444.634C279.1 441.98 324.796 417.899 325.175 371.445C325.554 307.357 242.695 290.482 179.934 251.422C128.361 219.568 118.311 187.713 115.846 167.615C109.589 120.402 142.96 77.1712 191.501 56.883C184.485 62.7609 179.176 68.6388 175.763 73.1894C160.973 92.34 153.958 114.335 154.147 135.002C157.56 138.605 158.888 147.137 158.888 147.327C159.457 150.36 160.215 156.618 158.698 160.41C160.405 164.771 162.49 168.942 164.955 172.924C170.075 174.251 175.763 180.698 175.763 180.888C181.262 187.334 182.21 191.316 182.399 192.833C185.812 195.867 189.604 198.9 193.397 201.745C196.62 201.365 201.55 202.882 206.669 206.106C212.547 209.898 215.391 213.69 216.15 216.534C220.132 218.809 224.303 221.274 228.664 223.55C231.887 222.602 237.196 223.739 242.695 226.394C248.004 229.238 251.986 232.841 253.124 236.064C257.295 238.15 261.656 240.235 266.017 242.511C269.24 241.563 274.739 242.511 280.048 245.355C285.357 248.009 289.149 251.801 290.477 254.835C294.838 257.111 299.199 259.386 303.56 261.851C307.541 261.092 313.988 263.557 317.401 265.453C322.521 268.487 326.123 272.469 327.071 275.692C331.432 278.536 335.604 281.381 339.585 284.414C342.998 284.225 347.928 286.121 352.668 290.103C357.598 294.464 360.253 299.204 360.442 302.617C363.855 306.409 367.079 310.201 369.923 314.183C374.094 315.131 378.266 319.871 380.541 324.801C383.764 331.817 383.385 336.746 382.437 339.211C387.936 356.466 389.453 378.271 380.541 403.299C404.432 362.913 402.157 322.715 375.422 288.965C319.487 218.051 179.366 209.519 179.934 128.366C180.124 109.026 188.088 93.6672 198.516 82.101C203.636 76.6024 210.461 73.379 216.908 73.379C253.692 73.379 264.5 154.532 341.102 151.688C368.596 148.844 394.383 135.571 410.499 112.249Z" fill="#6DA4B9"/>
<path d="M363.097 478.385V467.767H359.115V465.491H369.544V467.767H365.752V478.385H363.097ZM371.061 478.385V465.681H375.042L377.318 474.403L379.593 465.681H383.575V478.385H381.11V468.335L378.266 478.574H375.99L373.336 468.335V478.574H371.061V478.385Z" fill="#030A12"/>
</g>
<defs>
<clipPath id="clip0">
<rect width="398.18" height="500" fill="white" transform="translate(51)"/>
</clipPath>
</defs>
</svg>
