<?xml version="1.0" encoding="UTF-8" standalone="no"?>
<svg viewBox="0 0 500 500" version="1.1" xmlns="http://www.w3.org/2000/svg" xmlns:xlink="http://www.w3.org/1999/xlink">
    <!-- Generator: Sketch 39.1 (31720) - http://www.bohemiancoding.com/sketch -->
    <title>TB</title>
    <desc>Created with Sketch.</desc>
    <defs>
        <polygon id="path-1" points="381.461847 344.301312 381.461847 0.669047009 1.15120482 0.669047009 1.15120482 344.301312 381.461847 344.301312"></polygon>
    </defs>
    <g id="Page-1" stroke="none" stroke-width="1" fill="none" fill-rule="evenodd">
        <g id="TB">
            <g id="Page-1" transform="translate(0.000000, 15.000000)">
                <g id="Group-3" transform="translate(118.473896, 80.914316)">
                    <mask id="mask-2" fill="white">
                        <use xlink:href="#path-1"></use>
                    </mask>
                    <g id="Clip-2"></g>
                    <path d="M381.46245,132.094303 C381.46245,81.3805 349.944378,31.387765 294.004618,0.669047009 L272.568876,17.6814402 C310.797791,41.7438333 333.295783,77.7008419 333.295783,118.504474 C333.295783,213.747765 215.633133,300.01285 84.6913655,300.01285 C71.2516064,300.01285 58.0708835,299.030671 45.3379518,297.13862 L1.15120482,329.847808 C29.0528112,339.289987 60.1893574,344.301312 92.72751,344.301312 C248.169277,344.301312 381.46245,239.32862 381.46245,132.094303" id="Fill-1" fill="#003E7E" mask="url(#mask-2)"></path>
                </g>
                <g id="Group-6" transform="translate(0.000000, 0.572436)" fill="#003E7E">
                    <path d="M21.3471888,248.208406 C21.3471888,149.725329 144.552008,66.7060556 269.955622,66.7060556 C270.821084,66.7060556 271.676506,66.7221239 272.541968,66.7321667 L151.303012,202.399474 L221.017871,191.370543 L83.6604418,324.24597 L139.369277,314.181141 L100.457631,358.702594 C53.176506,336.305286 21.3471888,297.684944 21.3471888,248.208406 L21.3471888,248.208406 Z M302.226707,247.846868 L222.256827,263.487423 L399.640361,117.69503 L317.062048,128.76815 L477.57008,1.43631197 L290.712651,50.6135769 C288.248795,50.5613547 285.778916,50.5252009 283.278916,50.5252009 C130.148394,50.5252009 -0.000200803211,154.622167 -0.000200803211,264.449517 C-0.000200803211,318.334816 29.0178715,361.201226 73.9917671,388.975415 L4.94156627,467.991654 L302.226707,247.846868 Z" id="Fill-4"></path>
                </g>
            </g>
        </g>
    </g>
</svg>