<svg viewBox="0 0 500 500" fill="none" xmlns="http://www.w3.org/2000/svg">
<g id="Color=Dark">
<g id="Frame" clip-path="url(#clip0_37_9366)">
<path id="Vector" d="M250.01 466.743C369.692 466.743 466.743 369.713 466.743 250.01C466.743 149.602 398.439 65.1331 305.774 40.5254C310.695 46.6413 327.066 69.1898 327.066 98.2454C327.066 140.233 292.512 174.395 250.031 174.395C207.549 174.395 172.995 140.233 172.995 98.2454C172.995 69.1898 189.345 46.6413 194.288 40.5254C101.581 65.1331 33.2769 149.582 33.2769 250.01C33.2769 369.692 130.307 466.743 249.99 466.743H250.01ZM375.026 275.998H390.593V300.667C390.593 305.733 394.712 309.851 399.777 309.851C404.843 309.851 408.962 305.753 408.962 300.667V290.227C408.962 287.715 407.438 284.276 405.543 282.587L378.444 258.35C376.57 256.682 375.026 253.243 375.026 250.731V203.41C375.026 193.958 382.748 186.236 392.179 186.236H412.421C421.873 186.236 429.574 193.958 429.574 203.41V238.829H408.941V225.073C408.941 221.408 405.955 218.442 402.29 218.442C398.624 218.442 395.638 221.428 395.638 225.073V241.135C395.638 243.647 397.162 247.086 399.057 248.775L426.156 273.012C428.03 274.7 429.554 278.119 429.554 280.631V287.612C429.554 336.003 408.632 379.679 375.005 410.918V276.018L375.026 275.998ZM300.029 309.851C303.673 309.851 306.618 306.907 306.618 303.262V225.052C306.618 221.408 303.673 218.463 300.029 218.463V186.257H346.361C355.792 186.257 363.514 193.979 363.514 203.431V245.748C363.514 252.316 356.142 255.323 356.142 255.323C356.142 255.323 363.514 258.329 363.514 264.898V303.282C363.514 306.927 366.459 309.872 370.104 309.872V398.604C370.104 415.366 365.841 418.908 365.841 418.908C357.769 425.435 349.1 431.304 339.916 436.411C340.822 433.363 341.44 429.719 341.44 425.374V271.982C341.44 268.07 338.268 264.898 334.335 264.898C330.402 264.898 327.252 268.07 327.252 271.982V300.605C327.252 305.712 331.391 309.851 336.497 309.851V423.87C336.497 438.306 328.569 442.177 328.569 442.177C317.511 447.325 305.856 451.361 293.686 454.285C297.331 450.599 300.008 445.554 300.008 438.882V309.872L300.029 309.851ZM229.377 186.236H295.107V238.829H279.56V227.441C279.56 222.458 275.524 218.422 270.541 218.422C265.557 218.422 261.521 222.458 261.521 227.441V245.706H279.539V269.161H261.521V300.811C261.521 305.795 265.557 309.831 270.541 309.831C275.524 309.831 279.56 305.795 279.56 300.811V275.977H295.107V438.841C295.107 453.914 277.995 457.312 277.995 457.312C268.873 458.692 259.524 459.392 249.99 459.392C242.185 459.392 234.504 458.918 226.947 457.992C229.315 456.468 234.278 452.144 234.278 442.65V309.831C237.922 309.831 240.867 306.886 240.867 303.241V229.953C240.867 223.57 235.698 218.442 229.356 218.442V186.236H229.377ZM173.448 425.538V309.851C177.093 309.851 180.038 306.907 180.038 303.262V225.052C180.038 221.408 177.093 218.463 173.448 218.463V186.257H207.281V218.463C203.636 218.463 200.692 221.408 200.692 225.052V303.303C200.692 306.927 203.636 309.872 207.261 309.872C210.885 309.872 213.83 306.927 213.83 303.303V276.018H229.377V442.692C229.377 458.321 213.788 455.953 213.788 455.953C196.738 452.617 180.573 446.954 165.644 439.356C168.156 438.388 173.428 435.217 173.428 425.559L173.448 425.538ZM134.694 388.678V309.872C138.338 309.872 141.283 306.927 141.283 303.282V225.073C141.283 221.428 138.338 218.483 134.694 218.483V186.277H168.506V218.483C164.861 218.483 161.917 221.428 161.917 225.073V303.282C161.917 306.927 164.861 309.872 168.506 309.872V425.559C168.506 438.965 156.789 434.537 156.789 434.537C144.001 427.083 132.264 418.125 121.823 407.973C126.23 407.747 134.673 405.131 134.673 388.699L134.694 388.678ZM70.3635 203.451C70.3635 193.999 78.0856 186.277 87.5168 186.277H112.578C122.009 186.277 129.731 193.999 129.731 203.451V388.699C129.731 406.964 117.767 405.049 112.619 398.336C86.2607 368.457 70.3635 329.846 70.3635 287.653V203.451Z" fill="white"/>
<path id="Vector_2" d="M100.099 218.442C95.0948 218.442 91.0381 222.478 91.0381 227.503V300.811C91.0381 305.815 95.0948 309.872 100.099 309.872C105.103 309.872 109.159 305.815 109.159 300.811V227.503C109.159 222.499 105.103 218.442 100.099 218.442" fill="white"/>
<path id="Vector_3" d="M335.077 245.727C339.381 245.727 342.881 242.226 342.881 237.923V226.267C342.881 221.964 339.381 218.463 335.077 218.463C330.773 218.463 327.272 221.964 327.272 226.267V237.923C327.272 242.226 330.773 245.727 335.077 245.727Z" fill="white"/>
<path id="Vector_4" d="M250.01 500C388.081 500 500.021 388.081 500.021 249.99C500.021 111.898 388.081 0 250.01 0C111.939 0 0 111.939 0 250.01C0 388.081 111.939 500.021 250.01 500.021V500ZM250.01 16.309C265.825 55.7432 290.33 70.8167 290.33 99.0692C290.33 118.364 274.391 137.165 250.01 137.165C225.629 137.165 209.691 118.364 209.691 99.0692C209.691 70.8373 234.195 55.7432 250.01 16.309V16.309ZM236.09 12.0053C207.549 56.7316 194.679 73.226 194.679 98.2661C194.679 128.331 219.946 152.691 250.01 152.691C280.075 152.691 305.342 128.31 305.342 98.2661C305.342 73.226 292.471 56.7316 263.931 12.0053C389.131 19.2126 488.448 123.018 488.448 250.01C488.448 377.003 381.698 488.448 250.01 488.448C118.323 488.448 11.5728 381.698 11.5728 250.01C11.5728 118.323 110.889 19.192 236.09 11.9847" fill="white"/>
<path id="Vector_5" d="M290.309 99.0488C290.309 70.8168 265.804 55.7227 249.99 16.2886C234.175 55.7227 209.67 70.7962 209.67 99.0488C209.67 118.344 225.608 137.144 249.99 137.144C274.371 137.144 290.309 118.344 290.309 99.0488" fill="#E86D1F"/>
<path id="Vector_6" d="M429.286 442.136C429.286 449.24 435.031 454.985 442.136 454.985C449.24 454.985 454.985 449.219 454.985 442.136C454.985 435.052 449.24 429.286 442.136 429.286C435.031 429.286 429.286 435.031 429.286 442.136ZM452.226 442.136C452.226 447.716 447.716 452.226 442.136 452.226C436.555 452.226 432.045 447.696 432.045 442.136C432.045 436.576 436.555 432.045 442.136 432.045C447.716 432.045 452.226 436.576 452.226 442.136Z" fill="#0D2D6C"/>
<path id="Vector_7" d="M436.864 449.487H439.624V443.516H441.6L444.38 449.487H447.428L444.525 443.269C446.213 442.671 447.408 441.065 447.408 439.171C447.408 436.761 445.451 434.805 443.063 434.805H436.864V449.487V449.487ZM439.624 437.544H443.063C443.927 437.544 444.669 438.265 444.669 439.15C444.669 440.036 443.948 440.756 443.063 440.756H439.624V437.544Z" fill="#0D2D6C"/>
<path id="Vector_8" d="M263.91 11.9849C292.451 56.7112 305.321 73.2056 305.321 98.2457C305.321 128.31 280.054 152.671 249.99 152.671C219.925 152.671 194.658 128.29 194.658 98.2457C194.658 73.2056 207.528 56.7112 236.069 11.9849C110.889 19.1921 11.5728 122.998 11.5728 250.011C11.5728 377.023 118.323 488.448 250.01 488.448C381.698 488.448 488.448 381.698 488.448 250.011C488.448 118.323 389.131 19.1921 263.91 11.9849ZM249.99 466.723C130.287 466.723 33.2564 369.693 33.2564 249.99C33.2564 149.582 101.561 65.1128 194.226 40.5051C189.304 46.621 172.934 69.1695 172.934 98.2251C172.934 140.213 207.487 174.375 249.969 174.375C292.451 174.375 327.005 140.213 327.005 98.2251C327.005 69.1695 310.634 46.621 305.712 40.5051C398.398 65.1128 466.682 149.562 466.682 249.99C466.682 369.672 369.651 466.723 249.948 466.723" fill="#0D2D6C"/>
<path id="Vector_9" d="M295.107 275.998H279.56V300.832C279.56 305.815 275.524 309.851 270.541 309.851C265.558 309.851 261.521 305.815 261.521 300.832V269.182H279.54V245.727H261.521V227.462C261.521 222.479 265.558 218.443 270.541 218.443C275.524 218.443 279.56 222.479 279.56 227.462V238.849H295.107V186.257H229.377V218.463C235.74 218.463 240.909 223.611 240.909 229.995V303.283C240.909 306.927 237.964 309.872 234.319 309.872V442.692C234.319 452.185 229.356 456.509 226.988 458.033C234.525 458.96 242.206 459.433 250.01 459.433C259.545 459.433 268.893 458.713 278.016 457.354C278.016 457.354 295.128 453.956 295.128 438.882V276.018L295.107 275.998Z" fill="#0D2D6C"/>
<path id="Vector_10" d="M229.377 275.998H213.83V303.283C213.83 306.907 210.885 309.851 207.261 309.851C203.637 309.851 200.692 306.907 200.692 303.283V225.032C200.692 221.387 203.637 218.443 207.281 218.443V186.236H173.469V218.443C177.114 218.443 180.059 221.387 180.059 225.032V303.241C180.059 306.886 177.114 309.831 173.469 309.831V425.518C173.469 435.176 168.177 438.347 165.665 439.315C180.594 446.913 196.759 452.556 213.809 455.912C213.809 455.912 229.398 458.28 229.398 442.651V275.977L229.377 275.998Z" fill="#0D2D6C"/>
<path id="Vector_11" d="M168.527 425.539V309.851C164.882 309.851 161.937 306.886 161.937 303.262V225.053C161.937 221.408 164.882 218.463 168.527 218.463V186.257H134.714V218.463C138.359 218.463 141.304 221.408 141.304 225.053V303.262C141.304 306.907 138.359 309.851 134.714 309.851V388.658C134.714 405.111 126.271 407.706 121.865 407.953C132.305 418.125 144.022 427.062 156.83 434.517C156.83 434.517 168.547 438.944 168.547 425.539" fill="#0D2D6C"/>
<path id="Vector_12" d="M429.595 238.829V203.39C429.595 193.958 421.873 186.236 412.442 186.236H392.2C382.768 186.236 375.046 193.958 375.046 203.39V250.711C375.046 253.223 376.57 256.662 378.465 258.33L405.564 282.567C407.438 284.255 408.982 287.694 408.982 290.206V300.647C408.982 305.712 404.864 309.831 399.798 309.831C394.733 309.831 390.614 305.712 390.614 300.647V275.977H375.046V410.877C408.694 379.659 429.595 335.962 429.595 287.571V280.59C429.595 278.078 428.071 274.639 426.197 272.971L399.078 248.734C397.183 247.045 395.659 243.627 395.659 241.094V225.032C395.659 221.367 398.645 218.401 402.31 218.401C405.976 218.401 408.962 221.387 408.962 225.032V238.788H429.595V238.829Z" fill="#0D2D6C"/>
<path id="Vector_13" d="M129.793 388.658V203.389C129.793 193.937 122.071 186.215 112.639 186.215H87.5786C78.1474 186.215 70.4253 193.937 70.4253 203.389V287.591C70.4253 329.764 86.3225 368.374 112.681 398.274C117.829 404.987 129.793 406.923 129.793 388.637V388.658ZM109.159 300.77C109.159 305.774 105.103 309.831 100.099 309.831C95.0948 309.831 91.0381 305.774 91.0381 300.77V227.462C91.0381 222.458 95.0948 218.401 100.099 218.401C105.103 218.401 109.159 222.437 109.159 227.462V300.77Z" fill="#0D2D6C"/>
<path id="Vector_14" d="M363.515 303.241V264.878C363.515 258.309 356.143 255.303 356.143 255.303C356.143 255.303 363.515 252.296 363.515 245.727V203.41C363.515 193.979 355.793 186.257 346.361 186.257H300.049V218.463C303.694 218.463 306.639 221.408 306.639 225.053V303.262C306.639 306.907 303.694 309.851 300.049 309.851V438.862C300.049 445.554 297.352 450.599 293.728 454.265C305.898 451.341 317.553 447.305 328.611 442.157C328.611 442.157 336.539 438.306 336.539 423.871V309.851C331.432 309.851 327.293 305.712 327.293 300.606V271.982C327.293 268.049 330.464 264.899 334.377 264.899C338.289 264.899 341.46 268.07 341.46 271.982V425.374C341.46 429.719 340.863 433.343 339.957 436.411C349.141 431.304 357.811 425.415 365.883 418.908C365.883 418.908 370.145 415.387 370.145 398.604V309.872C366.5 309.872 363.556 306.907 363.556 303.283L363.515 303.241ZM342.922 237.943C342.922 242.247 339.422 245.748 335.118 245.748C330.814 245.748 327.313 242.247 327.313 237.943V226.288C327.313 221.984 330.814 218.484 335.118 218.484C339.422 218.484 342.922 221.984 342.922 226.288V237.943Z" fill="#0D2D6C"/>
</g>
</g>
<defs>
<clipPath id="clip0_37_9366">
<rect width="500" height="500" fill="white"/>
</clipPath>
</defs>
</svg>
