<?xml version="1.0" encoding="UTF-8" standalone="no"?>
<svg  viewBox="0 0 500 500" version="1.1" xmlns="http://www.w3.org/2000/svg" xmlns:xlink="http://www.w3.org/1999/xlink">
    <!-- Generator: Sketch 39.1 (31720) - http://www.bohemiancoding.com/sketch -->
    <title>FLA</title>
    <desc>Created with Sketch.</desc>
    <defs>
        <path d="M437.254493,50.3547205 C375.17898,18.0496685 300.223923,0.974620286 220.496924,0.974620286 C140.756502,0.974620286 65.8081561,18.0496685 3.74606675,50.3547205 L0.403694033,52.0924169 L0.403694033,146.60566 C0.403694033,171.765358 3.99439564,238.059485 37.2704678,310.143696 C74.6070529,391.017029 128.548116,445.254628 217.631074,491.501507 L220.496924,492.990961 L223.362774,491.508216 C312.452443,445.247919 366.393506,391.010319 403.730091,310.150405 C437.006164,238.072903 440.603577,171.772067 440.603577,146.61237 L440.603577,52.0991262 L437.254493,50.3547205 L437.254493,50.3547205 Z M434.381931,146.61237 C434.381931,171.362803 430.844922,236.590158 398.085643,307.547215 C357.869785,394.646734 298.69368,445.395522 220.496924,485.99992 C141.649143,445.066769 82.8690224,394.096576 42.9082049,307.547215 C10.1489253,236.583449 6.61191645,171.362803 6.61191645,146.61237 L6.61191645,55.863017 C73.1707723,21.2164358 149.018471,7.18067907 220.496924,7.18067907 C292.646536,7.18067907 368.259329,21.4445504 434.381931,55.8563077 L434.381931,146.61237 L434.381931,146.61237 Z" id="path-1"></path>
        <mask id="mask-2" maskContentUnits="userSpaceOnUse" maskUnits="objectBoundingBox" x="-2.95209581" y="-2.95209581" width="446.104074" height="497.920532">
            <rect x="-2.54840178" y="-1.97747552" width="446.104074" height="497.920532" fill="white"></rect>
            <use xlink:href="#path-1" fill="black"></use>
        </mask>
    </defs>
    <g id="Page-1" stroke="none" stroke-width="1" fill="none" fill-rule="evenodd">
        <g id="FLA">
            <g id="download-(5)" transform="translate(30.000000, 3.000000)">
                <g id="Group">
                    <g id="Shape">
                        <use fill="#FFFFFF" fill-rule="evenodd" xlink:href="#path-1"></use>
                        <use stroke="#FFFFFF" mask="url(#mask-2)" stroke-width="5.90419162" xlink:href="#path-1"></use>
                    </g>
                    <path d="M210.832232,190.202385 C209.711396,190.363407 208.375789,190.578103 206.8187,190.886728 C208.375789,190.584812 209.711396,190.363407 210.832232,190.202385 L210.832232,190.202385 Z M171.314379,199.682559 L172.663409,202.446771 L172.663409,202.446771 L171.314379,199.682559 Z M215.047111,189.79983 L215.047111,189.79983 C215.047111,189.79983 214.141046,189.806539 212.34234,190.007816 C214.134335,189.806539 215.0404,189.79983 215.047111,189.79983 L215.047111,189.79983 Z" id="Shape" fill="#000000"></path>
                    <path d="M307.67379,232.564607 C317.224385,227.190495 330.06366,215.254734 330.06366,215.254734 C336.929618,194.959245 342.862665,167.753225 342.862665,167.753225 C342.862665,165.069524 339.614255,160.7018 339.614255,160.7018 C336.365845,159.024487 328.868997,157.904042 328.868997,157.904042 C317.781447,159.695412 303.344813,170.550983 291.847856,179.568219 C297.821173,179.568219 308.271121,177.642664 308.271121,177.642664 C306.177105,183.016775 298.713815,197.045822 298.713815,197.045822 C303.492468,197.34103 312.747753,195.254452 312.747753,195.254452 C309.163763,206.297882 302.297805,219.736515 302.297805,219.736515 L307.67379,232.564607 L307.67379,232.564607 Z M32.8005476,161.439818 C36.263729,229.639372 64.5195305,352.807834 181.046187,433.251775 C196.637215,424.905464 207.033471,410.869707 213.208135,399.933625 C225.490348,414.781202 226.765551,435.499374 226.765551,435.512793 C239.900136,374.029201 182.28112,326.581365 182.28112,326.581365 C182.28112,326.581365 223.85272,346.789634 252.517928,379.618008 C252.517928,379.618008 253.350166,374.082875 251.625287,365.065639 C249.611809,354.545531 246.477496,347.158643 246.477496,347.158643 C246.477496,347.158643 276.43133,371.486394 292.592843,407.696231 L292.592843,407.696231 L292.592843,407.696231 C292.96198,407.374187 293.324406,407.045433 293.686832,406.723389 C334.781909,364.220273 335.956438,300.529337 335.956438,300.529337 C326.996462,263.373495 311.264491,250.471602 311.264491,250.471602 C314.398805,267.472849 316.338455,286.124571 316.338455,286.124571 C306.338183,308.211431 288.424944,322.985206 288.424944,322.985206 C272.303701,324.776576 259.52483,323.166356 237.148383,315.598318 C217.73846,309.02996 203.335384,298.811768 203.335384,298.811768 C203.335384,298.811768 195.945921,298.362248 187.435623,299.261288 C180.234085,300.019434 171.535862,301.944989 171.535862,301.944989 C181.166996,284.930324 186.878561,267.647289 187.912146,259.790754 C181.361632,252.860096 174.274191,246.264901 167.025672,241.051811 C151.07893,241.796538 138.394021,242.715706 138.394021,242.715706 L143.770006,220.930762 C143.770006,220.930762 140.105477,223.983472 136.004695,228.082826 C131.60189,232.484095 126.756121,237.945427 126.756121,237.945427 C117.198814,241.823375 103.768919,243.916662 103.768919,243.916662 C96.9029609,242.125292 90.3323125,237.65022 90.3323125,237.65022 C106.453556,213.77199 132.729438,204.224723 132.729438,204.224723 C127.950785,198.555404 128.252806,194.080333 128.252806,194.080333 C134.950975,189.652226 141.071947,186.009102 146.474778,183.023484 C145.152594,186.525714 144.971381,188.994719 144.971381,188.994719 C144.971381,188.994719 154.166262,181.580995 159.76373,178.226369 C166.032356,174.462478 172.139905,171.248746 172.139905,171.248746 C176.193706,158.185831 183.146915,147.59863 184.93891,146.089048 C184.93891,146.089048 188.60344,145.505343 190.50282,145.726748 C190.858534,150.000542 195.737862,156.810434 197.724493,159.420333 C187.583278,162.727995 178.797804,169.329899 178.797804,169.329899 C178.797804,169.329899 201.080289,163.385501 220.798945,162.727995 C247.517792,161.835664 263.988039,167.853864 263.988039,167.853864 C259.974507,173.643949 254.538117,179.749369 254.538117,179.749369 C298.740661,164.774317 303.351525,153.321622 327.311907,148.175626 C336.043688,149.591278 343.956655,152.429292 343.956655,152.429292 C349.62795,158.400527 350.97698,164.519365 350.97698,164.519365 C347.695012,190.034653 337.392718,218.70329 337.392718,218.70329 C329.332096,228.552473 315.445813,237.502617 315.445813,237.502617 C329.332096,235.711246 349.929972,229.431385 349.929972,229.431385 C362.735689,238.777375 379.554938,259.086283 386.528282,267.828439 C401.052166,227.559504 406.763731,189.766283 408.206723,161.453237 C402.37435,158.514584 329.828754,123.116566 220.510347,123.116566 C111.178517,123.103148 38.6329209,158.501165 32.8005476,161.439818 L32.8005476,161.439818 Z M120.480783,324.776576 C109.735524,316.269244 106.151534,303.883963 106.151534,303.883963 C106.453556,295.229027 110.628166,289.868334 110.628166,289.868334 C130.031378,303.595465 159.89125,315.833142 159.89125,315.833142 C136.602026,318.060614 120.480783,324.776576 120.480783,324.776576 L120.480783,324.776576 Z M116.218922,257.288203 C117.796146,256.0537 119.937144,254.356259 121.346578,253.296198 C121.346578,253.296198 129.816607,252.088532 139.058469,251.464572 C146.226449,250.900994 152.864213,251.202911 152.864213,251.202911 L158.783837,258.140278 C155.662947,258.489159 150.770197,259.267432 145.481462,260.99171 C145.481462,260.99171 157.246883,264.245698 165.334351,269.774122 C165.213542,270.847603 165.065887,271.921083 164.884674,272.974436 C162.300711,272.719484 154.95823,272.169325 147.45467,273.269643 C147.45467,273.269643 155.636101,277.100626 162.414808,282.508284 C162.005401,283.702531 161.589283,284.856522 161.159741,285.95684 C158.481816,285.393263 152.59575,284.380165 145.716368,284.574734 C145.716368,284.574734 151.951437,288.452682 157.642867,293.726155 C156.193163,296.537331 155.119308,298.228063 155.119308,298.228063 C137.810113,293.061939 116.265903,283.212755 110.775821,280.649821 L110.487223,263.5949 C112.319487,261.273499 113.353072,259.857847 116.218922,257.288203 L116.218922,257.288203 Z M91.097434,250.552113 C92.3055205,252.470959 93.7954939,254.678304 95.5472193,256.95274 C97.426465,259.394908 99.4802121,261.561997 101.815846,263.742504 L108.03078,281.226817 C103.60113,285.446937 97.7821794,294.645322 97.7821794,294.645322 C90.6141994,282.407645 84.9429043,266.587227 84.9429043,266.587227 L91.097434,250.552113 L91.097434,250.552113 Z M220.496924,456.942146 C230.940161,451.52107 240.819624,445.777949 250.16216,439.773168 C240.819624,445.777949 230.940161,451.52107 220.496924,456.942146 L220.496924,456.942146 L220.496924,456.942146 Z M227.805847,194.798223 C226.315874,194.160844 224.772208,193.536883 223.295658,192.946469 C218.866007,191.181936 215.047111,189.79983 215.047111,189.79983 C215.047111,189.79983 214.134335,189.806539 212.34234,190.007816 C211.892663,190.06149 211.389294,190.121874 210.832232,190.202385 C209.711396,190.363407 208.375789,190.578103 206.8187,190.886728 C199.805086,192.262125 188.361822,195.381928 172.663409,202.446771 L172.663409,202.446771 L172.663409,202.446771 L171.314379,199.67585 L169.515673,195.985761 L151.528607,220.736194 L151.528607,220.736194 L151.528607,220.736194 L151.528607,220.736194 C157.642867,221.876767 163.971898,222.252485 169.784136,222.225648 C182.57643,222.165265 192.878724,220.165907 192.878724,220.165907 C199.570181,214.523426 205.509939,208.404587 209.570452,203.963062 C210.926194,202.480317 212.067165,201.185431 212.966518,200.152207 C214.161181,198.77681 214.912879,197.87777 215.120939,197.636237 C219.30226,196.44199 222.584229,195.844866 227.805847,194.798223 L227.805847,194.798223 Z M188.402092,213.76528 C178.254165,218.689872 169.5895,214.657611 169.5895,214.657611 C169.5895,214.657611 170.857991,212.517359 171.978827,210.618641 C173.435242,212.188606 177.576294,213.818954 180.63678,212.571033 C183.663708,211.336531 184.838237,208.176473 185.234221,206.6736 C188.596728,206.029512 192.341796,205.553155 196.160692,205.257948 C196.160692,205.257948 194.643872,210.732698 188.402092,213.76528 L188.402092,213.76528 Z M6.61191645,55.863017 L6.61191645,146.61237 C6.61191645,171.362803 10.1489253,236.590158 42.9082049,307.547215 C82.8690224,394.096576 141.649143,445.066769 220.496924,485.99992 C298.69368,445.402231 357.876496,394.646734 398.085643,307.547215 C430.844922,236.583449 434.381931,171.362803 434.381931,146.61237 L434.381931,55.863017 C368.252617,21.4512597 292.639824,7.18738833 220.496924,7.18738833 C149.018471,7.18067907 73.1640607,21.2164358 6.61191645,55.863017 L6.61191645,55.863017 Z M422.777589,146.61237 C422.777589,170.591239 419.347966,233.812528 387.548444,302.683007 C350.520592,382.878705 294.337857,434.586916 220.496924,472.923586 C146.951301,434.741229 90.6007762,383.160494 53.445404,302.683007 C21.6458821,233.812528 18.2162587,170.591239 18.2162587,146.61237 L18.2162587,62.9010231 C76.6675116,32.4745619 153.199793,18.7876863 220.496924,18.7876863 C287.559149,18.7876863 364.212239,32.4208879 422.777589,62.9010231 L422.777589,146.61237 L422.777589,146.61237 Z" id="Shape" fill="#041E42"></path>
                    <path d="M209.563741,203.963062 C205.503228,208.411297 199.570181,214.530135 192.872012,220.165907 C192.872012,220.165907 182.569719,222.165265 169.777425,222.225648 C182.569719,222.165265 192.872012,220.165907 192.872012,220.165907 C199.570181,214.523426 205.503228,208.404587 209.563741,203.963062 L209.563741,203.963062 Z" id="Shape" fill="#B99758"></path>
                    <path d="M171.314379,199.682559 L172.663409,202.446771" id="Shape"></path>
                    <path d="M18.2162587,62.9010231 L18.2162587,146.61237 C18.2162587,170.591239 21.6458821,233.812528 53.445404,302.683007 C90.6007762,383.160494 146.944589,434.741229 220.496924,472.923586 C294.337857,434.586916 350.520592,382.878705 387.548444,302.683007 C419.341254,233.812528 422.777589,170.591239 422.777589,146.61237 L422.777589,62.9010231 C364.212239,32.4208879 287.559149,18.7876863 220.496924,18.7876863 C153.206504,18.7876863 76.6675116,32.4745619 18.2162587,62.9010231 L18.2162587,62.9010231 Z M386.52157,267.81502 C379.541515,259.072864 362.728977,238.763956 349.92326,229.417967 C349.92326,229.417967 329.325385,235.697828 315.439101,237.489198 C315.439101,237.489198 329.325385,228.539055 337.386007,218.689872 C337.386007,218.689872 347.6883,190.027944 350.970268,164.505947 C350.970268,164.505947 349.62795,158.387108 343.949943,152.415873 C343.949943,152.415873 336.036977,149.577859 327.305196,148.162207 C303.344813,153.308204 298.733949,164.760898 254.531406,179.73595 C254.531406,179.73595 259.967795,173.63053 263.981327,167.840445 C263.981327,167.840445 247.511081,161.815536 220.792234,162.714576 C201.066866,163.372083 178.791092,169.316481 178.791092,169.316481 C178.791092,169.316481 187.576566,162.721285 197.717781,159.406915 C195.73115,156.797015 190.851823,149.987124 190.496108,145.71333 C188.596728,145.485215 184.932199,146.075629 184.932199,146.075629 C183.140204,147.578502 176.186995,158.172412 172.133193,171.235327 C172.133193,171.235327 166.025645,174.449059 159.757018,178.21295 C154.159551,181.567576 144.96467,188.981301 144.96467,188.981301 C144.96467,188.981301 145.145883,186.512296 146.468066,183.010066 C141.058523,185.988974 134.937552,189.638807 128.246095,194.066914 C128.246095,194.066914 127.944073,198.541986 132.722726,204.211304 C132.722726,204.211304 106.446844,213.76528 90.3256009,237.636802 C90.3256009,237.636802 96.8962493,242.111873 103.762208,243.903244 C103.762208,243.903244 117.198814,241.816666 126.74941,237.932009 C126.74941,237.932009 131.60189,232.470677 135.997983,228.069407 C140.098766,223.970054 143.763295,220.917344 143.763295,220.917344 L138.38731,242.702287 C138.38731,242.702287 151.072218,241.78312 167.01896,241.038393 C174.26748,246.251482 181.35492,252.846678 187.905434,259.777336 C186.865137,267.64058 181.153573,284.923615 171.52915,301.931571 C171.52915,301.931571 180.227373,300.006015 187.428911,299.24787 C195.939209,298.355539 203.328672,298.79835 203.328672,298.79835 C203.328672,298.79835 217.731748,309.016542 237.141671,315.5849 C259.518119,323.152937 272.296989,324.763158 288.418233,322.971787 C288.418233,322.971787 306.331471,308.198013 316.331743,286.111153 C316.331743,286.111153 314.392093,267.45943 311.25778,250.458184 C311.25778,250.458184 326.989751,263.353367 335.949726,300.515918 C335.949726,300.515918 334.775197,364.213564 293.680121,406.709971 C293.317695,407.038724 292.948557,407.360768 292.586131,407.682812 L292.586131,407.682812 C279.840818,418.981194 265.746476,429.742835 250.168871,439.753041 C240.826335,445.757822 230.946872,451.500942 220.503635,456.922018 L220.503635,456.922018 L220.503635,456.922018 C220.503635,456.922018 225.872909,445.643764 226.772262,435.492665 L226.772262,435.492665 C226.772262,435.479247 225.503771,414.761074 213.214847,399.913498 C207.040182,410.84958 196.643927,424.885336 181.052899,433.231647 C64.5262421,352.787706 36.2704406,229.619245 32.8072592,161.41969 C38.6396325,158.481038 111.19194,123.08302 220.503635,123.08302 C329.822043,123.08302 402.367638,158.481038 408.200012,161.41969 C406.757019,189.752865 401.045455,227.539376 386.52157,267.81502 L386.52157,267.81502 Z M298.713815,197.039113 C298.713815,197.039113 306.177105,183.010066 308.271121,177.635954 C308.271121,177.635954 297.821173,179.56151 291.847856,179.56151 C303.344813,170.544274 317.788159,159.688703 328.868997,157.897333 C328.868997,157.897333 336.372556,159.017778 339.614255,160.695091 C339.614255,160.695091 342.862665,165.062815 342.862665,167.746516 C342.862665,167.746516 336.929618,194.952536 330.06366,215.248025 C330.06366,215.248025 317.224385,227.183786 307.67379,232.557897 L302.297805,219.723097 C302.297805,219.723097 309.163763,206.277754 312.747753,195.241034 C312.747753,195.247743 303.492468,197.33432 298.713815,197.039113 L298.713815,197.039113 Z M215.120939,197.636237 C215.268594,200.319938 215.120939,202.413225 215.120939,202.413225 C210.644307,210.169121 202.134009,219.42789 196.684196,224.500085 C185.267778,227.183786 174.146671,227.338099 164.663192,226.888579 L151.528607,220.749612 L151.528607,220.749612 L151.528607,220.749612 L169.515673,195.999179 L169.515673,195.999179 C169.515673,195.999179 194.21433,186.136578 215.047111,189.813248 L215.047111,189.813248 L215.047111,189.813248 C215.047111,189.813248 218.866007,191.195354 223.295658,192.959888 C224.772208,193.550302 226.315874,194.174262 227.805847,194.811641 C222.584229,195.844866 219.30226,196.44199 215.120939,197.636237 C214.906168,197.87777 214.15447,198.783519 212.959806,200.152207 C214.15447,198.77681 214.906168,197.87777 215.120939,197.636237 L215.120939,197.636237 Z M238.269219,216.079973 C239.161861,212.42343 238.557817,200.890224 238.557817,200.890224 C238.557817,200.890224 245.135177,203.077441 255.283104,211.135253 C255.283104,211.135253 253.967632,218.602652 251.927308,226.130433 L216.64447,242.299732 C216.637759,242.299732 228.403179,229.612535 238.269219,216.079973 L238.269219,216.079973 Z M408.589284,71.5089944 L408.589284,146.216524 C352.164932,120.553632 282.283838,108.919788 220.496924,108.919788 C158.508662,108.919788 88.7215305,120.587178 32.4045637,146.203105 L32.4045637,71.5089944 C32.4045637,71.5089944 106.446844,32.9710466 220.496924,32.9710466 C334.547003,32.9710466 408.589284,71.5089944 408.589284,71.5089944 L408.589284,71.5089944 Z" id="Shape" fill="#B99758"></path>
                    <path d="M180.63678,212.571033 C177.576294,213.818954 173.435242,212.188606 171.978827,210.618641 C170.857991,212.517359 169.5895,214.657611 169.5895,214.657611 C169.5895,214.657611 178.247453,218.689872 188.402092,213.76528 C194.650584,210.732698 196.167404,205.257948 196.167404,205.257948 C192.341796,205.553155 188.60344,206.029512 185.240932,206.6736 C184.838237,208.176473 183.663708,211.336531 180.63678,212.571033 L180.63678,212.571033 Z M231.765686,56.500396 C228.128004,56.4131757 224.490321,56.3729202 220.852638,56.3662109 L220.852638,65.9939886 C224.490321,65.9939886 228.128004,66.0409534 231.765686,66.1281737 L231.765686,56.500396 L231.765686,56.500396 Z M308.190582,93.6294007 C311.781284,94.300326 315.365274,95.018216 318.942552,95.7763616 L318.942552,66.6850417 C315.365274,65.9268961 311.781284,65.2090061 308.190582,64.5380808 L308.190582,93.6294007 L308.190582,93.6294007 Z M32.4045637,146.203105 C88.7215305,120.587178 158.50195,108.919788 220.496924,108.919788 C282.283838,108.919788 352.164932,120.553632 408.589284,146.216524 L408.589284,71.5089944 C408.589284,71.5089944 334.547003,32.9710466 220.496924,32.9710466 C106.446844,32.9710466 32.4045637,71.5089944 32.4045637,71.5089944 L32.4045637,146.203105 L32.4045637,146.203105 Z M351.594446,73.3942944 C353.097843,71.0192189 354.60124,68.6508527 356.097924,66.2891958 C363.071268,68.3690641 370.011054,70.6032453 376.903859,73.011867 C378.387121,76.3396564 379.870383,79.674155 381.353644,83.0153628 L381.353644,123.371518 C378.17235,122.224236 374.977632,121.117209 371.782915,120.043729 L371.782915,100.573477 C368.286175,99.399358 364.782724,98.2654943 361.272562,97.1785954 L361.272562,116.648847 C358.057709,115.649168 354.829434,114.689745 351.594446,113.763868 L351.594446,73.3942944 L351.594446,73.3942944 Z M298.317831,52.9377828 C306.975784,54.3802721 315.606891,56.0575853 324.197729,57.9764316 C325.72126,61.1230711 327.23808,64.2831292 328.761611,67.4498965 L328.761611,99.3792303 C327.244791,101.834817 325.72126,104.297113 324.197729,106.759408 C315.606891,104.840562 306.975784,103.15654 298.317831,101.720759 L298.317831,52.9377828 L298.317831,52.9377828 Z M265.122298,48.6237333 C268.444536,48.9390682 271.760062,49.2879493 275.075588,49.6703767 L275.075588,98.4533534 C271.760062,98.070926 268.444536,97.7220449 265.122298,97.40671 L265.122298,48.6237333 L265.122298,48.6237333 Z M210.852366,46.624376 C219.604282,46.4499354 228.362909,46.5103187 237.114825,46.8189443 C238.665203,49.677086 240.208869,52.5486461 241.759247,55.4202063 L241.759247,67.8859979 C240.208869,70.6300823 238.658491,73.3741667 237.108114,76.1316695 C236.014124,76.091414 234.920135,76.0578677 233.832857,76.0310307 C236.477224,82.5926799 239.121591,89.1811661 241.759247,95.7897801 C238.222238,95.6354673 234.685229,95.5147007 231.14822,95.4341897 C228.503853,88.885959 225.859486,82.3578561 223.215119,75.8498809 C222.429862,75.8431717 221.637894,75.8431717 220.852638,75.8431717 L220.852638,95.3134231 C217.523689,95.3067139 214.188028,95.3469694 210.852366,95.4073527 L210.852366,46.624376 L210.852366,46.624376 Z M156.683109,59.2511896 C158.220064,56.2387351 159.76373,53.2262807 161.300684,50.2272447 C168.455241,49.3282048 175.636644,48.590187 182.818047,48.0199005 C184.361714,50.7036016 185.912091,53.4007212 187.462469,56.1045501 L187.462469,88.0338839 C185.912091,90.9524088 184.368425,93.877643 182.818047,96.8095865 C175.629933,97.379873 168.455241,98.1178908 161.300684,99.0169306 C159.757018,96.4003221 158.220064,93.797132 156.683109,91.2006512 L156.683109,59.2511896 L156.683109,59.2511896 Z M107.688489,60.109974 C110.950323,59.3182822 114.212156,58.5534273 117.487413,57.8221188 L117.487413,96.7626217 C122.809705,95.5817932 128.152132,94.488185 133.501271,93.4952156 L133.501271,103.337689 C124.856741,104.94791 116.25248,106.799664 107.688489,108.892951 L107.688489,60.109974 L107.688489,60.109974 Z M59.6402032,74.5885414 C68.0028466,71.5827962 76.4258943,68.8118748 84.9026348,66.2891958 L84.9026348,76.1316695 C79.65417,77.6949254 74.42584,79.3521108 69.2176447,81.1032258 L69.2176447,90.7310035 C72.9358666,89.4830825 76.6742232,88.275417 80.4125798,87.1214255 L80.4125798,96.9638993 C76.6675116,98.1178908 72.9358666,99.318847 69.2176447,100.573477 L69.2176447,120.043729 C66.0162154,121.117209 62.8282093,122.230945 59.6402032,123.371518 L59.6402032,74.5885414 L59.6402032,74.5885414 Z M371.782915,81.1032258 C368.286175,79.9291066 364.782724,78.7952429 361.272562,77.7083439 L361.272562,87.3361216 C364.789436,88.4230206 368.292887,89.5568843 371.782915,90.7310035 L371.782915,81.1032258 L371.782915,81.1032258 Z M177.489044,58.3186035 C173.858072,58.6473569 170.240524,59.023075 166.616265,59.4323394 L166.616265,88.5236593 C170.233813,88.1076857 173.858072,87.7386768 177.489044,87.4099234 L177.489044,58.3186035 L177.489044,58.3186035 Z" id="Shape" fill="#C8102E"></path>
                    <path d="M133.501271,93.5019249 C128.145421,94.5016035 122.809705,95.5885025 117.487413,96.769331 L117.487413,57.828828 C114.218868,58.5534273 110.950323,59.3182822 107.688489,60.1166832 L107.688489,108.906369 C116.25248,106.813082 124.863452,104.961329 133.501271,103.351108 L133.501271,93.5019249 L133.501271,93.5019249 Z M220.852638,75.8364624 C221.637894,75.8364624 222.429862,75.8364624 223.215119,75.8431717 C225.859486,82.3511468 228.503853,88.8792497 231.14822,95.4274804 C234.685229,95.5079915 238.222238,95.628758 241.759247,95.7830708 C239.121591,89.1744569 236.477224,82.5859707 233.832857,76.0243215 C234.926846,76.0511585 236.020836,76.091414 237.108114,76.1249603 C238.658491,73.3674574 240.208869,70.623373 241.759247,67.8792887 L241.759247,55.4134971 C240.215581,52.5419369 238.665203,49.6703767 237.114825,46.812235 C228.362909,46.5036094 219.610994,46.4432261 210.852366,46.6176667 L210.852366,95.4006434 C214.188028,95.3335509 217.516977,95.3000046 220.852638,95.3067139 L220.852638,75.8364624 L220.852638,75.8364624 Z M220.852638,56.3662109 C224.490321,56.3729202 228.128004,56.4131757 231.765686,56.500396 L231.765686,66.1281737 C228.128004,66.0409534 224.490321,65.9939886 220.852638,65.9939886 L220.852638,56.3662109 L220.852638,56.3662109 Z M69.2109331,100.573477 C72.929155,99.3255563 76.6675116,98.1178908 80.4058683,96.9638993 L80.4058683,87.1214255 C76.6608,88.275417 72.929155,89.4763732 69.2109331,90.7310035 L69.2109331,81.1032258 C74.4191284,79.3521108 79.6474584,77.6949254 84.8959232,76.1316695 L84.8959232,66.2891958 C76.4191827,68.8118748 67.996135,71.5827962 59.6334916,74.5885414 L59.6334916,123.371518 C62.8147862,122.224236 66.0095038,121.117209 69.2109331,120.043729 L69.2109331,100.573477 L69.2109331,100.573477 Z M361.272562,97.1785954 C364.789436,98.2722036 368.292887,99.399358 371.782915,100.573477 L371.782915,120.043729 C374.984344,121.117209 378.17235,122.230945 381.353644,123.371518 L381.353644,83.0153628 C379.870383,79.674155 378.393832,76.3396564 376.903859,73.011867 C370.004343,70.6099545 363.071268,68.3690641 356.097924,66.2891958 C354.60124,68.6508527 353.097843,71.0192189 351.594446,73.3942944 L351.594446,113.757159 C354.829434,114.683036 358.050998,115.649168 361.272562,116.642138 L361.272562,97.1785954 L361.272562,97.1785954 Z M361.272562,77.7083439 C364.789436,78.7952429 368.292887,79.9291066 371.782915,81.1032258 L371.782915,90.7310035 C368.286175,89.5568843 364.782724,88.4230206 361.272562,87.3361216 L361.272562,77.7083439 L361.272562,77.7083439 Z M182.818047,96.8028772 C184.361714,93.8709338 185.912091,90.9456996 187.462469,88.0271746 L187.462469,56.0978408 C185.912091,53.394012 184.368425,50.7036016 182.818047,48.0131913 C175.629933,48.5834778 168.455241,49.3214956 161.300684,50.2205354 C159.757018,53.2195714 158.220064,56.2253166 156.683109,59.2444804 L156.683109,91.1872327 C158.220064,93.7837135 159.76373,96.3936128 161.300684,99.0035121 C168.461953,98.1111815 175.636644,97.3731637 182.818047,96.8028772 L182.818047,96.8028772 Z M166.622976,59.4390487 C170.240524,59.023075 173.864784,58.6540661 177.495755,58.3253127 L177.495755,87.4166326 C173.864784,87.745386 170.247236,88.1143949 166.622976,88.5303686 L166.622976,59.4390487 L166.622976,59.4390487 Z M275.0823,49.6703767 C271.766774,49.2879493 268.451247,48.9390682 265.129009,48.6237333 L265.129009,97.4134192 C268.451247,97.7287541 271.766774,98.0776353 275.0823,98.4600627 L275.0823,49.6703767 L275.0823,49.6703767 Z M328.761611,99.3792303 L328.761611,67.4498965 C327.244791,64.2831292 325.72126,61.1297804 324.197729,57.9764316 C315.606891,56.0575853 306.975784,54.3735629 298.317831,52.9377828 L298.317831,101.720759 C306.975784,103.15654 315.606891,104.840562 324.197729,106.759408 C325.72126,104.297113 327.23808,101.834817 328.761611,99.3792303 L328.761611,99.3792303 Z M318.949264,95.7763616 C315.371985,95.018216 311.787995,94.300326 308.197294,93.6294007 L308.197294,64.5380808 C311.787995,65.2157153 315.371985,65.9268961 318.949264,66.6850417 L318.949264,95.7763616 L318.949264,95.7763616 Z M97.788891,294.645322 C97.788891,294.645322 103.607841,285.446937 108.037492,281.226817 L101.822558,263.742504 C99.4869237,261.561997 97.4331766,259.394908 95.5539309,256.95274 C93.8022055,254.678304 92.3122321,252.470959 91.1041456,250.552113 L84.9563275,266.587227 C84.9496159,266.587227 90.620911,282.407645 97.788891,294.645322 L97.788891,294.645322 Z M106.144823,303.883963 C106.144823,303.883963 109.728813,316.269244 120.474071,324.776576 C120.474071,324.776576 136.595315,318.060614 159.884538,315.833142 C159.884538,315.833142 130.024666,303.595465 110.621455,289.868334 C110.628166,289.868334 106.446844,295.229027 106.144823,303.883963 L106.144823,303.883963 Z M192.878724,220.165907 C192.878724,220.165907 182.57643,222.165265 169.784136,222.225648 C163.971898,222.252485 157.642867,221.883476 151.528607,220.736194 L164.663192,226.87516 C174.146671,227.32468 185.261067,227.177077 196.684196,224.486666 C202.134009,219.414471 210.644307,210.162412 215.120939,202.399806 C215.120939,202.399806 215.268594,200.313229 215.120939,197.622818 C214.906168,197.864351 214.15447,198.7701 212.959806,200.138788 C212.060453,201.172013 210.919482,202.466899 209.563741,203.949644 C205.503228,208.404587 199.570181,214.523426 192.878724,220.165907 L192.878724,220.165907 Z M155.112597,298.221354 C155.112597,298.221354 156.186451,296.530622 157.636155,293.719445 C151.944725,288.439263 145.709656,284.568025 145.709656,284.568025 C152.589038,284.373456 158.468392,285.386553 161.153029,285.950131 C161.582571,284.849813 162.005401,283.695822 162.408097,282.501575 C155.636101,277.100626 147.447959,273.262934 147.447959,273.262934 C154.951518,272.162616 162.300711,272.712775 164.877963,272.967727 C165.059176,271.914374 165.206831,270.840893 165.327639,269.767413 C157.240171,264.238989 145.474751,260.985001 145.474751,260.985001 C150.770197,259.267432 155.656235,258.489159 158.777126,258.133569 L152.857502,251.196201 C152.857502,251.196201 146.213026,250.894285 139.051757,251.457862 C129.809895,252.075114 121.339867,253.289488 121.339867,253.289488 C119.930432,254.34955 117.789435,256.046991 116.21221,257.281494 C113.339649,259.851137 112.306064,261.26679 110.467088,263.588191 L110.755686,280.643112 C116.25248,283.206046 137.79669,293.061939 155.112597,298.221354 L155.112597,298.221354 Z" id="Shape" fill="#FFFFFF"></path>
                    <path d="M255.283104,211.135253 C245.135177,203.077441 238.557817,200.890224 238.557817,200.890224 C238.557817,200.890224 239.168572,212.42343 238.269219,216.079973 C228.403179,229.612535 216.637759,242.299732 216.637759,242.299732 L251.920597,226.130433 C253.967632,218.602652 255.283104,211.135253 255.283104,211.135253 L255.283104,211.135253 Z" id="Shape" fill="#041E42"></path>
                    <path d="M246.470784,347.158643 C246.470784,347.158643 249.605097,354.545531 251.618575,365.065639 C253.343454,374.082875 252.511217,379.618008 252.511217,379.618008 C223.85272,346.789634 182.274409,326.581365 182.274409,326.581365 C182.274409,326.581365 239.893424,374.03591 226.758839,435.512793 L226.758839,435.512793 C225.866197,445.663892 220.496924,456.942146 220.496924,456.942146 L220.496924,456.942146 C230.940161,451.52107 240.819624,445.777949 250.16216,439.773168 C265.739764,429.762963 279.834107,419.001322 292.57942,407.70294 L292.57942,407.70294 C276.424618,371.486394 246.470784,347.158643 246.470784,347.158643 L246.470784,347.158643 Z M172.663409,202.446771 L172.663409,202.446771 C188.355111,195.381928 199.805086,192.262125 206.8187,190.886728 C208.375789,190.578103 209.718107,190.363407 210.832232,190.202385 C211.389294,190.121874 211.892663,190.06149 212.34234,190.007816 C214.134335,189.79983 215.0404,189.79983 215.0404,189.79983 L215.0404,189.79983 C194.207619,186.123159 169.508961,195.985761 169.508961,195.985761 L169.508961,195.985761 L171.307668,199.67585 L172.663409,202.446771 L172.663409,202.446771 Z" id="Shape" fill="#FFFFFF"></path>
                </g>
            </g>
        </g>
    </g>
</svg>