<?xml version="1.0" encoding="UTF-8" standalone="no"?>
<svg  viewBox="0 0 500 500" version="1.1" xmlns="http://www.w3.org/2000/svg" xmlns:xlink="http://www.w3.org/1999/xlink">
    <!-- Generator: Sketch 39.1 (31720) - http://www.bohemiancoding.com/sketch -->
    <title>NYR</title>
    <desc>Created with Sketch.</desc>
    <defs>
        <polygon id="path-1" points="0 480 499.273333 480 499.273333 0 0 0"></polygon>
    </defs>
    <g id="Page-1" stroke="none" stroke-width="1" fill="none" fill-rule="evenodd">
        <g id="NYR">
            <g id="Page-1" transform="translate(0.000000, 10.000000)">
                <path d="M444.225333,62.1256667 L444.225333,390.689 C444.225333,408.905667 436.592,430.612333 400.212,430.612333 L302.972,430.612333 C278.262,430.612333 260.655333,444.505667 249.638667,455.545667 C238.622,444.505667 221.018667,430.612333 196.308667,430.612333 L99.062,430.612333 C62.6886667,430.612333 55.0486667,408.905667 55.0486667,390.689 L55.0486667,62.1256667 L29.892,17.4723333 L118.592,17.4723333 L143.705333,41.8923333 L168.815333,17.4723333 L330.462,17.4723333 L355.572,41.8923333 L380.682,17.4723333 L469.385333,17.4723333 L444.225333,62.1256667 L444.225333,62.1256667 Z M374.862,3.14233333 L355.572,21.9023333 L336.278667,3.14233333 L162.995333,3.14233333 L143.705333,21.9023333 L124.412,3.14233333 L5.372,3.14233333 L40.722,65.889 L40.722,390.689 C40.722,407.005667 46.4053333,444.945667 99.062,444.945667 L196.308667,444.945667 C227.532,444.945667 244.875333,468.945667 249.638667,476.535667 C254.402,468.945667 271.745333,444.945667 302.972,444.945667 L400.212,444.945667 C452.872,444.945667 458.555333,407.005667 458.555333,390.689 L458.555333,65.889 L493.902,3.14233333 L374.862,3.14233333 L374.862,3.14233333 Z" id="Fill-1" fill="#FEFEFE"></path>
                <mask id="mask-2" fill="white">
                    <use xlink:href="#path-1"></use>
                </mask>
                <g id="Clip-4"></g>
                <polygon id="Fill-3" fill="#FEFEFE" mask="url(#mask-2)" points="65.8266667 147.84 433.45 147.84 433.45 138.98 65.8266667 138.98"></polygon>
                <path d="M65.827,390.69 C65.827,416.523333 83.587,419.84 99.0603333,419.84 L196.307,419.84 C218.440333,419.84 236.347,431.456667 249.637,442.12 C262.927,431.456667 280.833667,419.84 302.970333,419.84 L338.187,419.84 L65.827,222.586667 L65.827,390.69 Z" id="Fill-5" fill="#FEFEFE" mask="url(#mask-2)"></path>
                <polygon id="Fill-6" fill="#FEFEFE" mask="url(#mask-2)" points="65.827 204.329333 363.403667 419.839333 376.060333 419.839333 65.827 195.162667"></polygon>
                <polygon id="Fill-7" fill="#FEFEFE" mask="url(#mask-2)" points="178.377333 161.129667 433.450667 345.866333 433.450667 336.699667 191.037333 161.129667"></polygon>
                <polygon id="Fill-8" fill="#FEFEFE" mask="url(#mask-2)" points="283.566 336.217333 305.089333 351.807333 311.349333 343.157333 298.636 333.944 308.779333 319.934 321.496 329.144 327.759333 320.490667 315.042667 311.284 325.192667 297.277333 337.906 306.487333 344.169333 297.834 322.649333 282.247333"></polygon>
                <path d="M168.779333,189.629 L165.069333,194.749 C163.592667,196.789 160.742667,197.245667 158.702667,195.772333 L149.406,189.035667 L158.466,176.529 L167.759333,183.262333 C169.799333,184.739 170.256,187.589 168.779333,189.629 M175.832667,175.922333 L155.926,161.502333 L116.842667,215.472333 L125.646,221.852333 L143.142667,197.689 L148.052667,201.242333 L139.799333,232.099 L148.602667,238.472333 L156.959333,207.242333 C162.472667,209.522333 169.026,207.822333 172.682667,202.779 L178.782667,194.355667 C183.056,188.452333 181.736,180.199 175.832667,175.922333" id="Fill-9" fill="#FEFEFE" mask="url(#mask-2)"></path>
                <path d="M359.8,322.340667 L369.093333,329.074 C371.136667,330.550667 371.59,333.397333 370.113333,335.440667 L366.403333,340.560667 C364.926667,342.600667 362.076667,343.057333 360.036667,341.580667 L350.74,334.847333 L359.8,322.340667 Z M349.936667,384.284 L358.293333,353.057333 C363.806667,355.330667 370.356667,353.634 374.016667,348.590667 L380.116667,340.167333 C384.39,334.264 383.07,326.010667 377.166667,321.730667 L357.26,307.314 L318.173333,361.284 L326.98,367.664 L344.476667,343.500667 L349.386667,347.054 L341.13,377.910667 L349.936667,384.284 Z" id="Fill-10" fill="#FEFEFE" mask="url(#mask-2)"></path>
                <polygon id="Fill-11" fill="#FEFEFE" mask="url(#mask-2)" points="237.918333 220.888667 198.831667 274.852 207.638333 281.232 231.101667 248.832 221.791667 291.478667 230.591667 297.858667 269.678333 243.885333 260.871667 237.508667 237.408333 269.905333 246.725 227.258667"></polygon>
                <path d="M192.43,242.002 L181.81,234.312 L201.16,218.768667 L192.43,242.002 Z M154.533333,242.768667 L163.34,249.148667 L174.46,240.218667 L189.11,250.828667 L184.096667,264.175333 L192.9,270.552 L217.203333,205.888667 L208.403333,199.508667 L154.533333,242.768667 Z" id="Fill-12" fill="#FEFEFE" mask="url(#mask-2)"></path>
                <path d="M299.853667,265.739 L292.477,260.395667 C286.573667,256.122333 278.317,257.442333 274.043667,263.342333 L250.443667,295.932333 C246.167,301.835667 247.487,310.085667 253.393667,314.362333 L260.767,319.705667 C262.647,321.065667 264.767,321.862333 266.917,322.119 L266.760333,324.049 L271.460333,327.452333 L292.357,298.589 L275.210333,286.175667 L269.880333,293.539 L278.220333,299.575667 L271.590333,308.725667 C270.113667,310.769 267.263667,311.225667 265.223667,309.745667 L261.463667,307.025667 C259.427,305.542333 258.967,302.695667 260.443667,300.655667 L281.650333,271.375667 C283.127,269.332333 285.980333,268.875667 288.020333,270.359 L291.780333,273.079 C293.820333,274.559 294.273667,277.405667 292.797,279.449 L287.630333,286.585667 L296.437,292.965667 L302.800333,284.172333 C307.077,278.265667 305.757,270.019 299.853667,265.739" id="Fill-13" fill="#FEFEFE" mask="url(#mask-2)"></path>
                <path d="M409.975667,345.491667 C401.919,339.655 390.652333,341.455 384.819,349.515 C374.235667,364.128333 394.662333,381.861667 389.105667,389.541667 C386.502333,393.135 381.475667,393.938333 377.882333,391.335 C374.282333,388.735 373.479,383.708333 376.085667,380.111667 L378.625667,376.598333 L369.822333,370.221667 L367.389,373.578333 C361.265667,382.038333 363.155667,393.861667 371.615667,399.985 C380.072333,406.105 391.895667,404.218333 398.022333,395.761667 C408.502333,381.288333 388.085667,363.538333 393.735667,355.738333 C396.045667,352.545 400.515667,351.828333 403.712333,354.148333 C406.905667,356.455 407.622333,360.921667 405.305667,364.121667 L403.192333,367.028333 L411.999,373.408333 L413.995667,370.648333 C419.835667,362.591667 418.032333,351.325 409.975667,345.491667" id="Fill-14" fill="#FEFEFE" mask="url(#mask-2)"></path>
                <polygon id="Fill-15" fill="#FEFEFE" mask="url(#mask-2)" points="149.378333 117.213667 133.678333 117.213667 133.678333 99.917 149.378333 99.917 149.378333 89.2336667 133.678333 89.2336667 133.678333 71.9403333 149.378333 71.9403333 149.378333 61.257 122.805 61.257 122.805 127.893667 149.378333 127.893667"></polygon>
                <path d="M347.389333,71.94 L358.866,71.94 C361.386,71.94 363.422667,73.9833333 363.422667,76.4966667 L363.422667,82.82 C363.422667,85.3433333 361.386,87.3833333 358.866,87.3833333 L347.389333,87.3833333 L347.389333,71.94 Z M347.389333,98.06 L353.449333,98.06 L364.862667,127.893333 L375.732667,127.893333 L364.182667,97.6966667 C369.986,96.3066667 374.296,91.0933333 374.296,84.86 L374.296,74.46 C374.296,67.1666667 368.386,61.2566667 361.099333,61.2566667 L336.512667,61.2566667 L336.512667,127.893333 L347.389333,127.893333 L347.389333,98.06 Z" id="Fill-16" fill="#FEFEFE" mask="url(#mask-2)"></path>
                <polygon id="Fill-17" fill="#FEFEFE" mask="url(#mask-2)" points="80.1643333 87.8906667 97.6343333 127.894 108.514333 127.894 108.514333 61.2573333 97.6343333 61.2573333 97.6343333 101.264 80.1643333 61.2573333 69.2943333 61.2573333 69.2943333 127.894 80.1643333 127.894"></polygon>
                <path d="M302.518,76.4973333 C302.518,73.984 304.561333,71.9406667 307.074667,71.9406667 L311.721333,71.9406667 C314.238,71.9406667 316.278,73.984 316.278,76.4973333 L316.278,112.657333 C316.278,115.174 314.238,117.214 311.721333,117.214 L307.074667,117.214 C304.561333,117.214 302.518,115.174 302.518,112.657333 L302.518,76.4973333 Z M304.848,127.894 L313.951333,127.894 C321.241333,127.894 327.154667,121.980667 327.154667,114.690667 L327.154667,74.4606667 C327.154667,67.1673333 321.241333,61.2573333 313.951333,61.2573333 L304.848,61.2573333 C297.554667,61.2573333 291.644667,67.1673333 291.644667,74.4606667 L291.644667,114.690667 C291.644667,121.980667 297.554667,127.894 304.848,127.894 L304.848,127.894 Z" id="Fill-18" fill="#FEFEFE" mask="url(#mask-2)"></path>
                <polygon id="Fill-19" fill="#FEFEFE" mask="url(#mask-2)" points="398.572667 100.306 403.452667 92.476 419.109333 127.892667 429.982667 127.892667 409.819333 82.2726667 422.929333 61.256 412.056 61.256 398.572667 82.8726667 398.572667 61.256 387.702667 61.256 387.702667 127.892667 398.572667 127.892667"></polygon>
                <polygon id="Fill-20" fill="#FEFEFE" mask="url(#mask-2)" points="260.467333 127.894 271.340667 127.894 271.340667 100.307333 285.694 61.2573333 274.820667 61.2573333 265.900667 85.5206667 256.984 61.2573333 246.110667 61.2573333 260.467333 100.307333"></polygon>
                <polygon id="Fill-21" fill="#FEFEFE" mask="url(#mask-2)" points="183.579333 127.894 189.279333 92.9673333 194.979333 127.894 207.986 127.894 218.859333 61.2573333 207.986 61.2573333 201.482667 101.120667 194.979333 61.2573333 183.579333 61.2573333 177.076 101.120667 170.572667 61.2573333 159.699333 61.2573333 170.572667 127.894"></polygon>
                <polygon id="Fill-22" fill="#E21836" mask="url(#mask-2)" points="216.251667 161.129667 433.451667 318.429667 433.451667 161.129667"></polygon>
                <path d="M458.556333,390.69 C458.556333,407.006667 452.873,444.943333 400.213,444.943333 L302.973,444.943333 C271.746333,444.943333 254.403,468.946667 249.636333,476.536667 C244.876333,468.946667 227.529667,444.943333 196.306333,444.943333 L99.0596667,444.943333 C46.4063333,444.943333 40.723,407.006667 40.723,390.69 L40.723,65.89 L5.373,3.14 L124.409667,3.14 L143.706333,21.9 L162.996333,3.14 L336.279667,3.14 L355.573,21.9 L374.863,3.14 L493.903,3.14 L458.556333,65.89 L458.556333,390.69 Z M461.696333,66.71 L499.273,0 L373.586333,0 L355.573,17.5266667 L337.556333,0 L161.723,0 L143.706333,17.5266667 L125.683,0 L-0.000333333333,0 L37.583,66.71 L37.583,390.69 C37.583,397.21 37.5863333,448.083333 99.0596667,448.083333 L196.306333,448.083333 C231.216333,448.083333 248.239667,480 248.239667,480 L251.036333,480 C251.036333,480 268.056333,448.083333 302.973,448.083333 L400.213,448.083333 C461.686333,448.083333 461.696333,397.21 461.696333,390.69 L461.696333,66.71 Z" id="Fill-23" fill="#005CA9" mask="url(#mask-2)"></path>
                <path d="M65.8266667,147.84 L433.45,147.84 L433.45,138.98 L65.8266667,138.98 L65.8266667,147.84 Z M433.45,318.43 L216.253333,161.13 L433.45,161.13 L433.45,318.43 Z M433.45,345.866667 L178.376667,161.13 L191.04,161.13 L433.45,336.7 L433.45,345.866667 Z M413.996667,370.646667 L412,373.41 L403.193333,367.026667 L405.306667,364.12 C407.62,360.92 406.906667,356.453333 403.71,354.146667 C400.513333,351.83 396.046667,352.546667 393.736667,355.74 C388.086667,363.536667 408.503333,381.29 398.023333,395.763333 C391.893333,404.22 380.07,406.106667 371.613333,399.983333 C363.156667,393.86 361.263333,382.036667 367.39,373.576667 L369.823333,370.22 L378.623333,376.6 L376.083333,380.11 C373.48,383.706667 374.283333,388.733333 377.88,391.333333 C381.473333,393.94 386.5,393.133333 389.106667,389.54 C394.663333,381.863333 374.236667,364.126667 384.82,349.513333 C390.653333,341.453333 401.916667,339.653333 409.976667,345.493333 C418.033333,351.323333 419.833333,362.59 413.996667,370.646667 L413.996667,370.646667 Z M178.783333,194.356667 L172.683333,202.78 C169.026667,207.823333 162.473333,209.52 156.96,207.243333 L148.603333,238.473333 L139.796667,232.1 L148.053333,201.243333 L143.143333,197.69 L125.646667,221.853333 L116.84,215.473333 L155.926667,161.503333 L175.833333,175.92 C181.736667,180.2 183.056667,188.453333 178.783333,194.356667 L178.783333,194.356667 Z M192.9,270.553333 L184.096667,264.176667 L189.11,250.83 L174.46,240.216667 L163.34,249.146667 L154.533333,242.77 L208.403333,199.506667 L217.203333,205.89 L192.9,270.553333 Z M302.8,284.173333 L296.436667,292.966667 L287.63,286.586667 L292.796667,279.45 C294.273333,277.406667 293.82,274.56 291.78,273.08 L288.02,270.356667 C285.983333,268.876667 283.126667,269.333333 281.65,271.376667 L260.443333,300.653333 C258.97,302.696667 259.426667,305.543333 261.463333,307.023333 L265.223333,309.746667 C267.263333,311.226667 270.113333,310.766667 271.59,308.726667 L278.22,299.576667 L269.88,293.536667 L275.21,286.173333 L292.356667,298.59 L271.46,327.45 L266.76,324.05 L266.916667,322.12 C264.766667,321.863333 262.646667,321.063333 260.766667,319.706667 L253.396667,314.363333 C247.486667,310.083333 246.166667,301.836667 250.443333,295.93 L274.043333,263.343333 C278.316667,257.44 286.573333,256.123333 292.476667,260.396667 L299.853333,265.74 C305.76,270.02 307.076667,278.263333 302.8,284.173333 L302.8,284.173333 Z M337.906667,306.486667 L325.193333,297.28 L315.043333,311.283333 L327.76,320.493333 L321.496667,329.143333 L308.78,319.933333 L298.633333,333.946667 L311.35,343.156667 L305.086667,351.806667 L283.566667,336.216667 L322.65,282.246667 L344.17,297.836667 L337.906667,306.486667 Z M344.476667,343.5 L326.98,367.663333 L318.173333,361.283333 L357.26,307.313333 L377.166667,321.733333 C383.07,326.01 384.39,334.263333 380.116667,340.166667 L374.016667,348.59 C370.356667,353.633333 363.806667,355.333333 358.293333,353.056667 L349.936667,384.283333 L341.13,377.91 L349.386667,347.053333 L344.476667,343.5 Z M260.873333,237.51 L269.676667,243.886667 L230.593333,297.856667 L221.79,291.476667 L231.103333,248.83 L207.64,281.23 L198.833333,274.85 L237.92,220.89 L246.723333,227.26 L237.41,269.906667 L260.873333,237.51 Z M363.403333,419.84 L65.8266667,204.33 L65.8266667,195.163333 L376.06,419.84 L363.403333,419.84 Z M302.973333,419.84 C280.836667,419.84 262.926667,431.456667 249.636667,442.12 C236.346667,431.456667 218.44,419.84 196.306667,419.84 L99.06,419.84 C83.5866667,419.84 65.8266667,416.523333 65.8266667,390.69 L65.8266667,222.586667 L338.19,419.84 L302.973333,419.84 Z M69.2933333,61.2566667 L80.1633333,61.2566667 L97.6333333,101.263333 L97.6333333,61.2566667 L108.513333,61.2566667 L108.513333,127.893333 L97.6333333,127.893333 L80.1633333,87.89 L80.1633333,127.893333 L69.2933333,127.893333 L69.2933333,61.2566667 Z M122.803333,61.2566667 L149.38,61.2566667 L149.38,71.94 L133.68,71.94 L133.68,89.2333333 L149.38,89.2333333 L149.38,99.9166667 L133.68,99.9166667 L133.68,117.213333 L149.38,117.213333 L149.38,127.893333 L122.803333,127.893333 L122.803333,61.2566667 Z M170.573333,61.2566667 L177.076667,101.12 L183.58,61.2566667 L194.98,61.2566667 L201.483333,101.12 L207.986667,61.2566667 L218.86,61.2566667 L207.986667,127.893333 L194.98,127.893333 L189.28,92.97 L183.58,127.893333 L170.573333,127.893333 L159.7,61.2566667 L170.573333,61.2566667 Z M256.983333,61.2566667 L265.903333,85.52 L274.82,61.2566667 L285.696667,61.2566667 L271.34,100.306667 L271.34,127.893333 L260.466667,127.893333 L260.466667,100.306667 L246.11,61.2566667 L256.983333,61.2566667 Z M291.643333,74.46 C291.643333,67.1666667 297.556667,61.2566667 304.846667,61.2566667 L313.95,61.2566667 C321.243333,61.2566667 327.153333,67.1666667 327.153333,74.46 L327.153333,114.69 C327.153333,121.983333 321.243333,127.893333 313.95,127.893333 L304.846667,127.893333 C297.556667,127.893333 291.643333,121.983333 291.643333,114.69 L291.643333,74.46 Z M336.513333,61.2566667 L361.1,61.2566667 C368.386667,61.2566667 374.296667,67.1666667 374.296667,74.46 L374.296667,84.86 C374.296667,91.0933333 369.986667,96.3066667 364.18,97.6966667 L375.733333,127.893333 L364.863333,127.893333 L353.45,98.06 L347.39,98.06 L347.39,127.893333 L336.513333,127.893333 L336.513333,61.2566667 Z M387.703333,61.2566667 L398.573333,61.2566667 L398.573333,82.87 L412.056667,61.2566667 L422.93,61.2566667 L409.82,82.2733333 L429.983333,127.893333 L419.11,127.893333 L403.453333,92.4766667 L398.573333,100.306667 L398.573333,127.893333 L387.703333,127.893333 L387.703333,61.2566667 Z M380.683333,17.47 L355.573333,41.89 L330.46,17.47 L168.816667,17.47 L143.703333,41.89 L118.593333,17.47 L29.8933333,17.47 L55.05,62.1266667 L55.05,390.69 C55.05,408.906667 62.6866667,430.613333 99.06,430.613333 L196.306667,430.613333 C221.016667,430.613333 238.62,444.506667 249.636667,455.546667 C260.656667,444.506667 278.263333,430.613333 302.973333,430.613333 L400.213333,430.613333 C436.59,430.613333 444.226667,408.906667 444.226667,390.69 L444.226667,62.1266667 L469.386667,17.47 L380.683333,17.47 Z" id="Fill-24" fill="#005CA9" mask="url(#mask-2)"></path>
                <path d="M307.075333,117.213667 L311.722,117.213667 C314.235333,117.213667 316.278667,115.173667 316.278667,112.657 L316.278667,76.497 C316.278667,73.9836667 314.235333,71.9403333 311.722,71.9403333 L307.075333,71.9403333 C304.562,71.9403333 302.518667,73.9836667 302.518667,76.497 L302.518667,112.657 C302.518667,115.173667 304.562,117.213667 307.075333,117.213667" id="Fill-25" fill="#005CA9" mask="url(#mask-2)"></path>
                <polygon id="Fill-26" fill="#005CA9" mask="url(#mask-2)" points="192.43 242.002 201.16 218.768667 181.81 234.312"></polygon>
                <path d="M366.403,340.56 L370.113,335.44 C371.589667,333.4 371.136333,330.55 369.093,329.073333 L359.799667,322.34 L350.739667,334.846667 L360.036333,341.583333 C362.076333,343.056667 364.926333,342.6 366.403,340.56" id="Fill-27" fill="#005CA9" mask="url(#mask-2)"></path>
                <path d="M167.760333,183.261667 L158.467,176.528333 L149.407,189.035 L158.700333,195.771667 C160.743667,197.245 163.593667,196.791667 165.070333,194.748333 L168.780333,189.628333 C170.257,187.588333 169.797,184.738333 167.760333,183.261667" id="Fill-28" fill="#005CA9" mask="url(#mask-2)"></path>
                <path d="M363.423,82.819 L363.423,76.499 C363.423,73.9856667 361.386333,71.939 358.866333,71.939 L347.389667,71.939 L347.389667,87.3823333 L358.866333,87.3823333 C361.386333,87.3823333 363.423,85.3423333 363.423,82.819" id="Fill-29" fill="#005CA9" mask="url(#mask-2)"></path>
            </g>
        </g>
    </g>
</svg>