<?xml version="1.0" encoding="UTF-8" standalone="no"?>
<svg viewBox="0 0 500 500" version="1.1" xmlns="http://www.w3.org/2000/svg" xmlns:xlink="http://www.w3.org/1999/xlink">
    <!-- Generator: Sketch 39.1 (31720) - http://www.bohemiancoding.com/sketch -->
    <title>DET</title>
    <desc>Created with Sketch.</desc>
    <defs>
        <polygon id="path-1" points="0.000396825397 371.015957 500 371.015957 500 0.791632979 0.000396825397 0.791632979"></polygon>
    </defs>
    <g id="Page-1" stroke="none" stroke-width="1" fill="none" fill-rule="evenodd">
        <g id="DET">
            <g id="Page-1" transform="translate(0.000000, 63.000000)">
                <path d="M460.03254,126.417636 C433.95119,148.172663 395.931349,167.029003 343.300397,166.009205 C340.721032,165.904051 339.058333,161.479636 336.429365,159.914227 C334.284524,158.636503 331.113889,159.072993 328.324206,158.658328 C327.250794,158.499604 327.090079,156.424296 327.79246,156.202083 C332.141667,154.787461 336.790476,155.333072 341.449206,154.559296 C343.560317,154.212088 343.699206,151.495934 345.209127,150.825328 C351.330159,148.105205 358.171429,149.061514 364.818254,148.42662 C366.469048,148.267897 365.637698,145.297785 366.768651,144.78987 C369.213095,143.702615 371.776587,145.625152 374.445238,146.27195 C376.78254,146.837402 376.800397,143.266126 378.002778,143.607381 C382.754762,144.944626 384.740873,143.841498 388.119841,141.095583 C388.742857,140.5837 390.217063,141.061854 391.262698,141.333668 C392.340079,141.613418 394.06627,142.244344 394.629762,140.849562 C398.236905,131.957083 407.774603,140.518227 413.290476,138.796078 C414.730952,138.343716 412.433333,135.895407 413.550397,135.167264 C417.385714,132.669354 421.965079,135.980721 425.885714,134.135562 C427.37381,133.433211 425.943254,131.217035 426.766667,130.296439 C428.040476,128.863961 430.276587,130.784514 431.90754,130.000817 C433.119841,129.417509 435.143651,128.752854 436.080159,128.727062 C440.580159,128.590163 443.703175,126.475173 448.12381,125.76687 C448.81627,125.65378 449.254762,124.457402 449.982937,124.288759 C453.41746,123.481253 459.613889,124.596285 460.03254,124.848259 C460.530556,125.149833 461.062302,125.518865 460.03254,126.417636 L460.03254,126.417636 Z M430.562302,163.396221 C432.734921,163.898184 436.770635,164.743386 436.105952,165.287014 C401.980952,193.262014 357.885714,198.618929 316.905556,199.043514 C312.875794,193.670727 306.125794,191.371221 300.242857,188.043982 C299.889683,187.855498 299.90754,186.238503 300.228968,186.077796 C305.040476,183.702897 310.399603,184.625477 315.66746,183.823923 C317.621825,183.524333 318.161508,180.651439 319.973016,180.10186 C326.070238,178.23686 332.020635,175.887753 338.480952,176.159567 C343.909524,176.383764 349.207143,176.842078 354.643651,176.576216 C356.252778,176.496854 355.574206,173.24104 357.105952,172.959306 C363.163492,171.848243 368.879762,174.244966 374.984921,173.01486 C376.211111,172.768838 376.50873,170.326482 377.010714,170.122126 C383.65754,167.427796 391.393651,169.693572 398.40754,167.284945 C397.697222,166.640131 396.601984,165.67787 397.361905,165.080673 C398.54246,164.160078 400.625794,164.634264 401.953175,164.771163 C404.742857,165.058849 407.925397,165.419945 410.641667,163.418046 C412.455159,162.080801 415.355952,164.086668 417.484921,163.388285 C419.725,162.650221 421.830159,161.307024 424.119841,162.058977 C426.695238,162.908147 428.437302,162.908147 430.562302,163.396221 L430.562302,163.396221 Z M308.433333,224.103955 C290.435317,224.103955 273.933333,219.316461 273.933333,219.316461 C272.78254,219.022822 275.859921,216.755062 277.476984,216.179689 C282.824206,214.278977 288.66746,213.917881 294.03254,211.967567 C295.155556,211.558854 296.054365,209.852578 296.893651,208.993487 C299.084127,206.761439 302.879762,206.047184 305.740873,205.190078 C314.512698,202.569157 323.744841,205.543237 333.072222,206.912227 C336.786508,207.461806 340.296429,207.854647 343.959127,208.943886 C344.423413,209.080785 345.984921,208.461764 346.145635,207.420141 C346.324206,206.199955 346.346032,204.696051 347.473016,204.664306 C350.427381,204.586929 353.651587,205.77537 356.338095,204.72978 C359.776587,203.388567 363.57619,204.325035 367.238889,203.803232 C368.213095,203.668317 367.469048,202.275519 368.445238,202.04537 C372.177381,201.162471 376.090079,202.900493 379.461111,201.335083 C382.018651,200.142673 387.713095,203.646493 388.81627,205.03929 C369.494841,215.580509 343.082143,224.103955 308.433333,224.103955 L308.433333,224.103955 Z M341.445238,240.904828 C303.28254,250.8052 271.338095,243.440434 251.596032,236.752227 C250.687302,236.498269 250.828175,235.317764 251.078175,235.174913 C253.197222,233.980519 255.875794,234.649141 258.137698,233.708705 C259.340079,233.210711 259.607937,231.58578 260.65754,230.944934 C262.048413,230.097748 265.155556,230.198934 266.488889,229.397381 C268.443254,228.230764 268.992857,226.837966 270.923413,225.691189 C272.689286,224.641631 274.885714,226.379652 277.437302,225.838009 C282.605952,224.748769 286.334127,229.321987 291.153571,230.724705 C293.084127,231.288173 294.778571,229.585865 296.486905,229.857679 C298.431349,230.161237 299.925397,231.950844 301.937302,232.540104 C303.492857,232.99445 304.629762,233.053971 306.246825,232.264322 C308.514683,231.169131 310.744841,234.21662 313.266667,233.62736 C314.129762,233.423003 314.105952,231.635381 315.115873,231.554035 C319.205159,231.224684 321.877778,235.545929 325.887698,235.468551 C326.298413,235.464583 326.63373,234.661046 327.121825,234.472562 C329.24881,233.659104 331.228968,235.534024 333.790476,234.772152 C336.931349,233.839652 339.814286,236.313753 341.909524,238.736269 C342.861905,239.839397 342.615873,240.539764 341.445238,240.904828 L341.445238,240.904828 Z M294.695238,262.467402 C296.098016,263.536801 296.832143,265.322439 296.357937,265.46529 C275.53254,270.12779 238.147619,265.15578 213.937302,249.801274 C212.379762,248.84695 210.010714,248.489822 209.780556,246.372849 C209.754762,246.126828 210.215079,245.420509 210.318254,245.370907 C213.695238,243.684471 217.506746,246.085163 220.95119,244.978067 C222.161508,244.597131 223.024603,242.51587 224.00873,242.529759 C226.53254,242.569439 229.272619,243.490035 231.57619,241.767886 C233.278571,240.498099 235.772619,241.382982 237.558333,242.218264 C239.925397,243.32536 243.750794,248.585056 246.750794,247.985876 C247.582143,247.819216 252.574206,246.821243 253.411508,247.319237 C258.082143,250.120705 265.647619,255.672056 270.887698,255.973631 C271.90754,256.033152 272.586111,252.95987 273.887698,253.644365 C277.048413,255.308977 279.103968,257.654115 281.707143,258.142189 C282.560317,258.300913 284.080159,256.975572 285.060317,257.120407 C286.973016,257.408094 288.090079,258.822716 290.197222,260.302812 C291.094048,260.933737 293.240873,261.354354 294.695238,262.467402 L294.695238,262.467402 Z M256.357937,282.111407 C222.788492,282.897088 192.221032,263.348317 170.195238,237.29387 C169.881746,236.926822 169.844048,235.690764 170.663492,235.748301 C174.530556,236.016147 177.556349,238.531913 180.992857,240.117163 C184.738889,241.835344 188.986905,246.983934 192.846032,243.968189 C193.635714,243.35512 193.171429,242.126998 194.006746,242.349211 C199.060317,243.690423 202.570238,247.926354 206.238889,251.576993 C209.387698,254.7217 211.036508,259.152067 215.12381,261.138094 C216.903571,261.997184 218.238889,257.96561 219.635714,259.181828 C222.703175,261.862269 224.828175,264.508982 228.103968,266.963243 C229.467063,267.98304 230.278571,264.889918 230.838095,264.635961 C232.270635,263.965354 235.596032,267.296562 237.260714,268.627854 C239.353968,270.302386 241.619841,272.548322 244.252778,274.1177 C245.552381,274.895445 246.707143,273.022509 247.91746,273.518519 C249.87381,274.322056 251.746825,275.504546 253.881746,276.101743 C255.205159,276.46879 256.375794,279.280179 257.421429,280.559886 C258.726984,282.178865 257.135714,282.091567 256.357937,282.111407 L256.357937,282.111407 Z M129.721032,358.885918 C65.9988095,358.885918 14.2468254,307.683732 13.3420635,244.178498 C13.8896825,245.243929 15.2428571,247.581131 16.6456349,247.581131 C18.0027778,247.581131 18.334127,245.622881 19.3599206,245.622881 C20.2765873,245.622881 21.0821429,246.98195 22.225,246.98195 C23.1257937,246.98195 23.3361111,245.950248 23.8103175,245.950248 C23.9849206,245.950248 24.2071429,246.03953 24.4710317,246.03953 C26.6753968,246.03953 26.927381,243.601141 28.7031746,243.601141 C31.552381,243.601141 29.3936508,248.912423 33.2924603,248.912423 C38.2111111,248.912423 37.4095238,241.976211 40.1833333,237.766072 C40.1019841,239.331482 40.0603175,240.906812 40.0603175,242.492062 C40.0603175,292.007812 80.2031746,332.148961 129.721032,332.148961 C160.500794,332.148961 187.649603,316.637716 203.796429,293.007769 C211.375794,295.198152 218.445238,296.03145 223.915476,294.723966 C223.915476,294.723966 212.828175,283.533966 212.026587,275.752551 C212.026587,275.752551 224.506746,282.41695 237.560317,286.365195 C220.236905,328.901083 178.482937,358.885918 129.721032,358.885918 L129.721032,358.885918 Z M129.721032,126.098205 C146.40754,126.098205 162.266667,129.615913 176.613889,135.939056 C175.31627,138.442918 174.19127,140.855514 173.223016,143.190732 C159.90754,137.349711 145.193254,134.099849 129.721032,134.099849 C82.3718254,134.099849 42.1178571,164.463636 27.3539683,206.777312 C25.4214286,204.104806 27.5642857,200.216083 24.8738095,197.993955 C23.7448413,197.057487 22.6873016,199.624838 21.7309524,198.995897 C38.9611111,156.261604 80.8162698,126.098205 129.721032,126.098205 L129.721032,126.098205 Z M267.207143,66.5650245 L313.002778,66.5650245 C421.506746,66.5650245 448.082143,38.6693862 465.895635,22.6938755 C467.45119,21.3129819 468.449206,21.6363809 467.635714,23.1998064 C453.526587,49.1213223 417.709127,78.3760298 335.895635,78.3760298 L271.853968,78.3760298 C208.806349,78.3760298 184.403571,100.875072 171.598016,123.933615 C168.125794,122.709461 164.588095,121.626173 160.980952,120.70161 C168.062302,99.039833 195.181349,66.5650245 267.207143,66.5650245 L267.207143,66.5650245 Z M158.280556,257.003349 C155.413492,253.803088 155.306349,249.063211 157.181349,245.333211 C158.328175,243.04561 162.07619,240.347312 163.580159,242.037716 C165.07619,243.712248 165.788492,246.49586 167.010714,248.152535 C167.988889,249.473907 169.490873,249.640567 170.50873,251.150423 C171.526587,252.658296 172.510714,255.39429 173.836111,256.47361 C174.812302,257.273179 176.131746,257.626338 177.028571,258.610423 C177.713095,259.370312 177.85,260.515104 178.49881,261.138094 C179.135714,261.743227 180.278571,261.832509 180.994841,262.467402 C182.240873,263.574498 183.125794,266.219227 184.655556,266.631907 C185.514683,266.856104 186.899603,265.945429 187.613889,266.36803 C188.933333,267.153711 190.04246,268.227078 191.080159,269.393695 C192.193254,270.643641 193.225,272.006679 194.348016,273.256626 C195.363889,274.381578 196.348016,276.020397 197.641667,276.786237 C198.558333,277.321929 200.338095,275.945003 201.072222,276.554104 C202.024603,277.331849 202.484921,279.361524 203.469048,279.950785 C204.806349,280.736466 206.74881,280.006338 207.502778,281.373344 C208.447222,283.085572 210.094048,287.021913 211.661508,289.269833 C190.695238,285.821567 172.38373,272.756647 158.280556,257.003349 L158.280556,257.003349 Z M167.429365,178.161466 C156.365873,171.663727 143.480952,167.931743 129.721032,167.931743 C88.5404762,167.931743 55.1555556,201.313259 55.1555556,242.492062 C55.1555556,283.670865 88.5404762,317.052381 129.721032,317.052381 C154.004762,317.052381 175.574206,305.441764 189.19127,287.474274 C192.431349,288.96429 195.699206,290.303519 198.91746,291.438391 C183.56627,313.104136 158.294444,327.244407 129.721032,327.244407 C82.9134921,327.244407 44.9670635,289.299594 44.9670635,242.492062 C44.9670635,195.68453 82.9134921,157.7417 129.721032,157.7417 C143.338095,157.7417 156.20119,160.957833 167.601984,166.663939 C167.310317,170.667737 167.32619,174.471147 167.429365,178.161466 L167.429365,178.161466 Z M148.38373,203.176274 L166.911508,184.956812 C167.171429,185.125455 167.427381,185.304019 167.687302,185.476631 C167.746825,187.266237 167.790476,189.043939 167.790476,190.819657 C167.790476,198.0257 165.395635,206.440024 162.536508,213.921849 C158.627778,209.437913 153.818254,205.759498 148.38373,203.176274 L148.38373,203.176274 Z M138.026587,267.328306 C140.344048,266.556514 142.512698,265.471243 144.488889,264.12011 L144.423413,272.099929 L138.026587,267.328306 Z M115.173413,283.508173 C115.619841,283.668881 116.070238,283.821652 116.524603,283.964503 L120.371825,310.358221 C111.671429,309.173748 103.492857,306.352439 96.1496032,302.215711 L115.173413,283.508173 Z M93.3123016,266.318429 C97.6793651,272.974891 103.814286,278.367519 111.058333,281.807849 L92.5325397,300.03128 C87.0186508,296.458019 82.0484127,292.118918 77.7785714,287.156828 L93.3123016,266.318429 Z M90.4253968,261.209519 C90.631746,261.638072 90.8519841,262.056705 91.068254,262.477322 L75.1198413,283.867285 C69.9928571,277.109636 66.0880952,269.373854 63.7428571,260.985322 L90.4253968,261.209519 Z M87.115873,233.597599 C86.5186508,236.470493 86.2031746,239.444572 86.2031746,242.492062 C86.2031746,247.616844 87.0960317,252.533301 88.7230159,257.098583 L62.7329365,256.880338 C61.7388889,252.241647 61.2150794,247.430344 61.2150794,242.492062 C61.2150794,240.759993 61.2785714,239.04578 61.4055556,237.343471 L87.115873,233.597599 Z M88.7031746,227.945062 C88.5464286,228.391471 88.3916667,228.841849 88.2468254,229.294211 L61.8519841,233.141269 C63.0384921,224.441243 65.8599206,216.263019 69.9948413,208.920078 L88.7031746,227.945062 Z M105.893651,206.084881 C99.2369048,210.449774 93.8460317,216.586418 90.4015873,223.830157 L72.1813492,205.303168 C75.7527778,199.78753 80.0940476,194.821471 85.0563492,190.549828 L105.893651,206.084881 Z M111.004762,203.198099 C110.57619,203.404439 110.155556,203.622684 109.734921,203.838945 L88.3460317,187.893195 C95.1019841,182.764445 102.840079,178.863817 111.226984,176.514711 L111.004762,203.198099 Z M103.544444,243.031721 C103.560317,243.872955 103.617857,244.702285 103.711111,245.521695 L95.0404762,257.152152 L93.6297619,257.140248 C91.7924603,252.614647 90.7706349,247.676365 90.7706349,242.492062 C90.7706349,239.180695 91.1873016,235.962578 91.9670635,232.89128 L93.3678571,232.684939 L103.544444,243.031721 Z M94.8321429,228.333934 L93.8361111,227.320088 C97.0821429,219.647796 102.725,213.237354 109.820238,209.011344 L110.949206,209.854562 L110.828175,224.365849 C110.254762,224.96503 109.707143,225.590003 109.189286,226.240769 L94.8321429,228.333934 Z M103.986905,237.645046 L98.3916667,231.950844 L106.286508,230.804067 C105.221032,232.932945 104.437302,235.230466 103.986905,237.645046 L103.986905,237.645046 Z M104.88373,250.797264 C105.659524,253.110657 106.740873,255.285168 108.092063,257.25929 L100.115873,257.193817 L104.88373,250.797264 Z M115.564286,277.38145 L114.550397,278.375455 C106.875794,275.129562 100.465079,269.486945 96.2388889,262.393993 L97.0801587,261.265072 L111.594048,261.384115 C112.193254,261.959487 112.818254,262.505099 113.471032,263.022934 L115.564286,277.38145 Z M121.415476,217.655817 C119.1,218.429594 116.929365,219.514865 114.953175,220.865998 L115.020635,212.888163 L121.415476,217.655817 Z M142.921429,201.021604 L139.074206,174.625902 C147.774603,175.81236 155.953175,178.633668 163.294444,182.768413 L144.268651,201.47595 C143.824206,201.319211 143.37381,201.164455 142.921429,201.021604 L142.921429,201.021604 Z M134.570238,216.757046 L140.262698,211.16403 L141.411508,219.056551 C139.280556,217.99112 136.984921,217.211391 134.570238,216.757046 L134.570238,216.757046 Z M124.87381,268.227078 L119.183333,273.820094 L118.03254,265.925588 C120.163492,266.994987 122.459127,267.7767 124.87381,268.227078 L124.87381,268.227078 Z M115.594048,242.492062 C115.594048,234.690806 121.921429,228.367663 129.721032,228.367663 C137.524603,228.367663 143.848016,234.690806 143.848016,242.492062 C143.848016,250.295301 137.524603,256.616461 129.721032,256.616461 C121.921429,256.616461 115.594048,250.295301 115.594048,242.492062 L115.594048,242.492062 Z M115.113889,201.49579 L115.332143,175.506817 C119.971032,174.514796 124.784524,173.98704 129.721032,173.98704 C131.453175,173.98704 133.169444,174.054498 134.869841,174.179493 L138.615873,199.888716 C135.744841,199.291519 132.770635,198.974072 129.721032,198.974072 C124.598016,198.974072 119.679365,199.868876 115.113889,201.49579 L115.113889,201.49579 Z M129.721032,203.541338 C133.034524,203.541338 136.250794,203.959971 139.322222,204.7397 L139.528571,206.140434 L129.181349,216.316588 C128.340079,216.332461 127.512698,216.389998 126.693254,216.483248 L115.062302,207.810998 L115.074206,206.400344 C119.596032,204.565104 124.538492,203.541338 129.721032,203.541338 L129.721032,203.541338 Z M144.328175,283.490317 L144.111905,309.477306 C139.471032,310.471312 134.65754,310.997083 129.721032,310.997083 C127.988889,310.997083 126.274603,310.929626 124.574206,310.806615 L120.828175,285.095407 C123.697222,285.694588 126.673413,286.010051 129.721032,286.010051 C134.846032,286.010051 139.760714,285.117232 144.328175,283.490317 L144.328175,283.490317 Z M129.721032,281.442785 C126.40754,281.442785 123.19127,281.02812 120.119841,280.246407 L119.915476,278.845673 L130.264683,268.667535 C131.101984,268.651663 131.931349,268.59611 132.74881,268.50286 L144.381746,277.171141 L144.367857,278.581796 C139.848016,280.421003 134.903571,281.442785 129.721032,281.442785 L129.721032,281.442785 Z M147.85,223.601993 C147.250794,223.024636 146.627778,222.479024 145.973016,221.963173 L143.881746,207.604657 L144.893651,206.608668 C151.119841,209.243477 156.514683,213.455599 160.586111,218.739104 C159.838095,220.487046 159.090079,222.149673 158.369841,223.68929 L147.85,223.601993 Z M151.35,227.724833 L156.387698,227.768482 C155.385714,229.762445 154.522619,231.371503 153.919444,232.474631 C153.225,230.794147 152.363889,229.206913 151.35,227.724833 L151.35,227.724833 Z M149.621825,275.974764 L148.492857,275.131546 L148.613889,260.618274 C149.189286,260.021078 149.734921,259.396104 150.252778,258.745338 L151.207143,258.606455 C152.342063,261.368243 155.109921,264.691514 158.976984,268.201285 C156.290476,271.250759 153.135714,273.881599 149.621825,275.974764 L149.621825,275.974764 Z M171.098016,297.090929 C164.340079,302.219679 156.601984,306.124274 148.215079,308.469413 L148.437302,281.786024 C148.865873,281.581668 149.286508,281.361439 149.707143,281.143195 L171.098016,297.090929 Z M153.548413,278.901227 C156.855952,276.730684 159.851984,274.123652 162.449206,271.161477 C168.266667,275.849769 175.721032,280.66504 183.625794,284.756136 C180.863889,288.27186 177.772619,291.519737 174.385714,294.434296 L153.548413,278.901227 Z M487.869841,50.968466 C488.223016,50.3137319 489.13373,50.0240617 488.49881,51.4406681 C484.895635,60.8708223 459.578175,109.196147 354.971032,109.196147 C335.24881,109.196147 295.457143,108.98187 261.171429,108.98187 C225.715079,108.98187 183.643651,139.760322 183.643651,182.050189 C183.643651,226.669322 159.19127,237.746232 159.19127,237.746232 C159.19127,237.746232 176.723016,212.288982 173.574206,180.95103 C169.348016,138.901232 206.25873,94.8852479 270.35,94.8852479 C282.294444,94.8852479 299.15754,97.2422904 352.467063,97.2422904 C435.447222,97.2422904 466.034524,80.4215777 487.869841,50.968466 L487.869841,50.968466 Z M288.274603,118.49337 C291.254762,117.336673 295.387698,121.632126 298.780556,118.66995 C300.734921,116.967641 304.502778,119.667923 307.369841,120.961519 C310.342063,122.304716 312.403571,120.284961 314.863889,118.695743 C316.471032,117.660072 318.957143,120.757163 321.800397,120.086556 C322.770635,119.854423 322.534524,117.701737 323.49881,117.588647 C326.808333,117.203743 329.719048,120.320673 332.719048,118.987397 C333.814286,118.495354 334.990873,116.600594 336.169444,115.894274 C337.631746,115.01336 339.603968,117.06486 340.663492,116.112519 C343.784524,113.305099 346.91746,114.4737 349.810317,114.910189 C350.427381,115.003439 351.026587,117.400163 350.288492,117.860461 C328.074206,130.768641 297.990873,132.502695 283.588095,123.780844 C278.953175,121.090482 285.74881,119.475471 288.274603,118.49337 L288.274603,118.49337 Z M265.379762,154.985865 C264.298413,154.926344 264.052381,152.908572 263.310317,151.890759 C262.351984,150.575338 260.211111,150.204322 259.070238,149.367056 C258.141667,148.68653 258.234921,147.523881 257.242857,146.706455 C256.302381,145.926727 253.804365,146.125131 252.288492,145.458493 C251.726984,145.212471 250.988889,143.373264 251.717063,142.950663 C254.949206,141.06979 259.933333,144.347429 261.990873,141.688812 C265.391667,137.284237 269.764683,140.559891 273.723016,139.034163 C274.933333,138.571881 274.651587,136.994567 275.20119,136.325945 C275.20119,136.325945 276.94127,131.504721 294.242857,131.504721 C318.488889,131.504721 345.465079,142.514173 342.675397,146.908828 C318.022619,156.461993 291.353968,156.465961 265.379762,154.985865 L265.379762,154.985865 Z M294.125794,181.657349 C281.223016,184.653253 269.046429,183.817971 256.443254,180.786354 C253.832143,180.155429 252.348016,177.601966 250.266667,175.810376 C249.794444,175.403647 247.631746,175.621891 247.546429,175.377854 C246.669444,172.800583 246.022619,171.760945 243.945238,170.086413 C243.611905,169.820551 243.35,168.140067 244.403571,168.054753 C247.605952,167.784923 250.754762,167.396051 253.943254,167.007179 C255.592063,166.802822 255.669444,163.927945 257.07619,163.342652 C260.478968,162.150243 280.294444,159.451945 291.024603,159.451945 C301.82619,159.451945 328.435317,165.36836 325.681349,168.947572 C324.433333,170.927647 321.770635,170.943519 319.677381,172.348221 C316.923413,174.203301 312.971032,173.496982 310.494841,175.863945 C306.988889,179.201104 302.276587,179.470934 297.752778,180.058211 C296.518651,180.21495 295.50873,181.335934 294.125794,181.657349 L294.125794,181.657349 Z M230.740873,206.912227 C231.342063,206.836833 232.286508,205.444035 232.320238,205.031354 C232.475,203.039376 228.530556,202.620743 227.169444,201.277546 C226.820238,200.932322 226.54246,199.220094 227.627778,199.200253 C229.728968,199.16454 234.161508,200.975971 237.219048,199.418498 C238.034524,199.001849 238.084127,197.821344 239.344048,197.295572 C240.598016,196.767817 242.288492,197.482072 243.090079,197.045583 C243.879762,196.615046 245.135714,196.476163 245.709127,195.670641 C246.145635,195.06154 245.461111,193.424705 246.084127,192.8037 C247.121825,191.76803 248.568254,192.260072 250.139683,191.23829 C251.153571,190.58554 252.088095,188.924897 252.893651,188.458647 C256.139683,186.579759 282.738889,185.349652 305.518651,197.243987 C301.794444,202.287423 295.681349,202.533445 290.607937,205.176189 C286.504762,207.307051 282.090079,207.523312 277.822222,208.812939 C252.264683,217.284801 232.832143,211.374338 230.740873,206.912227 L230.740873,206.912227 Z M184.40754,226.762572 C186.228968,227.072083 187.669444,226.050301 189.155556,226.413381 C191.163492,226.903439 191.980952,227.087955 193.524603,227.88554 C194.520635,227.256599 196.03254,227.038354 196.528571,226.873679 C199.334127,225.978876 202.56627,227.728801 205.50873,227.506588 C206.947222,227.395482 206.853968,224.363865 207.947222,223.859918 C212.000794,222.012774 217.322222,224.713056 221.611905,223.639689 C222.111905,223.508743 221.738889,221.268759 223.611905,219.893817 C224.405556,219.30654 227.764683,219.258923 228.853968,218.83037 C228.980952,218.391897 229.103968,217.393923 230.101984,216.893945 C233.346032,215.009104 257.524603,221.969126 257.524603,225.373743 C252.324206,230.649312 241.867857,239.141014 214.38373,239.141014 C186.16746,239.141014 180.048413,233.540062 176.361905,231.042152 C174.302381,229.64737 176.903571,226.226881 179.175397,225.018599 C180.790476,224.161493 182.703175,226.46695 184.40754,226.762572 L184.40754,226.762572 Z M222.814286,212.231445 C210.705159,219.756918 187.467063,223.117886 182.659524,220.617993 C184.834127,212.878243 187.689286,205.38253 190.453175,197.847136 C190.453175,197.847136 210.375794,201.674354 222.814286,212.231445 L222.814286,212.231445 Z M225.324206,132.851886 C228.211111,131.840024 231.851984,131.024583 231.413492,127.112051 C231.314286,126.199391 232.824206,125.645844 233.629762,125.542673 C235.832143,125.260939 238.004762,125.173641 240.163492,124.612157 C241.897619,124.16178 242.615873,122.344397 243.959127,121.3742 C248.671429,117.979503 254.550397,121.316663 259.119841,119.354445 C261.226984,118.447737 263.367857,117.957679 265.195238,119.027078 C269.800397,121.723391 276.552381,122.765014 277.947222,128.332237 C261.548413,137.915163 242.103968,140.549971 223.411508,140.315854 C223.496825,137.567955 222.49881,133.843907 225.324206,132.851886 L225.324206,132.851886 Z M255.369841,157.584961 C238.361905,167.352402 218.625794,168.584493 199.44127,168.483306 C199.639683,165.568748 201.094048,163.53312 201.75873,160.81895 C202.603968,157.3687 207.949206,156.491753 207.887698,151.694338 C207.848016,149.067466 213.04246,149.577365 214.679365,147.263971 C215.334127,146.343376 215.990873,144.926769 216.865873,144.777966 C231.947222,142.595519 259.812302,155.561237 255.369841,157.584961 L255.369841,157.584961 Z M194.834127,179.992737 C196.070238,178.147578 196.915476,175.663556 197.976984,175.060407 C197.976984,175.060407 202.181349,172.433535 208.35,172.433535 C227.336111,172.433535 250.169444,184.313982 245.512698,186.294056 C228.780556,193.974285 210.425397,197.190418 192.344048,195.214312 C191.822222,195.156774 192.480952,191.303764 192.135714,188.789982 C191.897619,187.053945 193.578175,186.048035 194.94127,184.405248 C195.675397,183.522349 193.919444,181.365695 194.834127,179.992737 L194.834127,179.992737 Z M491.127778,53.5536734 C479.798413,101.4187 407.885714,140.938844 352.290476,137.51637 C348.889683,137.304078 346.264683,135.048221 343.096032,133.482812 C341.734921,132.814189 339.425397,133.012594 338.038492,132.234849 C336.504762,131.369806 337.225,129.405604 339.098016,129.064349 C341.298413,128.665556 343.784524,129.576232 345.486905,128.610003 C349.802381,126.157727 354.522619,127.151732 358.806349,125.790679 C361.324206,124.99111 358.863889,121.431737 360.746825,120.838509 C363.177381,120.072668 365.842063,119.794902 368.381746,119.114376 C369.615873,118.785024 369.822222,115.844673 370.447222,115.662141 C373.931349,114.648296 379.953175,116.13236 384.619841,116.045062 C386.082143,116.017285 385.101984,113.332876 386.91746,113.315019 C392.770635,113.257482 392.24881,113.979673 396.175397,111.344865 C399.780556,108.920365 408.556349,112.31903 408.443254,106.757759 C415.830159,105.535588 423.730952,107.722003 430.377778,102.847211 C431.455159,102.057562 433.445238,102.83729 434.921429,101.898838 C435.79246,101.351243 435.732937,99.9564606 436.780556,99.6370298 C439.552381,98.7938117 442.494841,98.8255564 445.088095,97.6311628 C446.594048,96.9387319 446.340079,94.333684 447.131746,93.9745723 C447.131746,93.9745723 478.189286,81.7786628 490.246825,53.0536947 C490.645635,51.9842957 491.520635,51.6271681 491.127778,53.5536734 L491.127778,53.5536734 Z M449.945238,116.787094 C473.552381,99.1013383 495.992857,68.5550191 495.992857,34.8441521 C495.992857,34.139817 495.29246,34.0267266 494.994841,34.3203649 C458.510714,84.1297532 425.330159,83.6416787 425.330159,83.6416787 C423.879762,83.6416787 423.54246,81.604067 424.689286,80.8064819 C448.244841,66.9479447 473.510714,38.3697957 479.185317,6.65289149 C479.264683,6.23029043 478.629762,5.71047128 478.185317,6.15489681 C451.387698,32.9533596 414.560317,59.2518436 322.685317,59.2518436 C293.268651,59.2518436 277.909524,58.6050457 257.95119,58.6050457 C178.28254,58.6050457 153.784524,111.553189 150.887698,118.564796 C144.006746,117.398179 136.935317,116.783126 129.721032,116.783126 C60.2904762,116.783126 4.0047619,173.064461 4.0047619,242.492062 C4.0047619,311.919663 60.2904762,368.202982 129.721032,368.202982 C182.881746,368.202982 228.336111,335.204386 246.721032,288.575418 C249.068254,288.978179 251.338095,289.208328 253.455159,289.208328 C266.268651,289.208328 269.340079,286.345354 269.340079,284.36528 C269.340079,283.010179 261.149603,274.066115 265.213095,274.066115 C293.62381,274.066115 300.014683,272.9987 310.445238,269.393695 C305.443254,261.560695 287.31627,251.428189 296.647619,251.428189 C341.669444,251.428189 356.427381,242.738083 356.427381,240.898876 C356.427381,238.746189 342.072222,228.407344 342.072222,228.407344 C362.808333,224.992806 399.790476,208.451844 399.790476,204.00362 C399.790476,201.428333 389.240873,197.120977 390.933333,194.67862 C423.812302,183.742578 448.24881,162.493482 448.24881,158.632535 C448.24881,155.537429 428.971032,155.89654 428.971032,155.89654 L428.971032,153.850993 C445.645635,145.184695 471.03254,124.233205 471.03254,119.624274 C471.03254,116.69186 447.207143,121.608317 449.945238,116.787094 L449.945238,116.787094 Z" id="Fill-1" fill="#FEFEFE"></path>
                <g id="Group-5" transform="translate(0.000000, 1.192410)">
                    <mask id="mask-2" fill="white">
                        <use xlink:href="#path-1"></use>
                    </mask>
                    <g id="Clip-4"></g>
                    <path d="M428.970635,152.658781 L428.970635,154.704329 C428.970635,154.704329 448.248413,154.345218 448.248413,157.440324 C448.248413,161.299287 423.811905,182.548382 390.932937,193.486409 C389.240476,195.928765 399.790079,200.234138 399.790079,202.811409 C399.790079,207.259632 362.809921,223.798611 342.071825,227.215132 C342.071825,227.215132 356.426984,237.553978 356.426984,239.706664 C356.426984,241.545872 341.669048,250.235978 296.647222,250.235978 C287.315873,250.235978 305.442857,260.368484 310.444841,268.201484 C300.014286,271.806489 293.623413,272.873904 265.214683,272.873904 C261.149206,272.873904 269.339683,281.817968 269.339683,283.173069 C269.339683,285.153143 266.270238,288.016116 253.454762,288.016116 C251.339683,288.016116 249.067857,287.783984 246.720635,287.383207 C228.335714,334.012175 182.883333,367.010771 129.720635,367.010771 C60.2920635,367.010771 4.00436508,310.727452 4.00436508,241.299851 C4.00436508,171.872249 60.2920635,115.58893 129.720635,115.58893 C136.934921,115.58893 144.006349,116.205968 150.889286,117.372585 C153.786111,110.360978 178.282143,57.4128346 257.952778,57.4128346 C277.911111,57.4128346 293.268254,58.0596324 322.686905,58.0596324 C414.559921,58.0596324 451.387302,31.7591644 478.184921,4.96268564 C478.629365,4.51826011 479.264286,5.03807926 479.186905,5.46068032 C473.510317,37.1775846 448.244444,65.7557335 424.688889,79.6142707 C423.542063,80.4118559 423.879365,82.4494676 425.329762,82.4494676 C425.329762,82.4494676 458.512302,82.935558 494.994444,33.1281537 C495.292063,32.8325314 495.99246,32.9476059 495.99246,33.651941 C495.99246,67.362808 473.553968,97.9091271 449.944841,115.592898 C447.206746,120.416106 471.034127,115.499648 471.034127,118.432063 C471.034127,123.040994 445.647222,143.992484 428.970635,152.658781 M458.601587,113.747739 C479.627381,95.7881856 500.000397,66.8211644 500.000397,33.651941 C500.000397,28.850558 494.143254,27.501409 491.764286,30.763175 C470.109524,60.321441 449.678968,71.5531059 437.341667,75.8247495 C457.861508,60.2916803 477.98254,34.9316484 483.131349,6.16699947 C483.696825,0.919206915 477.988492,-0.614457979 475.349603,2.13344096 C450.228571,27.2514197 415.64127,54.0558346 322.686905,54.0558346 C300.224603,54.0558346 274.555952,53.4070527 257.952778,53.4070527 C182.488492,53.4070527 154.734524,100.077686 148.476587,113.033484 C142.262302,112.132728 135.976587,111.583148 129.720635,111.583148 C58.1928571,111.583148 0.000396825397,169.775116 0.000396825397,241.299851 C0.000396825397,312.826569 58.1928571,371.016553 129.720635,371.016553 C182.363492,371.016553 228.90119,339.932558 249.230556,291.629058 C250.661111,291.777861 252.178968,292.021898 253.45873,292.021898 C269.895238,292.021898 273.343651,287.210595 273.343651,283.173069 C273.343651,281.00451 271.190873,278.381606 270.129365,276.853893 C294.246429,276.722946 301.317857,275.592042 311.750397,271.989021 C313.446825,271.459281 314.44881,269.879984 314.44881,268.201484 C314.44881,264.650047 307.153175,258.761409 301.86746,254.186207 C335.593651,253.618771 360.430952,247.591249 360.430952,239.706664 C360.430952,238.165063 360.282143,236.222686 351.33373,229.171398 C370.35754,224.000984 403.794048,211.172164 403.794048,202.811409 C403.794048,199.57742 400.99246,197.591393 397.73254,195.315696 C427.353571,184.159425 452.256349,164.491611 452.256349,157.440324 C452.256349,151.754058 443.885317,151.275904 439.728571,150.956473 C454.490476,141.50251 475.040079,125.390101 475.040079,118.432063 C475.040079,111.224037 463.748413,114.06717 458.601587,113.747739" id="Fill-3" fill="#E21836" mask="url(#mask-2)"></path>
                </g>
                <path d="M160.585317,218.739501 C156.513889,213.455996 151.119048,209.243873 144.892857,206.609065 L143.880952,207.605054 L145.974206,221.96357 C146.626984,222.479421 147.251984,223.025033 147.85119,223.602389 L158.369048,223.689687 C159.089286,222.15007 159.839286,220.487443 160.585317,218.739501" id="Fill-6" fill="#E21836"></path>
                <path d="M115.061905,207.811791 L126.692857,216.482057 C127.512302,216.388807 128.339683,216.333254 129.180952,216.317382 L139.530159,206.139244 L139.32381,204.73851 C136.252381,203.960765 133.036111,203.542132 129.720635,203.542132 C124.538095,203.542132 119.595635,204.563914 115.07381,206.401137 L115.061905,207.811791 Z" id="Fill-8" fill="#E21836"></path>
                <path d="M140.261706,211.163633 L134.57123,216.756649 C136.985913,217.210995 139.279563,217.990723 141.410516,219.058138 L140.261706,211.163633 Z" id="Fill-10" fill="#E21836"></path>
                <path d="M144.489484,264.120506 C142.513294,265.471639 140.342659,266.556911 138.027183,267.328703 L144.424008,272.098341 L144.489484,264.120506 Z" id="Fill-12" fill="#E21836"></path>
                <path d="M92.5321429,300.031081 L111.057937,281.807651 C103.813889,278.367321 97.6789683,272.974693 93.3119048,266.31823 L77.7781746,287.156629 C82.0480159,292.11872 87.018254,296.457821 92.5321429,300.031081" id="Fill-14" fill="#E21836"></path>
                <path d="M151.350595,227.725825 C152.3625,229.205921 153.225595,230.795139 153.92004,232.475623 C154.523214,231.372495 155.384325,229.761453 156.388294,227.76749 L151.350595,227.725825 Z" id="Fill-16" fill="#E21836"></path>
                <path d="M116.52381,283.9649 C116.069444,283.822049 115.619048,283.669278 115.172619,283.50857 L96.1507937,302.216107 C103.492063,306.352836 111.670635,309.174145 120.371032,310.358618 L116.52381,283.9649 Z" id="Fill-18" fill="#E21836"></path>
                <path d="M151.207341,258.606257 L150.250992,258.74514 C149.735119,259.395906 149.189484,260.020879 148.614087,260.618076 L148.493056,275.131347 L149.622024,275.974565 C153.135913,273.881401 156.28869,271.25056 158.977183,268.201087 C155.110119,264.691315 152.342262,261.370028 151.207341,258.606257" id="Fill-20" fill="#E21836"></path>
                <path d="M114.953373,220.865006 C116.929563,219.513873 119.100198,218.428602 121.415675,217.656809 L115.020833,212.887171 L114.953373,220.865006 Z" id="Fill-22" fill="#E21836"></path>
                <path d="M91.068254,262.477521 C90.8519841,262.056904 90.631746,261.638271 90.4253968,261.207734 L63.7428571,260.985521 C66.0880952,269.374053 69.9928571,277.109835 75.1198413,283.867484 L91.068254,262.477521 Z" id="Fill-24" fill="#E21836"></path>
                <path d="M144.380952,277.171935 L132.748016,268.503653 C131.93254,268.596903 131.103175,268.652456 130.263889,268.668329 L119.914683,278.846467 L120.119048,280.247201 C123.19246,281.02693 126.406746,281.441595 129.720238,281.441595 C134.904762,281.441595 139.847222,280.421797 144.369048,278.582589 L144.380952,277.171935 Z" id="Fill-26" fill="#E21836"></path>
                <path d="M119.184127,273.819895 L124.874603,268.226879 C122.459921,267.776502 120.164286,266.994789 118.033333,265.92539 L119.184127,273.819895 Z" id="Fill-28" fill="#E21836"></path>
                <path d="M148.436508,281.787016 L148.21627,308.468421 C156.603175,306.125266 164.339286,302.220671 171.097222,297.091921 L149.706349,281.144187 C149.287698,281.360447 148.867063,281.580676 148.436508,281.787016" id="Fill-30" fill="#E21836"></path>
                <path d="M108.092262,257.259687 C106.741071,255.285565 105.657738,253.111054 104.883929,250.797661 L100.116071,257.194214 L108.092262,257.259687 Z" id="Fill-32" fill="#E21836"></path>
                <path d="M111.593452,261.38471 L97.0815476,261.263684 L96.2402778,262.394588 C100.466468,269.48754 106.877183,275.130157 114.549802,278.374066 L115.56369,277.380061 L113.470437,263.021545 C112.817659,262.50371 112.192659,261.960082 111.593452,261.38471" id="Fill-34" fill="#E21836"></path>
                <path d="M110.829167,224.366047 L110.950198,209.85476 L109.82123,209.011542 C102.725992,213.237553 97.0831349,219.647994 93.835119,227.320287 L94.8311508,228.334132 L109.190278,226.240968 C109.706151,225.590202 110.25377,224.965228 110.829167,224.366047" id="Fill-36" fill="#E21836"></path>
                <path d="M98.3914683,231.951637 L103.986706,237.643855 C104.437103,235.229276 105.220833,232.933738 106.28631,230.804861 L98.3914683,231.951637 Z" id="Fill-38" fill="#E21836"></path>
                <path d="M91.9664683,232.89128 C91.1867063,235.962578 90.7700397,239.180695 90.7700397,242.492062 C90.7700397,247.676365 91.7918651,252.614647 93.6291667,257.140248 L95.039881,257.152152 L103.710516,245.521695 C103.617262,244.702285 103.561706,243.872955 103.543849,243.031721 L93.3672619,232.684939 L91.9664683,232.89128 Z" id="Fill-40" fill="#E21836"></path>
                <path d="M120.827381,285.094415 L124.575397,310.805623 C126.27381,310.928634 127.990079,310.998075 129.720238,310.998075 C134.65873,310.998075 139.470238,310.47032 144.111111,309.476314 L144.329365,283.489325 C139.759921,285.118224 134.845238,286.009059 129.720238,286.009059 C126.672619,286.009059 123.698413,285.69558 120.827381,285.094415" id="Fill-42" fill="#E21836"></path>
                <path d="M167.790476,190.819459 C167.790476,189.043741 167.746825,187.266039 167.687302,185.476432 C167.427381,185.303821 167.171429,185.125257 166.911508,184.956613 L148.38373,203.176076 C153.818254,205.759299 158.627778,209.437714 162.536508,213.923635 C165.395635,206.439826 167.790476,198.025502 167.790476,190.819459" id="Fill-44" fill="#E21836"></path>
                <path d="M109.735317,203.839738 C110.155952,203.623478 110.576587,203.403249 111.005159,203.198893 L111.227381,176.515504 C102.838492,178.862627 95.102381,182.765238 88.3444444,187.893988 L109.735317,203.839738 Z" id="Fill-46" fill="#E21836"></path>
                <path d="M138.616667,199.889113 L134.870635,174.179889 C133.168254,174.054895 131.451984,173.985453 129.721825,173.985453 C124.785317,173.985453 119.971825,174.515193 115.330952,175.507214 L115.114683,201.496187 C119.680159,199.869272 124.596825,198.974469 129.721825,198.974469 C132.769444,198.974469 135.745635,199.291916 138.616667,199.889113" id="Fill-48" fill="#E21836"></path>
                <path d="M183.626587,284.755343 C175.719841,280.664247 168.26746,275.85096 162.45,271.160683 C159.850794,274.124843 156.856746,276.72989 153.547222,278.900433 L174.386508,294.433502 C177.773413,291.518944 180.862698,288.271066 183.626587,284.755343" id="Fill-50" fill="#E21836"></path>
                <path d="M163.294246,182.769008 C155.952976,178.634263 147.774405,175.812955 139.074008,174.624513 L142.92123,201.020215 C143.373611,201.163066 143.824008,201.319806 144.270437,201.476545 L163.294246,182.769008 Z" id="Fill-52" fill="#E21836"></path>
                <path d="M61.2142857,242.491863 C61.2142857,247.430145 61.7400794,252.241448 62.7321429,256.88014 L88.7222222,257.098385 C87.0952381,252.533103 86.2043651,247.616645 86.2043651,242.491863 C86.2043651,239.444374 86.5178571,236.470294 87.1150794,233.599385 L61.406746,237.343273 C61.2797619,239.045581 61.2142857,240.759794 61.2142857,242.491863" id="Fill-54" fill="#E21836"></path>
                <path d="M61.8517857,233.141269 L88.246627,229.294211 C88.3934524,228.841849 88.5462302,228.391471 88.7029762,227.945062 L69.9946429,208.920078 C65.8597222,216.263019 63.0382937,224.441243 61.8517857,233.141269" id="Fill-56" fill="#E21836"></path>
                <path d="M72.1803571,205.302573 L90.4025794,223.829562 C93.8470238,216.585823 99.2359127,210.449179 105.894643,206.08627 L85.0573413,190.549232 C80.0950397,194.820876 75.7537698,199.788919 72.1803571,205.302573" id="Fill-58" fill="#E21836"></path>
                <path d="M143.848214,242.491863 C143.848214,234.690608 137.522817,228.367464 129.72123,228.367464 C121.921627,228.367464 115.594246,234.690608 115.594246,242.491863 C115.594246,250.295103 121.921627,256.616262 129.72123,256.616262 C137.522817,256.616262 143.848214,250.295103 143.848214,242.491863" id="Fill-60" fill="#E21836"></path>
                <path d="M129.721032,157.741898 C82.9134921,157.741898 44.9670635,195.684728 44.9670635,242.49226 C44.9670635,289.299792 82.9134921,327.244606 129.721032,327.244606 C158.294444,327.244606 183.56627,313.104335 198.91746,291.43859 C195.699206,290.301734 192.431349,288.964489 189.19127,287.474473 C175.574206,305.441962 154.004762,317.052579 129.721032,317.052579 C88.5404762,317.052579 55.1555556,283.671063 55.1555556,242.49226 C55.1555556,201.313457 88.5404762,167.931941 129.721032,167.931941 C143.478968,167.931941 156.365873,171.663925 167.429365,178.161664 C167.32619,174.471345 167.310317,170.667936 167.601984,166.664138 C156.20119,160.958031 143.338095,157.741898 129.721032,157.741898" id="Fill-62" fill="#E21836"></path>
                <path d="M223.915675,294.723966 C218.445437,296.03145 211.375992,295.198152 203.794643,293.007769 C187.649802,316.637716 160.500992,332.148961 129.719246,332.148961 C80.203373,332.148961 40.0605159,292.007812 40.0605159,242.492062 C40.0605159,240.906812 40.1021825,239.331482 40.1835317,237.766072 C37.4097222,241.976211 38.2113095,248.912423 33.2926587,248.912423 C29.3938492,248.912423 31.5525794,243.601141 28.703373,243.601141 C26.9275794,243.601141 26.6755952,246.03953 24.4712302,246.03953 C24.2073413,246.03953 23.9831349,245.950248 23.8105159,245.950248 C23.3363095,245.950248 23.1259921,246.98195 22.2251984,246.98195 C21.0803571,246.98195 20.2767857,245.622881 19.360119,245.622881 C18.3343254,245.622881 18.0029762,247.581131 16.6458333,247.581131 C15.2430556,247.581131 13.8878968,245.243929 13.3422619,244.176514 C14.2470238,307.683732 65.9990079,358.885918 129.72123,358.885918 C178.483135,358.885918 220.237103,328.901083 237.560516,286.365195 C224.506944,282.41695 212.026786,275.752551 212.026786,275.752551 C212.828373,283.533966 223.915675,294.723966 223.915675,294.723966" id="Fill-64" fill="#E21836"></path>
                <path d="M24.8742063,197.994154 C27.5646825,200.216281 25.4218254,204.105005 27.3543651,206.77751 C42.118254,164.463835 82.3722222,134.100047 129.721429,134.100047 C145.193651,134.100047 159.907937,137.349909 173.223413,143.19093 C174.189683,140.855712 175.314683,138.441132 176.614286,135.939255 C162.267063,129.616111 146.405952,126.098404 129.721429,126.098404 C80.8166667,126.098404 38.9615079,156.261803 21.7293651,198.996095 C22.6876984,199.625037 23.7452381,197.055702 24.8742063,197.994154" id="Fill-66" fill="#E21836"></path>
                <path d="M271.853373,78.3762282 L335.89504,78.3762282 C417.708532,78.3762282 453.525992,49.1215207 467.635119,23.1980207 C468.450595,21.6365793 467.450595,21.3131803 465.89504,22.6940739 C448.081548,38.6695846 421.506151,66.5652229 313.002183,66.5652229 L267.206548,66.5652229 C195.180754,66.5652229 168.061706,99.0400314 160.982341,120.701808 C164.5875,121.626372 168.127183,122.709659 171.597421,123.933813 C184.402976,100.875271 208.807738,78.3762282 271.853373,78.3762282" id="Fill-68" fill="#E21836"></path>
                <path d="M270.350794,94.8860415 C206.259524,94.8860415 169.34881,138.902026 173.575,180.951823 C176.72381,212.289776 159.190079,237.747026 159.190079,237.747026 C159.190079,237.747026 183.644444,226.670116 183.644444,182.050983 C183.644444,139.759132 225.715873,108.98068 261.172222,108.98068 C295.455952,108.98068 335.249603,109.19694 354.971825,109.19694 C459.578968,109.19694 484.894444,60.8696319 488.499603,51.4394777 C489.134524,50.0248553 488.221825,50.3125415 487.870635,50.9672755 C466.035317,80.4223713 435.448016,97.2411 352.465873,97.2411 C299.156349,97.2411 282.295238,94.8860415 270.350794,94.8860415" id="Fill-70" fill="#E21836"></path>
                <path d="M294.242659,131.505515 C276.941071,131.505515 275.200992,136.326738 275.200992,136.326738 C274.653373,136.995361 274.933135,138.57069 273.722817,139.034956 C269.766468,140.558701 265.393452,137.285031 261.990675,141.689605 C259.935119,144.348222 254.949008,141.0686 251.716865,142.951456 C250.98869,143.372073 251.726786,145.211281 252.288294,145.457302 C253.804167,146.12394 256.302183,145.92752 257.242659,146.705265 C258.236706,147.52269 258.141468,148.685339 259.07004,149.36785 C260.210913,150.205116 262.351786,150.574148 263.310119,151.889568 C264.052183,152.909366 264.298214,154.927137 265.379563,154.986659 C291.355754,156.46477 318.022421,156.460802 342.675198,146.909621 C345.464881,142.514967 318.48869,131.505515 294.242659,131.505515" id="Fill-72" fill="#E21836"></path>
                <path d="M192.134722,188.790974 C192.47996,191.304756 191.823214,195.157766 192.343056,195.21332 C210.426389,197.189426 228.779563,193.973293 245.511706,186.293064 C250.168452,184.31299 227.337103,172.434527 208.350992,172.434527 C202.180357,172.434527 197.975992,175.059415 197.975992,175.059415 C196.914484,175.664548 196.069246,178.14857 194.833135,179.991745 C193.918452,181.366687 195.676389,183.523341 194.942262,184.40624 C193.577183,186.047043 191.898611,187.054937 192.134722,188.790974" id="Fill-74" fill="#E21836"></path>
                <path d="M216.865675,144.777768 C215.990675,144.926571 215.335913,146.343177 214.679167,147.263773 C213.042262,149.577166 207.847817,149.067268 207.8875,151.69414 C207.949008,156.491555 202.60377,157.368502 201.758532,160.818752 C201.093849,163.532922 199.639484,165.568549 199.441071,168.483108 C218.625595,168.584294 238.361706,167.352204 255.369643,157.584762 C259.812103,155.563023 231.947024,142.595321 216.865675,144.777768" id="Fill-76" fill="#E21836"></path>
                <path d="M277.947222,128.33184 C276.552381,122.764617 269.800397,121.722995 265.195238,119.028665 C263.367857,117.959266 261.226984,118.449324 259.119841,119.356032 C254.550397,121.316266 248.671429,117.979106 243.959127,121.373803 C242.615873,122.344 241.897619,124.163367 240.163492,124.611761 C238.004762,125.173245 235.830159,125.260543 233.629762,125.542277 C232.824206,125.647431 231.314286,126.198995 231.413492,127.111654 C231.851984,131.024186 228.211111,131.841612 225.324206,132.851489 C222.49881,133.843511 223.496825,137.567559 223.411508,140.315457 C242.103968,140.549574 261.548413,137.914766 277.947222,128.33184" id="Fill-78" fill="#E21836"></path>
                <path d="M182.659722,220.617001 C187.465278,223.118878 210.705357,219.755926 222.814484,212.230453 C210.375992,201.673362 190.453373,197.846144 190.453373,197.846144 C187.689484,205.381538 184.834325,212.879235 182.659722,220.617001" id="Fill-80" fill="#E21836"></path>
                <path d="M179.175,225.018996 C176.903175,226.225294 174.301984,229.647767 176.363492,231.042549 C180.048016,233.540459 186.167063,239.141411 214.383333,239.141411 C241.869444,239.141411 252.32381,230.649709 257.524206,225.374139 C257.524206,221.969522 233.345635,215.009501 230.101587,216.892357 C229.105556,217.392336 228.98254,218.392294 228.855556,218.830767 C227.76627,219.25932 224.405159,219.306937 223.611508,219.894214 C221.738492,221.267171 222.111508,223.509139 221.611508,223.640086 C217.321825,224.713453 212.000397,222.011187 207.946825,223.860315 C206.853571,224.364262 206.946825,227.393895 205.508333,227.506985 C202.565873,227.727214 199.33373,225.977288 196.528175,226.874076 C196.032143,227.038751 194.520238,227.256996 193.524206,227.883953 C191.980556,227.088352 191.163095,226.903836 189.155159,226.413778 C187.669048,226.050698 186.230556,227.07248 184.407143,226.762969 C182.702778,226.465363 180.790079,224.159905 179.175,225.018996" id="Fill-82" fill="#E21836"></path>
                <path d="M290.607738,205.176785 C295.683135,202.53404 301.794246,202.288019 305.518452,197.244582 C282.73869,185.350247 256.139484,186.580354 252.893452,188.457258 C252.087897,188.925492 251.153373,190.584152 250.139484,191.238886 C248.568056,192.260668 247.121627,191.768625 246.083929,192.804295 C245.460913,193.425301 246.145437,195.060152 245.708929,195.671237 C245.1375,196.476758 243.879563,196.613657 243.089881,197.044194 C242.290278,197.482668 240.597817,196.768412 239.343849,197.294184 C238.083929,197.821939 238.034325,199.002444 237.218849,199.419093 C234.16131,200.976566 229.72877,199.165136 227.627579,199.200848 C226.542262,199.220689 226.82004,200.930934 227.169246,201.278141 C228.530357,202.621338 232.474802,203.039971 232.322024,205.031949 C232.28631,205.44463 231.341865,206.837428 230.740675,206.912822 C232.831944,211.374934 252.264484,217.283412 277.822024,208.813535 C282.091865,207.523907 286.504563,207.307646 290.607738,205.176785" id="Fill-84" fill="#E21836"></path>
                <path d="M319.677976,172.349015 C321.769246,170.944313 324.433929,170.926456 325.681944,168.948366 C328.433929,165.367169 301.824802,159.452738 291.025198,159.452738 C280.293056,159.452738 260.479563,162.149052 257.076786,163.343446 C255.668056,163.928738 255.592659,166.803616 253.943849,167.007972 C250.755357,167.396845 247.606548,167.783733 244.402183,168.055547 C243.350595,168.140861 243.6125,169.819361 243.945833,170.085222 C246.02123,171.759754 246.67004,172.799393 247.547024,175.376664 C247.630357,175.620701 249.793056,175.40444 250.267262,175.809185 C252.346627,177.600776 253.830754,180.154238 256.441865,180.787148 C269.04504,183.816781 281.223611,184.652063 294.126389,181.656159 C295.509325,181.334744 296.519246,180.215744 297.753373,180.059004 C302.277183,179.471728 306.989484,179.199914 310.493452,175.862754 C312.971627,173.497776 316.924008,174.202111 319.677976,172.349015" id="Fill-86" fill="#E21836"></path>
                <path d="M350.289484,117.859469 C351.027579,117.399171 350.426389,115.004431 349.809325,114.911181 C346.918452,114.474692 343.783532,113.304107 340.6625,116.111527 C339.602976,117.065852 337.632738,115.012368 336.170437,115.895266 C334.989881,116.599602 333.813294,118.494362 332.72004,118.986405 C329.718056,120.319681 326.807341,117.204735 323.499802,117.587655 C322.533532,117.702729 322.771627,119.855415 321.801389,120.085564 C318.958135,120.758155 316.472024,117.65908 314.862897,118.696735 C312.402579,120.285953 310.343056,122.303724 307.368849,120.960527 C304.50377,119.666931 300.733929,116.968634 298.781548,118.668958 C295.386706,121.631134 291.255754,117.335681 288.273611,118.492378 C285.749802,119.474479 278.952183,121.091474 283.589087,123.779852 C297.989881,132.503687 328.073214,130.769634 350.289484,117.859469" id="Fill-88" fill="#E21836"></path>
                <path d="M207.501984,281.37255 C206.748016,280.005545 204.805556,280.737656 203.468254,279.949991 C202.486111,279.360731 202.02381,277.333039 201.073413,276.553311 C200.337302,275.946194 198.55754,277.323119 197.640873,276.785444 C196.347222,276.021587 195.363095,274.382768 194.349206,273.255832 C193.224206,272.005885 192.194444,270.644832 191.081349,269.394885 C190.043651,268.226284 188.934524,267.152917 187.613095,266.36922 C186.900794,265.946619 185.513889,266.857295 184.654762,266.631114 C183.126984,266.218433 182.242063,263.573704 180.994048,262.468593 C180.279762,261.831715 179.134921,261.742433 178.498016,261.139284 C177.849206,260.514311 177.712302,259.369518 177.029762,258.60963 C176.130952,257.625545 174.811508,257.274369 173.837302,256.472816 C172.509921,255.393497 171.527778,252.657502 170.507937,251.151614 C169.492063,249.641757 167.988095,249.475098 167.011905,248.153726 C165.789683,246.49705 165.075397,243.711454 163.581349,242.038906 C162.075397,240.346518 158.329365,243.0468 157.180556,245.332417 C155.305556,249.064401 155.412698,253.802295 158.279762,257.004539 C172.382937,272.755853 190.696429,285.820773 211.660714,289.269039 C210.095238,287.023103 208.446429,283.084779 207.501984,281.37255" id="Fill-90" fill="#E21836"></path>
                <path d="M253.880952,276.102338 C251.748016,275.503157 249.873016,274.320668 247.918651,273.51713 C246.708333,273.02112 245.553571,274.89604 244.251984,274.118295 C241.619048,272.548918 239.353175,270.300997 237.261905,268.626465 C235.597222,267.295173 232.269841,263.965949 230.839286,264.636556 C230.277778,264.890513 229.46627,267.981652 228.105159,266.963838 C224.827381,264.507593 222.702381,261.86088 219.634921,259.182423 C218.238095,257.964221 216.902778,261.997779 215.123016,261.138689 C211.035714,259.152662 209.388889,254.722295 206.238095,251.577588 C202.571429,247.926949 199.061508,243.691019 194.005952,242.347822 C193.170635,242.127593 193.634921,243.355715 192.847222,243.968785 C188.986111,246.984529 184.738095,241.833955 180.992063,240.115774 C177.555556,238.530524 174.531746,236.016742 170.664683,235.748896 C169.843254,235.691359 169.882937,236.927418 170.194444,237.292481 C192.220238,263.346928 222.787698,282.897684 256.357143,282.110019 C257.134921,282.092162 258.72619,282.177476 257.422619,280.560481 C256.375,279.280774 255.204365,276.469386 253.880952,276.102338" id="Fill-92" fill="#E21836"></path>
                <path d="M285.059325,257.120209 C284.081151,256.975374 282.56131,258.300714 281.706151,258.141991 C279.10496,257.653916 277.047421,255.308778 273.88869,253.644166 C272.587103,252.959672 271.906548,256.032954 270.886706,255.973432 C265.648611,255.671858 258.083135,250.120507 253.410516,247.319039 C252.575198,246.821044 247.581151,247.821002 246.749802,247.985677 C243.751786,248.584858 239.924405,243.325161 237.559325,242.218065 C235.773611,241.382784 233.277579,240.497901 231.577183,241.767688 C229.271627,243.489837 226.531548,242.569241 224.007738,242.52956 C223.023611,242.515672 222.160516,244.596932 220.950198,244.977869 C217.505754,246.084964 213.694246,243.684273 210.319246,245.370709 C210.214087,245.42031 209.75377,246.126629 209.779563,246.372651 C210.011706,248.489624 212.37877,248.846752 213.938294,249.801076 C238.148611,265.155581 275.533532,270.127592 296.356944,265.465092 C296.831151,265.322241 296.097024,263.536603 294.694246,262.467204 C293.241865,261.354156 291.09504,260.933539 290.19623,260.302613 C288.091071,258.822518 286.974008,257.407895 285.059325,257.120209" id="Fill-94" fill="#E21836"></path>
                <path d="M333.791468,234.772747 C331.22996,235.53462 329.249802,233.657715 327.120833,234.473157 C326.634722,234.659657 326.297421,235.465178 325.886706,235.467162 C321.876786,235.546524 319.204167,231.225279 315.116865,231.55463 C314.106944,231.635976 314.12877,233.421614 313.265675,233.627955 C310.743849,234.217215 308.51369,231.167742 306.247817,232.262934 C304.62877,233.054566 303.493849,232.993061 301.938294,232.540699 C299.924405,231.951439 298.432341,230.161832 296.487897,229.85629 C294.779563,229.58646 293.085119,231.288769 291.154563,230.725301 C286.335119,229.322582 282.60496,224.749364 277.43631,225.838604 C274.884722,226.378263 272.688294,224.640242 270.922421,225.691785 C268.991865,226.838561 268.442262,228.231359 266.487897,229.397976 C265.156548,230.197545 262.047421,230.096359 260.658532,230.943545 C259.606944,231.584391 259.339087,233.211306 258.136706,233.709301 C255.874802,234.647753 253.19623,233.97913 251.077183,235.175508 C250.827183,235.316375 250.688294,236.498864 251.597024,236.752822 C271.337103,243.441029 303.283532,250.805795 341.44623,240.905423 C342.616865,240.540359 342.862897,239.839992 341.910516,238.736864 C339.813294,236.312364 336.930357,233.838263 333.791468,234.772747" id="Fill-96" fill="#E21836"></path>
                <path d="M379.460317,201.334488 C376.089286,202.899897 372.178571,201.161876 368.444444,202.044775 C367.470238,202.276908 368.212302,203.667722 367.238095,203.802637 C363.575397,204.32444 359.775794,203.387972 356.337302,204.729185 C353.650794,205.774775 350.426587,204.588318 347.472222,204.663711 C346.345238,204.695456 346.323413,206.19936 346.144841,207.419546 C345.984127,208.461169 344.422619,209.08019 343.958333,208.943291 C340.295635,207.854052 336.787698,207.461211 333.071429,206.913615 C323.746032,205.542642 314.513889,202.568562 305.742063,205.189482 C302.878968,206.046589 299.085317,206.760844 296.894841,208.992892 C296.053571,209.851982 295.154762,211.558259 294.031746,211.966972 C288.666667,213.917286 282.823413,214.278381 277.478175,216.179094 C275.859127,216.754466 272.781746,219.022227 273.93254,219.315865 C273.93254,219.315865 290.434524,224.105344 308.434524,224.105344 C343.081349,224.105344 369.496032,215.581897 388.81746,205.038695 C387.714286,203.645897 382.017857,200.142078 379.460317,201.334488" id="Fill-98" fill="#E21836"></path>
                <path d="M417.484325,163.387888 C415.357341,164.088255 412.454563,162.080404 410.641071,163.419633 C407.926786,165.419548 404.742262,165.058452 401.952579,164.770766 C400.625198,164.633867 398.541865,164.161665 397.36131,165.082261 C396.601389,165.677473 397.696627,166.641718 398.406944,167.284548 C391.393056,169.69516 383.658929,167.427399 377.012103,170.123713 C376.510119,170.326085 376.210516,172.770426 374.98631,173.016447 C368.879167,174.246553 363.164881,171.84983 357.105357,172.95891 C355.573611,173.240644 356.252183,176.496457 354.643056,176.575819 C349.206548,176.841681 343.908929,176.383367 338.482341,176.161154 C332.022024,175.88934 326.069643,178.236463 319.972421,180.101463 C318.160913,180.651043 317.62123,183.523936 315.666865,183.825511 C310.400992,184.62508 305.039881,183.7025 300.228373,186.079383 C299.906944,186.24009 299.889087,187.855101 300.242262,188.045569 C306.127183,191.372809 312.877183,193.672314 316.90496,199.045101 C357.885119,198.618532 401.980357,193.263601 436.105357,165.286617 C436.772024,164.744973 432.73631,163.897787 430.561706,163.395824 C428.43869,162.90775 426.694643,162.90775 424.119246,162.05858 C421.829563,161.306628 419.724405,162.649824 417.484325,163.387888" id="Fill-100" fill="#E21836"></path>
                <path d="M460.03254,124.848259 C459.613889,124.596285 453.41746,123.481253 449.982937,124.288759 C449.254762,124.457402 448.81627,125.65378 448.12381,125.76687 C443.703175,126.475173 440.580159,128.590163 436.080159,128.727062 C435.143651,128.752854 433.119841,129.417509 431.90754,130.000817 C430.276587,130.784514 428.040476,128.863961 426.766667,130.296439 C425.943254,131.217035 427.37381,133.433211 425.885714,134.135562 C421.965079,135.980721 417.385714,132.669354 413.550397,135.167264 C412.433333,135.895407 414.730952,138.343716 413.290476,138.796078 C407.774603,140.518227 398.236905,131.957083 394.629762,140.849562 C394.06627,142.244344 392.340079,141.613418 391.262698,141.333668 C390.217063,141.061854 388.742857,140.5837 388.119841,141.095583 C384.740873,143.841498 382.754762,144.944626 378.002778,143.607381 C376.800397,143.266126 376.78254,146.837402 374.445238,146.27195 C371.776587,145.625152 369.213095,143.702615 366.768651,144.78987 C365.637698,145.297785 366.469048,148.267897 364.818254,148.42662 C358.171429,149.061514 351.330159,148.105205 345.209127,150.825328 C343.699206,151.495934 343.560317,154.212088 341.449206,154.559296 C336.790476,155.333072 332.141667,154.787461 327.79246,156.202083 C327.090079,156.424296 327.250794,158.499604 328.324206,158.658328 C331.113889,159.072993 334.284524,158.636503 336.429365,159.914227 C339.058333,161.479636 340.721032,165.904051 343.300397,166.009205 C395.931349,167.029003 433.95119,148.172663 460.03254,126.417636 C461.062302,125.518865 460.530556,125.149833 460.03254,124.848259" id="Fill-102" fill="#E21836"></path>
                <path d="M447.130952,93.975366 C446.339286,94.3344777 446.593254,96.9375415 445.087302,97.6319564 C442.496032,98.824366 439.551587,98.7946053 436.781746,99.6378234 C435.734127,99.9572543 435.793651,101.352036 434.920635,101.897648 C433.444444,102.838084 431.456349,102.056371 430.378968,102.848004 C423.730159,107.722797 415.831349,105.534398 408.444444,106.756568 C408.55754,112.317839 399.779762,108.919174 396.176587,111.345659 C392.248016,113.980467 392.769841,113.258276 386.918651,113.313829 C385.103175,113.333669 386.081349,116.016095 384.621032,116.045855 C379.952381,116.133153 373.930556,114.649089 370.448413,115.662935 C369.821429,115.843483 369.617063,118.785818 368.382937,119.115169 C365.843254,119.795696 363.176587,120.071478 360.746032,120.839302 C358.863095,121.432531 361.323413,124.991903 358.805556,125.789488 C354.52381,127.152526 349.801587,126.15852 345.486111,128.608813 C343.78373,129.575041 341.299603,128.664366 339.099206,129.065143 C337.224206,129.404414 336.505952,131.3706 338.039683,132.233659 C339.424603,133.013387 341.736111,132.812999 343.095238,133.483605 C346.265873,135.047031 348.888889,137.304871 352.291667,137.51518 C407.886905,140.939637 479.799603,101.419494 491.126984,53.554467 C491.519841,51.6259777 490.644841,51.9850894 490.246032,53.0544883 C478.188492,81.7774723 447.130952,93.975366 447.130952,93.975366" id="Fill-104" fill="#E21836"></path>
            </g>
        </g>
    </g>
</svg>