<?xml version="1.0" encoding="UTF-8" standalone="no"?>
<svg  viewBox="0 0 500 500" version="1.1" xmlns="http://www.w3.org/2000/svg" xmlns:xlink="http://www.w3.org/1999/xlink">
    <!-- Generator: Sketch 39.1 (31720) - http://www.bohemiancoding.com/sketch -->
    <title>SJ</title>
    <desc>Created with Sketch.</desc>
    <defs>
        <polygon id="path-1" points="497.546218 0.00126060606 497.546218 416 0 416 0 0.00126060606 497.546218 0.00126060606"></polygon>
    </defs>
    <g id="Page-1" stroke="none" stroke-width="1" fill="none" fill-rule="evenodd">
        <g id="SJ">
            <g id="Page-1" transform="translate(1.000000, 43.000000)">
                <g id="Group-3">
                    <mask id="mask-2" fill="white">
                        <use xlink:href="#path-1"></use>
                    </mask>
                    <g id="Clip-2"></g>
                    <path d="M493.121008,167.14922 C493.121008,170.073826 492.621008,175.141463 491.889916,182.45718 C491.171429,189.663644 482.263866,189.369503 482.263866,189.369503 C451.486555,249.033988 427.335294,272.145099 427.335294,272.145099 L424.797479,271.922392 L421.129412,274.473018 L418.011765,266.90518 C418.011765,266.90518 443.230252,226.565786 465.898319,181.986554 L464.789076,175.099442 L469.847899,166.090311 C469.847899,166.090311 482.036975,163.123685 493.121008,167.14922 M438.759664,274.889018 C438.087395,278.914554 440.234454,281.654271 440.234454,281.654271 L436.511765,284.351968 C431.843697,283.036735 425.381513,278.63722 425.381513,278.63722 L424.663025,276.002554 C424.663025,276.002554 433.915126,271.750109 438.759664,274.889018 M438.780672,350.823725 C438.780672,352.798675 434.910924,354.22316 423.196639,354.22316 C401.608403,354.22316 395.02437,352.244008 387.137815,348.806756 C387.137815,348.806756 376.898319,355.462756 356.780672,349.521099 C356.780672,349.521099 344.927731,353.344937 325.104202,348.827766 C321.671429,351.891038 318.822689,351.025422 318.822689,351.025422 C318.822689,351.025422 318.398319,349.176533 318.419328,346.663725 C315.835294,345.63423 313.07479,344.348412 310.146218,342.835685 C308.776471,345.735079 307.205042,348.134432 307.205042,348.134432 C304.885714,348.768937 302.684034,348.411766 302.684034,348.411766 C302.507563,344.936695 299.936134,343.176048 299.936134,343.176048 C300.927731,341.415402 302.209244,340.234634 303.738655,339.326998 C300.902521,337.68821 297.906723,335.868735 294.805882,333.927402 C291.818487,334.292978 288.885714,334.633341 285.994958,334.952695 L241.255462,407.328291 L204.385714,347.684816 C168.658824,380.653867 158.667227,409.143564 158.667227,409.143564 C136.406723,409.782271 110.053782,411.408453 110.053782,411.408453 L107.663025,407.017341 C134.936134,362.463321 172.578992,330.502756 187.247059,319.959887 L171.553782,294.571281 C174.671429,295.348655 179.205042,296.445382 183.940336,297.500089 C184.990756,297.7312 186.041176,297.962311 187.091597,298.18922 C189.940336,298.794311 192.742857,299.357382 195.268067,299.79019 L206.116807,316.989059 C218.04958,317.884089 236.927731,319.199321 261.902521,319.199321 C265.616807,319.199321 269.003361,319.174109 272.108403,319.123685 C259.747059,310.904533 246.020168,301.748331 230.969748,292.579523 C233.015966,294.739362 235.070588,296.958028 237.15042,299.239725 C226.091597,299.239725 209.188235,300.042311 186.47395,294.90324 C82.6420168,271.409745 12.310084,237.78518 12.310084,233.406675 C12.310084,233.406675 67.5621849,232.095644 130.545378,228.242392 L53.8521008,104.165139 C53.8521008,104.165139 142.919328,123.637301 213.142017,128.4192 C207.20084,78.2050586 168.373109,18.4271192 168.373109,10.2962101 C207.595798,29.8986343 268.482353,84.6383515 308.158824,162.505988 C314.494958,166.972735 330.860504,178.923281 349.957143,195.937261 L352.259664,192.739523 C360.889916,186.72223 399.873109,170.662109 435.368908,152.660655 C436.205042,152.232048 436.835294,152.639644 436.835294,154.017907 C436.835294,159.736857 420.684034,207.41718 398.373109,247.37419 L400.377311,249.937422 C412.494958,256.055564 413.377311,260.219766 418.860504,283.011523 C428.814286,302.857665 438.780672,341.406998 438.780672,350.823725 M428.658824,104.165139 L386.301681,172.683281 C381.747059,174.771685 377.163025,176.860089 372.826891,178.868655 C371.49916,179.486352 370.20084,180.091442 368.927731,180.692331 C365.478151,182.310109 362.276471,183.848048 359.478151,185.247321 L396.587395,126.40223 C370.49916,131.318594 334.814286,137.382109 299.978151,141.214352 C298.982353,139.516735 297.982353,137.823321 296.965546,136.150917 C296.52437,135.411362 296.083193,134.667604 295.637815,133.932251 C294.116807,131.448857 292.583193,128.986473 291.032773,126.561907 C356.616807,119.910109 428.658824,104.165139 428.658824,104.165139 M466.931933,162.245463 L460.17563,174.275846 L461.297479,181.255402 C443.410924,216.283442 423.902521,248.794473 416.927731,260.219766 C414.22605,254.076412 410.654622,250.462675 403.747059,246.756493 C403.747059,246.756493 435.469748,189.193018 444.045378,143.533867 C420.041176,155.408776 394.915126,167.174432 394.915126,167.174432 L437.910924,97.6141899 C437.910924,97.6141899 355.230252,115.695483 289.818487,122.225422 C219.305882,18.3220687 155.192437,0.00126060606 155.192437,0.00126060606 C155.192437,0.00126060606 199.604202,72.7130182 207.856303,123.561665 C117.931933,115.124008 44.5915966,97.6141899 44.5915966,97.6141899 L122.885714,224.263079 C77.0705882,226.973382 -0.000840336134,229.477786 -0.000840336134,229.477786 C19.6462185,249.126432 82.8352941,274.023402 166.423529,294.688937 L181.339496,318.825341 C132.188235,355.870352 102.553782,406.887079 102.553782,406.887079 L107.520168,416.001261 C107.520168,416.001261 131.915126,414.559968 161.835294,413.475846 C161.835294,413.475846 169.990756,387.179604 203.478151,354.634958 L241.259664,415.744937 L288.633613,339.108493 L293.797479,338.507604 L296.658824,340.22623 C295.877311,341.012008 295.352101,342.507927 294.22605,344.318998 C298.154622,347.004089 298.268067,347.441099 298.452941,352.210392 C298.452941,352.210392 303.692437,354.038271 310.163025,351.924655 L311.957143,348.684897 L314.154622,349.66817 C314.444538,351.970877 315.070588,354.475281 315.070588,354.475281 C321.095798,357.315846 326.196639,353.550836 326.196639,353.550836 C342.289076,356.857826 353.17563,354.966917 356.789076,354.088695 C372.713445,358.479806 383.020168,355.51318 387.284874,353.668493 C394.608403,356.693947 402.184034,358.647887 423.196639,358.647887 C432.881513,358.647887 443.213445,358.046998 443.213445,350.823725 C443.213445,340.675846 433.507563,303.429139 423.679832,282.814028 C423.679832,282.814028 430.894118,287.890069 437.373109,289.192695 L446.368908,282.679564 C442.289076,277.889261 443.057983,276.477382 443.608403,272.754392 C440.398319,270.031483 435.915126,269.396978 435.915126,269.396978 C444.70084,259.307927 463.083193,235.7472 485.045378,193.579927 C489.663025,192.890796 495.578992,190.176291 496.297479,182.898392 C497.066387,174.981786 497.54958,171.565543 497.54958,164.043927 C483.637815,157.673665 466.931933,162.245463 466.931933,162.245463" id="Fill-1" fill="#FEFEFE" mask="url(#mask-2)"></path>
                </g>
                <path d="M241.255882,372.711628 L263.734874,337.070093 C243.940756,338.658457 228.365126,339.145891 220.17605,339.28876 L241.255882,372.711628 Z" id="Fill-4" fill="#FEFEFE"></path>
                <path d="M334.472689,342.522214 C339.943277,339.295063 343.947479,336.206578 343.947479,336.206578 C325.922269,336.992356 319.128151,334.798901 319.128151,334.798901 C322.363445,331.575952 326.384454,328.802618 328.939076,326.251992 C326.993697,326.558739 324.993697,326.781446 323.048319,326.945325 C323.018908,327.815143 322.056723,328.815224 319.32563,330.479224 C313.930672,331.34484 308.607143,332.122214 303.401261,332.823952 C304.871849,334.403911 306.451681,335.950255 308.203782,337.399952 C309.422269,336.992356 310.728992,336.597366 312.119748,336.130941 C312.119748,337.236073 311.82563,338.500881 311.397059,339.782497 C313.548319,341.2448 315.951681,342.564234 318.686975,343.681972 C318.964286,341.917123 319.497899,340.068234 320.556723,338.391628 C321.481092,338.652154 321.981092,341.320436 322.493697,342.064194 C323.829832,344.013931 325.573529,344.337487 325.905462,345.942659 C333.468487,347.686497 343.052521,348.161325 355.691176,346.572962 L359.203782,343.728194 C340.707983,344.064356 334.472689,342.522214 334.472689,342.522214" id="Fill-6" fill="#FEFEFE"></path>
                <path d="M304.523529,315.418343 C296.439496,318.006788 292.964706,316.195717 292.964706,316.195717 C294.552941,314.611556 295.578151,311.510465 295.578151,311.510465 C288.426891,313.506424 286.2,311.518869 286.2,311.518869 C287.334454,310.838141 288.489916,308.102626 288.489916,308.102626 C279.204202,308.102626 274.12437,309.62796 274.12437,309.62796 C281.834454,310.590222 286.889076,313.981253 291.17479,318.359758 C297.233613,317.926949 300.931092,317.389091 303.523529,316.960485 L304.523529,315.418343 Z" id="Fill-8" fill="#FEFEFE"></path>
                <path d="M288.871849,310.740234 C288.871849,310.740234 292.787815,310.967143 297.32563,309.353568 C297.32563,309.353568 297.573529,312.404234 295.514706,315.131345 C295.514706,315.131345 299.35084,315.089325 307.241597,313.261446 C307.241597,313.261446 306.556723,314.854012 305.615546,316.606255 C307.039916,316.370941 308.107143,316.215467 309.25,316.215467 C311.787815,316.215467 312.086134,316.749123 314.304622,316.749123 C318.510504,316.749123 319.018908,317.627345 319.640756,322.514295 C320.497899,323.753891 321.468487,324.598497 322.161765,325.329648 C325.262605,325.090133 328.838235,324.745568 332.430672,324.237123 C332.430672,324.237123 328.434874,329.800598 322.384454,333.897568 C322.384454,333.897568 339.157563,335.473325 347.846639,334.385002 C347.846639,334.385002 344.102941,338.965204 338.930672,341.599871 C338.930672,341.599871 350.523109,342.331022 362.985294,342.125123 C362.985294,342.125123 360.535714,344.82282 358.098739,346.780962 C358.098739,346.780962 373.485294,350.25183 384.434874,347.65078 C344.905462,331.935224 323.153361,308.139184 290.081933,308.139184 C289.586134,309.534255 288.871849,310.740234 288.871849,310.740234" id="Fill-10" fill="#FEFEFE"></path>
                <path d="M129.42521,381.88716 L120.534454,393.283038 C120.534454,393.283038 146.673109,389.198675 162.34958,391.572816 L166.702521,384.110028 C158.147899,379.689503 129.42521,381.88716 129.42521,381.88716" id="Fill-12" fill="#FEFEFE"></path>
                <path d="M133.483193,376.790529 L130.722689,380.24459 C130.722689,380.24459 157.710084,378.189802 167.554622,382.732186 L173.957983,373.101156 C165.239496,371.693479 133.483193,376.790529 133.483193,376.790529" id="Fill-14" fill="#FEFEFE"></path>
                <path d="M138.152941,371.082505 L135.018487,374.881131 C135.018487,374.881131 167.337815,369.842909 174.976471,371.708606 L175.547899,370.939636 C167.547899,368.300768 138.152941,371.082505 138.152941,371.082505" id="Fill-16" fill="#FEFEFE"></path>
                <path d="M149.044958,358.554602 L139.628992,369.311774 C139.628992,369.311774 165.809664,366.584663 176.570168,369.610117 L187.435714,357.050279 C176.410504,355.239208 149.044958,358.554602 149.044958,358.554602" id="Fill-18" fill="#FEFEFE"></path>
                <path d="M163.096218,344.426149 L150.67605,356.759079 C150.67605,356.759079 173.592017,353.657988 188.697059,355.632937 L194.634034,349.069382 C188.991176,344.245463 163.096218,344.426149 163.096218,344.426149" id="Fill-20" fill="#FEFEFE"></path>
                <path d="M165.455462,342.280178 L164.808403,342.868461 C164.808403,342.868461 187.152941,342.507087 195.728571,347.881471 L197.010084,346.520016 C190.081513,342.599531 165.455462,342.280178 165.455462,342.280178" id="Fill-22" fill="#FEFEFE"></path>
                <path d="M177.802101,331.602424 L167.134034,340.771232 C167.134034,340.771232 192.02479,341.220848 198.134034,345.326222 L207.310504,336.291879 C199.247479,331.707475 177.802101,331.602424 177.802101,331.602424" id="Fill-24" fill="#FEFEFE"></path>
                <polygon id="Fill-26" fill="#FEFEFE" points="163.535294 392.568695 163.87563 394.833584 167.438655 388.572574 167.085714 386.412735"></polygon>
                <polygon id="Fill-28" fill="#FEFEFE" points="168.290756 384.431483 168.643697 386.591321 174.647899 377.830109 174.248739 375.350917"></polygon>
                <polygon id="Fill-30" fill="#FEFEFE" points="175.502101 373.594053 175.922269 376.182497 176.493697 375.434537 176.002101 372.892315"></polygon>
                <polygon id="Fill-32" fill="#FEFEFE" points="177.235714 371.263192 177.739916 373.897859 187.95 362.413737 187.521429 359.287434"></polygon>
                <polygon id="Fill-34" fill="#FEFEFE" points="188.839916 357.799499 189.285294 360.959418 195.457563 354.366448 194.684454 351.33259"></polygon>
                <polygon id="Fill-36" fill="#FEFEFE" points="195.907563 350.002651 196.693277 353.070125 197.89916 351.817923 197.470588 348.31764"></polygon>
                <polygon id="Fill-38" fill="#FEFEFE" points="198.810504 346.888113 199.247479 350.426214 207.344118 342.484396 207.251681 338.366416"></polygon>
                <path d="M213.192017,339.903935 C212.582773,340.41238 212.036555,340.91242 211.444118,341.425067 L241.255042,389.046562 L274.372689,336.143127 C273.406303,336.235572 272.456723,336.31541 271.507143,336.403653 L241.255042,384.752097 L213.192017,339.903935 Z" id="Fill-40" fill="#F4901D"></path>
                <path d="M407.626471,118.838174 L368.928992,180.691911 C370.202101,180.091022 371.496218,179.490133 372.828151,178.868234 L412.521429,115.463952 C387.647479,120.434941 340.660084,129.170941 295.639076,133.93183 C296.084454,134.667184 296.52563,135.410941 296.966807,136.150497 C339.357563,131.595507 383.160084,123.636881 407.626471,118.838174" id="Fill-42" fill="#F4901D"></path>
                <path d="M198.506723,316.427669 L187.094958,298.186699 C186.040336,297.95979 184.994118,297.732881 183.943697,297.50177 L195.691597,316.259588 C196.515126,316.301608 197.447899,316.356234 198.506723,316.427669" id="Fill-44" fill="#F4901D"></path>
                <path d="M304.205462,346.658263 C307.255882,342.527677 309.331513,339.901414 309.823109,338.25002 C307.129832,339.409778 303.671849,340.061091 301.793697,342.918465 C301.793697,342.918465 303.167647,344.258909 304.205462,346.658263" id="Fill-46" fill="#F4901D"></path>
                <path d="M319.912605,349.485802 C319.912605,349.485802 321.946218,349.216873 323.731933,347.431014 C323.731933,347.431014 321.836975,344.502206 320.719328,341.770893 C319.366387,345.208145 319.912605,349.485802 319.912605,349.485802" id="Fill-48" fill="#F4901D"></path>
                <path d="M310.495798,277.292154 C312.130252,290.267992 315.239496,295.772638 315.239496,295.772638 C315.239496,295.772638 320.134454,299.609083 329.445378,303.416113 C320.037815,286.019749 310.495798,277.292154 310.495798,277.292154" id="Fill-50" fill="#F4901D"></path>
                <path d="M208.578151,335.225826 L212.32605,333.116412 C212.32605,333.116412 227.72521,335.604008 319.964706,326.090634 C317.767227,324.485463 316.67479,324.809018 316.67479,321.140655 C316.67479,319.959887 316.872269,319.762392 314.868067,319.762392 C312.859664,319.762392 311.998319,319.232937 309.632773,319.232937 C306.657983,319.232937 302.254622,322.199564 257.061345,322.199564 C221.086555,322.199564 195.893277,319.186715 194.233613,319.186715 C192.578151,319.186715 189.351261,322.249988 179.716807,330.015321 C179.716807,330.015321 198.662185,329.754796 208.578151,335.225826" id="Fill-52" fill="#F4901D"></path>
                <path d="M161.565546,393.012008 C147.708403,390.360533 119.086555,395.13823 119.086555,395.13823 L111.405882,406.202149 L156.208403,404.088533 L161.565546,393.012008 Z" id="Fill-54" fill="#F4901D"></path>
                <path d="M469.744958,180.391467 C454.770168,207.301204 438.480252,242.955345 420.652521,265.011749 L425.795378,261.784598 L426.917227,260.675265 L425.992857,263.700719 L428.160924,262.675426 L424.887815,268.449002 L427.938235,265.982416 C427.938235,265.982416 443.190336,248.85078 481.74916,179.181285 C473.169328,177.887063 469.744958,180.391467 469.744958,180.391467" id="Fill-56" fill="#F4901D"></path>
                <path d="M471.332773,169.939782 L468.206723,174.893964 C468.206723,174.893964 475.748739,173.452671 485.79916,174.284671 L489.433613,169.162408 C478.366387,167.082408 471.332773,169.939782 471.332773,169.939782" id="Fill-58" fill="#F4901D"></path>
                <path d="M423.762605,265.523556 C423.762605,265.523556 422.338235,266.670707 420.136555,267.296808 L422.010504,271.280323 L423.170168,270.385293 L422.707983,268.952404 L424.644958,265.258828 L423.762605,265.523556 Z" id="Fill-60" fill="#F4901D"></path>
                <path d="M437.142857,275.855903 C434.004202,274.225519 427.894958,276.650085 427.894958,276.650085 C427.894958,276.650085 434.092437,278.099782 437.596639,279.683943 C437.596639,279.683943 436.970588,278.259459 437.142857,275.855903" id="Fill-62" fill="#F4901D"></path>
                <path d="M198.506723,316.427669 C200.594958,316.574739 203.145378,316.768032 206.115966,316.990739 L195.267227,299.791871 C192.746218,299.359063 189.939496,298.795992 187.094958,298.186699 L198.506723,316.427669 Z" id="Fill-64" fill="#00788B"></path>
                <path d="M220.177731,339.288339 C216.085294,339.368178 213.828992,339.35137 213.828992,339.35137 C213.610504,339.540461 213.413025,339.721147 213.190336,339.901834 L241.257563,384.749996 L271.505462,336.405754 C268.85,336.645269 266.257563,336.867976 263.732353,337.069673 L241.257563,372.711208 L220.177731,339.288339 Z" id="Fill-66" fill="#00788B"></path>
                <path d="M396.589076,126.40139 L359.479832,185.246481 C362.278151,183.847208 365.47563,182.313471 368.929412,180.691491 L407.626891,118.837754 C383.160504,123.636461 339.357983,131.595087 296.967227,136.150077 C297.979832,137.826683 298.984034,139.515895 299.97563,141.213511 C334.815966,137.381269 370.50084,131.317754 396.589076,126.40139" id="Fill-68" fill="#00788B"></path>
                <path d="M213.926891,140.673131 C213.926891,137.941818 213.796639,135.160081 213.557143,132.344727 C189.426891,134.899556 175.044538,140.597495 169.523529,143.185939 C177.989916,140.824404 193.010924,140.101657 213.926891,140.673131" id="Fill-70" fill="#00788B"></path>
                <path d="M397.290756,251.928339 C397.290756,251.928339 367.942017,210.723329 311.492437,169.18636 C316.29916,179.082117 320.757143,189.335046 324.778151,199.919935 C325.341176,201.407451 325.257143,202.701673 323.992437,202.701673 C311.626891,202.701673 267.984034,178.695531 225.122689,183.006804 C247.383193,204.201794 269.52605,233.960501 248.059664,223.106683 C248.059664,223.106683 270.458824,236.931329 296.790756,264.677269 C316.404202,264.677269 320.29916,267.992663 321.458824,270.728178 C323.681513,276.018521 326.929412,285.431046 339.765546,300.566723 C345.660504,300.566723 346.740336,300.175935 348.904202,294.889794 C348.904202,294.889794 350.496639,301.650844 347.551261,306.609228 C374.315966,327.753794 426.27395,349.049632 434.202521,349.049632 C437.408403,349.049632 430.828571,319.967451 415.77395,285.00244 C410.857983,262.857794 408.143697,256.638804 397.290756,251.928339" id="Fill-72" fill="#00788B"></path>
                <path d="M153.40042,226.748994 C153.40042,226.748994 161.060084,231.257762 173.618908,240.737519 C170.543277,235.396752 162.40042,229.585358 153.488655,224.177358 L133.934034,225.614448 L135.379412,227.938166 C141.345798,227.564186 147.362605,227.169196 153.40042,226.748994" id="Fill-74" fill="#00788B"></path>
                <path d="M268.565126,261.005543 C265.472689,277.737988 268.720588,291.176048 268.720588,291.176048 C268.191176,285.587362 272.590336,266.816937 272.590336,266.816937 L268.565126,261.005543 Z" id="Fill-76" fill="#00788B"></path>
                <path d="M258.745798,251.452251 C255.657563,270.655483 260.006303,285.967644 260.006303,285.967644 C259.077731,278.908251 262.758403,258.129261 262.758403,258.129261 L258.745798,251.452251 Z" id="Fill-78" fill="#00788B"></path>
                <path d="M249.027731,242.769196 C245.847059,263.283459 250.80084,279.671337 250.80084,279.671337 C249.872269,270.338651 253.044538,248.584792 253.044538,248.584792 L249.027731,242.769196 Z" id="Fill-80" fill="#00788B"></path>
                <path d="M226.911345,208.89461 C226.911345,208.89461 189.167647,177.656792 142.318908,169.807418 C140.621429,169.807418 137.243277,176.917236 137.243277,176.917236 C137.243277,176.917236 142.197059,172.446287 143.705462,172.446287 C183.827311,180.173802 226.911345,208.89461 226.911345,208.89461" id="Fill-82" fill="#00788B"></path>
                <path d="M412.519748,115.465212 L372.826471,178.869495 C377.162605,176.860929 381.746639,174.772525 386.301261,172.684121 L428.658403,104.16598 C428.658403,104.16598 356.616387,119.910949 291.032353,126.562747 C292.586975,128.987313 294.116387,131.449697 295.637395,133.928889 C340.662605,129.172202 387.65,120.436202 412.519748,115.465212" id="Fill-84" fill="#221F20"></path>
                <path d="M153.40042,226.748994 C147.362605,227.169196 141.345798,227.564186 135.379412,227.938166 L133.934034,225.614448 L153.488655,224.177358 C162.40042,229.585358 170.543277,235.396752 173.618908,240.737519 C161.060084,231.257762 153.40042,226.748994 153.40042,226.748994 L153.40042,226.748994 Z M213.92563,140.674812 C193.013866,140.103337 177.988655,140.826085 169.522269,143.183418 C175.043277,140.599176 189.429832,134.901236 213.555882,132.342206 C213.795378,135.161762 213.92563,137.939297 213.92563,140.674812 L213.92563,140.674812 Z M323.992857,202.700832 C325.257563,202.700832 325.341597,201.410812 324.778571,199.919095 C320.757563,189.334206 316.29958,179.081277 311.492857,169.185519 C367.942437,210.722489 397.291176,251.927499 397.291176,251.927499 C408.144118,256.637964 410.858403,262.856954 415.77437,285.0016 C430.828992,319.970812 437.408824,349.048792 434.202941,349.048792 C426.27437,349.048792 374.316387,327.752954 347.547479,306.608388 C350.497059,301.650004 348.904622,294.888954 348.904622,294.888954 C346.740756,300.179297 345.660924,300.565883 339.765966,300.565883 C326.929832,285.430206 323.681933,276.021883 321.455042,270.727337 C320.29958,267.991822 316.40042,264.676428 296.791176,264.676428 C270.459244,236.930489 248.060084,223.105842 248.060084,223.105842 C269.526471,233.959661 247.383613,204.200954 225.123109,183.005964 C267.984454,178.694691 311.627311,202.700832 323.992857,202.700832 L323.992857,202.700832 Z M310.497059,277.290893 C310.497059,277.290893 320.039076,286.018489 329.446639,303.414853 C320.135714,299.607822 315.240756,295.77558 315.240756,295.77558 C315.240756,295.77558 312.127311,290.266731 310.497059,277.290893 L310.497059,277.290893 Z M358.097899,346.779701 C360.534874,344.825762 362.984454,342.123863 362.984454,342.123863 C350.522269,342.329762 338.929832,341.59861 338.929832,341.59861 C344.106303,338.963943 347.845798,334.383741 347.845798,334.383741 C339.156723,335.472065 322.387815,333.896307 322.387815,333.896307 C328.434034,329.799337 332.429832,324.235863 332.429832,324.235863 C328.837395,324.744307 325.261765,325.088873 322.160924,325.328388 C321.471849,324.597236 320.497059,323.75263 319.639916,322.513034 C319.018067,317.626085 318.509664,316.747863 314.303782,316.747863 C312.089496,316.747863 311.786975,316.214206 309.24916,316.214206 C308.106303,316.214206 307.039076,316.369681 305.614706,316.609196 C306.555882,314.852752 307.240756,313.260186 307.240756,313.260186 C299.35,315.088065 295.513866,315.130085 295.513866,315.130085 C297.572689,312.402974 297.32479,309.352307 297.32479,309.352307 C292.786975,310.965883 288.871008,310.738974 288.871008,310.738974 C288.871008,310.738974 289.585294,309.532994 290.081092,308.137923 C323.152521,308.137923 344.908824,331.933964 384.434034,347.653721 C373.484454,350.254772 358.097899,346.779701 358.097899,346.779701 L358.097899,346.779701 Z M355.690336,346.573802 C343.051681,348.162166 333.467647,347.687337 325.908824,345.943499 C325.572689,344.334125 323.833193,344.014772 322.497059,342.060832 C321.980252,341.321277 321.480252,338.652994 320.560084,338.388267 C319.497059,340.069075 318.963445,341.917964 318.686134,343.682812 C315.955042,342.560873 313.547479,341.24564 311.396218,339.779135 C311.82479,338.501721 312.118908,337.236913 312.118908,336.131782 C310.728151,336.598206 309.421429,336.993196 308.202941,337.400792 C306.455042,335.946893 304.871008,334.404752 303.40042,332.824792 C308.606303,332.123055 313.929832,331.345681 319.328992,330.480065 C322.060084,328.816065 323.022269,327.815984 323.047479,326.946166 C324.992857,326.782287 326.992857,326.55958 328.938235,326.252832 C326.383613,328.803459 322.362605,331.57259 319.127311,334.799741 C319.127311,334.799741 325.92563,336.988994 343.946639,336.207418 C343.946639,336.207418 339.942437,339.295903 334.471849,342.523055 C334.471849,342.523055 340.707143,344.065196 359.202941,343.729034 L355.690336,346.573802 Z M319.913025,349.485802 C319.913025,349.485802 319.366807,345.208145 320.719748,341.770893 C321.837395,344.502206 323.732353,347.431014 323.732353,347.431014 C321.946639,349.216873 319.913025,349.485802 319.913025,349.485802 L319.913025,349.485802 Z M304.207143,346.657842 C303.169328,344.258489 301.791176,342.918044 301.791176,342.918044 C303.673529,340.060671 307.131513,339.409358 309.82479,338.2496 C309.328992,339.900994 307.257563,342.527257 304.207143,346.657842 L304.207143,346.657842 Z M212.32479,333.118933 L208.576891,335.224145 C198.660924,329.757317 179.719748,330.01364 179.719748,330.01364 C189.35,322.252509 192.576891,319.185034 194.232353,319.185034 C195.892017,319.185034 221.085294,322.197883 257.060084,322.197883 C302.253361,322.197883 306.656723,319.235459 309.635714,319.235459 C311.997059,319.235459 312.858403,319.764913 314.866807,319.764913 C316.871008,319.764913 316.673529,319.962408 316.673529,321.143176 C316.673529,324.807337 317.770168,324.487984 319.967647,326.093156 C227.72395,335.602327 212.32479,333.118933 212.32479,333.118933 L212.32479,333.118933 Z M241.257563,389.047822 L211.442437,341.426327 C212.034874,340.913681 212.585294,340.41364 213.190336,339.905196 C213.413025,339.720307 213.610504,339.53962 213.828992,339.350529 C213.828992,339.350529 216.085294,339.367337 220.177731,339.287499 C228.366807,339.14463 243.942437,338.657196 263.732353,337.068832 C266.257563,336.867135 268.85,336.644428 271.505462,336.404913 C272.455042,336.316671 273.404622,336.236832 274.371008,336.144388 L241.257563,389.047822 Z M199.24916,350.427055 L198.812185,346.888954 L207.253361,338.363055 L207.341597,342.485236 L199.24916,350.427055 Z M167.135714,340.770812 L177.803782,331.602004 C177.803782,331.602004 199.24916,331.711257 207.307983,336.291459 L198.135714,345.325802 C192.026471,341.220428 167.135714,340.770812 167.135714,340.770812 L167.135714,340.770812 Z M196.694538,353.070125 L195.908824,350.002651 L197.467647,348.31764 L197.90042,351.817923 L196.694538,353.070125 Z M164.807983,342.86762 L165.455042,342.279337 C165.455042,342.279337 190.081092,342.598691 197.009664,346.519176 L195.728151,347.88063 C187.152521,342.506246 164.807983,342.86762 164.807983,342.86762 L164.807983,342.86762 Z M189.282773,360.957317 L188.841597,357.797398 L194.681933,351.330489 L195.459244,354.364347 L189.282773,360.957317 Z M150.677731,356.755297 L163.097899,344.42657 C163.097899,344.42657 188.988655,344.245883 194.635714,349.069802 L188.694538,355.633358 C173.589496,353.658408 150.677731,356.755297 150.677731,356.755297 L150.677731,356.755297 Z M177.740756,373.899539 L177.236555,371.264873 L187.522269,359.289115 L187.95084,362.415418 L177.740756,373.899539 Z M139.631513,369.310933 L149.043277,358.553762 C149.043277,358.553762 176.413025,355.238368 187.434034,357.049438 L176.568487,369.609277 C165.812185,366.583822 139.631513,369.310933 139.631513,369.310933 L139.631513,369.310933 Z M175.921429,376.185438 L175.501261,373.592792 L176.001261,372.891055 L176.497059,375.437479 L175.921429,376.185438 Z M135.018067,374.882812 L138.152521,371.084186 C138.152521,371.084186 167.547479,368.302448 175.547479,370.937115 L174.97605,371.710287 C167.337395,369.84459 135.018067,374.882812 135.018067,374.882812 L135.018067,374.882812 Z M168.644118,386.58964 L168.291176,384.429802 L174.24916,375.349236 L174.648319,377.828428 L168.644118,386.58964 Z M130.72395,380.24459 L133.484454,376.790529 C133.484454,376.790529 165.236555,371.693479 173.959244,373.101156 L167.555882,382.732186 C157.711345,378.189802 130.72395,380.24459 130.72395,380.24459 L130.72395,380.24459 Z M163.87521,394.834004 L163.534874,392.569115 L167.085294,386.413156 L167.438235,388.572994 L163.87521,394.834004 Z M120.534874,393.283459 L129.42563,381.88758 C129.42563,381.88758 158.148319,379.685721 166.702941,384.110448 L162.35,391.573236 C146.673529,389.199095 120.534874,393.283459 120.534874,393.283459 L120.534874,393.283459 Z M156.207143,404.086853 L111.408824,406.200469 L119.085294,395.136549 C119.085294,395.136549 147.707143,390.363055 161.564286,393.010327 L156.207143,404.086853 Z M274.123109,309.62964 C274.123109,309.62964 279.202941,308.100105 288.488655,308.100105 C288.488655,308.100105 287.333193,310.839822 286.198739,311.520549 C286.198739,311.520549 288.42563,313.503903 295.576891,311.512145 C295.576891,311.512145 294.555882,314.609034 292.963445,316.197398 C292.963445,316.197398 296.438235,318.008469 304.522269,315.420024 L303.522269,316.962166 C300.934034,317.38657 297.232353,317.924428 291.173529,318.361438 C286.887815,313.982933 281.833193,310.591903 274.123109,309.62964 L274.123109,309.62964 Z M268.719748,291.174368 C268.719748,291.174368 265.471849,277.740509 268.564286,261.003863 L272.589496,266.815257 C272.589496,266.815257 268.190336,285.585681 268.719748,291.174368 L268.719748,291.174368 Z M260.005462,285.968065 C260.005462,285.968065 255.656723,270.655903 258.744958,251.452671 L262.757563,258.129681 C262.757563,258.129681 259.076891,278.908671 260.005462,285.968065 L260.005462,285.968065 Z M250.803782,279.673438 C250.803782,279.673438 245.845798,263.281358 249.026471,242.771297 L253.043277,248.582691 C253.043277,248.582691 249.871008,270.340752 250.803782,279.673438 L250.803782,279.673438 Z M143.702941,172.446287 C142.194538,172.446287 137.240756,176.917236 137.240756,176.917236 C137.240756,176.917236 140.623109,169.807418 142.316387,169.807418 C189.169328,177.656792 226.913025,208.89461 226.913025,208.89461 C226.913025,208.89461 183.828992,180.173802 143.702941,172.446287 L143.702941,172.446287 Z M237.148319,299.238044 C235.072689,296.956347 233.013866,294.741883 230.967647,292.577842 C246.022269,301.750853 259.74916,310.902853 272.106303,319.122004 C269.001261,319.172428 265.614706,319.19764 261.90042,319.19764 C236.929832,319.19764 218.051681,317.88661 206.114706,316.99158 C203.144118,316.768873 200.593697,316.57558 198.505462,316.428509 C197.446639,316.357075 196.518067,316.298246 195.690336,316.260428 L183.942437,297.50261 C179.202941,296.443701 174.673529,295.346974 171.551681,294.573802 L187.24916,319.962408 C172.581092,330.501075 134.938235,362.465842 107.665126,407.015661 L110.055882,411.406772 C110.055882,411.406772 136.404622,409.784792 158.669328,409.141883 C158.669328,409.141883 168.656723,380.652186 204.383613,347.683135 L241.257563,407.330812 L285.997059,334.951014 C288.883613,334.635863 291.816387,334.295499 294.803782,333.929923 C297.908824,335.871257 300.90042,337.686529 303.736555,339.325317 C302.211345,340.237156 300.92563,341.413721 299.938235,343.174368 C299.938235,343.174368 302.509664,344.935014 302.686134,348.410085 C302.686134,348.410085 304.887815,348.767257 307.207143,348.136954 C307.207143,348.136954 308.778571,345.733398 310.148319,342.834004 C313.072689,344.346731 315.833193,345.632549 318.417227,346.662044 C318.40042,349.179055 318.820588,351.023741 318.820588,351.023741 C318.820588,351.023741 321.673529,351.889358 325.106303,348.830287 C344.92563,353.343257 356.778571,349.52362 356.778571,349.52362 C376.90042,355.465277 387.135714,348.809277 387.135714,348.809277 C395.026471,352.242327 401.610504,354.221479 423.194538,354.221479 C434.908824,354.221479 438.782773,352.796994 438.782773,350.822044 C438.782773,341.405317 428.816387,302.855984 418.862605,283.014044 C413.379412,260.222287 412.492857,256.058085 400.37521,249.939943 L398.37521,247.372509 C420.681933,207.415499 436.833193,159.739378 436.833193,154.016226 C436.833193,152.637964 436.207143,152.23457 435.366807,152.658974 C399.871008,170.660428 360.892017,186.724752 352.257563,192.737842 L349.955042,195.93558 C330.862605,178.9216 314.492857,166.971055 308.160924,162.504307 C268.480252,84.6408727 207.593697,29.8969535 168.371008,10.2945293 C168.371008,18.4296404 207.198739,78.2033778 213.139916,128.421721 C142.921429,123.63562 53.8542017,104.163459 53.8542017,104.163459 L130.547479,228.240711 C67.560084,232.098166 12.3079832,233.404994 12.3079832,233.404994 C12.3079832,237.783499 82.639916,271.412267 186.471849,294.905762 C209.190336,300.04063 226.093697,299.238044 237.148319,299.238044 L237.148319,299.238044 Z" id="Fill-86" fill="#221F20"></path>
                <path d="M427.894538,276.647984 C427.894538,276.647984 434.003782,274.22762 437.142437,275.853802 C436.970168,278.26156 437.596218,279.686044 437.596218,279.686044 C434.092017,278.101883 427.894538,276.647984 427.894538,276.647984 M424.663445,276.005075 L425.381933,278.639741 C425.381933,278.639741 431.844118,283.039257 436.512185,284.350287 L440.234874,281.65259 C440.234874,281.65259 438.087815,278.912873 438.760084,274.887337 C433.915546,271.748428 424.663445,276.005075 424.663445,276.005075" id="Fill-88" fill="#221F20"></path>
                <path d="M489.432353,169.164089 L485.802101,174.286352 C475.747479,173.454352 468.205462,174.891442 468.205462,174.891442 L471.331513,169.941463 C471.331513,169.941463 478.365126,167.084089 489.432353,169.164089 L489.432353,169.164089 Z M427.940756,265.982836 L424.890336,268.449422 L428.159244,262.675846 L425.995378,263.701139 L426.915546,260.675685 L425.793697,261.785018 L420.655042,265.01217 C438.478571,242.955766 454.768487,207.301624 469.743277,180.391887 C469.743277,180.391887 473.167647,177.887483 481.751681,179.181705 C443.192857,248.8512 427.940756,265.982836 427.940756,265.982836 L427.940756,265.982836 Z M423.167647,270.386554 L422.007983,271.281584 L420.134034,267.298069 C422.339916,266.671968 423.764286,265.524816 423.764286,265.524816 L424.646639,265.260089 L422.705462,268.953665 L423.167647,270.386554 Z M469.848319,166.092412 L464.789496,175.097341 L465.898739,181.988655 C443.230672,226.563685 418.012185,266.907281 418.012185,266.907281 L421.129832,274.475119 L424.797899,271.920291 L427.335714,272.1472 C427.335714,272.1472 451.486975,249.036089 482.264286,189.371604 C482.264286,189.371604 491.171849,189.665745 491.890336,182.455079 C492.621429,175.143564 493.121429,170.075927 493.121429,167.151321 C482.037395,163.125786 469.848319,166.092412 469.848319,166.092412 L469.848319,166.092412 Z" id="Fill-90" fill="#221F20"></path>
            </g>
        </g>
    </g>
</svg>