<svg viewBox="0 0 500 500" fill="none" xmlns="http://www.w3.org/2000/svg">
<g id="Color=Dark">
<g id="Frame" clip-path="url(#clip0)">
<path id="Vector" d="M336.208 294.687C338.41 290.909 340.392 287.097 342.154 283.302L500.051 198.763H333.904C321.452 185.701 303.409 177.755 281.3 175.519L268.153 45.0679L189.73 174.909H147.528L133.229 198.831H0L89.9434 271.273L34.1544 364.673H75.1364L20.0081 455.836L190.255 364.656C195.338 364.656 200.42 364.47 205.367 364.215L308.711 447.484L297.615 337.363C313.488 326.179 326.671 311.601 336.208 294.687V294.687ZM288.534 333.009L298.072 427.882L208.196 355.49C201.691 355.88 194.948 356.083 188.07 356.083L43.6248 433.405L90.35 356.033H49.3003L101.193 269.206L24.4299 207.369H138.126L152.407 183.465H194.592L262.173 71.5647L273.456 183.583C298.394 184.65 317.86 192.816 330.058 207.301H465.591L335.496 277.101C333.505 281.649 331.242 286.074 328.72 290.35C317.995 308.782 304.815 322.844 288.534 333.009Z" fill="#11782D"/>
<path id="Vector_2" d="M244.587 291.061C261.359 281.252 271.253 263.954 268.949 251.824C268.847 251.298 268.717 250.778 268.56 250.266V250.266C268.412 249.728 268.225 249.201 268 248.69C268 248.69 268 248.605 268 248.571C267.797 248.114 267.56 247.691 267.323 247.267L267.17 247.013C266.936 246.633 266.681 246.265 266.408 245.912C266.332 245.798 266.247 245.69 266.154 245.59C265.884 245.258 265.595 244.941 265.29 244.641L264.934 244.285C264.634 243.996 264.317 243.725 263.985 243.472L263.528 243.116C263.189 242.879 262.85 242.642 262.494 242.422C262.308 242.299 262.116 242.186 261.918 242.083C261.563 241.863 261.19 241.676 260.8 241.473L260.123 241.151L258.937 240.66C258.666 240.541 258.395 240.456 258.107 240.355C257.818 240.253 257.31 240.067 256.87 239.931L255.904 239.66L254.633 239.321L253.481 239.067L252.194 238.813L250.839 238.593L249.585 238.406L247.891 238.203L246.739 238.085C246.061 238.085 245.366 237.983 244.655 237.932H243.757L240.843 237.813H240.572C239.454 237.813 238.319 237.813 237.184 237.813H174.77L185.189 246.284L190.391 250.469L183.241 261.854L160.234 299.447H201.606C215.43 299.38 231.339 298.82 244.587 291.061Z" fill="black"/>
<path id="Vector_3" d="M335.496 277.101L465.676 207.369H330.142C317.944 192.816 298.478 184.65 273.54 183.651L262.257 71.6323L194.592 183.464H152.407L138.125 207.369H24.4297L101.192 269.206L49.3001 356.032H90.3498L43.6246 433.405L188.069 356.032C194.948 356.032 201.623 355.829 208.196 355.439L298.072 427.882L288.534 333.009C304.815 322.708 317.995 308.714 328.753 290.282C331.262 286.027 333.514 281.625 335.496 277.101ZM323.383 259.888C321.131 267.512 317.939 274.825 313.878 281.658C310.8 286.996 307.323 292.093 303.476 296.906C289.211 314.695 269.593 327.604 239.25 334.093C236.291 334.725 233.236 335.29 230.085 335.787C234.286 335.906 241.148 336.397 249.297 336.499C250.991 336.499 252.685 336.499 254.379 336.499H254.599L259.682 336.397H260.122C261.817 336.397 263.612 336.245 265.374 336.126H265.764C267.594 335.99 269.423 335.855 271.253 335.652L276.759 388.594L213.736 337.752C205.655 338.447 196.981 338.803 187.629 338.803H183.749L90.858 388.56L114.915 348.748L151.763 338.803H79.6765L123.725 265.174L73.3234 224.582H147.867L162.166 200.66H204.283L250.161 124.694L257.835 200.66H267.949C294.548 200.66 313.014 209.639 321.146 224.582H397.045L375.36 236.306L335.039 258.109C334.852 256.669 334.632 255.263 334.361 253.908C334.361 253.569 334.208 253.23 334.141 252.908C333.92 251.875 333.666 250.875 333.395 249.893C333.294 249.52 333.192 249.147 333.073 248.775C332.768 247.775 332.413 246.775 332.04 245.81L331.752 245.014C331.227 243.76 330.685 242.54 330.058 241.32C328.433 238.229 326.497 235.311 324.281 232.612C326.466 240.575 326.229 249.791 323.383 259.888Z" fill="black"/>
<path id="Vector_4" d="M213.736 337.752L276.793 388.577L249.314 336.482C241.165 336.38 234.304 335.889 230.102 335.77L213.736 337.752Z" fill="white"/>
<path id="Vector_5" d="M151.764 338.803L114.899 348.748L90.8413 388.56L142.53 341.293L151.764 338.803Z" fill="white"/>
<path id="Vector_6" d="M268.949 251.824C271.253 263.937 261.359 281.252 244.587 291.061C231.339 298.82 215.38 299.379 201.623 299.379H160.251L119.913 319.066H201.572C262.427 319.066 284.739 286.876 292.227 268.732C298.8 252.773 296.327 242.032 294.616 237.525L268.559 250.266C268.717 250.778 268.847 251.298 268.949 251.824V251.824Z" fill="white"/>
<path id="Vector_7" d="M330.058 241.32L396.96 224.582H321.062C322.338 227.161 323.414 229.834 324.28 232.579C326.499 235.288 328.435 238.217 330.058 241.32V241.32Z" fill="white"/>
<path id="Vector_8" d="M179.514 219.127H179.667H254.498C267.187 219.127 287.466 220.957 294.616 237.458L321.062 224.582C312.93 209.639 294.463 200.66 267.865 200.66H232.287L250.279 124.694L257.954 200.66L250.279 124.694L204.317 200.694H162.2L147.901 224.582H73.3574L136.228 244.167L123.674 265.242L79.6258 338.871L119.862 319.134L179.514 219.127Z" fill="white"/>
<path id="Vector_9" d="M240.555 237.745C239.437 237.745 238.302 237.745 237.167 237.745C238.302 237.695 239.437 237.712 240.555 237.745Z" fill="white"/>
<path id="Vector_10" d="M185.088 246.098L190.306 250.283L185.088 246.098Z" fill="white"/>
<path id="Vector_11" d="M335.039 258.11L375.275 236.356L335.039 258.11Z" fill="white"/>
<path id="Vector_12" d="M321.062 224.582L294.616 237.492C296.31 241.998 298.801 252.739 292.227 268.698C284.739 286.877 262.427 319.032 201.572 319.032H119.913L79.6768 338.769H151.764L142.581 341.293L90.9091 388.561L183.8 338.803H187.68C197.032 338.803 205.706 338.447 213.787 337.752L230.136 335.77C233.287 335.262 236.342 334.697 239.301 334.076C269.678 327.587 289.262 314.678 303.527 296.889C307.374 292.076 310.852 286.979 313.929 281.642C317.99 274.808 321.183 267.495 323.434 259.872C326.28 249.707 326.517 240.558 324.332 232.595C323.45 229.844 322.357 227.165 321.062 224.582V224.582Z" fill="#999999"/>
<path id="Vector_13" d="M73.3066 224.616L123.657 265.191L136.194 244.2L73.3066 224.616Z" fill="#999999"/>
<path id="Vector_14" d="M232.186 200.711H257.852L250.195 124.745L232.186 200.711Z" fill="#999999"/>
<path id="Vector_15" d="M331.752 245.014L332.04 245.81C332.412 246.775 332.768 247.775 333.073 248.775C333.192 249.147 333.293 249.52 333.395 249.893C333.666 250.875 333.92 251.875 334.141 252.908C334.141 253.23 334.293 253.569 334.361 253.908C334.632 255.263 334.852 256.669 335.038 258.109L375.275 236.339L396.96 224.616L330.058 241.32C330.634 242.54 331.227 243.76 331.752 245.014Z" fill="#999999"/>
<path id="Vector_16" d="M271.338 335.618C269.508 335.821 267.679 335.957 265.849 336.092H265.459C263.765 336.211 261.935 336.295 260.207 336.363H259.767L254.684 336.465H254.396C252.702 336.465 251.008 336.465 249.314 336.465L276.81 388.543L271.338 335.618Z" fill="#999999"/>
<path id="Vector_17" d="M254.498 219.194H179.666H179.514L119.913 319.15L160.251 299.464L183.241 261.853L190.289 250.35L185.088 246.165L174.669 237.695H237.116C238.302 237.695 239.437 237.695 240.504 237.695H240.843L243.757 237.813H244.655C245.366 237.813 246.061 237.898 246.739 237.966L247.891 238.084L249.585 238.288L250.838 238.474L252.194 238.694L253.481 238.948L254.633 239.202L255.904 239.541L256.87 239.812C257.31 239.948 257.717 240.083 258.106 240.236C258.496 240.388 258.665 240.422 258.937 240.541L260.122 241.032L260.8 241.354C261.19 241.557 261.563 241.744 261.918 241.964C262.116 242.067 262.308 242.18 262.494 242.303C262.85 242.523 263.189 242.76 263.528 242.997L263.985 243.353C264.317 243.606 264.633 243.877 264.934 244.166L265.29 244.522C265.595 244.822 265.884 245.139 266.154 245.471C266.247 245.571 266.332 245.679 266.408 245.793C266.681 246.146 266.936 246.514 267.17 246.894L267.323 247.148C267.56 247.572 267.797 247.995 268 248.453C268 248.453 268 248.453 268 248.571C268.225 249.082 268.411 249.609 268.559 250.147V250.147L294.616 237.407C287.466 221.024 267.187 219.194 254.498 219.194Z" fill="#999999"/>
<path id="Vector_18" d="M325.077 415.667C323.257 415.664 321.477 416.2 319.962 417.209C318.447 418.218 317.265 419.653 316.566 421.334C315.867 423.015 315.683 424.865 316.036 426.651C316.389 428.436 317.263 430.077 318.549 431.365C319.835 432.653 321.474 433.531 323.259 433.888C325.044 434.244 326.895 434.063 328.577 433.367C330.259 432.671 331.696 431.492 332.708 429.979C333.72 428.466 334.26 426.687 334.26 424.866C334.262 423.659 334.026 422.463 333.565 421.347C333.105 420.231 332.429 419.217 331.576 418.362C330.723 417.508 329.71 416.83 328.595 416.368C327.48 415.905 326.284 415.667 325.077 415.667V415.667ZM325.077 432.083C323.644 432.09 322.242 431.671 321.047 430.88C319.853 430.088 318.92 428.96 318.368 427.637C317.816 426.315 317.669 424.859 317.945 423.453C318.222 422.047 318.91 420.755 319.922 419.74C320.934 418.726 322.225 418.035 323.63 417.755C325.035 417.475 326.492 417.618 327.816 418.168C329.139 418.717 330.27 419.647 331.064 420.839C331.858 422.032 332.281 423.433 332.277 424.866C332.28 425.813 332.095 426.751 331.734 427.627C331.373 428.502 330.843 429.298 330.174 429.969C329.506 430.639 328.711 431.171 327.836 431.534C326.962 431.897 326.024 432.084 325.077 432.083V432.083Z" fill="black"/>
<path id="Vector_19" d="M328.838 422.8C328.838 421.973 328.51 421.18 327.925 420.596C327.341 420.011 326.548 419.683 325.721 419.683H321.282V430.186H323.264V425.934H324.671L326.67 430.186H328.838L326.771 425.748C327.376 425.526 327.898 425.125 328.267 424.598C328.637 424.071 328.836 423.444 328.838 422.8V422.8ZM325.721 423.952H323.264V421.665H325.721C325.883 421.645 326.047 421.66 326.203 421.708C326.358 421.757 326.502 421.838 326.624 421.946C326.746 422.054 326.844 422.187 326.911 422.335C326.978 422.484 327.012 422.645 327.012 422.808C327.012 422.971 326.978 423.133 326.911 423.281C326.844 423.43 326.746 423.563 326.624 423.671C326.502 423.779 326.358 423.86 326.203 423.908C326.047 423.957 325.883 423.972 325.721 423.952Z" fill="black"/>
</g>
</g>
<defs>
<clipPath id="clip0">
<rect width="500" height="410.836" fill="white" transform="translate(0 45)"/>
</clipPath>
</defs>
</svg>
