<?xml version="1.0" standalone="no"?>
<!DOCTYPE svg PUBLIC "-//W3C//DTD SVG 20010904//EN"
 "http://www.w3.org/TR/2001/REC-SVG-20010904/DTD/svg10.dtd">
<svg version="1.0" xmlns="http://www.w3.org/2000/svg" viewBox="0 0 1280.000000 1280.000000"
 preserveAspectRatio="xMidYMid meet">
<metadata>
Created by potrace 1.15, written by Peter Selinger 2001-2017
</metadata>
<g transform="translate(0.000000,1280.000000) scale(0.100000,-0.100000)"
fill="#FFFFFF" stroke="none">
<path d="M7125 12776 c-101 -47 -219 -169 -360 -374 l-80 -116 -75 -26 c-337
-116 -535 -351 -584 -693 l-12 -80 -139 -71 c-548 -280 -894 -715 -1036 -1301
-54 -224 -86 -543 -76 -754 l5 -113 -92 -137 c-120 -176 -194 -302 -271 -465
-287 -603 -401 -1239 -354 -1968 6 -93 9 -171 6 -174 -9 -9 -515 408 -782 645
-640 567 -1285 1249 -1632 1726 -172 237 -392 595 -658 1070 -438 781 -510
899 -632 1026 -187 196 -304 151 -345 -131 -40 -283 79 -740 378 -1452 l45
-107 -40 -83 c-96 -195 -93 -410 10 -673 89 -230 282 -509 554 -805 70 -77
103 -120 99 -130 -3 -8 -8 -109 -11 -225 -4 -161 -1 -238 11 -330 70 -526 333
-955 799 -1306 94 -71 343 -229 380 -242 4 -1 -6 -32 -22 -68 -82 -173 -92
-358 -32 -539 165 -490 782 -1017 1883 -1610 76 -41 135 -77 130 -81 -4 -4
-101 -44 -216 -89 -206 -80 -738 -295 -971 -392 -1570 -656 -2334 -1062 -2686
-1425 -84 -86 -112 -131 -107 -171 5 -44 46 -57 168 -56 88 2 311 30 385 50
14 4 12 -1 -10 -18 -165 -126 -299 -241 -396 -337 -204 -205 -233 -323 -91
-378 66 -25 367 -25 537 0 145 22 564 106 730 146 66 16 121 29 121 28 1 -1
-43 -54 -97 -117 -150 -174 -219 -285 -219 -355 0 -12 12 -32 26 -46 24 -22
33 -24 122 -23 279 3 716 158 1022 362 396 265 958 792 1506 1413 l129 145
130 -52 c365 -146 785 -266 1120 -319 405 -65 851 -71 1192 -15 473 77 1096
345 1678 721 473 306 550 396 695 813 98 284 142 356 290 479 264 219 590 375
1002 482 72 19 132 36 134 38 3 2 -85 41 -193 87 -277 116 -620 267 -673 298
-25 14 -119 75 -210 135 -91 61 -190 121 -220 135 -81 35 -184 55 -256 48
-117 -12 -195 -47 -437 -198 -333 -207 -419 -237 -685 -238 -440 -1 -687 117
-888 425 -221 340 -410 808 -495 1230 -40 193 -51 466 -25 610 41 234 124 416
426 940 257 446 328 606 382 860 21 101 23 134 23 415 0 262 -4 341 -28 563
-43 408 -52 593 -39 786 21 289 71 570 213 1194 84 372 133 618 150 750 15
126 7 370 -16 451 -42 150 -122 236 -220 236 -11 0 -42 -11 -70 -24z"/>
</g>
</svg>
